<?xml version="1.0" encoding="UTF-8"?>
<COLLADA xmlns="http://www.collada.org/2005/11/COLLADASchema" version="1.4.1">
    <asset>
        <contributor>
            <author>VCGLab</author>
            <authoring_tool>VCGLib | MeshLab</authoring_tool>
        </contributor>
        <created>周一 7月 4 08:43:03 2022 GMT</created>
        <modified>周一 7月 4 08:43:03 2022 GMT</modified>
        <up_axis>Y_UP</up_axis>
    </asset>
    <library_geometries>
        <geometry id="shape0-lib" name="shape0">
            <mesh>
                <source id="shape0-lib-positions" name="position">
                    <float_array id="shape0-lib-positions-array" count="1428">0.3315 -0.014 -0.026 0.3315 0.014 -0.026 0.336277 -0.014 -0.0255573 0.336277 0.014 -0.0255573 0.338229 -0.014 -0.0251141 0.338229 0.014 -0.0251141 0.340892 -0.014 -0.0242443 0.340892 0.014 -0.0242443 0.3445 -0.014 -0.0225167 0.3445 0.014 -0.0225167 0.345187 -0.014 -0.0221056 0.345187 0.014 -0.0221056 0.349016 -0.014 -0.0192142 0.349016 0.014 -0.0192142 0.349885 -0.014 -0.0183848 0.349885 0.014 -0.0183848 0.352248 -0.014 -0.0156685 0.352248 0.014 -0.0156685 0.354017 -0.014 -0.013 0.354017 0.014 -0.013 0.354774 -0.014 -0.0115892 0.354774 0.014 -0.0115892 0.356507 -0.014 -0.00711524 0.356507 0.014 -0.00711524 0.356614 -0.014 -0.0067293 0.356614 0.014 -0.0067293 0.357389 -0.014 -0.00239898 0.357389 0.014 -0.00239898 0.3575 -0.014 -5.5144e-18 0.3575 0.014 -5.5144e-18 0.357389 -0.014 0.00239898 0.357389 0.014 0.00239898 0.356614 -0.014 0.0067293 0.356614 0.014 0.0067293 0.356507 -0.014 0.00711524 0.356507 0.014 0.00711524 0.354774 -0.014 0.0115892 0.354774 0.014 0.0115892 0.354017 -0.014 0.013 0.354017 0.014 0.013 0.352248 -0.014 0.0156685 0.352248 0.014 0.0156685 0.349885 -0.014 0.0183848 0.349885 0.014 0.0183848 0.349016 -0.014 0.0192142 0.349016 0.014 0.0192142 0.345187 -0.014 0.0221056 0.345187 0.014 0.0221056 0.3445 -0.014 0.0225167 0.3445 0.014 0.0225167 0.340892 -0.014 0.0242443 0.340892 0.014 0.0242443 0.338229 -0.014 0.0251141 0.338229 0.014 0.0251141 0.336277 -0.014 0.0255573 0.336277 0.014 0.0255573 0.3315 -0.014 0.026 0.3315 0.014 0.026 3.09944e-09 -0.014 -0.026 3.09944e-09 0.014 -0.026 3.09944e-09 -0.014 0.026 3.09944e-09 0.014 0.026 -0.00477749 -0.014 0.0255573 -0.00477749 0.014 0.0255573 -0.0067293 -0.014 0.0251141 -0.0067293 0.014 0.0251141 -0.00939229 -0.014 0.0242443 -0.00939229 0.014 0.0242443 -0.013 -0.014 0.0225167 -0.013 0.014 0.0225167 -0.0136872 -0.014 0.0221056 -0.0136872 0.014 0.0221056 -0.0175161 -0.014 0.0192142 -0.0175161 0.014 0.0192142 -0.0183848 -0.014 0.0183848 -0.0183848 0.014 0.0183848 -0.0207484 -0.014 0.0156685 -0.0207484 0.014 0.0156685 -0.0225167 -0.014 0.013 -0.0225167 0.014 0.013 -0.0232742 -0.014 0.0115892 -0.0232742 0.014 0.0115892 -0.0250075 -0.014 0.00711524 -0.0250075 0.014 0.00711524 -0.0251141 -0.014 0.0067293 -0.0251141 0.014 0.0067293 -0.0258891 -0.014 0.00239898 -0.0258891 0.014 0.00239898 -0.026 -0.014 3.5929e-18 -0.026 0.014 3.5929e-18 -0.0258891 -0.014 -0.00239898 -0.0258891 0.014 -0.00239898 -0.0251141 -0.014 -0.0067293 -0.0251141 0.014 -0.0067293 -0.0250075 -0.014 -0.00711524 -0.0250075 0.014 -0.00711524 -0.0232742 -0.014 -0.0115892 -0.0232742 0.014 -0.0115892 -0.0225167 -0.014 -0.013 -0.0225167 0.014 -0.013 -0.0207484 -0.014 -0.0156685 -0.0207484 0.014 -0.0156685 -0.0183848 -0.014 -0.0183848 -0.0183848 0.014 -0.0183848 -0.0175161 -0.014 -0.0192142 -0.0175161 0.014 -0.0192142 -0.0136872 -0.014 -0.0221056 -0.0136872 0.014 -0.0221056 -0.013 -0.014 -0.0225167 -0.013 0.014 -0.0225167 -0.00939229 -0.014 -0.0242443 -0.00939229 0.014 -0.0242443 -0.0067293 -0.014 -0.0251141 -0.0067293 0.014 -0.0251141 -0.00477749 -0.014 -0.0255573 -0.00477749 0.014 -0.0255573 3.09944e-09 0.02 -0.02 3.09944e-09 0.02 0.02 0.3315 0.02 -0.02 0.3315 0.02 0.02 -0.003675 0.02 -0.0196595 -0.00722484 0.02 -0.0186494 -0.0105286 0.02 -0.0170043 -0.0179033 0.02 -0.00891477 -0.0192365 0.02 -0.00547326 -0.0199147 0.02 -0.00184537 -0.0134739 0.02 0.0147802 -0.0159603 0.02 0.0120527 -0.0179033 0.02 0.00891477 0.335175 0.02 0.0196595 0.338725 0.02 0.0186494 0.342029 0.02 0.0170043 0.344974 0.02 0.0147802 0.34746 0.02 0.0120527 0.349403 0.02 0.00891477 0.342029 0.02 -0.0170043 0.350737 0.02 0.00547326 0.338725 0.02 -0.0186494 0.335175 0.02 -0.0196595 -0.0134739 0.02 -0.0147802 -0.0159603 0.02 -0.0120527 -0.0199147 0.02 0.00184537 -0.0192365 0.02 0.00547326 -0.0105286 0.02 0.0170043 -0.00722484 0.02 0.0186494 -0.003675 0.02 0.0196595 0.351415 0.02 0.00184537 0.351415 0.02 -0.00184537 0.350737 0.02 -0.00547326 0.349403 0.02 -0.00891477 0.34746 0.02 -0.0120527 0.344974 0.02 -0.0147802 0.338725 -0.02 0.0186494 0.335175 -0.02 0.0196595 0.342029 -0.02 -0.0170043 0.338725 -0.02 -0.0186494 -0.00722484 -0.02 0.0186494 -0.0105286 -0.02 0.0170043 -0.0134739 -0.02 0.0147802 -0.0179033 -0.02 -0.00891477 -0.0159603 -0.02 -0.0120527 3.09944e-09 -0.02 0.02 -0.0159603 -0.02 0.0120527 -0.0179033 -0.02 0.00891477 -0.0192365 -0.02 0.00547326 -0.0199147 -0.02 0.00184537 -0.00722484 -0.02 -0.0186494 -0.003675 -0.02 -0.0196595 3.09944e-09 -0.02 -0.02 0.3315 -0.02 0.02 0.3315 -0.02 -0.02 0.335175 -0.02 -0.0196595 -0.003675 -0.02 0.0196595 -0.0199147 -0.02 -0.00184537 -0.0192365 -0.02 -0.00547326 -0.0134739 -0.02 -0.0147802 -0.0105286 -0.02 -0.0170043 0.350737 -0.02 -0.00547326 0.351415 -0.02 -0.00184537 0.351415 -0.02 0.00184537 0.350737 -0.02 0.00547326 0.349403 -0.02 0.00891477 0.34746 -0.02 0.0120527 0.344974 -0.02 0.0147802 0.342029 -0.02 0.0170043 0.349403 -0.02 -0.00891477 0.344974 -0.02 -0.0147802 0.34746 -0.02 -0.0120527 0.340786 0.0158541 0.0239704 0.345033 0.0158541 0.021856 0.352014 0.0158541 0.0154915 0.357097 0.0158541 0.00237188 0.357097 0.0158541 -0.00237188 0.356225 0.0158541 -0.00703487 0.352014 0.0158541 -0.0154915 0.340786 0.0158541 -0.0239704 0.335516 0.0197063 -0.021482 0.339395 0.0197063 -0.0203783 0.335823 0.0188541 -0.0231261 0.339999 0.0188541 -0.021938 0.336067 0.0175267 -0.0244309 0.340478 0.0175267 -0.0231758 0.336224 0.0158541 -0.0252686 0.346223 0.0197063 -0.0161504 0.34894 0.0197063 -0.01317 0.34735 0.0188541 -0.0173864 0.350275 0.0188541 -0.014178 0.348244 0.0175267 -0.0183674 0.351334 0.0175267 -0.0149779 0.348818 0.0158541 -0.0189972 0.351063 0.0197063 0.00974121 0.34894 0.0197063 0.01317 0.35256 0.0188541 0.0104868 0.350275 0.0188541 0.014178 0.353748 0.0175267 0.0110784 0.351334 0.0175267 0.0149779 0.354511 0.0158541 0.0114583 0.3315 0.0197063 -0.0218541 0.3315 0.0188541 -0.0235267 0.3315 0.0175267 -0.0248541 0.3315 0.0158541 -0.0257063 0.345033 0.0158541 -0.021856 0.344584 0.0175267 -0.0211314 0.343885 0.0188541 -0.0200028 0.343005 0.0197063 -0.0185807 0.354511 0.0158541 -0.0114583 0.353748 0.0175267 -0.0110784 0.35256 0.0188541 -0.0104868 0.351063 0.0197063 -0.00974121 0.35252 0.0197063 -0.00598066 0.354129 0.0188541 -0.00643839 0.355405 0.0175267 -0.00680165 0.356248 0.0175267 -0.00229325 0.354926 0.0188541 -0.00217077 0.353261 0.0197063 -0.00201644 0.356248 0.0175267 0.00229325 0.354926 0.0188541 0.00217077 0.353261 0.0197063 0.00201644 0.356225 0.0158541 0.00703487 0.355405 0.0175267 0.00680165 0.354129 0.0188541 0.00643839 0.35252 0.0197063 0.00598066 0.348818 0.0158541 0.0189972 0.348244 0.0175267 0.0183674 0.34735 0.0188541 0.0173864 0.346223 0.0197063 0.0161504 0.343005 0.0197063 0.0185807 0.343885 0.0188541 0.0200028 0.344584 0.0175267 0.0211314 0.340478 0.0175267 0.0231758 0.339999 0.0188541 0.021938 0.339395 0.0197063 0.0203783 0.336224 0.0158541 0.0252686 0.336067 0.0175267 0.0244309 0.335823 0.0188541 0.0231261 0.335516 0.0197063 0.021482 0.3315 0.0197063 0.0218541 0.3315 0.0188541 0.0235267 0.3315 0.0175267 0.0248541 0.3315 0.0158541 0.0257063 3.09944e-09 0.0197063 -0.0218541 3.09944e-09 0.0188541 -0.0235267 3.09944e-09 0.0175267 -0.0248541 3.09944e-09 0.0158541 -0.0257063 3.09944e-09 0.0197063 0.0218541 3.09944e-09 0.0188541 0.0235267 3.09944e-09 0.0175267 0.0248541 3.09944e-09 0.0158541 0.0257063 -0.00928621 0.0158541 -0.0239704 -0.0135327 0.0158541 -0.021856 -0.0205141 0.0158541 -0.0154915 -0.0255967 0.0158541 -0.00237188 -0.0255967 0.0158541 0.00237188 -0.024725 0.0158541 0.00703487 -0.0205141 0.0158541 0.0154915 -0.00928621 0.0158541 0.0239704 -0.00401568 0.0197063 0.021482 -0.00789462 0.0197063 0.0203783 -0.00432302 0.0188541 0.0231261 -0.00849883 0.0188541 0.021938 -0.00456693 0.0175267 0.0244309 -0.00897833 0.0175267 0.0231758 -0.00472353 0.0158541 0.0252686 -0.014723 0.0197063 0.0161504 -0.0174399 0.0197063 0.01317 -0.0158498 0.0188541 0.0173864 -0.0187747 0.0188541 0.014178 -0.0167441 0.0175267 0.0183674 -0.019834 0.0175267 0.0149779 -0.0173182 0.0158541 0.0189972 -0.019563 0.0197063 -0.00974121 -0.0174399 0.0197063 -0.01317 -0.0210603 0.0188541 -0.0104868 -0.0187747 0.0188541 -0.014178 -0.0222485 0.0175267 -0.0110784 -0.019834 0.0175267 -0.0149779 -0.0230114 0.0158541 -0.0114583 -0.0135327 0.0158541 0.021856 -0.013084 0.0175267 0.0211314 -0.0123852 0.0188541 0.0200028 -0.0115047 0.0197063 0.0185807 -0.0230114 0.0158541 0.0114583 -0.0222485 0.0175267 0.0110784 -0.0210603 0.0188541 0.0104868 -0.019563 0.0197063 0.00974121 -0.0210198 0.0197063 0.00598066 -0.0226286 0.0188541 0.00643839 -0.0239053 0.0175267 0.00680165 -0.0247481 0.0175267 0.00229325 -0.0234264 0.0188541 0.00217077 -0.0217609 0.0197063 0.00201644 -0.0247481 0.0175267 -0.00229325 -0.0234264 0.0188541 -0.00217077 -0.0217609 0.0197063 -0.00201644 -0.024725 0.0158541 -0.00703487 -0.0239053 0.0175267 -0.00680165 -0.0226286 0.0188541 -0.00643839 -0.0210198 0.0197063 -0.00598066 -0.0173182 0.0158541 -0.0189972 -0.0167441 0.0175267 -0.0183674 -0.0158498 0.0188541 -0.0173864 -0.014723 0.0197063 -0.0161504 -0.0115047 0.0197063 -0.0185807 -0.0123852 0.0188541 -0.0200028 -0.013084 0.0175267 -0.0211314 -0.00897833 0.0175267 -0.0231758 -0.00849883 0.0188541 -0.021938 -0.00789462 0.0197063 -0.0203783 -0.00472353 0.0158541 -0.0252686 -0.00456693 0.0175267 -0.0244309 -0.00432302 0.0188541 -0.0231261 -0.00401568 0.0197063 -0.021482 3.09944e-09 -0.0197063 0.0218541 -0.00401568 -0.0197063 0.021482 3.09944e-09 -0.0188541 0.0235267 -0.00432302 -0.0188541 0.0231261 3.09944e-09 -0.0175267 0.0248541 -0.00456693 -0.0175267 0.0244309 3.09944e-09 -0.0158541 0.0257063 -0.00472353 -0.0158541 0.0252686 -0.00928621 -0.0158541 0.0239704 -0.0135327 -0.0158541 0.021856 -0.0173182 -0.0158541 0.0189972 -0.0205141 -0.0158541 0.0154915 -0.0230114 -0.0158541 0.0114583 -0.024725 -0.0158541 0.00703487 -0.0255967 -0.0158541 0.00237188 -0.0255967 -0.0158541 -0.00237188 -0.024725 -0.0158541 -0.00703487 -0.0230114 -0.0158541 -0.0114583 -0.0205141 -0.0158541 -0.0154915 -0.0173182 -0.0158541 -0.0189972 -0.0135327 -0.0158541 -0.021856 -0.00928621 -0.0158541 -0.0239704 -0.00472353 -0.0158541 -0.0252686 3.09944e-09 -0.0158541 -0.0257063 -0.00897833 -0.0175267 0.0231758 -0.013084 -0.0175267 0.0211314 -0.0167441 -0.0175267 0.0183674 -0.019834 -0.0175267 0.0149779 -0.0222485 -0.0175267 0.0110784 -0.0239053 -0.0175267 0.00680165 -0.0247481 -0.0175267 0.00229325 -0.0247481 -0.0175267 -0.00229325 -0.0239053 -0.0175267 -0.00680165 -0.0222485 -0.0175267 -0.0110784 -0.019834 -0.0175267 -0.0149779 -0.0167441 -0.0175267 -0.0183674 -0.013084 -0.0175267 -0.0211314 -0.00897833 -0.0175267 -0.0231758 -0.00456693 -0.0175267 -0.0244309 3.09944e-09 -0.0175267 -0.0248541 -0.00849883 -0.0188541 0.021938 -0.0123852 -0.0188541 0.0200028 -0.0158498 -0.0188541 0.0173864 -0.0187747 -0.0188541 0.014178 -0.0210603 -0.0188541 0.0104868 -0.0226286 -0.0188541 0.00643839 -0.0234264 -0.0188541 0.00217077 -0.0234264 -0.0188541 -0.00217077 -0.0226286 -0.0188541 -0.00643839 -0.0210603 -0.0188541 -0.0104868 -0.0187747 -0.0188541 -0.014178 -0.0158498 -0.0188541 -0.0173864 -0.0123852 -0.0188541 -0.0200028 -0.00849883 -0.0188541 -0.021938 -0.00432302 -0.0188541 -0.0231261 3.09944e-09 -0.0188541 -0.0235267 -0.00789462 -0.0197063 0.0203783 -0.0115047 -0.0197063 0.0185807 -0.014723 -0.0197063 0.0161504 -0.0174399 -0.0197063 0.01317 -0.019563 -0.0197063 0.00974121 -0.0210198 -0.0197063 0.00598066 -0.0217609 -0.0197063 0.00201644 -0.0217609 -0.0197063 -0.00201644 -0.0210198 -0.0197063 -0.00598066 -0.019563 -0.0197063 -0.00974121 -0.0174399 -0.0197063 -0.01317 -0.014723 -0.0197063 -0.0161504 -0.0115047 -0.0197063 -0.0185807 -0.00789462 -0.0197063 -0.0203783 -0.00401568 -0.0197063 -0.021482 3.09944e-09 -0.0197063 -0.0218541 0.3315 -0.0197063 0.0218541 0.3315 -0.0188541 0.0235267 0.3315 -0.0175267 0.0248541 0.3315 -0.0158541 0.0257063 0.3315 -0.0197063 -0.0218541 0.3315 -0.0188541 -0.0235267 0.3315 -0.0175267 -0.0248541 0.3315 -0.0158541 -0.0257063 0.335516 -0.0197063 -0.021482 0.335823 -0.0188541 -0.0231261 0.336067 -0.0175267 -0.0244309 0.336224 -0.0158541 -0.0252686 0.340786 -0.0158541 -0.0239704 0.345033 -0.0158541 -0.021856 0.348818 -0.0158541 -0.0189972 0.352014 -0.0158541 -0.0154915 0.354511 -0.0158541 -0.0114583 0.356225 -0.0158541 -0.00703487 0.357097 -0.0158541 -0.00237188 0.357097 -0.0158541 0.00237188 0.356225 -0.0158541 0.00703487 0.354511 -0.0158541 0.0114583 0.352014 -0.0158541 0.0154915 0.348818 -0.0158541 0.0189972 0.345033 -0.0158541 0.021856 0.340786 -0.0158541 0.0239704 0.336224 -0.0158541 0.0252686 0.340478 -0.0175267 -0.0231758 0.344584 -0.0175267 -0.0211314 0.348244 -0.0175267 -0.0183674 0.351334 -0.0175267 -0.0149779 0.353748 -0.0175267 -0.0110784 0.355405 -0.0175267 -0.00680165 0.356248 -0.0175267 -0.00229325 0.356248 -0.0175267 0.00229325 0.355405 -0.0175267 0.00680165 0.353748 -0.0175267 0.0110784 0.351334 -0.0175267 0.0149779 0.348244 -0.0175267 0.0183674 0.344584 -0.0175267 0.0211314 0.340478 -0.0175267 0.0231758 0.336067 -0.0175267 0.0244309 0.339999 -0.0188541 -0.021938 0.343885 -0.0188541 -0.0200028 0.34735 -0.0188541 -0.0173864 0.350275 -0.0188541 -0.014178 0.35256 -0.0188541 -0.0104868 0.354129 -0.0188541 -0.00643839 0.354926 -0.0188541 -0.00217077 0.354926 -0.0188541 0.00217077 0.354129 -0.0188541 0.00643839 0.35256 -0.0188541 0.0104868 0.350275 -0.0188541 0.014178 0.34735 -0.0188541 0.0173864 0.343885 -0.0188541 0.0200028 0.339999 -0.0188541 0.021938 0.335823 -0.0188541 0.0231261 0.339395 -0.0197063 -0.0203783 0.343005 -0.0197063 -0.0185807 0.346223 -0.0197063 -0.0161504 0.34894 -0.0197063 -0.01317 0.351063 -0.0197063 -0.00974121 0.35252 -0.0197063 -0.00598066 0.353261 -0.0197063 -0.00201644 0.353261 -0.0197063 0.00201644 0.35252 -0.0197063 0.00598066 0.351063 -0.0197063 0.00974121 0.34894 -0.0197063 0.01317 0.346223 -0.0197063 0.0161504 0.343005 -0.0197063 0.0185807 0.339395 -0.0197063 0.0203783 0.335516 -0.0197063 0.021482</float_array>
                    <technique_common>
                        <accessor count="476" source="#shape0-lib-positions-array" stride="3">
                            <param name="X" type="float"/>
                            <param name="Y" type="float"/>
                            <param name="Z" type="float"/>
                        </accessor>
                    </technique_common>
                </source>
                <source id="shape0-lib-normals" name="normal">
                    <float_array id="shape0-lib-normals-array" count="2844">0.0922685 0 -0.995734 0.0922685 0 -0.995734 0.221448 0 -0.975172 0.221448 0 -0.975172 0.310481 0 -0.95058 0.310481 0 -0.95058 0.4319 0 -0.901921 0.4319 0 -0.901921 0.513274 0 -0.858225 0.513274 0 -0.858225 0.602634 0 -0.798017 0.602634 0 -0.798017 0.69059 0 -0.723247 0.69059 0 -0.723247 0.754371 0 -0.656448 0.754371 0 -0.656448 0.833604 0 -0.552363 0.833604 0 -0.552363 0.881015 0 -0.473089 0.881015 0 -0.473089 0.932471 0 -0.361246 0.932471 0 -0.361246 0.963906 0 -0.266244 0.963906 0 -0.266244 0.984359 0 -0.176174 0.984359 0 -0.176174 0.998933 0 -0.0461888 0.998933 0 -0.0461888 0.998933 0 0.0461888 0.998933 0 0.0461888 0.984359 0 0.176174 0.984359 0 0.176174 0.963906 0 0.266244 0.963906 0 0.266244 0.932471 0 0.361246 0.932471 0 0.361246 0.881015 0 0.473089 0.881015 0 0.473089 0.833604 0 0.552363 0.833604 0 0.552363 0.754371 0 0.656448 0.754371 0 0.656448 0.69059 0 0.723247 0.69059 0 0.723247 0.602634 0 0.798017 0.602634 0 0.798017 0.513274 0 0.858225 0.513274 0 0.858225 0.4319 0 0.901921 0.4319 0 0.901921 0.310481 0 0.95058 0.310481 0 0.95058 0.221448 0 0.975172 0.221448 0 0.975172 0.0922685 0 0.995734 0.0922685 0 0.995734 0 0 -1 0 0 -1 -0.0922685 0 0.995734 -0.0922685 0 0.995734 -0.221448 0 0.975172 -0.221448 0 0.975172 -0.310481 0 0.95058 -0.310481 0 0.95058 -0.431902 0 0.901921 -0.431902 0 0.901921 -0.513274 0 0.858225 -0.513274 0 0.858225 -0.602634 0 0.798017 -0.602634 0 0.798017 -0.690584 0 0.723253 -0.690584 0 0.723253 -0.754373 0 0.656446 -0.754373 0 0.656446 -0.833602 0 0.552366 -0.833602 0 0.552366 -0.881015 0 0.473089 -0.881015 0 0.473089 -0.932472 0 0.361243 -0.932472 0 0.361243 -0.963906 0 0.266244 -0.963906 0 0.266244 -0.984359 0 0.176177 -0.984359 0 0.176177 -0.998933 0 0.0461826 -0.998933 0 0.0461826 -0.998933 0 -0.0461826 -0.998933 0 -0.0461826 -0.984359 0 -0.176177 -0.984359 0 -0.176177 -0.963906 0 -0.266244 -0.963906 0 -0.266244 -0.932472 0 -0.361243 -0.932472 0 -0.361243 -0.881015 0 -0.473089 -0.881015 0 -0.473089 -0.833602 0 -0.552366 -0.833602 0 -0.552366 -0.754373 0 -0.656446 -0.754373 0 -0.656446 -0.690584 0 -0.723253 -0.690584 0 -0.723253 -0.602634 0 -0.798017 -0.602634 0 -0.798017 -0.513274 0 -0.858225 -0.513274 0 -0.858225 -0.431902 0 -0.901921 -0.431902 0 -0.901921 -0.310481 0 -0.95058 -0.310481 0 -0.95058 -0.221448 0 -0.975172 -0.221448 0 -0.975172 -0.0922685 0 -0.995734 -0.0922685 0 -0.995734 0 0 1 0 0 1 0 1 0 0 1 0 0 1 0 0 1 0 0 1 0 0 1 0 0 1 0 0 1 0 0 1 0 0 1 0 0 1 0 0 1 0 0 1 0 0 1 0 0 1 0 0 1 0 0 1 0 0 1 0 0 1 0 0 1 0 0 1 0 0 1 0 0 1 0 0 1 0 0 1 0 0 1 0 0 1 0 0 1 0 0 1 0 0 1 0 0 1 0 0 1 0 0 1 0 0 1 0 0 -1 0 0 -1 0 0 -1 0 0 -1 0 0 -1 0 0 -1 0 0 -1 0 0 -1 0 0 -1 0 0 -1 0 0 -1 0 0 -1 0 0 -1 0 0 -1 0 0 -1 0 0 -1 0 0 -1 0 0 -1 0 0 -1 0 0 -1 0 0 -1 0 0 -1 0 0 -1 0 0 -1 0 0 -1 0 0 -1 0 0 -1 0 0 -1 0 0 -1 0 0 -1 0 0 -1 0 0 -1 0 0 -1 0 0 -1 0 0.306669 0.156211 0.93891 0.506956 0.156414 0.847661 0.745127 0.156076 0.648403 0.972324 0.155894 0.17402 0.986659 0.156278 -0.0456213 0.952038 0.156438 -0.262966 0.823378 0.156153 -0.545587 0.426614 0.155979 -0.890882 0.0429893 0.987585 -0.151092 0.042989 0.987585 -0.151091 0.124661 0.89022 -0.438142 0.124662 0.890219 -0.438143 0.193922 0.705593 -0.681566 0.193923 0.705592 -0.681567 0.24405 0.452452 -0.857745 0.244049 0.452454 -0.857744 0.116089 0.987585 -0.10583 0.11609 0.987585 -0.10583 0.336643 0.890219 -0.30689 0.336645 0.890218 -0.30689 0.523677 0.705592 -0.477391 0.523672 0.705597 -0.47739 0.65904 0.452449 -0.600796 0.659042 0.452447 -0.600796 0.13356 0.987585 0.0826958 0.13356 0.987584 0.0826963 0.3873 0.89022 0.239805 0.387303 0.890218 0.239809 0.602479 0.705591 0.373041 0.602476 0.705597 0.373035 0.758213 0.452457 0.469463 0.758215 0.452447 0.46947 0.0144942 0.987585 -0.156418 0.0144943 0.987585 -0.156418 0.0420312 0.890219 -0.453589 0.042031 0.890219 -0.453589 0.0653825 0.705594 -0.705594 0.0653826 0.705594 -0.705594 0.0822836 0.452451 -0.887985 0.0822835 0.452451 -0.887985 0.0911415 0.155783 -0.983578 0.0911421 0.155782 -0.983578 0.270322 0.155781 -0.950083 0.300736 0.248575 -0.920743 0.218726 0.156319 -0.963184 0.506956 0.156414 -0.847661 0.437829 0.18754 -0.87928 0.397503 0.452457 -0.798295 0.397504 0.452456 -0.798295 0.315858 0.705593 -0.634328 0.31586 0.705591 -0.634329 0.203049 0.890219 -0.407776 0.203049 0.890219 -0.407776 0.0700205 0.987585 -0.140619 0.0700204 0.987585 -0.140619 0.0946667 0.987585 -0.125359 0.0946665 0.987585 -0.125359 0.274519 0.890219 -0.363524 0.274519 0.890219 -0.363523 0.427036 0.705593 -0.56549 0.427037 0.705592 -0.56549 0.53742 0.452459 -0.711661 0.537426 0.45245 -0.711662 0.59528 0.155781 -0.788273 0.595276 0.155789 -0.788274 0.729986 0.155791 -0.66547 0.737198 0.21216 -0.641504 0.682091 0.1564 -0.714346 0.870179 0.156354 -0.46727 0.83192 0.206339 -0.515106 0.758211 0.452457 -0.469467 0.758218 0.452447 -0.469466 0.602481 0.705591 -0.373038 0.602474 0.705597 -0.373038 0.387299 0.89022 -0.239807 0.387304 0.890218 -0.239807 0.133559 0.987585 -0.082696 0.13356 0.987584 -0.0826961 0.14648 0.987585 -0.0567476 0.146481 0.987584 -0.0567475 0.424769 0.89022 -0.164558 0.424771 0.890219 -0.164557 0.660768 0.705591 -0.255983 0.660761 0.705597 -0.255984 0.831564 0.452458 -0.322155 0.831573 0.452443 -0.322151 0.92109 0.155775 -0.35683 0.921085 0.155791 -0.356835 0.972324 0.155894 -0.17402 0.968096 0.173322 -0.180967 0.876607 0.452446 -0.163865 0.87661 0.452442 -0.163864 0.69655 0.705595 -0.130205 0.696548 0.705597 -0.130206 0.447776 0.890219 -0.0837031 0.447776 0.890219 -0.0837032 0.154413 0.987585 -0.0288646 0.154415 0.987584 -0.0288643 0.986659 0.156278 0.0456213 0.977146 0.21257 0 0.891792 0.452446 0 0.891792 0.452446 0 0.708615 0.705595 0 0.708615 0.705595 0 0.455533 0.890219 0 0.455533 0.890219 0 0.157088 0.987585 0 0.157088 0.987585 0 0.952038 0.156438 0.262966 0.968096 0.173322 0.180967 0.87661 0.452442 0.163866 0.876608 0.452447 0.163863 0.696548 0.705597 0.130205 0.69655 0.705595 0.130206 0.447776 0.890219 0.083703 0.447776 0.890219 0.0837033 0.154414 0.987584 0.0288648 0.154413 0.987585 0.0288641 0.146481 0.987584 0.0567479 0.14648 0.987585 0.0567472 0.424771 0.890219 0.164558 0.424769 0.89022 0.164557 0.660762 0.705597 0.255981 0.660766 0.705591 0.255987 0.831571 0.452442 0.322158 0.831566 0.452458 0.322148 0.921088 0.155791 0.356829 0.921088 0.155775 0.356836 0.839834 0.155792 0.520007 0.811159 0.230491 0.53749 0.870179 0.156354 0.46727 0.682091 0.1564 0.714346 0.724298 0.198536 0.660285 0.659041 0.452449 0.600795 0.659041 0.452447 0.600796 0.523675 0.705592 0.477393 0.523673 0.705597 0.477388 0.336644 0.890219 0.30689 0.336645 0.890218 0.306891 0.11609 0.987585 0.105829 0.11609 0.987585 0.10583 0.0946666 0.987585 0.125359 0.0946666 0.987585 0.125359 0.274519 0.890219 0.363523 0.274519 0.890219 0.363524 0.427037 0.705592 0.56549 0.427037 0.705593 0.56549 0.537423 0.45245 0.711665 0.537423 0.452458 0.711659 0.595279 0.155789 0.788272 0.595277 0.155781 0.788275 0.426614 0.155979 0.890882 0.437829 0.18754 0.87928 0.397503 0.452456 0.798295 0.397504 0.452457 0.798294 0.315859 0.705591 0.63433 0.315859 0.705593 0.634328 0.203049 0.890219 0.407776 0.203049 0.890219 0.407776 0.0700204 0.987585 0.140619 0.0700204 0.987585 0.140619 0.218726 0.156319 0.963184 0.267502 0.211003 0.940171 0.244049 0.452452 0.857745 0.24405 0.452454 0.857744 0.193923 0.705593 0.681566 0.193922 0.705592 0.681567 0.124662 0.89022 0.438142 0.124662 0.890219 0.438143 0.0429891 0.987585 0.151092 0.0429892 0.987585 0.151091 0.0144942 0.987585 0.156418 0.0144943 0.987585 0.156418 0.0420312 0.890219 0.453589 0.042031 0.890219 0.453589 0.0653825 0.705594 0.705594 0.0653826 0.705594 0.705594 0.0822836 0.452451 0.887985 0.0822836 0.452451 0.887985 0.0911415 0.155782 0.983578 0.091142 0.155783 0.983578 0 0.987688 -0.156434 0 0.987688 -0.156434 0 0.891007 -0.45399 0 0.891007 -0.45399 0 0.707107 -0.707107 0 0.707107 -0.707107 0 0.453991 -0.891006 0 0.453991 -0.891006 0 0.156435 -0.987688 0 0.156435 -0.987688 0 0.987688 0.156434 0 0.987688 0.156434 0 0.891007 0.45399 0 0.891007 0.45399 0 0.707107 0.707107 0 0.707107 0.707107 0 0.453991 0.891006 0 0.453991 0.891006 0 0.156435 0.987688 0 0.156435 0.987688 -0.306669 0.156213 -0.93891 -0.506956 0.156414 -0.847661 -0.745129 0.15607 -0.648401 -0.972324 0.155894 -0.174023 -0.986659 0.156278 0.0456152 -0.952039 0.15643 0.262967 -0.823377 0.156147 0.545591 -0.426615 0.155982 0.890881 -0.0429892 0.987585 0.151091 -0.0429891 0.987585 0.151091 -0.124662 0.890219 0.438143 -0.124662 0.890219 0.438143 -0.193922 0.705594 0.681565 -0.193923 0.705593 0.681566 -0.24405 0.452451 0.857746 -0.244049 0.452452 0.857745 -0.116089 0.987585 0.10583 -0.11609 0.987585 0.10583 -0.336644 0.890219 0.30689 -0.336642 0.890219 0.30689 -0.523673 0.705595 0.477391 -0.523672 0.705597 0.47739 -0.65904 0.452449 0.600796 -0.659042 0.452447 0.600796 -0.133559 0.987585 -0.0826963 -0.13356 0.987584 -0.0826967 -0.3873 0.89022 -0.239806 -0.387301 0.890219 -0.239808 -0.602479 0.705591 -0.373041 -0.602476 0.705597 -0.373035 -0.758215 0.452452 -0.469464 -0.758216 0.452447 -0.469468 -0.0144942 0.987585 0.156418 -0.0144943 0.987585 0.156418 -0.0420312 0.890219 0.453589 -0.0420311 0.890219 0.453589 -0.0653828 0.705594 0.705594 -0.0653826 0.705594 0.705594 -0.0822836 0.452451 0.887985 -0.0822838 0.452451 0.887985 -0.0911417 0.155783 0.983577 -0.091142 0.155783 0.983578 -0.270322 0.155784 0.950083 -0.300736 0.248577 0.920743 -0.218726 0.156321 0.963184 -0.506956 0.156414 0.847661 -0.437829 0.18754 0.87928 -0.397504 0.452454 0.798296 -0.397505 0.452453 0.798296 -0.315858 0.705593 0.634328 -0.315858 0.705593 0.634328 -0.203049 0.890219 0.407776 -0.203048 0.890219 0.407776 -0.07002 0.987585 0.140619 -0.0700204 0.987585 0.140619 -0.0946663 0.987585 0.125359 -0.0946667 0.987585 0.125359 -0.27452 0.890219 0.363523 -0.27452 0.890219 0.363523 -0.427038 0.705593 0.565489 -0.427036 0.705595 0.565488 -0.537421 0.452455 0.711662 -0.537425 0.45245 0.711663 -0.595279 0.155781 0.788274 -0.595277 0.155784 0.788274 -0.729987 0.155785 0.66547 -0.7372 0.212162 0.641501 -0.682086 0.156395 0.714353 -0.870178 0.156361 0.46727 -0.83192 0.206343 0.515103 -0.758214 0.452452 0.469466 -0.758218 0.452447 0.469466 -0.602481 0.705591 0.373038 -0.602474 0.705597 0.373038 -0.387299 0.89022 0.239807 -0.387301 0.890219 0.239807 -0.133559 0.987585 0.0826965 -0.13356 0.987584 0.0826965 -0.14648 0.987585 0.056747 -0.14648 0.987585 0.0567471 -0.424769 0.89022 0.164558 -0.424774 0.890218 0.164557 -0.660769 0.705591 0.255981 -0.660761 0.705597 0.255982 -0.831567 0.452452 0.322153 -0.83157 0.452448 0.322152 -0.921088 0.155782 0.356832 -0.921087 0.155784 0.356833 -0.972324 0.155894 0.174023 -0.968098 0.173315 0.180968 -0.876607 0.452446 0.163865 -0.876606 0.452448 0.163866 -0.69655 0.705595 0.130208 -0.696547 0.705597 0.130208 -0.447776 0.890219 0.0837046 -0.447779 0.890218 0.0837038 -0.154413 0.987585 0.0288646 -0.154413 0.987585 0.0288647 -0.986659 0.156278 -0.0456152 -0.977147 0.212563 0 -0.891792 0.452446 0 -0.891792 0.452446 0 -0.708615 0.705595 0 -0.708615 0.705595 0 -0.455533 0.890219 0 -0.455533 0.890219 0 -0.157088 0.987585 0 -0.157088 0.987585 0 -0.952039 0.15643 -0.262967 -0.968098 0.173315 -0.180968 -0.876606 0.452448 -0.163865 -0.876607 0.452446 -0.163866 -0.696548 0.705597 -0.130207 -0.696549 0.705595 -0.130209 -0.447779 0.890218 -0.0837051 -0.447776 0.890219 -0.0837033 -0.154413 0.987585 -0.0288646 -0.154413 0.987585 -0.0288647 -0.14648 0.987585 -0.0567469 -0.14648 0.987585 -0.0567472 -0.424774 0.890218 -0.164559 -0.42477 0.89022 -0.164555 -0.660763 0.705597 -0.255979 -0.660767 0.705591 -0.255985 -0.831569 0.452448 -0.322154 -0.831568 0.452452 -0.322152 -0.921088 0.155784 -0.356832 -0.921088 0.155782 -0.356833 -0.839837 0.155785 -0.520005 -0.811155 0.2305 -0.537492 -0.870178 0.156361 -0.46727 -0.682086 0.156395 -0.714353 -0.724298 0.198536 -0.660285 -0.659041 0.452449 -0.600795 -0.659041 0.452447 -0.600796 -0.523673 0.705595 -0.477391 -0.523672 0.705597 -0.47739 -0.336643 0.890219 -0.30689 -0.336643 0.890219 -0.306889 -0.11609 0.987585 -0.105829 -0.11609 0.987585 -0.10583 -0.0946666 0.987585 -0.125359 -0.0946665 0.987585 -0.125358 -0.27452 0.890219 -0.363523 -0.27452 0.890219 -0.363523 -0.427037 0.705595 -0.565487 -0.427037 0.705593 -0.56549 -0.537423 0.45245 -0.711664 -0.537423 0.452455 -0.711661 -0.595278 0.155784 -0.788274 -0.595277 0.155781 -0.788275 -0.426615 0.155982 -0.890881 -0.437829 0.18754 -0.87928 -0.397504 0.452453 -0.798296 -0.397504 0.452454 -0.798296 -0.315858 0.705593 -0.634328 -0.315858 0.705593 -0.634328 -0.203048 0.890219 -0.407776 -0.203048 0.890219 -0.407776 -0.0700202 0.987585 -0.14062 -0.0700202 0.987585 -0.140619 -0.218726 0.156321 -0.963184 -0.267501 0.211005 -0.94017 -0.24405 0.452451 -0.857746 -0.24405 0.452452 -0.857745 -0.193922 0.705594 -0.681565 -0.193922 0.705593 -0.681566 -0.124662 0.890219 -0.438143 -0.124662 0.890219 -0.438143 -0.0429892 0.987585 -0.151091 -0.0429892 0.987585 -0.151091 -0.0144942 0.987585 -0.156418 -0.0144943 0.987585 -0.156418 -0.0420312 0.890219 -0.453589 -0.0420312 0.890219 -0.453589 -0.0653827 0.705594 -0.705594 -0.0653826 0.705594 -0.705594 -0.0822836 0.452451 -0.887985 -0.0822838 0.452451 -0.887985 -0.0911418 0.155783 -0.983578 -0.091142 0.155783 -0.983578 -0.0144943 -0.987585 0.156418 -0.0420312 -0.890219 0.453589 -0.0653826 -0.705594 0.705594 -0.0822838 -0.452451 0.887985 -0.091142 -0.155783 0.983578 -0.0911418 -0.155783 0.983578 -0.218726 -0.156321 0.963184 -0.267501 -0.211005 0.94017 -0.306669 -0.156213 0.93891 -0.426615 -0.155982 0.890881 -0.437829 -0.18754 0.87928 -0.506956 -0.156414 0.847661 -0.595277 -0.155781 0.788275 -0.595278 -0.155784 0.788274 -0.682086 -0.156395 0.714353 -0.724298 -0.198536 0.660285 -0.745129 -0.15607 0.648401 -0.839837 -0.155785 0.520005 -0.811155 -0.2305 0.537492 -0.870178 -0.156361 0.46727 -0.921088 -0.155782 0.356833 -0.921088 -0.155784 0.356832 -0.952039 -0.15643 0.262967 -0.968098 -0.173315 0.180968 -0.972324 -0.155894 0.174023 -0.98779 -0.15579 0 -0.962836 -0.266394 0.0445138 -0.986659 -0.156278 -0.0456152 -0.972324 -0.155894 -0.174023 -0.968098 -0.173315 -0.180968 -0.952039 -0.15643 -0.262967 -0.921087 -0.155784 -0.356833 -0.921088 -0.155782 -0.356832 -0.870178 -0.156361 -0.46727 -0.83192 -0.206343 -0.515103 -0.823377 -0.156147 -0.545591 -0.729987 -0.155785 -0.66547 -0.7372 -0.212162 -0.641501 -0.682086 -0.156395 -0.714353 -0.595277 -0.155784 -0.788274 -0.595279 -0.155781 -0.788274 -0.506956 -0.156414 -0.847661 -0.437829 -0.18754 -0.87928 -0.426615 -0.155982 -0.890881 -0.270322 -0.155784 -0.950083 -0.300736 -0.248577 -0.920743 -0.218726 -0.156321 -0.963184 -0.091142 -0.155783 -0.983578 -0.0911417 -0.155783 -0.983577 -0.0822836 -0.452451 0.887985 -0.24405 -0.452451 0.857746 -0.24405 -0.452452 0.857745 -0.397504 -0.452453 0.798296 -0.397504 -0.452454 0.798296 -0.537423 -0.452455 0.711661 -0.537423 -0.45245 0.711664 -0.659041 -0.452449 0.600795 -0.659041 -0.452447 0.600796 -0.758216 -0.452447 0.469468 -0.758215 -0.452452 0.469464 -0.831568 -0.452452 0.322152 -0.831569 -0.452448 0.322154 -0.876606 -0.452448 0.163865 -0.876607 -0.452446 0.163866 -0.891792 -0.452446 0 -0.891792 -0.452446 0 -0.876607 -0.452446 -0.163865 -0.876606 -0.452448 -0.163866 -0.83157 -0.452448 -0.322152 -0.831567 -0.452452 -0.322153 -0.758214 -0.452452 -0.469466 -0.758218 -0.452447 -0.469466 -0.659042 -0.452447 -0.600796 -0.65904 -0.452449 -0.600796 -0.537424 -0.45245 -0.711663 -0.537421 -0.452455 -0.711662 -0.397504 -0.452454 -0.798296 -0.397505 -0.452453 -0.798296 -0.244049 -0.452452 -0.857745 -0.24405 -0.452451 -0.857746 -0.0822838 -0.452451 -0.887985 -0.0822836 -0.452451 -0.887985 -0.0653827 -0.705594 0.705594 -0.193922 -0.705594 0.681565 -0.193922 -0.705593 0.681566 -0.315858 -0.705593 0.634328 -0.315858 -0.705593 0.634328 -0.427037 -0.705593 0.56549 -0.427037 -0.705595 0.565487 -0.523673 -0.705595 0.477391 -0.523672 -0.705597 0.47739 -0.602476 -0.705597 0.373035 -0.602479 -0.705591 0.373041 -0.660767 -0.705591 0.255985 -0.660763 -0.705597 0.255979 -0.696548 -0.705597 0.130207 -0.696549 -0.705595 0.130209 -0.708615 -0.705595 0 -0.708615 -0.705595 0 -0.69655 -0.705595 -0.130208 -0.696547 -0.705597 -0.130208 -0.660761 -0.705597 -0.255982 -0.660769 -0.705591 -0.255981 -0.602481 -0.705591 -0.373038 -0.602474 -0.705597 -0.373038 -0.523672 -0.705597 -0.47739 -0.523673 -0.705595 -0.477391 -0.427036 -0.705595 -0.565488 -0.427038 -0.705593 -0.565489 -0.315858 -0.705593 -0.634328 -0.315858 -0.705593 -0.634328 -0.193923 -0.705593 -0.681566 -0.193922 -0.705594 -0.681565 -0.0653826 -0.705594 -0.705594 -0.0653828 -0.705594 -0.705594 -0.0420312 -0.890219 0.453589 -0.124662 -0.890219 0.438143 -0.124662 -0.890219 0.438143 -0.203048 -0.890219 0.407776 -0.203048 -0.890219 0.407776 -0.27452 -0.890219 0.363523 -0.27452 -0.890219 0.363523 -0.336643 -0.890219 0.30689 -0.336643 -0.890219 0.306889 -0.387301 -0.890219 0.239808 -0.3873 -0.89022 0.239806 -0.42477 -0.89022 0.164555 -0.424774 -0.890218 0.164559 -0.447779 -0.890218 0.0837051 -0.447776 -0.890219 0.0837033 -0.455533 -0.890219 0 -0.455533 -0.890219 0 -0.447776 -0.890219 -0.0837046 -0.447779 -0.890218 -0.0837038 -0.424774 -0.890218 -0.164557 -0.424769 -0.89022 -0.164558 -0.387299 -0.89022 -0.239807 -0.387301 -0.890219 -0.239807 -0.336642 -0.890219 -0.30689 -0.336644 -0.890219 -0.30689 -0.27452 -0.890219 -0.363523 -0.27452 -0.890219 -0.363523 -0.203049 -0.890219 -0.407776 -0.203048 -0.890219 -0.407776 -0.124662 -0.890219 -0.438143 -0.124662 -0.890219 -0.438143 -0.0420311 -0.890219 -0.453589 -0.0420312 -0.890219 -0.453589 -0.0144942 -0.987585 0.156418 -0.0429892 -0.987585 0.151091 -0.0429892 -0.987585 0.151091 -0.0700202 -0.987585 0.14062 -0.0700202 -0.987585 0.140619 -0.0946665 -0.987585 0.125358 -0.0946666 -0.987585 0.125359 -0.11609 -0.987585 0.105829 -0.11609 -0.987585 0.10583 -0.13356 -0.987584 0.0826967 -0.133559 -0.987585 0.0826963 -0.14648 -0.987585 0.0567472 -0.14648 -0.987585 0.0567469 -0.154413 -0.987585 0.0288646 -0.154413 -0.987585 0.0288647 -0.157088 -0.987585 0 -0.157088 -0.987585 0 -0.154413 -0.987585 -0.0288646 -0.154413 -0.987585 -0.0288647 -0.14648 -0.987585 -0.0567471 -0.14648 -0.987585 -0.056747 -0.133559 -0.987585 -0.0826965 -0.13356 -0.987584 -0.0826965 -0.11609 -0.987585 -0.10583 -0.116089 -0.987585 -0.10583 -0.0946667 -0.987585 -0.125359 -0.0946663 -0.987585 -0.125359 -0.07002 -0.987585 -0.140619 -0.0700204 -0.987585 -0.140619 -0.0429891 -0.987585 -0.151091 -0.0429892 -0.987585 -0.151091 -0.0144943 -0.987585 -0.156418 -0.0144942 -0.987585 -0.156418 0 -0.987688 0.156434 0 -0.987688 0.156434 0 -0.891007 0.45399 0 -0.891007 0.45399 0 -0.707107 0.707107 0 -0.707107 0.707107 0 -0.453991 0.891006 0 -0.453991 0.891006 0 -0.156435 0.987688 0 -0.156435 0.987688 0 -0.987688 -0.156434 0 -0.987688 -0.156434 0 -0.891007 -0.45399 0 -0.891007 -0.45399 0 -0.707107 -0.707107 0 -0.707107 -0.707107 0 -0.453991 -0.891006 0 -0.453991 -0.891006 0 -0.156435 -0.987688 0 -0.156435 -0.987688 0.0144943 -0.987585 -0.156418 0.042031 -0.890219 -0.453589 0.0653826 -0.705594 -0.705594 0.0822836 -0.452451 -0.887985 0.091142 -0.155783 -0.983578 0.0911415 -0.155782 -0.983578 0.218726 -0.156319 -0.963184 0.267502 -0.211003 -0.940171 0.306669 -0.156211 -0.93891 0.426614 -0.155979 -0.890882 0.437829 -0.18754 -0.87928 0.506956 -0.156414 -0.847661 0.595277 -0.155781 -0.788275 0.595279 -0.155789 -0.788272 0.682091 -0.1564 -0.714346 0.724298 -0.198536 -0.660285 0.745127 -0.156076 -0.648403 0.839834 -0.155792 -0.520007 0.811159 -0.230491 -0.53749 0.870179 -0.156354 -0.46727 0.921088 -0.155775 -0.356836 0.921088 -0.155791 -0.356829 0.952038 -0.156438 -0.262966 0.968096 -0.173322 -0.180967 0.972324 -0.155894 -0.17402 0.98779 -0.15579 0 0.962832 -0.266408 -0.0445195 0.986659 -0.156278 0.0456213 0.972324 -0.155894 0.17402 0.968096 -0.173322 0.180967 0.952038 -0.156438 0.262966 0.921085 -0.155791 0.356835 0.92109 -0.155775 0.35683 0.870179 -0.156354 0.46727 0.83192 -0.206339 0.515106 0.823378 -0.156153 0.545587 0.729986 -0.155791 0.66547 0.737198 -0.21216 0.641504 0.682091 -0.1564 0.714346 0.595276 -0.155789 0.788274 0.59528 -0.155781 0.788273 0.506956 -0.156414 0.847661 0.437829 -0.18754 0.87928 0.426614 -0.155979 0.890882 0.270322 -0.155781 0.950083 0.300736 -0.248575 0.920743 0.218726 -0.156319 0.963184 0.0911421 -0.155782 0.983578 0.0911415 -0.155783 0.983578 0.0822836 -0.452451 -0.887985 0.244049 -0.452452 -0.857745 0.24405 -0.452454 -0.857744 0.397503 -0.452456 -0.798295 0.397504 -0.452457 -0.798294 0.537423 -0.452458 -0.711659 0.537423 -0.45245 -0.711665 0.659041 -0.452449 -0.600795 0.659041 -0.452447 -0.600796 0.758215 -0.452447 -0.46947 0.758213 -0.452457 -0.469463 0.831566 -0.452458 -0.322148 0.831571 -0.452442 -0.322158 0.87661 -0.452442 -0.163866 0.876608 -0.452447 -0.163863 0.891792 -0.452446 0 0.891792 -0.452446 0 0.876607 -0.452446 0.163865 0.87661 -0.452442 0.163864 0.831573 -0.452443 0.322151 0.831564 -0.452458 0.322155 0.758211 -0.452457 0.469467 0.758218 -0.452447 0.469466 0.659042 -0.452447 0.600796 0.65904 -0.452449 0.600796 0.537426 -0.45245 0.711662 0.53742 -0.452459 0.711661 0.397503 -0.452457 0.798295 0.397504 -0.452456 0.798295 0.244049 -0.452454 0.857744 0.24405 -0.452452 0.857745 0.0822835 -0.452451 0.887985 0.0822836 -0.452451 0.887985 0.0653825 -0.705594 -0.705594 0.193923 -0.705593 -0.681566 0.193922 -0.705592 -0.681567 0.315859 -0.705591 -0.63433 0.315859 -0.705593 -0.634328 0.427037 -0.705593 -0.56549 0.427037 -0.705592 -0.56549 0.523675 -0.705592 -0.477393 0.523673 -0.705597 -0.477388 0.602476 -0.705597 -0.373035 0.602479 -0.705591 -0.373041 0.660766 -0.705591 -0.255987 0.660762 -0.705597 -0.255981 0.696548 -0.705597 -0.130205 0.69655 -0.705595 -0.130206 0.708615 -0.705595 0 0.708615 -0.705595 0 0.69655 -0.705595 0.130205 0.696548 -0.705597 0.130206 0.660761 -0.705597 0.255984 0.660768 -0.705591 0.255983 0.602481 -0.705591 0.373038 0.602474 -0.705597 0.373038 0.523672 -0.705597 0.47739 0.523677 -0.705592 0.477391 0.427037 -0.705592 0.56549 0.427036 -0.705593 0.56549 0.315858 -0.705593 0.634328 0.31586 -0.705591 0.634329 0.193923 -0.705592 0.681567 0.193922 -0.705593 0.681566 0.0653826 -0.705594 0.705594 0.0653825 -0.705594 0.705594 0.0420312 -0.890219 -0.453589 0.124662 -0.89022 -0.438142 0.124662 -0.890219 -0.438143 0.203049 -0.890219 -0.407776 0.203049 -0.890219 -0.407776 0.274519 -0.890219 -0.363524 0.274519 -0.890219 -0.363523 0.336644 -0.890219 -0.30689 0.336645 -0.890218 -0.306891 0.387303 -0.890218 -0.239809 0.3873 -0.89022 -0.239805 0.424769 -0.89022 -0.164557 0.424771 -0.890219 -0.164558 0.447776 -0.890219 -0.083703 0.447776 -0.890219 -0.0837033 0.455533 -0.890219 0 0.455533 -0.890219 0 0.447776 -0.890219 0.0837031 0.447776 -0.890219 0.0837032 0.424771 -0.890219 0.164557 0.424769 -0.89022 0.164558 0.387299 -0.89022 0.239807 0.387304 -0.890218 0.239807 0.336645 -0.890218 0.306891 0.336643 -0.890219 0.30689 0.274519 -0.890219 0.363524 0.274519 -0.890219 0.363524 0.203049 -0.890219 0.407776 0.203049 -0.890219 0.407776 0.124662 -0.890219 0.438143 0.124661 -0.89022 0.438142 0.042031 -0.890219 0.453589 0.0420312 -0.890219 0.453589 0.0144942 -0.987585 -0.156418 0.0429891 -0.987585 -0.151092 0.0429892 -0.987585 -0.151091 0.0700204 -0.987585 -0.140619 0.0700204 -0.987585 -0.140619 0.0946666 -0.987585 -0.125359 0.0946666 -0.987585 -0.125359 0.11609 -0.987585 -0.105829 0.11609 -0.987585 -0.10583 0.13356 -0.987584 -0.0826963 0.13356 -0.987585 -0.0826958 0.14648 -0.987585 -0.0567472 0.146481 -0.987584 -0.0567479 0.154414 -0.987584 -0.0288648 0.154413 -0.987585 -0.0288641 0.157088 -0.987585 0 0.157088 -0.987585 0 0.154413 -0.987585 0.0288646 0.154415 -0.987584 0.0288643 0.146481 -0.987584 0.0567475 0.14648 -0.987585 0.0567476 0.133559 -0.987585 0.082696 0.13356 -0.987584 0.0826961 0.11609 -0.987585 0.10583 0.116089 -0.987585 0.10583 0.0946665 -0.987585 0.125359 0.0946667 -0.987585 0.125359 0.0700205 -0.987585 0.140619 0.0700204 -0.987585 0.140619 0.042989 -0.987585 0.151091 0.0429893 -0.987585 0.151092 0.0144943 -0.987585 0.156418 0.0144942 -0.987585 0.156418</float_array>
                    <technique_common>
                        <accessor count="948" source="#shape0-lib-normals-array" stride="3">
                            <param name="X" type="float"/>
                            <param name="Y" type="float"/>
                            <param name="Z" type="float"/>
                        </accessor>
                    </technique_common>
                </source>
                <vertices id="shape0-lib-vertices">
                    <input semantic="POSITION" source="#shape0-lib-positions"/>
                </vertices>
                <triangles count="948">
                    <input offset="0" semantic="VERTEX" source="#shape0-lib-vertices"/>
                    <input offset="1" semantic="NORMAL" source="#shape0-lib-normals"/>
                    <p>0 0 1 0 2 0 2 1 1 1 3 1 2 2 3 2 4 2 4 3 3 3 5 3 4 4 5 4 6 4 6 5 5 5 7 5 6 6 7 6 8 6 8 7 7 7 9 7 8 8 9 8 10 8 10 9 9 9 11 9 10 10 11 10 12 10 12 11 11 11 13 11 12 12 13 12 14 12 14 13 13 13 15 13 14 14 15 14 16 14 16 15 15 15 17 15 16 16 17 16 18 16 18 17 17 17 19 17 18 18 19 18 20 18 20 19 19 19 21 19 20 20 21 20 22 20 22 21 21 21 23 21 22 22 23 22 24 22 24 23 23 23 25 23 24 24 25 24 26 24 26 25 25 25 27 25 26 26 27 26 28 26 28 27 27 27 29 27 28 28 29 28 30 28 30 29 29 29 31 29 30 30 31 30 32 30 32 31 31 31 33 31 32 32 33 32 34 32 34 33 33 33 35 33 34 34 35 34 36 34 36 35 35 35 37 35 36 36 37 36 38 36 38 37 37 37 39 37 38 38 39 38 40 38 40 39 39 39 41 39 40 40 41 40 42 40 42 41 41 41 43 41 42 42 43 42 44 42 44 43 43 43 45 43 44 44 45 44 46 44 46 45 45 45 47 45 46 46 47 46 48 46 48 47 47 47 49 47 48 48 49 48 50 48 50 49 49 49 51 49 50 50 51 50 52 50 52 51 51 51 53 51 52 52 53 52 54 52 54 53 53 53 55 53 54 54 55 54 56 54 56 55 55 55 57 55 58 56 59 56 0 56 0 57 59 57 1 57 60 58 61 58 62 58 62 59 61 59 63 59 62 60 63 60 64 60 64 61 63 61 65 61 64 62 65 62 66 62 66 63 65 63 67 63 66 64 67 64 68 64 68 65 67 65 69 65 68 66 69 66 70 66 70 67 69 67 71 67 70 68 71 68 72 68 72 69 71 69 73 69 72 70 73 70 74 70 74 71 73 71 75 71 74 72 75 72 76 72 76 73 75 73 77 73 76 74 77 74 78 74 78 75 77 75 79 75 78 76 79 76 80 76 80 77 79 77 81 77 80 78 81 78 82 78 82 79 81 79 83 79 82 80 83 80 84 80 84 81 83 81 85 81 84 82 85 82 86 82 86 83 85 83 87 83 86 84 87 84 88 84 88 85 87 85 89 85 88 86 89 86 90 86 90 87 89 87 91 87 90 88 91 88 92 88 92 89 91 89 93 89 92 90 93 90 94 90 94 91 93 91 95 91 94 92 95 92 96 92 96 93 95 93 97 93 96 94 97 94 98 94 98 95 97 95 99 95 98 96 99 96 100 96 100 97 99 97 101 97 100 98 101 98 102 98 102 99 101 99 103 99 102 100 103 100 104 100 104 101 103 101 105 101 104 102 105 102 106 102 106 103 105 103 107 103 106 104 107 104 108 104 108 105 107 105 109 105 108 106 109 106 110 106 110 107 109 107 111 107 110 108 111 108 112 108 112 109 111 109 113 109 112 110 113 110 114 110 114 111 113 111 115 111 114 112 115 112 58 112 58 113 115 113 59 113 56 114 57 114 60 114 60 115 57 115 61 115 116 116 117 116 118 116 118 117 117 117 119 117 116 118 120 118 117 118 117 119 120 119 121 119 117 120 121 120 122 120 123 121 124 121 117 121 117 122 124 122 125 122 126 123 117 123 127 123 127 124 117 124 128 124 119 125 129 125 118 125 118 126 129 126 130 126 118 127 130 127 131 127 131 128 132 128 118 128 118 129 132 129 133 129 118 130 133 130 134 130 135 131 134 131 136 131 135 132 137 132 134 132 134 133 137 133 138 133 134 134 138 134 118 134 122 135 139 135 117 135 117 136 139 136 140 136 117 137 140 137 123 137 125 138 141 138 117 138 117 139 141 139 142 139 117 140 142 140 128 140 143 141 144 141 126 141 126 142 144 142 145 142 126 143 145 143 117 143 136 144 146 144 135 144 135 145 146 145 147 145 135 146 147 146 148 146 148 147 149 147 135 147 135 148 149 148 150 148 135 149 150 149 151 149 152 150 153 150 154 150 154 151 153 151 155 151 156 152 157 152 158 152 159 153 160 153 161 153 162 154 163 154 161 154 161 155 163 155 164 155 161 156 164 156 165 156 166 157 167 157 161 157 161 158 167 158 168 158 161 159 168 159 169 159 169 160 168 160 170 160 169 161 170 161 153 161 153 162 170 162 171 162 153 163 171 163 155 163 162 164 161 164 158 164 158 165 161 165 172 165 158 166 172 166 156 166 165 167 173 167 161 167 161 168 173 168 174 168 161 169 174 169 159 169 160 170 175 170 161 170 161 171 175 171 176 171 161 172 176 172 166 172 177 173 178 173 154 173 154 174 178 174 179 174 179 175 180 175 154 175 154 176 180 176 181 176 154 177 181 177 182 177 182 178 183 178 154 178 154 179 183 179 184 179 154 180 184 180 152 180 177 181 154 181 185 181 185 182 154 182 186 182 185 183 186 183 187 183 53 184 51 184 188 184 49 185 47 185 189 185 43 186 41 186 190 186 33 187 31 187 191 187 29 188 27 188 192 188 25 189 23 189 193 189 19 190 17 190 194 190 9 191 7 191 195 191 138 192 137 192 196 192 196 193 137 193 197 193 196 194 197 194 198 194 198 195 197 195 199 195 198 196 199 196 200 196 200 197 199 197 201 197 200 198 201 198 202 198 202 199 201 199 195 199 151 200 150 200 203 200 203 201 150 201 204 201 203 202 204 202 205 202 205 203 204 203 206 203 205 204 206 204 207 204 207 205 206 205 208 205 207 206 208 206 209 206 209 207 208 207 194 207 134 208 133 208 210 208 210 209 133 209 211 209 210 210 211 210 212 210 212 211 211 211 213 211 212 212 213 212 214 212 214 213 213 213 215 213 214 214 215 214 216 214 216 215 215 215 190 215 118 216 138 216 217 216 217 217 138 217 196 217 217 218 196 218 218 218 218 219 196 219 198 219 218 220 198 220 219 220 219 221 198 221 200 221 219 222 200 222 220 222 220 223 200 223 202 223 220 224 202 224 1 224 1 225 202 225 3 225 195 226 7 226 202 226 202 227 7 227 5 227 202 228 5 228 3 228 11 229 9 229 221 229 221 230 9 230 195 230 221 231 195 231 222 231 222 232 195 232 201 232 222 233 201 233 223 233 223 234 201 234 199 234 223 235 199 235 224 235 224 236 199 236 197 236 224 237 197 237 135 237 135 238 197 238 137 238 135 239 151 239 224 239 224 240 151 240 203 240 224 241 203 241 223 241 223 242 203 242 205 242 223 243 205 243 222 243 222 244 205 244 207 244 222 245 207 245 221 245 221 246 207 246 209 246 221 247 209 247 11 247 11 248 209 248 13 248 194 249 17 249 209 249 209 250 17 250 15 250 209 251 15 251 13 251 21 252 19 252 225 252 225 253 19 253 194 253 225 254 194 254 226 254 226 255 194 255 208 255 226 256 208 256 227 256 227 257 208 257 206 257 227 258 206 258 228 258 228 259 206 259 204 259 228 260 204 260 149 260 149 261 204 261 150 261 149 262 148 262 228 262 228 263 148 263 229 263 228 264 229 264 227 264 227 265 229 265 230 265 227 266 230 266 226 266 226 267 230 267 231 267 226 268 231 268 225 268 225 269 231 269 193 269 225 270 193 270 21 270 21 271 193 271 23 271 27 272 25 272 192 272 192 273 25 273 193 273 192 274 193 274 232 274 232 275 193 275 231 275 232 276 231 276 233 276 233 277 231 277 230 277 233 278 230 278 234 278 234 279 230 279 229 279 234 280 229 280 147 280 147 281 229 281 148 281 31 282 29 282 191 282 191 283 29 283 192 283 191 284 192 284 235 284 235 285 192 285 232 285 235 286 232 286 236 286 236 287 232 287 233 287 236 288 233 288 237 288 237 289 233 289 234 289 237 290 234 290 146 290 146 291 234 291 147 291 35 292 33 292 238 292 238 293 33 293 191 293 238 294 191 294 239 294 239 295 191 295 235 295 239 296 235 296 240 296 240 297 235 297 236 297 240 298 236 298 241 298 241 299 236 299 237 299 241 300 237 300 136 300 136 301 237 301 146 301 136 302 134 302 241 302 241 303 134 303 210 303 241 304 210 304 240 304 240 305 210 305 212 305 240 306 212 306 239 306 239 307 212 307 214 307 239 308 214 308 238 308 238 309 214 309 216 309 238 310 216 310 35 310 35 311 216 311 37 311 190 312 41 312 216 312 216 313 41 313 39 313 216 314 39 314 37 314 45 315 43 315 242 315 242 316 43 316 190 316 242 317 190 317 243 317 243 318 190 318 215 318 243 319 215 319 244 319 244 320 215 320 213 320 244 321 213 321 245 321 245 322 213 322 211 322 245 323 211 323 132 323 132 324 211 324 133 324 132 325 131 325 245 325 245 326 131 326 246 326 245 327 246 327 244 327 244 328 246 328 247 328 244 329 247 329 243 329 243 330 247 330 248 330 243 331 248 331 242 331 242 332 248 332 189 332 242 333 189 333 45 333 45 334 189 334 47 334 51 335 49 335 188 335 188 336 49 336 189 336 188 337 189 337 249 337 249 338 189 338 248 338 249 339 248 339 250 339 250 340 248 340 247 340 250 341 247 341 251 341 251 342 247 342 246 342 251 343 246 343 130 343 130 344 246 344 131 344 55 345 53 345 252 345 252 346 53 346 188 346 252 347 188 347 253 347 253 348 188 348 249 348 253 349 249 349 254 349 254 350 249 350 250 350 254 351 250 351 255 351 255 352 250 352 251 352 255 353 251 353 129 353 129 354 251 354 130 354 129 355 119 355 255 355 255 356 119 356 256 356 255 357 256 357 254 357 254 358 256 358 257 358 254 359 257 359 253 359 253 360 257 360 258 360 253 361 258 361 252 361 252 362 258 362 259 362 252 363 259 363 55 363 55 364 259 364 57 364 116 365 118 365 217 365 116 366 217 366 260 366 260 367 217 367 218 367 260 368 218 368 261 368 261 369 218 369 219 369 261 370 219 370 262 370 262 371 219 371 220 371 262 372 220 372 263 372 263 373 220 373 1 373 263 374 1 374 59 374 119 375 117 375 264 375 119 376 264 376 256 376 256 377 264 377 265 377 256 378 265 378 257 378 257 379 265 379 266 379 257 380 266 380 258 380 258 381 266 381 267 381 258 382 267 382 259 382 259 383 267 383 61 383 259 384 61 384 57 384 113 385 111 385 268 385 109 386 107 386 269 386 103 387 101 387 270 387 93 388 91 388 271 388 89 389 87 389 272 389 85 390 83 390 273 390 79 391 77 391 274 391 69 392 67 392 275 392 145 393 144 393 276 393 276 394 144 394 277 394 276 395 277 395 278 395 278 396 277 396 279 396 278 397 279 397 280 397 280 398 279 398 281 398 280 399 281 399 282 399 282 400 281 400 275 400 126 401 127 401 283 401 283 402 127 402 284 402 283 403 284 403 285 403 285 404 284 404 286 404 285 405 286 405 287 405 287 406 286 406 288 406 287 407 288 407 289 407 289 408 288 408 274 408 123 409 140 409 290 409 290 410 140 410 291 410 290 411 291 411 292 411 292 412 291 412 293 412 292 413 293 413 294 413 294 414 293 414 295 414 294 415 295 415 296 415 296 416 295 416 270 416 117 417 145 417 264 417 264 418 145 418 276 418 264 419 276 419 265 419 265 420 276 420 278 420 265 421 278 421 266 421 266 422 278 422 280 422 266 423 280 423 267 423 267 424 280 424 282 424 267 425 282 425 61 425 61 426 282 426 63 426 275 427 67 427 282 427 282 428 67 428 65 428 282 429 65 429 63 429 71 430 69 430 297 430 297 431 69 431 275 431 297 432 275 432 298 432 298 433 275 433 281 433 298 434 281 434 299 434 299 435 281 435 279 435 299 436 279 436 300 436 300 437 279 437 277 437 300 438 277 438 143 438 143 439 277 439 144 439 143 440 126 440 300 440 300 441 126 441 283 441 300 442 283 442 299 442 299 443 283 443 285 443 299 444 285 444 298 444 298 445 285 445 287 445 298 446 287 446 297 446 297 447 287 447 289 447 297 448 289 448 71 448 71 449 289 449 73 449 274 450 77 450 289 450 289 451 77 451 75 451 289 452 75 452 73 452 81 453 79 453 301 453 301 454 79 454 274 454 301 455 274 455 302 455 302 456 274 456 288 456 302 457 288 457 303 457 303 458 288 458 286 458 303 459 286 459 304 459 304 460 286 460 284 460 304 461 284 461 128 461 128 462 284 462 127 462 128 463 142 463 304 463 304 464 142 464 305 464 304 465 305 465 303 465 303 466 305 466 306 466 303 467 306 467 302 467 302 468 306 468 307 468 302 469 307 469 301 469 301 470 307 470 273 470 301 471 273 471 81 471 81 472 273 472 83 472 87 473 85 473 272 473 272 474 85 474 273 474 272 475 273 475 308 475 308 476 273 476 307 476 308 477 307 477 309 477 309 478 307 478 306 478 309 479 306 479 310 479 310 480 306 480 305 480 310 481 305 481 141 481 141 482 305 482 142 482 91 483 89 483 271 483 271 484 89 484 272 484 271 485 272 485 311 485 311 486 272 486 308 486 311 487 308 487 312 487 312 488 308 488 309 488 312 489 309 489 313 489 313 490 309 490 310 490 313 491 310 491 125 491 125 492 310 492 141 492 95 493 93 493 314 493 314 494 93 494 271 494 314 495 271 495 315 495 315 496 271 496 311 496 315 497 311 497 316 497 316 498 311 498 312 498 316 499 312 499 317 499 317 500 312 500 313 500 317 501 313 501 124 501 124 502 313 502 125 502 124 503 123 503 317 503 317 504 123 504 290 504 317 505 290 505 316 505 316 506 290 506 292 506 316 507 292 507 315 507 315 508 292 508 294 508 315 509 294 509 314 509 314 510 294 510 296 510 314 511 296 511 95 511 95 512 296 512 97 512 270 513 101 513 296 513 296 514 101 514 99 514 296 515 99 515 97 515 105 516 103 516 318 516 318 517 103 517 270 517 318 518 270 518 319 518 319 519 270 519 295 519 319 520 295 520 320 520 320 521 295 521 293 521 320 522 293 522 321 522 321 523 293 523 291 523 321 524 291 524 139 524 139 525 291 525 140 525 139 526 122 526 321 526 321 527 122 527 322 527 321 528 322 528 320 528 320 529 322 529 323 529 320 530 323 530 319 530 319 531 323 531 324 531 319 532 324 532 318 532 318 533 324 533 269 533 318 534 269 534 105 534 105 535 269 535 107 535 111 536 109 536 268 536 268 537 109 537 269 537 268 538 269 538 325 538 325 539 269 539 324 539 325 540 324 540 326 540 326 541 324 541 323 541 326 542 323 542 327 542 327 543 323 543 322 543 327 544 322 544 121 544 121 545 322 545 122 545 115 546 113 546 328 546 328 547 113 547 268 547 328 548 268 548 329 548 329 549 268 549 325 549 329 550 325 550 330 550 330 551 325 551 326 551 330 552 326 552 331 552 331 553 326 553 327 553 331 554 327 554 120 554 120 555 327 555 121 555 120 556 116 556 331 556 331 557 116 557 260 557 331 558 260 558 330 558 330 559 260 559 261 559 330 560 261 560 329 560 329 561 261 561 262 561 329 562 262 562 328 562 328 563 262 563 263 563 328 564 263 564 115 564 115 565 263 565 59 565 161 566 332 566 333 566 332 567 334 567 335 567 334 568 336 568 337 568 336 569 338 569 339 569 338 570 60 570 62 570 338 571 62 571 339 571 339 572 62 572 64 572 339 573 64 573 340 573 64 574 66 574 340 574 340 575 66 575 68 575 340 576 68 576 341 576 68 577 70 577 341 577 341 578 70 578 72 578 341 579 72 579 342 579 342 580 72 580 74 580 342 581 74 581 343 581 343 582 74 582 76 582 343 583 76 583 344 583 344 584 76 584 78 584 78 585 80 585 344 585 344 586 80 586 82 586 344 587 82 587 345 587 345 588 82 588 84 588 345 589 84 589 346 589 346 590 84 590 86 590 346 591 86 591 347 591 347 592 86 592 88 592 88 593 90 593 347 593 347 594 90 594 92 594 347 595 92 595 348 595 92 596 94 596 348 596 348 597 94 597 96 597 348 598 96 598 349 598 349 599 96 599 98 599 349 600 98 600 350 600 350 601 98 601 100 601 350 602 100 602 351 602 351 603 100 603 102 603 102 604 104 604 351 604 351 605 104 605 106 605 351 606 106 606 352 606 352 607 106 607 108 607 352 608 108 608 353 608 353 609 108 609 110 609 353 610 110 610 354 610 354 611 110 611 112 611 112 612 114 612 354 612 354 613 114 613 58 613 354 614 58 614 355 614 336 615 339 615 337 615 337 616 339 616 340 616 337 617 340 617 356 617 356 618 340 618 341 618 356 619 341 619 357 619 357 620 341 620 342 620 357 621 342 621 358 621 358 622 342 622 343 622 358 623 343 623 359 623 359 624 343 624 344 624 359 625 344 625 360 625 360 626 344 626 345 626 360 627 345 627 361 627 361 628 345 628 346 628 361 629 346 629 362 629 362 630 346 630 347 630 362 631 347 631 363 631 363 632 347 632 348 632 363 633 348 633 364 633 364 634 348 634 349 634 364 635 349 635 365 635 365 636 349 636 350 636 365 637 350 637 366 637 366 638 350 638 351 638 366 639 351 639 367 639 367 640 351 640 352 640 367 641 352 641 368 641 368 642 352 642 353 642 368 643 353 643 369 643 369 644 353 644 354 644 369 645 354 645 370 645 370 646 354 646 355 646 370 647 355 647 371 647 334 648 337 648 335 648 335 649 337 649 356 649 335 650 356 650 372 650 372 651 356 651 357 651 372 652 357 652 373 652 373 653 357 653 358 653 373 654 358 654 374 654 374 655 358 655 359 655 374 656 359 656 375 656 375 657 359 657 360 657 375 658 360 658 376 658 376 659 360 659 361 659 376 660 361 660 377 660 377 661 361 661 362 661 377 662 362 662 378 662 378 663 362 663 363 663 378 664 363 664 379 664 379 665 363 665 364 665 379 666 364 666 380 666 380 667 364 667 365 667 380 668 365 668 381 668 381 669 365 669 366 669 381 670 366 670 382 670 382 671 366 671 367 671 382 672 367 672 383 672 383 673 367 673 368 673 383 674 368 674 384 674 384 675 368 675 369 675 384 676 369 676 385 676 385 677 369 677 370 677 385 678 370 678 386 678 386 679 370 679 371 679 386 680 371 680 387 680 332 681 335 681 333 681 333 682 335 682 372 682 333 683 372 683 388 683 388 684 372 684 373 684 388 685 373 685 389 685 389 686 373 686 374 686 389 687 374 687 390 687 390 688 374 688 375 688 390 689 375 689 391 689 391 690 375 690 376 690 391 691 376 691 392 691 392 692 376 692 377 692 392 693 377 693 393 693 393 694 377 694 378 694 393 695 378 695 394 695 394 696 378 696 379 696 394 697 379 697 395 697 395 698 379 698 380 698 395 699 380 699 396 699 396 700 380 700 381 700 396 701 381 701 397 701 397 702 381 702 382 702 397 703 382 703 398 703 398 704 382 704 383 704 398 705 383 705 399 705 399 706 383 706 384 706 399 707 384 707 400 707 400 708 384 708 385 708 400 709 385 709 401 709 401 710 385 710 386 710 401 711 386 711 402 711 402 712 386 712 387 712 402 713 387 713 403 713 161 714 333 714 172 714 172 715 333 715 388 715 172 716 388 716 156 716 156 717 388 717 389 717 156 718 389 718 157 718 157 719 389 719 390 719 157 720 390 720 158 720 158 721 390 721 391 721 158 722 391 722 162 722 162 723 391 723 392 723 162 724 392 724 163 724 163 725 392 725 393 725 163 726 393 726 164 726 164 727 393 727 394 727 164 728 394 728 165 728 165 729 394 729 395 729 165 730 395 730 173 730 173 731 395 731 396 731 173 732 396 732 174 732 174 733 396 733 397 733 174 734 397 734 159 734 159 735 397 735 398 735 159 736 398 736 160 736 160 737 398 737 399 737 160 738 399 738 175 738 175 739 399 739 400 739 175 740 400 740 176 740 176 741 400 741 401 741 176 742 401 742 166 742 166 743 401 743 402 743 166 744 402 744 167 744 167 745 402 745 403 745 167 746 403 746 168 746 161 747 169 747 404 747 161 748 404 748 332 748 332 749 404 749 405 749 332 750 405 750 334 750 334 751 405 751 406 751 334 752 406 752 336 752 336 753 406 753 407 753 336 754 407 754 338 754 338 755 407 755 56 755 338 756 56 756 60 756 170 757 168 757 403 757 170 758 403 758 408 758 408 759 403 759 387 759 408 760 387 760 409 760 409 761 387 761 371 761 409 762 371 762 410 762 410 763 371 763 355 763 410 764 355 764 411 764 411 765 355 765 58 765 411 766 58 766 0 766 170 767 408 767 412 767 408 768 409 768 413 768 409 769 410 769 414 769 410 770 411 770 415 770 411 771 0 771 2 771 411 772 2 772 415 772 415 773 2 773 4 773 415 774 4 774 416 774 4 775 6 775 416 775 416 776 6 776 8 776 416 777 8 777 417 777 8 778 10 778 417 778 417 779 10 779 12 779 417 780 12 780 418 780 418 781 12 781 14 781 418 782 14 782 419 782 419 783 14 783 16 783 419 784 16 784 420 784 420 785 16 785 18 785 18 786 20 786 420 786 420 787 20 787 22 787 420 788 22 788 421 788 421 789 22 789 24 789 421 790 24 790 422 790 422 791 24 791 26 791 422 792 26 792 423 792 423 793 26 793 28 793 28 794 30 794 423 794 423 795 30 795 32 795 423 796 32 796 424 796 32 797 34 797 424 797 424 798 34 798 36 798 424 799 36 799 425 799 425 800 36 800 38 800 425 801 38 801 426 801 426 802 38 802 40 802 426 803 40 803 427 803 427 804 40 804 42 804 42 805 44 805 427 805 427 806 44 806 46 806 427 807 46 807 428 807 428 808 46 808 48 808 428 809 48 809 429 809 429 810 48 810 50 810 429 811 50 811 430 811 430 812 50 812 52 812 52 813 54 813 430 813 430 814 54 814 56 814 430 815 56 815 407 815 410 816 415 816 414 816 414 817 415 817 416 817 414 818 416 818 431 818 431 819 416 819 417 819 431 820 417 820 432 820 432 821 417 821 418 821 432 822 418 822 433 822 433 823 418 823 419 823 433 824 419 824 434 824 434 825 419 825 420 825 434 826 420 826 435 826 435 827 420 827 421 827 435 828 421 828 436 828 436 829 421 829 422 829 436 830 422 830 437 830 437 831 422 831 423 831 437 832 423 832 438 832 438 833 423 833 424 833 438 834 424 834 439 834 439 835 424 835 425 835 439 836 425 836 440 836 440 837 425 837 426 837 440 838 426 838 441 838 441 839 426 839 427 839 441 840 427 840 442 840 442 841 427 841 428 841 442 842 428 842 443 842 443 843 428 843 429 843 443 844 429 844 444 844 444 845 429 845 430 845 444 846 430 846 445 846 445 847 430 847 407 847 445 848 407 848 406 848 409 849 414 849 413 849 413 850 414 850 431 850 413 851 431 851 446 851 446 852 431 852 432 852 446 853 432 853 447 853 447 854 432 854 433 854 447 855 433 855 448 855 448 856 433 856 434 856 448 857 434 857 449 857 449 858 434 858 435 858 449 859 435 859 450 859 450 860 435 860 436 860 450 861 436 861 451 861 451 862 436 862 437 862 451 863 437 863 452 863 452 864 437 864 438 864 452 865 438 865 453 865 453 866 438 866 439 866 453 867 439 867 454 867 454 868 439 868 440 868 454 869 440 869 455 869 455 870 440 870 441 870 455 871 441 871 456 871 456 872 441 872 442 872 456 873 442 873 457 873 457 874 442 874 443 874 457 875 443 875 458 875 458 876 443 876 444 876 458 877 444 877 459 877 459 878 444 878 445 878 459 879 445 879 460 879 460 880 445 880 406 880 460 881 406 881 405 881 408 882 413 882 412 882 412 883 413 883 446 883 412 884 446 884 461 884 461 885 446 885 447 885 461 886 447 886 462 886 462 887 447 887 448 887 462 888 448 888 463 888 463 889 448 889 449 889 463 890 449 890 464 890 464 891 449 891 450 891 464 892 450 892 465 892 465 893 450 893 451 893 465 894 451 894 466 894 466 895 451 895 452 895 466 896 452 896 467 896 467 897 452 897 453 897 467 898 453 898 468 898 468 899 453 899 454 899 468 900 454 900 469 900 469 901 454 901 455 901 469 902 455 902 470 902 470 903 455 903 456 903 470 904 456 904 471 904 471 905 456 905 457 905 471 906 457 906 472 906 472 907 457 907 458 907 472 908 458 908 473 908 473 909 458 909 459 909 473 910 459 910 474 910 474 911 459 911 460 911 474 912 460 912 475 912 475 913 460 913 405 913 475 914 405 914 404 914 170 915 412 915 171 915 171 916 412 916 461 916 171 917 461 917 155 917 155 918 461 918 462 918 155 919 462 919 154 919 154 920 462 920 463 920 154 921 463 921 186 921 186 922 463 922 464 922 186 923 464 923 187 923 187 924 464 924 465 924 187 925 465 925 185 925 185 926 465 926 466 926 185 927 466 927 177 927 177 928 466 928 467 928 177 929 467 929 178 929 178 930 467 930 468 930 178 931 468 931 179 931 179 932 468 932 469 932 179 933 469 933 180 933 180 934 469 934 470 934 180 935 470 935 181 935 181 936 470 936 471 936 181 937 471 937 182 937 182 938 471 938 472 938 182 939 472 939 183 939 183 940 472 940 473 940 183 941 473 941 184 941 184 942 473 942 474 942 184 943 474 943 152 943 152 944 474 944 475 944 152 945 475 945 153 945 153 946 475 946 404 946 153 947 404 947 169 947</p>
                </triangles>
            </mesh>
        </geometry>
    </library_geometries>
    <library_visual_scenes>
        <visual_scene id="VisualSceneNode" name="VisualScene">
            <node id="node" name="node">
                <instance_geometry url="#shape0-lib"/>
            </node>
        </visual_scene>
    </library_visual_scenes>
    <scene>
        <instance_visual_scene url="#VisualSceneNode"/>
    </scene>
</COLLADA>
