####
#
# OBJ File Generated by Meshlab
#
####
# Object link4.obj
#
# Vertices: 773
# Faces: 1534
#
####
vn -0.142826 -2.230095 -2.998092
v 0.250800 0.006000 -0.019079
vn -0.142825 -2.230095 2.998092
v 0.250800 0.006000 0.019079
vn 2.917846 0.348535 3.102439
v 0.250800 0.002846 0.019796
vn 2.917844 0.348535 -3.102437
v 0.250800 0.002846 -0.019796
vn 2.855993 -0.442545 3.077964
v 0.250800 -0.002846 0.019796
vn 2.855994 -1.291782 2.828608
v 0.250800 -0.008308 0.018193
vn 2.855993 -2.036365 2.350091
v 0.250800 -0.013097 0.015115
vn 2.855993 -2.615977 1.681186
v 0.250800 -0.016825 0.010813
vn 2.855994 -2.983656 0.876080
v 0.250800 -0.019190 0.005635
vn 2.855993 -3.109618 -0.000000
v 0.250800 -0.020000 0.000000
vn 2.855994 -2.983656 -0.876081
v 0.250800 -0.019190 -0.005635
vn 2.855993 -2.615975 -1.681185
v 0.250800 -0.016825 -0.010813
vn 2.855993 -2.036366 -2.350092
v 0.250800 -0.013097 -0.015115
vn 2.855994 -1.291781 -2.828606
v 0.250800 -0.008308 -0.018193
vn 2.855993 -0.442545 -3.077966
v 0.250800 -0.002846 -0.019796
vn -2.069713 0.735968 -5.125405
v 0.041300 0.002846 -0.019796
vn -2.071218 2.151054 -4.710177
v 0.041300 0.008308 -0.018193
vn -2.069735 3.391572 3.912623
v 0.041300 0.013097 0.015115
vn 2.855993 2.615975 1.681185
v 0.250800 0.016825 0.010813
vn -2.068228 4.355874 2.799350
v 0.041300 0.016825 0.010813
vn 2.855994 2.983656 0.876081
v 0.250800 0.019190 0.005635
vn -2.068229 4.968097 1.458764
v 0.041300 0.019190 0.005635
vn 2.855994 3.109618 0.000000
v 0.250800 0.020000 0.000000
vn 0.000000 3.109618 -0.000000
v 0.041300 0.020000 0.000000
vn 2.855993 2.983656 -0.876080
v 0.250800 0.019190 -0.005635
vn -2.068230 4.968097 -1.458765
v 0.041300 0.019190 -0.005635
vn 2.855993 2.615977 -1.681186
v 0.250800 0.016825 -0.010813
vn -2.068228 4.355872 -2.799349
v 0.041300 0.016825 -0.010813
vn 2.932975 2.135477 -2.280865
v 0.250800 0.013097 -0.015115
vn -2.069735 3.391573 -3.912625
v 0.041300 0.013097 -0.015115
vn -0.142826 4.850430 -2.626644
v 0.250800 0.011000 -0.016703
vn -3.280428 1.323450 -2.840880
v 0.250800 0.008308 -0.018193
vn -2.071218 2.151054 4.710178
v 0.041300 0.008308 0.018193
vn -0.142826 4.850428 2.626644
v 0.250800 0.011000 0.016703
vn 2.932975 2.135477 2.280865
v 0.250800 0.013097 0.015115
vn -2.068229 -0.736883 -5.125132
v 0.041300 -0.002846 -0.019796
vn -2.068228 -2.150952 -4.709927
v 0.041300 -0.008308 -0.018193
vn -2.068230 -3.390759 -3.913145
v 0.041300 -0.013097 -0.015115
vn -2.068228 -4.355874 -2.799350
v 0.041300 -0.016825 -0.010813
vn -2.068229 -4.968097 -1.458764
v 0.041300 -0.019190 -0.005635
vn 0.000000 -3.109618 0.000000
v 0.041300 -0.020000 0.000000
vn -2.068230 -4.968097 1.458765
v 0.041300 -0.019190 0.005635
vn -2.068228 -4.355872 2.799349
v 0.041300 -0.016825 0.010813
vn -2.068230 -3.390761 3.913148
v 0.041300 -0.013097 0.015115
vn -2.068227 -2.150950 4.709924
v 0.041300 -0.008308 0.018193
vn -2.068228 -0.736883 5.125133
v 0.041300 -0.002846 0.019796
vn -2.069714 0.735968 5.125404
v 0.041300 0.002846 0.019796
vn -3.280428 1.323450 2.840880
v 0.250800 0.008308 0.018193
vn -2.068228 2.068220 0.000000
v 0.041300 0.020000 0.000000
vn 1.075310 2.256601 0.662598
v 0.040800 0.018710 0.005494
vn 1.075313 1.978518 1.271517
v 0.040800 0.016404 0.010542
vn 1.075310 1.540146 1.777423
v 0.040800 0.012770 0.014737
vn 1.075312 0.977002 2.139337
v 0.040800 0.008101 0.017738
vn 1.075312 0.334706 2.327930
v 0.040800 0.002775 0.019302
vn 1.075311 -0.334706 2.327931
v 0.040800 -0.002775 0.019302
vn 1.075313 -0.977002 2.139336
v 0.040800 -0.008101 0.017738
vn 1.075311 -1.540146 1.777423
v 0.040800 -0.012770 0.014737
vn 1.075312 -1.978519 1.271517
v 0.040800 -0.016404 0.010542
vn 1.075310 -2.256600 0.662598
v 0.040800 -0.018710 0.005494
vn -2.351880 -2.351871 -0.000000
v 0.040800 -0.019500 0.000000
vn -2.068228 -2.068220 -0.000000
v 0.041300 -0.020000 0.000000
vn 1.075310 -2.256601 -0.662598
v 0.040800 -0.018710 -0.005494
vn 1.075313 -1.978518 -1.271517
v 0.040800 -0.016404 -0.010542
vn 1.075310 -1.540146 -1.777423
v 0.040800 -0.012770 -0.014737
vn 1.075312 -0.977002 -2.139337
v 0.040800 -0.008101 -0.017738
vn 1.075312 -0.334706 -2.327930
v 0.040800 -0.002775 -0.019302
vn 1.075311 0.334706 -2.327931
v 0.040800 0.002775 -0.019302
vn 1.075313 0.977002 -2.139336
v 0.040800 0.008101 -0.017738
vn 1.075311 1.540146 -1.777423
v 0.040800 0.012770 -0.014737
vn 1.075312 1.978519 -1.271517
v 0.040800 0.016404 -0.010542
vn 1.075310 2.256600 -0.662598
v 0.040800 0.018710 -0.005494
vn 1.075313 2.351871 0.000000
v 0.040800 0.019500 0.000000
vn 0.426086 6.123666 -1.189904
v 0.030800 0.030710 -0.007009
vn -2.931713 3.044248 -0.696577
v -0.000000 0.030710 -0.007009
vn 0.406123 6.203160 -0.599499
v 0.030800 0.031398 -0.002535
vn -2.934817 3.123110 0.000000
v -0.000000 0.031500 0.000000
vn 0.405387 5.999390 -1.710928
v 0.030800 0.030585 -0.007538
vn 0.404455 5.804027 -2.276608
v 0.030800 0.028979 -0.012347
vn -2.932926 2.814663 -1.353034
v -0.000000 0.028381 -0.013667
vn 0.456496 4.932702 -3.811002
v 0.030800 0.024628 -0.019640
vn -2.929178 2.438249 -1.950909
v -0.000000 0.024628 -0.019640
vn 0.406052 5.272047 -3.323255
v 0.030800 0.026623 -0.016836
vn 0.452569 5.566026 -2.807593
v 0.030800 0.028381 -0.013667
vn 0.398397 4.547542 -4.263343
v 0.030800 0.023578 -0.020888
vn 0.400021 4.127731 -4.678567
v 0.030800 0.019922 -0.024400
vn -2.927254 1.950341 -2.438600
v -0.000000 0.019640 -0.024628
vn 0.420055 3.716375 -5.011503
v 0.030800 0.019640 -0.024628
vn 0.406149 3.216207 -5.338038
v 0.030800 0.015750 -0.027280
vn -2.934764 1.355395 -2.813663
v -0.000000 0.013667 -0.028381
vn 0.432004 1.568382 -6.036884
v 0.030800 0.007009 -0.030710
vn -2.931499 0.692701 -3.045110
v -0.000000 0.007009 -0.030710
vn 0.439555 2.169337 -5.834670
v 0.030800 0.011170 -0.029453
vn 0.566942 2.627701 -5.628564
v 0.030800 0.013667 -0.028381
vn 0.404382 1.034290 -6.151430
v 0.030800 0.006301 -0.030863
vn 0.403798 0.440919 -6.219747
v 0.030800 0.001268 -0.031474
vn -2.932243 0.002562 -3.122936
v -0.000000 -0.000000 -0.031500
vn 0.459796 -1.311716 -6.093273
v 0.030800 -0.007009 -0.030710
vn -2.928463 -0.700313 -3.043066
v -0.000000 -0.007009 -0.030710
vn 0.406056 -0.724540 -6.189794
v 0.030800 -0.003797 -0.031270
vn 0.448076 -0.132865 -6.233343
v 0.030800 -0.000000 -0.031500
vn 0.397007 -1.894170 -5.937759
v 0.030800 -0.008764 -0.030256
vn 0.399171 -2.448659 -5.739360
v 0.030800 -0.013504 -0.028459
vn -2.925942 -1.350508 -2.815336
v -0.000000 -0.013667 -0.028381
vn 0.414009 -2.917378 -5.516056
v 0.030800 -0.013667 -0.028381
vn 0.406179 -3.428967 -5.203929
v 0.030800 -0.017894 -0.025924
vn -2.934607 -1.946647 -2.442191
v -0.000000 -0.019640 -0.024628
vn 0.437704 -4.768988 -4.018640
v 0.030800 -0.024628 -0.019640
vn -2.931201 -2.443323 -1.944865
v -0.000000 -0.024628 -0.019640
vn 0.436953 -4.331138 -4.471906
v 0.030800 -0.021821 -0.022718
vn 0.552406 -3.944417 -4.802569
v 0.030800 -0.019640 -0.024628
vn 0.403310 -5.108660 -3.577867
v 0.030800 -0.025182 -0.018923
vn 0.403110 -5.426188 -3.073426
v 0.030800 -0.027892 -0.014639
vn -2.931455 -2.812349 -1.357606
v -0.000000 -0.028381 -0.013667
vn 0.443093 -5.681849 -2.568795
v 0.030800 -0.028381 -0.013667
vn 0.406067 -5.897014 -2.015874
v 0.030800 -0.029879 -0.009975
vn -2.934344 -3.045021 -0.693881
v -0.000000 -0.030710 -0.007009
vn 0.462416 -6.063009 -1.443307
v 0.030800 -0.030710 -0.007009
vn 0.406215 -6.173934 -0.849295
v 0.030800 -0.031092 -0.005053
vn -2.931855 -3.122959 0.000000
v -0.000000 -0.031500 0.000000
vn 0.000000 -3.131406 0.000000
v 0.030800 -0.031500 0.000000
vn 0.406215 -6.173934 0.849295
v 0.030800 -0.031092 0.005053
vn -2.934344 -3.045021 0.693881
v -0.000000 -0.030710 0.007009
vn 0.443093 -5.681849 2.568795
v 0.030800 -0.028381 0.013667
vn -2.930821 -2.812103 1.358002
v -0.000000 -0.028381 0.013667
vn 0.434360 -5.902155 1.982044
v 0.030800 -0.029879 0.009975
vn 0.538083 -6.037738 1.484910
v 0.030800 -0.030710 0.007009
vn 0.402178 -5.425837 3.073976
v 0.030800 -0.027892 0.014639
vn 0.402386 -5.109006 3.577315
v 0.030800 -0.025182 0.018923
vn -2.930562 -2.443573 1.944470
v -0.000000 -0.024628 0.019640
vn 0.437704 -4.768988 4.018640
v 0.030800 -0.024628 0.019640
vn 0.406079 -4.362046 4.450966
v 0.030800 -0.021821 0.022718
vn -2.934607 -1.946647 2.442191
v -0.000000 -0.019640 0.024628
vn 0.414009 -2.917378 5.516056
v 0.030800 -0.013667 0.028381
vn -2.931891 -1.354485 2.813928
v -0.000000 -0.013667 0.028381
vn 0.406179 -3.428967 5.203929
v 0.030800 -0.017894 0.025924
vn 0.464314 -3.915874 4.848221
v 0.030800 -0.019640 0.024628
vn 0.407216 -2.454126 5.737315
v 0.030800 -0.013504 0.028459
vn 0.405663 -1.888678 5.939876
v 0.030800 -0.008764 0.030256
vn -2.933976 -0.696372 3.044427
v -0.000000 -0.007009 0.030710
vn 0.448076 -0.132865 6.233343
v 0.030800 0.000000 0.031500
vn -2.930357 0.003950 3.122785
v -0.000000 0.000000 0.031500
vn 0.431769 -0.754311 6.180786
v 0.030800 -0.003797 0.031270
vn 0.524009 -1.268326 6.089768
v 0.030800 -0.007009 0.030710
vn 0.400981 0.442861 6.219501
v 0.030800 0.001268 0.031474
vn 0.401633 1.032350 6.151657
v 0.030800 0.006301 0.030863
vn -2.929564 0.691308 3.045273
v -0.000000 0.007009 0.030710
vn 0.432004 1.568382 6.036883
v 0.030800 0.007009 0.030710
vn 0.406097 2.134450 5.855142
v 0.030800 0.011170 0.029453
vn -2.934764 1.355395 2.813663
v -0.000000 0.013667 0.028381
vn 0.420055 3.716375 5.011503
v 0.030800 0.019640 0.024628
vn -2.931844 1.948013 2.440908
v -0.000000 0.019640 0.024628
vn 0.406149 3.216207 5.338038
v 0.030800 0.015750 0.027280
vn 0.465466 2.686446 5.623163
v 0.030800 0.013667 0.028381
vn 0.406332 4.124468 4.681730
v 0.030800 0.019922 0.024400
vn 0.405078 4.550857 4.260190
v 0.030800 0.023578 0.020888
vn -2.933503 2.440536 1.948603
v -0.000000 0.024628 0.019640
vn 0.452569 5.566026 2.807593
v 0.030800 0.028381 0.013667
vn -2.929809 2.815439 1.350843
v -0.000000 0.028381 0.013667
vn 0.429186 5.253205 3.343953
v 0.030800 0.026623 0.016836
vn 0.510229 4.947094 3.775366
v 0.030800 0.024628 0.019640
vn 0.399721 5.805046 2.273506
v 0.030800 0.028979 0.012347
vn 0.400842 5.998346 1.714006
v 0.030800 0.030585 0.007538
vn -2.928462 3.043484 0.698788
v -0.000000 0.030710 0.007009
vn 0.426086 6.123665 1.189904
v 0.030800 0.030710 0.007009
vn 0.406123 6.203160 0.599499
v 0.030800 0.031398 0.002535
vn 0.465853 6.231866 -0.000000
v 0.030800 0.031500 0.000000
vn -6.283192 0.000000 0.000000
v -0.000000 0.000000 0.000000
vn 6.253378 0.429491 0.034672
v 0.040800 0.021430 0.001730
vn 6.253379 0.418368 -0.103118
v 0.040800 0.020875 -0.005145
vn 6.253378 0.429491 -0.034672
v 0.040800 0.021430 -0.001730
vn 6.253378 0.322525 -0.285732
v 0.040800 0.016093 -0.014257
vn 6.253378 0.364183 -0.230295
v 0.040800 0.018172 -0.011491
vn 6.253379 0.396408 -0.168894
v 0.040800 0.019780 -0.008427
vn 6.253379 0.215444 -0.373161
v 0.040800 0.010750 -0.018620
vn 6.253379 0.272514 -0.333768
v 0.040800 0.013598 -0.016654
vn 6.253379 0.017350 0.430539
v 0.040800 0.000866 0.021483
vn 6.253379 0.152795 0.402888
v 0.040800 0.007624 0.020103
vn 6.253379 0.086189 0.422181
v 0.040800 0.004301 0.021065
vn 6.253379 0.418368 0.103118
v 0.040800 0.020875 0.005145
vn 6.253379 0.396408 0.168894
v 0.040800 0.019780 0.008427
vn 6.253378 0.364183 0.230295
v 0.040800 0.018172 0.011491
vn 6.253378 -0.051938 -0.427747
v 0.040800 -0.002592 -0.021343
vn 6.253378 0.322525 0.285732
v 0.040800 0.016093 0.014257
vn 6.253379 0.272514 0.333768
v 0.040800 0.013598 0.016654
vn 6.253378 0.215444 0.373160
v 0.040800 0.010750 0.018620
vn 6.253379 0.017350 -0.430539
v 0.040800 0.000866 -0.021483
vn 6.253379 0.086189 -0.422181
v 0.040800 0.004301 -0.021065
vn 6.253379 0.152795 -0.402888
v 0.040800 0.007624 -0.020103
vn 6.253379 -0.244773 -0.354614
v 0.040800 -0.012213 -0.017694
vn 6.253378 -0.184719 -0.389286
v 0.040800 -0.009217 -0.019424
vn 6.253379 -0.119881 -0.413876
v 0.040800 -0.005982 -0.020651
vn 6.253378 -0.408714 -0.136449
v 0.040800 -0.020394 -0.006808
vn 6.253379 -0.381533 -0.200244
v 0.040800 -0.019037 -0.009992
vn 6.253379 -0.344471 -0.258853
v 0.040800 -0.017188 -0.012916
vn 6.253379 -0.298487 -0.310758
v 0.040800 -0.014894 -0.015506
vn 6.253378 -0.425308 0.069119
v 0.040800 -0.021222 0.003449
vn 3.427192 0.000000 0.000000
v 0.040800 -0.019500 0.000000
vn 6.253379 -0.430889 0.000000
v 0.040800 -0.021500 0.000000
vn 6.253379 -0.425308 -0.069119
v 0.040800 -0.021222 -0.003449
vn 6.253378 -0.381533 0.200244
v 0.040800 -0.019037 0.009992
vn 6.253379 -0.408713 0.136449
v 0.040800 -0.020394 0.006808
vn 6.253378 -0.298487 0.310758
v 0.040800 -0.014894 0.015506
vn 6.253379 -0.344471 0.258853
v 0.040800 -0.017188 0.012916
vn 6.253379 -0.051938 0.427747
v 0.040800 -0.002592 0.021343
vn 6.253379 -0.119881 0.413876
v 0.040800 -0.005982 0.020651
vn 6.253378 -0.184719 0.389287
v 0.040800 -0.009217 0.019424
vn 6.253379 -0.244773 0.354614
v 0.040800 -0.012213 0.017694
vn 1.617729 -5.266391 -2.792301
v 0.033388 -0.027590 -0.014480
vn 1.628312 -5.650852 -1.897475
v 0.033388 -0.029556 -0.009867
vn 1.615138 -4.778780 -3.563292
v 0.033388 -0.024910 -0.018719
vn 1.599715 -4.119916 -4.310367
v 0.033388 -0.021585 -0.022472
vn 1.616313 -3.373678 -4.914131
v 0.033388 -0.017700 -0.025644
vn 1.594941 -2.551227 -5.389198
v 0.033388 -0.013358 -0.028151
vn 1.621376 -1.688636 -5.716599
v 0.033388 -0.008669 -0.029929
vn 1.628693 -0.712293 -5.918216
v 0.033388 -0.003756 -0.030932
vn 1.619553 0.267392 -5.954762
v 0.033388 0.001255 -0.031134
vn 1.611678 1.174024 -5.844517
v 0.033388 0.006233 -0.030530
vn 1.597237 2.125550 -5.571048
v 0.033388 0.011049 -0.029134
vn 1.618297 2.990808 -5.156085
v 0.033388 0.015580 -0.026985
vn 1.601688 3.778673 -4.611666
v 0.033388 0.019707 -0.024136
vn 1.621291 4.441322 -3.975555
v 0.033388 0.023323 -0.020662
vn 1.628880 5.039238 -3.184144
v 0.033388 0.026335 -0.016654
vn 1.620709 5.495142 -2.309472
v 0.033388 0.028666 -0.012213
vn 1.607232 5.784804 -1.441082
v 0.033388 0.030254 -0.007457
vn 1.625891 5.939732 -0.501644
v 0.033388 0.031058 -0.002507
vn 1.625891 5.939733 0.501644
v 0.033388 0.031058 0.002507
vn 1.607232 5.784805 1.441083
v 0.033388 0.030254 0.007457
vn 1.620709 5.495141 2.309472
v 0.033388 0.028666 0.012213
vn 1.606784 5.027468 3.205045
v 0.033388 0.026335 0.016654
vn 1.613771 4.450596 3.965144
v 0.033388 0.023323 0.020662
vn 1.601688 3.778673 4.611666
v 0.033388 0.019707 0.024136
vn 1.624585 3.002595 5.149407
v 0.033388 0.015580 0.026985
vn 1.626929 2.096622 5.580000
v 0.033388 0.011049 0.029134
vn 1.611678 1.174024 5.844517
v 0.033388 0.006233 0.030530
vn 1.619552 0.267392 5.954762
v 0.033388 0.001255 0.031134
vn 1.604500 -0.738131 5.916479
v 0.033388 -0.003756 0.030932
vn 1.614075 -1.675096 5.720519
v 0.033388 -0.008669 0.029929
vn 1.594941 -2.551227 5.389198
v 0.033388 -0.013358 0.028151
vn 1.622982 -3.362302 4.922076
v 0.033388 -0.017700 0.025644
vn 1.627728 -4.139646 4.289024
v 0.033388 -0.021585 0.022472
vn 1.615138 -4.778781 3.563293
v 0.033388 -0.024910 0.018719
vn 1.617729 -5.266392 2.792301
v 0.033388 -0.027590 0.014480
vn 1.602141 -5.661055 1.871836
v 0.033388 -0.029556 0.009867
vn 1.614028 -5.886430 0.938486
v 0.033388 -0.030756 0.004998
vn 0.406021 -3.084027 -0.000000
v 0.030800 -0.031500 0.000000
vn 1.586886 -5.963212 -0.000000
v 0.033388 -0.031159 0.000000
vn 1.621039 -5.888725 -0.924609
v 0.033388 -0.030756 -0.004998
vn 3.071440 -5.291442 0.859943
v 0.035800 -0.029770 0.004838
vn 3.071440 -5.084975 1.697615
v 0.035800 -0.028608 0.009551
vn 3.071441 -4.746809 2.491317
v 0.035800 -0.026706 0.014016
vn 3.071441 -4.285704 3.220497
v 0.035800 -0.024111 0.018119
vn 3.071441 -3.713600 3.866268
v 0.035800 -0.020893 0.021752
vn 3.071440 -3.045318 4.411904
v 0.035800 -0.017133 0.024821
vn 3.071440 -2.298163 4.843274
v 0.035800 -0.012929 0.027248
vn 3.071440 -1.491486 5.149207
v 0.035800 -0.008391 0.028969
vn 3.071440 -0.646180 5.321776
v 0.035800 -0.003635 0.029940
vn 3.071441 0.215860 5.356516
v 0.035800 0.001214 0.030136
vn 3.071439 1.072311 5.252524
v 0.035800 0.006033 0.029551
vn 3.071441 1.900988 5.012495
v 0.035800 0.010695 0.028200
vn 3.071440 2.680431 4.642644
v 0.035800 0.015080 0.026120
vn 3.071440 3.390453 4.152551
v 0.035800 0.019075 0.023362
vn 3.071441 4.012664 3.554910
v 0.035800 0.022575 0.020000
vn 3.071440 4.530949 2.865198
v 0.035800 0.025491 0.016120
vn 3.071441 4.931885 2.101279
v 0.035800 0.027747 0.011822
vn 3.071442 5.205086 1.282939
v 0.035800 0.029284 0.007218
vn 3.071440 5.343480 0.431370
v 0.035800 0.030062 0.002427
vn 3.071440 5.343481 -0.431371
v 0.035800 0.030062 -0.002427
vn 3.071442 5.205086 -1.282938
v 0.035800 0.029284 -0.007218
vn 3.071441 4.931884 -2.101279
v 0.035800 0.027747 -0.011822
vn 3.071440 4.530948 -2.865198
v 0.035800 0.025491 -0.016120
vn 3.071441 4.012664 -3.554910
v 0.035800 0.022575 -0.020000
vn 3.071441 3.390454 -4.152551
v 0.035800 0.019075 -0.023362
vn 3.071439 2.680431 -4.642644
v 0.035800 0.015080 -0.026120
vn 3.071441 1.900989 -5.012495
v 0.035800 0.010695 -0.028200
vn 3.071440 1.072310 -5.252525
v 0.035800 0.006033 -0.029551
vn 3.071441 0.215861 -5.356516
v 0.035800 0.001214 -0.030136
vn 3.071440 -0.646181 -5.321777
v 0.035800 -0.003635 -0.029940
vn 3.071440 -1.491486 -5.149207
v 0.035800 -0.008391 -0.028969
vn 3.071440 -2.298162 -4.843274
v 0.035800 -0.012929 -0.027248
vn 3.071441 -3.045318 -4.411904
v 0.035800 -0.017133 -0.024821
vn 3.071441 -3.713600 -3.866268
v 0.035800 -0.020893 -0.021752
vn 3.071440 -4.285704 -3.220497
v 0.035800 -0.024111 -0.018119
vn 3.071442 -4.746809 -2.491318
v 0.035800 -0.026706 -0.014016
vn 3.071440 -5.084975 -1.697614
v 0.035800 -0.028608 -0.009551
vn 3.071440 -5.291442 -0.859943
v 0.035800 -0.029770 -0.004838
vn 3.071440 -5.360864 0.000000
v 0.035800 -0.030160 0.000000
vn 4.356261 -4.340440 0.705390
v 0.037871 -0.028201 0.004583
vn 4.356261 -4.171080 1.392511
v 0.037871 -0.027101 0.009048
vn 4.356261 -3.893691 2.043567
v 0.037871 -0.025298 0.013278
vn 4.356262 -3.515457 2.641695
v 0.037871 -0.022841 0.017164
vn 4.356262 -3.046175 3.171405
v 0.037871 -0.019792 0.020606
vn 4.356261 -2.498000 3.618977
v 0.037871 -0.016230 0.023514
vn 4.356261 -1.885127 3.972819
v 0.037871 -0.012248 0.025813
vn 4.356261 -1.223429 4.223768
v 0.037871 -0.007949 0.027443
vn 4.356261 -0.530046 4.365324
v 0.037871 -0.003444 0.028363
vn 4.356261 0.177065 4.393819
v 0.037871 0.001150 0.028548
vn 4.356261 0.879590 4.308517
v 0.037871 0.005715 0.027994
vn 4.356261 1.559335 4.111627
v 0.037871 0.010131 0.026714
vn 4.356262 2.198692 3.808247
v 0.037871 0.014286 0.024743
vn 4.356262 2.781105 3.406236
v 0.037871 0.018070 0.022131
vn 4.356261 3.291491 2.916006
v 0.037871 0.021386 0.018946
vn 4.356262 3.716626 2.350252
v 0.037871 0.024148 0.015270
vn 4.356261 4.045504 1.723627
v 0.037871 0.026285 0.011199
vn 4.356261 4.269605 1.052363
v 0.037871 0.027741 0.006838
vn 4.356261 4.383125 0.353843
v 0.037871 0.028478 0.002299
vn 4.356261 4.383126 -0.353843
v 0.037871 0.028478 -0.002299
vn 4.356262 4.269606 -1.052364
v 0.037871 0.027741 -0.006838
vn 4.356261 4.045504 -1.723627
v 0.037871 0.026285 -0.011199
vn 4.356261 3.716626 -2.350251
v 0.037871 0.024148 -0.015270
vn 4.356261 3.291490 -2.916007
v 0.037871 0.021386 -0.018946
vn 4.356262 2.781106 -3.406236
v 0.037871 0.018070 -0.022131
vn 4.356262 2.198693 -3.808247
v 0.037871 0.014286 -0.024743
vn 4.356261 1.559334 -4.111627
v 0.037871 0.010131 -0.026714
vn 4.356261 0.879590 -4.308517
v 0.037871 0.005715 -0.027994
vn 4.356261 0.177065 -4.393819
v 0.037871 0.001150 -0.028548
vn 4.356261 -0.530046 -4.365324
v 0.037871 -0.003444 -0.028363
vn 4.356261 -1.223429 -4.223768
v 0.037871 -0.007949 -0.027443
vn 4.356261 -1.885127 -3.972819
v 0.037871 -0.012248 -0.025813
vn 4.356261 -2.498000 -3.618977
v 0.037871 -0.016230 -0.023514
vn 4.356262 -3.046175 -3.171405
v 0.037871 -0.019792 -0.020606
vn 4.356261 -3.515457 -2.641695
v 0.037871 -0.022841 -0.017164
vn 4.356261 -3.893692 -2.043567
v 0.037871 -0.025298 -0.013278
vn 4.356262 -4.171080 -1.392512
v 0.037871 -0.027101 -0.009048
vn 4.356261 -4.340440 -0.705390
v 0.037871 -0.028201 -0.004583
vn 4.356262 -4.397385 0.000000
v 0.037871 -0.028571 0.000000
vn 5.354272 -3.092031 0.502504
v 0.039460 -0.026157 0.004251
vn 5.354271 -2.971382 0.991993
v 0.039460 -0.025136 0.008392
vn 5.354271 -2.773777 1.455791
v 0.039460 -0.023465 0.012315
vn 5.354271 -2.504332 1.881883
v 0.039460 -0.021185 0.015920
vn 5.354271 -2.170026 2.259236
v 0.039460 -0.018357 0.019112
vn 5.354271 -1.779518 2.578077
v 0.039460 -0.015054 0.021809
vn 5.354271 -1.342921 2.830146
v 0.039460 -0.011360 0.023941
vn 5.354272 -0.871543 3.008915
v 0.039460 -0.007373 0.025454
vn 5.354270 -0.377593 3.109757
v 0.039460 -0.003194 0.026307
vn 5.354270 0.126137 3.130057
v 0.039460 0.001067 0.026479
vn 5.354271 0.626599 3.069288
v 0.039460 0.005301 0.025964
vn 5.354271 1.110834 2.929029
v 0.039460 0.009397 0.024778
vn 5.354271 1.566299 2.712909
v 0.039460 0.013250 0.022950
vn 5.354272 1.981196 2.426526
v 0.039460 0.016760 0.020527
vn 5.354271 2.344782 2.077296
v 0.039460 0.019836 0.017573
vn 5.354272 2.647640 1.674266
v 0.039460 0.022398 0.014163
vn 5.354271 2.881924 1.227873
v 0.039460 0.024379 0.010387
vn 5.354270 3.041570 0.749680
v 0.039460 0.025730 0.006342
vn 5.354271 3.122438 0.252069
v 0.039460 0.026414 0.002132
vn 5.354272 3.122438 -0.252069
v 0.039460 0.026414 -0.002132
vn 5.354271 3.041569 -0.749680
v 0.039460 0.025730 -0.006342
vn 5.354271 2.881925 -1.227873
v 0.039460 0.024379 -0.010387
vn 5.354272 2.647640 -1.674265
v 0.039460 0.022398 -0.014163
vn 5.354270 2.344782 -2.077296
v 0.039460 0.019836 -0.017573
vn 5.354271 1.981196 -2.426525
v 0.039460 0.016760 -0.020527
vn 5.354271 1.566299 -2.712909
v 0.039460 0.013250 -0.022950
vn 5.354271 1.110834 -2.929029
v 0.039460 0.009397 -0.024778
vn 5.354272 0.626600 -3.069288
v 0.039460 0.005301 -0.025964
vn 5.354271 0.126137 -3.130057
v 0.039460 0.001067 -0.026479
vn 5.354271 -0.377593 -3.109757
v 0.039460 -0.003194 -0.026307
vn 5.354272 -0.871543 -3.008916
v 0.039460 -0.007373 -0.025454
vn 5.354271 -1.342921 -2.830146
v 0.039460 -0.011360 -0.023941
vn 5.354271 -1.779518 -2.578077
v 0.039460 -0.015054 -0.021809
vn 5.354271 -2.170026 -2.259237
v 0.039460 -0.018357 -0.019112
vn 5.354271 -2.504332 -1.881884
v 0.039460 -0.021185 -0.015920
vn 5.354271 -2.773777 -1.455790
v 0.039460 -0.023465 -0.012315
vn 5.354271 -2.971382 -0.991993
v 0.039460 -0.025136 -0.008392
vn 5.354271 -3.092031 -0.502504
v 0.039460 -0.026157 -0.004251
vn 5.354270 -3.132597 0.000000
v 0.039460 -0.026500 0.000000
vn 5.994688 -1.626441 0.264323
v 0.040459 -0.023776 0.003864
vn 5.994688 -1.562978 0.521799
v 0.040459 -0.022849 0.007628
vn 5.994687 -1.459036 0.765761
v 0.040459 -0.021329 0.011194
vn 5.994687 -1.317305 0.989891
v 0.040459 -0.019257 0.014471
vn 5.994687 -1.141457 1.188383
v 0.040459 -0.016686 0.017372
vn 5.994688 -0.936045 1.356095
v 0.040459 -0.013684 0.019824
vn 5.994687 -0.706391 1.488687
v 0.040459 -0.010326 0.021762
vn 5.994687 -0.458441 1.582722
v 0.040459 -0.006702 0.023137
vn 5.994688 -0.198618 1.635764
v 0.040459 -0.002904 0.023913
vn 5.994687 0.066350 1.646443
v 0.040459 0.000970 0.024069
vn 5.994687 0.329598 1.614478
v 0.040459 0.004818 0.023601
vn 5.994688 0.584310 1.540700
v 0.040459 0.008542 0.022523
vn 5.994687 0.823890 1.427019
v 0.040459 0.012044 0.020861
vn 5.994687 1.042131 1.276378
v 0.040459 0.015234 0.018659
vn 5.994688 1.233380 1.092679
v 0.040459 0.018030 0.015973
vn 5.994687 1.392686 0.880681
v 0.040459 0.020359 0.012874
vn 5.994687 1.515923 0.645874
v 0.040459 0.022161 0.009442
vn 5.994687 1.599898 0.394339
v 0.040459 0.023388 0.005765
vn 5.994687 1.642436 0.132591
v 0.040459 0.024010 0.001938
vn 5.994688 1.642435 -0.132591
v 0.040459 0.024010 -0.001938
vn 5.994688 1.599897 -0.394339
v 0.040459 0.023388 -0.005765
vn 5.994687 1.515923 -0.645875
v 0.040459 0.022161 -0.009442
vn 5.994688 1.392686 -0.880682
v 0.040459 0.020359 -0.012874
vn 5.994687 1.233380 -1.092679
v 0.040459 0.018030 -0.015973
vn 5.994687 1.042130 -1.276378
v 0.040459 0.015234 -0.018659
vn 5.994688 0.823890 -1.427019
v 0.040459 0.012044 -0.020861
vn 5.994687 0.584310 -1.540701
v 0.040459 0.008542 -0.022523
vn 5.994688 0.329598 -1.614478
v 0.040459 0.004818 -0.023601
vn 5.994687 0.066349 -1.646443
v 0.040459 0.000970 -0.024069
vn 5.994687 -0.198618 -1.635765
v 0.040459 -0.002904 -0.023913
vn 5.994688 -0.458441 -1.582722
v 0.040459 -0.006702 -0.023137
vn 5.994687 -0.706391 -1.488687
v 0.040459 -0.010326 -0.021762
vn 5.994688 -0.936045 -1.356095
v 0.040459 -0.013684 -0.019824
vn 5.994688 -1.141457 -1.188382
v 0.040459 -0.016686 -0.017372
vn 5.994687 -1.317305 -0.989891
v 0.040459 -0.019257 -0.014471
vn 5.994687 -1.459036 -0.765761
v 0.040459 -0.021329 -0.011194
vn 5.994688 -1.562978 -0.521799
v 0.040459 -0.022849 -0.007628
vn 5.994688 -1.626441 -0.264322
v 0.040459 -0.023776 -0.003864
vn 5.994687 -1.647779 -0.000000
v 0.040459 -0.024088 0.000000
vn -1.570796 -1.570796 1.570796
v 0.250800 0.006000 0.020000
vn -1.570796 1.570796 1.570796
v 0.250800 0.011000 0.020000
vn -1.570796 -1.570796 -1.570796
v 0.250800 0.006000 -0.020000
vn -1.570796 1.570796 -1.570796
v 0.250800 0.011000 -0.020000
vn -4.271724 1.206140 3.547605
v 0.256228 0.011000 0.020000
vn -1.402333 -4.245019 2.278514
v 0.256228 0.006000 0.020000
vn -2.694641 -3.008931 1.600636
v 0.257575 0.006000 0.022668
vn -6.033820 0.406271 1.595662
v 0.254411 0.040200 0.015174
vn -6.145258 0.405013 1.065042
v 0.253205 0.040200 0.009759
vn -3.004127 3.299688 0.883701
v 0.254543 0.011000 0.015602
vn -3.110316 3.327711 0.318340
v 0.252995 0.011000 0.008071
vn -6.212074 0.457580 -0.535979
v 0.252995 0.040200 0.000382
vn -3.109714 3.331694 -0.321334
v 0.252995 0.011000 0.000382
vn -6.231079 0.426373 0.024675
v 0.252800 0.040200 0.004226
vn -6.205770 0.506180 0.501650
v 0.252995 0.040200 0.008071
vn -6.144303 0.398821 -1.069229
v 0.253205 0.040200 -0.001306
vn -6.034729 0.400440 -1.591498
v 0.254411 0.040200 -0.006721
vn -2.984148 3.333656 -0.931645
v 0.254543 0.011000 -0.007149
vn -5.892935 0.422374 -2.054106
v 0.254543 0.040200 -0.007149
vn -5.688518 0.406226 -2.553256
v 0.256393 0.040200 -0.011903
vn -2.741462 3.318438 -1.506097
v 0.257575 0.011000 -0.014215
vn -2.285643 -3.036078 -2.148603
v 0.261967 0.006000 -0.020526
vn -1.201055 -4.012037 -2.583154
v 0.261524 0.006000 -0.020000
vn -3.696393 0.964259 -4.485568
v 0.261524 0.011000 -0.020000
vn -5.398288 0.570955 -3.076039
v 0.257575 0.040200 -0.014215
vn -5.175832 0.439313 -3.465499
v 0.259108 0.040200 -0.016741
vn -4.841195 0.435638 -3.935441
v 0.261967 0.040200 -0.020526
vn 6.146171 0.428067 -1.076909
v 0.328022 0.040200 -0.003423
vn 6.211578 0.406607 -0.542852
v 0.328699 0.040200 0.001453
vn 3.061457 -2.949057 -0.632717
v 0.328022 0.006000 -0.003423
vn 3.126496 -2.954579 0.000000
v 0.328800 0.006000 0.004226
vn 6.043128 0.402104 -1.557156
v 0.327891 0.040200 -0.004036
vn 2.874385 -2.950171 -1.229241
v 0.325720 0.006000 -0.010759
vn 5.884105 0.401220 -2.069352
v 0.326293 0.040200 -0.009348
vn 2.565232 -2.953613 -1.787229
v 0.321989 0.006000 -0.017482
vn 5.427279 0.428981 -3.060385
v 0.323938 0.040200 -0.014372
vn 5.685966 0.453594 -2.560264
v 0.325720 0.040200 -0.010759
vn 4.146566 0.416675 -4.665035
v 0.316981 0.040200 -0.023316
vn 4.486088 0.407278 -4.340046
v 0.317175 0.040200 -0.023130
vn 2.154469 -2.951869 -2.265494
v 0.316981 0.006000 -0.023316
vn 4.842241 0.406003 -3.929818
v 0.320877 0.040200 -0.018998
vn 5.174252 0.518687 -3.458443
v 0.321989 0.040200 -0.017482
vn 3.722825 0.406658 -5.001904
v 0.312911 0.040200 -0.026679
vn 1.654293 -2.954422 -2.652967
v 0.310901 0.006000 -0.028022
vn 3.269929 0.467835 -5.306954
v 0.310901 0.040200 -0.028022
vn 2.798716 0.406572 -5.571854
v 0.308175 0.040200 -0.029569
vn 1.083033 -2.950745 -2.932669
v 0.303998 0.006000 -0.031408
vn 2.310837 0.439114 -5.794296
v 0.303998 0.040200 -0.031408
vn 1.833699 0.403345 -5.963804
v 0.303069 0.040200 -0.031738
vn 0.476368 -2.950958 -3.089761
v 0.296554 0.006000 -0.033335
vn 1.312425 0.403170 -6.099112
v 0.297702 0.040200 -0.033142
vn -0.159226 -2.954225 -3.122416
v 0.288875 0.006000 -0.033725
vn 0.239021 0.433263 -6.225166
v 0.292188 0.040200 -0.033748
vn 0.805676 0.444290 -6.185026
v 0.296554 0.040200 -0.033335
vn -0.783853 -2.951838 -3.026505
v 0.281275 0.006000 -0.032561
vn -0.816420 0.406904 -6.181254
v 0.286644 0.040200 -0.033546
vn -0.221145 0.544454 -6.214663
v 0.288875 0.040200 -0.033725
vn -1.375828 -2.953959 -2.807462
v 0.274065 0.006000 -0.029890
vn -2.306334 0.406480 -5.793395
v 0.275938 0.040200 -0.030747
vn -1.573845 0.406493 -6.018538
v 0.281189 0.040200 -0.032538
vn -1.915498 -2.952125 -2.470811
v 0.267540 0.006000 -0.025823
vn -3.273203 0.406548 -5.307022
v 0.271004 0.040200 -0.028210
vn -2.802814 0.463902 -5.568529
v 0.274065 0.040200 -0.029890
vn -4.513982 0.404968 -4.308326
v 0.262499 0.040200 -0.021132
vn -4.122833 0.404495 -4.681506
v 0.266492 0.040200 -0.024982
vn -3.717386 0.449145 -5.007506
v 0.267540 0.040200 -0.025823
vn -2.369945 -2.949939 2.038761
v 0.261967 0.006000 0.028979
vn -5.159363 0.406601 3.501332
v 0.259108 0.040200 0.025194
vn -5.442477 0.468067 3.038639
v 0.257575 0.040200 0.022668
vn -5.688262 0.407093 2.553777
v 0.256393 0.040200 0.020356
vn -5.892935 0.422374 2.054106
v 0.254543 0.040200 0.015602
vn -3.717388 0.449145 5.007504
v 0.267540 0.040200 0.034276
vn -4.123966 0.402230 4.680405
v 0.266492 0.040200 0.033435
vn -1.916319 -2.950595 2.470038
v 0.267540 0.006000 0.034276
vn -4.512845 0.402751 4.309413
v 0.262499 0.040200 0.029584
vn -4.841955 0.433693 3.934440
v 0.261967 0.040200 0.028979
vn -3.245103 0.431109 5.318357
v 0.271004 0.040200 0.036663
vn -1.375828 -2.953960 2.807462
v 0.274065 0.006000 0.038343
vn -2.834294 0.531465 5.538026
v 0.274065 0.040200 0.038343
vn -2.306338 0.406482 5.793393
v 0.275938 0.040200 0.039200
vn -0.783854 -2.951839 3.026505
v 0.281275 0.006000 0.041013
vn -1.573845 0.406494 6.018538
v 0.281189 0.040200 0.040991
vn -0.816420 0.406909 6.181253
v 0.286644 0.040200 0.041998
vn -0.159226 -2.954228 3.122416
v 0.288875 0.006000 0.042178
vn -0.267623 0.466184 6.227999
v 0.288875 0.040200 0.042178
vn 0.271694 0.406557 6.229329
v 0.292188 0.040200 0.042201
vn 0.476003 -2.951471 3.089853
v 0.296554 0.006000 0.041788
vn 0.805677 0.444293 6.185025
v 0.296554 0.040200 0.041788
vn 1.311918 0.403922 6.099246
v 0.297702 0.040200 0.041594
vn 1.083398 -2.951262 2.932573
v 0.303998 0.006000 0.039861
vn 1.834199 0.404088 5.963677
v 0.303069 0.040200 0.040191
vn 1.654293 -2.954420 2.652967
v 0.310901 0.006000 0.036475
vn 2.827318 0.435421 5.550699
v 0.308175 0.040200 0.038021
vn 2.310828 0.439115 5.794298
v 0.303998 0.040200 0.039861
vn 2.156696 -2.947072 2.262917
v 0.316981 0.006000 0.031768
vn 3.722826 0.406658 5.001903
v 0.312911 0.040200 0.035131
vn 3.218203 0.557631 5.317983
v 0.310901 0.040200 0.036475
vn 5.162247 0.461018 3.495904
v 0.321989 0.040200 0.025935
vn 4.839064 0.399061 3.933331
v 0.320877 0.040200 0.027451
vn 2.563044 -2.949129 1.789793
v 0.321989 0.006000 0.025935
vn 4.489212 0.400772 4.336532
v 0.317175 0.040200 0.031583
vn 4.146566 0.416674 4.665035
v 0.316981 0.040200 0.031768
vn 5.444613 0.406560 3.038831
v 0.323938 0.040200 0.022824
vn 2.873816 -2.952701 1.231030
v 0.325720 0.006000 0.019212
vn 5.685966 0.453594 2.560265
v 0.325720 0.040200 0.019212
vn 5.883359 0.405023 2.071870
v 0.326293 0.040200 0.017801
vn 3.062016 -2.951683 0.630913
v 0.328022 0.006000 0.011876
vn 6.043891 0.405773 1.554654
v 0.327891 0.040200 0.012489
vn 6.210071 0.584376 0.057389
v 0.328800 0.040200 0.004226
vn 6.208058 0.439744 0.502156
v 0.328699 0.040200 0.007000
vn 6.146171 0.428067 1.076909
v 0.328022 0.040200 0.011876
vn -0.428945 6.253669 0.000001
v 0.262800 0.050200 0.004226
vn -0.424377 6.253668 0.062455
v 0.263098 0.050200 0.008303
vn 0.000000 6.283182 0.000000
v 0.290800 0.050200 0.004226
vn -0.388391 6.253669 -0.182071
v 0.265447 0.050200 -0.007658
vn -0.410762 6.253668 -0.123579
v 0.263987 0.050200 -0.003840
vn -0.424376 6.253668 -0.062455
v 0.263098 0.050200 0.000150
vn -0.274386 6.253669 -0.329709
v 0.272889 0.050200 -0.017296
vn -0.319469 6.253668 -0.286246
v 0.269946 0.050200 -0.014459
vn -0.357741 6.253668 -0.236679
v 0.267448 0.050200 -0.011223
vn -0.108495 6.253669 -0.415001
v 0.283718 0.050200 -0.022863
vn -0.167765 6.253668 -0.394783
v 0.279849 0.050200 -0.021543
vn -0.223457 6.253668 -0.366148
v 0.276214 0.050200 -0.019674
vn 0.077913 6.253668 -0.421814
v 0.295886 0.050200 -0.023308
vn 0.015666 6.253668 -0.428663
v 0.291823 0.050200 -0.023755
vn -0.046915 6.253668 -0.426375
v 0.287738 0.050200 -0.023606
vn 0.249587 6.253669 -0.348859
v 0.307092 0.050200 -0.018546
vn 0.196133 6.253668 -0.381481
v 0.303603 0.050200 -0.020675
vn 0.138499 6.253668 -0.405974
v 0.299841 0.050200 -0.022274
vn 0.374061 6.253669 -0.209935
v 0.315217 0.050200 -0.009477
vn 0.339511 6.253668 -0.262162
v 0.312962 0.050200 -0.012887
vn 0.297722 6.253668 -0.308802
v 0.310234 0.050200 -0.015931
vn 0.427807 6.253668 -0.031312
v 0.318725 0.050200 0.002182
vn 0.418689 6.253668 -0.093266
v 0.318130 0.050200 -0.001862
vn 0.400645 6.253668 -0.153234
v 0.316952 0.050200 -0.005776
vn 0.400646 6.253668 0.153234
v 0.316952 0.050200 0.014229
vn 0.418689 6.253668 0.093267
v 0.318130 0.050200 0.010314
vn 0.427807 6.253668 0.031312
v 0.318725 0.050200 0.006270
vn 0.297722 6.253668 0.308802
v 0.310234 0.050200 0.024384
vn 0.339511 6.253669 0.262162
v 0.312962 0.050200 0.021339
vn 0.374062 6.253669 0.209934
v 0.315217 0.050200 0.017930
vn 0.138499 6.253669 0.405974
v 0.299841 0.050200 0.030727
vn 0.196133 6.253669 0.381481
v 0.303603 0.050200 0.029128
vn 0.249588 6.253668 0.348859
v 0.307092 0.050200 0.026998
vn -0.046915 6.253668 0.426375
v 0.287738 0.050200 0.032058
vn 0.015666 6.253669 0.428662
v 0.291823 0.050200 0.032208
vn 0.077913 6.253669 0.421814
v 0.295886 0.050200 0.031761
vn -0.223458 6.253668 0.366148
v 0.276214 0.050200 0.028127
vn -0.167765 6.253668 0.394782
v 0.279849 0.050200 0.029996
vn -0.108495 6.253668 0.415001
v 0.283718 0.050200 0.031316
vn -0.357741 6.253669 0.236679
v 0.267448 0.050200 0.019676
vn -0.319470 6.253669 0.286246
v 0.269946 0.050200 0.022911
vn -0.274385 6.253668 0.329710
v 0.272889 0.050200 0.025748
vn -0.410762 6.253669 0.123579
v 0.263987 0.050200 0.012293
vn -0.388391 6.253668 0.182070
v 0.265447 0.050200 0.016111
vn -5.901159 1.615839 0.885554
v 0.253542 0.042788 0.009710
vn -5.413258 1.625386 2.511115
v 0.256701 0.042788 0.020211
vn -4.966989 1.627152 3.307295
v 0.259392 0.042788 0.025006
vn -4.432051 1.613989 3.996304
v 0.262752 0.042788 0.029357
vn -3.094043 1.605397 5.104329
v 0.271182 0.042788 0.036372
vn 0.228725 1.628243 5.962969
v 0.292175 0.042788 0.041860
vn 1.107742 1.619083 5.863616
v 0.297640 0.042788 0.041259
vn 2.741486 1.601364 5.302330
v 0.308019 0.042788 0.037718
vn 4.147964 1.600072 4.292030
v 0.316938 0.042788 0.031337
vn 5.205617 1.628777 2.917361
v 0.323641 0.042788 0.022657
vn 5.583421 1.621676 2.105462
v 0.325974 0.042788 0.017679
vn 5.954082 1.597206 0.426788
v 0.328359 0.042788 0.006975
vn 5.821866 1.610274 -1.312561
v 0.327558 0.042788 -0.003962
vn 5.195212 1.607352 -2.938618
v 0.323641 0.042788 -0.014205
vn 3.494006 1.624194 -4.837453
v 0.312712 0.042788 -0.026402
vn 2.715826 1.627770 -5.313526
v 0.308019 0.042788 -0.029266
vn 1.906214 1.616887 -5.654842
v 0.302959 0.042788 -0.031416
vn 0.202128 1.603401 -5.965571
v 0.292175 0.042788 -0.033408
vn -3.114817 1.628574 -5.089920
v 0.271182 0.042788 -0.027919
vn -3.837314 1.620653 -4.569799
v 0.266710 0.042788 -0.024720
vn -4.984597 1.599301 -3.284160
v 0.259392 0.042788 -0.016553
vn -1.489038 5.996923 -0.698033
v 0.263104 0.049859 -0.008757
vn -1.574801 5.996926 -0.473783
v 0.261509 0.049859 -0.004586
vn -2.998431 5.358430 -0.902085
v 0.259199 0.048860 -0.005281
vn -1.627009 5.996922 -0.239450
v 0.260538 0.049859 -0.000227
vn -3.097827 5.358431 -0.455908
v 0.258152 0.048860 -0.000578
vn -4.351847 4.361370 -0.640455
v 0.256103 0.047271 -0.000880
vn -1.644529 5.996923 0.000002
v 0.260212 0.049859 0.004226
vn -3.131200 5.358420 -0.000001
v 0.257800 0.048860 0.004226
vn -4.398732 4.361357 -0.000004
v 0.255729 0.047271 0.004226
vn -5.365138 3.076060 -0.000003
v 0.254140 0.045200 0.004226
vn -1.627008 5.996922 0.239446
v 0.260538 0.049859 0.008680
vn -3.097827 5.358431 0.455908
v 0.258152 0.048860 0.009031
vn -4.351848 4.361369 0.640461
v 0.256103 0.047271 0.009333
vn -5.307959 3.076071 0.781169
v 0.254530 0.045200 0.009564
vn -5.307961 3.076069 -0.781166
v 0.254530 0.045200 -0.001111
vn -5.899271 1.622249 -0.897821
v 0.253542 0.042788 -0.001257
vn -5.968546 1.609248 0.021882
v 0.253141 0.042788 0.004226
vn -5.718598 1.605674 -1.708532
v 0.254737 0.042788 -0.006623
vn -5.137657 3.076068 -1.545687
v 0.255694 0.045200 -0.006335
vn -4.212224 4.361359 -1.267269
v 0.257216 0.047271 -0.005878
vn -5.408136 1.620251 -2.521880
v 0.256701 0.042788 -0.011758
vn -4.474510 3.076060 -2.960302
v 0.260225 0.045200 -0.016002
vn -4.857847 3.076064 -2.277262
v 0.257606 0.045200 -0.011334
vn -3.668525 4.361380 -2.427064
v 0.261551 0.047271 -0.015125
vn -3.982817 4.361372 -1.867071
v 0.259045 0.047271 -0.010660
vn -2.611413 5.358425 -1.727692
v 0.263278 0.048860 -0.013982
vn -2.835141 5.358420 -1.329064
v 0.260920 0.048860 -0.009781
vn -1.371533 5.996925 -0.907397
v 0.265290 0.049859 -0.012651
vn -0.179865 5.996923 -1.634665
v 0.287455 0.049859 -0.026178
vn 0.060062 5.996923 -1.643433
v 0.291917 0.049859 -0.026341
vn -0.342463 5.358429 -3.112408
v 0.287191 0.048860 -0.028576
vn 0.114358 5.358430 -3.129102
v 0.292005 0.048860 -0.028752
vn -0.481092 4.361366 -4.372336
v 0.286964 0.047271 -0.030634
vn 0.160651 4.361367 -4.395788
v 0.292081 0.047271 -0.030821
vn -0.586791 3.076067 -5.332948
v 0.286790 0.045200 -0.032214
vn 0.195944 3.076065 -5.361554
v 0.292139 0.045200 -0.032409
vn -0.671048 1.615936 -5.929473
v 0.286681 0.042788 -0.033207
vn 1.301641 5.996922 -1.005095
v 0.315010 0.049859 -0.014468
vn 1.434111 5.996923 -0.804864
v 0.317474 0.049859 -0.010744
vn 2.478329 5.358429 -1.913704
v 0.316919 0.048860 -0.015942
vn 2.730550 5.358432 -1.532465
v 0.319578 0.048860 -0.011924
vn 3.481567 4.361371 -2.688386
v 0.318559 0.047271 -0.017208
vn 3.835903 4.361364 -2.152817
v 0.321384 0.047271 -0.012938
vn 4.246480 3.076067 -3.279032
v 0.319816 0.045200 -0.018179
vn 4.678670 3.076057 -2.625792
v 0.322770 0.045200 -0.013716
vn 4.712234 1.616141 -3.660977
v 0.320607 0.042788 -0.018790
vn 1.640146 5.996924 -0.120043
v 0.321307 0.049859 0.001994
vn 1.640146 5.996923 0.120044
v 0.321307 0.049859 0.006459
vn 3.122840 5.358429 -0.228560
v 0.323712 0.048860 0.001818
vn 3.122841 5.358429 0.228562
v 0.323712 0.048860 0.006635
vn 4.386989 4.361370 -0.321080
v 0.325778 0.047271 0.001666
vn 4.386989 4.361368 0.321083
v 0.325778 0.047271 0.006786
vn 5.350820 3.076076 -0.391621
v 0.327362 0.045200 0.001550
vn 5.350818 3.076080 0.391620
v 0.327362 0.045200 0.006902
vn 5.950594 1.621562 -0.444932
v 0.328359 0.042788 0.001477
vn 0.956885 5.996924 1.337477
v 0.308598 0.049859 0.029103
vn 0.751951 5.996923 1.462549
v 0.304786 0.049859 0.031430
vn 1.821912 5.358434 2.546561
v 0.310001 0.048860 0.031065
vn 1.431714 5.358427 2.784705
v 0.305889 0.048860 0.033575
vn 2.559438 4.361370 3.577428
v 0.311206 0.047271 0.032749
vn 2.011279 4.361365 3.911973
v 0.306836 0.047271 0.035417
vn 3.121754 3.076053 4.363410
v 0.312131 0.045200 0.034042
vn 2.453166 3.076059 4.771443
v 0.307563 0.045200 0.036830
vn 3.484031 1.618749 4.844538
v 0.312712 0.042788 0.034854
vn -0.643184 5.996923 1.513538
v 0.278837 0.049859 0.032378
vn -0.856698 5.996927 1.403756
v 0.274865 0.049859 0.030336
vn -1.224623 5.358428 2.881781
v 0.277894 0.048860 0.034598
vn -1.631160 5.358432 2.672760
v 0.273609 0.048860 0.032395
vn -1.720355 4.361375 4.048347
v 0.277084 0.047271 0.036504
vn -2.291476 4.361360 3.754721
v 0.272530 0.047271 0.034163
vn -2.098329 3.076064 4.937777
v 0.276462 0.045200 0.037966
vn -2.794918 3.076065 4.579645
v 0.271702 0.045200 0.035519
vn -2.317087 1.616169 5.499039
v 0.276071 0.042788 0.038886
vn -4.432052 1.613990 -3.996303
v 0.262752 0.042788 -0.020904
vn -3.995807 3.076046 -3.580266
v 0.263496 0.045200 -0.020238
vn -3.276047 4.361363 -2.935349
v 0.264680 0.047271 -0.019177
vn -2.332026 5.358431 -2.089501
v 0.266223 0.048860 -0.017795
vn -1.224801 5.996922 -1.097428
v 0.268019 0.049859 -0.016186
vn -1.051959 5.996924 -1.264063
v 0.271234 0.049859 -0.019285
vn -2.002937 5.358431 -2.406780
v 0.269691 0.048860 -0.021139
vn -2.813746 4.361367 -3.381067
v 0.268366 0.047271 -0.022731
vn -3.431935 3.076052 -4.123900
v 0.267349 0.045200 -0.023952
vn -2.794918 3.076065 -4.579644
v 0.271702 0.045200 -0.027067
vn -2.291473 4.361360 -3.754725
v 0.272530 0.047271 -0.025710
vn -1.631162 5.358431 -2.672759
v 0.273609 0.048860 -0.023942
vn -0.856700 5.996926 -1.403755
v 0.274865 0.049859 -0.021884
vn -2.305508 1.622173 -5.503942
v 0.276071 0.042788 -0.030433
vn -2.098330 3.076066 -4.937777
v 0.276462 0.045200 -0.029514
vn -1.720360 4.361372 -4.048346
v 0.277084 0.047271 -0.028051
vn -1.224621 5.358429 -2.881782
v 0.277894 0.048860 -0.026145
vn -0.643183 5.996924 -1.513537
v 0.278837 0.049859 -0.023925
vn -0.415957 5.996924 -1.591056
v 0.283063 0.049859 -0.025367
vn -0.791983 5.358432 -3.029375
v 0.282453 0.048860 -0.027701
vn -1.112585 4.361367 -4.255691
v 0.281929 0.047271 -0.029704
vn -1.357018 3.076063 -5.190683
v 0.281527 0.045200 -0.031242
vn -1.509944 1.589631 -5.775612
v 0.281275 0.042788 -0.032208
vn 1.107741 1.619080 -5.863616
v 0.297640 0.042788 -0.032806
vn 0.974504 3.076069 -5.275887
v 0.297459 0.045200 -0.031824
vn 0.798970 4.361368 -4.325554
v 0.297170 0.047271 -0.030261
vn 0.568742 5.358428 -3.079108
v 0.296794 0.048860 -0.028225
vn 0.298705 5.996925 -1.617173
v 0.296356 0.049859 -0.025853
vn 0.530988 5.996922 -1.556451
v 0.300676 0.049859 -0.024724
vn 1.011000 5.358429 -2.963488
v 0.301455 0.048860 -0.027006
vn 1.420257 4.361373 -4.163124
v 0.302124 0.047271 -0.028966
vn 1.732298 3.076065 -5.077773
v 0.302637 0.045200 -0.030470
vn 2.453167 3.076061 -4.771442
v 0.307563 0.045200 -0.028377
vn 2.011282 4.361368 -3.911971
v 0.306836 0.047271 -0.026964
vn 1.431717 5.358426 -2.784703
v 0.305889 0.048860 -0.025122
vn 0.751951 5.996922 -1.462550
v 0.304786 0.049859 -0.022977
vn 3.121757 3.076053 -4.363409
v 0.312131 0.045200 -0.025589
vn 2.559435 4.361367 -3.577432
v 0.311206 0.047271 -0.024297
vn 1.821907 5.358435 -2.546562
v 0.310001 0.048860 -0.022612
vn 0.956887 5.996923 -1.337478
v 0.308598 0.049859 -0.020651
vn 4.147959 1.600078 -4.292031
v 0.316938 0.042788 -0.022885
vn 3.723802 3.076062 -3.862381
v 0.316245 0.045200 -0.022165
vn 3.053046 4.361366 -3.166658
v 0.315142 0.047271 -0.021021
vn 2.173282 5.358426 -2.254155
v 0.313704 0.048860 -0.019530
vn 1.141419 5.996927 -1.183901
v 0.312030 0.049859 -0.017794
vn 5.583422 1.621675 -2.105460
v 0.325974 0.042788 -0.009227
vn 5.011132 3.076051 -1.916598
v 0.325041 0.045200 -0.008870
vn 4.108489 4.361352 -1.571357
v 0.323557 0.047271 -0.008302
vn 2.924585 5.358428 -1.118556
v 0.321623 0.048860 -0.007562
vn 1.536021 5.996922 -0.587476
v 0.319370 0.049859 -0.006701
vn 1.605186 5.996925 -0.357567
v 0.320656 0.049859 -0.002424
vn 3.056279 5.358432 -0.680809
v 0.323011 0.048860 -0.002949
vn 4.293481 4.361377 -0.956410
v 0.325032 0.047271 -0.003399
vn 5.236770 3.076068 -1.166541
v 0.326583 0.045200 -0.003745
vn 5.821867 1.610273 1.312562
v 0.327558 0.042788 0.012415
vn 5.236772 3.076068 1.166536
v 0.326583 0.045200 0.012197
vn 4.293482 4.361380 0.956400
v 0.325032 0.047271 0.011852
vn 3.056280 5.358432 0.680807
v 0.323011 0.048860 0.011402
vn 1.605186 5.996926 0.357566
v 0.320656 0.049859 0.010877
vn 1.536019 5.996923 0.587475
v 0.319370 0.049859 0.015153
vn 2.924586 5.358428 1.118558
v 0.321623 0.048860 0.016015
vn 4.108484 4.361355 1.571365
v 0.323557 0.047271 0.016755
vn 5.011131 3.076047 1.916607
v 0.325041 0.045200 0.017323
vn 4.678668 3.076058 2.625791
v 0.322770 0.045200 0.022169
vn 3.835905 4.361362 2.152816
v 0.321384 0.047271 0.021391
vn 2.730552 5.358432 1.532464
v 0.319578 0.048860 0.020377
vn 1.434111 5.996923 0.804864
v 0.317474 0.049859 0.019197
vn 4.704518 1.622370 3.670890
v 0.320607 0.042788 0.027243
vn 4.246481 3.076069 3.279027
v 0.319816 0.045200 0.026632
vn 3.481572 4.361368 2.688384
v 0.318559 0.047271 0.025661
vn 2.478327 5.358432 1.913702
v 0.316919 0.048860 0.024395
vn 1.301641 5.996922 1.005098
v 0.315010 0.049859 0.022921
vn 1.141422 5.996927 1.183899
v 0.312030 0.049859 0.026247
vn 2.173280 5.358426 2.254157
v 0.313704 0.048860 0.027983
vn 3.053042 4.361366 3.166660
v 0.315142 0.047271 0.029474
vn 3.723803 3.076065 3.862380
v 0.316245 0.045200 0.030618
vn 1.906213 1.616890 5.654842
v 0.302959 0.042788 0.039869
vn 1.732298 3.076064 5.077774
v 0.302637 0.045200 0.038923
vn 1.420259 4.361372 4.163124
v 0.302124 0.047271 0.037419
vn 1.011000 5.358430 2.963487
v 0.301455 0.048860 0.035459
vn 0.530986 5.996922 1.556452
v 0.300676 0.049859 0.033176
vn 0.298707 5.996924 1.617174
v 0.296356 0.049859 0.034306
vn 0.568742 5.358428 3.079106
v 0.296794 0.048860 0.036677
vn 0.798969 4.361369 4.325553
v 0.297170 0.047271 0.038714
vn 0.974505 3.076065 5.275888
v 0.297459 0.045200 0.040277
vn 0.195944 3.076066 5.361555
v 0.292139 0.045200 0.040862
vn 0.160651 4.361367 4.395789
v 0.292081 0.047271 0.039274
vn 0.114358 5.358429 3.129103
v 0.292005 0.048860 0.037204
vn 0.060062 5.996923 1.643433
v 0.291917 0.049859 0.034794
vn -0.683430 1.621673 5.928126
v 0.286681 0.042788 0.041660
vn -0.586789 3.076066 5.332949
v 0.286790 0.045200 0.040667
vn -0.481093 4.361369 4.372334
v 0.286964 0.047271 0.039087
vn -0.342465 5.358428 3.112409
v 0.287191 0.048860 0.037028
vn -0.179865 5.996922 1.634665
v 0.287455 0.049859 0.034631
vn -0.415957 5.996923 1.591058
v 0.283063 0.049859 0.033820
vn -0.791980 5.358433 3.029375
v 0.282453 0.048860 0.036153
vn -1.112585 4.361368 4.255690
v 0.281929 0.047271 0.038157
vn -1.357019 3.076066 5.190681
v 0.281527 0.045200 0.039695
vn -1.509943 1.589628 5.775613
v 0.281275 0.042788 0.040661
vn -3.837320 1.620647 4.569798
v 0.266710 0.042788 0.033173
vn -3.431934 3.076053 4.123898
v 0.267349 0.045200 0.032405
vn -2.813744 4.361367 3.381068
v 0.268366 0.047271 0.031184
vn -2.002939 5.358430 2.406780
v 0.269691 0.048860 0.029592
vn -1.051957 5.996925 1.264062
v 0.271234 0.049859 0.027738
vn -1.224802 5.996923 1.097426
v 0.268019 0.049859 0.024638
vn -2.332024 5.358431 2.089502
v 0.266223 0.048860 0.026248
vn -3.276051 4.361362 2.935348
v 0.264680 0.047271 0.027630
vn -3.995810 3.076047 3.580260
v 0.263496 0.045200 0.028690
vn -4.474505 3.076063 2.960306
v 0.260225 0.045200 0.024454
vn -3.668526 4.361375 2.427070
v 0.261551 0.047271 0.023577
vn -2.611411 5.358427 1.727692
v 0.263278 0.048860 0.022435
vn -1.371532 5.996925 0.907398
v 0.265290 0.049859 0.021104
vn -4.857851 3.076058 2.277263
v 0.257606 0.045200 0.019787
vn -3.982814 4.361377 1.867071
v 0.259045 0.047271 0.019113
vn -2.835144 5.358420 1.329059
v 0.260920 0.048860 0.018233
vn -1.489039 5.996922 0.698031
v 0.263104 0.049859 0.017210
vn -5.718596 1.605676 1.708536
v 0.254737 0.042788 0.015076
vn -5.137661 3.076063 1.545686
v 0.255694 0.045200 0.014788
vn -4.212223 4.361362 1.267264
v 0.257216 0.047271 0.014330
vn -2.998432 5.358428 0.902091
v 0.259199 0.048860 0.013734
vn -1.574799 5.996926 0.473786
v 0.261509 0.049859 0.013039
# 773 vertices, 0 vertices normals

f 1//1 2//2 3//3
f 1//1 3//3 4//4
f 4//4 3//3 5//5
f 4//4 5//5 6//6
f 6//6 7//7 4//4
f 4//4 7//7 8//8
f 4//4 8//8 9//9
f 9//9 10//10 4//4
f 4//4 10//10 11//11
f 4//4 11//11 12//12
f 12//12 13//13 4//4
f 4//4 13//13 14//14
f 4//4 14//14 15//15
f 16//16 17//17 1//1
f 18//18 19//19 20//20
f 20//20 19//19 21//21
f 20//20 21//21 22//22
f 22//22 21//21 23//23
f 22//22 23//23 24//24
f 24//24 23//23 25//25
f 24//24 25//25 26//26
f 26//26 25//25 27//27
f 26//26 27//27 28//28
f 28//28 27//27 29//29
f 28//28 29//29 30//30
f 30//30 29//29 31//31
f 30//30 31//31 17//17
f 17//17 31//31 32//32
f 17//17 32//32 1//1
f 33//33 34//34 18//18
f 18//18 34//34 35//35
f 18//18 35//35 19//19
f 1//1 4//4 16//16
f 16//16 4//4 15//15
f 16//16 15//15 36//36
f 36//36 15//15 14//14
f 36//36 14//14 37//37
f 37//37 14//14 13//13
f 37//37 13//13 38//38
f 38//38 13//13 12//12
f 38//38 12//12 39//39
f 39//39 12//12 11//11
f 39//39 11//11 40//40
f 40//40 11//11 10//10
f 40//40 10//10 41//41
f 41//41 10//10 9//9
f 41//41 9//9 42//42
f 42//42 9//9 8//8
f 42//42 8//8 43//43
f 43//43 8//8 7//7
f 43//43 7//7 44//44
f 44//44 7//7 6//6
f 44//44 6//6 45//45
f 45//45 6//6 5//5
f 45//45 5//5 46//46
f 46//46 5//5 3//3
f 46//46 3//3 47//47
f 47//47 3//3 2//2
f 47//47 2//2 33//33
f 33//33 2//2 48//48
f 33//33 48//48 34//34
f 34//34 31//31 35//35
f 35//35 31//31 29//29
f 35//35 29//29 19//19
f 25//25 23//23 21//21
f 19//19 29//29 21//21
f 21//21 29//29 27//27
f 21//21 27//27 25//25
f 49//49 50//50 22//22
f 22//22 50//50 51//51
f 22//22 51//51 20//20
f 20//20 51//51 52//52
f 20//20 52//52 18//18
f 18//18 52//52 53//53
f 18//18 53//53 33//33
f 33//33 53//53 54//54
f 33//33 54//54 47//47
f 47//47 54//54 55//55
f 47//47 55//55 46//46
f 46//46 55//55 56//56
f 46//46 56//56 45//45
f 45//45 56//56 57//57
f 45//45 57//57 44//44
f 44//44 57//57 58//58
f 44//44 58//58 43//43
f 43//43 58//58 59//59
f 43//43 59//59 42//42
f 42//42 59//59 60//60
f 42//42 60//60 61//61
f 61//61 60//60 62//62
f 61//61 62//62 40//40
f 40//40 62//62 63//63
f 40//40 63//63 39//39
f 39//39 63//63 64//64
f 39//39 64//64 38//38
f 38//38 64//64 65//65
f 38//38 65//65 37//37
f 37//37 65//65 66//66
f 37//37 66//66 36//36
f 36//36 66//66 67//67
f 36//36 67//67 16//16
f 16//16 67//67 68//68
f 16//16 68//68 17//17
f 17//17 68//68 69//69
f 17//17 69//69 30//30
f 30//30 69//69 70//70
f 30//30 70//70 28//28
f 28//28 70//70 71//71
f 28//28 71//71 26//26
f 26//26 71//71 72//72
f 26//26 72//72 49//49
f 49//49 72//72 50//50
f 73//73 74//74 75//75
f 75//75 74//74 76//76
f 73//73 77//77 74//74
f 74//74 77//77 78//78
f 74//74 78//78 79//79
f 80//80 81//81 82//82
f 82//82 81//81 79//79
f 82//82 79//79 83//83
f 83//83 79//79 78//78
f 80//80 84//84 81//81
f 81//81 84//84 85//85
f 81//81 85//85 86//86
f 85//85 87//87 86//86
f 86//86 87//87 88//88
f 86//86 88//88 89//89
f 90//90 91//91 92//92
f 92//92 91//91 89//89
f 92//92 89//89 93//93
f 93//93 89//89 88//88
f 90//90 94//94 91//91
f 91//91 94//94 95//95
f 91//91 95//95 96//96
f 97//97 98//98 99//99
f 99//99 98//98 96//96
f 99//99 96//96 100//100
f 100//100 96//96 95//95
f 97//97 101//101 98//98
f 98//98 101//101 102//102
f 98//98 102//102 103//103
f 102//102 104//104 103//103
f 103//103 104//104 105//105
f 103//103 105//105 106//106
f 107//107 108//108 109//109
f 109//109 108//108 106//106
f 109//109 106//106 110//110
f 110//110 106//106 105//105
f 107//107 111//111 108//108
f 108//108 111//111 112//112
f 108//108 112//112 113//113
f 112//112 114//114 113//113
f 113//113 114//114 115//115
f 113//113 115//115 116//116
f 115//115 117//117 116//116
f 116//116 117//117 118//118
f 116//116 118//118 119//119
f 118//118 120//120 119//119
f 119//119 120//120 121//121
f 119//119 121//121 122//122
f 123//123 124//124 125//125
f 125//125 124//124 122//122
f 125//125 122//122 126//126
f 126//126 122//122 121//121
f 123//123 127//127 124//124
f 124//124 127//127 128//128
f 124//124 128//128 129//129
f 128//128 130//130 129//129
f 129//129 130//130 131//131
f 129//129 131//131 132//132
f 133//133 134//134 135//135
f 135//135 134//134 132//132
f 135//135 132//132 136//136
f 136//136 132//132 131//131
f 133//133 137//137 134//134
f 134//134 137//137 138//138
f 134//134 138//138 139//139
f 140//140 141//141 142//142
f 142//142 141//141 139//139
f 142//142 139//139 143//143
f 143//143 139//139 138//138
f 140//140 144//144 141//141
f 141//141 144//144 145//145
f 141//141 145//145 146//146
f 145//145 147//147 146//146
f 146//146 147//147 148//148
f 146//146 148//148 149//149
f 150//150 151//151 152//152
f 152//152 151//151 149//149
f 152//152 149//149 153//153
f 153//153 149//149 148//148
f 150//150 154//154 151//151
f 151//151 154//154 155//155
f 151//151 155//155 156//156
f 157//157 158//158 159//159
f 159//159 158//158 156//156
f 159//159 156//156 160//160
f 160//160 156//156 155//155
f 157//157 161//161 158//158
f 158//158 161//161 162//162
f 158//158 162//162 163//163
f 162//162 164//164 163//163
f 163//163 164//164 165//165
f 163//163 165//165 76//76
f 76//76 165//165 166//166
f 76//76 166//166 75//75
f 119//119 122//122 167//167
f 108//108 113//113 167//167
f 167//167 113//113 116//116
f 167//167 116//116 119//119
f 98//98 103//103 167//167
f 167//167 103//103 106//106
f 167//167 106//106 108//108
f 89//89 91//91 167//167
f 167//167 91//91 96//96
f 167//167 96//96 98//98
f 79//79 81//81 167//167
f 167//167 81//81 86//86
f 167//167 86//86 89//89
f 163//163 76//76 167//167
f 167//167 76//76 74//74
f 167//167 74//74 79//79
f 151//151 156//156 167//167
f 167//167 156//156 158//158
f 167//167 158//158 163//163
f 141//141 146//146 167//167
f 167//167 146//146 149//149
f 167//167 149//149 151//151
f 132//132 134//134 167//167
f 167//167 134//134 139//139
f 167//167 139//139 141//141
f 122//122 124//124 167//167
f 167//167 124//124 129//129
f 167//167 129//129 132//132
f 50//50 72//72 168//168
f 71//71 169//169 72//72
f 72//72 169//169 170//170
f 72//72 170//170 168//168
f 69//69 171//171 70//70
f 70//70 171//171 172//172
f 70//70 172//172 71//71
f 71//71 172//172 173//173
f 71//71 173//173 169//169
f 68//68 174//174 69//69
f 69//69 174//174 175//175
f 69//69 175//175 171//171
f 55//55 54//54 176//176
f 53//53 177//177 54//54
f 54//54 177//177 178//178
f 54//54 178//178 176//176
f 168//168 179//179 50//50
f 50//50 179//179 180//180
f 50//50 180//180 51//51
f 51//51 180//180 181//181
f 51//51 181//181 52//52
f 67//67 66//66 182//182
f 181//181 183//183 52//52
f 52//52 183//183 184//184
f 52//52 184//184 53//53
f 53//53 184//184 185//185
f 53//53 185//185 177//177
f 182//182 186//186 67//67
f 67//67 186//186 187//187
f 67//67 187//187 68//68
f 68//68 187//187 188//188
f 68//68 188//188 174//174
f 64//64 189//189 65//65
f 65//65 189//189 190//190
f 65//65 190//190 66//66
f 66//66 190//190 191//191
f 66//66 191//191 182//182
f 63//63 62//62 192//192
f 192//192 193//193 63//63
f 63//63 193//193 194//194
f 63//63 194//194 64//64
f 64//64 194//194 195//195
f 64//64 195//195 189//189
f 59//59 196//196 197//197
f 197//197 196//196 198//198
f 197//197 198//198 62//62
f 62//62 198//198 199//199
f 62//62 199//199 192//192
f 58//58 200//200 59//59
f 59//59 200//200 201//201
f 59//59 201//201 196//196
f 57//57 202//202 58//58
f 58//58 202//202 203//203
f 58//58 203//203 200//200
f 176//176 204//204 55//55
f 55//55 204//204 205//205
f 55//55 205//205 56//56
f 56//56 205//205 206//206
f 56//56 206//206 57//57
f 57//57 206//206 207//207
f 57//57 207//207 202//202
f 114//114 208//208 209//209
f 114//114 112//112 208//208
f 208//208 112//112 111//111
f 208//208 111//111 210//210
f 210//210 111//111 107//107
f 210//210 107//107 211//211
f 211//211 107//107 109//109
f 211//211 109//109 212//212
f 212//212 109//109 110//110
f 110//110 105//105 212//212
f 212//212 105//105 104//104
f 212//212 104//104 213//213
f 104//104 102//102 213//213
f 213//213 102//102 101//101
f 213//213 101//101 214//214
f 214//214 101//101 97//97
f 214//214 97//97 215//215
f 97//97 99//99 215//215
f 215//215 99//99 100//100
f 215//215 100//100 216//216
f 100//100 95//95 216//216
f 216//216 95//95 94//94
f 216//216 94//94 217//217
f 217//217 94//94 90//90
f 217//217 90//90 218//218
f 218//218 90//90 92//92
f 218//218 92//92 219//219
f 219//219 92//92 93//93
f 93//93 88//88 219//219
f 219//219 88//88 87//87
f 219//219 87//87 220//220
f 87//87 85//85 220//220
f 220//220 85//85 84//84
f 220//220 84//84 221//221
f 221//221 84//84 80//80
f 221//221 80//80 222//222
f 80//80 82//82 222//222
f 222//222 82//82 83//83
f 222//222 83//83 223//223
f 83//83 78//78 223//223
f 223//223 78//78 77//77
f 223//223 77//77 224//224
f 224//224 77//77 73//73
f 224//224 73//73 225//225
f 73//73 75//75 225//225
f 225//225 75//75 166//166
f 225//225 166//166 226//226
f 166//166 165//165 226//226
f 226//226 165//165 164//164
f 226//226 164//164 227//227
f 164//164 162//162 227//227
f 227//227 162//162 161//161
f 227//227 161//161 228//228
f 228//228 161//161 157//157
f 228//228 157//157 229//229
f 229//229 157//157 159//159
f 229//229 159//159 230//230
f 230//230 159//159 160//160
f 160//160 155//155 230//230
f 230//230 155//155 154//154
f 230//230 154//154 231//231
f 231//231 154//154 150//150
f 231//231 150//150 232//232
f 150//150 152//152 232//232
f 232//232 152//152 153//153
f 232//232 153//153 233//233
f 153//153 148//148 233//233
f 233//233 148//148 147//147
f 233//233 147//147 234//234
f 147//147 145//145 234//234
f 234//234 145//145 144//144
f 234//234 144//144 235//235
f 235//235 144//144 140//140
f 235//235 140//140 236//236
f 236//236 140//140 142//142
f 236//236 142//142 237//237
f 237//237 142//142 143//143
f 143//143 138//138 237//237
f 237//237 138//138 137//137
f 237//237 137//137 238//238
f 238//238 137//137 133//133
f 238//238 133//133 239//239
f 133//133 135//135 239//239
f 239//239 135//135 136//136
f 239//239 136//136 240//240
f 136//136 131//131 240//240
f 240//240 131//131 130//130
f 240//240 130//130 241//241
f 130//130 128//128 241//241
f 241//241 128//128 127//127
f 241//241 127//127 242//242
f 242//242 127//127 123//123
f 242//242 123//123 243//243
f 243//243 123//123 125//125
f 243//243 125//125 244//244
f 244//244 125//125 126//126
f 126//126 121//121 244//244
f 244//244 121//121 245//245
f 244//244 245//245 246//246
f 246//246 245//245 118//118
f 246//246 118//118 247//247
f 247//247 118//118 117//117
f 247//247 117//117 209//209
f 209//209 117//117 115//115
f 209//209 115//115 114//114
f 246//246 248//248 244//244
f 244//244 248//248 249//249
f 244//244 249//249 243//243
f 243//243 249//249 250//250
f 243//243 250//250 242//242
f 242//242 250//250 251//251
f 242//242 251//251 241//241
f 241//241 251//251 252//252
f 241//241 252//252 240//240
f 240//240 252//252 253//253
f 240//240 253//253 239//239
f 239//239 253//253 254//254
f 239//239 254//254 238//238
f 238//238 254//254 255//255
f 238//238 255//255 237//237
f 237//237 255//255 256//256
f 237//237 256//256 236//236
f 236//236 256//256 257//257
f 236//236 257//257 235//235
f 235//235 257//257 258//258
f 235//235 258//258 234//234
f 234//234 258//258 259//259
f 234//234 259//259 233//233
f 233//233 259//259 260//260
f 233//233 260//260 232//232
f 232//232 260//260 261//261
f 232//232 261//261 231//231
f 231//231 261//261 262//262
f 231//231 262//262 230//230
f 230//230 262//262 263//263
f 230//230 263//263 229//229
f 229//229 263//263 264//264
f 229//229 264//264 228//228
f 228//228 264//264 265//265
f 228//228 265//265 227//227
f 227//227 265//265 266//266
f 227//227 266//266 226//226
f 226//226 266//266 267//267
f 226//226 267//267 225//225
f 225//225 267//267 268//268
f 225//225 268//268 224//224
f 224//224 268//268 269//269
f 224//224 269//269 223//223
f 223//223 269//269 270//270
f 223//223 270//270 222//222
f 222//222 270//270 271//271
f 222//222 271//271 221//221
f 221//221 271//271 272//272
f 221//221 272//272 220//220
f 220//220 272//272 273//273
f 220//220 273//273 219//219
f 219//219 273//273 274//274
f 219//219 274//274 218//218
f 218//218 274//274 275//275
f 218//218 275//275 217//217
f 217//217 275//275 276//276
f 217//217 276//276 216//216
f 216//216 276//276 277//277
f 216//216 277//277 215//215
f 215//215 277//277 278//278
f 215//215 278//278 214//214
f 214//214 278//278 279//279
f 214//214 279//279 213//213
f 213//213 279//279 280//280
f 213//213 280//280 212//212
f 212//212 280//280 281//281
f 212//212 281//281 211//211
f 211//211 281//281 282//282
f 211//211 282//282 210//210
f 210//210 282//282 283//283
f 210//210 283//283 208//208
f 208//208 283//283 284//284
f 208//208 284//284 209//209
f 209//209 284//284 285//285
f 209//209 285//285 247//247
f 247//247 285//285 286//286
f 247//247 286//286 246//246
f 246//246 286//286 248//248
f 286//286 287//287 248//248
f 248//248 287//287 288//288
f 248//248 288//288 249//249
f 249//249 288//288 289//289
f 249//249 289//289 250//250
f 250//250 289//289 290//290
f 250//250 290//290 251//251
f 251//251 290//290 291//291
f 251//251 291//291 252//252
f 252//252 291//291 292//292
f 252//252 292//292 253//253
f 253//253 292//292 293//293
f 253//253 293//293 254//254
f 254//254 293//293 294//294
f 254//254 294//294 255//255
f 255//255 294//294 295//295
f 255//255 295//295 256//256
f 256//256 295//295 296//296
f 256//256 296//296 257//257
f 257//257 296//296 297//297
f 257//257 297//297 258//258
f 258//258 297//297 298//298
f 258//258 298//298 259//259
f 259//259 298//298 299//299
f 259//259 299//299 260//260
f 260//260 299//299 300//300
f 260//260 300//300 261//261
f 261//261 300//300 301//301
f 261//261 301//301 262//262
f 262//262 301//301 302//302
f 262//262 302//302 263//263
f 263//263 302//302 303//303
f 263//263 303//303 264//264
f 264//264 303//303 304//304
f 264//264 304//304 265//265
f 265//265 304//304 305//305
f 265//265 305//305 266//266
f 266//266 305//305 306//306
f 266//266 306//306 267//267
f 267//267 306//306 307//307
f 267//267 307//307 268//268
f 268//268 307//307 308//308
f 268//268 308//308 269//269
f 269//269 308//308 309//309
f 269//269 309//309 270//270
f 270//270 309//309 310//310
f 270//270 310//310 271//271
f 271//271 310//310 311//311
f 271//271 311//311 272//272
f 272//272 311//311 312//312
f 272//272 312//312 273//273
f 273//273 312//312 313//313
f 273//273 313//313 274//274
f 274//274 313//313 314//314
f 274//274 314//314 275//275
f 275//275 314//314 315//315
f 275//275 315//315 276//276
f 276//276 315//315 316//316
f 276//276 316//316 277//277
f 277//277 316//316 317//317
f 277//277 317//317 278//278
f 278//278 317//317 318//318
f 278//278 318//318 279//279
f 279//279 318//318 319//319
f 279//279 319//319 280//280
f 280//280 319//319 320//320
f 280//280 320//320 281//281
f 281//281 320//320 321//321
f 281//281 321//321 282//282
f 282//282 321//321 322//322
f 282//282 322//322 283//283
f 283//283 322//322 323//323
f 283//283 323//323 284//284
f 284//284 323//323 324//324
f 284//284 324//324 285//285
f 285//285 324//324 325//325
f 285//285 325//325 286//286
f 286//286 325//325 287//287
f 325//325 326//326 287//287
f 287//287 326//326 327//327
f 287//287 327//327 288//288
f 288//288 327//327 328//328
f 288//288 328//328 289//289
f 289//289 328//328 329//329
f 289//289 329//329 290//290
f 290//290 329//329 330//330
f 290//290 330//330 291//291
f 291//291 330//330 331//331
f 291//291 331//331 292//292
f 292//292 331//331 332//332
f 292//292 332//332 293//293
f 293//293 332//332 333//333
f 293//293 333//333 294//294
f 294//294 333//333 334//334
f 294//294 334//334 295//295
f 295//295 334//334 335//335
f 295//295 335//335 296//296
f 296//296 335//335 336//336
f 296//296 336//336 297//297
f 297//297 336//336 337//337
f 297//297 337//337 298//298
f 298//298 337//337 338//338
f 298//298 338//338 299//299
f 299//299 338//338 339//339
f 299//299 339//339 300//300
f 300//300 339//339 340//340
f 300//300 340//340 301//301
f 301//301 340//340 341//341
f 301//301 341//341 302//302
f 302//302 341//341 342//342
f 302//302 342//342 303//303
f 303//303 342//342 343//343
f 303//303 343//343 304//304
f 304//304 343//343 344//344
f 304//304 344//344 305//305
f 305//305 344//344 345//345
f 305//305 345//345 306//306
f 306//306 345//345 346//346
f 306//306 346//346 307//307
f 307//307 346//346 347//347
f 307//307 347//347 308//308
f 308//308 347//347 348//348
f 308//308 348//348 309//309
f 309//309 348//348 349//349
f 309//309 349//349 310//310
f 310//310 349//349 350//350
f 310//310 350//350 311//311
f 311//311 350//350 351//351
f 311//311 351//351 312//312
f 312//312 351//351 352//352
f 312//312 352//352 313//313
f 313//313 352//352 353//353
f 313//313 353//353 314//314
f 314//314 353//353 354//354
f 314//314 354//354 315//315
f 315//315 354//354 355//355
f 315//315 355//355 316//316
f 316//316 355//355 356//356
f 316//316 356//356 317//317
f 317//317 356//356 357//357
f 317//317 357//357 318//318
f 318//318 357//357 358//358
f 318//318 358//358 319//319
f 319//319 358//358 359//359
f 319//319 359//359 320//320
f 320//320 359//359 360//360
f 320//320 360//360 321//321
f 321//321 360//360 361//361
f 321//321 361//361 322//322
f 322//322 361//361 362//362
f 322//322 362//362 323//323
f 323//323 362//362 363//363
f 323//323 363//363 324//324
f 324//324 363//363 364//364
f 324//324 364//364 325//325
f 325//325 364//364 326//326
f 364//364 365//365 326//326
f 326//326 365//365 366//366
f 326//326 366//366 327//327
f 327//327 366//366 367//367
f 327//327 367//367 328//328
f 328//328 367//367 368//368
f 328//328 368//368 329//329
f 329//329 368//368 369//369
f 329//329 369//369 330//330
f 330//330 369//369 370//370
f 330//330 370//370 331//331
f 331//331 370//370 371//371
f 331//331 371//371 332//332
f 332//332 371//371 372//372
f 332//332 372//372 333//333
f 333//333 372//372 373//373
f 333//333 373//373 334//334
f 334//334 373//373 374//374
f 334//334 374//374 335//335
f 335//335 374//374 375//375
f 335//335 375//375 336//336
f 336//336 375//375 376//376
f 336//336 376//376 337//337
f 337//337 376//376 377//377
f 337//337 377//377 338//338
f 338//338 377//377 378//378
f 338//338 378//378 339//339
f 339//339 378//378 379//379
f 339//339 379//379 340//340
f 340//340 379//379 380//380
f 340//340 380//380 341//341
f 341//341 380//380 381//381
f 341//341 381//381 342//342
f 342//342 381//381 382//382
f 342//342 382//382 343//343
f 343//343 382//382 383//383
f 343//343 383//383 344//344
f 344//344 383//383 384//384
f 344//344 384//384 345//345
f 345//345 384//384 385//385
f 345//345 385//385 346//346
f 346//346 385//385 386//386
f 346//346 386//386 347//347
f 347//347 386//386 387//387
f 347//347 387//387 348//348
f 348//348 387//387 388//388
f 348//348 388//388 349//349
f 349//349 388//388 389//389
f 349//349 389//389 350//350
f 350//350 389//389 390//390
f 350//350 390//390 351//351
f 351//351 390//390 391//391
f 351//351 391//391 352//352
f 352//352 391//391 392//392
f 352//352 392//392 353//353
f 353//353 392//392 393//393
f 353//353 393//393 354//354
f 354//354 393//393 394//394
f 354//354 394//394 355//355
f 355//355 394//394 395//395
f 355//355 395//395 356//356
f 356//356 395//395 396//396
f 356//356 396//396 357//357
f 357//357 396//396 397//397
f 357//357 397//397 358//358
f 358//358 397//397 398//398
f 358//358 398//398 359//359
f 359//359 398//398 399//399
f 359//359 399//399 360//360
f 360//360 399//399 400//400
f 360//360 400//400 361//361
f 361//361 400//400 401//401
f 361//361 401//401 362//362
f 362//362 401//401 402//402
f 362//362 402//402 363//363
f 363//363 402//402 403//403
f 363//363 403//403 364//364
f 364//364 403//403 365//365
f 403//403 196//196 365//365
f 365//365 196//196 201//201
f 365//365 201//201 366//366
f 366//366 201//201 200//200
f 366//366 200//200 367//367
f 367//367 200//200 203//203
f 367//367 203//203 368//368
f 368//368 203//203 202//202
f 368//368 202//202 369//369
f 369//369 202//202 207//207
f 369//369 207//207 370//370
f 370//370 207//207 206//206
f 370//370 206//206 371//371
f 371//371 206//206 205//205
f 371//371 205//205 372//372
f 372//372 205//205 204//204
f 372//372 204//204 373//373
f 373//373 204//204 176//176
f 373//373 176//176 374//374
f 374//374 176//176 178//178
f 374//374 178//178 375//375
f 375//375 178//178 177//177
f 375//375 177//177 376//376
f 376//376 177//177 185//185
f 376//376 185//185 377//377
f 377//377 185//185 184//184
f 377//377 184//184 378//378
f 378//378 184//184 183//183
f 378//378 183//183 379//379
f 379//379 183//183 181//181
f 379//379 181//181 380//380
f 380//380 181//181 180//180
f 380//380 180//180 381//381
f 381//381 180//180 179//179
f 381//381 179//179 382//382
f 382//382 179//179 168//168
f 382//382 168//168 383//383
f 383//383 168//168 170//170
f 383//383 170//170 384//384
f 384//384 170//170 169//169
f 384//384 169//169 385//385
f 385//385 169//169 173//173
f 385//385 173//173 386//386
f 386//386 173//173 172//172
f 386//386 172//172 387//387
f 387//387 172//172 171//171
f 387//387 171//171 388//388
f 388//388 171//171 175//175
f 388//388 175//175 389//389
f 389//389 175//175 174//174
f 389//389 174//174 390//390
f 390//390 174//174 188//188
f 390//390 188//188 391//391
f 391//391 188//188 187//187
f 391//391 187//187 392//392
f 392//392 187//187 186//186
f 392//392 186//186 393//393
f 393//393 186//186 182//182
f 393//393 182//182 394//394
f 394//394 182//182 191//191
f 394//394 191//191 395//395
f 395//395 191//191 190//190
f 395//395 190//190 396//396
f 396//396 190//190 189//189
f 396//396 189//189 397//397
f 397//397 189//189 195//195
f 397//397 195//195 398//398
f 398//398 195//195 194//194
f 398//398 194//194 399//399
f 399//399 194//194 193//193
f 399//399 193//193 400//400
f 400//400 193//193 192//192
f 400//400 192//192 401//401
f 401//401 192//192 199//199
f 401//401 199//199 402//402
f 402//402 199//199 198//198
f 402//402 198//198 403//403
f 403//403 198//198 196//196
f 2//2 404//404 48//48
f 48//48 404//404 405//405
f 48//48 405//405 34//34
f 406//406 1//1 407//407
f 407//407 1//1 32//32
f 407//407 32//32 31//31
f 408//408 405//405 409//409
f 409//409 405//405 404//404
f 408//408 409//409 410//410
f 411//411 412//412 413//413
f 413//413 412//412 414//414
f 415//415 416//416 417//417
f 417//417 416//416 414//414
f 417//417 414//414 418//418
f 418//418 414//414 412//412
f 415//415 419//419 416//416
f 416//416 419//419 420//420
f 416//416 420//420 421//421
f 420//420 422//422 421//421
f 421//421 422//422 423//423
f 421//421 423//423 424//424
f 425//425 426//426 427//427
f 423//423 428//428 424//424
f 424//424 428//428 429//429
f 424//424 429//429 427//427
f 427//427 429//429 430//430
f 427//427 430//430 425//425
f 431//431 432//432 433//433
f 433//433 432//432 434//434
f 431//431 433//433 435//435
f 435//435 433//433 436//436
f 435//435 436//436 437//437
f 438//438 439//439 436//436
f 436//436 439//439 440//440
f 436//436 440//440 437//437
f 441//441 442//442 443//443
f 443//443 442//442 444//444
f 443//443 444//444 438//438
f 438//438 444//444 445//445
f 438//438 445//445 439//439
f 441//441 443//443 446//446
f 446//446 443//443 447//447
f 446//446 447//447 448//448
f 448//448 447//447 449//449
f 449//449 447//447 450//450
f 449//449 450//450 451//451
f 451//451 450//450 452//452
f 452//452 450//450 453//453
f 452//452 453//453 454//454
f 455//455 456//456 453//453
f 453//453 456//456 457//457
f 453//453 457//457 454//454
f 458//458 459//459 455//455
f 455//455 459//459 460//460
f 455//455 460//460 456//456
f 461//461 462//462 458//458
f 458//458 462//462 463//463
f 458//458 463//463 459//459
f 464//464 465//465 461//461
f 461//461 465//465 466//466
f 461//461 466//466 462//462
f 430//430 467//467 425//425
f 425//425 467//467 468//468
f 425//425 468//468 464//464
f 464//464 468//468 469//469
f 464//464 469//469 465//465
f 470//470 471//471 410//410
f 410//410 471//471 472//472
f 410//410 472//472 408//408
f 408//408 472//472 473//473
f 408//408 473//473 413//413
f 413//413 473//473 474//474
f 413//413 474//474 411//411
f 475//475 476//476 477//477
f 477//477 476//476 478//478
f 477//477 478//478 470//470
f 470//470 478//478 479//479
f 470//470 479//479 471//471
f 475//475 477//477 480//480
f 480//480 477//477 481//481
f 480//480 481//481 482//482
f 482//482 481//481 483//483
f 483//483 481//481 484//484
f 483//483 484//484 485//485
f 485//485 484//484 486//486
f 486//486 484//484 487//487
f 486//486 487//487 488//488
f 488//488 487//487 489//489
f 489//489 487//487 490//490
f 489//489 490//490 491//491
f 491//491 490//490 492//492
f 492//492 490//490 493//493
f 492//492 493//493 494//494
f 495//495 496//496 493//493
f 493//493 496//496 497//497
f 493//493 497//497 494//494
f 498//498 499//499 495//495
f 495//495 499//499 500//500
f 495//495 500//500 496//496
f 501//501 502//502 503//503
f 503//503 502//502 504//504
f 503//503 504//504 498//498
f 498//498 504//504 505//505
f 498//498 505//505 499//499
f 501//501 503//503 506//506
f 506//506 503//503 507//507
f 506//506 507//507 508//508
f 508//508 507//507 509//509
f 509//509 507//507 510//510
f 509//509 510//510 511//511
f 432//432 512//512 434//434
f 434//434 512//512 513//513
f 434//434 513//513 510//510
f 510//510 513//513 514//514
f 510//510 514//514 511//511
f 407//407 427//427 406//406
f 406//406 427//427 426//426
f 427//427 407//407 424//424
f 424//424 407//407 31//31
f 405//405 408//408 34//34
f 34//34 408//408 413//413
f 413//413 414//414 34//34
f 34//34 414//414 416//416
f 34//34 416//416 31//31
f 31//31 416//416 421//421
f 31//31 421//421 424//424
f 470//470 410//410 507//507
f 1//1 406//406 426//426
f 404//404 2//2 409//409
f 409//409 2//2 1//1
f 464//464 461//461 409//409
f 443//443 410//410 447//447
f 447//447 410//410 450//450
f 1//1 426//426 409//409
f 409//409 426//426 425//425
f 409//409 425//425 464//464
f 461//461 458//458 409//409
f 409//409 458//458 455//455
f 409//409 455//455 410//410
f 410//410 455//455 453//453
f 410//410 453//453 450//450
f 443//443 438//438 410//410
f 410//410 438//438 436//436
f 410//410 436//436 433//433
f 433//433 434//434 410//410
f 410//410 434//434 510//510
f 410//410 510//510 507//507
f 507//507 503//503 470//470
f 470//470 503//503 498//498
f 470//470 498//498 477//477
f 477//477 498//498 481//481
f 493//493 490//490 495//495
f 495//495 490//490 487//487
f 495//495 487//487 498//498
f 498//498 487//487 484//484
f 498//498 484//484 481//481
f 515//515 516//516 517//517
f 518//518 519//519 517//517
f 517//517 519//519 520//520
f 517//517 520//520 515//515
f 521//521 522//522 517//517
f 517//517 522//522 523//523
f 517//517 523//523 518//518
f 524//524 525//525 517//517
f 517//517 525//525 526//526
f 517//517 526//526 521//521
f 527//527 528//528 517//517
f 517//517 528//528 529//529
f 517//517 529//529 524//524
f 530//530 531//531 517//517
f 517//517 531//531 532//532
f 517//517 532//532 527//527
f 533//533 534//534 517//517
f 517//517 534//534 535//535
f 517//517 535//535 530//530
f 536//536 537//537 517//517
f 517//517 537//537 538//538
f 517//517 538//538 533//533
f 539//539 540//540 517//517
f 517//517 540//540 541//541
f 517//517 541//541 536//536
f 542//542 543//543 517//517
f 517//517 543//543 544//544
f 517//517 544//544 539//539
f 545//545 546//546 517//517
f 517//517 546//546 547//547
f 517//517 547//547 542//542
f 548//548 549//549 517//517
f 517//517 549//549 550//550
f 517//517 550//550 545//545
f 551//551 552//552 517//517
f 517//517 552//552 553//553
f 517//517 553//553 548//548
f 554//554 555//555 517//517
f 517//517 555//555 556//556
f 517//517 556//556 551//551
f 516//516 557//557 517//517
f 517//517 557//557 558//558
f 517//517 558//558 554//554
f 418//418 412//412 559//559
f 474//474 473//473 560//560
f 472//472 471//471 561//561
f 479//479 478//478 562//562
f 475//475 480//480 563//563
f 488//488 489//489 564//564
f 491//491 492//492 565//565
f 497//497 496//496 566//566
f 505//505 504//504 567//567
f 501//501 506//506 568//568
f 508//508 509//509 569//569
f 514//514 513//513 570//570
f 431//431 435//435 571//571
f 440//440 439//439 572//572
f 441//441 446//446 573//573
f 448//448 449//449 574//574
f 451//451 452//452 575//575
f 457//457 456//456 576//576
f 466//466 465//465 577//577
f 469//469 468//468 578//578
f 430//430 429//429 579//579
f 580//580 518//518 523//523
f 519//519 518//518 581//581
f 581//581 518//518 580//580
f 581//581 580//580 582//582
f 520//520 519//519 583//583
f 583//583 519//519 581//581
f 583//583 581//581 584//584
f 584//584 581//581 582//582
f 584//584 582//582 585//585
f 515//515 520//520 586//586
f 586//586 520//520 583//583
f 586//586 583//583 587//587
f 587//587 583//583 584//584
f 587//587 584//584 588//588
f 588//588 584//584 585//585
f 588//588 585//585 589//589
f 516//516 515//515 590//590
f 590//590 515//515 586//586
f 590//590 586//586 591//591
f 591//591 586//586 587//587
f 591//591 587//587 592//592
f 592//592 587//587 588//588
f 592//592 588//588 593//593
f 593//593 588//588 589//589
f 593//593 589//589 559//559
f 594//594 595//595 596//596
f 597//597 595//595 598//598
f 598//598 595//595 594//594
f 598//598 594//594 599//599
f 579//579 600//600 601//601
f 601//601 600//600 602//602
f 601//601 602//602 603//603
f 603//603 602//602 604//604
f 603//603 604//604 605//605
f 605//605 604//604 606//606
f 605//605 606//606 607//607
f 529//529 528//528 608//608
f 608//608 528//528 609//609
f 608//608 609//609 610//610
f 610//610 609//609 611//611
f 610//610 611//611 612//612
f 612//612 611//611 613//613
f 612//612 613//613 614//614
f 614//614 613//613 615//615
f 614//614 615//615 616//616
f 616//616 615//615 576//576
f 534//534 533//533 617//617
f 617//617 533//533 618//618
f 617//617 618//618 619//619
f 619//619 618//618 620//620
f 619//619 620//620 621//621
f 621//621 620//620 622//622
f 621//621 622//622 623//623
f 623//623 622//622 624//624
f 623//623 624//624 625//625
f 625//625 624//624 572//572
f 536//536 541//541 626//626
f 626//626 541//541 627//627
f 626//626 627//627 628//628
f 628//628 627//627 629//629
f 628//628 629//629 630//630
f 630//630 629//629 631//631
f 630//630 631//631 632//632
f 632//632 631//631 633//633
f 632//632 633//633 634//634
f 634//634 633//633 570//570
f 547//547 546//546 635//635
f 635//635 546//546 636//636
f 635//635 636//636 637//637
f 637//637 636//636 638//638
f 637//637 638//638 639//639
f 639//639 638//638 640//640
f 639//639 640//640 641//641
f 641//641 640//640 642//642
f 641//641 642//642 643//643
f 643//643 642//642 566//566
f 552//552 551//551 644//644
f 644//644 551//551 645//645
f 644//644 645//645 646//646
f 646//646 645//645 647//647
f 646//646 647//647 648//648
f 648//648 647//647 649//649
f 648//648 649//649 650//650
f 650//650 649//649 651//651
f 650//650 651//651 652//652
f 652//652 651//651 563//563
f 422//422 420//420 597//597
f 597//597 420//420 419//419
f 597//597 419//419 595//595
f 595//595 419//419 415//415
f 595//595 415//415 596//596
f 596//596 415//415 417//417
f 423//423 422//422 600//600
f 600//600 422//422 597//597
f 600//600 597//597 602//602
f 602//602 597//597 598//598
f 602//602 598//598 604//604
f 604//604 598//598 599//599
f 604//604 599//599 606//606
f 579//579 429//429 600//600
f 600//600 429//429 428//428
f 600//600 428//428 423//423
f 467//467 430//430 653//653
f 653//653 430//430 579//579
f 653//653 579//579 654//654
f 654//654 579//579 601//601
f 654//654 601//601 655//655
f 655//655 601//601 603//603
f 655//655 603//603 656//656
f 656//656 603//603 605//605
f 656//656 605//605 657//657
f 657//657 605//605 607//607
f 657//657 607//607 522//522
f 522//522 607//607 523//523
f 522//522 521//521 657//657
f 657//657 521//521 658//658
f 657//657 658//658 656//656
f 656//656 658//658 659//659
f 656//656 659//659 655//655
f 655//655 659//659 660//660
f 655//655 660//660 654//654
f 654//654 660//660 661//661
f 654//654 661//661 653//653
f 653//653 661//661 578//578
f 653//653 578//578 467//467
f 467//467 578//578 468//468
f 465//465 469//469 577//577
f 577//577 469//469 578//578
f 577//577 578//578 662//662
f 662//662 578//578 661//661
f 662//662 661//661 663//663
f 663//663 661//661 660//660
f 663//663 660//660 664//664
f 664//664 660//660 659//659
f 664//664 659//659 665//665
f 665//665 659//659 658//658
f 665//665 658//658 526//526
f 526//526 658//658 521//521
f 462//462 466//466 666//666
f 666//666 466//466 577//577
f 666//666 577//577 667//667
f 667//667 577//577 662//662
f 667//667 662//662 668//668
f 668//668 662//662 663//663
f 668//668 663//663 669//669
f 669//669 663//663 664//664
f 669//669 664//664 670//670
f 670//670 664//664 665//665
f 670//670 665//665 525//525
f 525//525 665//665 526//526
f 525//525 524//524 670//670
f 670//670 524//524 671//671
f 670//670 671//671 669//669
f 669//669 671//671 672//672
f 669//669 672//672 668//668
f 668//668 672//672 673//673
f 668//668 673//673 667//667
f 667//667 673//673 674//674
f 667//667 674//674 666//666
f 666//666 674//674 675//675
f 666//666 675//675 462//462
f 462//462 675//675 463//463
f 524//524 529//529 671//671
f 671//671 529//529 608//608
f 671//671 608//608 672//672
f 672//672 608//608 610//610
f 672//672 610//610 673//673
f 673//673 610//610 612//612
f 673//673 612//612 674//674
f 674//674 612//612 614//614
f 674//674 614//614 675//675
f 675//675 614//614 616//616
f 675//675 616//616 463//463
f 463//463 616//616 459//459
f 576//576 456//456 616//616
f 616//616 456//456 460//460
f 616//616 460//460 459//459
f 454//454 457//457 676//676
f 676//676 457//457 576//576
f 676//676 576//576 677//677
f 677//677 576//576 615//615
f 677//677 615//615 678//678
f 678//678 615//615 613//613
f 678//678 613//613 679//679
f 679//679 613//613 611//611
f 679//679 611//611 680//680
f 680//680 611//611 609//609
f 680//680 609//609 527//527
f 527//527 609//609 528//528
f 527//527 532//532 680//680
f 680//680 532//532 681//681
f 680//680 681//681 679//679
f 679//679 681//681 682//682
f 679//679 682//682 678//678
f 678//678 682//682 683//683
f 678//678 683//683 677//677
f 677//677 683//683 684//684
f 677//677 684//684 676//676
f 676//676 684//684 575//575
f 676//676 575//575 454//454
f 454//454 575//575 452//452
f 449//449 451//451 574//574
f 574//574 451//451 575//575
f 574//574 575//575 685//685
f 685//685 575//575 684//684
f 685//685 684//684 686//686
f 686//686 684//684 683//683
f 686//686 683//683 687//687
f 687//687 683//683 682//682
f 687//687 682//682 688//688
f 688//688 682//682 681//681
f 688//688 681//681 531//531
f 531//531 681//681 532//532
f 446//446 448//448 573//573
f 573//573 448//448 574//574
f 573//573 574//574 689//689
f 689//689 574//574 685//685
f 689//689 685//685 690//690
f 690//690 685//685 686//686
f 690//690 686//686 691//691
f 691//691 686//686 687//687
f 691//691 687//687 692//692
f 692//692 687//687 688//688
f 692//692 688//688 530//530
f 530//530 688//688 531//531
f 442//442 441//441 693//693
f 693//693 441//441 573//573
f 693//693 573//573 694//694
f 694//694 573//573 689//689
f 694//694 689//689 695//695
f 695//695 689//689 690//690
f 695//695 690//690 696//696
f 696//696 690//690 691//691
f 696//696 691//691 697//697
f 697//697 691//691 692//692
f 697//697 692//692 535//535
f 535//535 692//692 530//530
f 535//535 534//534 697//697
f 697//697 534//534 617//617
f 697//697 617//617 696//696
f 696//696 617//617 619//619
f 696//696 619//619 695//695
f 695//695 619//619 621//621
f 695//695 621//621 694//694
f 694//694 621//621 623//623
f 694//694 623//623 693//693
f 693//693 623//623 625//625
f 693//693 625//625 442//442
f 442//442 625//625 444//444
f 572//572 439//439 625//625
f 625//625 439//439 445//445
f 625//625 445//445 444//444
f 437//437 440//440 698//698
f 698//698 440//440 572//572
f 698//698 572//572 699//699
f 699//699 572//572 624//624
f 699//699 624//624 700//700
f 700//700 624//624 622//622
f 700//700 622//622 701//701
f 701//701 622//622 620//620
f 701//701 620//620 702//702
f 702//702 620//620 618//618
f 702//702 618//618 538//538
f 538//538 618//618 533//533
f 538//538 537//537 702//702
f 702//702 537//537 703//703
f 702//702 703//703 701//701
f 701//701 703//703 704//704
f 701//701 704//704 700//700
f 700//700 704//704 705//705
f 700//700 705//705 699//699
f 699//699 705//705 706//706
f 699//699 706//706 698//698
f 698//698 706//706 571//571
f 698//698 571//571 437//437
f 437//437 571//571 435//435
f 432//432 431//431 634//634
f 634//634 431//431 571//571
f 634//634 571//571 632//632
f 632//632 571//571 706//706
f 632//632 706//706 630//630
f 630//630 706//706 705//705
f 630//630 705//705 628//628
f 628//628 705//705 704//704
f 628//628 704//704 626//626
f 626//626 704//704 703//703
f 626//626 703//703 536//536
f 536//536 703//703 537//537
f 570//570 513//513 634//634
f 634//634 513//513 512//512
f 634//634 512//512 432//432
f 511//511 514//514 707//707
f 707//707 514//514 570//570
f 707//707 570//570 708//708
f 708//708 570//570 633//633
f 708//708 633//633 709//709
f 709//709 633//633 631//631
f 709//709 631//631 710//710
f 710//710 631//631 629//629
f 710//710 629//629 711//711
f 711//711 629//629 627//627
f 711//711 627//627 540//540
f 540//540 627//627 541//541
f 540//540 539//539 711//711
f 711//711 539//539 712//712
f 711//711 712//712 710//710
f 710//710 712//712 713//713
f 710//710 713//713 709//709
f 709//709 713//713 714//714
f 709//709 714//714 708//708
f 708//708 714//714 715//715
f 708//708 715//715 707//707
f 707//707 715//715 569//569
f 707//707 569//569 511//511
f 511//511 569//569 509//509
f 506//506 508//508 568//568
f 568//568 508//508 569//569
f 568//568 569//569 716//716
f 716//716 569//569 715//715
f 716//716 715//715 717//717
f 717//717 715//715 714//714
f 717//717 714//714 718//718
f 718//718 714//714 713//713
f 718//718 713//713 719//719
f 719//719 713//713 712//712
f 719//719 712//712 544//544
f 544//544 712//712 539//539
f 502//502 501//501 720//720
f 720//720 501//501 568//568
f 720//720 568//568 721//721
f 721//721 568//568 716//716
f 721//721 716//716 722//722
f 722//722 716//716 717//717
f 722//722 717//717 723//723
f 723//723 717//717 718//718
f 723//723 718//718 724//724
f 724//724 718//718 719//719
f 724//724 719//719 543//543
f 543//543 719//719 544//544
f 543//543 542//542 724//724
f 724//724 542//542 725//725
f 724//724 725//725 723//723
f 723//723 725//725 726//726
f 723//723 726//726 722//722
f 722//722 726//726 727//727
f 722//722 727//727 721//721
f 721//721 727//727 728//728
f 721//721 728//728 720//720
f 720//720 728//728 567//567
f 720//720 567//567 502//502
f 502//502 567//567 504//504
f 499//499 505//505 643//643
f 643//643 505//505 567//567
f 643//643 567//567 641//641
f 641//641 567//567 728//728
f 641//641 728//728 639//639
f 639//639 728//728 727//727
f 639//639 727//727 637//637
f 637//637 727//727 726//726
f 637//637 726//726 635//635
f 635//635 726//726 725//725
f 635//635 725//725 547//547
f 547//547 725//725 542//542
f 566//566 496//496 643//643
f 643//643 496//496 500//500
f 643//643 500//500 499//499
f 494//494 497//497 729//729
f 729//729 497//497 566//566
f 729//729 566//566 730//730
f 730//730 566//566 642//642
f 730//730 642//642 731//731
f 731//731 642//642 640//640
f 731//731 640//640 732//732
f 732//732 640//640 638//638
f 732//732 638//638 733//733
f 733//733 638//638 636//636
f 733//733 636//636 545//545
f 545//545 636//636 546//546
f 545//545 550//550 733//733
f 733//733 550//550 734//734
f 733//733 734//734 732//732
f 732//732 734//734 735//735
f 732//732 735//735 731//731
f 731//731 735//735 736//736
f 731//731 736//736 730//730
f 730//730 736//736 737//737
f 730//730 737//737 729//729
f 729//729 737//737 565//565
f 729//729 565//565 494//494
f 494//494 565//565 492//492
f 489//489 491//491 564//564
f 564//564 491//491 565//565
f 564//564 565//565 738//738
f 738//738 565//565 737//737
f 738//738 737//737 739//739
f 739//739 737//737 736//736
f 739//739 736//736 740//740
f 740//740 736//736 735//735
f 740//740 735//735 741//741
f 741//741 735//735 734//734
f 741//741 734//734 549//549
f 549//549 734//734 550//550
f 486//486 488//488 742//742
f 742//742 488//488 564//564
f 742//742 564//564 743//743
f 743//743 564//564 738//738
f 743//743 738//738 744//744
f 744//744 738//738 739//739
f 744//744 739//739 745//745
f 745//745 739//739 740//740
f 745//745 740//740 746//746
f 746//746 740//740 741//741
f 746//746 741//741 548//548
f 548//548 741//741 549//549
f 548//548 553//553 746//746
f 746//746 553//553 747//747
f 746//746 747//747 745//745
f 745//745 747//747 748//748
f 745//745 748//748 744//744
f 744//744 748//748 749//749
f 744//744 749//749 743//743
f 743//743 749//749 750//750
f 743//743 750//750 742//742
f 742//742 750//750 751//751
f 742//742 751//751 486//486
f 486//486 751//751 485//485
f 553//553 552//552 747//747
f 747//747 552//552 644//644
f 747//747 644//644 748//748
f 748//748 644//644 646//646
f 748//748 646//646 749//749
f 749//749 646//646 648//648
f 749//749 648//648 750//750
f 750//750 648//648 650//650
f 750//750 650//650 751//751
f 751//751 650//650 652//652
f 751//751 652//652 485//485
f 485//485 652//652 483//483
f 563//563 480//480 652//652
f 652//652 480//480 482//482
f 652//652 482//482 483//483
f 476//476 475//475 752//752
f 752//752 475//475 563//563
f 752//752 563//563 753//753
f 753//753 563//563 651//651
f 753//753 651//651 754//754
f 754//754 651//651 649//649
f 754//754 649//649 755//755
f 755//755 649//649 647//647
f 755//755 647//647 756//756
f 756//756 647//647 645//645
f 756//756 645//645 556//556
f 556//556 645//645 551//551
f 556//556 555//555 756//756
f 756//756 555//555 757//757
f 756//756 757//757 755//755
f 755//755 757//757 758//758
f 755//755 758//758 754//754
f 754//754 758//758 759//759
f 754//754 759//759 753//753
f 753//753 759//759 760//760
f 753//753 760//760 752//752
f 752//752 760//760 562//562
f 752//752 562//562 476//476
f 476//476 562//562 478//478
f 471//471 479//479 561//561
f 561//561 479//479 562//562
f 561//561 562//562 761//761
f 761//761 562//562 760//760
f 761//761 760//760 762//762
f 762//762 760//760 759//759
f 762//762 759//759 763//763
f 763//763 759//759 758//758
f 763//763 758//758 764//764
f 764//764 758//758 757//757
f 764//764 757//757 554//554
f 554//554 757//757 555//555
f 473//473 472//472 560//560
f 560//560 472//472 561//561
f 560//560 561//561 765//765
f 765//765 561//561 761//761
f 765//765 761//761 766//766
f 766//766 761//761 762//762
f 766//766 762//762 767//767
f 767//767 762//762 763//763
f 767//767 763//763 768//768
f 768//768 763//763 764//764
f 768//768 764//764 558//558
f 558//558 764//764 554//554
f 411//411 474//474 769//769
f 769//769 474//474 560//560
f 769//769 560//560 770//770
f 770//770 560//560 765//765
f 770//770 765//765 771//771
f 771//771 765//765 766//766
f 771//771 766//766 772//772
f 772//772 766//766 767//767
f 772//772 767//767 773//773
f 773//773 767//767 768//768
f 773//773 768//768 557//557
f 557//557 768//768 558//558
f 557//557 516//516 773//773
f 773//773 516//516 590//590
f 773//773 590//590 772//772
f 772//772 590//590 591//591
f 772//772 591//591 771//771
f 771//771 591//591 592//592
f 771//771 592//592 770//770
f 770//770 592//592 593//593
f 770//770 593//593 769//769
f 769//769 593//593 559//559
f 769//769 559//559 411//411
f 411//411 559//559 412//412
f 523//523 607//607 580//580
f 580//580 607//607 606//606
f 580//580 606//606 582//582
f 582//582 606//606 599//599
f 582//582 599//599 585//585
f 585//585 599//599 594//594
f 585//585 594//594 589//589
f 589//589 594//594 596//596
f 589//589 596//596 559//559
f 559//559 596//596 417//417
f 559//559 417//417 418//418
# 1534 faces, 0 coords texture

# End of File
