####
#
# OBJ File Generated by Meshlab
#
####
# Object link2.obj
#
# Vertices: 476
# Faces: 948
#
####
vn 0.286785 -0.488182 -6.217153
v 0.331500 -0.014000 -0.026000
vn 0.286784 0.488183 -6.217162
v 0.331500 0.014000 -0.026000
vn 0.976889 -0.487058 -6.133862
v 0.336277 -0.014000 -0.025557
vn 0.976890 0.487057 -6.133862
v 0.336277 0.014000 -0.025557
vn 1.657731 -0.585460 -5.979284
v 0.338229 -0.014000 -0.025114
vn 1.712684 0.706496 -5.932384
v 0.338229 0.014000 -0.025114
vn 2.310250 -0.487193 -5.765499
v 0.340892 -0.014000 -0.024244
vn 2.265584 0.522308 -5.773436
v 0.340892 0.014000 -0.024244
vn 2.929106 -0.535871 -5.481327
v 0.344500 -0.014000 -0.022517
vn 2.929106 0.535871 -5.481327
v 0.344500 0.014000 -0.022517
vn 3.474435 -0.487768 -5.157922
v 0.345187 -0.014000 -0.022106
vn 3.474438 0.487772 -5.157919
v 0.345187 0.014000 -0.022106
vn 4.026822 -0.487569 -4.735943
v 0.349016 -0.014000 -0.019214
vn 4.026818 0.487572 -4.735945
v 0.349016 0.014000 -0.019214
vn 4.500981 -0.557648 -4.279281
v 0.349885 -0.014000 -0.018385
vn 4.517809 0.606912 -4.244771
v 0.349885 0.014000 -0.018385
vn 4.957926 -0.515313 -3.729353
v 0.352248 -0.014000 -0.015669
vn 4.921776 0.508279 -3.780002
v 0.352248 0.014000 -0.015669
vn 5.278309 -0.655679 -3.228820
v 0.354017 -0.014000 -0.013000
vn 5.321550 0.574679 -3.195142
v 0.354017 0.014000 -0.013000
vn 5.644845 -0.487290 -2.597671
v 0.354774 -0.014000 -0.011589
vn 5.644848 0.487296 -2.597664
v 0.354774 0.014000 -0.011589
vn 5.906675 -0.488005 -1.953765
v 0.356507 -0.014000 -0.007115
vn 5.906671 0.488011 -1.953772
v 0.356507 0.014000 -0.007115
vn 6.066781 -0.511808 -1.369566
v 0.356614 -0.014000 -0.006729
vn 6.066782 0.511808 -1.369566
v 0.356614 0.014000 -0.006729
vn 6.167229 -0.529350 -0.637455
v 0.357389 -0.014000 -0.002399
vn 6.172514 0.487166 -0.691664
v 0.357389 0.014000 -0.002399
vn 6.160061 -0.758354 -0.078938
v 0.357500 -0.014000 -0.000000
vn 6.204039 0.589179 -0.000000
v 0.357500 0.014000 -0.000000
vn 6.172514 -0.487166 0.691664
v 0.357389 -0.014000 0.002399
vn 6.172515 0.487166 0.691664
v 0.357389 0.014000 0.002399
vn 6.066781 -0.511808 1.369566
v 0.356614 -0.014000 0.006729
vn 6.066781 0.511808 1.369566
v 0.356614 0.014000 0.006729
vn 5.906671 -0.488011 1.953772
v 0.356507 -0.014000 0.007115
vn 5.906675 0.488005 1.953765
v 0.356507 0.014000 0.007115
vn 5.644848 -0.487296 2.597664
v 0.354774 -0.014000 0.011589
vn 5.644845 0.487290 2.597671
v 0.354774 0.014000 0.011589
vn 5.321551 -0.574679 3.195142
v 0.354017 -0.014000 0.013000
vn 5.278309 0.655679 3.228820
v 0.354017 0.014000 0.013000
vn 4.921776 -0.508279 3.780002
v 0.352248 -0.014000 0.015669
vn 4.957926 0.515313 3.729353
v 0.352248 0.014000 0.015669
vn 4.517809 -0.606912 4.244771
v 0.349885 -0.014000 0.018385
vn 4.500981 0.557648 4.279282
v 0.349885 0.014000 0.018385
vn 4.026818 -0.487572 4.735945
v 0.349016 -0.014000 0.019214
vn 4.026822 0.487569 4.735942
v 0.349016 0.014000 0.019214
vn 3.474438 -0.487772 5.157919
v 0.345187 -0.014000 0.022106
vn 3.474435 0.487768 5.157922
v 0.345187 0.014000 0.022106
vn 2.929106 -0.535871 5.481327
v 0.344500 -0.014000 0.022517
vn 2.929106 0.535871 5.481328
v 0.344500 0.014000 0.022517
vn 2.265584 -0.522308 5.773436
v 0.340892 -0.014000 0.024244
vn 2.310250 0.487193 5.765499
v 0.340892 0.014000 0.024244
vn 1.712684 -0.706496 5.932384
v 0.338229 -0.014000 0.025114
vn 1.657731 0.585460 5.979284
v 0.338229 0.014000 0.025114
vn 0.976890 -0.487057 6.133862
v 0.336277 -0.014000 0.025557
vn 0.976889 0.487058 6.133862
v 0.336277 0.014000 0.025557
vn 0.286784 -0.488183 6.217162
v 0.331500 -0.014000 0.026000
vn 0.286785 0.488182 6.217153
v 0.331500 0.014000 0.026000
vn -0.286785 -0.488184 -6.217162
v 0.000000 -0.014000 -0.026000
vn -0.286785 0.488182 -6.217153
v 0.000000 0.014000 -0.026000
vn -0.286785 -0.488182 6.217153
v 0.000000 -0.014000 0.026000
vn -0.286785 0.488184 6.217162
v 0.000000 0.014000 0.026000
vn -0.976890 -0.487061 6.133862
v -0.004777 -0.014000 0.025557
vn -0.976891 0.487061 6.133862
v -0.004777 0.014000 0.025557
vn -1.657731 -0.585466 5.979282
v -0.006729 -0.014000 0.025114
vn -1.712684 0.706502 5.932382
v -0.006729 0.014000 0.025114
vn -2.310254 -0.487201 5.765495
v -0.009392 -0.014000 0.024244
vn -2.265589 0.522316 5.773431
v -0.009392 0.014000 0.024244
vn -2.929109 -0.535872 5.481326
v -0.013000 -0.014000 0.022517
vn -2.929109 0.535872 5.481326
v -0.013000 0.014000 0.022517
vn -3.474436 -0.487768 5.157922
v -0.013687 -0.014000 0.022106
vn -3.474437 0.487770 5.157920
v -0.013687 0.014000 0.022106
vn -4.026804 -0.487555 4.735966
v -0.017516 -0.014000 0.019214
vn -4.026801 0.487556 4.735966
v -0.017516 0.014000 0.019214
vn -4.500969 -0.557640 4.279291
v -0.018385 -0.014000 0.018385
vn -4.517798 0.606910 4.244775
v -0.018385 0.014000 0.018385
vn -4.957933 -0.515300 3.729352
v -0.020748 -0.014000 0.015669
vn -4.921776 0.508263 3.780010
v -0.020748 0.014000 0.015669
vn -5.278295 -0.655705 3.228828
v -0.022517 -0.014000 0.013000
vn -5.321547 0.574688 3.195143
v -0.022517 0.014000 0.013000
vn -5.644845 -0.487311 2.597660
v -0.023274 -0.014000 0.011589
vn -5.644846 0.487312 2.597661
v -0.023274 0.014000 0.011589
vn -5.906680 -0.487987 1.953765
v -0.025007 -0.014000 0.007115
vn -5.906679 0.487988 1.953766
v -0.025007 0.014000 0.007115
vn -6.066784 -0.511788 1.369574
v -0.025114 -0.014000 0.006729
vn -6.066784 0.511788 1.369574
v -0.025114 0.014000 0.006729
vn -6.167227 -0.529344 0.637453
v -0.025889 -0.014000 0.002399
vn -6.172512 0.487166 0.691655
v -0.025889 0.014000 0.002399
vn -6.160075 -0.758320 0.078927
v -0.026000 -0.014000 0.000000
vn -6.204046 0.589166 0.000000
v -0.026000 0.014000 0.000000
vn -6.172512 -0.487166 -0.691655
v -0.025889 -0.014000 -0.002399
vn -6.172513 0.487166 -0.691655
v -0.025889 0.014000 -0.002399
vn -6.066785 -0.511788 -1.369574
v -0.025114 -0.014000 -0.006729
vn -6.066784 0.511788 -1.369574
v -0.025114 0.014000 -0.006729
vn -5.906679 -0.487988 -1.953766
v -0.025007 -0.014000 -0.007115
vn -5.906680 0.487987 -1.953765
v -0.025007 0.014000 -0.007115
vn -5.644846 -0.487312 -2.597660
v -0.023274 -0.014000 -0.011589
vn -5.644845 0.487311 -2.597661
v -0.023274 0.014000 -0.011589
vn -5.321547 -0.574688 -3.195143
v -0.022517 -0.014000 -0.013000
vn -5.278295 0.655705 -3.228828
v -0.022517 0.014000 -0.013000
vn -4.921776 -0.508263 -3.780010
v -0.020748 -0.014000 -0.015669
vn -4.957933 0.515300 -3.729352
v -0.020748 0.014000 -0.015669
vn -4.517798 -0.606910 -4.244775
v -0.018385 -0.014000 -0.018385
vn -4.500969 0.557640 -4.279291
v -0.018385 0.014000 -0.018385
vn -4.026802 -0.487557 -4.735966
v -0.017516 -0.014000 -0.019214
vn -4.026803 0.487555 -4.735966
v -0.017516 0.014000 -0.019214
vn -3.474437 -0.487770 -5.157920
v -0.013687 -0.014000 -0.022106
vn -3.474436 0.487769 -5.157922
v -0.013687 0.014000 -0.022106
vn -2.929109 -0.535872 -5.481326
v -0.013000 -0.014000 -0.022517
vn -2.929109 0.535872 -5.481326
v -0.013000 0.014000 -0.022517
vn -2.265589 -0.522316 -5.773431
v -0.009392 -0.014000 -0.024244
vn -2.310254 0.487201 -5.765495
v -0.009392 0.014000 -0.024244
vn -1.712684 -0.706502 -5.932382
v -0.006729 -0.014000 -0.025114
vn -1.657731 0.585466 -5.979282
v -0.006729 0.014000 -0.025114
vn -0.976891 -0.487061 -6.133861
v -0.004777 -0.014000 -0.025557
vn -0.976890 0.487061 -6.133861
v -0.004777 0.014000 -0.025557
vn -0.024090 6.242081 -0.505703
v 0.000000 0.020000 -0.020000
vn -0.024090 6.242067 0.505702
v 0.000000 0.020000 0.020000
vn 0.024090 6.242070 -0.505702
v 0.331500 0.020000 -0.020000
vn 0.024090 6.242081 0.505703
v 0.331500 0.020000 0.020000
vn -0.095541 6.239633 -0.511098
v -0.003675 0.020000 -0.019659
vn -0.187828 6.239634 -0.484839
v -0.007225 0.020000 -0.018649
vn -0.273718 6.239634 -0.442069
v -0.010529 0.020000 -0.017004
vn -0.465441 6.239634 -0.231762
v -0.017903 0.020000 -0.008915
vn -0.500102 6.239634 -0.142291
v -0.019237 0.020000 -0.005473
vn -0.517732 6.239634 -0.047975
v -0.019915 0.020000 -0.001845
vn -0.350288 6.239632 0.384248
v -0.013474 0.020000 0.014780
vn -0.414932 6.239633 0.313341
v -0.015960 0.020000 0.012053
vn -0.465441 6.239633 0.231763
v -0.017903 0.020000 0.008915
vn 0.095541 6.239634 0.511098
v 0.335175 0.020000 0.019659
vn 0.187828 6.239634 0.484840
v 0.338725 0.020000 0.018649
vn 0.273719 6.239633 0.442071
v 0.342029 0.020000 0.017004
vn 0.350288 6.239634 0.384248
v 0.344974 0.020000 0.014780
vn 0.414932 6.239633 0.313341
v 0.347460 0.020000 0.012053
vn 0.465441 6.239634 0.231762
v 0.349403 0.020000 0.008915
vn 0.273719 6.239632 -0.442071
v 0.342029 0.020000 -0.017004
vn 0.500106 6.239633 0.142293
v 0.350737 0.020000 0.005473
vn 0.187828 6.239634 -0.484840
v 0.338725 0.020000 -0.018649
vn 0.095541 6.239633 -0.511098
v 0.335175 0.020000 -0.019659
vn -0.350288 6.239634 -0.384248
v -0.013474 0.020000 -0.014780
vn -0.414931 6.239633 -0.313342
v -0.015960 0.020000 -0.012053
vn -0.517732 6.239634 0.047975
v -0.019915 0.020000 0.001845
vn -0.500102 6.239634 0.142292
v -0.019237 0.020000 0.005473
vn -0.273718 6.239635 0.442070
v -0.010529 0.020000 0.017004
vn -0.187828 6.239634 0.484840
v -0.007225 0.020000 0.018649
vn -0.095541 6.239633 0.511098
v -0.003675 0.020000 0.019659
vn 0.517732 6.239634 0.047974
v 0.351415 0.020000 0.001845
vn 0.517732 6.239634 -0.047974
v 0.351415 0.020000 -0.001845
vn 0.500106 6.239633 -0.142292
v 0.350737 0.020000 -0.005473
vn 0.465440 6.239634 -0.231762
v 0.349403 0.020000 -0.008915
vn 0.414933 6.239634 -0.313341
v 0.347460 0.020000 -0.012053
vn 0.350288 6.239634 -0.384248
v 0.344974 0.020000 -0.014780
vn 0.187828 -6.239634 0.484840
v 0.338725 -0.020000 0.018649
vn 0.095541 -6.239632 0.511098
v 0.335175 -0.020000 0.019659
vn 0.273719 -6.239635 -0.442071
v 0.342029 -0.020000 -0.017004
vn 0.187828 -6.239634 -0.484840
v 0.338725 -0.020000 -0.018649
vn -0.187828 -6.239633 0.484839
v -0.007225 -0.020000 0.018649
vn -0.273718 -6.239634 0.442069
v -0.010529 -0.020000 0.017004
vn -0.350288 -6.239632 0.384248
v -0.013474 -0.020000 0.014780
vn -0.465441 -6.239634 -0.231763
v -0.017903 -0.020000 -0.008915
vn -0.414932 -6.239633 -0.313341
v -0.015960 -0.020000 -0.012053
vn -0.024090 -6.242078 0.505703
v 0.000000 -0.020000 0.020000
vn -0.414931 -6.239633 0.313342
v -0.015960 -0.020000 0.012053
vn -0.465441 -6.239633 0.231762
v -0.017903 -0.020000 0.008915
vn -0.500102 -6.239634 0.142291
v -0.019237 -0.020000 0.005473
vn -0.517732 -6.239634 0.047975
v -0.019915 -0.020000 0.001845
vn -0.187828 -6.239634 -0.484840
v -0.007225 -0.020000 -0.018649
vn -0.095541 -6.239634 -0.511098
v -0.003675 -0.020000 -0.019659
vn -0.024090 -6.242070 -0.505702
v 0.000000 -0.020000 -0.020000
vn 0.024090 -6.242070 0.505702
v 0.331500 -0.020000 0.020000
vn 0.024090 -6.242080 -0.505703
v 0.331500 -0.020000 -0.020000
vn 0.095541 -6.239633 -0.511098
v 0.335175 -0.020000 -0.019659
vn -0.095541 -6.239633 0.511098
v -0.003675 -0.020000 0.019659
vn -0.517732 -6.239634 -0.047975
v -0.019915 -0.020000 -0.001845
vn -0.500102 -6.239634 -0.142292
v -0.019237 -0.020000 -0.005473
vn -0.350288 -6.239634 -0.384248
v -0.013474 -0.020000 -0.014780
vn -0.273718 -6.239634 -0.442070
v -0.010529 -0.020000 -0.017004
vn 0.500106 -6.239633 -0.142293
v 0.350737 -0.020000 -0.005473
vn 0.517732 -6.239634 -0.047974
v 0.351415 -0.020000 -0.001845
vn 0.517732 -6.239634 0.047974
v 0.351415 -0.020000 0.001845
vn 0.500106 -6.239633 0.142292
v 0.350737 -0.020000 0.005473
vn 0.465440 -6.239634 0.231762
v 0.349403 -0.020000 0.008915
vn 0.414933 -6.239633 0.313341
v 0.347460 -0.020000 0.012053
vn 0.350288 -6.239634 0.384248
v 0.344974 -0.020000 0.014780
vn 0.273719 -6.239634 0.442071
v 0.342029 -0.020000 0.017004
vn 0.465441 -6.239632 -0.231762
v 0.349403 -0.020000 -0.008915
vn 0.350288 -6.239634 -0.384248
v 0.344974 -0.020000 -0.014780
vn 0.414932 -6.239633 -0.313341
v 0.347460 -0.020000 -0.012053
vn 2.125198 1.925486 5.429383
v 0.340786 0.015854 0.023970
vn 3.095554 1.915432 4.940333
v 0.345033 0.015854 0.021856
vn 4.669593 1.898626 3.494633
v 0.352014 0.015854 0.015492
vn 5.802370 1.923635 0.570827
v 0.357097 0.015854 0.002372
vn 5.802368 1.923636 -0.570830
v 0.357097 0.015854 -0.002372
vn 5.603770 1.901771 -1.612977
v 0.356225 0.015854 -0.007035
vn 4.634523 1.905138 -3.540140
v 0.352014 0.015854 -0.015492
vn 2.090754 1.891762 -5.445335
v 0.340786 0.015854 -0.023970
vn 0.360608 5.865582 -1.929093
v 0.335516 0.019706 -0.021482
vn 0.708942 5.865580 -1.829987
v 0.339395 0.019706 -0.020378
vn 0.672366 4.958992 -3.596848
v 0.335823 0.018854 -0.023126
vn 1.321845 4.958985 -3.412062
v 0.339999 0.018854 -0.021938
vn 0.916661 3.583886 -4.903712
v 0.336067 0.017527 -0.024431
vn 1.802109 3.583892 -4.651782
v 0.340478 0.017527 -0.023176
vn 1.042213 1.914645 -5.735994
v 0.336224 0.015854 -0.025269
vn 1.322135 5.865580 -1.450314
v 0.346223 0.019706 -0.016150
vn 1.566127 5.865577 -1.182677
v 0.348940 0.019706 -0.013170
vn 2.465161 4.958984 -2.704149
v 0.347350 0.018854 -0.017386
vn 2.920063 4.959000 -2.205131
v 0.350275 0.018854 -0.014178
vn 3.360839 3.583880 -3.686661
v 0.348244 0.017527 -0.018367
vn 3.981032 3.583878 -3.006332
v 0.351334 0.017527 -0.014978
vn 3.908883 1.914271 -4.324929
v 0.348818 0.015854 -0.018997
vn 1.756762 5.865585 0.874762
v 0.351063 0.019706 0.009741
vn 1.566123 5.865577 1.182680
v 0.348940 0.019706 0.013170
vn 3.275538 4.958987 1.631032
v 0.352560 0.018854 0.010487
vn 2.920068 4.958999 2.205128
v 0.350275 0.018854 0.014178
vn 4.465660 3.583898 2.223639
v 0.353748 0.017527 0.011078
vn 3.981030 3.583882 3.006331
v 0.351334 0.017527 0.014978
vn 5.231061 1.915869 2.572967
v 0.354511 0.015854 0.011458
vn 0.090927 5.883848 -1.940110
v 0.331500 0.019706 -0.021854
vn 0.169535 4.989798 -3.653419
v 0.331500 0.018854 -0.023527
vn 0.231132 3.615783 -5.004630
v 0.331500 0.017527 -0.024854
vn 0.270283 1.897552 -5.867871
v 0.331500 0.015854 -0.025706
vn 3.095554 1.915426 -4.940335
v 0.345033 0.015854 -0.021856
vn 2.626180 3.583905 -4.241438
v 0.344584 0.017527 -0.021131
vn 1.926297 4.958990 -3.111079
v 0.343885 0.018854 -0.020003
vn 1.033129 5.865581 -1.668560
v 0.343005 0.019706 -0.018581
vn 5.237925 1.922466 -2.559447
v 0.354511 0.015854 -0.011458
vn 4.465656 3.583900 -2.223644
v 0.353748 0.017527 -0.011078
vn 3.275539 4.958987 -1.631026
v 0.352560 0.018854 -0.010487
vn 1.756761 5.865584 -0.874767
v 0.351063 0.019706 -0.009741
vn 1.887594 5.865581 -0.537066
v 0.352520 0.019706 -0.005981
vn 3.519457 4.959002 -1.001374
v 0.354129 0.018854 -0.006438
vn 4.798214 3.583869 -1.365206
v 0.355405 0.017527 -0.006802
vn 4.967378 3.583874 -0.460289
v 0.356248 0.017527 -0.002293
vn 3.643538 4.958999 -0.337619
v 0.354926 0.018854 -0.002171
vn 1.954138 5.865581 -0.181076
v 0.353261 0.019706 -0.002016
vn 4.967377 3.583876 0.460288
v 0.356248 0.017527 0.002293
vn 3.643539 4.958998 0.337621
v 0.354926 0.018854 0.002171
vn 1.954139 5.865581 0.181076
v 0.353261 0.019706 0.002016
vn 5.603767 1.901781 1.612978
v 0.356225 0.015854 0.007035
vn 4.798216 3.583863 1.365213
v 0.355405 0.017527 0.006802
vn 3.519456 4.959003 1.001368
v 0.354129 0.018854 0.006438
vn 1.887595 5.865580 0.537068
v 0.352520 0.019706 0.005981
vn 3.898112 1.921455 4.334720
v 0.348818 0.015854 0.018997
vn 3.360837 3.583874 3.686668
v 0.348244 0.017527 0.018367
vn 2.465158 4.958987 2.704150
v 0.347350 0.018854 0.017386
vn 1.322137 5.865580 1.450313
v 0.346223 0.019706 0.016150
vn 1.033129 5.865581 1.668561
v 0.343005 0.019706 0.018581
vn 1.926298 4.958990 3.111077
v 0.343885 0.018854 0.020003
vn 2.626187 3.583901 4.241435
v 0.344584 0.017527 0.021131
vn 1.802108 3.583892 4.651782
v 0.340478 0.017527 0.023176
vn 1.321842 4.958986 3.412062
v 0.339999 0.018854 0.021938
vn 0.708942 5.865580 1.829987
v 0.339395 0.019706 0.020378
vn 1.027836 1.920382 5.738914
v 0.336224 0.015854 0.025269
vn 0.916661 3.583887 4.903712
v 0.336067 0.017527 0.024431
vn 0.672368 4.958992 3.596848
v 0.335823 0.018854 0.023126
vn 0.360608 5.865582 1.929094
v 0.335516 0.019706 0.021482
vn 0.090926 5.883829 1.940103
v 0.331500 0.019706 0.021854
vn 0.169534 4.989799 3.653416
v 0.331500 0.018854 0.023527
vn 0.231132 3.615786 5.004628
v 0.331500 0.017527 0.024854
vn 0.270284 1.897558 5.867890
v 0.331500 0.015854 0.025706
vn -0.090927 5.883829 -1.940103
v 0.000000 0.019706 -0.021854
vn -0.169535 4.989799 -3.653416
v 0.000000 0.018854 -0.023527
vn -0.231133 3.615786 -5.004628
v 0.000000 0.017527 -0.024854
vn -0.270284 1.897559 -5.867890
v 0.000000 0.015854 -0.025706
vn -0.090927 5.883848 1.940110
v 0.000000 0.019706 0.021854
vn -0.169535 4.989797 3.653419
v 0.000000 0.018854 0.023527
vn -0.231133 3.615783 5.004630
v 0.000000 0.017527 0.024854
vn -0.270284 1.897552 5.867871
v 0.000000 0.015854 0.025706
vn -2.125199 1.925488 -5.429386
v -0.009286 0.015854 -0.023970
vn -3.095554 1.915421 -4.940341
v -0.013533 0.015854 -0.021856
vn -4.669600 1.898609 -3.494624
v -0.020514 0.015854 -0.015492
vn -5.802368 1.923629 -0.570829
v -0.025597 0.015854 -0.002372
vn -5.802369 1.923628 0.570828
v -0.025597 0.015854 0.002372
vn -5.603761 1.901768 1.612978
v -0.024725 0.015854 0.007035
vn -4.634523 1.905122 3.540142
v -0.020514 0.015854 0.015492
vn -2.090755 1.891763 5.445338
v -0.009286 0.015854 0.023970
vn -0.360610 5.865581 1.929095
v -0.004016 0.019706 0.021482
vn -0.708941 5.865582 1.829987
v -0.007895 0.019706 0.020378
vn -0.672365 4.958994 3.596847
v -0.004323 0.018854 0.023126
vn -1.321839 4.958991 3.412059
v -0.008499 0.018854 0.021938
vn -0.916664 3.583885 4.903711
v -0.004567 0.017527 0.024431
vn -1.802110 3.583888 4.651781
v -0.008978 0.017527 0.023176
vn -1.042212 1.914646 5.735996
v -0.004724 0.015854 0.025269
vn -1.322137 5.865580 1.450312
v -0.014723 0.019706 0.016150
vn -1.566118 5.865581 1.182677
v -0.017440 0.019706 0.013170
vn -2.465154 4.958994 2.704144
v -0.015850 0.018854 0.017386
vn -2.920055 4.959004 2.205129
v -0.018775 0.018854 0.014178
vn -3.360833 3.583885 3.686658
v -0.016744 0.017527 0.018367
vn -3.981032 3.583878 3.006332
v -0.019834 0.017527 0.014978
vn -3.908879 1.914261 4.324933
v -0.017318 0.015854 0.018997
vn -1.756763 5.865583 -0.874764
v -0.019563 0.019706 -0.009741
vn -1.566116 5.865582 -1.182677
v -0.017440 0.019706 -0.013170
vn -3.275538 4.958987 -1.631027
v -0.021060 0.018854 -0.010487
vn -2.920061 4.959002 -2.205127
v -0.018775 0.018854 -0.014178
vn -4.465665 3.583883 -2.223640
v -0.022248 0.017527 -0.011078
vn -3.981031 3.583881 -3.006331
v -0.019834 0.017527 -0.014978
vn -5.231068 1.915870 -2.572974
v -0.023011 0.015854 -0.011458
vn -3.095554 1.915418 4.940342
v -0.013533 0.015854 0.021856
vn -2.626184 3.583894 4.241439
v -0.013084 0.017527 0.021131
vn -1.926299 4.958989 3.111076
v -0.012385 0.018854 0.020003
vn -1.033130 5.865580 1.668560
v -0.011505 0.019706 0.018581
vn -5.237932 1.922475 2.559448
v -0.023011 0.015854 0.011458
vn -4.465667 3.583882 2.223637
v -0.022248 0.017527 0.011078
vn -3.275542 4.958986 1.631022
v -0.021060 0.018854 0.010487
vn -1.756760 5.865584 0.874767
v -0.019563 0.019706 0.009741
vn -1.887600 5.865577 0.537066
v -0.021020 0.019706 0.005981
vn -3.519464 4.959000 1.001376
v -0.022629 0.018854 0.006438
vn -4.798207 3.583886 1.365212
v -0.023905 0.017527 0.006802
vn -4.967376 3.583875 0.460293
v -0.024748 0.017527 0.002293
vn -3.643538 4.958997 0.337625
v -0.023426 0.018854 0.002171
vn -1.954139 5.865580 0.181078
v -0.021761 0.019706 0.002016
vn -4.967375 3.583875 -0.460296
v -0.024748 0.017527 -0.002293
vn -3.643540 4.958996 -0.337625
v -0.023426 0.018854 -0.002171
vn -1.954138 5.865581 -0.181076
v -0.021761 0.019706 -0.002016
vn -5.603759 1.901771 -1.612978
v -0.024725 0.015854 -0.007035
vn -4.798211 3.583883 -1.365209
v -0.023905 0.017527 -0.006802
vn -3.519463 4.959002 -1.001372
v -0.022629 0.018854 -0.006438
vn -1.887600 5.865576 -0.537071
v -0.021020 0.019706 -0.005981
vn -3.898107 1.921442 -4.334725
v -0.017318 0.015854 -0.018997
vn -3.360833 3.583881 -3.686661
v -0.016744 0.017527 -0.018367
vn -2.465153 4.958996 -2.704144
v -0.015850 0.018854 -0.017386
vn -1.322136 5.865580 -1.450312
v -0.014723 0.019706 -0.016150
vn -1.033130 5.865580 -1.668559
v -0.011505 0.019706 -0.018581
vn -1.926297 4.958990 -3.111077
v -0.012385 0.018854 -0.020003
vn -2.626187 3.583892 -4.241439
v -0.013084 0.017527 -0.021131
vn -1.802110 3.583890 -4.651780
v -0.008978 0.017527 -0.023176
vn -1.321839 4.958991 -3.412060
v -0.008499 0.018854 -0.021938
vn -0.708941 5.865581 -1.829987
v -0.007895 0.019706 -0.020378
vn -1.027835 1.920383 -5.738917
v -0.004724 0.015854 -0.025269
vn -0.916663 3.583886 -4.903711
v -0.004567 0.017527 -0.024431
vn -0.672366 4.958993 -3.596847
v -0.004323 0.018854 -0.023126
vn -0.360610 5.865581 -1.929094
v -0.004016 0.019706 -0.021482
vn -0.090927 -5.883829 1.940103
v 0.000000 -0.019706 0.021854
vn -0.360610 -5.865581 1.929094
v -0.004016 -0.019706 0.021482
vn -0.169535 -4.989799 3.653416
v 0.000000 -0.018854 0.023527
vn -0.672366 -4.958994 3.596847
v -0.004323 -0.018854 0.023126
vn -0.231133 -3.615786 5.004628
v 0.000000 -0.017527 0.024854
vn -0.916663 -3.583886 4.903711
v -0.004567 -0.017527 0.024431
vn -0.270284 -1.897558 5.867890
v 0.000000 -0.015854 0.025706
vn -1.027835 -1.920383 5.738917
v -0.004724 -0.015854 0.025269
vn -2.125199 -1.925487 5.429386
v -0.009286 -0.015854 0.023970
vn -3.095554 -1.915421 4.940341
v -0.013533 -0.015854 0.021856
vn -3.898107 -1.921442 4.334725
v -0.017318 -0.015854 0.018997
vn -4.669600 -1.898608 3.494625
v -0.020514 -0.015854 0.015492
vn -5.231068 -1.915869 2.572974
v -0.023011 -0.015854 0.011458
vn -5.603759 -1.901770 1.612978
v -0.024725 -0.015854 0.007035
vn -5.809278 -1.884672 0.529236
v -0.025597 -0.015854 0.002372
vn -5.803308 -1.918835 -0.557421
v -0.025597 -0.015854 -0.002372
vn -5.603761 -1.901768 -1.612979
v -0.024725 -0.015854 -0.007035
vn -5.237932 -1.922475 -2.559448
v -0.023011 -0.015854 -0.011458
vn -4.634523 -1.905122 -3.540142
v -0.020514 -0.015854 -0.015492
vn -3.908879 -1.914261 -4.324933
v -0.017318 -0.015854 -0.018997
vn -3.095553 -1.915418 -4.940342
v -0.013533 -0.015854 -0.021856
vn -2.090755 -1.891763 -5.445338
v -0.009286 -0.015854 -0.023970
vn -1.042212 -1.914646 -5.735996
v -0.004724 -0.015854 -0.025269
vn -0.270284 -1.897552 -5.867871
v 0.000000 -0.015854 -0.025706
vn -1.802110 -3.583890 4.651781
v -0.008978 -0.017527 0.023176
vn -2.626187 -3.583891 4.241439
v -0.013084 -0.017527 0.021131
vn -3.360833 -3.583881 3.686661
v -0.016744 -0.017527 0.018367
vn -3.981031 -3.583881 3.006331
v -0.019834 -0.017527 0.014978
vn -4.465665 -3.583883 2.223639
v -0.022248 -0.017527 0.011078
vn -4.798211 -3.583883 1.365209
v -0.023905 -0.017527 0.006802
vn -4.967376 -3.583875 0.460296
v -0.024748 -0.017527 0.002293
vn -4.967376 -3.583875 -0.460293
v -0.024748 -0.017527 -0.002293
vn -4.798207 -3.583887 -1.365212
v -0.023905 -0.017527 -0.006802
vn -4.465667 -3.583882 -2.223637
v -0.022248 -0.017527 -0.011078
vn -3.981032 -3.583878 -3.006332
v -0.019834 -0.017527 -0.014978
vn -3.360833 -3.583885 -3.686658
v -0.016744 -0.017527 -0.018367
vn -2.626184 -3.583894 -4.241439
v -0.013084 -0.017527 -0.021131
vn -1.802110 -3.583888 -4.651782
v -0.008978 -0.017527 -0.023176
vn -0.916664 -3.583885 -4.903712
v -0.004567 -0.017527 -0.024431
vn -0.231133 -3.615784 -5.004630
v 0.000000 -0.017527 -0.024854
vn -1.321839 -4.958990 3.412060
v -0.008499 -0.018854 0.021938
vn -1.926297 -4.958990 3.111077
v -0.012385 -0.018854 0.020003
vn -2.465153 -4.958996 2.704144
v -0.015850 -0.018854 0.017386
vn -2.920061 -4.959002 2.205127
v -0.018775 -0.018854 0.014178
vn -3.275538 -4.958986 1.631027
v -0.021060 -0.018854 0.010487
vn -3.519463 -4.959002 1.001372
v -0.022629 -0.018854 0.006438
vn -3.643540 -4.958996 0.337625
v -0.023426 -0.018854 0.002171
vn -3.643538 -4.958998 -0.337625
v -0.023426 -0.018854 -0.002171
vn -3.519464 -4.959000 -1.001376
v -0.022629 -0.018854 -0.006438
vn -3.275542 -4.958985 -1.631022
v -0.021060 -0.018854 -0.010487
vn -2.920055 -4.959004 -2.205129
v -0.018775 -0.018854 -0.014178
vn -2.465154 -4.958995 -2.704144
v -0.015850 -0.018854 -0.017386
vn -1.926299 -4.958989 -3.111077
v -0.012385 -0.018854 -0.020003
vn -1.321840 -4.958991 -3.412059
v -0.008499 -0.018854 -0.021938
vn -0.672365 -4.958994 -3.596847
v -0.004323 -0.018854 -0.023126
vn -0.169535 -4.989798 -3.653419
v 0.000000 -0.018854 -0.023527
vn -0.708941 -5.865581 1.829987
v -0.007895 -0.019706 0.020378
vn -1.033130 -5.865580 1.668559
v -0.011505 -0.019706 0.018581
vn -1.322136 -5.865580 1.450312
v -0.014723 -0.019706 0.016150
vn -1.566116 -5.865582 1.182677
v -0.017440 -0.019706 0.013170
vn -1.756763 -5.865583 0.874764
v -0.019563 -0.019706 0.009741
vn -1.887600 -5.865576 0.537071
v -0.021020 -0.019706 0.005981
vn -1.954138 -5.865581 0.181076
v -0.021761 -0.019706 0.002016
vn -1.954139 -5.865580 -0.181078
v -0.021761 -0.019706 -0.002016
vn -1.887600 -5.865577 -0.537066
v -0.021020 -0.019706 -0.005981
vn -1.756760 -5.865584 -0.874767
v -0.019563 -0.019706 -0.009741
vn -1.566118 -5.865581 -1.182676
v -0.017440 -0.019706 -0.013170
vn -1.322137 -5.865580 -1.450312
v -0.014723 -0.019706 -0.016150
vn -1.033129 -5.865581 -1.668559
v -0.011505 -0.019706 -0.018581
vn -0.708941 -5.865581 -1.829987
v -0.007895 -0.019706 -0.020378
vn -0.360610 -5.865581 -1.929095
v -0.004016 -0.019706 -0.021482
vn -0.090927 -5.883848 -1.940110
v 0.000000 -0.019706 -0.021854
vn 0.090927 -5.883848 1.940110
v 0.331500 -0.019706 0.021854
vn 0.169535 -4.989798 3.653419
v 0.331500 -0.018854 0.023527
vn 0.231132 -3.615783 5.004630
v 0.331500 -0.017527 0.024854
vn 0.270283 -1.897553 5.867871
v 0.331500 -0.015854 0.025706
vn 0.090926 -5.883829 -1.940103
v 0.331500 -0.019706 -0.021854
vn 0.169534 -4.989799 -3.653416
v 0.331500 -0.018854 -0.023527
vn 0.231132 -3.615787 -5.004628
v 0.331500 -0.017527 -0.024854
vn 0.270284 -1.897558 -5.867891
v 0.331500 -0.015854 -0.025706
vn 0.360608 -5.865582 -1.929094
v 0.335516 -0.019706 -0.021482
vn 0.672368 -4.958992 -3.596847
v 0.335823 -0.018854 -0.023126
vn 0.916661 -3.583887 -4.903712
v 0.336067 -0.017527 -0.024431
vn 1.027836 -1.920382 -5.738914
v 0.336224 -0.015854 -0.025269
vn 2.125198 -1.925486 -5.429383
v 0.340786 -0.015854 -0.023970
vn 3.095554 -1.915432 -4.940333
v 0.345033 -0.015854 -0.021856
vn 3.898111 -1.921455 -4.334719
v 0.348818 -0.015854 -0.018997
vn 4.669593 -1.898626 -3.494634
v 0.352014 -0.015854 -0.015492
vn 5.231061 -1.915869 -2.572967
v 0.354511 -0.015854 -0.011458
vn 5.603766 -1.901781 -1.612978
v 0.356225 -0.015854 -0.007035
vn 5.809280 -1.884673 -0.529229
v 0.357097 -0.015854 -0.002372
vn 5.803307 -1.918843 0.557421
v 0.357097 -0.015854 0.002372
vn 5.603770 -1.901771 1.612977
v 0.356225 -0.015854 0.007035
vn 5.237925 -1.922466 2.559447
v 0.354511 -0.015854 0.011458
vn 4.634522 -1.905138 3.540140
v 0.352014 -0.015854 0.015492
vn 3.908883 -1.914271 4.324929
v 0.348818 -0.015854 0.018997
vn 3.095554 -1.915426 4.940335
v 0.345033 -0.015854 0.021856
vn 2.090754 -1.891762 5.445335
v 0.340786 -0.015854 0.023970
vn 1.042213 -1.914645 5.735994
v 0.336224 -0.015854 0.025269
vn 1.802108 -3.583893 -4.651782
v 0.340478 -0.017527 -0.023176
vn 2.626187 -3.583901 -4.241436
v 0.344584 -0.017527 -0.021131
vn 3.360837 -3.583874 -3.686668
v 0.348244 -0.017527 -0.018367
vn 3.981030 -3.583882 -3.006332
v 0.351334 -0.017527 -0.014978
vn 4.465660 -3.583898 -2.223639
v 0.353748 -0.017527 -0.011078
vn 4.798216 -3.583863 -1.365213
v 0.355405 -0.017527 -0.006802
vn 4.967377 -3.583876 -0.460288
v 0.356248 -0.017527 -0.002293
vn 4.967378 -3.583874 0.460289
v 0.356248 -0.017527 0.002293
vn 4.798215 -3.583869 1.365206
v 0.355405 -0.017527 0.006802
vn 4.465656 -3.583900 2.223644
v 0.353748 -0.017527 0.011078
vn 3.981032 -3.583878 3.006332
v 0.351334 -0.017527 0.014978
vn 3.360839 -3.583880 3.686661
v 0.348244 -0.017527 0.018367
vn 2.626180 -3.583905 4.241437
v 0.344584 -0.017527 0.021131
vn 1.802109 -3.583892 4.651783
v 0.340478 -0.017527 0.023176
vn 0.916661 -3.583886 4.903713
v 0.336067 -0.017527 0.024431
vn 1.321842 -4.958985 -3.412062
v 0.339999 -0.018854 -0.021938
vn 1.926298 -4.958990 -3.111077
v 0.343885 -0.018854 -0.020003
vn 2.465158 -4.958987 -2.704150
v 0.347350 -0.018854 -0.017386
vn 2.920068 -4.958999 -2.205128
v 0.350275 -0.018854 -0.014178
vn 3.275537 -4.958987 -1.631032
v 0.352560 -0.018854 -0.010487
vn 3.519456 -4.959004 -1.001368
v 0.354129 -0.018854 -0.006438
vn 3.643539 -4.958998 -0.337621
v 0.354926 -0.018854 -0.002171
vn 3.643538 -4.958999 0.337619
v 0.354926 -0.018854 0.002171
vn 3.519456 -4.959002 1.001374
v 0.354129 -0.018854 0.006438
vn 3.275539 -4.958987 1.631026
v 0.352560 -0.018854 0.010487
vn 2.920063 -4.959000 2.205131
v 0.350275 -0.018854 0.014178
vn 2.465161 -4.958985 2.704149
v 0.347350 -0.018854 0.017386
vn 1.926297 -4.958990 3.111079
v 0.343885 -0.018854 0.020003
vn 1.321845 -4.958985 3.412062
v 0.339999 -0.018854 0.021938
vn 0.672366 -4.958992 3.596848
v 0.335823 -0.018854 0.023126
vn 0.708942 -5.865580 -1.829987
v 0.339395 -0.019706 -0.020378
vn 1.033129 -5.865581 -1.668561
v 0.343005 -0.019706 -0.018581
vn 1.322137 -5.865579 -1.450313
v 0.346223 -0.019706 -0.016150
vn 1.566123 -5.865578 -1.182680
v 0.348940 -0.019706 -0.013170
vn 1.756762 -5.865585 -0.874762
v 0.351063 -0.019706 -0.009741
vn 1.887595 -5.865581 -0.537068
v 0.352520 -0.019706 -0.005981
vn 1.954139 -5.865581 -0.181076
v 0.353261 -0.019706 -0.002016
vn 1.954138 -5.865581 0.181076
v 0.353261 -0.019706 0.002016
vn 1.887594 -5.865581 0.537066
v 0.352520 -0.019706 0.005981
vn 1.756761 -5.865584 0.874767
v 0.351063 -0.019706 0.009741
vn 1.566127 -5.865577 1.182677
v 0.348940 -0.019706 0.013170
vn 1.322135 -5.865580 1.450314
v 0.346223 -0.019706 0.016150
vn 1.033129 -5.865580 1.668560
v 0.343005 -0.019706 0.018581
vn 0.708942 -5.865580 1.829987
v 0.339395 -0.019706 0.020378
vn 0.360608 -5.865582 1.929093
v 0.335516 -0.019706 0.021482
# 476 vertices, 0 vertices normals

f 1//1 2//2 3//3
f 3//3 2//2 4//4
f 3//3 4//4 5//5
f 5//5 4//4 6//6
f 5//5 6//6 7//7
f 7//7 6//6 8//8
f 7//7 8//8 9//9
f 9//9 8//8 10//10
f 9//9 10//10 11//11
f 11//11 10//10 12//12
f 11//11 12//12 13//13
f 13//13 12//12 14//14
f 13//13 14//14 15//15
f 15//15 14//14 16//16
f 15//15 16//16 17//17
f 17//17 16//16 18//18
f 17//17 18//18 19//19
f 19//19 18//18 20//20
f 19//19 20//20 21//21
f 21//21 20//20 22//22
f 21//21 22//22 23//23
f 23//23 22//22 24//24
f 23//23 24//24 25//25
f 25//25 24//24 26//26
f 25//25 26//26 27//27
f 27//27 26//26 28//28
f 27//27 28//28 29//29
f 29//29 28//28 30//30
f 29//29 30//30 31//31
f 31//31 30//30 32//32
f 31//31 32//32 33//33
f 33//33 32//32 34//34
f 33//33 34//34 35//35
f 35//35 34//34 36//36
f 35//35 36//36 37//37
f 37//37 36//36 38//38
f 37//37 38//38 39//39
f 39//39 38//38 40//40
f 39//39 40//40 41//41
f 41//41 40//40 42//42
f 41//41 42//42 43//43
f 43//43 42//42 44//44
f 43//43 44//44 45//45
f 45//45 44//44 46//46
f 45//45 46//46 47//47
f 47//47 46//46 48//48
f 47//47 48//48 49//49
f 49//49 48//48 50//50
f 49//49 50//50 51//51
f 51//51 50//50 52//52
f 51//51 52//52 53//53
f 53//53 52//52 54//54
f 53//53 54//54 55//55
f 55//55 54//54 56//56
f 55//55 56//56 57//57
f 57//57 56//56 58//58
f 59//59 60//60 1//1
f 1//1 60//60 2//2
f 61//61 62//62 63//63
f 63//63 62//62 64//64
f 63//63 64//64 65//65
f 65//65 64//64 66//66
f 65//65 66//66 67//67
f 67//67 66//66 68//68
f 67//67 68//68 69//69
f 69//69 68//68 70//70
f 69//69 70//70 71//71
f 71//71 70//70 72//72
f 71//71 72//72 73//73
f 73//73 72//72 74//74
f 73//73 74//74 75//75
f 75//75 74//74 76//76
f 75//75 76//76 77//77
f 77//77 76//76 78//78
f 77//77 78//78 79//79
f 79//79 78//78 80//80
f 79//79 80//80 81//81
f 81//81 80//80 82//82
f 81//81 82//82 83//83
f 83//83 82//82 84//84
f 83//83 84//84 85//85
f 85//85 84//84 86//86
f 85//85 86//86 87//87
f 87//87 86//86 88//88
f 87//87 88//88 89//89
f 89//89 88//88 90//90
f 89//89 90//90 91//91
f 91//91 90//90 92//92
f 91//91 92//92 93//93
f 93//93 92//92 94//94
f 93//93 94//94 95//95
f 95//95 94//94 96//96
f 95//95 96//96 97//97
f 97//97 96//96 98//98
f 97//97 98//98 99//99
f 99//99 98//98 100//100
f 99//99 100//100 101//101
f 101//101 100//100 102//102
f 101//101 102//102 103//103
f 103//103 102//102 104//104
f 103//103 104//104 105//105
f 105//105 104//104 106//106
f 105//105 106//106 107//107
f 107//107 106//106 108//108
f 107//107 108//108 109//109
f 109//109 108//108 110//110
f 109//109 110//110 111//111
f 111//111 110//110 112//112
f 111//111 112//112 113//113
f 113//113 112//112 114//114
f 113//113 114//114 115//115
f 115//115 114//114 116//116
f 115//115 116//116 59//59
f 59//59 116//116 60//60
f 57//57 58//58 61//61
f 61//61 58//58 62//62
f 117//117 118//118 119//119
f 119//119 118//118 120//120
f 117//117 121//121 118//118
f 118//118 121//121 122//122
f 118//118 122//122 123//123
f 124//124 125//125 118//118
f 118//118 125//125 126//126
f 127//127 118//118 128//128
f 128//128 118//118 129//129
f 120//120 130//130 119//119
f 119//119 130//130 131//131
f 119//119 131//131 132//132
f 132//132 133//133 119//119
f 119//119 133//133 134//134
f 119//119 134//134 135//135
f 136//136 135//135 137//137
f 136//136 138//138 135//135
f 135//135 138//138 139//139
f 135//135 139//139 119//119
f 123//123 140//140 118//118
f 118//118 140//140 141//141
f 118//118 141//141 124//124
f 126//126 142//142 118//118
f 118//118 142//142 143//143
f 118//118 143//143 129//129
f 144//144 145//145 127//127
f 127//127 145//145 146//146
f 127//127 146//146 118//118
f 137//137 147//147 136//136
f 136//136 147//147 148//148
f 136//136 148//148 149//149
f 149//149 150//150 136//136
f 136//136 150//150 151//151
f 136//136 151//151 152//152
f 153//153 154//154 155//155
f 155//155 154//154 156//156
f 157//157 158//158 159//159
f 160//160 161//161 162//162
f 163//163 164//164 162//162
f 162//162 164//164 165//165
f 162//162 165//165 166//166
f 167//167 168//168 162//162
f 162//162 168//168 169//169
f 162//162 169//169 170//170
f 170//170 169//169 171//171
f 170//170 171//171 154//154
f 154//154 171//171 172//172
f 154//154 172//172 156//156
f 163//163 162//162 159//159
f 159//159 162//162 173//173
f 159//159 173//173 157//157
f 166//166 174//174 162//162
f 162//162 174//174 175//175
f 162//162 175//175 160//160
f 161//161 176//176 162//162
f 162//162 176//176 177//177
f 162//162 177//177 167//167
f 178//178 179//179 155//155
f 155//155 179//179 180//180
f 180//180 181//181 155//155
f 155//155 181//181 182//182
f 155//155 182//182 183//183
f 183//183 184//184 155//155
f 155//155 184//184 185//185
f 155//155 185//185 153//153
f 178//178 155//155 186//186
f 186//186 155//155 187//187
f 186//186 187//187 188//188
f 54//54 52//52 189//189
f 50//50 48//48 190//190
f 44//44 42//42 191//191
f 34//34 32//32 192//192
f 30//30 28//28 193//193
f 26//26 24//24 194//194
f 20//20 18//18 195//195
f 10//10 8//8 196//196
f 139//139 138//138 197//197
f 197//197 138//138 198//198
f 197//197 198//198 199//199
f 199//199 198//198 200//200
f 199//199 200//200 201//201
f 201//201 200//200 202//202
f 201//201 202//202 203//203
f 203//203 202//202 196//196
f 152//152 151//151 204//204
f 204//204 151//151 205//205
f 204//204 205//205 206//206
f 206//206 205//205 207//207
f 206//206 207//207 208//208
f 208//208 207//207 209//209
f 208//208 209//209 210//210
f 210//210 209//209 195//195
f 135//135 134//134 211//211
f 211//211 134//134 212//212
f 211//211 212//212 213//213
f 213//213 212//212 214//214
f 213//213 214//214 215//215
f 215//215 214//214 216//216
f 215//215 216//216 217//217
f 217//217 216//216 191//191
f 119//119 139//139 218//218
f 218//218 139//139 197//197
f 218//218 197//197 219//219
f 219//219 197//197 199//199
f 219//219 199//199 220//220
f 220//220 199//199 201//201
f 220//220 201//201 221//221
f 221//221 201//201 203//203
f 221//221 203//203 2//2
f 2//2 203//203 4//4
f 196//196 8//8 203//203
f 203//203 8//8 6//6
f 203//203 6//6 4//4
f 12//12 10//10 222//222
f 222//222 10//10 196//196
f 222//222 196//196 223//223
f 223//223 196//196 202//202
f 223//223 202//202 224//224
f 224//224 202//202 200//200
f 224//224 200//200 225//225
f 225//225 200//200 198//198
f 225//225 198//198 136//136
f 136//136 198//198 138//138
f 136//136 152//152 225//225
f 225//225 152//152 204//204
f 225//225 204//204 224//224
f 224//224 204//204 206//206
f 224//224 206//206 223//223
f 223//223 206//206 208//208
f 223//223 208//208 222//222
f 222//222 208//208 210//210
f 222//222 210//210 12//12
f 12//12 210//210 14//14
f 195//195 18//18 210//210
f 210//210 18//18 16//16
f 210//210 16//16 14//14
f 22//22 20//20 226//226
f 226//226 20//20 195//195
f 226//226 195//195 227//227
f 227//227 195//195 209//209
f 227//227 209//209 228//228
f 228//228 209//209 207//207
f 228//228 207//207 229//229
f 229//229 207//207 205//205
f 229//229 205//205 150//150
f 150//150 205//205 151//151
f 150//150 149//149 229//229
f 229//229 149//149 230//230
f 229//229 230//230 228//228
f 228//228 230//230 231//231
f 228//228 231//231 227//227
f 227//227 231//231 232//232
f 227//227 232//232 226//226
f 226//226 232//232 194//194
f 226//226 194//194 22//22
f 22//22 194//194 24//24
f 28//28 26//26 193//193
f 193//193 26//26 194//194
f 193//193 194//194 233//233
f 233//233 194//194 232//232
f 233//233 232//232 234//234
f 234//234 232//232 231//231
f 234//234 231//231 235//235
f 235//235 231//231 230//230
f 235//235 230//230 148//148
f 148//148 230//230 149//149
f 32//32 30//30 192//192
f 192//192 30//30 193//193
f 192//192 193//193 236//236
f 236//236 193//193 233//233
f 236//236 233//233 237//237
f 237//237 233//233 234//234
f 237//237 234//234 238//238
f 238//238 234//234 235//235
f 238//238 235//235 147//147
f 147//147 235//235 148//148
f 36//36 34//34 239//239
f 239//239 34//34 192//192
f 239//239 192//192 240//240
f 240//240 192//192 236//236
f 240//240 236//236 241//241
f 241//241 236//236 237//237
f 241//241 237//237 242//242
f 242//242 237//237 238//238
f 242//242 238//238 137//137
f 137//137 238//238 147//147
f 137//137 135//135 242//242
f 242//242 135//135 211//211
f 242//242 211//211 241//241
f 241//241 211//211 213//213
f 241//241 213//213 240//240
f 240//240 213//213 215//215
f 240//240 215//215 239//239
f 239//239 215//215 217//217
f 239//239 217//217 36//36
f 36//36 217//217 38//38
f 191//191 42//42 217//217
f 217//217 42//42 40//40
f 217//217 40//40 38//38
f 46//46 44//44 243//243
f 243//243 44//44 191//191
f 243//243 191//191 244//244
f 244//244 191//191 216//216
f 244//244 216//216 245//245
f 245//245 216//216 214//214
f 245//245 214//214 246//246
f 246//246 214//214 212//212
f 246//246 212//212 133//133
f 133//133 212//212 134//134
f 133//133 132//132 246//246
f 246//246 132//132 247//247
f 246//246 247//247 245//245
f 245//245 247//247 248//248
f 245//245 248//248 244//244
f 244//244 248//248 249//249
f 244//244 249//249 243//243
f 243//243 249//249 190//190
f 243//243 190//190 46//46
f 46//46 190//190 48//48
f 52//52 50//50 189//189
f 189//189 50//50 190//190
f 189//189 190//190 250//250
f 250//250 190//190 249//249
f 250//250 249//249 251//251
f 251//251 249//249 248//248
f 251//251 248//248 252//252
f 252//252 248//248 247//247
f 252//252 247//247 131//131
f 131//131 247//247 132//132
f 56//56 54//54 253//253
f 253//253 54//54 189//189
f 253//253 189//189 254//254
f 254//254 189//189 250//250
f 254//254 250//250 255//255
f 255//255 250//250 251//251
f 255//255 251//251 256//256
f 256//256 251//251 252//252
f 256//256 252//252 130//130
f 130//130 252//252 131//131
f 130//130 120//120 256//256
f 256//256 120//120 257//257
f 256//256 257//257 255//255
f 255//255 257//257 258//258
f 255//255 258//258 254//254
f 254//254 258//258 259//259
f 254//254 259//259 253//253
f 253//253 259//259 260//260
f 253//253 260//260 56//56
f 56//56 260//260 58//58
f 117//117 119//119 218//218
f 117//117 218//218 261//261
f 261//261 218//218 219//219
f 261//261 219//219 262//262
f 262//262 219//219 220//220
f 262//262 220//220 263//263
f 263//263 220//220 221//221
f 263//263 221//221 264//264
f 264//264 221//221 2//2
f 264//264 2//2 60//60
f 120//120 118//118 265//265
f 120//120 265//265 257//257
f 257//257 265//265 266//266
f 257//257 266//266 258//258
f 258//258 266//266 267//267
f 258//258 267//267 259//259
f 259//259 267//267 268//268
f 259//259 268//268 260//260
f 260//260 268//268 62//62
f 260//260 62//62 58//58
f 114//114 112//112 269//269
f 110//110 108//108 270//270
f 104//104 102//102 271//271
f 94//94 92//92 272//272
f 90//90 88//88 273//273
f 86//86 84//84 274//274
f 80//80 78//78 275//275
f 70//70 68//68 276//276
f 146//146 145//145 277//277
f 277//277 145//145 278//278
f 277//277 278//278 279//279
f 279//279 278//278 280//280
f 279//279 280//280 281//281
f 281//281 280//280 282//282
f 281//281 282//282 283//283
f 283//283 282//282 276//276
f 127//127 128//128 284//284
f 284//284 128//128 285//285
f 284//284 285//285 286//286
f 286//286 285//285 287//287
f 286//286 287//287 288//288
f 288//288 287//287 289//289
f 288//288 289//289 290//290
f 290//290 289//289 275//275
f 124//124 141//141 291//291
f 291//291 141//141 292//292
f 291//291 292//292 293//293
f 293//293 292//292 294//294
f 293//293 294//294 295//295
f 295//295 294//294 296//296
f 295//295 296//296 297//297
f 297//297 296//296 271//271
f 118//118 146//146 265//265
f 265//265 146//146 277//277
f 265//265 277//277 266//266
f 266//266 277//277 279//279
f 266//266 279//279 267//267
f 267//267 279//279 281//281
f 267//267 281//281 268//268
f 268//268 281//281 283//283
f 268//268 283//283 62//62
f 62//62 283//283 64//64
f 276//276 68//68 283//283
f 283//283 68//68 66//66
f 283//283 66//66 64//64
f 72//72 70//70 298//298
f 298//298 70//70 276//276
f 298//298 276//276 299//299
f 299//299 276//276 282//282
f 299//299 282//282 300//300
f 300//300 282//282 280//280
f 300//300 280//280 301//301
f 301//301 280//280 278//278
f 301//301 278//278 144//144
f 144//144 278//278 145//145
f 144//144 127//127 301//301
f 301//301 127//127 284//284
f 301//301 284//284 300//300
f 300//300 284//284 286//286
f 300//300 286//286 299//299
f 299//299 286//286 288//288
f 299//299 288//288 298//298
f 298//298 288//288 290//290
f 298//298 290//290 72//72
f 72//72 290//290 74//74
f 275//275 78//78 290//290
f 290//290 78//78 76//76
f 290//290 76//76 74//74
f 82//82 80//80 302//302
f 302//302 80//80 275//275
f 302//302 275//275 303//303
f 303//303 275//275 289//289
f 303//303 289//289 304//304
f 304//304 289//289 287//287
f 304//304 287//287 305//305
f 305//305 287//287 285//285
f 305//305 285//285 129//129
f 129//129 285//285 128//128
f 129//129 143//143 305//305
f 305//305 143//143 306//306
f 305//305 306//306 304//304
f 304//304 306//306 307//307
f 304//304 307//307 303//303
f 303//303 307//307 308//308
f 303//303 308//308 302//302
f 302//302 308//308 274//274
f 302//302 274//274 82//82
f 82//82 274//274 84//84
f 88//88 86//86 273//273
f 273//273 86//86 274//274
f 273//273 274//274 309//309
f 309//309 274//274 308//308
f 309//309 308//308 310//310
f 310//310 308//308 307//307
f 310//310 307//307 311//311
f 311//311 307//307 306//306
f 311//311 306//306 142//142
f 142//142 306//306 143//143
f 92//92 90//90 272//272
f 272//272 90//90 273//273
f 272//272 273//273 312//312
f 312//312 273//273 309//309
f 312//312 309//309 313//313
f 313//313 309//309 310//310
f 313//313 310//310 314//314
f 314//314 310//310 311//311
f 314//314 311//311 126//126
f 126//126 311//311 142//142
f 96//96 94//94 315//315
f 315//315 94//94 272//272
f 315//315 272//272 316//316
f 316//316 272//272 312//312
f 316//316 312//312 317//317
f 317//317 312//312 313//313
f 317//317 313//313 318//318
f 318//318 313//313 314//314
f 318//318 314//314 125//125
f 125//125 314//314 126//126
f 125//125 124//124 318//318
f 318//318 124//124 291//291
f 318//318 291//291 317//317
f 317//317 291//291 293//293
f 317//317 293//293 316//316
f 316//316 293//293 295//295
f 316//316 295//295 315//315
f 315//315 295//295 297//297
f 315//315 297//297 96//96
f 96//96 297//297 98//98
f 271//271 102//102 297//297
f 297//297 102//102 100//100
f 297//297 100//100 98//98
f 106//106 104//104 319//319
f 319//319 104//104 271//271
f 319//319 271//271 320//320
f 320//320 271//271 296//296
f 320//320 296//296 321//321
f 321//321 296//296 294//294
f 321//321 294//294 322//322
f 322//322 294//294 292//292
f 322//322 292//292 140//140
f 140//140 292//292 141//141
f 140//140 123//123 322//322
f 322//322 123//123 323//323
f 322//322 323//323 321//321
f 321//321 323//323 324//324
f 321//321 324//324 320//320
f 320//320 324//324 325//325
f 320//320 325//325 319//319
f 319//319 325//325 270//270
f 319//319 270//270 106//106
f 106//106 270//270 108//108
f 112//112 110//110 269//269
f 269//269 110//110 270//270
f 269//269 270//270 326//326
f 326//326 270//270 325//325
f 326//326 325//325 327//327
f 327//327 325//325 324//324
f 327//327 324//324 328//328
f 328//328 324//324 323//323
f 328//328 323//323 122//122
f 122//122 323//323 123//123
f 116//116 114//114 329//329
f 329//329 114//114 269//269
f 329//329 269//269 330//330
f 330//330 269//269 326//326
f 330//330 326//326 331//331
f 331//331 326//326 327//327
f 331//331 327//327 332//332
f 332//332 327//327 328//328
f 332//332 328//328 121//121
f 121//121 328//328 122//122
f 121//121 117//117 332//332
f 332//332 117//117 261//261
f 332//332 261//261 331//331
f 331//331 261//261 262//262
f 331//331 262//262 330//330
f 330//330 262//262 263//263
f 330//330 263//263 329//329
f 329//329 263//263 264//264
f 329//329 264//264 116//116
f 116//116 264//264 60//60
f 162//162 333//333 334//334
f 333//333 335//335 336//336
f 335//335 337//337 338//338
f 337//337 339//339 340//340
f 339//339 61//61 63//63
f 339//339 63//63 340//340
f 340//340 63//63 65//65
f 340//340 65//65 341//341
f 65//65 67//67 341//341
f 341//341 67//67 69//69
f 341//341 69//69 342//342
f 69//69 71//71 342//342
f 342//342 71//71 73//73
f 342//342 73//73 343//343
f 343//343 73//73 75//75
f 343//343 75//75 344//344
f 344//344 75//75 77//77
f 344//344 77//77 345//345
f 345//345 77//77 79//79
f 79//79 81//81 345//345
f 345//345 81//81 83//83
f 345//345 83//83 346//346
f 346//346 83//83 85//85
f 346//346 85//85 347//347
f 347//347 85//85 87//87
f 347//347 87//87 348//348
f 348//348 87//87 89//89
f 89//89 91//91 348//348
f 348//348 91//91 93//93
f 348//348 93//93 349//349
f 93//93 95//95 349//349
f 349//349 95//95 97//97
f 349//349 97//97 350//350
f 350//350 97//97 99//99
f 350//350 99//99 351//351
f 351//351 99//99 101//101
f 351//351 101//101 352//352
f 352//352 101//101 103//103
f 103//103 105//105 352//352
f 352//352 105//105 107//107
f 352//352 107//107 353//353
f 353//353 107//107 109//109
f 353//353 109//109 354//354
f 354//354 109//109 111//111
f 354//354 111//111 355//355
f 355//355 111//111 113//113
f 113//113 115//115 355//355
f 355//355 115//115 59//59
f 355//355 59//59 356//356
f 337//337 340//340 338//338
f 338//338 340//340 341//341
f 338//338 341//341 357//357
f 357//357 341//341 342//342
f 357//357 342//342 358//358
f 358//358 342//342 343//343
f 358//358 343//343 359//359
f 359//359 343//343 344//344
f 359//359 344//344 360//360
f 360//360 344//344 345//345
f 360//360 345//345 361//361
f 361//361 345//345 346//346
f 361//361 346//346 362//362
f 362//362 346//346 347//347
f 362//362 347//347 363//363
f 363//363 347//347 348//348
f 363//363 348//348 364//364
f 364//364 348//348 349//349
f 364//364 349//349 365//365
f 365//365 349//349 350//350
f 365//365 350//350 366//366
f 366//366 350//350 351//351
f 366//366 351//351 367//367
f 367//367 351//351 352//352
f 367//367 352//352 368//368
f 368//368 352//352 353//353
f 368//368 353//353 369//369
f 369//369 353//353 354//354
f 369//369 354//354 370//370
f 370//370 354//354 355//355
f 370//370 355//355 371//371
f 371//371 355//355 356//356
f 371//371 356//356 372//372
f 335//335 338//338 336//336
f 336//336 338//338 357//357
f 336//336 357//357 373//373
f 373//373 357//357 358//358
f 373//373 358//358 374//374
f 374//374 358//358 359//359
f 374//374 359//359 375//375
f 375//375 359//359 360//360
f 375//375 360//360 376//376
f 376//376 360//360 361//361
f 376//376 361//361 377//377
f 377//377 361//361 362//362
f 377//377 362//362 378//378
f 378//378 362//362 363//363
f 378//378 363//363 379//379
f 379//379 363//363 364//364
f 379//379 364//364 380//380
f 380//380 364//364 365//365
f 380//380 365//365 381//381
f 381//381 365//365 366//366
f 381//381 366//366 382//382
f 382//382 366//366 367//367
f 382//382 367//367 383//383
f 383//383 367//367 368//368
f 383//383 368//368 384//384
f 384//384 368//368 369//369
f 384//384 369//369 385//385
f 385//385 369//369 370//370
f 385//385 370//370 386//386
f 386//386 370//370 371//371
f 386//386 371//371 387//387
f 387//387 371//371 372//372
f 387//387 372//372 388//388
f 333//333 336//336 334//334
f 334//334 336//336 373//373
f 334//334 373//373 389//389
f 389//389 373//373 374//374
f 389//389 374//374 390//390
f 390//390 374//374 375//375
f 390//390 375//375 391//391
f 391//391 375//375 376//376
f 391//391 376//376 392//392
f 392//392 376//376 377//377
f 392//392 377//377 393//393
f 393//393 377//377 378//378
f 393//393 378//378 394//394
f 394//394 378//378 379//379
f 394//394 379//379 395//395
f 395//395 379//379 380//380
f 395//395 380//380 396//396
f 396//396 380//380 381//381
f 396//396 381//381 397//397
f 397//397 381//381 382//382
f 397//397 382//382 398//398
f 398//398 382//382 383//383
f 398//398 383//383 399//399
f 399//399 383//383 384//384
f 399//399 384//384 400//400
f 400//400 384//384 385//385
f 400//400 385//385 401//401
f 401//401 385//385 386//386
f 401//401 386//386 402//402
f 402//402 386//386 387//387
f 402//402 387//387 403//403
f 403//403 387//387 388//388
f 403//403 388//388 404//404
f 162//162 334//334 173//173
f 173//173 334//334 389//389
f 173//173 389//389 157//157
f 157//157 389//389 390//390
f 157//157 390//390 158//158
f 158//158 390//390 391//391
f 158//158 391//391 159//159
f 159//159 391//391 392//392
f 159//159 392//392 163//163
f 163//163 392//392 393//393
f 163//163 393//393 164//164
f 164//164 393//393 394//394
f 164//164 394//394 165//165
f 165//165 394//394 395//395
f 165//165 395//395 166//166
f 166//166 395//395 396//396
f 166//166 396//396 174//174
f 174//174 396//396 397//397
f 174//174 397//397 175//175
f 175//175 397//397 398//398
f 175//175 398//398 160//160
f 160//160 398//398 399//399
f 160//160 399//399 161//161
f 161//161 399//399 400//400
f 161//161 400//400 176//176
f 176//176 400//400 401//401
f 176//176 401//401 177//177
f 177//177 401//401 402//402
f 177//177 402//402 167//167
f 167//167 402//402 403//403
f 167//167 403//403 168//168
f 168//168 403//403 404//404
f 168//168 404//404 169//169
f 162//162 170//170 405//405
f 162//162 405//405 333//333
f 333//333 405//405 406//406
f 333//333 406//406 335//335
f 335//335 406//406 407//407
f 335//335 407//407 337//337
f 337//337 407//407 408//408
f 337//337 408//408 339//339
f 339//339 408//408 57//57
f 339//339 57//57 61//61
f 171//171 169//169 404//404
f 171//171 404//404 409//409
f 409//409 404//404 388//388
f 409//409 388//388 410//410
f 410//410 388//388 372//372
f 410//410 372//372 411//411
f 411//411 372//372 356//356
f 411//411 356//356 412//412
f 412//412 356//356 59//59
f 412//412 59//59 1//1
f 171//171 409//409 413//413
f 409//409 410//410 414//414
f 410//410 411//411 415//415
f 411//411 412//412 416//416
f 412//412 1//1 3//3
f 412//412 3//3 416//416
f 416//416 3//3 5//5
f 416//416 5//5 417//417
f 5//5 7//7 417//417
f 417//417 7//7 9//9
f 417//417 9//9 418//418
f 9//9 11//11 418//418
f 418//418 11//11 13//13
f 418//418 13//13 419//419
f 419//419 13//13 15//15
f 419//419 15//15 420//420
f 420//420 15//15 17//17
f 420//420 17//17 421//421
f 421//421 17//17 19//19
f 19//19 21//21 421//421
f 421//421 21//21 23//23
f 421//421 23//23 422//422
f 422//422 23//23 25//25
f 422//422 25//25 423//423
f 423//423 25//25 27//27
f 423//423 27//27 424//424
f 424//424 27//27 29//29
f 29//29 31//31 424//424
f 424//424 31//31 33//33
f 424//424 33//33 425//425
f 33//33 35//35 425//425
f 425//425 35//35 37//37
f 425//425 37//37 426//426
f 426//426 37//37 39//39
f 426//426 39//39 427//427
f 427//427 39//39 41//41
f 427//427 41//41 428//428
f 428//428 41//41 43//43
f 43//43 45//45 428//428
f 428//428 45//45 47//47
f 428//428 47//47 429//429
f 429//429 47//47 49//49
f 429//429 49//49 430//430
f 430//430 49//49 51//51
f 430//430 51//51 431//431
f 431//431 51//51 53//53
f 53//53 55//55 431//431
f 431//431 55//55 57//57
f 431//431 57//57 408//408
f 411//411 416//416 415//415
f 415//415 416//416 417//417
f 415//415 417//417 432//432
f 432//432 417//417 418//418
f 432//432 418//418 433//433
f 433//433 418//418 419//419
f 433//433 419//419 434//434
f 434//434 419//419 420//420
f 434//434 420//420 435//435
f 435//435 420//420 421//421
f 435//435 421//421 436//436
f 436//436 421//421 422//422
f 436//436 422//422 437//437
f 437//437 422//422 423//423
f 437//437 423//423 438//438
f 438//438 423//423 424//424
f 438//438 424//424 439//439
f 439//439 424//424 425//425
f 439//439 425//425 440//440
f 440//440 425//425 426//426
f 440//440 426//426 441//441
f 441//441 426//426 427//427
f 441//441 427//427 442//442
f 442//442 427//427 428//428
f 442//442 428//428 443//443
f 443//443 428//428 429//429
f 443//443 429//429 444//444
f 444//444 429//429 430//430
f 444//444 430//430 445//445
f 445//445 430//430 431//431
f 445//445 431//431 446//446
f 446//446 431//431 408//408
f 446//446 408//408 407//407
f 410//410 415//415 414//414
f 414//414 415//415 432//432
f 414//414 432//432 447//447
f 447//447 432//432 433//433
f 447//447 433//433 448//448
f 448//448 433//433 434//434
f 448//448 434//434 449//449
f 449//449 434//434 435//435
f 449//449 435//435 450//450
f 450//450 435//435 436//436
f 450//450 436//436 451//451
f 451//451 436//436 437//437
f 451//451 437//437 452//452
f 452//452 437//437 438//438
f 452//452 438//438 453//453
f 453//453 438//438 439//439
f 453//453 439//439 454//454
f 454//454 439//439 440//440
f 454//454 440//440 455//455
f 455//455 440//440 441//441
f 455//455 441//441 456//456
f 456//456 441//441 442//442
f 456//456 442//442 457//457
f 457//457 442//442 443//443
f 457//457 443//443 458//458
f 458//458 443//443 444//444
f 458//458 444//444 459//459
f 459//459 444//444 445//445
f 459//459 445//445 460//460
f 460//460 445//445 446//446
f 460//460 446//446 461//461
f 461//461 446//446 407//407
f 461//461 407//407 406//406
f 409//409 414//414 413//413
f 413//413 414//414 447//447
f 413//413 447//447 462//462
f 462//462 447//447 448//448
f 462//462 448//448 463//463
f 463//463 448//448 449//449
f 463//463 449//449 464//464
f 464//464 449//449 450//450
f 464//464 450//450 465//465
f 465//465 450//450 451//451
f 465//465 451//451 466//466
f 466//466 451//451 452//452
f 466//466 452//452 467//467
f 467//467 452//452 453//453
f 467//467 453//453 468//468
f 468//468 453//453 454//454
f 468//468 454//454 469//469
f 469//469 454//454 455//455
f 469//469 455//455 470//470
f 470//470 455//455 456//456
f 470//470 456//456 471//471
f 471//471 456//456 457//457
f 471//471 457//457 472//472
f 472//472 457//457 458//458
f 472//472 458//458 473//473
f 473//473 458//458 459//459
f 473//473 459//459 474//474
f 474//474 459//459 460//460
f 474//474 460//460 475//475
f 475//475 460//460 461//461
f 475//475 461//461 476//476
f 476//476 461//461 406//406
f 476//476 406//406 405//405
f 171//171 413//413 172//172
f 172//172 413//413 462//462
f 172//172 462//462 156//156
f 156//156 462//462 463//463
f 156//156 463//463 155//155
f 155//155 463//463 464//464
f 155//155 464//464 187//187
f 187//187 464//464 465//465
f 187//187 465//465 188//188
f 188//188 465//465 466//466
f 188//188 466//466 186//186
f 186//186 466//466 467//467
f 186//186 467//467 178//178
f 178//178 467//467 468//468
f 178//178 468//468 179//179
f 179//179 468//468 469//469
f 179//179 469//469 180//180
f 180//180 469//469 470//470
f 180//180 470//470 181//181
f 181//181 470//470 471//471
f 181//181 471//471 182//182
f 182//182 471//471 472//472
f 182//182 472//472 183//183
f 183//183 472//472 473//473
f 183//183 473//473 184//184
f 184//184 473//473 474//474
f 184//184 474//474 185//185
f 185//185 474//474 475//475
f 185//185 475//475 153//153
f 153//153 475//475 476//476
f 153//153 476//476 154//154
f 154//154 476//476 405//405
f 154//154 405//405 170//170
# 948 faces, 0 coords texture

# End of File
