<?xml version="1.0" encoding="UTF-8"?>
<COLLADA xmlns="http://www.collada.org/2005/11/COLLADASchema" version="1.4.1">
    <asset>
        <contributor>
            <author>VCGLab</author>
            <authoring_tool>VCGLib | MeshLab</authoring_tool>
        </contributor>
        <created>周一 7月 4 08:43:55 2022 GMT</created>
        <modified>周一 7月 4 08:43:55 2022 GMT</modified>
        <up_axis>Y_UP</up_axis>
    </asset>
    <library_geometries>
        <geometry id="shape0-lib" name="shape0">
            <mesh>
                <source id="shape0-lib-positions" name="position">
                    <float_array id="shape0-lib-positions-array" count="1503">0.0447286 -0.0365 0.0735391 0.0439472 -0.0365 0.0748925 0.04275 -0.0365 0.0758971 0.045 -0.0365 0.0694781 0.045 -0.0365 0.072 0.0363 -0.0365 0.0694781 0.0370528 -0.0365 0.0748925 0.0363 -0.0365 0.0736155 0.0412814 -0.0365 0.0764316 0.0397186 -0.0365 0.0764316 0.03825 -0.0365 0.0758971 -0.029 -0.0367739 0.0642517 -0.029 -0.0365 0.0694781 -0.0388819 -0.0367739 0.0642517 -0.038287 -0.0365 0.0694781 -0.029 0.0365 0.0694781 -0.029 0.0367739 0.0642517 -0.038287 0.0365 0.0694781 -0.0388819 0.0367739 0.0642517 0.045 0.0365 0.072 0.045 0.0365 0.0694781 0.036 0.0365 0.0694781 0.036 0.0365 0.072 0.0362714 0.0365 0.0735391 0.0447286 0.0365 0.0735391 0.04275 0.0365 0.0758971 0.0439472 0.0365 0.0748925 0.0397186 0.0365 0.0764316 0.0412814 0.0365 0.0764316 0.03825 0.0365 0.0758971 0.0370528 0.0365 0.0748925 -0.03575 -0.0365 0.0758971 -0.029 -0.0365 0.072 -0.0292714 -0.0365 0.0735391 -0.038 -0.0365 0.072 -0.0377286 -0.0365 0.0735391 -0.0369472 -0.0365 0.0748925 -0.0327186 -0.0365 0.0764316 -0.0342814 -0.0365 0.0764316 -0.03125 -0.0365 0.0758971 -0.0300528 -0.0365 0.0748925 0.045 -0.0367739 0.0642517 0.0363 -0.0367739 0.0642517 -0.029 -0.0374835 0.0575 0.00668556 -0.040883 0.0251565 0.0035 -0.0408994 0.025 0.045 -0.0436517 -0.00118642 -0.045 -0.0436517 -0.00118642 0.000314443 -0.040883 0.0251565 -0.00284044 -0.0408338 0.0256245 0.0159372 -0.0406394 0.0274739 0.0129343 -0.0407523 0.0263994 0.00984044 -0.0408338 0.0256245 -0.00593425 -0.0407523 0.0263994 -0.00893721 -0.0406394 0.0274739 -0.0118204 -0.0404961 0.0288376 0.0241178 -0.0401241 0.0323772 0.021556 -0.0403237 0.0304772 0.0188204 -0.0404961 0.0288376 0.0305228 -0.0393813 0.039444 0.0286228 -0.0396506 0.0368822 0.026481 -0.0398989 0.034519 -0.014556 -0.0403237 0.0304772 -0.0171178 -0.0401241 0.0323772 -0.045 -0.0424234 0.0105 -0.019481 -0.0398989 0.034519 -0.0216228 -0.0396506 0.0368822 0.0346006 -0.0384751 0.0480657 0.0335261 -0.0387907 0.0450628 0.0321624 -0.0390938 0.0421796 -0.0235228 -0.0393813 0.039444 -0.0251624 -0.0390938 0.0421796 -0.0265261 -0.0387907 0.0450628 0.0353755 -0.0381499 0.0511596 0.0358435 -0.0378184 0.0543144 -0.0276006 -0.0384751 0.0480657 -0.0283755 -0.0381499 0.0511596 -0.0288435 -0.0378184 0.0543144 0.036 -0.0373473 0.0587963 0.036 -0.0374835 0.0575 -0.015264 0.0149638 -0.0045 -0.044 0.0406682 -0.0045 -0.0114638 0.018764 -0.0045 -0.00691321 0.0216233 -0.0045 -0.044 -0.0406682 -0.0045 -0.0198983 -0.0053405 -0.0045 -0.0181233 -0.0104132 -0.0045 -0.0181233 0.0104132 -0.0045 -0.0198983 0.0053405 -0.0045 -0.0205 0 -0.0045 0.0251233 0.0104132 -0.0045 0.022264 0.0149638 -0.0045 0.044 0.0406682 -0.0045 0.0184638 0.018764 -0.0045 0.0139132 0.0216233 -0.0045 -0.015264 -0.0149638 -0.0045 -0.0114638 -0.018764 -0.0045 -0.00691321 -0.0216233 -0.0045 0.0088405 0.0233983 -0.0045 0.0035 0.024 -0.0045 -0.0018405 0.0233983 -0.0045 -0.0018405 -0.0233983 -0.0045 0.0035 -0.024 -0.0045 0.044 -0.0406682 -0.0045 0.0088405 -0.0233983 -0.0045 0.0139132 -0.0216233 -0.0045 0.0184638 -0.018764 -0.0045 0.022264 -0.0149638 -0.0045 0.0251233 -0.0104132 -0.0045 0.0268983 -0.0053405 -0.0045 0.0275 0 -0.0045 0.0268983 0.0053405 -0.0045 -0.00593425 0.0407523 0.0263994 -0.00284044 0.0408338 0.0256245 -0.045 0.0436517 -0.00118642 0.000314443 0.040883 0.0251565 0.045 0.0436517 -0.00118642 0.0035 0.0408994 0.025 0.00668556 0.040883 0.0251565 0.00984044 0.0408338 0.0256245 -0.014556 0.0403237 0.0304772 -0.0118204 0.0404961 0.0288376 -0.00893721 0.0406394 0.0274739 0.0129343 0.0407523 0.0263994 0.0159372 0.0406394 0.0274739 0.0188204 0.0404961 0.0288376 0.021556 0.0403237 0.0304772 0.0241178 0.0401241 0.0323772 0.026481 0.0398989 0.034519 -0.0235228 0.0393813 0.039444 -0.0216228 0.0396506 0.0368822 -0.045 0.0424234 0.0105 -0.019481 0.0398989 0.034519 -0.0171178 0.0401241 0.0323772 0.0286228 0.0396506 0.0368822 0.0305228 0.0393813 0.039444 0.0321624 0.0390938 0.0421796 -0.0276006 0.0384751 0.0480657 -0.0265261 0.0387907 0.0450628 -0.0251624 0.0390938 0.0421796 0.0335261 0.0387907 0.0450628 0.0346006 0.0384751 0.0480657 0.045 0.0367739 0.0642517 0.0353755 0.0381499 0.0511596 -0.029 0.0374835 0.0575 -0.0288435 0.0378184 0.0543144 -0.0283755 0.0381499 0.0511596 0.0358435 0.0378184 0.0543144 0.036 0.0374835 0.0575 0.036 0.0367739 0.0642517 -0.038 0.0365 0.072 -0.029 0.0365 0.072 -0.0377286 0.0365 0.0735391 -0.0292714 0.0365 0.0735391 -0.03125 0.0365 0.0758971 -0.0300528 0.0365 0.0748925 -0.0327186 0.0365 0.0764316 -0.0342814 0.0365 0.0764316 -0.03575 0.0365 0.0758971 -0.0369472 0.0365 0.0748925 -0.014556 0.0305 0.0845228 -0.019481 0.0305 0.080481 0.0335261 0.0305 0.0699372 0.04 0.0305 0.00449999 0.045 0.0305 -0.000500001 0.036 0.0305 0.0575 0.045 0.0305 0.072 0.036 0.0305 0.072 0.0447286 0.0305 0.0735391 0.0353755 0.0305 0.0638404 -0.029 0.0305 0.0575 -0.038 0.0305 0.072 -0.04 0.0305 0.00449999 -0.045 0.0305 0.0105 -0.045 0.0305 -0.000500001 -0.0283755 0.0305 0.0638404 -0.0265261 0.0305 0.0699372 -0.029 0.0305 0.072 -0.0292714 0.0305 0.0735391 -0.0377286 0.0305 0.0735391 -0.0300528 0.0305 0.0748925 -0.03125 0.0305 0.0758971 -0.0235228 0.0305 0.075556 -0.03575 0.0305 0.0758971 -0.0369472 0.0305 0.0748925 -0.0342814 0.0305 0.0764316 -0.0327186 0.0305 0.0764316 0.0439472 0.0305 0.0748925 0.04275 0.0305 0.0758971 0.0412814 0.0305 0.0764316 0.026481 0.0305 0.080481 0.021556 0.0305 0.0845228 0.0305228 0.0305 0.075556 0.0159372 0.0305 0.0875261 0.00984044 0.0305 0.0893755 0.0035 0.0305 0.09 0.0370528 0.0305 0.0748925 0.0362714 0.0305 0.0735391 0.03825 0.0305 0.0758971 0.0397186 0.0305 0.0764316 -0.00284044 0.0305 0.0893755 -0.00893721 0.0305 0.0875261 0.042 -0.0285 0.0025 0.042 0.0285 0.0025 -0.042 -0.0285 0.0025 -0.042 0.0285 0.0025 0.045 -0.0305 0.072 0.045 -0.0305 -0.000500001 0.04 -0.0305 0.00449999 -0.038 -0.0305 0.072 -0.029 -0.0305 0.072 -0.029 -0.0305 0.0575 0.036 -0.0305 0.072 0.036 -0.0305 0.0575 -0.04 -0.0305 0.00449999 -0.045 -0.0305 0.0105 -0.0377286 -0.0305 0.0735391 -0.0369472 -0.0305 0.0748925 -0.03575 -0.0305 0.0758971 -0.045 -0.0305 -0.000500001 -0.0283755 -0.0305 0.0638404 -0.0342814 -0.0305 0.0764316 -0.0327186 -0.0305 0.0764316 0.0362714 -0.0305 0.0735391 0.0370528 -0.0305 0.0748925 0.0447286 -0.0305 0.0735391 -0.0292714 -0.0305 0.0735391 -0.0300528 -0.0305 0.0748925 -0.03125 -0.0305 0.0758971 -0.0265261 -0.0305 0.0699372 -0.0235228 -0.0305 0.075556 -0.019481 -0.0305 0.080481 -0.014556 -0.0305 0.0845228 -0.00893721 -0.0305 0.0875261 -0.00284044 -0.0305 0.0893755 0.0335261 -0.0305 0.0699372 0.0353755 -0.0305 0.0638404 0.00984044 -0.0305 0.0893755 0.0035 -0.0305 0.09 0.0159372 -0.0305 0.0875261 0.021556 -0.0305 0.0845228 0.026481 -0.0305 0.080481 0.0397186 -0.0305 0.0764316 0.0412814 -0.0305 0.0764316 0.03825 -0.0305 0.0758971 0.04275 -0.0305 0.0758971 0.0439472 -0.0305 0.0748925 0.0305228 -0.0305 0.075556 0.045 0.0435889 -0.00218505 0.045 0.0432011 -0.00310748 0.045 0.0429042 -0.0035 0.045 -0.0429042 -0.0035 0.045 -0.0435889 -0.00218505 0.045 -0.0432011 -0.00310748 -0.045 0.0429042 -0.0035 -0.045 0.0435889 -0.00218505 -0.045 0.0432011 -0.00310748 -0.045 -0.0435889 -0.00218505 -0.045 -0.0432011 -0.00310748 -0.045 -0.0429042 -0.0035 0.0275 6.12323e-20 -0.0045 0.0268983 0.0053405 -0.007 0.0251233 0.0104132 -0.007 0.022264 0.0149638 -0.007 0.0184638 0.018764 -0.007 0.0139132 0.0216233 -0.007 0.0088405 0.0233983 -0.007 0.0035 0.024 -0.007 -0.0018405 0.0233983 -0.007 -0.00691321 0.0216233 -0.007 -0.0114638 0.018764 -0.007 -0.015264 0.0149638 -0.007 -0.0181233 0.0104132 -0.007 -0.0198983 0.0053405 -0.007 -0.0205 3.00038e-18 -0.007 -0.0205 3.00038e-18 -0.0045 -0.0198983 -0.0053405 -0.007 -0.0181233 -0.0104132 -0.007 -0.015264 -0.0149638 -0.007 -0.0114638 -0.018764 -0.007 -0.00691321 -0.0216233 -0.007 -0.0018405 -0.0233983 -0.007 0.0035 -0.024 -0.007 0.0088405 -0.0233983 -0.007 0.0139132 -0.0216233 -0.007 0.0184638 -0.018764 -0.007 0.022264 -0.0149638 -0.007 0.0251233 -0.0104132 -0.007 0.0268983 -0.0053405 -0.007 0.0275 6.12323e-20 -0.007 -0.02 2.93915e-18 -0.0075 -0.0194108 0.00522924 -0.0075 0.0035 6.12323e-20 -0.0075 -0.014873 -0.014652 -0.0075 -0.0176728 -0.0101963 -0.0075 -0.0194108 -0.00522924 -0.0075 -0.00172924 -0.0229108 -0.0075 -0.00669627 -0.0211728 -0.0075 -0.011152 -0.018373 -0.0075 0.0136963 -0.0211728 -0.0075 0.00872924 -0.0229108 -0.0075 0.0035 -0.0235 -0.0075 0.0246728 -0.0101963 -0.0075 0.021873 -0.014652 -0.0075 0.018152 -0.018373 -0.0075 0.0264108 0.00522924 -0.0075 0.027 6.12323e-20 -0.0075 0.0264108 -0.00522924 -0.0075 0.018152 0.018373 -0.0075 0.021873 0.014652 -0.0075 0.0246728 0.0101963 -0.0075 0.0035 0.0235 -0.0075 0.00872924 0.0229108 -0.0075 0.0136963 0.0211728 -0.0075 -0.011152 0.018373 -0.0075 -0.00669627 0.0211728 -0.0075 -0.00172924 0.0229108 -0.0075 -0.0176728 0.0101963 -0.0075 -0.014873 0.014652 -0.0075 0.036 -0.0362 0.072 0.0360684 -0.0362684 0.0727814 0.036 -0.0364911 0.0640744 0.036 -0.0362 0.0694781 0.0446489 -0.0425316 -0.00385108 0.0446583 0.0425434 -0.00384171 0.0443711 -0.0421134 -0.00412892 0.0441669 -0.0416548 -0.00433313 0.044042 -0.0411685 -0.00445799 0.044042 0.0411685 -0.00445799 0.0441669 0.0416548 -0.00433313 0.0443711 0.0421134 -0.00412892 -0.0446583 -0.0425434 -0.00384171 -0.0446489 0.0425316 -0.00385108 -0.044042 -0.0411685 -0.00445799 -0.0441669 -0.0416548 -0.00433313 -0.0443711 -0.0421134 -0.00412892 -0.0443711 0.0421134 -0.00412892 -0.0441669 0.0416548 -0.00433313 -0.044042 0.0411685 -0.00445799 -0.041618 -0.0296756 0.00288197 -0.0419021 -0.029118 0.00259788 -0.040618 0.0304021 0.00388196 -0.0411756 0.030118 0.00332443 -0.040618 -0.0304021 0.00388196 -0.0411756 -0.030118 0.00332443 -0.0419754 0.0288129 0.00252462 -0.0419021 0.029118 0.00259788 -0.041618 0.0296756 0.00288197 -0.0419754 -0.0288129 0.00252462 0.0419021 -0.029118 0.00259788 0.041618 -0.0296756 0.00288197 0.040618 0.0304021 0.00388196 0.0411756 0.030118 0.00332443 0.041618 0.0296756 0.00288197 0.0419021 0.029118 0.00259788 0.0419754 -0.0288129 0.00252462 0.0411756 -0.030118 0.00332443 0.040618 -0.0304021 0.00388196 0.0419754 0.0288129 0.00252462 -0.02 5.27928e-18 -0.0075 -0.0205 5.3903e-18 -0.007 0.0353755 -0.10275 0.0511596 0.036 -0.10275 0.0575 0.0335261 -0.10275 0.0450628 0.0305228 -0.10275 0.039444 0.026481 -0.10275 0.034519 0.021556 -0.10275 0.0304772 0.0159372 -0.10275 0.0274739 0.00984044 -0.10275 0.0256245 -0.00284044 -0.10275 0.0256245 0.0035 -0.10275 0.025 -0.00893721 -0.10275 0.0274739 -0.014556 -0.10275 0.0304772 -0.019481 -0.10275 0.034519 -0.0235228 -0.10275 0.039444 -0.0265261 -0.10275 0.0450628 -0.0283755 -0.10275 0.0511596 0.0353755 -0.10275 0.0638404 0.0335261 -0.10275 0.0699372 0.0305228 -0.10275 0.075556 0.026481 -0.10275 0.080481 0.021556 -0.10275 0.0845228 0.0159372 -0.10275 0.0875261 0.00984044 -0.10275 0.0893755 0.0035 -0.10275 0.09 -0.00284044 -0.10275 0.0893755 -0.00893721 -0.10275 0.0875261 -0.014556 -0.10275 0.0845228 -0.019481 -0.10275 0.080481 -0.0235228 -0.10275 0.075556 -0.0265261 -0.10275 0.0699372 -0.0283755 -0.10275 0.0638404 -0.029 -0.10275 0.0575 0.0035 -0.10275 0.0575 -0.0283755 0.10275 0.0511596 -0.029 0.10275 0.0575 -0.0265261 0.10275 0.0450628 -0.0235228 0.10275 0.039444 -0.019481 0.10275 0.034519 -0.014556 0.10275 0.0304772 -0.00893721 0.10275 0.0274739 -0.00284044 0.10275 0.0256245 0.00984044 0.10275 0.0256245 0.0035 0.10275 0.025 0.0159372 0.10275 0.0274739 0.021556 0.10275 0.0304772 0.026481 0.10275 0.034519 0.0305228 0.10275 0.039444 0.0335261 0.10275 0.0450628 0.0353755 0.10275 0.0511596 -0.0283755 0.10275 0.0638404 -0.0265261 0.10275 0.0699372 -0.0235228 0.10275 0.075556 -0.019481 0.10275 0.080481 -0.014556 0.10275 0.0845228 -0.00893721 0.10275 0.0875261 -0.00284044 0.10275 0.0893755 0.0035 0.10275 0.09 0.00984044 0.10275 0.0893755 0.0159372 0.10275 0.0875261 0.021556 0.10275 0.0845228 0.026481 0.10275 0.080481 0.0305228 0.10275 0.075556 0.0335261 0.10275 0.0699372 0.0353755 0.10275 0.0638404 0.036 0.10275 0.0575 0.0035 0.10275 0.0575 0.0035 -0.0323 0.0195 0.0035 -0.0365 0.0195 0.00422248 -0.0323 0.0196351 0.00422248 -0.0365 0.0196351 0.00484739 -0.0323 0.020022 0.00484739 -0.0365 0.020022 0.00529033 -0.0323 0.0206085 0.00529033 -0.0365 0.0206085 0.00549147 -0.0323 0.0213155 0.00549147 -0.0365 0.0213155 0.00542365 -0.0323 0.0220473 0.00542365 -0.0365 0.0220473 0.00509603 -0.0323 0.0227053 0.00509603 -0.0365 0.0227053 0.00455286 -0.0323 0.0232004 0.00455286 -0.0365 0.0232004 0.0038675 -0.0323 0.0234659 0.0038675 -0.0365 0.0234659 0.0031325 -0.0323 0.0234659 0.0031325 -0.0365 0.0234659 0.00244714 -0.0323 0.0232004 0.00244714 -0.0365 0.0232004 0.00190397 -0.0323 0.0227053 0.00190397 -0.0365 0.0227053 0.00157635 -0.0323 0.0220473 0.00157635 -0.0365 0.0220473 0.00150853 -0.0323 0.0213155 0.00150853 -0.0365 0.0213155 0.00170967 -0.0323 0.0206085 0.00170967 -0.0365 0.0206085 0.00215261 -0.0323 0.020022 0.00215261 -0.0365 0.020022 0.00277752 -0.0323 0.0196351 0.00277752 -0.0365 0.0196351 0.0035 -0.0323 0.0215 0.0035 -0.0365 0.0215 0.0035 0.0323 0.0235 0.0035 0.0365 0.0235 0.00422248 0.0323 0.0233649 0.00422248 0.0365 0.0233649 0.00484739 0.0323 0.022978 0.00484739 0.0365 0.022978 0.00529033 0.0323 0.0223915 0.00529033 0.0365 0.0223915 0.00549147 0.0323 0.0216845 0.00549147 0.0365 0.0216845 0.00542365 0.0323 0.0209527 0.00542365 0.0365 0.0209527 0.00509603 0.0323 0.0202947 0.00509603 0.0365 0.0202947 0.00455286 0.0323 0.0197996 0.00455286 0.0365 0.0197996 0.0038675 0.0323 0.019534 0.0038675 0.0365 0.019534 0.0035 0.0323 0.0195 0.0035 0.0365 0.0195 0.0031325 0.0323 0.019534 0.0031325 0.0365 0.019534 0.00244714 0.0323 0.0197996 0.00244714 0.0365 0.0197996 0.00190397 0.0323 0.0202947 0.00190397 0.0365 0.0202947 0.00157635 0.0323 0.0209527 0.00157635 0.0365 0.0209527 0.00150853 0.0323 0.0216845 0.00150853 0.0365 0.0216845 0.00170967 0.0323 0.0223915 0.00170967 0.0365 0.0223915 0.00215261 0.0323 0.022978 0.00215261 0.0365 0.022978 0.00277752 0.0323 0.0233649 0.00277752 0.0365 0.0233649 0.0035 0.0323 0.0215 0.0035 0.0365 0.0215</float_array>
                    <technique_common>
                        <accessor count="501" source="#shape0-lib-positions-array" stride="3">
                            <param name="X" type="float"/>
                            <param name="Y" type="float"/>
                            <param name="Z" type="float"/>
                        </accessor>
                    </technique_common>
                </source>
                <source id="shape0-lib-normals" name="normal">
                    <float_array id="shape0-lib-normals-array" count="2946">0 -1 0 0 -1 0 0 -1 0 0 -1 0 0 -1 0 0 -1 0 0 -1 0 0 -1 0 0 -1 0 0 -0.99863 0.0523361 0 -0.99863 0.0523361 0 0.99863 0.0523361 0 0.99863 0.0523361 0 1 0 0 1 0 0 1 0 0 1 0 0 1 0 0 1 0 0 1 0 0 1 0 0 1 0 0 1 0 0 -1 0 0 -1 0 0 -1 0 0 -1 0 0 -1 0 0 -1 0 0 -1 0 0 -1 0 0 -1 0 0 -1 0 0 -0.99863 0.0523361 0 -0.99863 0.0523361 0 -0.994522 0.104528 8.41258e-07 -0.994522 0.10453 0 -0.994522 0.104529 -7.95104e-07 -0.994522 0.10453 6.24309e-07 -0.994522 0.104528 -9.02252e-07 -0.994522 0.104528 3.2833e-07 -0.994522 0.104529 -6.4455e-07 -0.994522 0.104528 -3.12925e-07 -0.994522 0.104529 8.11649e-07 -0.994522 0.104527 -6.58778e-07 -0.994522 0.104529 -1.07975e-08 -0.994522 0.104528 -4.05024e-07 -0.994522 0.104528 7.1021e-07 -0.994522 0.104529 -5.77778e-07 -0.994522 0.104528 7.22163e-07 -0.994522 0.104529 0 -0.994522 0.104529 3.70977e-07 -0.994522 0.104528 5.20749e-08 -0.994522 0.104529 -3.3311e-08 -0.994522 0.104529 -6.49445e-08 -0.994522 0.104529 -5.18011e-07 -0.994522 0.104529 -1.16088e-06 -0.994522 0.104528 1.35467e-06 -0.994522 0.104529 -9.53683e-07 -0.994522 0.104528 4.23436e-07 -0.994522 0.104528 7.49411e-07 -0.994522 0.104528 -9.36992e-07 -0.994522 0.104529 -6.17217e-07 -0.994522 0.104528 1.60851e-07 -0.994522 0.104528 -4.10512e-07 -0.994522 0.104529 7.91091e-07 -0.994522 0.104528 3.48968e-07 -0.994522 0.104528 -1.34659e-07 -0.994522 0.104529 3.68239e-07 -0.994522 0.104529 7.58151e-07 -0.994522 0.104529 0 -0.994522 0.104529 1.39552e-06 -0.994522 0.104526 -8.35285e-07 -0.994522 0.104529 0 0 -1 0 0 -1 0 0 -1 0 0 -1 0 0 -1 0 0 -1 0 0 -1 0 0 -1 0 0 -1 0 0 -1 0 0 -1 0 0 -1 0 0 -1 0 0 -1 0 0 -1 0 0 -1 0 0 -1 0 0 -1 0 0 -1 0 0 -1 0 0 -1 0 0 -1 0 0 -1 0 0 -1 0 0 -1 0 0 -1 0 0 -1 0 0 -1 0 0 -1 0 0 -1 0 0 -1 0 0 -1 -3.1097e-07 0.994522 0.104529 6.24309e-07 0.994522 0.104528 0 0.994522 0.104529 -9.83308e-07 0.994522 0.104527 8.04792e-07 0.994522 0.10453 -6.4455e-07 0.994522 0.104528 3.67665e-07 0.994522 0.104528 -6.58778e-07 0.994522 0.104529 8.11649e-07 0.994522 0.104527 3.2833e-07 0.994522 0.104529 -8.63694e-07 0.994522 0.104528 7.1021e-07 0.994522 0.104529 -4.05024e-07 0.994522 0.104528 -5.75865e-08 0.994522 0.104528 0 0.994522 0.104529 4.27547e-07 0.994522 0.104528 -5.18011e-07 0.994522 0.104529 -3.63957e-08 0.994522 0.104529 0 0.994522 0.104529 5.20749e-08 0.994522 0.104529 6.99596e-07 0.994522 0.104529 -6.33181e-07 0.994522 0.104528 -9.53683e-07 0.994522 0.104528 7.81324e-07 0.994522 0.104528 -9.36992e-07 0.994522 0.104529 7.49411e-07 0.994522 0.104528 1.31704e-06 0.994522 0.104529 -1.20388e-06 0.994522 0.104528 4.25328e-08 0.994522 0.104528 8.29381e-07 0.994522 0.104528 0 0.994522 0.104528 7.58151e-07 0.994522 0.104529 -4.82102e-08 0.994522 0.104528 -6.07429e-07 0.994522 0.104529 3.48968e-07 0.994522 0.104528 -4.10512e-07 0.994522 0.104529 -8.35285e-07 0.994522 0.104529 0 0.994522 0.104528 0 0.99863 0.0523361 0 0.99863 0.0523361 0 1 0 0 1 0 0 1 0 0 1 0 0 1 0 0 1 0 0 1 0 0 1 0 0 1 0 0 1 0 0 -1 0 0 -1 0 0 -1 0 0 -1 0 0 -1 0 0 -1 0 0 -1 0 0 -1 0 0 -1 0 0 -1 0 0 -1 0 0 -1 0 0 -1 0 0 -1 0 0 -1 0 0 -1 0 0 -1 0 0 -1 0 0 -1 0 0 -1 0 0 -1 0 0 -1 0 0 -1 0 0 -1 0 0 -1 0 0 -1 0 0 -1 0 0 -1 0 0 -1 0 0 -1 0 0 -1 0 0 -1 0 0 -1 0 0 -1 0 0 -1 0 0 -1 0 0 -1 0 0 -1 0 0 -1 0 0 -1 0 0 0 1 0 0 1 0 1 0 0 1 0 0 1 0 0 1 0 0 1 0 0 1 0 0 1 0 0 1 0 0 1 0 0 1 0 0 1 0 0 1 0 0 1 0 0 1 0 0 1 0 0 1 0 0 1 0 0 1 0 0 1 0 0 1 0 0 1 0 0 1 0 0 1 0 0 1 0 0 1 0 0 1 0 0 1 0 0 1 0 0 1 0 0 1 0 0 1 0 0 1 0 0 1 0 0 1 0 0 1 0 0 1 0 0 1 0 0 1 0 0 1 0 0 1 0 1 0 0 1 0 0 1 0 0 1 0 0 1 0 0 1 0 0 1 0 0 1 0 0 1 0 0 1 0 0 1 0 0 1 0 0 1 0 0 1 0 0 1 0 0 1 0 0 -1 0 0 -1 0 0 -1 0 0 -1 0 0 -1 0 0 -1 0 0 -1 0 0 -1 0 0 -1 0 0 -1 0 0 -1 0 0 -1 0 0 0.993712 0.111964 0 0.943883 0.330279 0 0.943883 0.330279 0 0.846724 0.532032 0 0.846724 0.532032 0 0.707107 0.707107 0 0.707107 0.707107 0 0.532032 0.846724 0 0.532032 0.846724 0 0.330279 0.943883 0 0.330279 0.943883 0 0.111965 0.993712 0 0.111965 0.993712 0 -0.111965 0.993712 0 -0.111965 0.993712 0 -0.330279 0.943883 0 -0.330279 0.943883 0 -0.532032 0.846724 0 -0.532032 0.846724 0 -0.707107 0.707107 0 -0.707107 0.707107 0 -0.846724 0.532032 0 -0.846724 0.532032 0 -0.943883 0.330279 0 -0.943883 0.330279 0 -0.993712 0.111965 0 -0.993712 0.111965 0 -0.993712 -0.111965 0 -0.993712 -0.111965 0 -0.943883 -0.330279 0 -0.943883 -0.330279 0 -0.846724 -0.532032 0 -0.846724 -0.532032 0 -0.707107 -0.707107 0 -0.707107 -0.707107 0 -0.532032 -0.846724 0 -0.532032 -0.846724 0 -0.330279 -0.943883 0 -0.330279 -0.943883 0 -0.111965 -0.993712 0 -0.111965 -0.993712 0 0.111965 -0.993712 0 0.111965 -0.993712 0 0.330279 -0.943883 0 0.330279 -0.943883 0 0.532032 -0.846724 0 0.532032 -0.846724 0 0.707107 -0.707107 0 0.707107 -0.707107 0 0.846724 -0.532032 0 0.846724 -0.532032 0 0.943883 -0.330279 0 0.943883 -0.330279 0 0.993712 -0.111964 0 0.993712 -0.111964 0 0.993712 0.111964 0 0 0 -1 0 0 -1 0 0 -1 0 0 -1 0 0 -1 0 0 -1 0 0 -1 0 0 -1 0 0 -1 0 0 -1 0 0 -1 0 0 -1 0 0 -1 0 0 -1 0 0 -1 0 0 -1 0 0 -1 0 0 -1 0 0 -1 0 0 -1 0 0 -1 0 0 -1 0 0 -1 0 0 -1 0 0 -1 0 0 -1 0 0 -1 0 0 -1 -0.993585 0 0.113091 -0.993585 3.94156e-07 0.113091 -0.993585 4.19892e-07 0.113091 -0.993585 0 0.113092 -0.866024 0.00224086 0.499998 -0.984808 0 0.173648 -0.995744 0.023334 0.0891595 -0.963623 -0.0011904 0.267262 -0.861455 0 0.507833 -0.64279 0 0.766042 -0.64279 0 0.766042 -0.342011 0 0.939696 -0.342011 0 0.939696 0 0 1 0 0 1 0.342011 0 0.939696 0.342011 0 0.939696 0.64279 0 0.766042 0.64279 0 0.766042 0.866026 0 0.499999 0.866026 0 0.499999 0.984808 0 0.173648 0.984808 0 0.173648 -1 0 0 -1 0 0 -1 0 0 -1 0 0 -1 0 0 1 0 0 1 0 0 1 0 0 1 0 0 0.984808 0 0.173648 0.984808 0 0.173648 0.866026 0 0.499999 0.866026 0 0.499999 0.64279 0 0.766042 0.64279 0 0.766042 0.342011 0 0.939696 0.342011 0 0.939696 0 0 1 0 0 1 -0.342011 0 0.939696 -0.342011 0 0.939696 -0.642791 0 0.766041 -0.642791 0 0.766041 -0.866026 0 0.499999 -0.866026 0 0.499999 -0.984808 0 0.173648 -0.984808 0 0.173648 0.984808 0 0.173648 0.984808 0 0.173648 0.866026 0 0.499999 0.866026 0 0.499999 0.64279 0 0.766042 0.64279 0 0.766042 0.342011 0 0.939696 0.342011 0 0.939696 0 0 1 0 0 1 -0.342011 0 0.939696 -0.342011 0 0.939696 -0.642791 0 0.766041 -0.642791 0 0.766041 -0.866026 0 0.499999 -0.866026 0 0.499999 -0.984808 0 0.173648 -0.984808 0 0.173648 1 0 0 1 0 0 1 0 0 1 0 0 -1 0 0 -1 0 0 -1 0 0 -1 0 0 0.984808 0 0.173648 0.984808 0 0.173648 0.866026 0 0.499999 0.866026 0 0.499999 0.64279 0 0.766042 0.64279 0 0.766042 0.342011 0 0.939696 0.342011 0 0.939696 0 0 1 0 0 1 -0.342011 0 0.939696 -0.342011 0 0.939696 -0.64279 0 0.766042 -0.64279 0 0.766042 -0.866026 0 0.499999 -0.866026 0 0.499999 -0.984808 0 0.173648 -0.984808 0 0.173648 -0.993585 0 0.113091 -0.993585 -2.81043e-07 0.113091 -0.993585 -4.27259e-07 0.113091 -0.993585 0 0.113092 0.7071 -6.33498e-06 -0.707114 0.707107 0 -0.707107 0.707107 0 -0.707107 0.707099 6.52921e-06 -0.707114 0.707105 -2.97741e-06 -0.707109 0.707117 3.53888e-06 -0.707096 0.707107 0 -0.707107 0.707107 0 -0.707107 0.707117 -3.53888e-06 -0.707096 0.707105 2.98843e-06 -0.707109 -0.7071 -6.52921e-06 -0.707114 -0.707107 0 -0.707107 -0.707107 0 -0.707107 -0.7071 6.33498e-06 -0.707114 -0.707107 0 -0.707107 -0.707117 3.53888e-06 -0.707096 -0.707105 -2.98843e-06 -0.707109 -0.707105 2.97741e-06 -0.707109 -0.707117 -3.53888e-06 -0.707096 -0.707107 0 -0.707107 -0.707107 4.24739e-06 0.707106 -0.707106 -6.56988e-06 0.707107 -0.707106 6.68152e-06 0.707107 -0.707106 6.56988e-06 0.707107 -0.707106 -6.92898e-06 0.707107 -0.707106 -4.83757e-06 0.707107 -0.707106 -1.82421e-07 0.707107 -0.707107 -4.24739e-06 0.707106 -0.707106 4.83757e-06 0.707107 -0.707106 1.82421e-07 0.707107 -0.707106 0 0.707107 -0.707106 0 0.707107 -0.707106 0 0.707107 -0.707106 0 0.707107 0.707107 4.20947e-06 0.707106 0.707106 -7.88386e-06 0.707107 0.707106 6.68152e-06 0.707107 0.707106 4.83757e-06 0.707107 0.707107 -4.24739e-06 0.707106 0.707106 1.82421e-07 0.707107 0.707106 -4.79437e-06 0.707107 0.707106 -6.92898e-06 0.707107 0.707106 7.88386e-06 0.707107 0.707106 -1.82421e-07 0.707107 0.707106 0 0.707107 0.707106 0 0.707107 0.707106 0 0.707107 0.707106 0 0.707107 0 0.0784619 0.996917 0 0.0784619 0.996917 0 0.233439 0.972371 0 0.233439 0.972371 0 0.453995 0.891004 0 0.453995 0.891004 0 0.707105 0.707108 0 0.707105 0.707108 0 0.891006 0.453992 0 0.891006 0.453992 0 0.987688 0.156436 0 0.987688 0.156436 0 -0.0784619 0.996917 0 -0.0784619 0.996917 0 -0.233439 0.972371 0 -0.233439 0.972371 0 -0.453995 0.891004 0 -0.453995 0.891004 0 -0.707105 0.707108 0 -0.707105 0.707108 0 -0.891006 0.453992 0 -0.891006 0.453992 0 -0.987688 0.156436 0 -0.987688 0.156436 -0.707107 -0.707107 0 -0.707096 -0.707118 1.49433e-06 -0.707102 -0.707111 0 -0.706617 -0.706626 0.0370328 -0.6974 -0.715644 0.0385521 -0.71583 -0.689265 0.11181 0 -0.406743 -0.913543 0 -0.553391 -0.832921 -1.40752e-05 -0.555468 -0.831538 0 -0.0836816 -0.996493 0 -0.406743 -0.913543 0 -0.248687 -0.968584 0 -0.248687 -0.968584 0 -0.0836816 -0.996493 0 -0.921862 -0.387517 0 -0.998027 -0.0627922 0 -0.998027 -0.0627922 1.43991e-05 -0.687583 -0.726106 0 -0.68575 -0.727837 0 -0.797532 -0.603277 0 -0.797532 -0.603277 0 -0.921862 -0.387517 0 0.797532 -0.603277 0 0.68575 -0.727837 -1.43991e-05 0.687583 -0.726106 1.40751e-05 0.555468 -0.831538 0 0.553391 -0.832921 0 0.406743 -0.913543 0 0.0836816 -0.996493 0 0.406743 -0.913543 0 0.248687 -0.968584 0 0.248687 -0.968584 0 0.0836816 -0.996493 0 0.797532 -0.603277 0 0.921862 -0.387517 0 0.921862 -0.387517 0 0.998027 -0.0627922 0 0.998027 -0.0627922 0.704873 0.07942 -0.704874 0.669528 0.234278 -0.704874 0.669529 0.234278 -0.704873 0.60061 0.377388 -0.704873 0.60061 0.377389 -0.704872 0.501575 0.501575 -0.704872 0.501575 0.501575 -0.704872 0.377388 0.60061 -0.704872 0.377388 0.60061 -0.704872 0.234278 0.669529 -0.704872 0.234278 0.669529 -0.704872 0.0794202 0.704874 -0.704872 0.0794203 0.704873 -0.704873 -0.0794201 0.704873 -0.704873 -0.0794204 0.704874 -0.704872 -0.234278 0.669529 -0.704872 -0.234278 0.669529 -0.704872 -0.377388 0.60061 -0.704872 -0.377389 0.600611 -0.704872 -0.501575 0.501575 -0.704872 -0.501575 0.501575 -0.704873 -0.60061 0.377388 -0.704873 -0.60061 0.377388 -0.704873 -0.669529 0.234278 -0.704873 -0.669529 0.234278 -0.704872 -0.704874 0.0794202 -0.704872 -0.704873 0.0794203 -0.704873 -0.704873 -0.0794201 -0.704873 -0.704874 -0.0794204 -0.704872 -0.669529 -0.234278 -0.704872 -0.669529 -0.234278 -0.704873 -0.60061 -0.377388 -0.704873 -0.60061 -0.377388 -0.704873 -0.501575 -0.501575 -0.704873 -0.501575 -0.501575 -0.704872 -0.377389 -0.600611 -0.704872 -0.377388 -0.60061 -0.704872 -0.234278 -0.669529 -0.704872 -0.234278 -0.669529 -0.704872 -0.0794202 -0.704874 -0.704872 -0.0794203 -0.704873 -0.704873 0.0794201 -0.704873 -0.704873 0.0794204 -0.704874 -0.704872 0.234278 -0.669529 -0.704872 0.234278 -0.669529 -0.704872 0.377388 -0.60061 -0.704872 0.377388 -0.60061 -0.704872 0.501575 -0.501575 -0.704872 0.501575 -0.501575 -0.704872 0.60061 -0.377389 -0.704872 0.60061 -0.377389 -0.704873 0.669529 -0.234278 -0.704873 0.669528 -0.234278 -0.704873 0.704873 -0.0794203 -0.704874 0.704875 -0.0794202 -0.704872 0.704874 0.0794205 -0.704872 0.995185 0 0.0980169 0.995185 0 -0.0980172 0.989238 -0.00479016 -0.146236 0.881921 0 -0.471397 0.857945 -0.00488895 -0.513718 0.903989 0 -0.427555 0.95694 0 -0.290284 0.941694 -0.00484004 -0.336435 0.970031 0 -0.24298 0.634393 0 -0.773011 0.595943 -0.00497577 -0.803011 0.671558 0 -0.740952 0.773011 0 -0.634393 0.7412 -0.00493491 -0.671266 0.803208 0 -0.595699 0.290286 0 -0.95694 0.243103 -0.0050357 -0.969987 0.33689 0 -0.941544 0.471396 0 -0.881922 0.427751 -0.00501021 -0.903883 0.514103 0 -0.857729 -0.0980167 -0.00252962 -0.995182 -0.0490663 0 -0.998796 0.0980171 0 -0.995185 0.0490917 -0.00505176 -0.998782 0.146732 0 -0.989176 -0.290285 -0.00252421 -0.956937 -0.242981 0 -0.970031 -0.146732 0 -0.989176 -0.471394 -0.00251389 -0.881919 -0.427553 0 -0.90399 -0.33689 0 -0.941544 -0.634391 -0.00249883 -0.773008 -0.5957 0 -0.803207 -0.514103 0 -0.857729 -0.773008 -0.00248014 -0.634391 -0.740951 0 -0.671559 -0.671558 0 -0.740952 -0.881919 -0.00245844 -0.471395 -0.857729 0 -0.514102 -0.803208 0 -0.595699 -0.956938 -0.00243481 -0.290284 -0.941544 0 -0.33689 -0.903989 0 -0.427555 -0.995185 0 0.0980169 0.998796 0 -0.0490675 0.995185 0 0.0980169 0.995185 0 0.0980169 0.95694 0 0.290285 0.95694 0 0.290285 0.881921 0 0.471397 0.881921 0 0.471397 0.773011 0 0.634393 0.773011 0 0.634393 0.634393 0 0.773011 0.634393 0 0.773011 0.471396 0 0.881922 0.471396 0 0.881922 0.290286 0 0.95694 0.290286 0 0.95694 0.0980171 0 0.995185 0.0980171 0 0.995185 -0.0980171 0 0.995185 -0.0980171 0 0.995185 -0.290286 0 0.95694 -0.290286 0 0.95694 -0.471396 0 0.881922 -0.471396 0 0.881922 -0.634393 0 0.77301 -0.634393 0 0.77301 -0.77301 0 0.634393 -0.77301 0 0.634393 -0.881922 0 0.471396 -0.881922 0 0.471396 -0.95694 0 0.290285 -0.95694 0 0.290285 -0.995185 0 0.0980169 -0.995185 0 0.0980169 -0.998796 0 -0.0490675 -0.995182 -0.00241017 -0.0980169 -0.989177 0 -0.146731 -0.970031 0 -0.24298 0 -1 0 0 -1 0 0 -1 0 0 -1 0 0 -1 0 0 -1 0 0 -1 0 0 -1 0 0 -1 0 0 -1 0 0 -1 0 0 -1 0 0 -1 0 0 -1 0 0 -1 0 0 -1 0 0 -1 0 0 -1 0 0 -1 0 0 -1 0 0 -1 0 0 -1 0 0 -1 0 0 -1 0 0 -1 0 0 -1 0 0 -1 0 0 -1 0 0 -1 0 0 -1 0 0 -1 0 0 -1 0 -0.995185 0 0.0980169 -0.995185 0 -0.0980172 -0.989238 0.00479016 -0.146236 -0.881922 0 -0.471396 -0.857945 0.00488893 -0.513718 -0.903989 0 -0.427555 -0.95694 0 -0.290285 -0.941694 0.00484007 -0.336435 -0.970031 0 -0.24298 -0.634393 0 -0.77301 -0.595943 0.0049758 -0.803011 -0.671558 0 -0.740952 -0.77301 0 -0.634393 -0.7412 0.00493493 -0.671266 -0.803208 0 -0.595699 -0.290286 0 -0.95694 -0.243103 0.0050357 -0.969987 -0.33689 0 -0.941544 -0.471396 0 -0.881922 -0.427751 0.00501021 -0.903883 -0.514103 0 -0.857729 0.0980167 0.00252962 -0.995182 0.0490663 0 -0.998796 -0.0980171 0 -0.995185 -0.0490917 0.00505176 -0.998782 -0.146732 0 -0.989176 0.290285 0.00252421 -0.956937 0.242981 0 -0.970031 0.146732 0 -0.989176 0.471394 0.0025139 -0.881919 0.427553 0 -0.90399 0.33689 0 -0.941544 0.634391 0.00249881 -0.773008 0.595701 0 -0.803207 0.514103 0 -0.857729 0.773008 0.00248013 -0.634391 0.740951 0 -0.671559 0.671558 0 -0.740952 0.881919 0.00245845 -0.471395 0.857729 0 -0.514102 0.803208 0 -0.595699 0.956938 0.0024348 -0.290283 0.941544 0 -0.33689 0.903989 0 -0.427555 0.995185 0 0.0980169 -0.998796 0 -0.0490675 -0.995185 0 0.0980169 -0.995185 0 0.0980169 -0.95694 0 0.290285 -0.95694 0 0.290285 -0.881922 0 0.471396 -0.881922 0 0.471396 -0.77301 0 0.634393 -0.77301 0 0.634393 -0.634393 0 0.77301 -0.634393 0 0.77301 -0.471396 0 0.881922 -0.471396 0 0.881922 -0.290286 0 0.95694 -0.290286 0 0.95694 -0.0980171 0 0.995185 -0.0980171 0 0.995185 0.0980171 0 0.995185 0.0980171 0 0.995185 0.290286 0 0.95694 0.290286 0 0.95694 0.471396 0 0.881922 0.471396 0 0.881922 0.634393 0 0.773011 0.634393 0 0.773011 0.773011 0 0.634393 0.773011 0 0.634393 0.881921 0 0.471397 0.881921 0 0.471397 0.95694 0 0.290285 0.95694 0 0.290285 0.995185 0 0.0980169 0.995185 0 0.0980169 0.998796 0 -0.0490675 0.995182 0.00241017 -0.0980169 0.989177 0 -0.146731 0.970031 0 -0.24298 0 1 0 0 1 0 0 1 0 0 1 0 0 1 0 0 1 0 0 1 0 0 1 0 0 1 0 0 1 0 0 1 0 0 1 0 0 1 0 0 1 0 0 1 0 0 1 0 0 1 0 0 1 0 0 1 0 0 1 0 0 1 0 0 1 0 0 1 0 0 1 0 0 1 0 0 1 0 0 1 0 0 1 0 0 1 0 0 1 0 0 1 0 0 1 0 -0.183761 0 0.982971 -0.183761 0 0.982971 -0.526429 0 0.850219 -0.526429 0 0.850219 -0.798017 0 0.602636 -0.798017 0 0.602636 -0.961826 0 0.273662 -0.961826 0 0.273662 -0.995734 0 -0.0922692 -0.995734 0 -0.0922692 -0.895164 0 -0.445737 -0.895164 0 -0.445737 -0.673696 0 -0.739009 -0.673696 0 -0.739009 -0.361238 0 -0.932474 -0.361238 0 -0.932474 0 0 -1 0 0 -1 0.361238 0 -0.932474 0.361238 0 -0.932474 0.673696 0 -0.739009 0.673696 0 -0.739009 0.895164 0 -0.445737 0.895164 0 -0.445737 0.995734 0 -0.0922692 0.995734 0 -0.0922692 0.961826 0 0.273663 0.961826 0 0.273663 0.798016 0 0.602636 0.798016 0 0.602636 0.526429 0 0.850219 0.526429 0 0.850219 0.183761 0 0.982971 0.183761 0 0.982971 0 -1 0 0 -1 0 0 -1 0 0 -1 0 0 -1 0 0 -1 0 0 -1 0 0 -1 0 0 -1 0 0 -1 0 0 -1 0 0 -1 0 0 -1 0 0 -1 0 0 -1 0 0 -1 0 0 -1 0 0 1 0 0 1 0 0 1 0 0 1 0 0 1 0 0 1 0 0 1 0 0 1 0 0 1 0 0 1 0 0 1 0 0 1 0 0 1 0 0 1 0 0 1 0 0 1 0 0 1 0 -0.183761 0 -0.982971 -0.183761 0 -0.982971 -0.526429 0 -0.850219 -0.526429 0 -0.850219 -0.798017 0 -0.602636 -0.798017 0 -0.602636 -0.961826 0 -0.273662 -0.961826 0 -0.273662 -0.995734 0 0.0922674 -0.995734 0 0.0922674 -0.89516 0 0.445745 -0.89516 0 0.445745 -0.673696 0 0.739009 -0.673696 0 0.739009 -0.361256 0 0.932467 -0.361256 0 0.932467 -0.0922559 0 0.995735 -0.0922559 0 0.995735 0.0922558 0 0.995735 0.0922558 0 0.995735 0.361256 0 0.932467 0.361256 0 0.932467 0.673696 0 0.739009 0.673696 0 0.739009 0.89516 0 0.445745 0.89516 0 0.445745 0.995734 0 0.0922674 0.995734 0 0.0922674 0.961826 0 -0.273663 0.961826 0 -0.273663 0.798016 0 -0.602636 0.798016 0 -0.602636 0.526429 0 -0.850219 0.526429 0 -0.850219 0.183761 0 -0.982971 0.183761 0 -0.982971 0 1 0 0 1 0 0 1 0 0 1 0 0 1 0 0 1 0 0 1 0 0 1 0 0 1 0 0 1 0 0 1 0 0 1 0 0 1 0 0 1 0 0 1 0 0 1 0 0 1 0 0 1 0 0 -1 0 0 -1 0 0 -1 0 0 -1 0 0 -1 0 0 -1 0 0 -1 0 0 -1 0 0 -1 0 0 -1 0 0 -1 0 0 -1 0 0 -1 0 0 -1 0 0 -1 0 0 -1 0 0 -1 0 0 -1 0</float_array>
                    <technique_common>
                        <accessor count="982" source="#shape0-lib-normals-array" stride="3">
                            <param name="X" type="float"/>
                            <param name="Y" type="float"/>
                            <param name="Z" type="float"/>
                        </accessor>
                    </technique_common>
                </source>
                <vertices id="shape0-lib-vertices">
                    <input semantic="POSITION" source="#shape0-lib-positions"/>
                </vertices>
                <triangles count="982">
                    <input offset="0" semantic="VERTEX" source="#shape0-lib-vertices"/>
                    <input offset="1" semantic="NORMAL" source="#shape0-lib-normals"/>
                    <p>0 0 1 0 2 0 3 1 4 1 5 1 5 2 4 2 6 2 5 3 6 3 7 3 2 4 8 4 9 4 4 5 0 5 6 5 6 6 0 6 2 6 6 7 2 7 10 7 10 8 2 8 9 8 11 9 12 9 13 9 13 10 12 10 14 10 15 11 16 11 17 11 17 12 16 12 18 12 19 13 20 13 21 13 21 14 22 14 19 14 19 15 22 15 23 15 19 16 23 16 24 16 24 17 23 17 25 17 24 18 25 18 26 18 27 19 28 19 29 19 29 20 28 20 25 20 29 21 25 21 30 21 30 22 25 22 23 22 31 23 32 23 33 23 14 24 12 24 34 24 34 25 12 25 32 25 34 26 32 26 35 26 35 27 32 27 31 27 35 28 31 28 36 28 37 29 38 29 39 29 39 30 38 30 31 30 39 31 31 31 40 31 40 32 31 32 33 32 3 33 5 33 41 33 41 34 5 34 42 34 43 35 11 35 13 35 44 36 45 36 46 36 46 37 45 37 47 37 47 38 45 38 48 38 47 39 48 39 49 39 50 40 51 40 46 40 46 41 51 41 52 41 46 42 52 42 44 42 49 43 53 43 47 43 47 44 53 44 54 44 47 45 54 45 55 45 56 46 57 46 46 46 46 47 57 47 58 47 46 48 58 48 50 48 59 49 60 49 46 49 46 50 60 50 61 50 46 51 61 51 56 51 55 52 62 52 47 52 47 53 62 53 63 53 47 54 63 54 64 54 64 55 63 55 65 55 64 56 65 56 66 56 67 57 68 57 46 57 46 58 68 58 69 58 46 59 69 59 59 59 66 60 70 60 64 60 64 61 70 61 71 61 64 62 71 62 72 62 67 63 46 63 73 63 73 64 46 64 41 64 73 65 41 65 74 65 72 66 75 66 64 66 64 67 75 67 76 67 64 68 76 68 13 68 13 69 76 69 77 69 13 70 77 70 43 70 42 71 78 71 41 71 41 72 78 72 79 72 41 73 79 73 74 73 80 74 81 74 82 74 82 75 81 75 83 75 84 76 85 76 86 76 80 77 87 77 81 77 81 78 87 78 88 78 81 79 88 79 84 79 84 80 88 80 89 80 84 81 89 81 85 81 90 82 91 82 92 82 92 83 91 83 93 83 92 84 93 84 94 84 86 85 95 85 84 85 84 86 95 86 96 86 84 87 96 87 97 87 94 88 98 88 92 88 92 89 98 89 99 89 92 90 99 90 81 90 81 91 99 91 100 91 81 92 100 92 83 92 97 93 101 93 84 93 84 94 101 94 102 94 84 95 102 95 103 95 103 96 102 96 104 96 103 97 104 97 105 97 105 98 106 98 103 98 103 99 106 99 107 99 103 100 107 100 108 100 108 101 109 101 103 101 103 102 109 102 110 102 103 103 110 103 92 103 92 104 110 104 111 104 92 105 111 105 90 105 112 106 113 106 114 106 114 107 113 107 115 107 114 108 115 108 116 108 115 109 117 109 116 109 116 110 117 110 118 110 116 111 118 111 119 111 120 112 121 112 114 112 114 113 121 113 122 113 114 114 122 114 112 114 119 115 123 115 116 115 116 116 123 116 124 116 116 117 124 117 125 117 125 118 126 118 116 118 116 119 126 119 127 119 116 120 127 120 128 120 129 121 130 121 131 121 131 122 130 122 132 122 131 123 132 123 114 123 114 124 132 124 133 124 114 125 133 125 120 125 128 126 134 126 116 126 116 127 134 127 135 127 116 128 135 128 136 128 137 129 138 129 131 129 131 130 138 130 139 130 131 131 139 131 129 131 136 132 140 132 116 132 116 133 140 133 141 133 116 134 141 134 142 134 142 135 141 135 143 135 16 136 144 136 18 136 18 137 144 137 145 137 18 138 145 138 131 138 131 139 145 139 146 139 131 140 146 140 137 140 143 141 147 141 142 141 142 142 147 142 148 142 142 143 148 143 149 143 142 144 149 144 20 144 20 145 149 145 21 145 15 146 17 146 150 146 15 147 150 147 151 147 151 148 150 148 152 148 151 149 152 149 153 149 153 150 152 150 154 150 153 151 154 151 155 151 156 152 154 152 157 152 157 153 154 153 152 153 157 154 152 154 158 154 158 155 152 155 159 155 160 156 161 156 162 156 163 157 164 157 165 157 165 158 164 158 166 158 165 159 166 159 167 159 167 160 166 160 168 160 162 161 161 161 169 161 170 162 171 162 172 162 172 163 171 163 173 163 172 164 173 164 174 164 172 165 163 165 170 165 170 166 163 166 165 166 170 167 165 167 175 167 175 168 165 168 176 168 170 169 177 169 171 169 171 170 177 170 178 170 171 171 178 171 179 171 179 172 178 172 180 172 179 173 180 173 181 173 169 174 161 174 165 174 165 175 161 175 182 175 165 176 182 176 176 176 183 177 184 177 185 177 185 178 184 178 179 178 185 179 179 179 186 179 186 180 179 180 181 180 168 181 187 181 167 181 167 182 187 182 188 182 167 183 188 183 189 183 190 184 191 184 192 184 192 185 191 185 162 185 191 186 193 186 162 186 162 187 193 187 194 187 162 188 194 188 195 188 196 189 197 189 198 189 198 190 197 190 167 190 198 191 167 191 199 191 199 192 167 192 189 192 195 193 200 193 162 193 162 194 200 194 201 194 162 195 201 195 160 195 202 196 203 196 204 196 204 197 203 197 205 197 206 198 207 198 208 198 209 199 210 199 211 199 212 200 206 200 213 200 213 201 206 201 208 201 213 202 208 202 214 202 209 203 211 203 215 203 209 204 216 204 210 204 210 205 216 205 217 205 210 206 217 206 218 206 219 207 215 207 214 207 214 208 215 208 211 208 214 209 211 209 213 209 213 210 211 210 220 210 218 211 221 211 222 211 212 212 223 212 206 212 206 213 223 213 224 213 206 214 224 214 225 214 226 215 210 215 227 215 227 216 210 216 218 216 227 217 218 217 228 217 228 218 218 218 222 218 220 219 229 219 213 219 213 220 229 220 230 220 213 221 230 221 231 221 231 222 232 222 213 222 213 223 232 223 233 223 213 224 233 224 234 224 235 225 236 225 237 225 237 226 236 226 213 226 237 227 213 227 238 227 238 228 213 228 234 228 239 229 240 229 241 229 242 230 243 230 244 230 244 231 243 231 245 231 244 232 245 232 224 232 224 233 245 233 246 233 224 234 246 234 225 234 239 235 241 235 237 235 237 236 241 236 247 236 237 237 247 237 235 237 20 238 19 238 166 238 164 239 116 239 166 239 166 240 116 240 142 240 166 241 142 241 20 241 248 242 116 242 249 242 249 243 116 243 164 243 249 244 164 244 250 244 250 245 164 245 207 245 250 246 207 246 251 246 4 247 3 247 206 247 206 248 3 248 41 248 206 249 41 249 207 249 207 250 41 250 46 250 46 251 252 251 207 251 207 252 252 252 253 252 207 253 253 253 251 253 219 254 174 254 254 254 173 255 131 255 174 255 174 256 131 256 114 256 64 257 215 257 47 257 47 258 215 258 219 258 114 259 255 259 174 259 174 260 255 260 256 260 174 261 256 261 254 261 257 262 47 262 258 262 258 263 47 263 219 263 258 264 219 264 259 264 259 265 219 265 254 265 260 266 261 266 111 266 111 267 261 267 262 267 111 268 262 268 90 268 90 269 262 269 263 269 90 270 263 270 91 270 91 271 263 271 264 271 91 272 264 272 93 272 93 273 264 273 265 273 93 274 265 274 94 274 94 275 265 275 266 275 94 276 266 276 98 276 98 277 266 277 267 277 98 278 267 278 99 278 99 279 267 279 268 279 99 280 268 280 100 280 100 281 268 281 269 281 100 282 269 282 83 282 83 283 269 283 270 283 83 284 270 284 82 284 82 285 270 285 271 285 82 286 271 286 80 286 80 287 271 287 272 287 80 288 272 288 87 288 87 289 272 289 273 289 87 290 273 290 88 290 88 291 273 291 274 291 88 292 274 292 275 292 275 293 274 293 276 293 275 294 276 294 85 294 85 295 276 295 277 295 85 296 277 296 86 296 86 297 277 297 278 297 86 298 278 298 95 298 95 299 278 299 279 299 95 300 279 300 96 300 96 301 279 301 280 301 96 302 280 302 97 302 97 303 280 303 281 303 97 304 281 304 101 304 101 305 281 305 282 305 101 306 282 306 102 306 102 307 282 307 283 307 102 308 283 308 104 308 104 309 283 309 284 309 104 310 284 310 105 310 105 311 284 311 285 311 105 312 285 312 106 312 106 313 285 313 286 313 106 314 286 314 107 314 107 315 286 315 287 315 107 316 287 316 108 316 108 317 287 317 288 317 108 318 288 318 109 318 109 319 288 319 289 319 109 320 289 320 260 320 260 321 289 321 261 321 290 322 291 322 292 322 293 323 294 323 292 323 292 324 294 324 295 324 292 325 295 325 290 325 296 326 297 326 292 326 292 327 297 327 298 327 292 328 298 328 293 328 299 329 300 329 292 329 292 330 300 330 301 330 292 331 301 331 296 331 302 332 303 332 292 332 292 333 303 333 304 333 292 334 304 334 299 334 305 335 306 335 292 335 292 336 306 336 307 336 292 337 307 337 302 337 308 338 309 338 292 338 292 339 309 339 310 339 292 340 310 340 305 340 311 341 312 341 292 341 292 342 312 342 313 342 292 343 313 343 308 343 314 344 315 344 292 344 292 345 315 345 316 345 292 346 316 346 311 346 291 347 317 347 292 347 292 348 317 348 318 348 292 349 318 349 314 349 209 350 215 350 64 350 64 351 13 351 209 351 209 352 13 352 14 352 209 353 14 353 34 353 224 354 223 354 7 354 212 355 319 355 223 355 223 356 319 356 320 356 223 357 320 357 7 357 7 358 6 358 224 358 224 359 6 359 10 359 224 360 10 360 244 360 244 361 10 361 9 361 244 362 9 362 242 362 242 363 9 363 8 363 242 364 8 364 243 364 243 365 8 365 2 365 243 366 2 366 245 366 245 367 2 367 1 367 245 368 1 368 246 368 246 369 1 369 0 369 246 370 0 370 225 370 225 371 0 371 4 371 225 372 4 372 206 372 79 373 78 373 213 373 213 374 78 374 321 374 213 375 321 375 212 375 212 376 321 376 322 376 212 377 322 377 319 377 11 378 43 378 211 378 11 379 211 379 12 379 12 380 211 380 210 380 12 381 210 381 32 381 32 382 210 382 226 382 32 383 226 383 33 383 33 384 226 384 227 384 33 385 227 385 40 385 40 386 227 386 228 386 40 387 228 387 39 387 39 388 228 388 222 388 39 389 222 389 37 389 37 390 222 390 221 390 37 391 221 391 38 391 38 392 221 392 218 392 38 393 218 393 31 393 31 394 218 394 217 394 31 395 217 395 36 395 36 396 217 396 216 396 36 397 216 397 35 397 35 398 216 398 209 398 35 399 209 399 34 399 177 400 151 400 153 400 177 401 153 401 178 401 178 402 153 402 155 402 178 403 155 403 180 403 180 404 155 404 154 404 180 405 154 405 181 405 181 406 154 406 156 406 181 407 156 407 186 407 186 408 156 408 157 408 186 409 157 409 185 409 185 410 157 410 158 410 185 411 158 411 183 411 183 412 158 412 159 412 183 413 159 413 184 413 184 414 159 414 152 414 184 415 152 415 179 415 179 416 152 416 150 416 179 417 150 417 171 417 170 418 144 418 16 418 170 419 16 419 177 419 177 420 16 420 15 420 177 421 15 421 151 421 149 422 148 422 165 422 149 423 165 423 21 423 21 424 165 424 167 424 21 425 167 425 22 425 166 426 19 426 24 426 166 427 24 427 168 427 168 428 24 428 26 428 168 429 26 429 187 429 187 430 26 430 25 430 187 431 25 431 188 431 188 432 25 432 28 432 188 433 28 433 189 433 189 434 28 434 27 434 189 435 27 435 199 435 199 436 27 436 29 436 199 437 29 437 198 437 198 438 29 438 30 438 198 439 30 439 196 439 196 440 30 440 23 440 196 441 23 441 197 441 197 442 23 442 22 442 197 443 22 443 167 443 131 444 173 444 18 444 18 445 173 445 171 445 18 446 171 446 17 446 17 447 171 447 150 447 103 448 251 448 323 448 251 449 103 449 250 449 250 450 103 450 92 450 250 451 92 451 324 451 323 452 325 452 103 452 103 453 325 453 326 453 103 454 326 454 327 454 328 455 329 455 92 455 92 456 329 456 330 456 92 457 330 457 324 457 331 458 259 458 84 458 84 459 259 459 81 459 81 460 259 460 254 460 81 461 254 461 332 461 333 462 334 462 84 462 84 463 334 463 335 463 84 464 335 464 331 464 332 465 336 465 81 465 81 466 336 466 337 466 81 467 337 467 338 467 219 468 339 468 340 468 172 469 174 469 341 469 341 470 174 470 342 470 214 471 343 471 219 471 219 472 343 472 344 472 219 473 344 473 339 473 345 474 346 474 174 474 174 475 346 475 347 475 174 476 347 476 342 476 340 477 348 477 219 477 219 478 348 478 204 478 219 479 204 479 174 479 174 480 204 480 205 480 174 481 205 481 345 481 349 482 350 482 207 482 164 483 163 483 351 483 351 484 352 484 164 484 164 485 352 485 353 485 164 486 353 486 354 486 349 487 207 487 355 487 350 488 356 488 207 488 207 489 356 489 357 489 207 490 357 490 208 490 354 491 358 491 164 491 164 492 358 492 203 492 164 493 203 493 207 493 207 494 203 494 202 494 207 495 202 495 355 495 202 496 204 496 348 496 202 497 348 497 355 497 355 498 348 498 340 498 355 499 340 499 349 499 349 500 340 500 339 500 349 501 339 501 350 501 350 502 339 502 344 502 350 503 344 503 356 503 356 504 344 504 343 504 356 505 343 505 357 505 357 506 343 506 214 506 357 507 214 507 208 507 205 508 203 508 345 508 345 509 203 509 358 509 345 510 358 510 346 510 358 511 354 511 346 511 346 512 354 512 353 512 346 513 353 513 347 513 347 514 353 514 352 514 347 515 352 515 342 515 342 516 352 516 351 516 342 517 351 517 341 517 341 518 351 518 163 518 341 519 163 519 172 519 7 520 320 520 5 520 5 521 320 521 319 521 5 522 319 522 322 522 5 523 322 523 42 523 42 524 322 524 321 524 42 525 321 525 78 525 326 526 325 526 335 526 335 527 325 527 323 527 335 528 323 528 331 528 333 529 84 529 103 529 335 530 334 530 326 530 326 531 334 531 333 531 326 532 333 532 327 532 327 533 333 533 103 533 258 534 252 534 257 534 257 535 252 535 46 535 257 536 46 536 47 536 331 537 323 537 259 537 259 538 323 538 251 538 259 539 251 539 258 539 258 540 251 540 253 540 258 541 253 541 252 541 254 542 249 542 250 542 254 543 250 543 332 543 250 544 324 544 332 544 332 545 324 545 330 545 332 546 330 546 336 546 336 547 330 547 337 547 328 548 92 548 81 548 330 549 329 549 337 549 337 550 329 550 328 550 337 551 328 551 338 551 338 552 328 552 81 552 254 553 256 553 249 553 249 554 256 554 255 554 249 555 255 555 248 555 248 556 255 556 114 556 248 557 114 557 116 557 289 558 305 558 261 558 261 559 305 559 310 559 261 560 310 560 262 560 262 561 310 561 309 561 262 562 309 562 263 562 263 563 309 563 308 563 263 564 308 564 264 564 264 565 308 565 313 565 264 566 313 566 265 566 265 567 313 567 312 567 265 568 312 568 266 568 266 569 312 569 311 569 266 570 311 570 267 570 267 571 311 571 316 571 267 572 316 572 268 572 268 573 316 573 315 573 268 574 315 574 269 574 269 575 315 575 314 575 269 576 314 576 270 576 270 577 314 577 318 577 270 578 318 578 271 578 271 579 318 579 317 579 271 580 317 580 272 580 272 581 317 581 291 581 272 582 291 582 273 582 273 583 291 583 359 583 273 584 359 584 360 584 360 585 359 585 295 585 360 586 295 586 276 586 276 587 295 587 294 587 276 588 294 588 277 588 277 589 294 589 293 589 277 590 293 590 278 590 278 591 293 591 298 591 278 592 298 592 279 592 279 593 298 593 297 593 279 594 297 594 280 594 280 595 297 595 296 595 280 596 296 596 281 596 281 597 296 597 301 597 281 598 301 598 282 598 282 599 301 599 300 599 282 600 300 600 283 600 283 601 300 601 299 601 283 602 299 602 284 602 284 603 299 603 304 603 284 604 304 604 285 604 285 605 304 605 303 605 285 606 303 606 286 606 286 607 303 607 302 607 286 608 302 608 287 608 287 609 302 609 307 609 287 610 307 610 288 610 288 611 307 611 306 611 288 612 306 612 289 612 289 613 306 613 305 613 79 614 213 614 236 614 361 615 73 615 362 615 362 616 73 616 74 616 363 617 364 617 59 617 59 618 69 618 363 618 363 619 69 619 68 619 363 620 68 620 361 620 361 621 68 621 67 621 361 622 67 622 73 622 365 623 366 623 57 623 57 624 56 624 365 624 365 625 56 625 61 625 365 626 61 626 364 626 364 627 61 627 60 627 364 628 60 628 59 628 367 629 368 629 52 629 52 630 51 630 367 630 367 631 51 631 50 631 367 632 50 632 366 632 366 633 50 633 58 633 366 634 58 634 57 634 369 635 48 635 370 635 370 636 48 636 45 636 370 637 45 637 368 637 368 638 45 638 44 638 368 639 44 639 52 639 371 640 53 640 369 640 369 641 53 641 49 641 369 642 49 642 48 642 372 643 55 643 371 643 371 644 55 644 54 644 371 645 54 645 53 645 373 646 63 646 372 646 372 647 63 647 62 647 372 648 62 648 55 648 374 649 66 649 373 649 373 650 66 650 65 650 373 651 65 651 63 651 375 652 71 652 374 652 374 653 71 653 70 653 374 654 70 654 66 654 376 655 75 655 375 655 375 656 75 656 72 656 375 657 72 657 71 657 220 658 211 658 43 658 74 659 79 659 362 659 362 660 79 660 236 660 362 661 236 661 377 661 377 662 236 662 235 662 377 663 235 663 378 663 378 664 235 664 247 664 378 665 247 665 379 665 379 666 247 666 241 666 379 667 241 667 380 667 380 668 241 668 240 668 380 669 240 669 381 669 381 670 240 670 239 670 381 671 239 671 382 671 382 672 239 672 237 672 382 673 237 673 383 673 383 674 237 674 238 674 383 675 238 675 384 675 384 676 238 676 234 676 384 677 234 677 385 677 385 678 234 678 233 678 385 679 233 679 386 679 386 680 233 680 232 680 386 681 232 681 387 681 387 682 232 682 231 682 387 683 231 683 388 683 388 684 231 684 230 684 388 685 230 685 389 685 389 686 230 686 229 686 389 687 229 687 390 687 390 688 229 688 220 688 390 689 220 689 391 689 391 690 220 690 43 690 391 691 43 691 392 691 392 692 43 692 77 692 392 693 77 693 376 693 376 694 77 694 76 694 376 695 76 695 75 695 384 696 385 696 393 696 384 697 393 697 383 697 380 698 381 698 393 698 393 699 381 699 382 699 393 700 382 700 383 700 377 701 378 701 393 701 393 702 378 702 379 702 393 703 379 703 380 703 363 704 361 704 393 704 393 705 361 705 362 705 393 706 362 706 377 706 366 707 365 707 393 707 393 708 365 708 364 708 393 709 364 709 363 709 370 710 368 710 393 710 393 711 368 711 367 711 393 712 367 712 366 712 372 713 371 713 393 713 393 714 371 714 369 714 393 715 369 715 370 715 375 716 374 716 393 716 393 717 374 717 373 717 393 718 373 718 372 718 391 719 392 719 393 719 393 720 392 720 376 720 393 721 376 721 375 721 388 722 389 722 393 722 393 723 389 723 390 723 393 724 390 724 391 724 385 725 386 725 393 725 393 726 386 726 387 726 393 727 387 727 388 727 144 728 170 728 175 728 394 729 146 729 395 729 395 730 146 730 145 730 396 731 397 731 129 731 129 732 139 732 396 732 396 733 139 733 138 733 396 734 138 734 394 734 394 735 138 735 137 735 394 736 137 736 146 736 398 737 399 737 120 737 120 738 133 738 398 738 398 739 133 739 132 739 398 740 132 740 397 740 397 741 132 741 130 741 397 742 130 742 129 742 400 743 401 743 113 743 113 744 112 744 400 744 400 745 112 745 122 745 400 746 122 746 399 746 399 747 122 747 121 747 399 748 121 748 120 748 402 749 118 749 403 749 403 750 118 750 117 750 403 751 117 751 401 751 401 752 117 752 115 752 401 753 115 753 113 753 404 754 123 754 402 754 402 755 123 755 119 755 402 756 119 756 118 756 405 757 125 757 404 757 404 758 125 758 124 758 404 759 124 759 123 759 406 760 127 760 405 760 405 761 127 761 126 761 405 762 126 762 125 762 407 763 134 763 406 763 406 764 134 764 128 764 406 765 128 765 127 765 408 766 136 766 407 766 407 767 136 767 135 767 407 768 135 768 134 768 409 769 141 769 408 769 408 770 141 770 140 770 408 771 140 771 136 771 169 772 165 772 148 772 145 773 144 773 395 773 395 774 144 774 175 774 395 775 175 775 410 775 410 776 175 776 176 776 410 777 176 777 411 777 411 778 176 778 182 778 411 779 182 779 412 779 412 780 182 780 161 780 412 781 161 781 413 781 413 782 161 782 160 782 413 783 160 783 414 783 414 784 160 784 201 784 414 785 201 785 415 785 415 786 201 786 200 786 415 787 200 787 416 787 416 788 200 788 195 788 416 789 195 789 417 789 417 790 195 790 194 790 417 791 194 791 418 791 418 792 194 792 193 792 418 793 193 793 419 793 419 794 193 794 191 794 419 795 191 795 420 795 420 796 191 796 190 796 420 797 190 797 421 797 421 798 190 798 192 798 421 799 192 799 422 799 422 800 192 800 162 800 422 801 162 801 423 801 423 802 162 802 169 802 423 803 169 803 424 803 424 804 169 804 148 804 424 805 148 805 425 805 425 806 148 806 147 806 425 807 147 807 409 807 409 808 147 808 143 808 409 809 143 809 141 809 417 810 418 810 426 810 417 811 426 811 416 811 413 812 414 812 426 812 426 813 414 813 415 813 426 814 415 814 416 814 410 815 411 815 426 815 426 816 411 816 412 816 426 817 412 817 413 817 396 818 394 818 426 818 426 819 394 819 395 819 426 820 395 820 410 820 399 821 398 821 426 821 426 822 398 822 397 822 426 823 397 823 396 823 403 824 401 824 426 824 426 825 401 825 400 825 426 826 400 826 399 826 405 827 404 827 426 827 426 828 404 828 402 828 426 829 402 829 403 829 408 830 407 830 426 830 426 831 407 831 406 831 426 832 406 832 405 832 424 833 425 833 426 833 426 834 425 834 409 834 426 835 409 835 408 835 421 836 422 836 426 836 426 837 422 837 423 837 426 838 423 838 424 838 418 839 419 839 426 839 426 840 419 840 420 840 426 841 420 841 421 841 427 842 428 842 429 842 429 843 428 843 430 843 429 844 430 844 431 844 431 845 430 845 432 845 431 846 432 846 433 846 433 847 432 847 434 847 433 848 434 848 435 848 435 849 434 849 436 849 435 850 436 850 437 850 437 851 436 851 438 851 437 852 438 852 439 852 439 853 438 853 440 853 439 854 440 854 441 854 441 855 440 855 442 855 441 856 442 856 443 856 443 857 442 857 444 857 443 858 444 858 445 858 445 859 444 859 446 859 445 860 446 860 447 860 447 861 446 861 448 861 447 862 448 862 449 862 449 863 448 863 450 863 449 864 450 864 451 864 451 865 450 865 452 865 451 866 452 866 453 866 453 867 452 867 454 867 453 868 454 868 455 868 455 869 454 869 456 869 455 870 456 870 457 870 457 871 456 871 458 871 457 872 458 872 459 872 459 873 458 873 460 873 459 874 460 874 427 874 427 875 460 875 428 875 427 876 429 876 461 876 427 877 461 877 459 877 453 878 455 878 461 878 461 879 455 879 457 879 461 880 457 880 459 880 447 881 449 881 461 881 461 882 449 882 451 882 461 883 451 883 453 883 441 884 443 884 461 884 461 885 443 885 445 885 461 886 445 886 447 886 435 887 437 887 461 887 461 888 437 888 439 888 461 889 439 889 441 889 429 890 431 890 461 890 461 891 431 891 433 891 461 892 433 892 435 892 428 893 460 893 462 893 428 894 462 894 430 894 436 895 434 895 462 895 462 896 434 896 432 896 462 897 432 897 430 897 442 898 440 898 462 898 462 899 440 899 438 899 462 900 438 900 436 900 448 901 446 901 462 901 462 902 446 902 444 902 462 903 444 903 442 903 454 904 452 904 462 904 462 905 452 905 450 905 462 906 450 906 448 906 460 907 458 907 462 907 462 908 458 908 456 908 462 909 456 909 454 909 463 910 464 910 465 910 465 911 464 911 466 911 465 912 466 912 467 912 467 913 466 913 468 913 467 914 468 914 469 914 469 915 468 915 470 915 469 916 470 916 471 916 471 917 470 917 472 917 471 918 472 918 473 918 473 919 472 919 474 919 473 920 474 920 475 920 475 921 474 921 476 921 475 922 476 922 477 922 477 923 476 923 478 923 477 924 478 924 479 924 479 925 478 925 480 925 479 926 480 926 481 926 481 927 480 927 482 927 481 928 482 928 483 928 483 929 482 929 484 929 483 930 484 930 485 930 485 931 484 931 486 931 485 932 486 932 487 932 487 933 486 933 488 933 487 934 488 934 489 934 489 935 488 935 490 935 489 936 490 936 491 936 491 937 490 937 492 937 491 938 492 938 493 938 493 939 492 939 494 939 493 940 494 940 495 940 495 941 494 941 496 941 495 942 496 942 497 942 497 943 496 943 498 943 497 944 498 944 463 944 463 945 498 945 464 945 477 946 479 946 499 946 499 947 479 947 481 947 499 948 481 948 483 948 471 949 473 949 499 949 499 950 473 950 475 950 499 951 475 951 477 951 465 952 467 952 499 952 499 953 467 953 469 953 499 954 469 954 471 954 495 955 497 955 499 955 499 956 497 956 463 956 499 957 463 957 465 957 489 958 491 958 499 958 499 959 491 959 493 959 499 960 493 960 495 960 483 961 485 961 499 961 499 962 485 962 487 962 499 963 487 963 489 963 486 964 484 964 500 964 500 965 484 965 482 965 500 966 482 966 480 966 492 967 490 967 500 967 500 968 490 968 488 968 500 969 488 969 486 969 498 970 496 970 500 970 500 971 496 971 494 971 500 972 494 972 492 972 468 973 466 973 500 973 500 974 466 974 464 974 500 975 464 975 498 975 474 976 472 976 500 976 500 977 472 977 470 977 500 978 470 978 468 978 480 979 478 979 500 979 500 980 478 980 476 980 500 981 476 981 474 981</p>
                </triangles>
            </mesh>
        </geometry>
    </library_geometries>
    <library_visual_scenes>
        <visual_scene id="VisualSceneNode" name="VisualScene">
            <node id="node" name="node">
                <instance_geometry url="#shape0-lib"/>
            </node>
        </visual_scene>
    </library_visual_scenes>
    <scene>
        <instance_visual_scene url="#VisualSceneNode"/>
    </scene>
</COLLADA>
