<?xml version="1.0" encoding="UTF-8"?>
<COLLADA xmlns="http://www.collada.org/2005/11/COLLADASchema" version="1.4.1">
    <asset>
        <contributor>
            <author>VCGLab</author>
            <authoring_tool>VCGLib | MeshLab</authoring_tool>
        </contributor>
        <created>周一 7月 4 08:45:01 2022 GMT</created>
        <modified>周一 7月 4 08:45:01 2022 GMT</modified>
        <up_axis>Y_UP</up_axis>
    </asset>
    <library_geometries>
        <geometry id="shape0-lib" name="shape0">
            <mesh>
                <source id="shape0-lib-positions" name="position">
                    <float_array id="shape0-lib-positions-array" count="2319">0.2508 0.006 -0.0190788 0.2508 0.006 0.0190788 0.2508 0.0028463 0.0197964 0.2508 0.0028463 -0.0197964 0.2508 -0.0028463 0.0197964 0.2508 -0.0083083 0.0181926 0.2508 -0.0130972 0.015115 0.2508 -0.0168251 0.0108128 0.2508 -0.0191899 0.00563465 0.2508 -0.02 0 0.2508 -0.0191899 -0.00563465 0.2508 -0.0168251 -0.0108128 0.2508 -0.0130972 -0.015115 0.2508 -0.0083083 -0.0181926 0.2508 -0.0028463 -0.0197964 0.0413 0.0028463 -0.0197964 0.0413 0.0083083 -0.0181926 0.0413 0.0130972 0.015115 0.2508 0.0168251 0.0108128 0.0413 0.0168251 0.0108128 0.2508 0.0191899 0.00563465 0.0413 0.0191899 0.00563465 0.2508 0.02 2.44929e-18 0.0413 0.02 2.44929e-18 0.2508 0.0191899 -0.00563465 0.0413 0.0191899 -0.00563465 0.2508 0.0168251 -0.0108128 0.0413 0.0168251 -0.0108128 0.2508 0.0130972 -0.015115 0.0413 0.0130972 -0.015115 0.2508 0.011 -0.0167033 0.2508 0.0083083 -0.0181926 0.0413 0.0083083 0.0181926 0.2508 0.011 0.0167033 0.2508 0.0130972 0.015115 0.0413 -0.0028463 -0.0197964 0.0413 -0.0083083 -0.0181926 0.0413 -0.0130972 -0.015115 0.0413 -0.0168251 -0.0108128 0.0413 -0.0191899 -0.00563465 0.0413 -0.02 0 0.0413 -0.0191899 0.00563465 0.0413 -0.0168251 0.0108128 0.0413 -0.0130972 0.015115 0.0413 -0.0083083 0.0181926 0.0413 -0.0028463 0.0197964 0.0413 0.0028463 0.0197964 0.2508 0.0083083 0.0181926 0.0413 0.02 0 0.0408 0.0187101 0.00549378 0.0408 0.0164044 0.0105425 0.0408 0.0127698 0.0147371 0.0408 0.00810059 0.0177378 0.0408 0.00277514 0.0193015 0.0408 -0.00277514 0.0193015 0.0408 -0.00810059 0.0177378 0.0408 -0.0127698 0.0147371 0.0408 -0.0164044 0.0105425 0.0408 -0.0187101 0.00549378 0.0408 -0.0195 3.2474e-18 0.0413 -0.02 3.33067e-18 0.0408 -0.0187101 -0.00549378 0.0408 -0.0164044 -0.0105425 0.0408 -0.0127698 -0.0147371 0.0408 -0.00810059 -0.0177378 0.0408 -0.00277514 -0.0193015 0.0408 0.00277514 -0.0193015 0.0408 0.00810059 -0.0177378 0.0408 0.0127698 -0.0147371 0.0408 0.0164044 -0.0105425 0.0408 0.0187101 -0.00549378 0.0408 0.0195 0 0.0308 0.0307102 -0.00700941 -1.47223e-09 0.0307102 -0.00700941 0.0308 0.0313979 -0.0025347 -1.47223e-09 0.0315 0 0.0308 0.0305847 -0.00753844 0.0308 0.0289794 -0.0123469 -1.47223e-09 0.0283805 -0.0136673 0.0308 0.0246277 -0.0196399 -1.47223e-09 0.0246277 -0.0196399 0.0308 0.0266235 -0.0168357 0.0308 0.0283805 -0.0136673 0.0308 0.0235781 -0.0208884 0.0308 0.019922 -0.0244001 -1.47223e-09 0.0196399 -0.0246277 0.0308 0.0196399 -0.0246277 0.0308 0.01575 -0.0272798 -1.47223e-09 0.0136673 -0.0283805 0.0308 0.00700941 -0.0307102 -1.47223e-09 0.00700941 -0.0307102 0.0308 0.0111701 -0.029453 0.0308 0.0136673 -0.0283805 0.0308 0.00630081 -0.0308634 0.0308 0.00126838 -0.0314745 -1.47223e-09 -5.78646e-18 -0.0315 0.0308 -0.00700941 -0.0307102 -1.47223e-09 -0.00700941 -0.0307102 0.0308 -0.00379691 -0.0312703 0.0308 -5.52239e-18 -0.0315 0.0308 -0.00876385 -0.0302563 0.0308 -0.0135038 -0.0284587 -1.47223e-09 -0.0136673 -0.0283805 0.0308 -0.0136673 -0.0283805 0.0308 -0.017894 -0.025924 -1.47223e-09 -0.0196399 -0.0246277 0.0308 -0.0246277 -0.0196399 -1.47223e-09 -0.0246277 -0.0196399 0.0308 -0.0218208 -0.0227179 0.0308 -0.0196399 -0.0246277 0.0308 -0.0251824 -0.0189234 0.0308 -0.0278919 -0.0146388 -1.47223e-09 -0.0283805 -0.0136673 0.0308 -0.0283805 -0.0136673 0.0308 -0.0298789 -0.00997504 -1.47223e-09 -0.0307102 -0.00700941 0.0308 -0.0307102 -0.00700941 0.0308 -0.0310921 -0.00505296 -1.47223e-09 -0.0315 3.85764e-18 0.0308 -0.0315 3.85764e-18 0.0308 -0.0310921 0.00505296 -1.47223e-09 -0.0307102 0.00700941 0.0308 -0.0283805 0.0136673 -1.47223e-09 -0.0283805 0.0136673 0.0308 -0.0298789 0.00997504 0.0308 -0.0307102 0.00700941 0.0308 -0.0278919 0.0146388 0.0308 -0.0251824 0.0189234 -1.47223e-09 -0.0246277 0.0196399 0.0308 -0.0246277 0.0196399 0.0308 -0.0218208 0.0227179 -1.47223e-09 -0.0196399 0.0246277 0.0308 -0.0136673 0.0283805 -1.47223e-09 -0.0136673 0.0283805 0.0308 -0.017894 0.025924 0.0308 -0.0196399 0.0246277 0.0308 -0.0135038 0.0284587 0.0308 -0.00876385 0.0302563 -1.47223e-09 -0.00700941 0.0307102 0.0308 1.73415e-18 0.0315 -1.47223e-09 1.92882e-18 0.0315 0.0308 -0.00379691 0.0312703 0.0308 -0.00700941 0.0307102 0.0308 0.00126838 0.0314745 0.0308 0.00630081 0.0308634 -1.47223e-09 0.00700941 0.0307102 0.0308 0.00700941 0.0307102 0.0308 0.0111701 0.029453 -1.47223e-09 0.0136673 0.0283805 0.0308 0.0196399 0.0246277 -1.47223e-09 0.0196399 0.0246277 0.0308 0.01575 0.0272798 0.0308 0.0136673 0.0283805 0.0308 0.019922 0.0244001 0.0308 0.0235781 0.0208884 -1.47223e-09 0.0246277 0.0196399 0.0308 0.0283805 0.0136673 -1.47223e-09 0.0283805 0.0136673 0.0308 0.0266235 0.0168357 0.0308 0.0246277 0.0196399 0.0308 0.0289794 0.0123469 0.0308 0.0305847 0.00753844 -1.47223e-09 0.0307102 0.00700941 0.0308 0.0307102 0.00700941 0.0308 0.0313979 0.0025347 0.0308 0.0315 0 -1.47223e-09 0 0 0.0408 0.0214303 0.00173003 0.0408 0.0208752 -0.00514529 0.0408 0.0214303 -0.00173003 0.0408 0.016093 -0.0142571 0.0408 0.0181716 -0.011491 0.0408 0.0197796 -0.00842728 0.0408 0.01075 -0.0186195 0.0408 0.0135976 -0.016654 0.0408 0.000865718 0.0214826 0.0408 0.007624 0.0201028 0.0408 0.00430055 0.0210655 0.0408 0.0208752 0.00514529 0.0408 0.0197796 0.00842728 0.0408 0.0181716 0.011491 0.0408 -0.00259154 -0.0213432 0.0408 0.016093 0.0142571 0.0408 0.0135976 0.016654 0.0408 0.01075 0.0186195 0.0408 0.000865718 -0.0214826 0.0408 0.00430055 -0.0210655 0.0408 0.007624 -0.0201028 0.0408 -0.0122134 -0.0176942 0.0408 -0.00921689 -0.0194242 0.0408 -0.00598168 -0.0206511 0.0408 -0.0203935 -0.00680836 0.0408 -0.0190373 -0.00999155 0.0408 -0.017188 -0.012916 0.0408 -0.0148936 -0.0155059 0.0408 -0.0212216 0.00344884 0.0408 -0.0195 1.10478e-17 0.0408 -0.0215 0 0.0408 -0.0212216 -0.00344884 0.0408 -0.0190373 0.00999155 0.0408 -0.0203935 0.00680836 0.0408 -0.0148936 0.0155059 0.0408 -0.017188 0.012916 0.0408 -0.00259154 0.0213432 0.0408 -0.00598168 0.0206511 0.0408 -0.00921689 0.0194242 0.0408 -0.0122134 0.0176942 0.0333882 -0.0275902 -0.0144804 0.0333882 -0.0295557 -0.00986714 0.0333882 -0.02491 -0.0187187 0.0333882 -0.0215848 -0.0224721 0.0333882 -0.0177005 -0.0256436 0.0333882 -0.0133577 -0.0281508 0.0333882 -0.00866905 -0.029929 0.0333882 -0.00375583 -0.0309321 0.0333882 0.00125466 -0.031134 0.0333882 0.00623265 -0.0305295 0.0333882 0.0110492 -0.0291344 0.0333882 0.0155796 -0.0269847 0.0333882 0.0197065 -0.0241361 0.0333882 0.023323 -0.0206624 0.0333882 0.0263355 -0.0166536 0.0333882 0.0286659 -0.0122134 0.0333882 0.0302538 -0.0074569 0.0333882 0.0310582 -0.00250728 0.0333882 0.0310582 0.00250728 0.0333882 0.0302538 0.0074569 0.0333882 0.0286659 0.0122134 0.0333882 0.0263355 0.0166536 0.0333882 0.023323 0.0206624 0.0333882 0.0197065 0.0241361 0.0333882 0.0155796 0.0269847 0.0333882 0.0110492 0.0291344 0.0333882 0.00623265 0.0305295 0.0333882 0.00125466 0.031134 0.0333882 -0.00375583 0.0309321 0.0333882 -0.00866905 0.029929 0.0333882 -0.0133577 0.0281508 0.0333882 -0.0177005 0.0256436 0.0333882 -0.0215848 0.0224721 0.0333882 -0.02491 0.0187187 0.0333882 -0.0275902 0.0144804 0.0333882 -0.0295557 0.00986714 0.0333882 -0.0307558 0.0049983 0.0308 -0.0315 0 0.0333882 -0.0311593 0 0.0333882 -0.0307558 -0.0049983 0.0358 -0.0297697 0.00483804 0.0358 -0.0286081 0.00955079 0.0358 -0.0267056 0.0140162 0.0358 -0.0241114 0.0181185 0.0358 -0.0208927 0.0217516 0.0358 -0.017133 0.0248214 0.0358 -0.0129295 0.0272483 0.0358 -0.00839111 0.0289695 0.0358 -0.00363542 0.0299404 0.0358 0.00121443 0.0301358 0.0358 0.00603283 0.0295507 0.0358 0.010695 0.0282003 0.0358 0.0150801 0.0261195 0.0358 0.0190747 0.0233623 0.0358 0.0225753 0.0199999 0.0358 0.0254911 0.0161196 0.0358 0.0277468 0.0118218 0.0358 0.0292839 0.00721782 0.0358 0.0300625 0.00242689 0.0358 0.0300625 -0.00242689 0.0358 0.0292839 -0.00721782 0.0358 0.0277468 -0.0118218 0.0358 0.0254911 -0.0161196 0.0358 0.0225753 -0.0199999 0.0358 0.0190747 -0.0233623 0.0358 0.0150801 -0.0261195 0.0358 0.010695 -0.0282003 0.0358 0.00603283 -0.0295507 0.0358 0.00121443 -0.0301358 0.0358 -0.00363542 -0.0299404 0.0358 -0.00839111 -0.0289695 0.0358 -0.0129295 -0.0272483 0.0358 -0.017133 -0.0248214 0.0358 -0.0208927 -0.0217516 0.0358 -0.0241114 -0.0181185 0.0358 -0.0267056 -0.0140162 0.0358 -0.0286081 -0.00955079 0.0358 -0.0297697 -0.00483804 0.0358 -0.0301603 0 0.0378711 -0.0282011 0.00458312 0.0378711 -0.0271007 0.00904754 0.0378711 -0.0252984 0.0132776 0.0378711 -0.0228409 0.0171638 0.0378711 -0.0197919 0.0206055 0.0378711 -0.0162302 0.0235135 0.0378711 -0.0122482 0.0258125 0.0378711 -0.00794897 0.027443 0.0378711 -0.00344386 0.0283628 0.0378711 0.00115044 0.0285479 0.0378711 0.00571495 0.0279937 0.0378711 0.0101314 0.0267144 0.0378711 0.0142855 0.0247433 0.0378711 0.0180696 0.0221313 0.0378711 0.0213858 0.0189461 0.0378711 0.024148 0.0152703 0.0378711 0.0262848 0.0111989 0.0378711 0.0277408 0.0068375 0.0378711 0.0284784 0.00229902 0.0378711 0.0284784 -0.00229902 0.0378711 0.0277408 -0.0068375 0.0378711 0.0262848 -0.0111989 0.0378711 0.024148 -0.0152703 0.0378711 0.0213858 -0.0189461 0.0378711 0.0180696 -0.0221313 0.0378711 0.0142855 -0.0247433 0.0378711 0.0101314 -0.0267144 0.0378711 0.00571495 -0.0279937 0.0378711 0.00115044 -0.0285479 0.0378711 -0.00344386 -0.0283628 0.0378711 -0.00794897 -0.027443 0.0378711 -0.0122482 -0.0258125 0.0378711 -0.0162302 -0.0235135 0.0378711 -0.0197919 -0.0206055 0.0378711 -0.0228409 -0.0171638 0.0378711 -0.0252984 -0.0132776 0.0378711 -0.0271007 -0.00904754 0.0378711 -0.0282011 -0.00458312 0.0378711 -0.0285711 0 0.0394603 -0.0261568 0.0042509 0.0394603 -0.0251362 0.0083917 0.0394603 -0.0234646 0.0123152 0.0394603 -0.0211852 0.0159197 0.0394603 -0.0183572 0.0191119 0.0394603 -0.0150537 0.0218091 0.0394603 -0.0113604 0.0239414 0.0394603 -0.00737276 0.0254537 0.0394603 -0.00319422 0.0263068 0.0394603 0.00106705 0.0264785 0.0394603 0.00530068 0.0259645 0.0394603 0.00939703 0.0247779 0.0394603 0.01325 0.0229497 0.0394603 0.0167598 0.020527 0.0394603 0.0198355 0.0175728 0.0394603 0.0223975 0.0141633 0.0394603 0.0243795 0.0103871 0.0394603 0.02573 0.00634187 0.0394603 0.0264141 0.00213236 0.0394603 0.0264141 -0.00213236 0.0394603 0.02573 -0.00634187 0.0394603 0.0243795 -0.0103871 0.0394603 0.0223975 -0.0141633 0.0394603 0.0198355 -0.0175728 0.0394603 0.0167598 -0.020527 0.0394603 0.01325 -0.0229497 0.0394603 0.00939703 -0.0247779 0.0394603 0.00530068 -0.0259645 0.0394603 0.00106705 -0.0264785 0.0394603 -0.00319422 -0.0263068 0.0394603 -0.00737276 -0.0254537 0.0394603 -0.0113604 -0.0239414 0.0394603 -0.0150537 -0.0218091 0.0394603 -0.0183572 -0.0191119 0.0394603 -0.0211852 -0.0159197 0.0394603 -0.0234646 -0.0123152 0.0394603 -0.0251362 -0.0083917 0.0394603 -0.0261568 -0.0042509 0.0394603 -0.0265 0 0.0404593 -0.0237763 0.00386402 0.0404593 -0.0228485 0.00762796 0.0404593 -0.021329 0.0111943 0.0404593 -0.0192571 0.0144708 0.0404593 -0.0166865 0.0173725 0.0404593 -0.0136837 0.0198242 0.0404593 -0.0103264 0.0217625 0.0404593 -0.00670176 0.0231371 0.0404593 -0.00290351 0.0239126 0.0404593 0.000969934 0.0240687 0.0404593 0.00481826 0.0236014 0.0404593 0.00854179 0.0225228 0.0404593 0.0120441 0.020861 0.0404593 0.0152345 0.0186588 0.0404593 0.0180303 0.0159734 0.0404593 0.0203591 0.0128743 0.0404593 0.0221606 0.00944177 0.0404593 0.0233882 0.00576468 0.0404593 0.0240101 0.00193829 0.0404593 0.0240101 -0.00193829 0.0404593 0.0233882 -0.00576468 0.0404593 0.0221606 -0.00944177 0.0404593 0.0203591 -0.0128743 0.0404593 0.0180303 -0.0159734 0.0404593 0.0152345 -0.0186588 0.0404593 0.0120441 -0.020861 0.0404593 0.00854179 -0.0225228 0.0404593 0.00481826 -0.0236014 0.0404593 0.000969934 -0.0240687 0.0404593 -0.00290351 -0.0239126 0.0404593 -0.00670176 -0.0231371 0.0404593 -0.0103264 -0.0217625 0.0404593 -0.0136837 -0.0198242 0.0404593 -0.0166865 -0.0173725 0.0404593 -0.0192571 -0.0144708 0.0404593 -0.021329 -0.0111943 0.0404593 -0.0228485 -0.00762796 0.0404593 -0.0237763 -0.00386402 0.0404593 -0.0240882 0 0.2508 0.006 0.02 0.2508 0.011 0.02 0.2508 0.006 -0.02 0.2508 0.011 -0.02 0.256228 0.011 0.02 0.256228 0.006 0.02 0.257575 0.006 0.0226678 0.254411 0.0402 0.0151741 0.253205 0.0402 0.0097592 0.254543 0.011 0.0156022 0.252995 0.011 0.00807075 0.252995 0.0402 0.00038196 0.252995 0.011 0.00038196 0.2528 0.0402 0.00422636 0.252995 0.0402 0.00807075 0.253205 0.0402 -0.00130649 0.254411 0.0402 -0.00672141 0.254543 0.011 -0.00714944 0.254543 0.0402 -0.00714944 0.256393 0.0402 -0.011903 0.257575 0.011 -0.0142151 0.261967 0.006 -0.0205258 0.261524 0.006 -0.02 0.261524 0.011 -0.02 0.257575 0.0402 -0.0142151 0.259108 0.0402 -0.0167408 0.261967 0.0402 -0.0205258 0.328022 0.0402 -0.00342299 0.328699 0.0402 0.00145253 0.328022 0.006 -0.00342299 0.3288 0.006 0.00422636 0.327891 0.0402 -0.00403599 0.32572 0.006 -0.0107592 0.326293 0.0402 -0.00934842 0.321989 0.006 -0.0174818 0.323938 0.0402 -0.0143715 0.32572 0.0402 -0.0107592 0.316981 0.0402 -0.0233158 0.317175 0.0402 -0.02313 0.316981 0.006 -0.0233158 0.320877 0.0402 -0.0189982 0.321989 0.0402 -0.0174818 0.312911 0.0402 -0.0266787 0.310901 0.006 -0.0280221 0.310901 0.0402 -0.0280221 0.308175 0.0402 -0.0295686 0.303998 0.006 -0.0314082 0.303998 0.0402 -0.0314082 0.303069 0.0402 -0.0317384 0.296554 0.006 -0.0333354 0.297702 0.0402 -0.0331415 0.288875 0.006 -0.0337249 0.292188 0.0402 -0.0337483 0.296554 0.0402 -0.0333354 0.281275 0.006 -0.0325606 0.286644 0.0402 -0.0335457 0.288875 0.0402 -0.0337249 0.274065 0.006 -0.0298902 0.275938 0.0402 -0.0307468 0.281189 0.0402 -0.032538 0.26754 0.006 -0.0258231 0.271004 0.0402 -0.0282102 0.274065 0.0402 -0.0298902 0.262499 0.0402 -0.0211318 0.266492 0.0402 -0.0249822 0.26754 0.0402 -0.0258231 0.261967 0.006 0.0289785 0.259108 0.0402 0.0251935 0.257575 0.0402 0.0226678 0.256393 0.0402 0.0203557 0.254543 0.0402 0.0156022 0.26754 0.0402 0.0342758 0.266492 0.0402 0.0334349 0.26754 0.006 0.0342758 0.262499 0.0402 0.0295845 0.261967 0.0402 0.0289785 0.271004 0.0402 0.0366629 0.274065 0.006 0.0383429 0.274065 0.0402 0.0383429 0.275938 0.0402 0.0391995 0.281275 0.006 0.0410133 0.281189 0.0402 0.0409907 0.286644 0.0402 0.0419984 0.288875 0.006 0.0421776 0.288875 0.0402 0.0421776 0.292188 0.0402 0.042201 0.296554 0.006 0.0417882 0.296554 0.0402 0.0417882 0.297702 0.0402 0.0415943 0.303998 0.006 0.0398609 0.303069 0.0402 0.0401911 0.310901 0.006 0.0364748 0.308175 0.0402 0.0380214 0.303998 0.0402 0.0398609 0.316981 0.006 0.0317685 0.312911 0.0402 0.0351314 0.310901 0.0402 0.0364748 0.321989 0.0402 0.0259345 0.320877 0.0402 0.027451 0.321989 0.006 0.0259345 0.317175 0.0402 0.0315827 0.316981 0.0402 0.0317685 0.323938 0.0402 0.0228242 0.32572 0.006 0.0192119 0.32572 0.0402 0.0192119 0.326293 0.0402 0.0178011 0.328022 0.006 0.0118757 0.327891 0.0402 0.0124887 0.3288 0.0402 0.00422636 0.328699 0.0402 0.00700018 0.328022 0.0402 0.0118757 0.2628 0.0502 0.00422636 0.263098 0.0502 0.00830319 0.2908 0.0502 0.00422636 0.265447 0.0502 -0.00765843 0.263987 0.0502 -0.00384042 0.263098 0.0502 0.000149523 0.272889 0.0502 -0.0172958 0.269946 0.0502 -0.0144586 0.267448 0.0502 -0.0112231 0.283718 0.0502 -0.0228632 0.279849 0.0502 -0.0215433 0.276214 0.0502 -0.0196743 0.295886 0.0502 -0.0233079 0.291823 0.0502 -0.023755 0.287738 0.0502 -0.0236057 0.307092 0.0502 -0.0185458 0.303603 0.0502 -0.0206752 0.299841 0.0502 -0.022274 0.315217 0.0502 -0.00947734 0.312962 0.0502 -0.0128865 0.310234 0.0502 -0.0159309 0.318725 0.0502 0.00218249 0.31813 0.0502 -0.00186169 0.316952 0.0502 -0.00577611 0.316952 0.0502 0.0142288 0.31813 0.0502 0.0103144 0.318725 0.0502 0.00627022 0.310234 0.0502 0.0243837 0.312962 0.0502 0.0213392 0.315217 0.0502 0.0179301 0.299841 0.0502 0.0307267 0.303603 0.0502 0.0291279 0.307092 0.0502 0.0269985 0.287738 0.0502 0.0320584 0.291823 0.0502 0.0322077 0.295886 0.0502 0.0317606 0.276214 0.0502 0.028127 0.279849 0.0502 0.029996 0.283718 0.0502 0.0313159 0.267448 0.0502 0.0196759 0.269946 0.0502 0.0229113 0.272889 0.0502 0.0257485 0.263987 0.0502 0.0122931 0.265447 0.0502 0.0161111 0.253542 0.0427882 0.00970959 0.256701 0.0427882 0.0202111 0.259392 0.0427882 0.0250055 0.262752 0.0427882 0.0293571 0.271182 0.0427882 0.036372 0.292175 0.0427882 0.0418605 0.29764 0.0427882 0.0412592 0.308019 0.0427882 0.0377183 0.316938 0.0427882 0.0313374 0.323641 0.0427882 0.0226575 0.325974 0.0427882 0.0176794 0.328359 0.0427882 0.00697531 0.327558 0.0427882 -0.0039619 0.323641 0.0427882 -0.0142048 0.312712 0.0427882 -0.0264015 0.308019 0.0427882 -0.0292656 0.302959 0.0427882 -0.0314159 0.292175 0.0427882 -0.0334078 0.271182 0.0427882 -0.0279193 0.26671 0.0427882 -0.0247203 0.259392 0.0427882 -0.0165528 0.263104 0.0498593 -0.00875701 0.261509 0.0498593 -0.00458607 0.259199 0.0488603 -0.00528091 0.260538 0.0498593 -0.00022732 0.258152 0.0488603 -0.000578483 0.256103 0.0472711 -0.000880033 0.260212 0.0498593 0.00422636 0.2578 0.0488603 0.00422636 0.255729 0.0472711 0.00422636 0.25414 0.0452 0.00422636 0.260538 0.0498593 0.00868003 0.258152 0.0488603 0.00903119 0.256103 0.0472711 0.00933274 0.25453 0.0452 0.00956413 0.25453 0.0452 -0.00111142 0.253542 0.0427882 -0.00125688 0.253141 0.0427882 0.00422636 0.254737 0.0427882 -0.00662324 0.255694 0.0452 -0.00633543 0.257216 0.0472711 -0.00587759 0.256701 0.0427882 -0.0117584 0.260225 0.0452 -0.0160016 0.257606 0.0452 -0.0113343 0.261551 0.0472711 -0.0151247 0.259045 0.0472711 -0.0106598 0.263278 0.0488603 -0.013982 0.26092 0.0488603 -0.00978072 0.26529 0.0498593 -0.0126512 0.287455 0.0498593 -0.0261783 0.291917 0.0498593 -0.0263414 0.287191 0.0488603 -0.0285757 0.292005 0.0488603 -0.0287516 0.286964 0.0472711 -0.0306343 0.292081 0.0472711 -0.0308213 0.28679 0.0452 -0.032214 0.292139 0.0452 -0.0324094 0.286681 0.0427882 -0.033207 0.31501 0.0498593 -0.0144683 0.317474 0.0498593 -0.0107441 0.316919 0.0488603 -0.0159424 0.319578 0.0488603 -0.0119244 0.318559 0.0472711 -0.0172082 0.321384 0.0472711 -0.0129381 0.319816 0.0452 -0.0181794 0.32277 0.0452 -0.0137158 0.320607 0.0427882 -0.01879 0.321307 0.0498593 0.00199356 0.321307 0.0498593 0.00645915 0.323712 0.0488603 0.00181751 0.323712 0.0488603 0.0066352 0.325778 0.0472711 0.00166633 0.325778 0.0472711 0.00678638 0.327362 0.0452 0.00155033 0.327362 0.0452 0.00690238 0.328359 0.0427882 0.00147741 0.308598 0.0498593 0.0291034 0.304786 0.0498593 0.0314297 0.310001 0.0488603 0.0310649 0.305889 0.0488603 0.0335746 0.311206 0.0472711 0.0327493 0.306836 0.0472711 0.0354165 0.312131 0.0452 0.0340418 0.307563 0.0452 0.0368299 0.312712 0.0427882 0.0348542 0.278837 0.0498593 0.0323781 0.274865 0.0498593 0.0303362 0.277894 0.0488603 0.0345978 0.273609 0.0488603 0.0323949 0.277084 0.0472711 0.0365039 0.27253 0.0472711 0.0341628 0.276462 0.0452 0.0379665 0.271702 0.0452 0.0355193 0.276071 0.0427882 0.0388859 0.262752 0.0427882 -0.0209044 0.263496 0.0452 -0.0202377 0.26468 0.0472711 -0.0191772 0.266223 0.0488603 -0.0177952 0.268019 0.0498593 -0.0161857 0.271234 0.0498593 -0.0192852 0.269691 0.0488603 -0.021139 0.268366 0.0472711 -0.0227309 0.267349 0.0452 -0.0239524 0.271702 0.0452 -0.0270666 0.27253 0.0472711 -0.0257101 0.273609 0.0488603 -0.0239422 0.274865 0.0498593 -0.0218835 0.276071 0.0427882 -0.0304332 0.276462 0.0452 -0.0295138 0.277084 0.0472711 -0.0280512 0.277894 0.0488603 -0.0261451 0.278837 0.0498593 -0.0239254 0.283063 0.0498593 -0.0253672 0.282453 0.0488603 -0.0277006 0.281929 0.0472711 -0.0297043 0.281527 0.0452 -0.0312418 0.281275 0.0427882 -0.0322084 0.29764 0.0427882 -0.0328065 0.297459 0.0452 -0.0318241 0.29717 0.0472711 -0.0302613 0.296794 0.0488603 -0.0282247 0.296356 0.0498593 -0.025853 0.300676 0.0498593 -0.0247235 0.301455 0.0488603 -0.0270062 0.302124 0.0472711 -0.0289663 0.302637 0.0452 -0.0304704 0.307563 0.0452 -0.0283772 0.306836 0.0472711 -0.0269638 0.305889 0.0488603 -0.0251219 0.304786 0.0498593 -0.022977 0.312131 0.0452 -0.0255891 0.311206 0.0472711 -0.0242966 0.310001 0.0488603 -0.0226122 0.308598 0.0498593 -0.0206507 0.316938 0.0427882 -0.0228847 0.316245 0.0452 -0.0221655 0.315142 0.0472711 -0.0210214 0.313704 0.0488603 -0.0195305 0.31203 0.0498593 -0.0177942 0.325974 0.0427882 -0.00922669 0.325041 0.0452 -0.00886982 0.323557 0.0472711 -0.00830211 0.321623 0.0488603 -0.00756226 0.31937 0.0498593 -0.00670069 0.320656 0.0498593 -0.00242444 0.323011 0.0488603 -0.00294884 0.325032 0.0472711 -0.00339915 0.326583 0.0452 -0.00374469 0.327558 0.0427882 0.0124146 0.326583 0.0452 0.0121974 0.325032 0.0472711 0.0118519 0.323011 0.0488603 0.0114016 0.320656 0.0498593 0.0108772 0.31937 0.0498593 0.0151534 0.321623 0.0488603 0.016015 0.323557 0.0472711 0.0167548 0.325041 0.0452 0.0173225 0.32277 0.0452 0.0221685 0.321384 0.0472711 0.0213908 0.319578 0.0488603 0.0203771 0.317474 0.0498593 0.0191968 0.320607 0.0427882 0.0272427 0.319816 0.0452 0.0266321 0.318559 0.0472711 0.0256609 0.316919 0.0488603 0.0243951 0.31501 0.0498593 0.0229211 0.31203 0.0498593 0.0262469 0.313704 0.0488603 0.0279832 0.315142 0.0472711 0.0294741 0.316245 0.0452 0.0306182 0.302959 0.0427882 0.0398686 0.302637 0.0452 0.0389231 0.302124 0.0472711 0.037419 0.301455 0.0488603 0.0354589 0.300676 0.0498593 0.0331762 0.296356 0.0498593 0.0343057 0.296794 0.0488603 0.0366774 0.29717 0.0472711 0.038714 0.297459 0.0452 0.0402768 0.292139 0.0452 0.0408622 0.292081 0.0472711 0.039274 0.292005 0.0488603 0.0372043 0.291917 0.0498593 0.0347941 0.286681 0.0427882 0.0416597 0.28679 0.0452 0.0406667 0.286964 0.0472711 0.039087 0.287191 0.0488603 0.0370284 0.287455 0.0498593 0.034631 0.283063 0.0498593 0.0338199 0.282453 0.0488603 0.0361533 0.281929 0.0472711 0.038157 0.281527 0.0452 0.0396946 0.281275 0.0427882 0.0406611 0.26671 0.0427882 0.033173 0.267349 0.0452 0.0324052 0.268366 0.0472711 0.0311836 0.269691 0.0488603 0.0295917 0.271234 0.0498593 0.0277379 0.268019 0.0498593 0.0246384 0.266223 0.0488603 0.0262479 0.26468 0.0472711 0.0276299 0.263496 0.0452 0.0286904 0.260225 0.0452 0.0244543 0.261551 0.0472711 0.0235774 0.263278 0.0488603 0.0224347 0.26529 0.0498593 0.0211039 0.257606 0.0452 0.019787 0.259045 0.0472711 0.0191125 0.26092 0.0488603 0.0182334 0.263104 0.0498593 0.0172097 0.254737 0.0427882 0.015076 0.255694 0.0452 0.0147881 0.257216 0.0472711 0.0143303 0.259199 0.0488603 0.0137336 0.261509 0.0498593 0.0130388</float_array>
                    <technique_common>
                        <accessor count="773" source="#shape0-lib-positions-array" stride="3">
                            <param name="X" type="float"/>
                            <param name="Y" type="float"/>
                            <param name="Z" type="float"/>
                        </accessor>
                    </technique_common>
                </source>
                <source id="shape0-lib-normals" name="normal">
                    <float_array id="shape0-lib-normals-array" count="4602">1 0 0 1 0 0 1 0 0 1 0 0 1 0 0 1 0 0 1 0 0 1 0 0 1 0 0 1 0 0 1 0 0 1 0 0 1 0 0 -0.000954298 0.281733 -0.959493 0 0.75575 0.654861 0 0.909632 0.415415 0 0.909632 0.415415 0 0.989821 0.142315 0 0.989821 0.142315 0 0.989821 -0.142315 0 0.989821 -0.142315 0 0.909632 -0.415415 0 0.909632 -0.415415 0 0.75575 -0.654861 0 0.75575 -0.654861 0 0.603737 -0.797183 -0.000965748 0.54064 -0.841253 0 0.484141 -0.87499 0 0.358393 -0.933571 -0.000965747 0.54064 0.841253 0 0.603737 0.797183 0 0.75575 0.654861 0 0.221884 -0.975073 0 0 -1 0 0 -1 0 -0.281733 -0.959493 0 -0.281733 -0.959493 0 -0.540641 -0.841254 0 -0.540641 -0.841254 0 -0.75575 -0.654861 0 -0.75575 -0.654861 0 -0.909632 -0.415415 0 -0.909632 -0.415415 0 -0.989821 -0.142315 0 -0.989821 -0.142315 0 -0.989821 0.142315 0 -0.989821 0.142315 0 -0.909632 0.415415 0 -0.909632 0.415415 0 -0.75575 0.654861 0 -0.75575 0.654861 0 -0.540641 0.841254 0 -0.540641 0.841254 0 -0.281733 0.959493 0 -0.281733 0.959493 0 0 1 0 0 1 0 0.221884 0.975073 -0.000954298 0.281733 0.959493 0 0.358393 0.933571 0 0.484141 0.87499 1 0 0 1 0 0 1 0 0 1 0 0 1 0 0 1 0 0 1 0 0 -0.703483 0.703479 0.101145 -0.703483 0.646487 0.295241 -0.703482 0.646487 0.295241 -0.703482 0.537121 0.465418 -0.703483 0.537121 0.465418 -0.703483 0.38424 0.597889 -0.703482 0.384241 0.59789 -0.703482 0.200231 0.681924 -0.703482 0.200231 0.681924 -0.703482 0 0.710713 -0.703482 0 0.710713 -0.703482 -0.200231 0.681924 -0.703482 -0.200231 0.681924 -0.703482 -0.384241 0.59789 -0.703482 -0.38424 0.59789 -0.703483 -0.537121 0.465418 -0.703482 -0.537121 0.465418 -0.703482 -0.646487 0.295241 -0.703483 -0.646487 0.295241 -0.703483 -0.703479 0.101145 -0.703482 -0.703479 0.101145 -0.703482 -0.703479 -0.101145 -0.703483 -0.703479 -0.101145 -0.703483 -0.646487 -0.295241 -0.703482 -0.646487 -0.295241 -0.703482 -0.537121 -0.465418 -0.703483 -0.537121 -0.465418 -0.703483 -0.38424 -0.597889 -0.703482 -0.384241 -0.59789 -0.703482 -0.200231 -0.681924 -0.703482 -0.200231 -0.681924 -0.703482 0 -0.710713 -0.703482 0 -0.710713 -0.703482 0.200231 -0.681924 -0.703482 0.200231 -0.681924 -0.703482 0.384241 -0.59789 -0.703482 0.38424 -0.59789 -0.703483 0.537121 -0.465418 -0.703482 0.537121 -0.465418 -0.703482 0.646487 -0.295241 -0.703483 0.646487 -0.295241 -0.703483 0.703479 -0.101145 -0.703482 0.703479 -0.101145 -0.703482 0.703479 0.101145 0 0.988398 -0.151887 -0.00591855 0.993695 -0.111963 0 0.972971 -0.230928 -0.00157231 0.948535 -0.316668 -0.00419254 0.943875 -0.330276 0 0.814728 -0.579844 -0.00642634 0.846707 -0.532021 0 0.874527 -0.484977 0 0.910715 -0.413035 0 0.765428 -0.643521 -0.00562622 0.692713 -0.721191 -0.00125042 0.707106 -0.707106 0 0.627978 -0.778231 0 0.56332 -0.826239 -0.00571543 0.532023 -0.84671 0 0.289252 -0.957253 -0.00608777 0.330273 -0.943866 0 0.394612 -0.918848 0 0.467269 -0.884116 0 0.211288 -0.977424 -0.00216388 0.120536 -0.992707 -0.00378652 0.111964 -0.993705 0 -0.171759 -0.985139 -0.00639244 -0.111962 -0.993692 0 -0.0603788 -0.998176 -1.7266e-19 0.0201382 -0.999797 0 -0.250473 -0.968123 -0.00641934 -0.354597 -0.934997 -0.000642054 -0.330279 -0.943883 0 -0.431292 -0.902212 0 -0.502489 -0.864583 -0.00547849 -0.532024 -0.846711 0 -0.738895 -0.673821 -0.00622321 -0.707093 -0.707093 0 -0.658805 -0.752314 0 -0.596133 -0.802886 0 -0.790719 -0.61218 -0.00278908 -0.845187 -0.534464 -0.00334685 -0.846719 -0.532029 0 -0.893346 -0.44937 0 -0.926608 -0.376029 -0.00632475 -0.943864 -0.330273 0 -0.962883 -0.269917 0 -0.981481 -0.191562 -0.00520769 -0.993699 -0.111963 0 -0.996757 -0.0804667 0 -0.996757 0.0804667 -0.00520769 -0.993699 0.111963 0 -0.926608 0.376029 -0.00632476 -0.943864 0.330273 0 -0.962883 0.269917 0 -0.981481 0.191562 0 -0.893346 0.44937 -0.00344795 -0.845185 0.534463 -0.00287334 -0.846721 0.53203 0 -0.790719 0.61218 0 -0.738895 0.673821 -0.00622321 -0.707093 0.707093 0 -0.502489 0.864583 -0.00547849 -0.532024 0.846711 0 -0.596133 0.802886 0 -0.658805 0.752314 0 -0.431292 0.902212 -0.0004904 -0.354605 0.935016 -0.0049031 -0.330275 0.943872 -3.81627e-19 -0.0603788 0.998176 -0.00639244 -0.111962 0.993692 0 -0.171759 0.985139 0 -0.250473 0.968123 1.27285e-19 0.0201382 0.999797 -0.00414035 0.120535 0.9927 -0.00236607 0.111964 0.993709 0 0.211288 0.977424 0 0.289252 0.957253 -0.00608777 0.330273 0.943866 0 0.56332 0.826239 -0.00571543 0.532023 0.84671 0 0.467269 0.884116 0 0.394612 0.918848 0 0.627978 0.778231 -0.00101451 0.692724 0.721202 -0.00456478 0.707099 0.707099 0 0.874527 0.484977 -0.00642634 0.846707 0.532021 0 0.814728 0.579844 0 0.765428 0.643521 0 0.910715 0.413035 -0.0048665 0.948525 0.316664 -0.00182507 0.943882 0.330279 0 0.972971 0.230928 0 0.988398 0.151887 -0.00591855 0.993695 0.111963 0 0.999189 0.0402655 0 0.999189 -0.0402655 -1 0 0 -1 0 0 -1 0 0 -1 0 0 -1 0 0 -1 0 0 -1 0 0 -1 0 0 -1 0 0 -1 0 0 -1 0 0 -1 0 0 -1 0 0 -1 0 0 -1 0 0 -1 0 0 -1 0 0 -1 0 0 -1 0 0 -1 0 0 -1 0 0 -1 0 0 -1 0 0 -1 0 0 -1 0 0 -1 0 0 -1 0 0 -1 0 0 1 0 0 1 0 0 1 0 0 1 0 0 1 0 0 1 0 0 1 0 0 1 0 0 1 0 0 1 0 0 1 0 0 1 0 0 1 0 0 1 0 0 1 0 0 1 0 0 1 0 0 1 0 0 1 0 0 1 0 0 1 0 0 1 0 0 1 0 0 1 0 0 1 0 0 1 0 0 1 0 0 1 0 0 1 0 0 1 0 0 1 0 0 1 0 0 1 0 0 1 0 0 1 0 0 1 0 0 1 0 0 1 0 0 1 0 0 1 0 0 1 0 0 1 0 0 1 0 0 1 0 0 1 0 0 1 0 0 1 0 0 1 0 0 1 0 0 1 0 0 1 0 0 1 0 0 1 0 0 1 0 0 1 0 0 1 0 0 1 0 0 1 0 0 1 0 0 1 0 0 1 0 0 0.155871 -0.908735 -0.387176 0.130507 -0.885705 -0.445527 0.13011 -0.838006 -0.529923 0.13011 -0.838006 -0.529923 0.130512 -0.783955 -0.606944 0.152568 -0.739748 -0.65536 0.130245 -0.732601 -0.668081 0.13011 -0.627069 -0.768021 0.194594 -0.646211 -0.737933 0.13045 -0.591039 -0.796025 0.130139 -0.498216 -0.857231 0.135401 -0.495395 -0.85805 0.130526 -0.427602 -0.894494 0.13011 -0.35159 -0.927068 0.13011 -0.351591 -0.927068 0.130473 -0.248332 -0.959848 0.165168 -0.197278 -0.966334 0.130354 -0.170293 -0.976733 0.130292 -0.0598641 -0.989667 0.158781 -0.0397552 -0.986513 0.1305 0.019966 -0.991247 0.130109 0.119512 -0.984271 0.130111 0.119512 -0.98427 0.130518 0.20948 -0.969063 0.148873 0.275117 -0.949814 0.13022 0.286789 -0.949102 0.13011 0.425049 -0.895771 0.199859 0.38665 -0.90031 0.130437 0.463276 -0.876562 0.130168 0.558527 -0.819209 0.14029 0.562447 -0.814845 0.130524 0.622605 -0.771574 0.13011 0.686836 -0.715072 0.13011 0.686836 -0.715072 0.130483 0.758884 -0.63802 0.163427 0.788695 -0.592665 0.130334 0.807778 -0.574898 0.130314 0.867069 -0.480842 0.161299 0.873862 -0.458638 0.130492 0.902928 -0.409503 0.13011 0.940474 -0.313976 0.13011 0.940474 -0.313976 0.130521 0.964648 -0.228953 0.14478 0.976651 -0.158721 0.130195 0.979985 -0.150594 0.130423 0.990654 -0.0399216 0.168258 0.985743 0 0.130423 0.990654 0.0399216 0.130195 0.979985 0.150594 0.14478 0.976651 0.158721 0.130521 0.964648 0.228953 0.13011 0.940473 0.313976 0.13011 0.940474 0.313976 0.130492 0.902928 0.409503 0.161299 0.873862 0.458638 0.130314 0.867069 0.480842 0.13011 0.792647 0.595636 0.178692 0.801615 0.570511 0.130483 0.758884 0.63802 0.13011 0.686836 0.715072 0.13011 0.686836 0.715072 0.130524 0.622605 0.771574 0.14029 0.562447 0.814845 0.130168 0.558527 0.819209 0.130437 0.463276 0.876562 0.168065 0.422595 0.8906 0.130406 0.391242 0.911002 0.13022 0.286789 0.949102 0.148873 0.275117 0.949814 0.130518 0.20948 0.969063 0.130111 0.119512 0.98427 0.130109 0.119512 0.98427 0.1305 0.019966 0.991247 0.158781 -0.0397552 0.986513 0.130292 -0.0598641 0.989667 0.13011 -0.198325 0.971462 0.184011 -0.168826 0.968317 0.130473 -0.248332 0.959848 0.13011 -0.351591 0.927068 0.13011 -0.351591 0.927068 0.130526 -0.427603 0.894494 0.135401 -0.495395 0.85805 0.130139 -0.498216 0.857231 0.13045 -0.591039 0.796025 0.167485 -0.623512 0.763663 0.13039 -0.65318 0.745891 0.130245 -0.732601 0.668081 0.152568 -0.739748 0.65536 0.130512 -0.783955 0.606944 0.13011 -0.838006 0.529923 0.13011 -0.838006 0.529923 0.130507 -0.885705 0.445527 0.155871 -0.908735 0.387176 0.130269 -0.918712 0.372825 0.13011 -0.962688 0.237282 0.189312 -0.945472 0.265036 0.130462 -0.973092 0.189925 0.13011 -0.988284 0.0797827 0.130111 -0.988284 0.0797823 0.130111 -0.988284 -0.0797827 0.13011 -0.988284 -0.0797823 0.130462 -0.973092 -0.189925 0.16652 -0.957386 -0.235975 0.130373 -0.954665 -0.267614 0.130269 -0.918712 -0.372825 0.381624 -0.921321 0.0743764 0.381624 -0.897459 0.221204 0.381623 -0.897459 0.221204 0.381623 -0.850353 0.362302 0.381624 -0.850353 0.362301 0.381624 -0.781224 0.494016 0.381624 -0.781224 0.494016 0.381624 -0.691862 0.612936 0.381623 -0.691862 0.612936 0.381623 -0.58458 0.715981 0.381624 -0.584581 0.715981 0.381624 -0.462159 0.800483 0.381623 -0.462159 0.800483 0.381623 -0.327768 0.864252 0.381624 -0.327768 0.864252 0.381624 -0.184887 0.905638 0.381624 -0.184887 0.905638 0.381624 -0.0372184 0.923568 0.381624 -0.0372186 0.923568 0.381624 0.111414 0.917578 0.381623 0.111414 0.917579 0.381623 0.257162 0.887824 0.381624 0.257161 0.887824 0.381624 0.396248 0.835075 0.381623 0.396249 0.835075 0.381623 0.525073 0.760699 0.381624 0.525072 0.760699 0.381623 0.640298 0.66662 0.381624 0.640297 0.66662 0.381624 0.738939 0.555277 0.381623 0.738939 0.555277 0.381623 0.818443 0.429552 0.381624 0.818443 0.429552 0.381624 0.876749 0.292702 0.381624 0.876749 0.292702 0.381624 0.912348 0.148271 0.381624 0.912348 0.148271 0.381624 0.924318 0 0.381624 0.924318 0 0.381624 0.912348 -0.148271 0.381624 0.912348 -0.148271 0.381624 0.876749 -0.292702 0.381624 0.876749 -0.292702 0.381624 0.818443 -0.429552 0.381623 0.818443 -0.429552 0.381623 0.738939 -0.555277 0.381624 0.738939 -0.555277 0.381624 0.640298 -0.66662 0.381624 0.640297 -0.66662 0.381624 0.525072 -0.760699 0.381623 0.525072 -0.760699 0.381623 0.396248 -0.835076 0.381624 0.396248 -0.835075 0.381624 0.257161 -0.887824 0.381623 0.257161 -0.887824 0.381623 0.111414 -0.917579 0.381624 0.111414 -0.917578 0.381624 -0.0372184 -0.923568 0.381624 -0.0372186 -0.923568 0.381624 -0.184887 -0.905638 0.381624 -0.184887 -0.905638 0.381624 -0.327768 -0.864252 0.381623 -0.327768 -0.864252 0.381624 -0.462159 -0.800483 0.381624 -0.462159 -0.800483 0.381624 -0.58458 -0.715981 0.381623 -0.584581 -0.715981 0.381623 -0.691862 -0.612936 0.381624 -0.691862 -0.612936 0.381624 -0.781224 -0.494016 0.381624 -0.781224 -0.494016 0.381624 -0.850353 -0.362302 0.381623 -0.850354 -0.362302 0.381623 -0.897459 -0.221204 0.381624 -0.897459 -0.221204 0.381624 -0.921321 -0.0743766 0.381623 -0.921321 -0.0743765 0.381623 -0.921321 0.0743766 0.607517 -0.791731 0.0639151 0.607517 -0.771226 0.19009 0.607517 -0.771226 0.19009 0.607517 -0.730746 0.311342 0.607517 -0.730746 0.311342 0.607517 -0.67134 0.42453 0.607517 -0.67134 0.42453 0.607517 -0.594547 0.526723 0.607517 -0.594547 0.526723 0.607517 -0.502356 0.615274 0.607517 -0.502356 0.615274 0.607517 -0.397153 0.68789 0.607517 -0.397153 0.68789 0.607517 -0.281665 0.74269 0.607517 -0.281665 0.74269 0.607517 -0.158882 0.778255 0.607517 -0.158882 0.778255 0.607517 -0.0319834 0.793663 0.607517 -0.0319834 0.793663 0.607517 0.0957429 0.788516 0.607517 0.0957431 0.788516 0.607517 0.22099 0.762946 0.607517 0.22099 0.762946 0.607517 0.340514 0.717617 0.607517 0.340513 0.717617 0.607517 0.451218 0.653702 0.607517 0.451218 0.653702 0.607517 0.550236 0.572856 0.607517 0.550236 0.572856 0.607517 0.635003 0.477174 0.607517 0.635003 0.477174 0.607517 0.703324 0.369133 0.607517 0.703324 0.369133 0.607517 0.753429 0.251531 0.607517 0.753429 0.251532 0.607517 0.784021 0.127416 0.607517 0.784021 0.127416 0.607517 0.794307 0 0.607517 0.794307 0 0.607517 0.784021 -0.127416 0.607517 0.784021 -0.127416 0.607517 0.753429 -0.251531 0.607517 0.753429 -0.251532 0.607517 0.703324 -0.369133 0.607517 0.703324 -0.369133 0.607517 0.635003 -0.477174 0.607517 0.635003 -0.477174 0.607517 0.550236 -0.572856 0.607517 0.550236 -0.572856 0.607517 0.451218 -0.653702 0.607517 0.451218 -0.653702 0.607517 0.340513 -0.717617 0.607517 0.340513 -0.717617 0.607517 0.22099 -0.762946 0.607517 0.22099 -0.762946 0.607516 0.0957429 -0.788516 0.607517 0.0957431 -0.788515 0.607517 -0.0319834 -0.793663 0.607517 -0.0319834 -0.793663 0.607517 -0.158882 -0.778255 0.607517 -0.158882 -0.778255 0.607517 -0.281665 -0.74269 0.607517 -0.281665 -0.74269 0.607517 -0.397153 -0.68789 0.607517 -0.397153 -0.68789 0.607517 -0.502356 -0.615274 0.607517 -0.502356 -0.615274 0.607517 -0.594547 -0.526723 0.607517 -0.594547 -0.526723 0.607517 -0.67134 -0.42453 0.607517 -0.67134 -0.42453 0.607517 -0.730746 -0.311342 0.607517 -0.730746 -0.311342 0.607517 -0.771226 -0.19009 0.607517 -0.771226 -0.19009 0.607517 -0.791731 -0.0639149 0.607517 -0.791731 -0.0639151 0.607517 -0.791731 0.0639149 0.792397 -0.608028 0.0490849 0.792397 -0.59228 0.145984 0.792397 -0.59228 0.145984 0.792397 -0.561193 0.239102 0.792397 -0.561193 0.239102 0.792397 -0.515571 0.326027 0.792397 -0.515571 0.326027 0.792397 -0.456596 0.404509 0.792397 -0.456596 0.404509 0.792397 -0.385795 0.472513 0.792397 -0.385795 0.472514 0.792397 -0.305003 0.528281 0.792397 -0.305003 0.52828 0.792397 -0.216311 0.570365 0.792397 -0.216311 0.570365 0.792397 -0.122017 0.597678 0.792397 -0.122017 0.597678 0.792397 -0.0245624 0.609511 0.792397 -0.0245623 0.609511 0.792397 0.0735281 0.605558 0.792397 0.0735279 0.605558 0.792397 0.169714 0.585921 0.792397 0.169714 0.585922 0.792397 0.261505 0.55111 0.792397 0.261505 0.55111 0.792397 0.346523 0.502025 0.792397 0.346523 0.502025 0.792397 0.422566 0.439938 0.792397 0.422566 0.439938 0.792397 0.487665 0.366456 0.792397 0.487665 0.366456 0.792397 0.540133 0.283484 0.792397 0.540133 0.283484 0.792397 0.578613 0.193169 0.792397 0.578613 0.193169 0.792397 0.602107 0.0978518 0.792397 0.602106 0.097852 0.792397 0.610006 0 0.792397 0.610006 0 0.792397 0.602106 -0.0978517 0.792397 0.602106 -0.097852 0.792397 0.578613 -0.193169 0.792397 0.578613 -0.193169 0.792397 0.540133 -0.283484 0.792397 0.540133 -0.283484 0.792397 0.487665 -0.366456 0.792397 0.487665 -0.366456 0.792397 0.422566 -0.439938 0.792397 0.422566 -0.439938 0.792397 0.346523 -0.502025 0.792397 0.346523 -0.502025 0.792397 0.261505 -0.55111 0.792397 0.261505 -0.55111 0.792397 0.169714 -0.585922 0.792397 0.169714 -0.585921 0.792397 0.0735281 -0.605558 0.792397 0.0735279 -0.605558 0.792397 -0.0245624 -0.609511 0.792397 -0.0245623 -0.609511 0.792397 -0.122017 -0.597678 0.792397 -0.122017 -0.597678 0.792397 -0.216311 -0.570365 0.792397 -0.216311 -0.570365 0.792397 -0.305003 -0.528281 0.792397 -0.305003 -0.528281 0.792397 -0.385796 -0.472514 0.792397 -0.385795 -0.472513 0.792397 -0.456596 -0.404509 0.792397 -0.456596 -0.404509 0.792397 -0.515571 -0.326027 0.792397 -0.515571 -0.326027 0.792397 -0.561193 -0.239102 0.792397 -0.561193 -0.239102 0.792397 -0.59228 -0.145984 0.792397 -0.59228 -0.145984 0.792397 -0.608027 -0.0490851 0.792397 -0.608028 -0.0490849 0.792397 -0.608028 0.0490851 0.923439 -0.382501 0.0308787 0.923439 -0.372594 0.0918364 0.923439 -0.372594 0.0918362 0.923439 -0.353038 0.150415 0.923439 -0.353038 0.150415 0.923439 -0.324338 0.205099 0.923439 -0.324338 0.205099 0.923439 -0.287237 0.25447 0.923439 -0.287237 0.25447 0.923439 -0.242698 0.297251 0.923439 -0.242698 0.297251 0.923439 -0.191873 0.332333 0.923439 -0.191873 0.332333 0.923439 -0.136078 0.358808 0.923439 -0.136078 0.358808 0.923439 -0.0767589 0.37599 0.923439 -0.0767589 0.37599 0.923439 -0.0154519 0.383434 0.923439 -0.0154518 0.383434 0.923439 0.0462555 0.380947 0.923439 0.0462554 0.380947 0.923439 0.106764 0.368594 0.923439 0.106765 0.368594 0.923439 0.164509 0.346695 0.923439 0.164509 0.346695 0.923439 0.217992 0.315816 0.923439 0.217992 0.315816 0.923439 0.26583 0.276758 0.923439 0.265829 0.276758 0.923439 0.306782 0.230532 0.923439 0.306782 0.230532 0.923439 0.339789 0.178335 0.923439 0.339789 0.178335 0.923439 0.363996 0.12152 0.923439 0.363996 0.12152 0.923439 0.378776 0.061557 0.923439 0.378776 0.061557 0.923439 0.383745 0 0.923439 0.383745 0 0.923439 0.378776 -0.061557 0.923439 0.378776 -0.061557 0.923439 0.363996 -0.12152 0.923439 0.363996 -0.12152 0.923439 0.339789 -0.178335 0.923439 0.339789 -0.178335 0.923439 0.306782 -0.230532 0.923439 0.306782 -0.230532 0.923439 0.265829 -0.276758 0.923439 0.26583 -0.276758 0.923439 0.217992 -0.315816 0.923439 0.217992 -0.315816 0.923439 0.164509 -0.346695 0.923439 0.164509 -0.346695 0.923439 0.106764 -0.368594 0.923439 0.106765 -0.368594 0.923439 0.0462555 -0.380947 0.923439 0.0462554 -0.380947 0.923439 -0.0154519 -0.383434 0.923439 -0.0154518 -0.383434 0.923439 -0.0767589 -0.37599 0.923439 -0.076759 -0.37599 0.923439 -0.136078 -0.358808 0.923439 -0.136078 -0.358808 0.923439 -0.191873 -0.332333 0.923439 -0.191872 -0.332333 0.923439 -0.242698 -0.297251 0.923439 -0.242698 -0.297251 0.923439 -0.287237 -0.25447 0.923439 -0.287237 -0.25447 0.923439 -0.324338 -0.205099 0.923439 -0.324338 -0.205099 0.923439 -0.353038 -0.150415 0.923439 -0.353038 -0.150415 0.923439 -0.372594 -0.0918363 0.923439 -0.372594 -0.0918362 0.923439 -0.382501 -0.0308786 0.923439 -0.382501 -0.0308787 0.923439 -0.382501 0.0308786 0.99139 -0.13052 0.0105367 0.99139 -0.12714 0.0313371 0.99139 -0.12714 0.0313372 0.99139 -0.120466 0.051326 0.99139 -0.120466 0.0513259 0.99139 -0.110673 0.0699854 0.99139 -0.110673 0.0699855 0.99139 -0.0980135 0.0868324 0.99139 -0.0980135 0.0868324 0.99139 -0.0828154 0.10143 0.99139 -0.0828154 0.10143 0.99139 -0.0654724 0.113401 0.99139 -0.0654724 0.113401 0.99139 -0.0464336 0.122435 0.99139 -0.0464336 0.122435 0.99139 -0.0261923 0.128298 0.99139 -0.0261923 0.128298 0.99139 -0.00527259 0.130839 0.99139 -0.00527264 0.130838 0.99139 0.0157836 0.12999 0.99139 0.0157837 0.12999 0.99139 0.0364311 0.125775 0.99139 0.0364311 0.125775 0.99139 0.056135 0.118302 0.99139 0.0561351 0.118302 0.99139 0.0743851 0.107765 0.99139 0.0743851 0.107765 0.99139 0.0907087 0.0944377 0.99139 0.0907086 0.0944376 0.99139 0.104683 0.078664 0.99139 0.104683 0.078664 0.99139 0.115946 0.0608531 0.99139 0.115946 0.0608531 0.99139 0.124206 0.041466 0.99139 0.124206 0.041466 0.99139 0.129249 0.021005 0.99139 0.129249 0.021005 0.99139 0.130945 0 0.99139 0.130945 0 0.99139 0.129249 -0.021005 0.99139 0.129249 -0.021005 0.99139 0.124206 -0.041466 0.99139 0.124206 -0.041466 0.99139 0.115946 -0.060853 0.99139 0.115946 -0.0608531 0.99139 0.104683 -0.0786641 0.99139 0.104683 -0.078664 0.99139 0.0907086 -0.0944376 0.99139 0.0907086 -0.0944377 0.99139 0.0743851 -0.107765 0.99139 0.0743851 -0.107765 0.99139 0.056135 -0.118302 0.99139 0.056135 -0.118302 0.99139 0.0364311 -0.125775 0.99139 0.0364311 -0.125775 0.99139 0.0157836 -0.12999 0.99139 0.0157837 -0.12999 0.99139 -0.00527259 -0.130838 0.99139 -0.00527264 -0.130839 0.99139 -0.0261923 -0.128298 0.99139 -0.0261923 -0.128298 0.99139 -0.0464336 -0.122435 0.99139 -0.0464336 -0.122435 0.99139 -0.0654724 -0.113401 0.99139 -0.0654724 -0.113401 0.99139 -0.0828154 -0.10143 0.99139 -0.0828154 -0.10143 0.99139 -0.0980135 -0.0868324 0.99139 -0.0980135 -0.0868324 0.99139 -0.110673 -0.0699855 0.99139 -0.110673 -0.0699855 0.99139 -0.120466 -0.051326 0.99139 -0.120467 -0.0513259 0.99139 -0.12714 -0.0313371 0.99139 -0.12714 -0.0313372 0.99139 -0.13052 -0.0105367 0.99139 -0.13052 -0.0105367 0.99139 -0.13052 0.0105367 -1 0 0 -1 0 0 -1 0 0 -1 0 0 -1 0 0 -1 0 0 0 0 1 0 0 1 -0.892753 0 0.450547 -0.976075 -0.00121005 0.217429 -0.979519 -0.0045957 0.201298 -0.998716 0 -0.0506495 -0.999978 -0.0066768 0 -0.998716 0 0.0506495 -0.992355 0 0.123416 -0.992355 0 -0.123416 -0.976061 -0.00555315 -0.217426 -0.979529 -0.00146204 -0.2013 -0.955876 0 -0.29377 -0.931896 0 -0.362726 -0.918942 -0.0059688 -0.394349 -0.764616 0 -0.644487 -0.890416 0 -0.455148 -0.85482 0 -0.518924 -0.825888 -0.00540161 -0.563809 -0.797932 0.0012573 -0.602746 -0.764616 0 -0.644487 0.990511 0 -0.137434 0.994856 -0.00525658 -0.101164 0.977838 0 -0.209364 0.954137 -0.00170412 -0.299364 0.957591 -0.00413742 -0.288101 0.874333 -0.00568844 -0.485293 0.896765 0 -0.442506 0.926675 0 -0.375863 0.691534 0 -0.722344 0.744772 -0.000601037 -0.667318 0.758751 -0.00420718 -0.651368 0.806372 0 -0.591409 0.847396 0 -0.530962 0.636952 0 -0.770904 0.612098 -0.00491095 -0.790767 0.555691 0 -0.831389 0.493523 0 -0.869733 0.440388 -0.00550318 -0.897791 0.403002 0 -0.915199 0.335125 0 -0.942174 0.250652 -0.00254249 -0.968074 0.252931 -0.0030044 -0.96748 0.0506483 -0.00558956 -0.998701 0.0941315 0 -0.99556 0.166555 0 -0.986032 -0.151426 -0.00470109 -0.988457 -0.0800445 0 -0.996791 -0.00707029 0 -0.999975 -0.347301 -0.00446676 -0.937743 -0.32288 -0.00019436 -0.94644 -0.181637 0.000188034 -0.983366 -0.528956 -0.00565141 -0.84863 -0.481175 0 -0.876625 -0.415904 0 -0.909408 -0.751808 0 -0.659382 -0.694072 -0.00196955 -0.719903 -0.688962 -0.00328241 -0.72479 -0.625985 0 -0.779835 -0.567395 0 -0.823446 -0.820752 -0.00539237 0.571259 -0.854821 0 0.518924 -0.892753 0 0.450547 -0.890416 -0.000528079 0.455148 -0.933753 0.000900531 0.357917 -0.931896 0 0.362726 -0.955876 0 0.29377 -0.625986 0 0.779834 -0.694069 -0.003559 0.7199 -0.688964 -0.00213554 0.724792 -0.751808 0 0.659382 -0.797933 0 0.602746 -0.567394 0 0.823446 -0.528956 -0.00565139 0.84863 -0.481175 0 0.876625 -0.415906 0 0.909408 -0.347301 -0.00446686 0.937743 -0.32288 -0.000194464 0.94644 -0.181637 0.000187927 0.983366 -0.151426 -0.00470112 0.988457 -0.0800445 0 0.996791 -0.00707029 0 0.999975 0.0506483 -0.00558956 0.998701 0.0941315 0 0.99556 0.166555 0 0.986032 0.250652 -0.00292453 0.968073 0.252932 -0.00247479 0.967481 0.440388 -0.00550308 0.897791 0.403003 0 0.915199 0.335122 0 0.942175 0.612098 -0.00491092 0.790767 0.555691 0 0.831389 0.493522 0 0.869733 0.806372 0 0.591409 0.744762 -0.00536892 0.667309 0.758757 -0.000767026 0.651373 0.691534 0 0.722344 0.636952 0 0.770904 0.847396 0 0.530962 0.874333 -0.00568842 0.485293 0.896765 0 0.442506 0.926675 0 0.375863 0.954133 -0.00361502 0.299363 0.957598 -0.001489 0.288103 0.999333 0 -0.0365164 0.999333 0 0.0365164 0.994856 -0.00525658 0.101164 0.990511 0 0.137434 0.977838 0 0.209364 0 0 -1 0 0 -1 0 1 0 0 1 0 0 1 0 0 1 0 0 1 0 0 1 0 0 1 0 0 1 0 0 1 0 0 -1 0 0 -1 0 0 -1 0 0 -1 0 0 -1 0 0 -1 0 0 -1 0 0 -1 0 0 -1 0 0 -1 0 0 -1 0 0 -1 0 0 -1 0 0 -1 0 0 -1 0 0 -1 0 0 -1 0 0 -1 0 0 -1 0 0 -1 0 0 -1 0 0 -1 0 0 -1 0 0 -1 0 0 -1 0 0 -1 0 0 -1 0 0 -1 0 0 -1 0 0 -1 0 0 1 0 0 1 0 0 1 0 0 1 0 0 1 0 0 1 0 0 1 0 0 1 0 0 1 0 0 1 0 0 1 0 0 1 0 0 1 0 0 1 0 0 1 0 0 1 0 0 1 0 0 1 0 0 1 0 0 1 0 0 1 0 0 1 0 0 1 0 0 1 0 0 1 0 0 1 0 0 1 0 0 1 0 0 1 0 0 1 0 0 1 0 0 1 0 0 1 0 0 1 0 0 1 0 0 1 0 0 1 0 0 1 0 0 1 0 0 1 0 0 1 0 0 1 0 0 1 0 -0.983869 0.130499 0.122361 -0.923958 0.130244 0.359636 -0.847518 0.130435 0.514491 -0.745377 0.130525 0.653741 -0.562555 0.130328 0.816423 -0.00700991 0.130404 0.991436 0.165131 0.13051 0.977599 0.399567 0.130295 0.907397 0.685618 0.130528 0.716164 0.840162 0.130381 0.52643 0.918751 0.130501 0.372648 0.982072 0.130258 0.136263 0.969473 0.130523 -0.207573 0.889114 0.130351 -0.438731 0.631528 0.130219 -0.76434 0.489308 0.130418 -0.862304 0.332259 0.130517 -0.934114 0.0933289 0.130312 -0.987071 -0.477067 0.13039 -0.869141 -0.620631 0.130509 -0.773165 -0.791132 0.130281 -0.597609 -0.114124 0.9914 -0.0640501 -0.122234 0.9914 -0.0467502 -0.122234 0.9914 -0.04675 -0.358247 0.923518 -0.137016 -0.127738 0.9914 -0.0284547 -0.127738 0.9914 -0.0284551 -0.374382 0.923517 -0.0833977 -0.374379 0.923518 -0.083395 -0.595196 0.792567 -0.132583 -0.130519 0.9914 -0.0095526 -0.13052 0.9914 -0.00955312 -0.382533 0.923518 -0.0279987 -0.382535 0.923517 -0.0280002 -0.608161 0.792565 -0.0445152 -0.608158 0.792567 -0.0445128 -0.79202 0.607736 -0.0579702 -0.13052 0.9914 0.00955266 -0.130519 0.9914 0.00955307 -0.382535 0.923517 0.0279989 -0.382533 0.923518 0.0280001 -0.608157 0.792567 0.044515 -0.608161 0.792565 0.044513 -0.792019 0.607738 0.0579701 -0.792021 0.607736 0.057969 -0.921774 0.381813 0.0674658 -0.921774 0.381813 -0.0674647 -0.902128 0.381813 -0.200956 -0.902128 0.381813 -0.200956 -0.775141 0.607735 -0.172669 -0.805985 0.381807 -0.45234 -0.805985 0.381806 -0.45234 -0.692525 0.607742 -0.388663 -0.692525 0.607742 -0.388663 -0.531765 0.792565 -0.29844 -0.531766 0.792564 -0.298442 -0.33448 0.923518 -0.18772 -0.00477962 0.9914 -0.130782 -0.00477956 0.9914 -0.130782 -0.0140081 0.923517 -0.383301 -0.0140083 0.923517 -0.383301 -0.0222706 0.792567 -0.609378 -0.0222706 0.792567 -0.609378 -0.0290035 0.607737 -0.793608 -0.0290038 0.607738 -0.793608 -0.0337555 0.381812 -0.923623 -0.0337547 0.381811 -0.923624 0.109144 0.9914 -0.0722089 0.109144 0.9914 -0.0722089 0.319886 0.923517 -0.211635 0.319886 0.923517 -0.211635 0.508559 0.792568 -0.336459 0.508558 0.792568 -0.336459 0.662309 0.607738 -0.43818 0.662311 0.607736 -0.43818 0.770814 0.381813 -0.509965 0.770816 0.381811 -0.509964 0.13087 0.9914 0 0.13087 0.9914 0 0.383557 0.923517 0 0.383556 0.923517 0 0.609785 0.792566 0 0.609785 0.792566 0 0.794138 0.607738 0 0.794138 0.607738 0 0.924239 0.381815 0 0.924239 0.381815 0 0.068175 0.9914 0.111709 0.068175 0.9914 0.111708 0.199811 0.923517 0.327401 0.199811 0.923517 0.327401 0.317662 0.792568 0.520506 0.317662 0.792566 0.520509 0.413698 0.607737 0.677871 0.413698 0.607737 0.677871 0.481474 0.381808 0.788927 0.481474 0.38181 0.788926 -0.0598393 0.9914 0.116388 -0.0598391 0.9914 0.116387 -0.175379 0.923517 0.341113 -0.175377 0.923518 0.341112 -0.278819 0.792566 0.542309 -0.278818 0.792567 0.542308 -0.363111 0.607741 0.706259 -0.363116 0.607735 0.706261 -0.422604 0.381809 0.821966 -0.422601 0.381814 0.821965 -0.947698 0.130528 -0.291256 -0.967769 0.130188 -0.215579 -0.967769 0.130189 -0.215578 -0.983869 0.130499 -0.122361 -0.98409 0.162418 -0.0720256 -0.990193 0.130368 -0.0502172 -0.923958 0.130244 -0.359636 -0.924621 0.141475 -0.35364 -0.863257 0.381806 -0.33017 -0.863255 0.381813 -0.330165 -0.741735 0.607742 -0.283688 -0.741738 0.607736 -0.283694 -0.569552 0.792564 -0.217837 -0.864628 0.130189 -0.485251 -0.837549 0.200006 -0.508439 -0.882806 0.130458 -0.451258 -0.745377 0.130525 -0.653741 -0.782653 0.14906 -0.604347 -0.731533 0.381807 -0.564874 -0.731533 0.381808 -0.564873 -0.628558 0.607735 -0.485358 -0.628557 0.607742 -0.485352 -0.482643 0.792568 -0.372682 -0.482644 0.792566 -0.372685 -0.303584 0.923517 -0.23442 -0.303584 0.923518 -0.234419 -0.103583 0.9914 -0.0799835 -0.103583 0.9914 -0.0799832 -0.0908325 0.9914 -0.0942135 -0.0908324 0.9914 -0.094213 -0.266216 0.923517 -0.276125 -0.266216 0.923518 -0.276123 -0.423235 0.792568 -0.438986 -0.423236 0.792567 -0.438987 -0.551191 0.607736 -0.571705 -0.551191 0.607737 -0.571703 -0.641492 0.381807 -0.665365 -0.641492 0.381808 -0.665365 -0.688167 0.13019 -0.713776 -0.688166 0.130187 -0.713778 -0.562555 0.130329 -0.816423 -0.57455 0.158021 -0.80307 -0.537778 0.381814 -0.751673 -0.537777 0.381809 -0.751677 -0.462077 0.607735 -0.645867 -0.462077 0.607737 -0.645864 -0.354809 0.792567 -0.495931 -0.354809 0.792567 -0.495932 -0.223175 0.923518 -0.311941 -0.223175 0.923518 -0.311942 -0.0761473 0.9914 -0.106435 -0.0761473 0.9914 -0.106434 -0.412349 0.130481 -0.901634 -0.450933 0.165543 -0.877072 -0.422602 0.38181 -0.821966 -0.422603 0.381814 -0.821964 -0.363114 0.60774 -0.706258 -0.363113 0.607735 -0.706263 -0.278819 0.792567 -0.542308 -0.278819 0.792567 -0.542308 -0.175378 0.923518 -0.341113 -0.175378 0.923518 -0.341111 -0.0598392 0.9914 -0.116388 -0.0598392 0.9914 -0.116387 -0.042255 0.9914 -0.12386 -0.042255 0.9914 -0.12386 -0.123843 0.923518 -0.363013 -0.123843 0.923517 -0.363013 -0.196887 0.792567 -0.577125 -0.196888 0.792568 -0.577123 -0.256412 0.607739 -0.751602 -0.256411 0.607737 -0.751605 -0.298418 0.38181 -0.874738 -0.298419 0.381812 -0.874738 -0.320133 0.130185 -0.938385 -0.320132 0.130184 -0.938386 -0.0237707 0.9914 -0.128692 -0.0237708 0.9914 -0.128692 -0.0696684 0.923518 -0.377176 -0.0696683 0.923517 -0.377176 -0.11076 0.792568 -0.599641 -0.110759 0.792567 -0.599642 -0.144244 0.607737 -0.780929 -0.144245 0.607737 -0.780928 -0.167876 0.381811 -0.908866 -0.167877 0.381813 -0.908865 -0.180092 0.130184 -0.974997 -0.180091 0.130182 -0.974997 -0.0362108 0.130184 -0.990828 -0.00694075 0.190541 -0.981655 -0.0793603 0.130469 -0.988271 0.165131 0.130509 -0.977599 0.108043 0.15535 -0.981933 0.101085 0.381812 -0.918695 0.101085 0.381812 -0.918696 0.086856 0.607738 -0.789374 0.0868561 0.607737 -0.789374 0.0666932 0.792567 -0.606127 0.0666929 0.792567 -0.606127 0.04195 0.923518 -0.381255 0.04195 0.923518 -0.381255 0.0143133 0.9914 -0.130084 0.0143133 0.9914 -0.130084 0.0331011 0.9914 -0.126614 0.0331009 0.9914 -0.126614 0.0970135 0.923518 -0.371084 0.0970147 0.923517 -0.371085 0.154236 0.792566 -0.589958 0.154235 0.792567 -0.589957 0.200864 0.607738 -0.768315 0.200863 0.607739 -0.768315 0.23377 0.381813 -0.894187 0.233772 0.38181 -0.894188 0.250781 0.130181 -0.959251 0.25078 0.130185 -0.959251 0.399566 0.130295 -0.907397 0.386539 0.152362 -0.909601 0.361476 0.381811 -0.850621 0.361476 0.38181 -0.850621 0.310592 0.607738 -0.730881 0.31059 0.60774 -0.73088 0.23849 0.792566 -0.561214 0.238489 0.792567 -0.561214 0.15001 0.923517 -0.353005 0.150011 0.923517 -0.353006 0.0511834 0.9914 -0.120445 0.0511835 0.9914 -0.120445 0.550941 0.130463 -0.824283 0.513587 0.16742 -0.841545 0.481474 0.381809 -0.788926 0.481473 0.38181 -0.788926 0.413698 0.607737 -0.677871 0.413698 0.607737 -0.677871 0.31766 0.792568 -0.520507 0.317663 0.792566 -0.520509 0.199811 0.923517 -0.327401 0.199811 0.923517 -0.327401 0.0681751 0.9914 -0.111709 0.0681749 0.9914 -0.111708 0.685618 0.130528 -0.716164 0.633624 0.137207 -0.761377 0.591212 0.38181 -0.710415 0.591214 0.381808 -0.710414 0.50799 0.607738 -0.610411 0.507991 0.607737 -0.610411 0.390066 0.792565 -0.46871 0.390061 0.792569 -0.468708 0.245349 0.923518 -0.294819 0.245351 0.923517 -0.294819 0.0837136 0.9914 -0.100592 0.0837132 0.9914 -0.100592 0.0974675 0.9914 -0.0873317 0.0974672 0.9914 -0.0873316 0.28566 0.923518 -0.255954 0.285663 0.923517 -0.255955 0.454153 0.792565 -0.406922 0.45415 0.792567 -0.406921 0.591451 0.607738 -0.529944 0.591451 0.607738 -0.529944 0.688348 0.38181 -0.616765 0.688346 0.381813 -0.616765 0.738432 0.130187 -0.661642 0.738435 0.130179 -0.66164 0.826901 0.130189 -0.54707 0.833396 0.181021 -0.52219 0.799478 0.130482 -0.586352 0.918751 0.130501 -0.372648 0.893728 0.160378 -0.418961 0.836853 0.38181 -0.392299 0.836852 0.381811 -0.3923 0.719054 0.607733 -0.337078 0.719052 0.607735 -0.337079 0.552129 0.792567 -0.258828 0.552127 0.792568 -0.258828 0.34729 0.923517 -0.162804 0.347291 0.923517 -0.162804 0.118495 0.9914 -0.0555484 0.118494 0.9914 -0.0555485 0.12532 0.9914 -0.0377031 0.125321 0.9914 -0.0377028 0.367295 0.923517 -0.1105 0.367293 0.923518 -0.110501 0.583931 0.792567 -0.175676 0.58393 0.792567 -0.175677 0.760471 0.607733 -0.228789 0.760464 0.607741 -0.228792 0.885053 0.38181 -0.266276 0.885052 0.38181 -0.266277 0.94945 0.130184 -0.285651 0.94945 0.130185 -0.285652 0.982072 0.130258 -0.136263 0.978826 0.145426 -0.144052 0.91439 0.381815 -0.134569 0.914392 0.38181 -0.134566 0.785675 0.607738 -0.115624 0.785673 0.607741 -0.115626 0.603287 0.792567 -0.0887844 0.603286 0.792567 -0.0887848 0.379469 0.923517 -0.0558459 0.379468 0.923518 -0.0558463 0.129475 0.9914 -0.0190549 0.129475 0.9914 -0.0190549 0.99149 0.130185 0 0.978171 0.204706 0.0357431 0.990795 0.130442 -0.0362044 0.969473 0.130523 0.207573 0.978826 0.145426 0.144052 0.914392 0.381811 0.134569 0.91439 0.381815 0.134566 0.785673 0.607741 0.115624 0.785675 0.607738 0.115626 0.603287 0.792567 0.0887842 0.603287 0.792567 0.088785 0.379468 0.923518 0.0558458 0.379469 0.923517 0.0558465 0.129475 0.9914 0.0190549 0.129475 0.9914 0.0190549 0.125321 0.9914 0.0377034 0.12532 0.9914 0.0377026 0.367294 0.923518 0.1105 0.367295 0.923517 0.110501 0.583931 0.792567 0.175676 0.583931 0.792567 0.175677 0.760465 0.607741 0.228787 0.760469 0.607733 0.228794 0.885052 0.38181 0.266276 0.885053 0.38181 0.266277 0.94945 0.130185 0.285651 0.94945 0.130184 0.285652 0.889114 0.130351 0.438731 0.893728 0.160378 0.418961 0.836852 0.381811 0.392299 0.836853 0.38181 0.3923 0.719053 0.607735 0.337078 0.719053 0.607733 0.337079 0.552127 0.792568 0.258827 0.552128 0.792567 0.258829 0.347291 0.923517 0.162804 0.34729 0.923517 0.162804 0.118494 0.9914 0.0555481 0.118495 0.9914 0.0555489 0.799478 0.130482 0.586352 0.822688 0.164138 0.544282 0.770815 0.381813 0.509964 0.770815 0.381811 0.509965 0.66231 0.607738 0.438179 0.66231 0.607735 0.438181 0.508558 0.792568 0.33646 0.508558 0.792568 0.336459 0.319886 0.923517 0.211635 0.319886 0.923517 0.211634 0.109144 0.9914 0.0722091 0.109144 0.9914 0.0722087 0.0974673 0.9914 0.0873314 0.0974674 0.9914 0.0873318 0.285662 0.923517 0.255956 0.285661 0.923518 0.255953 0.454151 0.792568 0.40692 0.454152 0.792565 0.406924 0.591451 0.607738 0.529944 0.591451 0.607738 0.529944 0.688347 0.381813 0.616764 0.688347 0.381811 0.616765 0.738432 0.130179 0.661643 0.738434 0.130187 0.661639 0.631528 0.130219 0.76434 0.633624 0.137206 0.761377 0.591213 0.381808 0.710416 0.591213 0.381811 0.710413 0.50799 0.607737 0.610411 0.50799 0.607738 0.61041 0.390063 0.792569 0.468707 0.390064 0.792565 0.468712 0.24535 0.923517 0.29482 0.24535 0.923518 0.294818 0.0837134 0.9914 0.100592 0.0837135 0.9914 0.100592 0.516507 0.130184 0.846329 0.484021 0.195282 0.852988 0.550942 0.130463 0.824283 0.332255 0.130517 0.934115 0.386539 0.152363 0.909601 0.361475 0.38181 0.850621 0.361475 0.38181 0.850621 0.310591 0.607739 0.73088 0.310591 0.607737 0.730882 0.238489 0.792567 0.561213 0.238489 0.792566 0.561214 0.150011 0.923517 0.353006 0.150011 0.923517 0.353005 0.0511834 0.9914 0.120445 0.0511835 0.9914 0.120445 0.0331011 0.9914 0.126614 0.033101 0.9914 0.126614 0.0970139 0.923517 0.371086 0.0970145 0.923518 0.371084 0.154236 0.792567 0.589956 0.154235 0.792566 0.589958 0.200864 0.607739 0.768315 0.200864 0.607739 0.768315 0.233771 0.38181 0.894188 0.233772 0.381812 0.894187 0.250781 0.130185 0.95925 0.25078 0.130182 0.959251 0.0933289 0.130312 0.987071 0.108044 0.155351 0.981933 0.101086 0.381813 0.918695 0.101085 0.381811 0.918696 0.0868555 0.607737 0.789374 0.0868561 0.607738 0.789373 0.0666932 0.792567 0.606127 0.066693 0.792567 0.606127 0.04195 0.923517 0.381255 0.0419502 0.923518 0.381255 0.0143134 0.9914 0.130084 0.0143133 0.9914 0.130084 -0.0793603 0.130471 0.988271 -0.0360116 0.166638 0.98536 -0.0337553 0.381811 0.923624 -0.0337549 0.381812 0.923624 -0.0290033 0.607738 0.793608 -0.0290035 0.607738 0.793608 -0.0222706 0.792567 0.609378 -0.0222706 0.792567 0.609378 -0.0140083 0.923517 0.383301 -0.0140083 0.923517 0.383301 -0.00477961 0.9914 0.130782 -0.00477956 0.9914 0.130782 -0.0237707 0.9914 0.128692 -0.0237708 0.9914 0.128692 -0.0696684 0.923517 0.377176 -0.0696684 0.923517 0.377177 -0.11076 0.792567 0.599642 -0.110759 0.792568 0.599641 -0.144244 0.607738 0.780928 -0.144245 0.607737 0.780928 -0.167876 0.381812 0.908866 -0.167876 0.381811 0.908866 -0.180091 0.130184 0.974997 -0.180091 0.130184 0.974997 -0.0422549 0.9914 0.12386 -0.0422551 0.9914 0.12386 -0.123843 0.923517 0.363014 -0.123842 0.923517 0.363013 -0.196886 0.792568 0.577123 -0.196889 0.792566 0.577125 -0.256413 0.607737 0.751604 -0.25641 0.60774 0.751602 -0.298418 0.381812 0.874738 -0.29842 0.38181 0.874738 -0.320133 0.130184 0.938385 -0.320132 0.130186 0.938385 -0.453351 0.130182 0.881774 -0.472798 0.185787 0.861363 -0.41235 0.130481 0.901633 -0.620632 0.130509 0.773164 -0.574551 0.158021 0.80307 -0.53778 0.381808 0.751675 -0.537776 0.381815 0.751675 -0.462075 0.607738 0.645865 -0.462079 0.607734 0.645866 -0.35481 0.792567 0.495931 -0.354809 0.792567 0.495931 -0.223176 0.923518 0.311942 -0.223174 0.923518 0.311941 -0.076147 0.9914 0.106434 -0.0761476 0.9914 0.106435 -0.0908322 0.9914 0.0942132 -0.0908326 0.9914 0.0942133 -0.266215 0.923518 0.276124 -0.266217 0.923517 0.276124 -0.423236 0.792567 0.438987 -0.423235 0.792568 0.438986 -0.55119 0.607738 0.571704 -0.551192 0.607736 0.571704 -0.641493 0.381807 0.665365 -0.641492 0.381808 0.665365 -0.688167 0.130187 0.713777 -0.688166 0.13019 0.713778 -0.791132 0.130281 0.597609 -0.782653 0.14906 0.604347 -0.731533 0.381808 0.564874 -0.731534 0.381807 0.564873 -0.628554 0.607742 0.485355 -0.628561 0.607735 0.485355 -0.482645 0.792566 0.372684 -0.482642 0.792568 0.372683 -0.303584 0.923518 0.234419 -0.303585 0.923517 0.234419 -0.103582 0.9914 0.0799833 -0.103583 0.9914 0.0799834 -0.882806 0.130458 0.451258 -0.859672 0.167891 0.48247 -0.805986 0.381806 0.45234 -0.805985 0.381807 0.45234 -0.692525 0.607742 0.388663 -0.692525 0.607742 0.388663 -0.531766 0.792564 0.298441 -0.531764 0.792565 0.298441 -0.33448 0.923517 0.18772 -0.334479 0.923518 0.18772 -0.114124 0.9914 0.0640499 -0.114124 0.9914 0.0640499 -0.947698 0.130528 0.291256 -0.924621 0.141474 0.35364 -0.863254 0.381813 0.330169 -0.863258 0.381806 0.330166 -0.74174 0.607736 0.28369 -0.741733 0.607742 0.283692 -0.569548 0.792567 0.217836 -0.569553 0.792564 0.217835 -0.358247 0.923518 0.137017 -0.358249 0.923517 0.137017 -0.122234 0.9914 0.0467501 -0.122234 0.9914 0.0467501 -0.127738 0.9914 0.0284548 -0.127738 0.9914 0.028455 -0.374379 0.923518 0.0833969 -0.374382 0.923517 0.0833957 -0.595197 0.792567 0.132583 -0.595196 0.792567 0.132584 -0.775141 0.607735 0.172667 -0.775139 0.607738 0.172669 -0.902128 0.381814 0.200956 -0.902128 0.381813 0.200956 -0.967769 0.130188 0.215578 -0.967769 0.130189 0.215579 -0.114124 0.9914 -0.0640498 -0.33448 0.923517 -0.187721 -0.358248 0.923517 -0.137018 -0.569549 0.792567 -0.217834 -0.595197 0.792567 -0.132584 -0.775139 0.607738 -0.172667 -0.792019 0.607738 -0.0579689 -0.921775 0.381811 -0.0674659 -0.921775 0.381811 0.0674648 -0.988844 0.130191 0.0723736 -0.983083 0.176242 0.0498566</float_array>
                    <technique_common>
                        <accessor count="1534" source="#shape0-lib-normals-array" stride="3">
                            <param name="X" type="float"/>
                            <param name="Y" type="float"/>
                            <param name="Z" type="float"/>
                        </accessor>
                    </technique_common>
                </source>
                <vertices id="shape0-lib-vertices">
                    <input semantic="POSITION" source="#shape0-lib-positions"/>
                </vertices>
                <triangles count="1534">
                    <input offset="0" semantic="VERTEX" source="#shape0-lib-vertices"/>
                    <input offset="1" semantic="NORMAL" source="#shape0-lib-normals"/>
                    <p>0 0 1 0 2 0 0 1 2 1 3 1 3 2 2 2 4 2 3 3 4 3 5 3 5 4 6 4 3 4 3 5 6 5 7 5 3 6 7 6 8 6 8 7 9 7 3 7 3 8 9 8 10 8 3 9 10 9 11 9 11 10 12 10 3 10 3 11 12 11 13 11 3 12 13 12 14 12 15 13 16 13 0 13 17 14 18 14 19 14 19 15 18 15 20 15 19 16 20 16 21 16 21 17 20 17 22 17 21 18 22 18 23 18 23 19 22 19 24 19 23 20 24 20 25 20 25 21 24 21 26 21 25 22 26 22 27 22 27 23 26 23 28 23 27 24 28 24 29 24 29 25 28 25 30 25 29 26 30 26 16 26 16 27 30 27 31 27 16 28 31 28 0 28 32 29 33 29 17 29 17 30 33 30 34 30 17 31 34 31 18 31 0 32 3 32 15 32 15 33 3 33 14 33 15 34 14 34 35 34 35 35 14 35 13 35 35 36 13 36 36 36 36 37 13 37 12 37 36 38 12 38 37 38 37 39 12 39 11 39 37 40 11 40 38 40 38 41 11 41 10 41 38 42 10 42 39 42 39 43 10 43 9 43 39 44 9 44 40 44 40 45 9 45 8 45 40 46 8 46 41 46 41 47 8 47 7 47 41 48 7 48 42 48 42 49 7 49 6 49 42 50 6 50 43 50 43 51 6 51 5 51 43 52 5 52 44 52 44 53 5 53 4 53 44 54 4 54 45 54 45 55 4 55 2 55 45 56 2 56 46 56 46 57 2 57 1 57 46 58 1 58 32 58 32 59 1 59 47 59 32 60 47 60 33 60 33 61 30 61 34 61 34 62 30 62 28 62 34 63 28 63 18 63 24 64 22 64 20 64 18 65 28 65 20 65 20 66 28 66 26 66 20 67 26 67 24 67 48 68 49 68 21 68 21 69 49 69 50 69 21 70 50 70 19 70 19 71 50 71 51 71 19 72 51 72 17 72 17 73 51 73 52 73 17 74 52 74 32 74 32 75 52 75 53 75 32 76 53 76 46 76 46 77 53 77 54 77 46 78 54 78 45 78 45 79 54 79 55 79 45 80 55 80 44 80 44 81 55 81 56 81 44 82 56 82 43 82 43 83 56 83 57 83 43 84 57 84 42 84 42 85 57 85 58 85 42 86 58 86 41 86 41 87 58 87 59 87 41 88 59 88 60 88 60 89 59 89 61 89 60 90 61 90 39 90 39 91 61 91 62 91 39 92 62 92 38 92 38 93 62 93 63 93 38 94 63 94 37 94 37 95 63 95 64 95 37 96 64 96 36 96 36 97 64 97 65 97 36 98 65 98 35 98 35 99 65 99 66 99 35 100 66 100 15 100 15 101 66 101 67 101 15 102 67 102 16 102 16 103 67 103 68 103 16 104 68 104 29 104 29 105 68 105 69 105 29 106 69 106 27 106 27 107 69 107 70 107 27 108 70 108 25 108 25 109 70 109 71 109 25 110 71 110 48 110 48 111 71 111 49 111 72 112 73 112 74 112 74 113 73 113 75 113 72 114 76 114 73 114 73 115 76 115 77 115 73 116 77 116 78 116 79 117 80 117 81 117 81 118 80 118 78 118 81 119 78 119 82 119 82 120 78 120 77 120 79 121 83 121 80 121 80 122 83 122 84 122 80 123 84 123 85 123 84 124 86 124 85 124 85 125 86 125 87 125 85 126 87 126 88 126 89 127 90 127 91 127 91 128 90 128 88 128 91 129 88 129 92 129 92 130 88 130 87 130 89 131 93 131 90 131 90 132 93 132 94 132 90 133 94 133 95 133 96 134 97 134 98 134 98 135 97 135 95 135 98 136 95 136 99 136 99 137 95 137 94 137 96 138 100 138 97 138 97 139 100 139 101 139 97 140 101 140 102 140 101 141 103 141 102 141 102 142 103 142 104 142 102 143 104 143 105 143 106 144 107 144 108 144 108 145 107 145 105 145 108 146 105 146 109 146 109 147 105 147 104 147 106 148 110 148 107 148 107 149 110 149 111 149 107 150 111 150 112 150 111 151 113 151 112 151 112 152 113 152 114 152 112 153 114 153 115 153 114 154 116 154 115 154 115 155 116 155 117 155 115 156 117 156 118 156 117 157 119 157 118 157 118 158 119 158 120 158 118 159 120 159 121 159 122 160 123 160 124 160 124 161 123 161 121 161 124 162 121 162 125 162 125 163 121 163 120 163 122 164 126 164 123 164 123 165 126 165 127 165 123 166 127 166 128 166 127 167 129 167 128 167 128 168 129 168 130 168 128 169 130 169 131 169 132 170 133 170 134 170 134 171 133 171 131 171 134 172 131 172 135 172 135 173 131 173 130 173 132 174 136 174 133 174 133 175 136 175 137 175 133 176 137 176 138 176 139 177 140 177 141 177 141 178 140 178 138 178 141 179 138 179 142 179 142 180 138 180 137 180 139 181 143 181 140 181 140 182 143 182 144 182 140 183 144 183 145 183 144 184 146 184 145 184 145 185 146 185 147 185 145 186 147 186 148 186 149 187 150 187 151 187 151 188 150 188 148 188 151 189 148 189 152 189 152 190 148 190 147 190 149 191 153 191 150 191 150 192 153 192 154 192 150 193 154 193 155 193 156 194 157 194 158 194 158 195 157 195 155 195 158 196 155 196 159 196 159 197 155 197 154 197 156 198 160 198 157 198 157 199 160 199 161 199 157 200 161 200 162 200 161 201 163 201 162 201 162 202 163 202 164 202 162 203 164 203 75 203 75 204 164 204 165 204 75 205 165 205 74 205 118 206 121 206 166 206 107 207 112 207 166 207 166 208 112 208 115 208 166 209 115 209 118 209 97 210 102 210 166 210 166 211 102 211 105 211 166 212 105 212 107 212 88 213 90 213 166 213 166 214 90 214 95 214 166 215 95 215 97 215 78 216 80 216 166 216 166 217 80 217 85 217 166 218 85 218 88 218 162 219 75 219 166 219 166 220 75 220 73 220 166 221 73 221 78 221 150 222 155 222 166 222 166 223 155 223 157 223 166 224 157 224 162 224 140 225 145 225 166 225 166 226 145 226 148 226 166 227 148 227 150 227 131 228 133 228 166 228 166 229 133 229 138 229 166 230 138 230 140 230 121 231 123 231 166 231 166 232 123 232 128 232 166 233 128 233 131 233 49 234 71 234 167 234 70 235 168 235 71 235 71 236 168 236 169 236 71 237 169 237 167 237 68 238 170 238 69 238 69 239 170 239 171 239 69 240 171 240 70 240 70 241 171 241 172 241 70 242 172 242 168 242 67 243 173 243 68 243 68 244 173 244 174 244 68 245 174 245 170 245 54 246 53 246 175 246 52 247 176 247 53 247 53 248 176 248 177 248 53 249 177 249 175 249 167 250 178 250 49 250 49 251 178 251 179 251 49 252 179 252 50 252 50 253 179 253 180 253 50 254 180 254 51 254 66 255 65 255 181 255 180 256 182 256 51 256 51 257 182 257 183 257 51 258 183 258 52 258 52 259 183 259 184 259 52 260 184 260 176 260 181 261 185 261 66 261 66 262 185 262 186 262 66 263 186 263 67 263 67 264 186 264 187 264 67 265 187 265 173 265 63 266 188 266 64 266 64 267 188 267 189 267 64 268 189 268 65 268 65 269 189 269 190 269 65 270 190 270 181 270 62 271 61 271 191 271 191 272 192 272 62 272 62 273 192 273 193 273 62 274 193 274 63 274 63 275 193 275 194 275 63 276 194 276 188 276 58 277 195 277 196 277 196 278 195 278 197 278 196 279 197 279 61 279 61 280 197 280 198 280 61 281 198 281 191 281 57 282 199 282 58 282 58 283 199 283 200 283 58 284 200 284 195 284 56 285 201 285 57 285 57 286 201 286 202 286 57 287 202 287 199 287 175 288 203 288 54 288 54 289 203 289 204 289 54 290 204 290 55 290 55 291 204 291 205 291 55 292 205 292 56 292 56 293 205 293 206 293 56 294 206 294 201 294 113 295 207 295 208 295 113 296 111 296 207 296 207 297 111 297 110 297 207 298 110 298 209 298 209 299 110 299 106 299 209 300 106 300 210 300 210 301 106 301 108 301 210 302 108 302 211 302 211 303 108 303 109 303 109 304 104 304 211 304 211 305 104 305 103 305 211 306 103 306 212 306 103 307 101 307 212 307 212 308 101 308 100 308 212 309 100 309 213 309 213 310 100 310 96 310 213 311 96 311 214 311 96 312 98 312 214 312 214 313 98 313 99 313 214 314 99 314 215 314 99 315 94 315 215 315 215 316 94 316 93 316 215 317 93 317 216 317 216 318 93 318 89 318 216 319 89 319 217 319 217 320 89 320 91 320 217 321 91 321 218 321 218 322 91 322 92 322 92 323 87 323 218 323 218 324 87 324 86 324 218 325 86 325 219 325 86 326 84 326 219 326 219 327 84 327 83 327 219 328 83 328 220 328 220 329 83 329 79 329 220 330 79 330 221 330 79 331 81 331 221 331 221 332 81 332 82 332 221 333 82 333 222 333 82 334 77 334 222 334 222 335 77 335 76 335 222 336 76 336 223 336 223 337 76 337 72 337 223 338 72 338 224 338 72 339 74 339 224 339 224 340 74 340 165 340 224 341 165 341 225 341 165 342 164 342 225 342 225 343 164 343 163 343 225 344 163 344 226 344 163 345 161 345 226 345 226 346 161 346 160 346 226 347 160 347 227 347 227 348 160 348 156 348 227 349 156 349 228 349 228 350 156 350 158 350 228 351 158 351 229 351 229 352 158 352 159 352 159 353 154 353 229 353 229 354 154 354 153 354 229 355 153 355 230 355 230 356 153 356 149 356 230 357 149 357 231 357 149 358 151 358 231 358 231 359 151 359 152 359 231 360 152 360 232 360 152 361 147 361 232 361 232 362 147 362 146 362 232 363 146 363 233 363 146 364 144 364 233 364 233 365 144 365 143 365 233 366 143 366 234 366 234 367 143 367 139 367 234 368 139 368 235 368 235 369 139 369 141 369 235 370 141 370 236 370 236 371 141 371 142 371 142 372 137 372 236 372 236 373 137 373 136 373 236 374 136 374 237 374 237 375 136 375 132 375 237 376 132 376 238 376 132 377 134 377 238 377 238 378 134 378 135 378 238 379 135 379 239 379 135 380 130 380 239 380 239 381 130 381 129 381 239 382 129 382 240 382 129 383 127 383 240 383 240 384 127 384 126 384 240 385 126 385 241 385 241 386 126 386 122 386 241 387 122 387 242 387 242 388 122 388 124 388 242 389 124 389 243 389 243 390 124 390 125 390 125 391 120 391 243 391 243 392 120 392 244 392 243 393 244 393 245 393 245 394 244 394 117 394 245 395 117 395 246 395 246 396 117 396 116 396 246 397 116 397 208 397 208 398 116 398 114 398 208 399 114 399 113 399 245 400 247 400 243 400 243 401 247 401 248 401 243 402 248 402 242 402 242 403 248 403 249 403 242 404 249 404 241 404 241 405 249 405 250 405 241 406 250 406 240 406 240 407 250 407 251 407 240 408 251 408 239 408 239 409 251 409 252 409 239 410 252 410 238 410 238 411 252 411 253 411 238 412 253 412 237 412 237 413 253 413 254 413 237 414 254 414 236 414 236 415 254 415 255 415 236 416 255 416 235 416 235 417 255 417 256 417 235 418 256 418 234 418 234 419 256 419 257 419 234 420 257 420 233 420 233 421 257 421 258 421 233 422 258 422 232 422 232 423 258 423 259 423 232 424 259 424 231 424 231 425 259 425 260 425 231 426 260 426 230 426 230 427 260 427 261 427 230 428 261 428 229 428 229 429 261 429 262 429 229 430 262 430 228 430 228 431 262 431 263 431 228 432 263 432 227 432 227 433 263 433 264 433 227 434 264 434 226 434 226 435 264 435 265 435 226 436 265 436 225 436 225 437 265 437 266 437 225 438 266 438 224 438 224 439 266 439 267 439 224 440 267 440 223 440 223 441 267 441 268 441 223 442 268 442 222 442 222 443 268 443 269 443 222 444 269 444 221 444 221 445 269 445 270 445 221 446 270 446 220 446 220 447 270 447 271 447 220 448 271 448 219 448 219 449 271 449 272 449 219 450 272 450 218 450 218 451 272 451 273 451 218 452 273 452 217 452 217 453 273 453 274 453 217 454 274 454 216 454 216 455 274 455 275 455 216 456 275 456 215 456 215 457 275 457 276 457 215 458 276 458 214 458 214 459 276 459 277 459 214 460 277 460 213 460 213 461 277 461 278 461 213 462 278 462 212 462 212 463 278 463 279 463 212 464 279 464 211 464 211 465 279 465 280 465 211 466 280 466 210 466 210 467 280 467 281 467 210 468 281 468 209 468 209 469 281 469 282 469 209 470 282 470 207 470 207 471 282 471 283 471 207 472 283 472 208 472 208 473 283 473 284 473 208 474 284 474 246 474 246 475 284 475 285 475 246 476 285 476 245 476 245 477 285 477 247 477 285 478 286 478 247 478 247 479 286 479 287 479 247 480 287 480 248 480 248 481 287 481 288 481 248 482 288 482 249 482 249 483 288 483 289 483 249 484 289 484 250 484 250 485 289 485 290 485 250 486 290 486 251 486 251 487 290 487 291 487 251 488 291 488 252 488 252 489 291 489 292 489 252 490 292 490 253 490 253 491 292 491 293 491 253 492 293 492 254 492 254 493 293 493 294 493 254 494 294 494 255 494 255 495 294 495 295 495 255 496 295 496 256 496 256 497 295 497 296 497 256 498 296 498 257 498 257 499 296 499 297 499 257 500 297 500 258 500 258 501 297 501 298 501 258 502 298 502 259 502 259 503 298 503 299 503 259 504 299 504 260 504 260 505 299 505 300 505 260 506 300 506 261 506 261 507 300 507 301 507 261 508 301 508 262 508 262 509 301 509 302 509 262 510 302 510 263 510 263 511 302 511 303 511 263 512 303 512 264 512 264 513 303 513 304 513 264 514 304 514 265 514 265 515 304 515 305 515 265 516 305 516 266 516 266 517 305 517 306 517 266 518 306 518 267 518 267 519 306 519 307 519 267 520 307 520 268 520 268 521 307 521 308 521 268 522 308 522 269 522 269 523 308 523 309 523 269 524 309 524 270 524 270 525 309 525 310 525 270 526 310 526 271 526 271 527 310 527 311 527 271 528 311 528 272 528 272 529 311 529 312 529 272 530 312 530 273 530 273 531 312 531 313 531 273 532 313 532 274 532 274 533 313 533 314 533 274 534 314 534 275 534 275 535 314 535 315 535 275 536 315 536 276 536 276 537 315 537 316 537 276 538 316 538 277 538 277 539 316 539 317 539 277 540 317 540 278 540 278 541 317 541 318 541 278 542 318 542 279 542 279 543 318 543 319 543 279 544 319 544 280 544 280 545 319 545 320 545 280 546 320 546 281 546 281 547 320 547 321 547 281 548 321 548 282 548 282 549 321 549 322 549 282 550 322 550 283 550 283 551 322 551 323 551 283 552 323 552 284 552 284 553 323 553 324 553 284 554 324 554 285 554 285 555 324 555 286 555 324 556 325 556 286 556 286 557 325 557 326 557 286 558 326 558 287 558 287 559 326 559 327 559 287 560 327 560 288 560 288 561 327 561 328 561 288 562 328 562 289 562 289 563 328 563 329 563 289 564 329 564 290 564 290 565 329 565 330 565 290 566 330 566 291 566 291 567 330 567 331 567 291 568 331 568 292 568 292 569 331 569 332 569 292 570 332 570 293 570 293 571 332 571 333 571 293 572 333 572 294 572 294 573 333 573 334 573 294 574 334 574 295 574 295 575 334 575 335 575 295 576 335 576 296 576 296 577 335 577 336 577 296 578 336 578 297 578 297 579 336 579 337 579 297 580 337 580 298 580 298 581 337 581 338 581 298 582 338 582 299 582 299 583 338 583 339 583 299 584 339 584 300 584 300 585 339 585 340 585 300 586 340 586 301 586 301 587 340 587 341 587 301 588 341 588 302 588 302 589 341 589 342 589 302 590 342 590 303 590 303 591 342 591 343 591 303 592 343 592 304 592 304 593 343 593 344 593 304 594 344 594 305 594 305 595 344 595 345 595 305 596 345 596 306 596 306 597 345 597 346 597 306 598 346 598 307 598 307 599 346 599 347 599 307 600 347 600 308 600 308 601 347 601 348 601 308 602 348 602 309 602 309 603 348 603 349 603 309 604 349 604 310 604 310 605 349 605 350 605 310 606 350 606 311 606 311 607 350 607 351 607 311 608 351 608 312 608 312 609 351 609 352 609 312 610 352 610 313 610 313 611 352 611 353 611 313 612 353 612 314 612 314 613 353 613 354 613 314 614 354 614 315 614 315 615 354 615 355 615 315 616 355 616 316 616 316 617 355 617 356 617 316 618 356 618 317 618 317 619 356 619 357 619 317 620 357 620 318 620 318 621 357 621 358 621 318 622 358 622 319 622 319 623 358 623 359 623 319 624 359 624 320 624 320 625 359 625 360 625 320 626 360 626 321 626 321 627 360 627 361 627 321 628 361 628 322 628 322 629 361 629 362 629 322 630 362 630 323 630 323 631 362 631 363 631 323 632 363 632 324 632 324 633 363 633 325 633 363 634 364 634 325 634 325 635 364 635 365 635 325 636 365 636 326 636 326 637 365 637 366 637 326 638 366 638 327 638 327 639 366 639 367 639 327 640 367 640 328 640 328 641 367 641 368 641 328 642 368 642 329 642 329 643 368 643 369 643 329 644 369 644 330 644 330 645 369 645 370 645 330 646 370 646 331 646 331 647 370 647 371 647 331 648 371 648 332 648 332 649 371 649 372 649 332 650 372 650 333 650 333 651 372 651 373 651 333 652 373 652 334 652 334 653 373 653 374 653 334 654 374 654 335 654 335 655 374 655 375 655 335 656 375 656 336 656 336 657 375 657 376 657 336 658 376 658 337 658 337 659 376 659 377 659 337 660 377 660 338 660 338 661 377 661 378 661 338 662 378 662 339 662 339 663 378 663 379 663 339 664 379 664 340 664 340 665 379 665 380 665 340 666 380 666 341 666 341 667 380 667 381 667 341 668 381 668 342 668 342 669 381 669 382 669 342 670 382 670 343 670 343 671 382 671 383 671 343 672 383 672 344 672 344 673 383 673 384 673 344 674 384 674 345 674 345 675 384 675 385 675 345 676 385 676 346 676 346 677 385 677 386 677 346 678 386 678 347 678 347 679 386 679 387 679 347 680 387 680 348 680 348 681 387 681 388 681 348 682 388 682 349 682 349 683 388 683 389 683 349 684 389 684 350 684 350 685 389 685 390 685 350 686 390 686 351 686 351 687 390 687 391 687 351 688 391 688 352 688 352 689 391 689 392 689 352 690 392 690 353 690 353 691 392 691 393 691 353 692 393 692 354 692 354 693 393 693 394 693 354 694 394 694 355 694 355 695 394 695 395 695 355 696 395 696 356 696 356 697 395 697 396 697 356 698 396 698 357 698 357 699 396 699 397 699 357 700 397 700 358 700 358 701 397 701 398 701 358 702 398 702 359 702 359 703 398 703 399 703 359 704 399 704 360 704 360 705 399 705 400 705 360 706 400 706 361 706 361 707 400 707 401 707 361 708 401 708 362 708 362 709 401 709 402 709 362 710 402 710 363 710 363 711 402 711 364 711 402 712 195 712 364 712 364 713 195 713 200 713 364 714 200 714 365 714 365 715 200 715 199 715 365 716 199 716 366 716 366 717 199 717 202 717 366 718 202 718 367 718 367 719 202 719 201 719 367 720 201 720 368 720 368 721 201 721 206 721 368 722 206 722 369 722 369 723 206 723 205 723 369 724 205 724 370 724 370 725 205 725 204 725 370 726 204 726 371 726 371 727 204 727 203 727 371 728 203 728 372 728 372 729 203 729 175 729 372 730 175 730 373 730 373 731 175 731 177 731 373 732 177 732 374 732 374 733 177 733 176 733 374 734 176 734 375 734 375 735 176 735 184 735 375 736 184 736 376 736 376 737 184 737 183 737 376 738 183 738 377 738 377 739 183 739 182 739 377 740 182 740 378 740 378 741 182 741 180 741 378 742 180 742 379 742 379 743 180 743 179 743 379 744 179 744 380 744 380 745 179 745 178 745 380 746 178 746 381 746 381 747 178 747 167 747 381 748 167 748 382 748 382 749 167 749 169 749 382 750 169 750 383 750 383 751 169 751 168 751 383 752 168 752 384 752 384 753 168 753 172 753 384 754 172 754 385 754 385 755 172 755 171 755 385 756 171 756 386 756 386 757 171 757 170 757 386 758 170 758 387 758 387 759 170 759 174 759 387 760 174 760 388 760 388 761 174 761 173 761 388 762 173 762 389 762 389 763 173 763 187 763 389 764 187 764 390 764 390 765 187 765 186 765 390 766 186 766 391 766 391 767 186 767 185 767 391 768 185 768 392 768 392 769 185 769 181 769 392 770 181 770 393 770 393 771 181 771 190 771 393 772 190 772 394 772 394 773 190 773 189 773 394 774 189 774 395 774 395 775 189 775 188 775 395 776 188 776 396 776 396 777 188 777 194 777 396 778 194 778 397 778 397 779 194 779 193 779 397 780 193 780 398 780 398 781 193 781 192 781 398 782 192 782 399 782 399 783 192 783 191 783 399 784 191 784 400 784 400 785 191 785 198 785 400 786 198 786 401 786 401 787 198 787 197 787 401 788 197 788 402 788 402 789 197 789 195 789 1 790 403 790 47 790 47 791 403 791 404 791 47 792 404 792 33 792 405 793 0 793 406 793 406 794 0 794 31 794 406 795 31 795 30 795 407 796 404 796 408 796 408 797 404 797 403 797 407 798 408 798 409 798 410 799 411 799 412 799 412 800 411 800 413 800 414 801 415 801 416 801 416 802 415 802 413 802 416 803 413 803 417 803 417 804 413 804 411 804 414 805 418 805 415 805 415 806 418 806 419 806 415 807 419 807 420 807 419 808 421 808 420 808 420 809 421 809 422 809 420 810 422 810 423 810 424 811 425 811 426 811 422 812 427 812 423 812 423 813 427 813 428 813 423 814 428 814 426 814 426 815 428 815 429 815 426 816 429 816 424 816 430 817 431 817 432 817 432 818 431 818 433 818 430 819 432 819 434 819 434 820 432 820 435 820 434 821 435 821 436 821 437 822 438 822 435 822 435 823 438 823 439 823 435 824 439 824 436 824 440 825 441 825 442 825 442 826 441 826 443 826 442 827 443 827 437 827 437 828 443 828 444 828 437 829 444 829 438 829 440 830 442 830 445 830 445 831 442 831 446 831 445 832 446 832 447 832 447 833 446 833 448 833 448 834 446 834 449 834 448 835 449 835 450 835 450 836 449 836 451 836 451 837 449 837 452 837 451 838 452 838 453 838 454 839 455 839 452 839 452 840 455 840 456 840 452 841 456 841 453 841 457 842 458 842 454 842 454 843 458 843 459 843 454 844 459 844 455 844 460 845 461 845 457 845 457 846 461 846 462 846 457 847 462 847 458 847 463 848 464 848 460 848 460 849 464 849 465 849 460 850 465 850 461 850 429 851 466 851 424 851 424 852 466 852 467 852 424 853 467 853 463 853 463 854 467 854 468 854 463 855 468 855 464 855 469 856 470 856 409 856 409 857 470 857 471 857 409 858 471 858 407 858 407 859 471 859 472 859 407 860 472 860 412 860 412 861 472 861 473 861 412 862 473 862 410 862 474 863 475 863 476 863 476 864 475 864 477 864 476 865 477 865 469 865 469 866 477 866 478 866 469 867 478 867 470 867 474 868 476 868 479 868 479 869 476 869 480 869 479 870 480 870 481 870 481 871 480 871 482 871 482 872 480 872 483 872 482 873 483 873 484 873 484 874 483 874 485 874 485 875 483 875 486 875 485 876 486 876 487 876 487 877 486 877 488 877 488 878 486 878 489 878 488 879 489 879 490 879 490 880 489 880 491 880 491 881 489 881 492 881 491 882 492 882 493 882 494 883 495 883 492 883 492 884 495 884 496 884 492 885 496 885 493 885 497 886 498 886 494 886 494 887 498 887 499 887 494 888 499 888 495 888 500 889 501 889 502 889 502 890 501 890 503 890 502 891 503 891 497 891 497 892 503 892 504 892 497 893 504 893 498 893 500 894 502 894 505 894 505 895 502 895 506 895 505 896 506 896 507 896 507 897 506 897 508 897 508 898 506 898 509 898 508 899 509 899 510 899 431 900 511 900 433 900 433 901 511 901 512 901 433 902 512 902 509 902 509 903 512 903 513 903 509 904 513 904 510 904 406 905 426 905 405 905 405 906 426 906 425 906 426 907 406 907 423 907 423 908 406 908 30 908 404 909 407 909 33 909 33 910 407 910 412 910 412 911 413 911 33 911 33 912 413 912 415 912 33 913 415 913 30 913 30 914 415 914 420 914 30 915 420 915 423 915 469 916 409 916 506 916 0 917 405 917 425 917 403 918 1 918 408 918 408 919 1 919 0 919 463 920 460 920 408 920 442 921 409 921 446 921 446 922 409 922 449 922 0 923 425 923 408 923 408 924 425 924 424 924 408 925 424 925 463 925 460 926 457 926 408 926 408 927 457 927 454 927 408 928 454 928 409 928 409 929 454 929 452 929 409 930 452 930 449 930 442 931 437 931 409 931 409 932 437 932 435 932 409 933 435 933 432 933 432 934 433 934 409 934 409 935 433 935 509 935 409 936 509 936 506 936 506 937 502 937 469 937 469 938 502 938 497 938 469 939 497 939 476 939 476 940 497 940 480 940 492 941 489 941 494 941 494 942 489 942 486 942 494 943 486 943 497 943 497 944 486 944 483 944 497 945 483 945 480 945 514 946 515 946 516 946 517 947 518 947 516 947 516 948 518 948 519 948 516 949 519 949 514 949 520 950 521 950 516 950 516 951 521 951 522 951 516 952 522 952 517 952 523 953 524 953 516 953 516 954 524 954 525 954 516 955 525 955 520 955 526 956 527 956 516 956 516 957 527 957 528 957 516 958 528 958 523 958 529 959 530 959 516 959 516 960 530 960 531 960 516 961 531 961 526 961 532 962 533 962 516 962 516 963 533 963 534 963 516 964 534 964 529 964 535 965 536 965 516 965 516 966 536 966 537 966 516 967 537 967 532 967 538 968 539 968 516 968 516 969 539 969 540 969 516 970 540 970 535 970 541 971 542 971 516 971 516 972 542 972 543 972 516 973 543 973 538 973 544 974 545 974 516 974 516 975 545 975 546 975 516 976 546 976 541 976 547 977 548 977 516 977 516 978 548 978 549 978 516 979 549 979 544 979 550 980 551 980 516 980 516 981 551 981 552 981 516 982 552 982 547 982 553 983 554 983 516 983 516 984 554 984 555 984 516 985 555 985 550 985 515 986 556 986 516 986 516 987 556 987 557 987 516 988 557 988 553 988 417 989 411 989 558 989 473 990 472 990 559 990 471 991 470 991 560 991 478 992 477 992 561 992 474 993 479 993 562 993 487 994 488 994 563 994 490 995 491 995 564 995 496 996 495 996 565 996 504 997 503 997 566 997 500 998 505 998 567 998 507 999 508 999 568 999 513 1000 512 1000 569 1000 430 1001 434 1001 570 1001 439 1002 438 1002 571 1002 440 1003 445 1003 572 1003 447 1004 448 1004 573 1004 450 1005 451 1005 574 1005 456 1006 455 1006 575 1006 465 1007 464 1007 576 1007 468 1008 467 1008 577 1008 429 1009 428 1009 578 1009 579 1010 517 1010 522 1010 518 1011 517 1011 580 1011 580 1012 517 1012 579 1012 580 1013 579 1013 581 1013 519 1014 518 1014 582 1014 582 1015 518 1015 580 1015 582 1016 580 1016 583 1016 583 1017 580 1017 581 1017 583 1018 581 1018 584 1018 514 1019 519 1019 585 1019 585 1020 519 1020 582 1020 585 1021 582 1021 586 1021 586 1022 582 1022 583 1022 586 1023 583 1023 587 1023 587 1024 583 1024 584 1024 587 1025 584 1025 588 1025 515 1026 514 1026 589 1026 589 1027 514 1027 585 1027 589 1028 585 1028 590 1028 590 1029 585 1029 586 1029 590 1030 586 1030 591 1030 591 1031 586 1031 587 1031 591 1032 587 1032 592 1032 592 1033 587 1033 588 1033 592 1034 588 1034 558 1034 593 1035 594 1035 595 1035 596 1036 594 1036 597 1036 597 1037 594 1037 593 1037 597 1038 593 1038 598 1038 578 1039 599 1039 600 1039 600 1040 599 1040 601 1040 600 1041 601 1041 602 1041 602 1042 601 1042 603 1042 602 1043 603 1043 604 1043 604 1044 603 1044 605 1044 604 1045 605 1045 606 1045 528 1046 527 1046 607 1046 607 1047 527 1047 608 1047 607 1048 608 1048 609 1048 609 1049 608 1049 610 1049 609 1050 610 1050 611 1050 611 1051 610 1051 612 1051 611 1052 612 1052 613 1052 613 1053 612 1053 614 1053 613 1054 614 1054 615 1054 615 1055 614 1055 575 1055 533 1056 532 1056 616 1056 616 1057 532 1057 617 1057 616 1058 617 1058 618 1058 618 1059 617 1059 619 1059 618 1060 619 1060 620 1060 620 1061 619 1061 621 1061 620 1062 621 1062 622 1062 622 1063 621 1063 623 1063 622 1064 623 1064 624 1064 624 1065 623 1065 571 1065 535 1066 540 1066 625 1066 625 1067 540 1067 626 1067 625 1068 626 1068 627 1068 627 1069 626 1069 628 1069 627 1070 628 1070 629 1070 629 1071 628 1071 630 1071 629 1072 630 1072 631 1072 631 1073 630 1073 632 1073 631 1074 632 1074 633 1074 633 1075 632 1075 569 1075 546 1076 545 1076 634 1076 634 1077 545 1077 635 1077 634 1078 635 1078 636 1078 636 1079 635 1079 637 1079 636 1080 637 1080 638 1080 638 1081 637 1081 639 1081 638 1082 639 1082 640 1082 640 1083 639 1083 641 1083 640 1084 641 1084 642 1084 642 1085 641 1085 565 1085 551 1086 550 1086 643 1086 643 1087 550 1087 644 1087 643 1088 644 1088 645 1088 645 1089 644 1089 646 1089 645 1090 646 1090 647 1090 647 1091 646 1091 648 1091 647 1092 648 1092 649 1092 649 1093 648 1093 650 1093 649 1094 650 1094 651 1094 651 1095 650 1095 562 1095 421 1096 419 1096 596 1096 596 1097 419 1097 418 1097 596 1098 418 1098 594 1098 594 1099 418 1099 414 1099 594 1100 414 1100 595 1100 595 1101 414 1101 416 1101 422 1102 421 1102 599 1102 599 1103 421 1103 596 1103 599 1104 596 1104 601 1104 601 1105 596 1105 597 1105 601 1106 597 1106 603 1106 603 1107 597 1107 598 1107 603 1108 598 1108 605 1108 578 1109 428 1109 599 1109 599 1110 428 1110 427 1110 599 1111 427 1111 422 1111 466 1112 429 1112 652 1112 652 1113 429 1113 578 1113 652 1114 578 1114 653 1114 653 1115 578 1115 600 1115 653 1116 600 1116 654 1116 654 1117 600 1117 602 1117 654 1118 602 1118 655 1118 655 1119 602 1119 604 1119 655 1120 604 1120 656 1120 656 1121 604 1121 606 1121 656 1122 606 1122 521 1122 521 1123 606 1123 522 1123 521 1124 520 1124 656 1124 656 1125 520 1125 657 1125 656 1126 657 1126 655 1126 655 1127 657 1127 658 1127 655 1128 658 1128 654 1128 654 1129 658 1129 659 1129 654 1130 659 1130 653 1130 653 1131 659 1131 660 1131 653 1132 660 1132 652 1132 652 1133 660 1133 577 1133 652 1134 577 1134 466 1134 466 1135 577 1135 467 1135 464 1136 468 1136 576 1136 576 1137 468 1137 577 1137 576 1138 577 1138 661 1138 661 1139 577 1139 660 1139 661 1140 660 1140 662 1140 662 1141 660 1141 659 1141 662 1142 659 1142 663 1142 663 1143 659 1143 658 1143 663 1144 658 1144 664 1144 664 1145 658 1145 657 1145 664 1146 657 1146 525 1146 525 1147 657 1147 520 1147 461 1148 465 1148 665 1148 665 1149 465 1149 576 1149 665 1150 576 1150 666 1150 666 1151 576 1151 661 1151 666 1152 661 1152 667 1152 667 1153 661 1153 662 1153 667 1154 662 1154 668 1154 668 1155 662 1155 663 1155 668 1156 663 1156 669 1156 669 1157 663 1157 664 1157 669 1158 664 1158 524 1158 524 1159 664 1159 525 1159 524 1160 523 1160 669 1160 669 1161 523 1161 670 1161 669 1162 670 1162 668 1162 668 1163 670 1163 671 1163 668 1164 671 1164 667 1164 667 1165 671 1165 672 1165 667 1166 672 1166 666 1166 666 1167 672 1167 673 1167 666 1168 673 1168 665 1168 665 1169 673 1169 674 1169 665 1170 674 1170 461 1170 461 1171 674 1171 462 1171 523 1172 528 1172 670 1172 670 1173 528 1173 607 1173 670 1174 607 1174 671 1174 671 1175 607 1175 609 1175 671 1176 609 1176 672 1176 672 1177 609 1177 611 1177 672 1178 611 1178 673 1178 673 1179 611 1179 613 1179 673 1180 613 1180 674 1180 674 1181 613 1181 615 1181 674 1182 615 1182 462 1182 462 1183 615 1183 458 1183 575 1184 455 1184 615 1184 615 1185 455 1185 459 1185 615 1186 459 1186 458 1186 453 1187 456 1187 675 1187 675 1188 456 1188 575 1188 675 1189 575 1189 676 1189 676 1190 575 1190 614 1190 676 1191 614 1191 677 1191 677 1192 614 1192 612 1192 677 1193 612 1193 678 1193 678 1194 612 1194 610 1194 678 1195 610 1195 679 1195 679 1196 610 1196 608 1196 679 1197 608 1197 526 1197 526 1198 608 1198 527 1198 526 1199 531 1199 679 1199 679 1200 531 1200 680 1200 679 1201 680 1201 678 1201 678 1202 680 1202 681 1202 678 1203 681 1203 677 1203 677 1204 681 1204 682 1204 677 1205 682 1205 676 1205 676 1206 682 1206 683 1206 676 1207 683 1207 675 1207 675 1208 683 1208 574 1208 675 1209 574 1209 453 1209 453 1210 574 1210 451 1210 448 1211 450 1211 573 1211 573 1212 450 1212 574 1212 573 1213 574 1213 684 1213 684 1214 574 1214 683 1214 684 1215 683 1215 685 1215 685 1216 683 1216 682 1216 685 1217 682 1217 686 1217 686 1218 682 1218 681 1218 686 1219 681 1219 687 1219 687 1220 681 1220 680 1220 687 1221 680 1221 530 1221 530 1222 680 1222 531 1222 445 1223 447 1223 572 1223 572 1224 447 1224 573 1224 572 1225 573 1225 688 1225 688 1226 573 1226 684 1226 688 1227 684 1227 689 1227 689 1228 684 1228 685 1228 689 1229 685 1229 690 1229 690 1230 685 1230 686 1230 690 1231 686 1231 691 1231 691 1232 686 1232 687 1232 691 1233 687 1233 529 1233 529 1234 687 1234 530 1234 441 1235 440 1235 692 1235 692 1236 440 1236 572 1236 692 1237 572 1237 693 1237 693 1238 572 1238 688 1238 693 1239 688 1239 694 1239 694 1240 688 1240 689 1240 694 1241 689 1241 695 1241 695 1242 689 1242 690 1242 695 1243 690 1243 696 1243 696 1244 690 1244 691 1244 696 1245 691 1245 534 1245 534 1246 691 1246 529 1246 534 1247 533 1247 696 1247 696 1248 533 1248 616 1248 696 1249 616 1249 695 1249 695 1250 616 1250 618 1250 695 1251 618 1251 694 1251 694 1252 618 1252 620 1252 694 1253 620 1253 693 1253 693 1254 620 1254 622 1254 693 1255 622 1255 692 1255 692 1256 622 1256 624 1256 692 1257 624 1257 441 1257 441 1258 624 1258 443 1258 571 1259 438 1259 624 1259 624 1260 438 1260 444 1260 624 1261 444 1261 443 1261 436 1262 439 1262 697 1262 697 1263 439 1263 571 1263 697 1264 571 1264 698 1264 698 1265 571 1265 623 1265 698 1266 623 1266 699 1266 699 1267 623 1267 621 1267 699 1268 621 1268 700 1268 700 1269 621 1269 619 1269 700 1270 619 1270 701 1270 701 1271 619 1271 617 1271 701 1272 617 1272 537 1272 537 1273 617 1273 532 1273 537 1274 536 1274 701 1274 701 1275 536 1275 702 1275 701 1276 702 1276 700 1276 700 1277 702 1277 703 1277 700 1278 703 1278 699 1278 699 1279 703 1279 704 1279 699 1280 704 1280 698 1280 698 1281 704 1281 705 1281 698 1282 705 1282 697 1282 697 1283 705 1283 570 1283 697 1284 570 1284 436 1284 436 1285 570 1285 434 1285 431 1286 430 1286 633 1286 633 1287 430 1287 570 1287 633 1288 570 1288 631 1288 631 1289 570 1289 705 1289 631 1290 705 1290 629 1290 629 1291 705 1291 704 1291 629 1292 704 1292 627 1292 627 1293 704 1293 703 1293 627 1294 703 1294 625 1294 625 1295 703 1295 702 1295 625 1296 702 1296 535 1296 535 1297 702 1297 536 1297 569 1298 512 1298 633 1298 633 1299 512 1299 511 1299 633 1300 511 1300 431 1300 510 1301 513 1301 706 1301 706 1302 513 1302 569 1302 706 1303 569 1303 707 1303 707 1304 569 1304 632 1304 707 1305 632 1305 708 1305 708 1306 632 1306 630 1306 708 1307 630 1307 709 1307 709 1308 630 1308 628 1308 709 1309 628 1309 710 1309 710 1310 628 1310 626 1310 710 1311 626 1311 539 1311 539 1312 626 1312 540 1312 539 1313 538 1313 710 1313 710 1314 538 1314 711 1314 710 1315 711 1315 709 1315 709 1316 711 1316 712 1316 709 1317 712 1317 708 1317 708 1318 712 1318 713 1318 708 1319 713 1319 707 1319 707 1320 713 1320 714 1320 707 1321 714 1321 706 1321 706 1322 714 1322 568 1322 706 1323 568 1323 510 1323 510 1324 568 1324 508 1324 505 1325 507 1325 567 1325 567 1326 507 1326 568 1326 567 1327 568 1327 715 1327 715 1328 568 1328 714 1328 715 1329 714 1329 716 1329 716 1330 714 1330 713 1330 716 1331 713 1331 717 1331 717 1332 713 1332 712 1332 717 1333 712 1333 718 1333 718 1334 712 1334 711 1334 718 1335 711 1335 543 1335 543 1336 711 1336 538 1336 501 1337 500 1337 719 1337 719 1338 500 1338 567 1338 719 1339 567 1339 720 1339 720 1340 567 1340 715 1340 720 1341 715 1341 721 1341 721 1342 715 1342 716 1342 721 1343 716 1343 722 1343 722 1344 716 1344 717 1344 722 1345 717 1345 723 1345 723 1346 717 1346 718 1346 723 1347 718 1347 542 1347 542 1348 718 1348 543 1348 542 1349 541 1349 723 1349 723 1350 541 1350 724 1350 723 1351 724 1351 722 1351 722 1352 724 1352 725 1352 722 1353 725 1353 721 1353 721 1354 725 1354 726 1354 721 1355 726 1355 720 1355 720 1356 726 1356 727 1356 720 1357 727 1357 719 1357 719 1358 727 1358 566 1358 719 1359 566 1359 501 1359 501 1360 566 1360 503 1360 498 1361 504 1361 642 1361 642 1362 504 1362 566 1362 642 1363 566 1363 640 1363 640 1364 566 1364 727 1364 640 1365 727 1365 638 1365 638 1366 727 1366 726 1366 638 1367 726 1367 636 1367 636 1368 726 1368 725 1368 636 1369 725 1369 634 1369 634 1370 725 1370 724 1370 634 1371 724 1371 546 1371 546 1372 724 1372 541 1372 565 1373 495 1373 642 1373 642 1374 495 1374 499 1374 642 1375 499 1375 498 1375 493 1376 496 1376 728 1376 728 1377 496 1377 565 1377 728 1378 565 1378 729 1378 729 1379 565 1379 641 1379 729 1380 641 1380 730 1380 730 1381 641 1381 639 1381 730 1382 639 1382 731 1382 731 1383 639 1383 637 1383 731 1384 637 1384 732 1384 732 1385 637 1385 635 1385 732 1386 635 1386 544 1386 544 1387 635 1387 545 1387 544 1388 549 1388 732 1388 732 1389 549 1389 733 1389 732 1390 733 1390 731 1390 731 1391 733 1391 734 1391 731 1392 734 1392 730 1392 730 1393 734 1393 735 1393 730 1394 735 1394 729 1394 729 1395 735 1395 736 1395 729 1396 736 1396 728 1396 728 1397 736 1397 564 1397 728 1398 564 1398 493 1398 493 1399 564 1399 491 1399 488 1400 490 1400 563 1400 563 1401 490 1401 564 1401 563 1402 564 1402 737 1402 737 1403 564 1403 736 1403 737 1404 736 1404 738 1404 738 1405 736 1405 735 1405 738 1406 735 1406 739 1406 739 1407 735 1407 734 1407 739 1408 734 1408 740 1408 740 1409 734 1409 733 1409 740 1410 733 1410 548 1410 548 1411 733 1411 549 1411 485 1412 487 1412 741 1412 741 1413 487 1413 563 1413 741 1414 563 1414 742 1414 742 1415 563 1415 737 1415 742 1416 737 1416 743 1416 743 1417 737 1417 738 1417 743 1418 738 1418 744 1418 744 1419 738 1419 739 1419 744 1420 739 1420 745 1420 745 1421 739 1421 740 1421 745 1422 740 1422 547 1422 547 1423 740 1423 548 1423 547 1424 552 1424 745 1424 745 1425 552 1425 746 1425 745 1426 746 1426 744 1426 744 1427 746 1427 747 1427 744 1428 747 1428 743 1428 743 1429 747 1429 748 1429 743 1430 748 1430 742 1430 742 1431 748 1431 749 1431 742 1432 749 1432 741 1432 741 1433 749 1433 750 1433 741 1434 750 1434 485 1434 485 1435 750 1435 484 1435 552 1436 551 1436 746 1436 746 1437 551 1437 643 1437 746 1438 643 1438 747 1438 747 1439 643 1439 645 1439 747 1440 645 1440 748 1440 748 1441 645 1441 647 1441 748 1442 647 1442 749 1442 749 1443 647 1443 649 1443 749 1444 649 1444 750 1444 750 1445 649 1445 651 1445 750 1446 651 1446 484 1446 484 1447 651 1447 482 1447 562 1448 479 1448 651 1448 651 1449 479 1449 481 1449 651 1450 481 1450 482 1450 475 1451 474 1451 751 1451 751 1452 474 1452 562 1452 751 1453 562 1453 752 1453 752 1454 562 1454 650 1454 752 1455 650 1455 753 1455 753 1456 650 1456 648 1456 753 1457 648 1457 754 1457 754 1458 648 1458 646 1458 754 1459 646 1459 755 1459 755 1460 646 1460 644 1460 755 1461 644 1461 555 1461 555 1462 644 1462 550 1462 555 1463 554 1463 755 1463 755 1464 554 1464 756 1464 755 1465 756 1465 754 1465 754 1466 756 1466 757 1466 754 1467 757 1467 753 1467 753 1468 757 1468 758 1468 753 1469 758 1469 752 1469 752 1470 758 1470 759 1470 752 1471 759 1471 751 1471 751 1472 759 1472 561 1472 751 1473 561 1473 475 1473 475 1474 561 1474 477 1474 470 1475 478 1475 560 1475 560 1476 478 1476 561 1476 560 1477 561 1477 760 1477 760 1478 561 1478 759 1478 760 1479 759 1479 761 1479 761 1480 759 1480 758 1480 761 1481 758 1481 762 1481 762 1482 758 1482 757 1482 762 1483 757 1483 763 1483 763 1484 757 1484 756 1484 763 1485 756 1485 553 1485 553 1486 756 1486 554 1486 472 1487 471 1487 559 1487 559 1488 471 1488 560 1488 559 1489 560 1489 764 1489 764 1490 560 1490 760 1490 764 1491 760 1491 765 1491 765 1492 760 1492 761 1492 765 1493 761 1493 766 1493 766 1494 761 1494 762 1494 766 1495 762 1495 767 1495 767 1496 762 1496 763 1496 767 1497 763 1497 557 1497 557 1498 763 1498 553 1498 410 1499 473 1499 768 1499 768 1500 473 1500 559 1500 768 1501 559 1501 769 1501 769 1502 559 1502 764 1502 769 1503 764 1503 770 1503 770 1504 764 1504 765 1504 770 1505 765 1505 771 1505 771 1506 765 1506 766 1506 771 1507 766 1507 772 1507 772 1508 766 1508 767 1508 772 1509 767 1509 556 1509 556 1510 767 1510 557 1510 556 1511 515 1511 772 1511 772 1512 515 1512 589 1512 772 1513 589 1513 771 1513 771 1514 589 1514 590 1514 771 1515 590 1515 770 1515 770 1516 590 1516 591 1516 770 1517 591 1517 769 1517 769 1518 591 1518 592 1518 769 1519 592 1519 768 1519 768 1520 592 1520 558 1520 768 1521 558 1521 410 1521 410 1522 558 1522 411 1522 522 1523 606 1523 579 1523 579 1524 606 1524 605 1524 579 1525 605 1525 581 1525 581 1526 605 1526 598 1526 581 1527 598 1527 584 1527 584 1528 598 1528 593 1528 584 1529 593 1529 588 1529 588 1530 593 1530 595 1530 588 1531 595 1531 558 1531 558 1532 595 1532 416 1532 558 1533 416 1533 417 1533</p>
                </triangles>
            </mesh>
        </geometry>
    </library_geometries>
    <library_visual_scenes>
        <visual_scene id="VisualSceneNode" name="VisualScene">
            <node id="node" name="node">
                <instance_geometry url="#shape0-lib"/>
            </node>
        </visual_scene>
    </library_visual_scenes>
    <scene>
        <instance_visual_scene url="#VisualSceneNode"/>
    </scene>
</COLLADA>
