####
#
# OBJ File Generated by Meshlab
#
####
# Object link5.obj
#
# Vertices: 495
# Faces: 952
#
####
vn -2.958930 -1.310624 2.840734
v 0.040000 -0.006028 0.015359
vn -0.447425 -3.253117 4.236936
v 0.040000 -0.005000 0.015724
vn -1.570797 -1.570796 1.570796
v 0.040000 -0.005000 0.002000
vn -1.570797 -1.570796 -1.570796
v 0.040000 -0.005000 -0.002000
vn -0.451647 -3.263451 -4.232689
v 0.040000 -0.005000 -0.015724
vn -2.958930 -1.310624 -2.840734
v 0.040000 -0.006028 -0.015359
vn -2.842393 -1.936873 2.428762
v 0.040000 -0.010288 0.012900
vn -2.842393 -1.936873 -2.428762
v 0.040000 -0.010288 -0.012900
vn -2.842393 -2.566714 -1.749956
v 0.040000 -0.013633 -0.009295
vn -6.249971 -0.321314 -0.206009
v 0.040000 -0.015844 -0.002000
vn -2.842393 -2.968491 -0.915658
v 0.040000 -0.015767 -0.004863
vn -2.842393 -3.106504 0.000000
v 0.040000 -0.016500 -0.000000
vn -6.249971 -0.321314 0.206009
v 0.040000 -0.015844 0.002000
vn -2.842393 -2.968491 0.915658
v 0.040000 -0.015767 0.004863
vn -2.842393 -2.566714 1.749956
v 0.040000 -0.013633 0.009295
vn -0.261676 -6.261233 0.167369
v 0.016324 -0.005000 0.002000
vn -0.223548 -2.998793 3.125605
v 0.000000 -0.005000 0.017000
vn -0.876080 -2.855993 2.983654
v -0.004789 -0.005000 0.016311
vn 0.640127 -2.841399 2.993833
v 0.037887 -0.005000 0.017000
vn -2.828606 -2.855994 -1.291781
v -0.015464 -0.005000 -0.007062
vn -2.350091 -2.855993 -2.036365
v -0.012848 -0.005000 -0.011133
vn -1.681185 -2.855993 2.615975
v -0.009191 -0.005000 0.014301
vn -2.350091 -2.855993 2.036365
v -0.012848 -0.005000 0.011133
vn -2.828606 -2.855994 1.291781
v -0.015464 -0.005000 0.007062
vn -1.681185 -2.855993 -2.615975
v -0.009191 -0.005000 -0.014301
vn -0.876080 -2.855993 -2.983654
v -0.004789 -0.005000 -0.016311
vn -0.261676 -6.261236 -0.167369
v 0.016324 -0.005000 -0.002000
vn -0.223548 -2.998793 -3.125605
v 0.000000 -0.005000 -0.017000
vn 0.636446 -2.844619 -2.995308
v 0.037887 -0.005000 -0.017000
vn -3.077964 -2.855993 0.442545
v -0.016827 -0.005000 0.002419
vn -3.077964 -2.855993 -0.442545
v -0.016827 -0.005000 -0.002419
vn -2.982491 1.040178 -3.022883
v 0.040000 0.004000 -0.016008
vn -2.973795 1.046739 3.019054
v 0.040000 0.004000 0.016008
vn -2.852627 1.568183 -2.684363
v 0.040000 0.008250 -0.014289
vn -2.844638 1.560800 2.687316
v 0.040000 0.008250 0.014289
vn -2.842394 2.277228 2.112959
v 0.040000 0.012095 0.011223
vn -2.842393 2.798863 1.347861
v 0.040000 0.014866 0.007159
vn -2.883425 3.071148 0.497242
v 0.040000 0.016316 0.002459
vn -2.883425 3.071148 -0.497242
v 0.040000 0.016316 -0.002459
vn -2.842394 2.798863 -1.347861
v 0.040000 0.014866 -0.007159
vn -2.842393 2.277228 -2.112959
v 0.040000 0.012095 -0.011223
vn 0.000000 0.000539 -0.130771
v 0.036000 0.000000 -0.016500
vn -0.802540 3.022469 -3.403329
v 0.037034 0.000136 -0.016499
vn 1.065978 -0.026494 -6.075525
v 0.040000 0.000000 -0.016500
vn -1.533093 2.765110 -3.402889
v 0.038000 0.000536 -0.016491
vn -2.090679 2.371902 -3.397221
v 0.038830 0.001173 -0.016458
vn -2.534320 1.872160 -3.375330
v 0.039464 0.002000 -0.016378
vn -2.889493 1.497671 -3.326133
v 0.039818 0.002808 -0.016259
vn -3.399041 0.694014 -3.030763
v 0.045000 0.003672 -0.016086
vn 1.533864 -0.311407 -5.952073
v 0.040000 -0.001233 -0.016454
vn -3.402852 -0.204506 -3.103601
v 0.045000 -0.001233 -0.016454
vn 1.652375 -1.032878 -5.807355
v 0.040000 -0.002545 -0.016303
vn -3.403665 -1.161968 -2.885094
v 0.045000 -0.006028 -0.015359
vn -3.406366 -1.159192 2.885802
v 0.045000 -0.006028 0.015359
vn -3.440792 -1.936873 2.428762
v 0.045000 -0.010288 0.012900
vn -3.440792 -2.566714 1.749956
v 0.045000 -0.013633 0.009295
vn -3.440792 -2.968490 0.915658
v 0.045000 -0.015767 0.004863
vn -3.440792 -3.106504 -0.000000
v 0.045000 -0.016500 -0.000000
vn -3.440792 -2.968491 -0.915658
v 0.045000 -0.015767 -0.004863
vn -3.440792 -2.566714 -1.749956
v 0.045000 -0.013633 -0.009295
vn -3.440792 -1.936873 -2.428762
v 0.045000 -0.010288 -0.012900
vn 1.532952 -0.447227 5.905729
v 0.040000 -0.001233 0.016454
vn 1.653760 -1.046831 5.807826
v 0.040000 -0.002545 0.016303
vn -3.368598 -0.234268 3.104599
v 0.045000 -0.001233 0.016454
vn -2.292334 1.870968 3.348818
v 0.039464 0.002000 0.016378
vn -2.090483 2.372124 3.397228
v 0.038829 0.001172 0.016458
vn 0.088949 0.183944 4.700490
v 0.040000 -0.000000 0.016500
vn -2.824904 1.369915 3.337084
v 0.039820 0.002812 0.016259
vn -1.533738 2.764960 3.402239
v 0.038000 0.000536 0.016491
vn -0.804224 3.022124 3.403329
v 0.037039 0.000137 0.016499
vn 0.000000 0.000546 0.131325
v 0.036000 -0.000000 0.016500
vn -3.399018 0.715416 3.026983
v 0.045000 0.003672 0.016086
vn -3.066381 1.100915 3.223541
v 0.039986 0.003672 0.016086
vn -3.440793 1.553252 2.690311
v 0.045000 0.008250 0.014289
vn -3.440792 2.277228 2.112959
v 0.045000 0.012095 0.011223
vn -3.440792 2.798863 1.347861
v 0.045000 0.014866 0.007159
vn -3.365992 3.067414 0.580386
v 0.045000 0.016316 0.002459
vn -0.033653 3.131993 0.000000
v 0.045000 0.016500 0.000000
vn -3.365992 3.067414 -0.580386
v 0.045000 0.016316 -0.002459
vn -3.440792 2.798863 -1.347861
v 0.045000 0.014866 -0.007159
vn -3.440791 2.277228 -2.112959
v 0.045000 0.012095 -0.011223
vn -3.433017 1.560310 -2.687512
v 0.045000 0.008250 -0.014289
vn -3.067310 1.095286 -3.214273
v 0.039986 0.003666 -0.016088
vn -0.223548 2.998794 3.125604
v 0.000000 0.000000 0.017000
vn -0.876080 2.855993 2.983654
v -0.004789 0.000000 0.016311
vn -1.681185 2.855993 2.615975
v -0.009191 0.000000 0.014301
vn -2.350091 2.855993 2.036365
v -0.012848 0.000000 0.011133
vn -2.828606 2.855994 1.291781
v -0.015464 0.000000 0.007062
vn -3.077964 2.855993 0.442545
v -0.016827 0.000000 0.002419
vn -3.077964 2.855993 -0.442545
v -0.016827 0.000000 -0.002419
vn -2.828606 2.855994 -1.291781
v -0.015464 0.000000 -0.007062
vn -2.350091 2.855993 -2.036365
v -0.012848 0.000000 -0.011133
vn -1.681185 2.855993 -2.615975
v -0.009191 0.000000 -0.014301
vn -0.876080 2.855994 -2.983654
v -0.004789 0.000000 -0.016311
vn -0.223548 2.998793 -3.125604
v 0.000000 0.000000 -0.017000
vn 1.649537 -0.477879 -5.768216
v 0.038777 -0.002654 -0.017000
vn 0.000000 2.617993 -1.437216
v 0.039134 0.000000 -0.017000
vn 0.000000 2.617993 1.437216
v 0.039134 0.000000 0.017000
vn 1.653499 -0.497338 5.762385
v 0.038777 -0.002654 0.017000
vn -0.204759 6.269240 0.000000
v 0.036000 0.000000 -0.016500
vn 0.000000 0.523600 0.000000
v 0.040000 0.000000 -0.016500
vn -0.205603 6.269123 -0.000027
v 0.036000 0.000000 0.016500
vn 0.000000 0.523600 0.000000
v 0.040000 0.000000 0.016500
vn -1.324647 -2.830295 3.347602
v 0.037314 -0.012066 0.002000
vn -0.777715 -3.032459 3.308961
v 0.017638 -0.005222 0.002000
vn -1.324647 -2.830295 -3.347602
v 0.037314 -0.012066 -0.002000
vn -0.777715 -3.032459 -3.308961
v 0.017638 -0.005222 -0.002000
vn -2.817816 -1.231481 3.553612
v 0.039665 -0.014242 0.002000
vn -2.088842 -2.256849 3.553614
v 0.038717 -0.012908 0.002000
vn -2.817816 -1.231481 -3.553612
v 0.039665 -0.014242 -0.002000
vn -2.088842 -2.256849 -3.553614
v 0.038717 -0.012908 -0.002000
vn 0.794331 -0.051480 1.375819
v 0.040000 -0.000000 0.016500
vn 0.816538 -0.079185 1.473585
v 0.039134 -0.000000 0.017000
vn 0.841301 -0.113054 -1.457174
v 0.039134 0.000000 -0.017000
vn -2.948068 -3.126091 0.000000
v 0.045000 -0.038000 -0.000000
vn -2.949151 -3.062248 -0.628798
v 0.045000 -0.037222 -0.007649
vn 0.407273 -6.188839 -0.759508
v 0.097000 -0.037613 -0.005408
vn -2.946634 -2.871819 -1.234676
v 0.045000 -0.034920 -0.014986
vn 0.407267 -5.966280 -1.811609
v 0.097000 -0.036461 -0.010706
vn 0.463743 -6.098960 -1.293331
v 0.097000 -0.037222 -0.007649
vn 0.449005 -5.052463 -3.656812
v 0.097000 -0.031189 -0.021708
vn 0.404126 -5.336614 -3.230730
v 0.097000 -0.031968 -0.020544
vn -2.946923 -2.566966 -1.783969
v 0.045000 -0.031189 -0.021708
vn 0.404422 -5.595194 -2.762918
v 0.097000 -0.034566 -0.015786
vn 0.434893 -5.793892 -2.314747
v 0.097000 -0.034920 -0.014986
vn 0.428078 -4.701980 -4.088662
v 0.097000 -0.028718 -0.024885
vn -2.948571 -2.152986 -2.266533
v 0.045000 -0.026181 -0.027542
vn 0.507353 -4.375566 -4.429522
v 0.097000 -0.026181 -0.027542
vn 0.406351 -3.968913 -4.811451
v 0.097000 -0.024885 -0.028718
vn -2.947953 -1.654289 -2.652491
v 0.045000 -0.020101 -0.032248
vn 0.406962 -3.542291 -5.138838
v 0.097000 -0.020544 -0.031968
vn -2.949297 -1.085634 -2.931586
v 0.045000 -0.013198 -0.035635
vn 0.438524 -2.631238 -5.645721
v 0.097000 -0.015786 -0.034566
vn 0.424343 -3.143098 -5.391502
v 0.097000 -0.020101 -0.032248
vn -2.944891 -0.470679 -3.090231
v 0.045000 -0.005754 -0.037562
vn 0.407270 -1.660189 -6.010180
v 0.097000 -0.010706 -0.036461
vn 0.569497 -2.215618 -5.805554
v 0.097000 -0.013198 -0.035635
vn 0.459456 0.385761 -6.223336
v 0.097000 0.001925 -0.037951
vn -0.005749 -0.075832 -3.136821
v 0.097000 -0.000000 -0.038000
vn -2.945800 0.155299 -3.122046
v 0.045000 0.001925 -0.037951
vn 0.403042 -0.678294 -6.204932
v 0.097000 -0.005408 -0.037613
vn 0.418956 -1.139879 -6.136622
v 0.097000 -0.005754 -0.037562
vn 0.407266 0.915734 -6.167642
v 0.097000 0.005408 -0.037613
vn -2.947555 0.785193 -3.025823
v 0.045000 0.009525 -0.036787
vn 0.444626 1.437703 -6.069705
v 0.097000 0.009525 -0.036787
vn 0.405250 1.923831 -5.934986
v 0.097000 0.010706 -0.036461
vn -2.947460 1.375198 -2.807300
v 0.045000 0.016735 -0.034117
vn 0.405343 2.426273 -5.748564
v 0.097000 0.015786 -0.034566
vn -2.944916 1.916225 -2.469628
v 0.045000 0.023260 -0.030049
vn 0.432252 3.357540 -5.248006
v 0.097000 0.020544 -0.031968
vn 0.439900 2.875721 -5.536043
v 0.097000 0.016735 -0.034117
vn 0.377545 4.580584 -4.239986
v 0.097000 0.028718 -0.024885
vn 0.401355 4.188402 -4.619678
v 0.097000 0.024885 -0.028718
vn 0.531658 3.731238 -4.978577
v 0.097000 0.023260 -0.030049
vn 0.392768 4.861076 -3.915257
v 0.097000 0.028833 -0.024752
vn -2.943692 2.369621 -2.038505
v 0.045000 0.028833 -0.024752
vn 0.407271 5.182565 -3.466921
v 0.097000 0.031968 -0.020544
vn -2.949249 2.733189 -1.517387
v 0.045000 0.033225 -0.018441
vn 0.464988 5.462385 -3.004966
v 0.097000 0.033225 -0.018441
vn 0.407267 5.701184 -2.524864
v 0.097000 0.034566 -0.015786
vn -2.946102 2.983279 -0.933604
v 0.045000 0.036257 -0.011376
vn 0.429682 5.900283 -2.030736
v 0.097000 0.036257 -0.011376
vn 0.403981 6.040356 -1.568831
v 0.097000 0.036461 -0.010706
vn -2.991648 3.107674 -0.394536
v 0.045000 0.037805 -0.003844
vn 0.403476 6.149332 -1.046299
v 0.097000 0.037613 -0.005408
vn 0.429683 5.900283 2.030736
v 0.097000 0.036257 0.011376
vn 0.406451 6.040001 1.570487
v 0.097000 0.036461 0.010706
vn -2.947831 2.983036 0.934773
v 0.045000 0.036257 0.011376
vn 0.406002 6.149698 1.044642
v 0.097000 0.037613 0.005408
vn -2.993337 3.107911 0.393368
v 0.045000 0.037805 0.003844
vn 0.495582 6.208333 0.499990
v 0.097000 0.037805 0.003844
vn 0.000000 3.137561 0.000000
v 0.045000 0.038000 0.000000
vn 0.000000 3.137561 -0.000000
v 0.097000 0.038000 0.000000
vn 0.452972 6.213674 -0.531061
v 0.097000 0.037805 -0.003844
vn 0.436432 5.681309 2.554614
v 0.097000 0.034566 0.015786
vn -2.949249 2.733189 1.517387
v 0.045000 0.033225 0.018441
vn 0.556736 5.470694 2.952560
v 0.097000 0.033225 0.018441
vn 0.407271 5.182565 3.466921
v 0.097000 0.031968 0.020544
vn -2.944214 2.369861 2.038275
v 0.045000 0.028833 0.024752
vn 0.413596 4.870667 3.904361
v 0.097000 0.028833 0.024752
vn 0.402547 4.571240 4.251106
v 0.097000 0.028718 0.024885
vn -2.945343 1.915977 2.469843
v 0.045000 0.023260 0.030049
vn 0.401355 4.188402 4.619678
v 0.097000 0.024885 0.028718
vn -2.947118 1.374974 2.807384
v 0.045000 0.016735 0.034117
vn 0.407266 3.334782 5.268552
v 0.097000 0.020544 0.031968
vn 0.461891 3.773031 4.963671
v 0.097000 0.023260 0.030049
vn 0.444626 1.437702 6.069705
v 0.097000 0.009525 0.036787
vn 0.404749 1.924148 5.934866
v 0.097000 0.010706 0.036461
vn -2.947213 0.785417 3.025742
v 0.045000 0.009525 0.036787
vn 0.404845 2.425956 5.748682
v 0.097000 0.015786 0.034566
vn 0.439900 2.875721 5.536043
v 0.097000 0.016735 0.034117
vn 0.430164 0.887639 6.167035
v 0.097000 0.005408 0.037613
vn -2.948813 0.157438 3.122150
v 0.045000 0.001925 0.037951
vn 0.519392 0.423360 6.209560
v 0.097000 0.001925 0.037951
vn -0.001161 -0.072786 3.137048
v 0.097000 0.000000 0.038000
vn -2.948033 -0.472828 3.090117
v 0.045000 -0.005754 0.037562
vn 0.407447 -0.681332 6.204723
v 0.097000 -0.005408 0.037613
vn -2.949297 -1.085634 2.931586
v 0.045000 -0.013198 0.035635
vn 0.407270 -1.660189 6.010180
v 0.097000 -0.010706 0.036461
vn 0.418956 -1.139879 6.136622
v 0.097000 -0.005754 0.037562
vn -2.945520 -1.655615 2.651470
v 0.045000 -0.020101 0.032248
vn 0.407268 -2.668195 5.635529
v 0.097000 -0.015786 0.034566
vn 0.465616 -2.172553 5.843475
v 0.097000 -0.013198 0.035635
vn 0.456471 -4.357645 4.460458
v 0.097000 -0.026181 0.027542
vn 0.402798 -3.967006 4.812868
v 0.097000 -0.024885 0.028718
vn -2.946217 -2.151670 2.267558
v 0.045000 -0.026181 0.027542
vn 0.403520 -3.544184 5.137413
v 0.097000 -0.020544 0.031968
vn 0.424343 -3.143098 5.391501
v 0.097000 -0.020101 0.032248
vn 0.407267 -4.721662 4.072380
v 0.097000 -0.028718 0.024885
vn -2.947941 -2.566616 1.784593
v 0.045000 -0.031189 0.021708
vn 0.449005 -5.052463 3.656812
v 0.097000 -0.031189 0.021708
vn 0.405635 -5.336129 3.231625
v 0.097000 -0.031968 0.020544
vn -2.947667 -2.872164 1.234049
v 0.045000 -0.034920 0.014986
vn 0.405910 -5.595684 2.762027
v 0.097000 -0.034566 0.015786
vn -2.949151 -3.062248 0.628798
v 0.045000 -0.037222 0.007649
vn 0.434343 -5.970380 1.778644
v 0.097000 -0.036461 0.010706
vn 0.434893 -5.793892 2.314747
v 0.097000 -0.034920 0.014986
vn 0.000000 -3.133588 0.000000
v 0.097000 -0.038000 -0.000000
vn 0.407273 -6.188838 0.759508
v 0.097000 -0.037613 0.005408
vn 0.544117 -6.074116 1.335239
v 0.097000 -0.037222 0.007649
vn 2.998793 0.000000 0.000000
v 0.107000 0.028000 -0.000000
vn 6.253731 0.424163 0.060985
v 0.107000 0.027715 0.003985
vn 6.283191 0.000000 0.000000
v 0.107000 0.000000 -0.000000
vn 6.253732 0.424163 -0.060986
v 0.107000 0.027715 -0.003985
vn 6.253731 0.360498 -0.231678
v 0.107000 0.023555 -0.015138
vn 6.253732 0.389800 -0.178016
v 0.107000 0.025470 -0.011632
vn 6.253731 0.411166 -0.120729
v 0.107000 0.026866 -0.007889
vn 6.253731 0.231678 -0.360498
v 0.107000 0.015138 -0.023555
vn 6.253731 0.280624 -0.323857
v 0.107000 0.018336 -0.021161
vn 6.253732 0.323857 -0.280624
v 0.107000 0.021161 -0.018336
vn 6.253731 0.060985 -0.424163
v 0.107000 0.003985 -0.027715
vn 6.253731 0.120729 -0.411166
v 0.107000 0.007889 -0.026866
vn 6.253732 0.178016 -0.389800
v 0.107000 0.011632 -0.025470
vn 6.253731 -0.120729 -0.411166
v 0.107000 -0.007889 -0.026866
vn 6.253732 -0.060986 -0.424163
v 0.107000 -0.003985 -0.027715
vn 2.998793 0.000000 0.000000
v 0.107000 -0.000000 -0.028000
vn 6.253732 -0.280624 -0.323857
v 0.107000 -0.018336 -0.021161
vn 6.253731 -0.231678 -0.360498
v 0.107000 -0.015138 -0.023555
vn 6.253731 -0.178016 -0.389800
v 0.107000 -0.011632 -0.025470
vn 6.253732 -0.389800 -0.178016
v 0.107000 -0.025470 -0.011632
vn 6.253732 -0.360498 -0.231678
v 0.107000 -0.023555 -0.015138
vn 6.253731 -0.323857 -0.280624
v 0.107000 -0.021161 -0.018336
vn 2.998793 0.000000 0.000000
v 0.107000 -0.028000 0.000000
vn 6.253731 -0.424163 -0.060985
v 0.107000 -0.027715 -0.003985
vn 6.253731 -0.411166 -0.120729
v 0.107000 -0.026866 -0.007889
vn 6.253731 -0.389800 0.178016
v 0.107000 -0.025470 0.011632
vn 6.253731 -0.411166 0.120729
v 0.107000 -0.026866 0.007889
vn 6.253732 -0.424163 0.060986
v 0.107000 -0.027715 0.003985
vn 6.253731 -0.280624 0.323857
v 0.107000 -0.018336 0.021161
vn 6.253732 -0.323857 0.280624
v 0.107000 -0.021161 0.018336
vn 6.253732 -0.360498 0.231678
v 0.107000 -0.023555 0.015138
vn 6.253731 -0.120729 0.411166
v 0.107000 -0.007889 0.026866
vn 6.253732 -0.178016 0.389800
v 0.107000 -0.011632 0.025470
vn 6.253731 -0.231678 0.360498
v 0.107000 -0.015138 0.023555
vn 6.253732 0.060986 0.424163
v 0.107000 0.003985 0.027715
vn 2.998793 0.000000 0.000000
v 0.107000 0.000000 0.028000
vn 6.253731 -0.060985 0.424163
v 0.107000 -0.003985 0.027715
vn 6.253731 0.231678 0.360498
v 0.107000 0.015138 0.023555
vn 6.253731 0.178016 0.389800
v 0.107000 0.011632 0.025470
vn 6.253731 0.120729 0.411166
v 0.107000 0.007889 0.026866
vn 6.253732 0.360498 0.231678
v 0.107000 0.023555 0.015138
vn 6.253731 0.323857 0.280624
v 0.107000 0.021161 0.018336
vn 6.253732 0.280624 0.323857
v 0.107000 0.018336 0.021161
vn 6.253731 0.411166 0.120729
v 0.107000 0.026866 0.007889
vn 6.253732 0.389800 0.178016
v 0.107000 0.025470 0.011632
vn -3.291193 0.000000 0.000000
v 0.045000 0.016500 0.000000
vn -3.040252 0.000000 0.000000
v 0.045000 0.038000 0.000000
vn 1.615017 5.905746 0.864805
v 0.099588 0.037276 0.005359
vn 1.598620 5.427037 2.489274
v 0.099588 0.034256 0.015644
vn 1.597151 4.509192 3.913372
v 0.099588 0.028461 0.024662
vn 1.625967 3.217969 5.027162
v 0.099588 0.020360 0.031681
vn 1.617572 2.459470 5.438593
v 0.099588 0.015644 0.034256
vn 1.604598 0.833428 5.911865
v 0.099588 0.005359 0.037276
vn 1.623314 -1.658546 5.733808
v 0.099588 -0.010610 0.036134
vn 1.624221 -2.498558 5.420755
v 0.099588 -0.015644 0.034256
vn 1.607912 -3.238205 5.015018
v 0.099588 -0.020360 0.031681
vn 1.626453 -4.513364 3.906066
v 0.099588 -0.028461 0.024662
vn 1.620671 -5.035239 3.204902
v 0.099588 -0.031681 0.020360
vn 1.600648 -5.732131 1.670469
v 0.099588 -0.036134 0.010610
vn 1.625530 -5.723074 -1.695290
v 0.099588 -0.036134 -0.010610
vn 1.615103 -5.421541 -2.497267
v 0.099588 -0.034256 -0.015644
vn 1.606512 -4.499905 -3.923519
v 0.099588 -0.028461 -0.024662
vn 1.596559 -2.473546 -5.434351
v 0.099588 -0.015644 -0.034256
vn 1.603018 -0.840791 -5.910531
v 0.099588 -0.005359 -0.037276
vn 1.626270 0.856601 -5.907115
v 0.099588 0.005359 -0.037276
vn 1.619400 1.704884 -5.720072
v 0.099588 0.010610 -0.036134
vn 1.602644 3.239900 -5.014911
v 0.099588 0.020360 -0.031681
vn 1.622217 5.006676 -3.249692
v 0.099588 0.031681 -0.020360
vn 1.624954 5.436780 -2.463511
v 0.099588 0.034256 -0.015644
vn 5.997415 1.495265 -0.682865
v 0.106659 0.027824 -0.012707
vn 5.997415 1.577228 -0.463116
v 0.106659 0.029349 -0.008618
vn 5.359340 3.004051 -0.882069
v 0.105660 0.031663 -0.009297
vn 5.997415 1.627082 -0.233939
v 0.106659 0.030277 -0.004353
vn 5.359340 3.099005 -0.445569
v 0.105660 0.032664 -0.004696
vn 4.362484 4.354225 -0.626043
v 0.104071 0.034714 -0.004991
vn 3.254938 0.428525 0.000000
v 0.107000 0.028000 -0.000000
vn 5.997415 1.643815 -0.000000
v 0.106659 0.030588 -0.000000
vn 5.359341 3.130873 -0.000000
v 0.105660 0.033000 -0.000000
vn 4.362484 4.399000 0.000000
v 0.104071 0.035071 -0.000000
vn 3.077075 5.366049 0.000000
v 0.102000 0.036660 -0.000000
vn 5.997415 1.627082 0.233939
v 0.106659 0.030277 0.004353
vn 5.359340 3.099005 0.445570
v 0.105660 0.032664 0.004696
vn 4.362484 4.354225 0.626043
v 0.104071 0.034714 0.004991
vn 3.077074 5.311430 0.763668
v 0.102000 0.036287 0.005217
vn 3.077074 5.311430 -0.763668
v 0.102000 0.036287 -0.005217
vn 1.621453 5.903912 -0.876692
v 0.099588 0.037276 -0.005359
vn 1.608369 5.970017 0.020259
v 0.099588 0.037659 -0.000000
vn 1.611910 5.732074 -1.666073
v 0.099588 0.036134 -0.010610
vn 3.077074 5.148686 -1.511792
v 0.102000 0.035175 -0.010328
vn 4.362484 4.220810 -1.239342
v 0.104071 0.033650 -0.009881
vn 5.997415 1.076469 -1.242312
v 0.106659 0.020031 -0.023117
vn 5.997414 0.888713 -1.382865
v 0.106659 0.016537 -0.025732
vn 5.359340 2.050286 -2.366156
v 0.105660 0.021610 -0.024940
vn 5.359340 1.692678 -2.633858
v 0.105660 0.017841 -0.027761
vn 4.362484 2.880733 -3.324543
v 0.104071 0.022967 -0.026505
vn 4.362484 2.378279 -3.700675
v 0.104071 0.018961 -0.029504
vn 3.077075 3.514014 -4.055388
v 0.102000 0.024007 -0.027706
vn 3.077075 2.901105 -4.514208
v 0.102000 0.019820 -0.030841
vn 1.615621 3.921830 -4.499480
v 0.099588 0.024662 -0.028461
vn 5.997415 -0.463116 -1.577228
v 0.106659 -0.008618 -0.029349
vn 5.997415 -0.682865 -1.495265
v 0.106659 -0.012707 -0.027824
vn 5.359341 -0.882069 -3.004051
v 0.105660 -0.009297 -0.031663
vn 5.359340 -1.300612 -2.847942
v 0.105660 -0.013709 -0.030018
vn 4.362484 -1.239342 -4.220810
v 0.104071 -0.009881 -0.033650
vn 4.362483 -1.827411 -4.001472
v 0.104071 -0.014569 -0.031902
vn 3.077073 -1.511792 -5.148686
v 0.102000 -0.010328 -0.035175
vn 3.077076 -2.229137 -4.881130
v 0.102000 -0.015229 -0.033347
vn 1.618327 -1.669615 -5.730503
v 0.099588 -0.010610 -0.036134
vn 5.997415 -1.076469 -1.242312
v 0.106659 -0.020031 -0.023117
vn 5.997414 -1.242312 -1.076469
v 0.106659 -0.023117 -0.020031
vn 5.359341 -2.050286 -2.366156
v 0.105660 -0.021610 -0.024940
vn 5.359340 -2.366156 -2.050286
v 0.105660 -0.024940 -0.021610
vn 4.362484 -2.880732 -3.324543
v 0.104071 -0.022967 -0.026505
vn 4.362484 -3.324542 -2.880732
v 0.104071 -0.026505 -0.022967
vn 3.077075 -3.514014 -4.055389
v 0.102000 -0.024007 -0.027706
vn 3.077075 -4.055389 -3.514015
v 0.102000 -0.027706 -0.024007
vn 1.615510 -3.896301 -4.521539
v 0.099588 -0.024662 -0.028461
vn 5.997415 -1.627082 0.233939
v 0.106659 -0.030277 0.004353
vn 5.997415 -1.577228 0.463116
v 0.106659 -0.029349 0.008618
vn 5.359340 -3.099005 0.445569
v 0.105660 -0.032664 0.004696
vn 5.359340 -3.004051 0.882069
v 0.105660 -0.031663 0.009297
vn 4.362484 -4.354225 0.626043
v 0.104071 -0.034714 0.004991
vn 4.362484 -4.220810 1.239342
v 0.104071 -0.033650 0.009881
vn 3.077074 -5.311430 0.763668
v 0.102000 -0.036287 0.005217
vn 3.077074 -5.148686 1.511792
v 0.102000 -0.035175 0.010328
vn 1.615305 -5.910548 0.832007
v 0.099588 -0.037276 0.005359
vn 3.254939 -0.000000 0.428525
v 0.107000 -0.000000 0.028000
vn 5.997415 0.000000 1.643815
v 0.106659 -0.000000 0.030588
vn 5.997415 0.233939 1.627082
v 0.106659 0.004353 0.030277
vn 5.359341 0.000000 3.130873
v 0.105660 -0.000000 0.033000
vn 5.359340 0.445569 3.099005
v 0.105660 0.004696 0.032664
vn 4.362484 -0.000000 4.399000
v 0.104071 -0.000000 0.035071
vn 4.362484 0.626043 4.354225
v 0.104071 0.004991 0.034714
vn 3.077075 -0.000000 5.366049
v 0.102000 -0.000000 0.036660
vn 3.077074 0.763668 5.311430
v 0.102000 0.005217 0.036287
vn 1.615698 -0.016970 5.968696
v 0.099588 -0.000000 0.037659
vn 5.997414 1.382865 0.888713
v 0.106659 0.025732 0.016537
vn 5.997415 1.495265 0.682865
v 0.106659 0.027824 0.012707
vn 5.359341 2.633858 1.692678
v 0.105660 0.027761 0.017841
vn 5.359340 2.847942 1.300612
v 0.105660 0.030018 0.013709
vn 4.362484 3.700675 2.378279
v 0.104071 0.029504 0.018961
vn 4.362483 4.001472 1.827411
v 0.104071 0.031902 0.014569
vn 3.077075 4.514208 2.901105
v 0.102000 0.030841 0.019820
vn 3.077076 4.881130 2.229138
v 0.102000 0.033347 0.015229
vn 1.616917 5.013084 3.239671
v 0.099588 0.031681 0.020360
vn 0.426545 3.093874 0.022669
v 0.097000 0.038000 -0.000000
vn 3.077076 4.881130 -2.229137
v 0.102000 0.033347 -0.015229
vn 4.362483 4.001472 -1.827411
v 0.104071 0.031902 -0.014569
vn 5.359340 2.847942 -1.300612
v 0.105660 0.030018 -0.013709
vn 3.077075 4.514208 -2.901105
v 0.102000 0.030841 -0.019820
vn 4.362484 3.700675 -2.378279
v 0.104071 0.029504 -0.018961
vn 5.359340 2.633858 -1.692678
v 0.105660 0.027761 -0.017841
vn 5.997415 1.382865 -0.888713
v 0.106659 0.025732 -0.016537
vn 1.597151 4.509191 -3.913372
v 0.099588 0.028461 -0.024662
vn 3.077075 4.055389 -3.514014
v 0.102000 0.027706 -0.024007
vn 4.362484 3.324543 -2.880732
v 0.104071 0.026505 -0.022967
vn 5.359341 2.366156 -2.050286
v 0.105660 0.024940 -0.021610
vn 5.997415 1.242312 -1.076470
v 0.106659 0.023117 -0.020031
vn 1.617572 2.459471 -5.438592
v 0.099588 0.015644 -0.034256
vn 3.077076 2.229138 -4.881129
v 0.102000 0.015229 -0.033347
vn 4.362483 1.827411 -4.001472
v 0.104071 0.014569 -0.031902
vn 5.359341 1.300612 -2.847942
v 0.105660 0.013709 -0.030018
vn 5.997415 0.682865 -1.495265
v 0.106659 0.012707 -0.027824
vn 5.997415 0.463116 -1.577228
v 0.106659 0.008618 -0.029349
vn 5.359340 0.882069 -3.004051
v 0.105660 0.009297 -0.031663
vn 4.362484 1.239342 -4.220810
v 0.104071 0.009881 -0.033650
vn 3.077075 1.511791 -5.148686
v 0.102000 0.010328 -0.035175
vn 3.077074 0.763668 -5.311430
v 0.102000 0.005217 -0.036287
vn 4.362484 0.626043 -4.354225
v 0.104071 0.004991 -0.034714
vn 5.359340 0.445570 -3.099005
v 0.105660 0.004696 -0.032664
vn 5.997415 0.233939 -1.627082
v 0.106659 0.004353 -0.030277
vn 0.407838 -0.071079 -3.097838
v 0.097000 0.000000 -0.038000
vn 1.621808 -0.029317 -5.968635
v 0.099588 0.000000 -0.037659
vn 3.077075 0.000000 -5.366049
v 0.102000 0.000000 -0.036660
vn 4.362484 0.000000 -4.399000
v 0.104071 0.000000 -0.035071
vn 5.359341 -0.000000 -3.130873
v 0.105660 0.000000 -0.033000
vn 5.997414 -0.000000 -1.643814
v 0.106659 0.000000 -0.030588
vn 3.254938 0.000000 -0.428525
v 0.107000 0.000000 -0.028000
vn 5.997415 -0.233939 -1.627082
v 0.106659 -0.004353 -0.030277
vn 5.359340 -0.445569 -3.099005
v 0.105660 -0.004696 -0.032664
vn 4.362484 -0.626043 -4.354225
v 0.104071 -0.004991 -0.034714
vn 3.077074 -0.763668 -5.311430
v 0.102000 -0.005217 -0.036287
vn 1.607911 -3.238206 -5.015018
v 0.099588 -0.020360 -0.031681
vn 3.077075 -2.901105 -4.514208
v 0.102000 -0.019820 -0.030841
vn 4.362484 -2.378279 -3.700675
v 0.104071 -0.018961 -0.029504
vn 5.359340 -1.692678 -2.633858
v 0.105660 -0.017841 -0.027761
vn 5.997414 -0.888713 -1.382865
v 0.106659 -0.016537 -0.025732
vn 1.620672 -5.035239 -3.204902
v 0.099588 -0.031681 -0.020360
vn 3.077074 -4.514209 -2.901105
v 0.102000 -0.030841 -0.019820
vn 4.362484 -3.700675 -2.378279
v 0.104071 -0.029504 -0.018961
vn 5.359341 -2.633858 -1.692678
v 0.105660 -0.027761 -0.017841
vn 5.997414 -1.382865 -0.888713
v 0.106659 -0.025732 -0.016537
vn 5.997415 -1.495265 -0.682865
v 0.106659 -0.027824 -0.012707
vn 5.359340 -2.847942 -1.300612
v 0.105660 -0.030018 -0.013709
vn 4.362483 -4.001472 -1.827411
v 0.104071 -0.031902 -0.014569
vn 3.077076 -4.881130 -2.229138
v 0.102000 -0.033347 -0.015229
vn 3.077075 -5.148686 -1.511791
v 0.102000 -0.035175 -0.010328
vn 4.362484 -4.220810 -1.239342
v 0.104071 -0.033650 -0.009881
vn 5.359340 -3.004051 -0.882069
v 0.105660 -0.031663 -0.009297
vn 5.997415 -1.577228 -0.463116
v 0.106659 -0.029349 -0.008618
vn 1.620902 -5.912277 -0.819980
v 0.099588 -0.037276 -0.005359
vn 3.077074 -5.311430 -0.763668
v 0.102000 -0.036287 -0.005217
vn 4.362484 -4.354225 -0.626043
v 0.104071 -0.034714 -0.004991
vn 5.359340 -3.099005 -0.445570
v 0.105660 -0.032664 -0.004696
vn 5.997415 -1.627082 -0.233939
v 0.106659 -0.030277 -0.004353
vn 3.254938 -0.428525 -0.000000
v 0.107000 -0.028000 -0.000000
vn 5.997414 -1.643814 0.000000
v 0.106659 -0.030588 -0.000000
vn 5.359341 -3.130873 0.000000
v 0.105660 -0.033000 -0.000000
vn 4.362484 -4.399000 -0.000000
v 0.104071 -0.035071 -0.000000
vn 3.077075 -5.366048 -0.000000
v 0.102000 -0.036660 -0.000000
vn 1.590226 -5.971129 -0.000000
v 0.099588 -0.037659 -0.000000
vn 0.406608 -3.088497 0.000000
v 0.097000 -0.038000 -0.000000
vn 1.615102 -5.421541 2.497266
v 0.099588 -0.034256 0.015644
vn 3.077076 -4.881131 2.229137
v 0.102000 -0.033347 0.015229
vn 4.362482 -4.001472 1.827411
v 0.104071 -0.031902 0.014569
vn 5.359340 -2.847942 1.300612
v 0.105660 -0.030018 0.013709
vn 5.997415 -1.495265 0.682865
v 0.106659 -0.027824 0.012707
vn 5.997415 -1.382865 0.888713
v 0.106659 -0.025732 0.016537
vn 5.359340 -2.633858 1.692678
v 0.105660 -0.027761 0.017841
vn 4.362484 -3.700675 2.378279
v 0.104071 -0.029504 0.018961
vn 3.077075 -4.514208 2.901105
v 0.102000 -0.030841 0.019820
vn 3.077075 -4.055389 3.514014
v 0.102000 -0.027706 0.024007
vn 4.362484 -3.324542 2.880732
v 0.104071 -0.026505 0.022967
vn 5.359341 -2.366156 2.050286
v 0.105660 -0.024940 0.021610
vn 5.997415 -1.242312 1.076470
v 0.106659 -0.023117 0.020031
vn 1.621814 -3.886975 4.529497
v 0.099588 -0.024662 0.028461
vn 3.077075 -3.514015 4.055389
v 0.102000 -0.024007 0.027706
vn 4.362484 -2.880732 3.324542
v 0.104071 -0.022967 0.026505
vn 5.359340 -2.050286 2.366156
v 0.105660 -0.021610 0.024940
vn 5.997415 -1.076469 1.242311
v 0.106659 -0.020031 0.023117
vn 5.997414 -0.888713 1.382865
v 0.106659 -0.016537 0.025732
vn 5.359340 -1.692678 2.633858
v 0.105660 -0.017841 0.027761
vn 4.362484 -2.378279 3.700675
v 0.104071 -0.018961 0.029504
vn 3.077075 -2.901105 4.514208
v 0.102000 -0.019820 0.030841
vn 3.077076 -2.229138 4.881130
v 0.102000 -0.015229 0.033347
vn 4.362483 -1.827411 4.001472
v 0.104071 -0.014569 0.031902
vn 5.359341 -1.300612 2.847942
v 0.105660 -0.013709 0.030018
vn 5.997415 -0.682865 1.495265
v 0.106659 -0.012707 0.027824
vn 3.077075 -1.511791 5.148686
v 0.102000 -0.010328 0.035175
vn 4.362484 -1.239342 4.220810
v 0.104071 -0.009881 0.033650
vn 5.359340 -0.882069 3.004051
v 0.105660 -0.009297 0.031663
vn 5.997415 -0.463116 1.577228
v 0.106659 -0.008618 0.029349
vn 1.603018 -0.840790 5.910531
v 0.099588 -0.005359 0.037276
vn 3.077074 -0.763668 5.311430
v 0.102000 -0.005217 0.036287
vn 4.362484 -0.626043 4.354225
v 0.104071 -0.004991 0.034714
vn 5.359340 -0.445570 3.099005
v 0.105660 -0.004696 0.032664
vn 5.997416 -0.233939 1.627082
v 0.106659 -0.004353 0.030277
vn 0.407837 -0.071079 3.097838
v 0.097000 -0.000000 0.038000
vn 1.619400 1.704884 5.720072
v 0.099588 0.010610 0.036134
vn 3.077074 1.511792 5.148686
v 0.102000 0.010328 0.035175
vn 4.362484 1.239342 4.220810
v 0.104071 0.009881 0.033650
vn 5.359341 0.882069 3.004051
v 0.105660 0.009297 0.031663
vn 5.997415 0.463116 1.577228
v 0.106659 0.008618 0.029349
vn 5.997415 0.682865 1.495265
v 0.106659 0.012707 0.027824
vn 5.359340 1.300612 2.847942
v 0.105660 0.013709 0.030018
vn 4.362483 1.827411 4.001472
v 0.104071 0.014569 0.031902
vn 3.077076 2.229137 4.881130
v 0.102000 0.015229 0.033347
vn 3.077075 2.901105 4.514208
v 0.102000 0.019820 0.030841
vn 4.362484 2.378279 3.700675
v 0.104071 0.018961 0.029504
vn 5.359341 1.692678 2.633858
v 0.105660 0.017841 0.027761
vn 5.997415 0.888713 1.382865
v 0.106659 0.016537 0.025732
vn 1.621491 3.931111 4.491398
v 0.099588 0.024662 0.028461
vn 3.077075 3.514014 4.055389
v 0.102000 0.024007 0.027706
vn 4.362484 2.880732 3.324543
v 0.104071 0.022967 0.026505
vn 5.359341 2.050286 2.366156
v 0.105660 0.021610 0.024940
vn 5.997415 1.076469 1.242312
v 0.106659 0.020031 0.023117
vn 5.997414 1.242312 1.076469
v 0.106659 0.023117 0.020031
vn 5.359340 2.366156 2.050286
v 0.105660 0.024940 0.021610
vn 4.362484 3.324542 2.880732
v 0.104071 0.026505 0.022967
vn 3.077075 4.055389 3.514015
v 0.102000 0.027706 0.024007
vn 1.611910 5.732074 1.666073
v 0.099588 0.036134 0.010610
vn 3.077075 5.148686 1.511791
v 0.102000 0.035175 0.010328
vn 4.362484 4.220810 1.239342
v 0.104071 0.033650 0.009881
vn 5.359340 3.004051 0.882069
v 0.105660 0.031663 0.009297
vn 5.997415 1.577228 0.463116
v 0.106659 0.029349 0.008618
# 495 vertices, 0 vertices normals

f 1//1 2//2 3//3
f 4//4 5//5 6//6
f 1//1 3//3 7//7
f 6//6 8//8 4//4
f 4//4 8//8 9//9
f 4//4 9//9 10//10
f 9//9 11//11 10//10
f 10//10 11//11 12//12
f 10//10 12//12 13//13
f 13//13 12//12 14//14
f 13//13 14//14 3//3
f 3//3 14//14 15//15
f 3//3 15//15 7//7
f 16//16 17//17 18//18
f 17//17 16//16 19//19
f 19//19 16//16 3//3
f 19//19 3//3 2//2
f 20//20 21//21 16//16
f 18//18 22//22 16//16
f 16//16 22//22 23//23
f 16//16 23//23 24//24
f 21//21 25//25 16//16
f 16//16 25//25 26//26
f 16//16 26//26 27//27
f 27//27 26//26 28//28
f 27//27 28//28 4//4
f 4//4 28//28 29//29
f 4//4 29//29 5//5
f 24//24 30//30 16//16
f 16//16 30//30 31//31
f 16//16 31//31 20//20
f 32//32 33//33 34//34
f 34//34 33//33 35//35
f 35//35 36//36 34//34
f 34//34 36//36 37//37
f 34//34 37//37 38//38
f 38//38 39//39 34//34
f 34//34 39//39 40//40
f 34//34 40//40 41//41
f 42//42 43//43 44//44
f 44//44 43//43 45//45
f 44//44 45//45 46//46
f 47//47 48//48 49//49
f 46//46 47//47 44//44
f 44//44 47//47 49//49
f 44//44 49//49 50//50
f 50//50 49//49 51//51
f 50//50 51//51 52//52
f 52//52 51//51 53//53
f 54//54 7//7 55//55
f 55//55 7//7 15//15
f 55//55 15//15 56//56
f 56//56 15//15 14//14
f 56//56 14//14 57//57
f 57//57 14//14 12//12
f 57//57 12//12 58//58
f 58//58 12//12 11//11
f 58//58 11//11 59//59
f 59//59 11//11 9//9
f 59//59 9//9 60//60
f 60//60 9//9 8//8
f 60//60 8//8 61//61
f 61//61 8//8 6//6
f 61//61 6//6 53//53
f 53//53 6//6 5//5
f 53//53 5//5 52//52
f 62//62 63//63 64//64
f 64//64 63//63 2//2
f 64//64 2//2 54//54
f 54//54 2//2 1//1
f 54//54 1//1 7//7
f 65//65 66//66 67//67
f 65//65 67//67 68//68
f 66//66 69//69 67//67
f 67//67 69//69 70//70
f 67//67 70//70 71//71
f 62//62 64//64 67//67
f 67//67 64//64 72//72
f 67//67 72//72 68//68
f 35//35 33//33 72//72
f 72//72 33//33 73//73
f 72//72 73//73 68//68
f 72//72 74//74 35//35
f 35//35 74//74 75//75
f 35//35 75//75 36//36
f 36//36 75//75 76//76
f 36//36 76//76 37//37
f 37//37 76//76 77//77
f 37//37 77//77 38//38
f 38//38 77//77 78//78
f 38//38 78//78 39//39
f 78//78 79//79 39//39
f 39//39 79//79 80//80
f 39//39 80//80 40//40
f 40//40 80//80 81//81
f 40//40 81//81 41//41
f 41//41 81//81 82//82
f 48//48 83//83 49//49
f 49//49 83//83 32//32
f 49//49 32//32 82//82
f 82//82 32//32 34//34
f 82//82 34//34 41//41
f 17//17 84//84 85//85
f 17//17 85//85 18//18
f 18//18 85//85 86//86
f 18//18 86//86 22//22
f 22//22 86//86 87//87
f 22//22 87//87 23//23
f 23//23 87//87 88//88
f 23//23 88//88 24//24
f 24//24 88//88 89//89
f 24//24 89//89 30//30
f 30//30 89//89 90//90
f 30//30 90//90 31//31
f 31//31 90//90 91//91
f 31//31 91//91 20//20
f 20//20 91//91 92//92
f 20//20 92//92 21//21
f 21//21 92//92 93//93
f 21//21 93//93 25//25
f 25//25 93//93 94//94
f 25//25 94//94 26//26
f 26//26 94//94 95//95
f 26//26 95//95 28//28
f 29//29 28//28 96//96
f 96//96 28//28 95//95
f 96//96 95//95 97//97
f 98//98 84//84 99//99
f 99//99 84//84 17//17
f 99//99 17//17 19//19
f 100//100 101//101 97//97
f 97//97 95//95 100//100
f 100//100 95//95 84//84
f 100//100 84//84 102//102
f 102//102 84//84 98//98
f 102//102 98//98 103//103
f 95//95 94//94 84//84
f 84//84 94//94 93//93
f 84//84 93//93 92//92
f 86//86 85//85 87//87
f 87//87 85//85 88//88
f 92//92 91//91 84//84
f 84//84 91//91 90//90
f 84//84 90//90 85//85
f 85//85 90//90 89//89
f 85//85 89//89 88//88
f 104//104 105//105 106//106
f 106//106 105//105 107//107
f 13//13 3//3 108//108
f 108//108 3//3 109//109
f 16//16 105//105 3//3
f 3//3 105//105 104//104
f 3//3 104//104 109//109
f 10//10 110//110 4//4
f 4//4 110//110 111//111
f 111//111 106//106 4//4
f 4//4 106//106 107//107
f 4//4 107//107 27//27
f 100//100 102//102 43//43
f 43//43 102//102 70//70
f 43//43 70//70 45//45
f 70//70 69//69 45//45
f 45//45 69//69 66//66
f 45//45 66//66 46//46
f 46//46 66//66 65//65
f 46//46 65//65 47//47
f 33//33 32//32 73//73
f 73//73 32//32 83//83
f 65//65 68//68 47//47
f 47//47 68//68 73//73
f 47//47 73//73 48//48
f 48//48 73//73 83//83
f 10//10 13//13 110//110
f 110//110 13//13 108//108
f 110//110 108//108 111//111
f 111//111 108//108 109//109
f 111//111 109//109 106//106
f 106//106 109//109 104//104
f 107//107 105//105 27//27
f 27//27 105//105 16//16
f 99//99 19//19 2//2
f 112//112 113//113 62//62
f 62//62 113//113 99//99
f 62//62 99//99 63//63
f 63//63 99//99 2//2
f 96//96 114//114 44//44
f 5//5 29//29 52//52
f 52//52 29//29 96//96
f 52//52 96//96 50//50
f 50//50 96//96 44//44
f 115//115 116//116 117//117
f 118//118 119//119 116//116
f 116//116 119//119 120//120
f 116//116 120//120 117//117
f 121//121 122//122 123//123
f 123//123 122//122 124//124
f 123//123 124//124 118//118
f 118//118 124//124 125//125
f 118//118 125//125 119//119
f 121//121 123//123 126//126
f 126//126 123//123 127//127
f 126//126 127//127 128//128
f 128//128 127//127 129//129
f 129//129 127//127 130//130
f 129//129 130//130 131//131
f 132//132 133//133 130//130
f 130//130 133//133 134//134
f 130//130 134//134 131//131
f 135//135 136//136 132//132
f 132//132 136//136 137//137
f 132//132 137//137 133//133
f 138//138 139//139 140//140
f 140//140 139//139 141//141
f 140//140 141//141 135//135
f 135//135 141//141 142//142
f 135//135 142//142 136//136
f 138//138 140//140 143//143
f 143//143 140//140 144//144
f 143//143 144//144 145//145
f 145//145 144//144 146//146
f 146//146 144//144 147//147
f 146//146 147//147 148//148
f 149//149 150//150 147//147
f 147//147 150//150 151//151
f 147//147 151//151 148//148
f 152//152 153//153 149//149
f 149//149 153//153 154//154
f 149//149 154//154 150//150
f 152//152 149//149 155//155
f 155//155 149//149 156//156
f 155//155 156//156 157//157
f 157//157 156//156 158//158
f 157//157 158//158 159//159
f 159//159 158//158 160//160
f 160//160 158//158 161//161
f 160//160 161//161 162//162
f 162//162 161//161 163//163
f 163//163 161//161 164//164
f 163//163 164//164 165//165
f 166//166 167//167 168//168
f 168//168 167//167 169//169
f 168//168 169//169 170//170
f 170//170 169//169 171//171
f 170//170 171//171 172//172
f 172//172 171//171 173//173
f 172//172 173//173 164//164
f 164//164 173//173 174//174
f 164//164 174//174 165//165
f 166//166 168//168 175//175
f 175//175 168//168 176//176
f 175//175 176//176 177//177
f 177//177 176//176 178//178
f 178//178 176//176 179//179
f 178//178 179//179 180//180
f 180//180 179//179 181//181
f 181//181 179//179 182//182
f 181//181 182//182 183//183
f 184//184 185//185 182//182
f 182//182 185//185 186//186
f 182//182 186//186 183//183
f 187//187 188//188 189//189
f 189//189 188//188 190//190
f 189//189 190//190 184//184
f 184//184 190//190 191//191
f 184//184 191//191 185//185
f 187//187 189//189 192//192
f 192//192 189//189 193//193
f 192//192 193//193 194//194
f 194//194 193//193 195//195
f 195//195 193//193 196//196
f 195//195 196//196 197//197
f 198//198 199//199 196//196
f 196//196 199//199 200//200
f 196//196 200//200 197//197
f 201//201 202//202 198//198
f 198//198 202//202 203//203
f 198//198 203//203 199//199
f 204//204 205//205 206//206
f 206//206 205//205 207//207
f 206//206 207//207 201//201
f 201//201 207//207 208//208
f 201//201 208//208 202//202
f 204//204 206//206 209//209
f 209//209 206//206 210//210
f 209//209 210//210 211//211
f 211//211 210//210 212//212
f 212//212 210//210 213//213
f 212//212 213//213 214//214
f 215//215 216//216 213//213
f 213//213 216//216 217//217
f 213//213 217//217 214//214
f 117//117 218//218 115//115
f 115//115 218//218 219//219
f 115//115 219//219 215//215
f 215//215 219//219 220//220
f 215//215 220//220 216//216
f 221//221 222//222 223//223
f 221//221 223//223 224//224
f 225//225 226//226 223//223
f 223//223 226//226 227//227
f 223//223 227//227 224//224
f 228//228 229//229 223//223
f 223//223 229//229 230//230
f 223//223 230//230 225//225
f 231//231 232//232 223//223
f 223//223 232//232 233//233
f 223//223 233//233 228//228
f 234//234 235//235 223//223
f 223//223 235//235 236//236
f 223//223 236//236 231//231
f 237//237 238//238 223//223
f 223//223 238//238 239//239
f 223//223 239//239 234//234
f 240//240 241//241 223//223
f 223//223 241//241 242//242
f 223//223 242//242 237//237
f 243//243 244//244 223//223
f 223//223 244//244 245//245
f 223//223 245//245 240//240
f 246//246 247//247 223//223
f 223//223 247//247 248//248
f 223//223 248//248 243//243
f 249//249 250//250 223//223
f 223//223 250//250 251//251
f 223//223 251//251 246//246
f 252//252 253//253 223//223
f 223//223 253//253 254//254
f 223//223 254//254 249//249
f 255//255 256//256 223//223
f 223//223 256//256 257//257
f 223//223 257//257 252//252
f 258//258 259//259 223//223
f 223//223 259//259 260//260
f 223//223 260//260 255//255
f 261//261 262//262 223//223
f 223//223 262//262 263//263
f 223//223 263//263 258//258
f 222//222 264//264 223//223
f 223//223 264//264 265//265
f 223//223 265//265 261//261
f 60//60 118//118 59//59
f 59//59 118//118 116//116
f 59//59 116//116 58//58
f 58//58 116//116 115//115
f 58//58 115//115 57//57
f 115//115 215//215 57//57
f 57//57 215//215 213//213
f 57//57 213//213 56//56
f 56//56 213//213 210//210
f 56//56 210//210 55//55
f 53//53 130//130 61//61
f 61//61 130//130 127//127
f 61//61 127//127 60//60
f 60//60 127//127 123//123
f 60//60 123//123 118//118
f 49//49 140//140 51//51
f 51//51 140//140 135//135
f 51//51 135//135 53//53
f 53//53 135//135 132//132
f 53//53 132//132 130//130
f 81//81 149//149 82//82
f 82//82 149//149 147//147
f 82//82 147//147 49//49
f 49//49 147//147 144//144
f 49//49 144//144 140//140
f 79//79 161//161 80//80
f 80//80 161//161 158//158
f 80//80 158//158 81//81
f 81//81 158//158 156//156
f 81//81 156//156 149//149
f 64//64 193//193 72//72
f 72//72 193//193 189//189
f 72//72 189//189 74//74
f 189//189 184//184 74//74
f 74//74 184//184 182//182
f 74//74 182//182 75//75
f 75//75 182//182 179//179
f 75//75 179//179 76//76
f 210//210 206//206 55//55
f 55//55 206//206 201//201
f 55//55 201//201 54//54
f 54//54 201//201 198//198
f 54//54 198//198 64//64
f 64//64 198//198 196//196
f 64//64 196//196 193//193
f 179//179 176//176 76//76
f 76//76 176//176 168//168
f 76//76 168//168 77//77
f 77//77 168//168 170//170
f 77//77 170//170 266//266
f 266//266 170//170 267//267
f 266//266 267//267 79//79
f 79//79 267//267 164//164
f 79//79 164//164 161//161
f 171//171 169//169 268//268
f 166//166 175//175 269//269
f 180//180 181//181 270//270
f 186//186 185//185 271//271
f 191//191 190//190 272//272
f 187//187 192//192 273//273
f 200//200 199//199 274//274
f 203//203 202//202 275//275
f 208//208 207//207 276//276
f 204//204 209//209 277//277
f 211//211 212//212 278//278
f 217//217 216//216 279//279
f 120//120 119//119 280//280
f 125//125 124//124 281//281
f 121//121 126//126 282//282
f 134//134 133//133 283//283
f 142//142 141//141 284//284
f 138//138 143//143 285//285
f 145//145 146//146 286//286
f 151//151 150//150 287//287
f 155//155 157//157 288//288
f 159//159 160//160 289//289
f 290//290 226//226 225//225
f 227//227 226//226 291//291
f 291//291 226//226 290//290
f 291//291 290//290 292//292
f 224//224 227//227 293//293
f 293//293 227//227 291//291
f 293//293 291//291 294//294
f 294//294 291//291 292//292
f 294//294 292//292 295//295
f 296//296 224//224 297//297
f 297//297 224//224 293//293
f 297//297 293//293 298//298
f 298//298 293//293 294//294
f 298//298 294//294 299//299
f 299//299 294//294 295//295
f 299//299 295//295 300//300
f 222//222 296//296 301//301
f 301//301 296//296 297//297
f 301//301 297//297 302//302
f 302//302 297//297 298//298
f 302//302 298//298 303//303
f 303//303 298//298 299//299
f 303//303 299//299 304//304
f 304//304 299//299 300//300
f 304//304 300//300 268//268
f 305//305 306//306 307//307
f 308//308 306//306 309//309
f 309//309 306//306 305//305
f 309//309 305//305 310//310
f 229//229 228//228 311//311
f 311//311 228//228 312//312
f 311//311 312//312 313//313
f 313//313 312//312 314//314
f 313//313 314//314 315//315
f 315//315 314//314 316//316
f 315//315 316//316 317//317
f 317//317 316//316 318//318
f 317//317 318//318 319//319
f 319//319 318//318 287//287
f 234//234 239//239 320//320
f 320//320 239//239 321//321
f 320//320 321//321 322//322
f 322//322 321//321 323//323
f 322//322 323//323 324//324
f 324//324 323//323 325//325
f 324//324 325//325 326//326
f 326//326 325//325 327//327
f 326//326 327//327 328//328
f 328//328 327//327 283//283
f 237//237 242//242 329//329
f 329//329 242//242 330//330
f 329//329 330//330 331//331
f 331//331 330//330 332//332
f 331//331 332//332 333//333
f 333//333 332//332 334//334
f 333//333 334//334 335//335
f 335//335 334//334 336//336
f 335//335 336//336 337//337
f 337//337 336//336 282//282
f 248//248 247//247 338//338
f 338//338 247//247 339//339
f 338//338 339//339 340//340
f 340//340 339//339 341//341
f 340//340 341//341 342//342
f 342//342 341//341 343//343
f 342//342 343//343 344//344
f 344//344 343//343 345//345
f 344//344 345//345 346//346
f 346//346 345//345 279//279
f 347//347 255//255 348//348
f 348//348 255//255 349//349
f 348//348 349//349 350//350
f 350//350 349//349 351//351
f 350//350 351//351 352//352
f 352//352 351//351 353//353
f 352//352 353//353 354//354
f 354//354 353//353 355//355
f 354//354 355//355 356//356
f 356//356 355//355 273//273
f 261//261 265//265 357//357
f 357//357 265//265 358//358
f 357//357 358//358 359//359
f 359//359 358//358 360//360
f 359//359 360//360 361//361
f 361//361 360//360 362//362
f 361//361 362//362 363//363
f 363//363 362//362 364//364
f 363//363 364//364 365//365
f 365//365 364//364 269//269
f 162//162 163//163 308//308
f 308//308 163//163 165//165
f 308//308 165//165 306//306
f 306//306 165//165 174//174
f 306//306 174//174 307//307
f 307//307 174//174 366//366
f 160//160 162//162 289//289
f 289//289 162//162 308//308
f 289//289 308//308 367//367
f 367//367 308//308 309//309
f 367//367 309//309 368//368
f 368//368 309//309 310//310
f 368//368 310//310 369//369
f 157//157 159//159 288//288
f 288//288 159//159 289//289
f 288//288 289//289 370//370
f 370//370 289//289 367//367
f 370//370 367//367 371//371
f 371//371 367//367 368//368
f 371//371 368//368 372//372
f 372//372 368//368 369//369
f 372//372 369//369 373//373
f 152//152 155//155 374//374
f 374//374 155//155 288//288
f 374//374 288//288 375//375
f 375//375 288//288 370//370
f 375//375 370//370 376//376
f 376//376 370//370 371//371
f 376//376 371//371 377//377
f 377//377 371//371 372//372
f 377//377 372//372 378//378
f 378//378 372//372 373//373
f 378//378 373//373 230//230
f 230//230 373//373 225//225
f 230//230 229//229 378//378
f 378//378 229//229 311//311
f 378//378 311//311 377//377
f 377//377 311//311 313//313
f 377//377 313//313 376//376
f 376//376 313//313 315//315
f 376//376 315//315 375//375
f 375//375 315//315 317//317
f 375//375 317//317 374//374
f 374//374 317//317 319//319
f 374//374 319//319 152//152
f 152//152 319//319 153//153
f 287//287 150//150 319//319
f 319//319 150//150 154//154
f 319//319 154//154 153//153
f 148//148 151//151 379//379
f 379//379 151//151 287//287
f 379//379 287//287 380//380
f 380//380 287//287 318//318
f 380//380 318//318 381//381
f 381//381 318//318 316//316
f 381//381 316//316 382//382
f 382//382 316//316 314//314
f 382//382 314//314 383//383
f 383//383 314//314 312//312
f 383//383 312//312 233//233
f 233//233 312//312 228//228
f 233//233 232//232 383//383
f 383//383 232//232 384//384
f 383//383 384//384 382//382
f 382//382 384//384 385//385
f 382//382 385//385 381//381
f 381//381 385//385 386//386
f 381//381 386//386 380//380
f 380//380 386//386 387//387
f 380//380 387//387 379//379
f 379//379 387//387 286//286
f 379//379 286//286 148//148
f 148//148 286//286 146//146
f 143//143 145//145 285//285
f 285//285 145//145 286//286
f 285//285 286//286 388//388
f 388//388 286//286 387//387
f 388//388 387//387 389//389
f 389//389 387//387 386//386
f 389//389 386//386 390//390
f 390//390 386//386 385//385
f 390//390 385//385 391//391
f 391//391 385//385 384//384
f 391//391 384//384 231//231
f 231//231 384//384 232//232
f 392//392 138//138 393//393
f 393//393 138//138 285//285
f 393//393 285//285 394//394
f 394//394 285//285 388//388
f 394//394 388//388 395//395
f 395//395 388//388 389//389
f 395//395 389//389 396//396
f 396//396 389//389 390//390
f 396//396 390//390 397//397
f 397//397 390//390 391//391
f 397//397 391//391 398//398
f 398//398 391//391 231//231
f 398//398 235//235 397//397
f 397//397 235//235 399//399
f 397//397 399//399 396//396
f 396//396 399//399 400//400
f 396//396 400//400 395//395
f 395//395 400//400 401//401
f 395//395 401//401 394//394
f 394//394 401//401 402//402
f 394//394 402//402 393//393
f 393//393 402//402 284//284
f 393//393 284//284 392//392
f 392//392 284//284 141//141
f 136//136 142//142 328//328
f 328//328 142//142 284//284
f 328//328 284//284 326//326
f 326//326 284//284 402//402
f 326//326 402//402 324//324
f 324//324 402//402 401//401
f 324//324 401//401 322//322
f 322//322 401//401 400//400
f 322//322 400//400 320//320
f 320//320 400//400 399//399
f 320//320 399//399 234//234
f 234//234 399//399 235//235
f 283//283 133//133 328//328
f 328//328 133//133 137//137
f 328//328 137//137 136//136
f 131//131 134//134 403//403
f 403//403 134//134 283//283
f 403//403 283//283 404//404
f 404//404 283//283 327//327
f 404//404 327//327 405//405
f 405//405 327//327 325//325
f 405//405 325//325 406//406
f 406//406 325//325 323//323
f 406//406 323//323 407//407
f 407//407 323//323 321//321
f 407//407 321//321 238//238
f 238//238 321//321 239//239
f 238//238 237//237 407//407
f 407//407 237//237 329//329
f 407//407 329//329 406//406
f 406//406 329//329 331//331
f 406//406 331//331 405//405
f 405//405 331//331 333//333
f 405//405 333//333 404//404
f 404//404 333//333 335//335
f 404//404 335//335 403//403
f 403//403 335//335 337//337
f 403//403 337//337 131//131
f 131//131 337//337 129//129
f 282//282 126//126 337//337
f 337//337 126//126 128//128
f 337//337 128//128 129//129
f 122//122 121//121 408//408
f 408//408 121//121 282//282
f 408//408 282//282 409//409
f 409//409 282//282 336//336
f 409//409 336//336 410//410
f 410//410 336//336 334//334
f 410//410 334//334 411//411
f 411//411 334//334 332//332
f 411//411 332//332 412//412
f 412//412 332//332 330//330
f 412//412 330//330 241//241
f 241//241 330//330 242//242
f 241//241 240//240 412//412
f 412//412 240//240 413//413
f 412//412 413//413 411//411
f 411//411 413//413 414//414
f 411//411 414//414 410//410
f 410//410 414//414 415//415
f 410//410 415//415 409//409
f 409//409 415//415 416//416
f 409//409 416//416 408//408
f 408//408 416//416 281//281
f 408//408 281//281 122//122
f 122//122 281//281 124//124
f 119//119 125//125 280//280
f 280//280 125//125 281//281
f 280//280 281//281 417//417
f 417//417 281//281 416//416
f 417//417 416//416 418//418
f 418//418 416//416 415//415
f 418//418 415//415 419//419
f 419//419 415//415 414//414
f 419//419 414//414 420//420
f 420//420 414//414 413//413
f 420//420 413//413 245//245
f 245//245 413//413 240//240
f 117//117 120//120 421//421
f 421//421 120//120 280//280
f 421//421 280//280 422//422
f 422//422 280//280 417//417
f 422//422 417//417 423//423
f 423//423 417//417 418//418
f 423//423 418//418 424//424
f 424//424 418//418 419//419
f 424//424 419//419 425//425
f 425//425 419//419 420//420
f 425//425 420//420 244//244
f 244//244 420//420 245//245
f 244//244 426//426 425//425
f 425//425 426//426 427//427
f 425//425 427//427 424//424
f 424//424 427//427 428//428
f 424//424 428//428 423//423
f 423//423 428//428 429//429
f 423//423 429//429 422//422
f 422//422 429//429 430//430
f 422//422 430//430 421//421
f 421//421 430//430 431//431
f 421//421 431//431 117//117
f 117//117 431//431 432//432
f 426//426 248//248 427//427
f 427//427 248//248 338//338
f 427//427 338//338 428//428
f 428//428 338//338 340//340
f 428//428 340//340 429//429
f 429//429 340//340 342//342
f 429//429 342//342 430//430
f 430//430 342//342 344//344
f 430//430 344//344 431//431
f 431//431 344//344 346//346
f 431//431 346//346 432//432
f 432//432 346//346 219//219
f 279//279 216//216 346//346
f 346//346 216//216 220//220
f 346//346 220//220 219//219
f 214//214 217//217 433//433
f 433//433 217//217 279//279
f 433//433 279//279 434//434
f 434//434 279//279 345//345
f 434//434 345//345 435//435
f 435//435 345//345 343//343
f 435//435 343//343 436//436
f 436//436 343//343 341//341
f 436//436 341//341 437//437
f 437//437 341//341 339//339
f 437//437 339//339 246//246
f 246//246 339//339 247//247
f 246//246 251//251 437//437
f 437//437 251//251 438//438
f 437//437 438//438 436//436
f 436//436 438//438 439//439
f 436//436 439//439 435//435
f 435//435 439//439 440//440
f 435//435 440//440 434//434
f 434//434 440//440 441//441
f 434//434 441//441 433//433
f 433//433 441//441 278//278
f 433//433 278//278 214//214
f 214//214 278//278 212//212
f 209//209 211//211 277//277
f 277//277 211//211 278//278
f 277//277 278//278 442//442
f 442//442 278//278 441//441
f 442//442 441//441 443//443
f 443//443 441//441 440//440
f 443//443 440//440 444//444
f 444//444 440//440 439//439
f 444//444 439//439 445//445
f 445//445 439//439 438//438
f 445//445 438//438 250//250
f 250//250 438//438 251//251
f 205//205 204//204 446//446
f 446//446 204//204 277//277
f 446//446 277//277 447//447
f 447//447 277//277 442//442
f 447//447 442//442 448//448
f 448//448 442//442 443//443
f 448//448 443//443 449//449
f 449//449 443//443 444//444
f 449//449 444//444 450//450
f 450//450 444//444 445//445
f 450//450 445//445 249//249
f 249//249 445//445 250//250
f 249//249 254//254 450//450
f 450//450 254//254 451//451
f 450//450 451//451 449//449
f 449//449 451//451 452//452
f 449//449 452//452 448//448
f 448//448 452//452 453//453
f 448//448 453//453 447//447
f 447//447 453//453 454//454
f 447//447 454//454 446//446
f 446//446 454//454 276//276
f 446//446 276//276 205//205
f 205//205 276//276 207//207
f 202//202 208//208 275//275
f 275//275 208//208 276//276
f 275//275 276//276 455//455
f 455//455 276//276 454//454
f 455//455 454//454 456//456
f 456//456 454//454 453//453
f 456//456 453//453 457//457
f 457//457 453//453 452//452
f 457//457 452//452 458//458
f 458//458 452//452 451//451
f 458//458 451//451 253//253
f 253//253 451//451 254//254
f 199//199 203//203 274//274
f 274//274 203//203 275//275
f 274//274 275//275 459//459
f 459//459 275//275 455//455
f 459//459 455//455 460//460
f 460//460 455//455 456//456
f 460//460 456//456 461//461
f 461//461 456//456 457//457
f 461//461 457//457 462//462
f 462//462 457//457 458//458
f 462//462 458//458 252//252
f 252//252 458//458 253//253
f 197//197 200//200 463//463
f 463//463 200//200 274//274
f 463//463 274//274 464//464
f 464//464 274//274 459//459
f 464//464 459//459 465//465
f 465//465 459//459 460//460
f 465//465 460//460 466//466
f 466//466 460//460 461//461
f 466//466 461//461 467//467
f 467//467 461//461 462//462
f 467//467 462//462 257//257
f 257//257 462//462 252//252
f 257//257 347//347 467//467
f 467//467 347//347 348//348
f 467//467 348//348 466//466
f 466//466 348//348 350//350
f 466//466 350//350 465//465
f 465//465 350//350 352//352
f 465//465 352//352 464//464
f 464//464 352//352 354//354
f 464//464 354//354 463//463
f 463//463 354//354 356//356
f 463//463 356//356 197//197
f 197//197 356//356 468//468
f 273//273 192//192 356//356
f 356//356 192//192 194//194
f 356//356 194//194 468//468
f 188//188 187//187 469//469
f 469//469 187//187 273//273
f 469//469 273//273 470//470
f 470//470 273//273 355//355
f 470//470 355//355 471//471
f 471//471 355//355 353//353
f 471//471 353//353 472//472
f 472//472 353//353 351//351
f 472//472 351//351 473//473
f 473//473 351//351 349//349
f 473//473 349//349 260//260
f 260//260 349//349 255//255
f 260//260 259//259 473//473
f 473//473 259//259 474//474
f 473//473 474//474 472//472
f 472//472 474//474 475//475
f 472//472 475//475 471//471
f 471//471 475//475 476//476
f 471//471 476//476 470//470
f 470//470 476//476 477//477
f 470//470 477//477 469//469
f 469//469 477//477 272//272
f 469//469 272//272 188//188
f 188//188 272//272 190//190
f 185//185 191//191 271//271
f 271//271 191//191 272//272
f 271//271 272//272 478//478
f 478//478 272//272 477//477
f 478//478 477//477 479//479
f 479//479 477//477 476//476
f 479//479 476//476 480//480
f 480//480 476//476 475//475
f 480//480 475//475 481//481
f 481//481 475//475 474//474
f 481//481 474//474 258//258
f 258//258 474//474 259//259
f 183//183 186//186 482//482
f 482//482 186//186 271//271
f 482//482 271//271 483//483
f 483//483 271//271 478//478
f 483//483 478//478 484//484
f 484//484 478//478 479//479
f 484//484 479//479 485//485
f 485//485 479//479 480//480
f 485//485 480//480 486//486
f 486//486 480//480 481//481
f 486//486 481//481 263//263
f 263//263 481//481 258//258
f 263//263 262//262 486//486
f 486//486 262//262 487//487
f 486//486 487//487 485//485
f 485//485 487//487 488//488
f 485//485 488//488 484//484
f 484//484 488//488 489//489
f 484//484 489//489 483//483
f 483//483 489//489 490//490
f 483//483 490//490 482//482
f 482//482 490//490 270//270
f 482//482 270//270 183//183
f 183//183 270//270 181//181
f 178//178 180//180 365//365
f 365//365 180//180 270//270
f 365//365 270//270 363//363
f 363//363 270//270 490//490
f 363//363 490//490 361//361
f 361//361 490//490 489//489
f 361//361 489//489 359//359
f 359//359 489//489 488//488
f 359//359 488//488 357//357
f 357//357 488//488 487//487
f 357//357 487//487 261//261
f 261//261 487//487 262//262
f 269//269 175//175 365//365
f 365//365 175//175 177//177
f 365//365 177//177 178//178
f 167//167 166//166 491//491
f 491//491 166//166 269//269
f 491//491 269//269 492//492
f 492//492 269//269 364//364
f 492//492 364//364 493//493
f 493//493 364//364 362//362
f 493//493 362//362 494//494
f 494//494 362//362 360//360
f 494//494 360//360 495//495
f 495//495 360//360 358//358
f 495//495 358//358 264//264
f 264//264 358//358 265//265
f 264//264 222//222 495//495
f 495//495 222//222 301//301
f 495//495 301//301 494//494
f 494//494 301//301 302//302
f 494//494 302//302 493//493
f 493//493 302//302 303//303
f 493//493 303//303 492//492
f 492//492 303//303 304//304
f 492//492 304//304 491//491
f 491//491 304//304 268//268
f 491//491 268//268 167//167
f 167//167 268//268 169//169
f 225//225 373//373 290//290
f 290//290 373//373 369//369
f 290//290 369//369 292//292
f 292//292 369//369 310//310
f 292//292 310//310 295//295
f 295//295 310//310 305//305
f 295//295 305//305 300//300
f 300//300 305//305 307//307
f 300//300 307//307 268//268
f 268//268 307//307 366//366
f 268//268 366//366 171//171
# 952 faces, 0 coords texture

# End of File
