# Exported by SolidWorks
g 
v 0.00000402 0.00006254 0.00049606
v 0.00001590 -0.00006062 0.00049606
v -0.00008650 -0.00008932 -0.00048429
v 0.00009205 0.00008360 -0.00048429
v 0.00005140 0.00003585 -0.00049606
v 0.00015096 0.00010531 -0.00046489
v -0.00020598 -0.00012487 -0.00043815
v 0.00027581 0.00010150 -0.00040451
v -0.00032813 -0.00009739 -0.00036448
v -0.00017578 -0.00023553 -0.00040451
v 0.00038348 0.00003699 -0.00031871
v 0.00012752 0.00026479 -0.00040451
v 0.00018672 0.00028686 -0.00036448
v -0.00026874 -0.00011896 -0.00040451
v 0.00012428 -0.00000399 -0.00048429
v 0.00024075 -0.00000772 -0.00043815
v 0.00029374 -0.00000942 -0.00040451
v -0.00024075 -0.00000772 -0.00043815
v -0.00034210 -0.00001097 -0.00036448
v -0.00026760 -0.00021340 -0.00036448
v 0.00041675 -0.00006738 -0.00026791
v -0.00003748 -0.00005022 -0.00049606
v -0.00012377 0.00001194 -0.00048429
v -0.00029253 0.00002822 -0.00040451
v -0.00038348 0.00003699 -0.00031871
v -0.00045032 0.00004344 -0.00021289
v -0.00032945 -0.00019971 -0.00031871
v 0.00036933 -0.00010962 -0.00031871
v 0.00038032 -0.00006149 -0.00031871
v 0.00045587 -0.00013530 -0.00015451
v 0.00033491 0.00030416 -0.00021289
v -0.00041369 -0.00018313 -0.00021289
v -0.00043371 -0.00012872 -0.00021289
v 0.00026874 -0.00011896 -0.00040451
v 0.00038603 -0.00017088 -0.00026791
v 0.00043483 -0.00019249 -0.00015451
v -0.00036155 0.00013305 -0.00031871
v -0.00039619 0.00014580 -0.00026791
v -0.00044627 0.00016423 -0.00015451
v 0.00010633 -0.00006446 -0.00048429
v 0.00020598 -0.00012487 -0.00043815
v 0.00036101 -0.00021885 -0.00026791
v 0.00042673 -0.00025868 -0.00003140
v 0.00043545 0.00022717 -0.00009369
v -0.00021356 0.00011141 -0.00043815
v -0.00030346 0.00015831 -0.00036448
v -0.00044242 0.00023081 -0.00003140
v -0.00048485 -0.00007839 -0.00009369
v 0.00022977 -0.00018324 -0.00040451
v 0.00030121 -0.00024020 -0.00031871
v 0.00035371 -0.00028208 -0.00021289
v 0.00037178 -0.00029649 -0.00015451
v 0.00038399 -0.00030622 -0.00009369
v 0.00039014 -0.00031113 0.00003140
v 0.00048650 0.00011104 -0.00003140
v -0.00034625 0.00024153 -0.00026791
v -0.00039002 0.00027206 -0.00015451
v -0.00004639 0.00004213 -0.00049606
v -0.00049671 0.00004792 -0.00003140
v 0.00033082 -0.00034160 -0.00015451
v 0.00034715 -0.00035847 -0.00003140
v 0.00034168 -0.00035281 0.00009369
v -0.00013626 0.00012375 -0.00046489
v -0.00025338 0.00023011 -0.00036448
v -0.00028520 0.00025901 -0.00031871
v -0.00033491 0.00030416 -0.00021289
v -0.00035202 0.00031970 -0.00015451
v -0.00036941 0.00033549 -0.00003140
v -0.00036358 0.00033020 0.00009369
v 0.00017578 -0.00023553 -0.00040451
v 0.00023043 -0.00030875 -0.00031871
v 0.00026802 -0.00027675 -0.00031871
v 0.00028442 -0.00038109 -0.00015451
v 0.00048887 0.00004716 0.00009369
v 0.00049089 -0.00001574 0.00009369
v -0.00031837 0.00037398 -0.00009369
v -0.00032347 0.00037997 0.00003140
v -0.00030825 0.00036209 0.00015451
v -0.00047883 0.00010929 0.00009369
v 0.00018905 -0.00033568 -0.00031871
v 0.00025250 -0.00033833 -0.00026791
v 0.00022201 -0.00039420 -0.00021289
v 0.00024101 -0.00042794 -0.00009369
v 0.00024487 -0.00043480 0.00003140
v 0.00023335 -0.00041434 0.00015451
v 0.00046943 -0.00007589 0.00015451
v -0.00016033 0.00024631 -0.00040451
v -0.00023031 0.00035381 -0.00026791
v -0.00025942 0.00039853 -0.00015451
v -0.00027223 0.00041822 -0.00003140
v -0.00026794 0.00041162 0.00009369
v -0.00024681 0.00037916 0.00021289
v -0.00042160 0.00021995 0.00015451
v 0.00006907 -0.00017061 -0.00046489
v 0.00011820 -0.00020988 -0.00043815
v 0.00011029 -0.00027241 -0.00040451
v 0.00014422 -0.00025607 -0.00040451
v 0.00016978 -0.00041935 -0.00021289
v 0.00017845 -0.00044078 -0.00015451
v 0.00005395 0.00011203 0.00048429
v 0.00015842 -0.00039131 0.00026791
v -0.00007986 0.00016583 -0.00046489
v -0.00016716 0.00034710 -0.00031871
v -0.00018317 0.00038036 0.00026791
v 0.00012844 -0.00031726 -0.00036448
v 0.00009772 -0.00037266 -0.00031871
v 0.00014457 -0.00035710 -0.00031871
v 0.00011476 -0.00043762 -0.00021289
v 0.00012062 -0.00045998 -0.00015451
v 0.00012458 -0.00047508 -0.00009369
v 0.00012658 -0.00048269 0.00003140
v 0.00012062 -0.00045998 0.00015451
v 0.00011476 -0.00043762 0.00021289
v 0.00009772 -0.00037266 0.00031871
v 0.00040472 -0.00012012 0.00026791
v 0.00038603 -0.00017088 0.00026791
v -0.00014256 0.00042937 -0.00021289
v -0.00015476 0.00046612 -0.00009369
v -0.00015724 0.00047359 0.00003140
v -0.00014984 0.00045130 0.00015451
v -0.00012140 0.00036563 0.00031871
v -0.00000000 0.00000000 -0.00050000
v -0.00034625 0.00024153 0.00026791
v -0.00031252 0.00028382 0.00026791
v 0.00005785 -0.00044870 -0.00021289
v 0.00006281 -0.00048711 -0.00009369
v 0.00006381 -0.00049492 0.00003140
v 0.00006081 -0.00047162 0.00015451
v 0.00005399 -0.00041870 0.00026791
v 0.00004377 -0.00033946 0.00036448
v 0.00035228 -0.00015595 0.00031871
v -0.00005618 0.00028847 -0.00040451
v -0.00008070 0.00041438 -0.00026791
v -0.00008070 0.00041438 0.00026791
v -0.00028520 0.00025901 0.00031871
v -0.00024973 0.00029335 0.00031871
v -0.00000000 -0.00012434 -0.00048429
v -0.00000000 -0.00024088 -0.00043815
v 0.00000000 -0.00042216 -0.00026791
v 0.00000000 -0.00047553 0.00015451
v 0.00000000 -0.00029389 0.00040451
v -0.00000801 -0.00006215 -0.00049606
v 0.00026760 -0.00021340 0.00036448
v -0.00008648 0.00044407 -0.00021289
v -0.00003047 0.00047455 -0.00015451
v -0.00009389 0.00048209 -0.00009369
v -0.00003197 0.00049799 -0.00003140
v -0.00009539 0.00048981 0.00003140
v -0.00003147 0.00049013 0.00009369
v -0.00009090 0.00046676 0.00015451
v -0.00002468 0.00038447 0.00031871
v -0.00002193 0.00034157 0.00036448
v -0.00001883 0.00029329 0.00040451
v 0.00022977 -0.00018324 0.00040451
v 0.00020446 -0.00021112 0.00040451
v 0.00002705 0.00042130 -0.00026791
v 0.00002899 0.00045148 0.00021289
v -0.00016033 0.00024631 0.00040451
v -0.00012752 0.00026479 0.00040451
v 0.00003519 0.00018067 -0.00046489
v 0.00004605 0.00023643 -0.00043815
v 0.00007365 0.00037815 -0.00031871
v 0.00008648 0.00044407 -0.00021289
v 0.00009389 0.00048209 -0.00009369
v 0.00009539 0.00048981 0.00003140
v 0.00009090 0.00046676 0.00015451
v 0.00008070 0.00041438 0.00026791
v 0.00007365 0.00037815 0.00031871
v 0.00006543 0.00033596 0.00036448
v 0.00004605 0.00023643 0.00043815
v 0.00003519 0.00018067 0.00046489
v -0.00002354 -0.00018255 -0.00046489
v -0.00003758 -0.00029148 -0.00040451
v -0.00000000 -0.00029389 -0.00040451
v 0.00000000 -0.00038526 -0.00031871
v -0.00005399 -0.00041870 -0.00026791
v -0.00005785 -0.00044870 -0.00021289
v 0.00000000 -0.00047553 -0.00015451
v -0.00006281 -0.00048711 -0.00009369
v 0.00000000 -0.00049901 -0.00003140
v -0.00006381 -0.00049492 0.00003140
v -0.00006081 -0.00047162 0.00015451
v -0.00005399 -0.00041870 0.00026791
v -0.00004927 -0.00038209 0.00031871
v -0.00003080 -0.00023890 0.00043815
v 0.00011009 -0.00014751 0.00046489
v 0.00009032 -0.00016038 0.00046489
v 0.00014256 0.00042937 -0.00021289
v 0.00015476 0.00046612 -0.00009369
v 0.00012140 0.00036563 0.00031871
v 0.00010785 0.00032484 0.00036448
v 0.00007590 0.00022861 0.00043815
v -0.00004669 -0.00017804 -0.00046489
v -0.00006110 -0.00023300 -0.00043815
v -0.00007455 -0.00028428 -0.00040451
v -0.00009772 -0.00037266 -0.00031871
v -0.00011476 -0.00043762 -0.00021289
v -0.00012458 -0.00047508 -0.00009369
v -0.00012658 -0.00048269 0.00003140
v -0.00012062 -0.00045998 0.00015451
v -0.00010708 -0.00040836 0.00026791
v -0.00008682 -0.00033108 0.00036448
v -0.00006110 -0.00023300 0.00043815
v -0.00004669 -0.00017804 0.00046489
v -0.00003154 -0.00012028 0.00048429
v -0.00002377 0.00012205 0.00048429
v -0.00014457 -0.00035710 -0.00031871
v -0.00010708 -0.00040836 -0.00026791
v -0.00016978 -0.00041935 -0.00021289
v -0.00018431 -0.00045525 -0.00009369
v -0.00018726 -0.00046254 0.00003140
v -0.00017845 -0.00044078 0.00015451
v -0.00009039 -0.00022327 0.00043815
v -0.00006907 -0.00017061 0.00046489
v -0.00002352 -0.00005809 0.00049606
v 0.00007986 0.00016583 -0.00046489
v 0.00013141 0.00020188 -0.00043815
v 0.00028520 0.00025901 -0.00031871
v 0.00042458 0.00015625 -0.00021289
v 0.00044627 0.00016423 -0.00015451
v 0.00048887 0.00004716 -0.00009369
v 0.00049262 -0.00007964 0.00003140
v 0.00043483 -0.00019249 0.00015451
v 0.00033006 -0.00026321 0.00026791
v 0.00023811 -0.00024587 0.00036448
v 0.00011820 -0.00020988 0.00043815
v 0.00000801 -0.00006215 0.00049606
v 0.00025132 -0.00015235 0.00040451
v 0.00016831 -0.00007451 0.00046489
v 0.00032813 -0.00009739 0.00036448
v 0.00011921 -0.00003538 0.00048429
v 0.00038032 -0.00006149 0.00031871
v 0.00023779 -0.00003844 0.00043815
v 0.00012275 -0.00001985 0.00048429
v 0.00045218 -0.00001450 0.00021289
v 0.00045032 0.00004344 0.00021289
v 0.00023976 0.00002313 0.00043815
v 0.00012377 0.00001194 0.00048429
v 0.00037560 0.00008573 0.00031871
v 0.00046092 0.00016962 0.00009369
v 0.00042458 0.00015625 0.00021289
v 0.00037429 0.00019527 0.00026791
v 0.00026057 0.00013594 0.00040451
v 0.00039002 0.00027206 -0.00015451
v 0.00040282 0.00028099 -0.00009369
v 0.00040928 0.00028549 0.00003140
v 0.00039002 0.00027206 0.00015451
v 0.00040111 0.00020926 0.00021289
v 0.00037106 0.00025883 0.00021289
v 0.00031598 0.00022041 0.00031871
v 0.00028072 0.00019582 0.00036448
v 0.00036358 0.00033020 -0.00009369
v 0.00036941 0.00033549 0.00003140
v 0.00013626 0.00012375 0.00046489
v 0.00004639 0.00004213 0.00049606
v 0.00029327 0.00034449 -0.00021289
v 0.00030825 0.00036209 0.00015451
v 0.00031252 0.00028382 0.00026791
v 0.00027366 0.00032146 0.00026791
v 0.00028520 0.00025901 0.00031871
v 0.00024681 0.00037916 -0.00021289
v 0.00026794 0.00041162 -0.00009369
v 0.00027223 0.00041822 0.00003140
v 0.00025942 0.00039853 0.00015451
v 0.00029327 0.00034449 0.00021289
v 0.00024973 0.00029335 0.00031871
v 0.00022187 0.00026062 0.00036448
v 0.00020632 0.00042844 0.00015451
v -0.00041675 -0.00006738 -0.00026791
v -0.00012805 -0.00013222 -0.00046489
v -0.00006102 -0.00010834 -0.00048429
v -0.00007986 0.00016583 0.00046489
v -0.00019051 0.00022378 0.00040451
v -0.00011931 0.00014015 0.00046489
v -0.00028072 0.00019582 0.00036448
v -0.00005140 0.00003585 0.00049606
v -0.00037429 0.00019527 0.00026791
v -0.00030346 0.00015831 0.00036448
v -0.00021356 0.00011141 0.00043815
v -0.00042458 0.00015625 0.00021289
v -0.00036155 0.00013305 0.00031871
v -0.00037560 0.00008573 0.00031871
v -0.00012123 0.00002767 0.00048429
v -0.00048887 0.00004716 0.00009369
v -0.00047333 0.00004566 0.00015451
v -0.00042021 0.00004054 0.00026791
v -0.00034069 0.00003287 0.00036448
v -0.00029253 0.00002822 0.00040451
v -0.00018321 0.00001767 0.00046489
v -0.00024075 -0.00000772 0.00043815
v -0.00049262 -0.00007964 0.00003140
v -0.00046943 -0.00007589 0.00015451
v -0.00041675 -0.00006738 0.00026791
v -0.00038032 -0.00006149 0.00031871
v -0.00036933 -0.00010962 0.00031871
v -0.00032813 -0.00009739 0.00036448
v -0.00044911 -0.00019881 -0.00009369
v -0.00045630 -0.00020199 0.00003140
v -0.00043483 -0.00019249 0.00015451
v -0.00038603 -0.00017088 0.00026791
v -0.00035228 -0.00015595 0.00031871
v -0.00026874 -0.00011896 0.00040451
v -0.00040664 -0.00024651 -0.00015451
v -0.00042673 -0.00025868 -0.00003140
v -0.00032945 -0.00019971 0.00031871
v -0.00035371 -0.00028208 -0.00021289
v -0.00037178 -0.00029649 -0.00015451
v -0.00038399 -0.00030622 -0.00009369
v -0.00039014 -0.00031113 -0.00003140
v -0.00038399 -0.00030622 0.00009369
v -0.00037178 -0.00029649 0.00015451
v -0.00035371 -0.00028208 0.00021289
v -0.00030121 -0.00024020 -0.00031871
v -0.00031474 -0.00032499 -0.00021289
v -0.00033082 -0.00034160 -0.00015451
v -0.00034715 -0.00035847 -0.00003140
v -0.00034168 -0.00035281 0.00009369
v -0.00031474 -0.00032499 0.00021289
v -0.00029369 -0.00030326 0.00026791
v -0.00026802 -0.00027675 0.00031871
v -0.00029369 -0.00030326 -0.00026791
v -0.00027059 -0.00036257 -0.00021289
v -0.00027059 -0.00036257 0.00021289
v -0.00025250 -0.00033833 0.00026791
v -0.00016796 -0.00029823 -0.00036448
v -0.00018905 -0.00033568 -0.00031871
v -0.00017845 -0.00044078 -0.00015451
v -0.00016796 -0.00029823 0.00036448
v -0.00006102 -0.00010834 0.00048429
v 0.00012844 -0.00031726 0.00036448
v 0.00014457 -0.00035710 0.00031871
v 0.00025250 -0.00033833 0.00026791
v 0.00027059 -0.00036257 0.00021289
v 0.00037178 -0.00029649 0.00015451
v 0.00047839 -0.00014198 -0.00003140
v 0.00048485 -0.00007839 -0.00009369
v 0.00045218 -0.00001450 -0.00021289
v 0.00030346 0.00015831 -0.00036448
v 0.00026057 0.00013594 -0.00040451
v 0.00006783 0.00010421 -0.00048429
v -0.00020716 -0.00036784 -0.00026791
v 0.00039619 0.00014580 -0.00026791
v 0.00023043 -0.00030875 0.00031871
v 0.00019051 0.00022378 -0.00040451
v -0.00047528 -0.00001524 -0.00015451
v -0.00044661 -0.00007221 -0.00021289
v 0.00010451 0.00021702 -0.00043815
v -0.00024681 0.00037916 0.00021289
f 5 3 4
f 6 5 4
f 3 7 18
f 18 7 9
f 23 3 18
f 24 18 9
f 24 9 19
f 24 19 25
f 27 32 33
f 15 16 34
f 34 28 35
f 35 21 36
f 36 21 30
f 37 24 25
f 37 25 38
f 38 25 26
f 38 26 39
f 42 34 35
f 45 23 18
f 45 18 24
f 45 24 46
f 46 24 37
f 49 41 34
f 50 42 51
f 51 42 35
f 51 35 52
f 52 35 36
f 52 36 53
f 53 36 43
f 53 43 54
f 46 37 56
f 56 37 38
f 56 38 39
f 43 36 30
f 104 348 78
f 57 39 47
f 58 3 23
f 60 51 52
f 60 52 53
f 60 53 61
f 61 53 54
f 61 54 62
f 63 23 45
f 64 45 46
f 64 46 65
f 65 46 56
f 65 56 66
f 66 56 39
f 66 39 67
f 67 39 57
f 67 57 68
f 68 57 47
f 68 47 69
f 70 49 71
f 60 72 51
f 30 35 337
f 55 74 75
f 58 23 63
f 64 63 45
f 64 65 66
f 66 67 76
f 76 67 68
f 76 68 77
f 77 68 69
f 77 69 78
f 80 71 81
f 80 81 82
f 82 81 73
f 82 73 83
f 83 73 61
f 83 61 84
f 84 61 62
f 84 62 85
f 87 63 64
f 88 64 66
f 88 66 89
f 89 66 76
f 89 76 90
f 90 76 77
f 90 77 91
f 91 77 78
f 91 78 92
f 94 95 96
f 96 95 97
f 96 97 80
f 99 98 83
f 102 58 63
f 87 64 103
f 103 64 88
f 96 105 106
f 106 105 107
f 106 107 108
f 108 107 99
f 108 99 109
f 112 111 85
f 112 85 113
f 113 85 101
f 113 101 114
f 86 115 116
f 102 63 87
f 117 103 88
f 117 88 89
f 117 89 118
f 118 89 90
f 118 90 119
f 93 123 124
f 122 40 94
f 125 106 108
f 125 108 109
f 125 109 126
f 126 109 110
f 126 110 127
f 127 110 111
f 127 111 128
f 128 111 112
f 128 112 113
f 128 113 129
f 129 113 114
f 132 102 87
f 132 87 103
f 132 103 133
f 133 103 117
f 134 120 104
f 134 104 121
f 124 135 136
f 140 127 128
f 129 130 141
f 142 122 137
f 133 144 145
f 145 144 146
f 145 146 147
f 147 146 148
f 147 148 149
f 149 148 150
f 149 150 134
f 143 154 155
f 156 132 133
f 156 133 145
f 157 149 134
f 157 134 151
f 136 158 159
f 160 58 102
f 160 102 161
f 161 102 12
f 12 102 132
f 12 132 162
f 162 132 156
f 162 156 163
f 163 156 145
f 163 145 164
f 164 145 147
f 164 147 165
f 165 147 149
f 165 149 166
f 166 149 157
f 166 157 167
f 167 157 168
f 168 157 151
f 168 151 169
f 169 151 152
f 169 152 153
f 169 153 170
f 170 153 171
f 159 158 153
f 142 137 172
f 172 137 138
f 172 138 173
f 173 138 174
f 173 174 139
f 139 174 175
f 139 175 176
f 93 77 47
f 176 139 177
f 177 139 125
f 177 125 178
f 177 178 179
f 179 178 180
f 179 180 181
f 181 180 127
f 181 127 182
f 182 127 140
f 182 140 128
f 182 128 183
f 183 128 129
f 183 129 184
f 184 129 141
f 184 141 185
f 155 186 187
f 161 58 160
f 345 26 346
f 346 269 27
f 188 162 163
f 189 163 164
f 189 164 165
f 190 167 168
f 190 168 191
f 191 168 169
f 192 191 170
f 192 170 171
f 192 171 1
f 193 172 194
f 194 172 174
f 194 174 195
f 337 35 29
f 195 173 10
f 10 173 139
f 10 139 196
f 27 9 14
f 196 177 197
f 197 177 198
f 198 177 179
f 198 179 199
f 199 179 181
f 199 181 200
f 200 181 182
f 200 182 201
f 201 182 183
f 201 183 184
f 201 184 202
f 202 184 203
f 203 184 185
f 203 185 204
f 204 185 205
f 193 172 3
f 27 14 20
f 3 193 10
f 10 193 194
f 10 194 195
f 20 14 270
f 207 196 208
f 209 208 197
f 209 197 210
f 210 197 198
f 210 198 211
f 211 198 199
f 211 199 212
f 212 199 200
f 212 200 201
f 213 202 203
f 213 203 214
f 214 203 204
f 204 205 215
f 216 12 217
f 217 12 13
f 218 31 219
f 221 75 222
f 223 143 224
f 224 225 154
f 154 226 187
f 187 227 215
f 187 186 2
f 186 154 155
f 270 22 142
f 143 131 154
f 154 131 228
f 228 131 143
f 142 22 122
f 154 229 186
f 186 229 2
f 116 115 131
f 337 29 11
f 216 58 161
f 154 230 229
f 2 229 231
f 131 115 232
f 131 232 230
f 229 230 233
f 231 229 234
f 231 234 2
f 86 75 235
f 86 235 115
f 115 235 232
f 235 75 236
f 235 236 232
f 230 232 233
f 233 232 237
f 233 237 229
f 229 237 234
f 234 237 238
f 234 238 2
f 216 161 347
f 75 74 236
f 232 236 239
f 232 239 237
f 74 55 240
f 74 240 236
f 236 240 241
f 236 241 239
f 220 44 55
f 55 44 240
f 241 242 239
f 237 239 243
f 44 244 245
f 44 245 240
f 240 245 246
f 240 246 247
f 240 247 248
f 248 247 249
f 248 249 242
f 242 249 250
f 242 250 239
f 239 250 251
f 239 251 243
f 237 243 238
f 245 244 252
f 245 252 246
f 246 252 253
f 246 253 247
f 247 253 249
f 251 250 243
f 238 243 254
f 2 238 255
f 2 255 215
f 218 13 244
f 244 13 256
f 244 256 252
f 249 253 257
f 258 257 259
f 258 259 260
f 260 259 243
f 243 192 254
f 255 238 206
f 255 206 215
f 256 13 261
f 256 261 252
f 252 261 262
f 252 262 253
f 253 262 263
f 253 263 257
f 257 263 264
f 257 264 265
f 265 264 259
f 266 259 267
f 12 162 13
f 267 266 243
f 243 266 192
f 264 263 268
f 259 190 266
f 266 190 191
f 266 191 192
f 254 192 238
f 13 162 261
f 261 162 188
f 159 121 136
f 136 121 104
f 136 104 92
f 92 104 78
f 59 47 39
f 59 39 26
f 33 26 269
f 33 269 27
f 10 20 270
f 10 270 271
f 271 270 142
f 153 158 171
f 171 158 272
f 171 272 206
f 272 158 206
f 158 136 273
f 158 274 206
f 136 135 273
f 273 135 275
f 158 273 274
f 206 274 276
f 206 276 215
f 135 93 277
f 135 277 275
f 275 278 273
f 273 279 274
f 93 79 280
f 93 280 277
f 277 280 275
f 275 280 281
f 275 281 278
f 273 278 279
f 281 280 282
f 281 282 278
f 79 59 284
f 79 284 285
f 79 285 280
f 280 285 286
f 280 286 282
f 282 286 278
f 278 286 287
f 278 287 288
f 278 288 279
f 283 279 289
f 283 289 276
f 279 288 290
f 279 290 289
f 59 48 291
f 284 291 285
f 285 291 292
f 285 292 286
f 286 292 293
f 286 293 294
f 286 294 287
f 287 294 288
f 294 293 295
f 294 295 288
f 288 295 296
f 288 296 290
f 48 33 297
f 291 297 298
f 291 298 292
f 292 298 299
f 292 299 293
f 293 299 300
f 293 300 295
f 295 300 301
f 295 301 296
f 296 302 290
f 261 188 262
f 33 32 303
f 297 303 304
f 301 305 296
f 290 302 289
f 289 302 214
f 32 27 306
f 32 306 303
f 303 306 307
f 303 307 308
f 303 308 304
f 304 308 309
f 304 309 298
f 298 309 310
f 298 310 299
f 299 310 311
f 299 311 300
f 300 311 312
f 296 305 302
f 276 289 215
f 306 313 314
f 306 314 307
f 307 314 315
f 307 315 308
f 308 315 309
f 309 315 316
f 308 316 310
f 310 316 317
f 310 317 311
f 311 317 312
f 312 317 318
f 312 318 305
f 305 318 319
f 319 320 302
f 289 214 215
f 321 20 209
f 321 209 314
f 314 209 322
f 314 322 315
f 318 317 323
f 318 323 319
f 319 323 324
f 319 324 320
f 302 320 214
f 214 320 213
f 325 10 196
f 325 196 326
f 326 196 208
f 326 208 322
f 322 208 209
f 262 188 189
f 324 212 201
f 324 201 328
f 328 201 202
f 329 214 204
f 329 204 215
f 205 185 187
f 187 185 141
f 330 141 331
f 330 331 101
f 332 101 333
f 332 333 224
f 224 333 62
f 224 62 334
f 334 62 54
f 334 54 223
f 223 54 43
f 335 43 30
f 335 30 336
f 336 30 337
f 11 17 8
f 338 8 339
f 338 339 6
f 6 339 217
f 340 216 58
f 325 10 326
f 262 189 263
f 315 341 327
f 315 327 210
f 315 210 316
f 316 210 211
f 316 211 317
f 317 211 212
f 317 212 323
f 323 212 324
f 320 324 328
f 320 328 202
f 320 202 213
f 214 329 215
f 6 217 8
f 6 8 338
f 263 189 165
f 8 342 11
f 11 342 220
f 11 220 337
f 337 220 221
f 337 221 336
f 43 335 223
f 334 223 224
f 332 224 343
f 332 343 101
f 101 343 330
f 330 130 141
f 205 187 215
f 217 344 8
f 263 165 268
f 336 222 335
f 335 222 86
f 335 86 223
f 343 224 154
f 343 154 330
f 330 154 130
f 130 154 187
f 268 165 166
f 136 92 124
f 268 166 264
f 124 78 93
f 79 93 47
f 79 47 59
f 48 59 345
f 48 345 346
f 325 313 20
f 264 166 259
f 259 166 167
f 193 271 142
f 338 218 244
f 338 244 342
f 342 244 44
f 259 167 190
f 220 55 221
f 221 55 75
f 222 75 86
f 223 86 116
f 223 116 143
f 100 192 206
f 11 29 17
f 331 129 101
f 224 143 225
f 101 85 333
f 333 85 62
f 187 2 227
f 227 2 215
f 153 152 159
f 159 152 104

