# Exported by SolidWorks
g 
v 0.05856187 0.03700000 -0.00980527
v 0.06147467 0.03700000 -0.00867685
v 0.06241266 0.03700000 -0.01032500
v 0.06632532 0.03700000 0.00220192
v 0.06782532 0.03700000 0.00180000
v 0.06816266 0.03700000 -0.00145000
v 0.04825000 0.03700000 0.01370544
v 0.04583734 0.03700000 0.00792500
v 0.04462563 0.03700000 0.01092437
v 0.05155136 0.03700000 0.01972851
v 0.05127481 0.03700000 0.02055000
v 0.05158734 0.03700000 0.02055000
v 0.06937436 0.03700000 -0.01382437
v 0.06816266 0.03700000 -0.01082500
v 0.07174379 0.03700000 -0.01087712
v 0.05440192 0.03700000 -0.01245000
v 0.05400000 0.03700000 -0.01395000
v 0.05158734 0.03700000 -0.01082500
v 0.05959808 0.03700000 -0.01245000
v 0.05850000 0.03700000 -0.01135192
v 0.06241266 0.03700000 -0.01082500
v 0.05700000 0.03700000 -0.01095000
v 0.05550000 0.03700000 -0.01135192
v 0.05440192 0.03700000 -0.01545000
v 0.04850690 0.03700000 -0.02478500
v 0.05550000 0.03700000 -0.01654808
v 0.05306994 0.03700000 -0.02680213
v 0.05700000 0.03700000 -0.01695000
v 0.05790417 0.03700000 -0.02803516
v 0.06287589 0.03700000 -0.02845000
v 0.05850000 0.03700000 -0.01654808
v 0.05959808 0.03700000 -0.01545000
v 0.06000000 0.03700000 -0.01395000
v 0.06862200 0.03700000 -0.02637347
v 0.06416885 0.03700000 -0.02845000
v 0.06519759 0.03700000 -0.01902980
v 0.06501302 0.03700000 -0.01807858
v 0.06529723 0.03700000 -0.01715224
v 0.06598353 0.03700000 -0.01646820
v 0.07450000 0.03700000 -0.00145000
v 0.07390370 0.03700000 -0.00597933
v 0.07082531 0.03700000 -0.00770000
v 0.07042340 0.03700000 -0.00920000
v 0.07215545 0.03700000 -0.01020000
v 0.06932532 0.03700000 -0.01029808
v 0.06782532 0.03700000 -0.01070000
v 0.06932532 0.03700000 0.00220192
v 0.07042340 0.03700000 0.00330000
v 0.07390370 0.03700000 0.00307933
v 0.07082531 0.03700000 0.00480000
v 0.07215545 0.03700000 0.00730000
v 0.06904378 0.03700000 0.01253805
v 0.06907855 0.03700000 0.01156971
v 0.06816266 0.03700000 0.00792500
v 0.06956441 0.03700000 0.01073136
v 0.07450000 0.03700000 0.02055000
v 0.07450000 0.03700000 0.01940569
v 0.06816266 0.03700000 0.02055000
v 0.06946826 0.03700000 0.01340909
v 0.05158734 0.03700000 0.00792500
v 0.05067075 0.03700000 0.01552157
v 0.05158616 0.03700000 0.01752558
v 0.04898285 0.03700000 0.01410556
v 0.03722870 0.03700000 0.00143801
v 0.04583734 0.03700000 -0.00145000
v 0.03489301 0.03700000 0.00134008
v 0.01813636 0.03700000 -0.00145000
v 0.03276809 0.03700000 0.00231464
v 0.01561166 0.03700000 0.01655832
v 0.01710875 0.03700000 0.01461841
v 0.00620455 0.03700000 0.00792500
v 0.00684091 0.03700000 0.00742500
v 0.01521609 0.03700000 0.01897659
v -0.00986364 0.03700000 0.02055000
v 0.01561528 0.03700000 0.02055000
v 0.04434124 0.03700000 -0.02203955
v 0.04583734 0.03700000 -0.01082500
v 0.03006818 0.03700000 -0.01082500
v 0.02943182 0.03700000 -0.01032500
v 0.06272642 0.03700000 0.00483158
v 0.06007055 0.03700000 0.00647601
v 0.06241266 0.03700000 0.00742500
v 0.05700000 0.03700000 0.00705000
v 0.05158734 0.03700000 0.00742500
v 0.05392945 0.03700000 0.00647601
v 0.05127359 0.03700000 0.00483158
v 0.06632532 0.03700000 0.00739808
v 0.06522724 0.03700000 0.00630000
v 0.06482532 0.03700000 0.00480000
v 0.06460889 0.03700000 0.00233878
v 0.06522724 0.03700000 0.00330000
v 0.06546374 0.03700000 -0.00066572
v 0.06517552 0.03700000 -0.00377614
v 0.06522724 0.03700000 -0.00920000
v 0.06482532 0.03700000 -0.00770000
v 0.06522724 0.03700000 -0.00620000
v 0.06378315 0.03700000 -0.00657240
v 0.06632532 0.03700000 -0.00510192
v 0.06782532 0.03700000 -0.00470000
v 0.06932532 0.03700000 -0.00510192
v 0.07042340 0.03700000 -0.00620000
v 0.05543813 0.03700000 -0.00980527
v 0.05158734 0.03700000 -0.01032500
v 0.05252533 0.03700000 -0.00867685
v 0.04853626 0.03700000 -0.00066572
v 0.04882448 0.03700000 -0.00377614
v 0.04317468 0.03700000 -0.00770000
v 0.04357661 0.03700000 -0.00620000
v 0.04467468 0.03700000 -0.00510192
v 0.04617468 0.03700000 -0.00470000
v 0.04767468 0.03700000 -0.00510192
v 0.04877276 0.03700000 -0.00620000
v 0.05021686 0.03700000 -0.00657240
v 0.04917468 0.03700000 -0.00770000
v 0.04877276 0.03700000 -0.00920000
v 0.04767468 0.03700000 -0.01029808
v 0.04877276 0.03700000 0.00630000
v 0.04917468 0.03700000 0.00480000
v 0.04877276 0.03700000 0.00330000
v 0.04939111 0.03700000 0.00233878
v 0.04767468 0.03700000 0.00220192
v 0.04617468 0.03700000 0.00180000
v 0.04467468 0.03700000 0.00220192
v 0.04357661 0.03700000 0.00330000
v 0.03926458 0.03700000 0.00258703
v 0.04317468 0.03700000 0.00480000
v 0.04055560 0.03700000 0.00453596
v 0.04357661 0.03700000 0.00630000
v 0.04184455 0.03700000 0.00730000
v 0.04467468 0.03700000 0.00739808
v 0.07042340 0.03700000 0.00630000
v 0.06932532 0.03700000 0.00739808
v 0.06782532 0.03700000 0.00780000
v 0.06241266 0.03700000 0.00792500
v 0.06632532 0.03700000 -0.01029808
v 0.04357661 0.03700000 -0.00920000
v 0.04467468 0.03700000 -0.01029808
v 0.04617468 0.03700000 -0.01070000
v 0.04617468 0.03700000 0.00780000
v 0.04767468 0.03700000 0.00739808
v 0.05400000 0.03700000 0.01105000
v 0.05440192 0.03700000 0.00955000
v 0.05440192 0.03700000 0.01255000
v 0.05550000 0.03700000 0.00845192
v 0.05700000 0.03700000 0.00805000
v 0.05850000 0.03700000 0.00845192
v 0.05959808 0.03700000 0.00955000
v 0.06000000 0.03700000 0.01105000
v 0.05959808 0.03700000 0.01255000
v 0.06241266 0.03700000 0.02055000
v 0.05850000 0.03700000 0.01364808
v 0.05700000 0.03700000 0.01405000
v 0.05550000 0.03700000 0.01364808
v 0.01242532 0.00625000 0.02600000
v 0.01242532 0.00625000 0.03055000
v 0.01221096 0.00705000 0.02600000
v 0.01221096 0.00705000 0.03055000
v 0.01162532 0.00763564 0.02600000
v 0.01162532 0.00763564 0.03055000
v 0.01082532 0.00785000 0.02600000
v 0.01082532 0.00785000 0.03055000
v 0.01002532 0.00763564 0.02600000
v 0.01002532 0.00763564 0.03055000
v 0.00943968 0.00705000 0.02600000
v 0.00943968 0.00705000 0.03055000
v 0.00922532 0.00625000 0.02600000
v 0.00922532 0.00625000 0.03055000
v 0.00943968 0.00545000 0.02600000
v 0.00943968 0.00545000 0.03055000
v 0.01002532 0.00486436 0.02600000
v 0.01002532 0.00486436 0.03055000
v 0.01082532 0.00465000 0.02600000
v 0.01082532 0.00465000 0.03055000
v 0.01162532 0.00486436 0.02600000
v 0.01162532 0.00486436 0.03055000
v 0.01221096 0.00545000 0.02600000
v 0.01221096 0.00545000 0.03055000
v 0.01242532 -0.00625000 0.02600000
v 0.01242532 -0.00625000 0.03055000
v 0.01221096 -0.00545000 0.02600000
v 0.01221096 -0.00545000 0.03055000
v 0.01162532 -0.00486436 0.02600000
v 0.01162532 -0.00486436 0.03055000
v 0.01082532 -0.00465000 0.02600000
v 0.01082532 -0.00465000 0.03055000
v 0.01002532 -0.00486436 0.02600000
v 0.01002532 -0.00486436 0.03055000
v 0.00943968 -0.00545000 0.02600000
v 0.00943968 -0.00545000 0.03055000
v 0.00922532 -0.00625000 0.02600000
v 0.00922532 -0.00625000 0.03055000
v 0.00943968 -0.00705000 0.02600000
v 0.00943968 -0.00705000 0.03055000
v 0.01002532 -0.00763564 0.02600000
v 0.01002532 -0.00763564 0.03055000
v 0.01082532 -0.00785000 0.02600000
v 0.01082532 -0.00785000 0.03055000
v 0.01162532 -0.00763564 0.02600000
v 0.01162532 -0.00763564 0.03055000
v 0.01221096 -0.00705000 0.02600000
v 0.01221096 -0.00705000 0.03055000
v 0.00000000 -0.01410000 0.02600000
v 0.00000000 -0.01410000 0.03055000
v 0.00080000 -0.01388564 0.02600000
v 0.00080000 -0.01388564 0.03055000
v 0.00138564 -0.01330000 0.02600000
v 0.00138564 -0.01330000 0.03055000
v 0.00160000 -0.01250000 0.02600000
v 0.00160000 -0.01250000 0.03055000
v 0.00138564 -0.01170000 0.02600000
v 0.00138564 -0.01170000 0.03055000
v 0.00080000 -0.01111436 0.02600000
v 0.00080000 -0.01111436 0.03055000
v -0.00000000 -0.01090000 0.02600000
v -0.00000000 -0.01090000 0.03055000
v -0.00080000 -0.01111436 0.02600000
v -0.00080000 -0.01111436 0.03055000
v -0.00138564 -0.01170000 0.02600000
v -0.00138564 -0.01170000 0.03055000
v -0.00160000 -0.01250000 0.02600000
v -0.00160000 -0.01250000 0.03055000
v -0.00138564 -0.01330000 0.02600000
v -0.00138564 -0.01330000 0.03055000
v -0.00080000 -0.01388564 0.02600000
v -0.00080000 -0.01388564 0.03055000
v -0.00922532 -0.00625000 0.02600000
v -0.00922532 -0.00625000 0.03055000
v -0.00943968 -0.00545000 0.02600000
v -0.00943968 -0.00545000 0.03055000
v -0.01002532 -0.00486436 0.02600000
v -0.01002532 -0.00486436 0.03055000
v -0.01082532 -0.00465000 0.02600000
v -0.01082532 -0.00465000 0.03055000
v -0.01162532 -0.00486436 0.02600000
v -0.01162532 -0.00486436 0.03055000
v -0.01221096 -0.00545000 0.02600000
v -0.01221096 -0.00545000 0.03055000
v -0.01242532 -0.00625000 0.02600000
v -0.01242532 -0.00625000 0.03055000
v -0.01221096 -0.00705000 0.02600000
v -0.01221096 -0.00705000 0.03055000
v -0.01162532 -0.00763564 0.02600000
v -0.01162532 -0.00763564 0.03055000
v -0.01082532 -0.00785000 0.02600000
v -0.01082532 -0.00785000 0.03055000
v -0.01002532 -0.00763564 0.02600000
v -0.01002532 -0.00763564 0.03055000
v -0.00943968 -0.00705000 0.02600000
v -0.00943968 -0.00705000 0.03055000
v -0.00922532 0.00625000 0.02600000
v -0.00922532 0.00625000 0.03055000
v -0.00943968 0.00705000 0.02600000
v -0.00943968 0.00705000 0.03055000
v -0.01002532 0.00763564 0.02600000
v -0.01002532 0.00763564 0.03055000
v -0.01082532 0.00785000 0.02600000
v -0.01082532 0.00785000 0.03055000
v -0.01162532 0.00763564 0.02600000
v -0.01162532 0.00763564 0.03055000
v -0.01221096 0.00705000 0.02600000
v -0.01221096 0.00705000 0.03055000
v -0.01242532 0.00625000 0.02600000
v -0.01242532 0.00625000 0.03055000
v -0.01221096 0.00545000 0.02600000
v -0.01221096 0.00545000 0.03055000
v -0.01162532 0.00486436 0.02600000
v -0.01162532 0.00486436 0.03055000
v -0.01082532 0.00465000 0.02600000
v -0.01082532 0.00465000 0.03055000
v -0.01002532 0.00486436 0.02600000
v -0.01002532 0.00486436 0.03055000
v -0.00943968 0.00545000 0.02600000
v -0.00943968 0.00545000 0.03055000
v -0.00000000 0.01090000 0.02600000
v -0.00000000 0.01090000 0.03055000
v 0.00080000 0.01111436 0.02600000
v 0.00080000 0.01111436 0.03055000
v 0.00138564 0.01170000 0.02600000
v 0.00138564 0.01170000 0.03055000
v 0.00160000 0.01250000 0.02600000
v 0.00160000 0.01250000 0.03055000
v 0.00138564 0.01330000 0.02600000
v 0.00138564 0.01330000 0.03055000
v 0.00080000 0.01388564 0.02600000
v 0.00080000 0.01388564 0.03055000
v -0.00000000 0.01410000 0.02600000
v -0.00000000 0.01410000 0.03055000
v -0.00080000 0.01388564 0.02600000
v -0.00080000 0.01388564 0.03055000
v -0.00138564 0.01330000 0.02600000
v -0.00138564 0.01330000 0.03055000
v -0.00160000 0.01250000 0.02600000
v -0.00160000 0.01250000 0.03055000
v -0.00138564 0.01170000 0.02600000
v -0.00138564 0.01170000 0.03055000
v -0.00080000 0.01111436 0.02600000
v -0.00080000 0.01111436 0.03055000
v 0.06598353 0.03000000 -0.01646820
v 0.06268669 0.03000000 0.01510027
v 0.06152933 0.02795000 0.01545370
v 0.06575001 0.03000000 0.01370544
v 0.06575001 0.02795000 0.01370544
v 0.06937436 0.02795000 0.01092437
v 0.07215545 0.02795000 0.00730000
v 0.06956441 0.03000000 0.01073136
v 0.06937436 0.03000000 0.01092437
v 0.06575001 0.03000000 -0.01660545
v 0.06937436 0.02795000 -0.01382437
v 0.06575001 0.02795000 -0.01660545
v 0.06152933 0.02795000 -0.01835370
v 0.06152933 0.03000000 -0.01835370
v 0.05829228 0.03000000 -0.01890222
v 0.05700000 0.02795000 -0.01895000
v 0.05829228 0.03200000 -0.01890222
v 0.05700000 0.03200000 -0.01895000
v 0.05247067 0.02795000 -0.01835370
v 0.05247067 0.03200000 -0.01835370
v 0.04825000 0.02795000 -0.01660545
v 0.04825000 0.03200000 -0.01660545
v 0.04462563 0.02795000 -0.01382437
v 0.04462563 0.03200000 -0.01382437
v 0.04184455 0.02795000 -0.01020000
v 0.04184455 0.03200000 -0.01020000
v 0.04009630 0.02795000 -0.00597933
v 0.04009630 0.03200000 -0.00597933
v 0.03950000 0.02795000 -0.00145000
v 0.03950000 0.03200000 -0.00145000
v 0.04009630 0.02795000 0.00307933
v 0.04009630 0.03200000 0.00307933
v 0.04055560 0.03200000 0.00453596
v 0.04184455 0.02795000 0.00730000
v 0.05247067 0.03200000 0.01545370
v 0.04898285 0.03200000 0.01410556
v 0.04825000 0.02795000 0.01370544
v 0.05247067 0.02795000 0.01545370
v 0.05700000 0.02795000 0.01605000
v 0.05700000 0.03200000 0.01605000
v 0.06152933 0.03200000 0.01545370
v 0.06268669 0.03200000 0.01510027
v 0.04462563 0.02795000 0.01092437
v 0.07215545 0.02795000 -0.01020000
v 0.07390370 0.02795000 -0.00597933
v 0.07450000 0.02795000 -0.00145000
v 0.07390370 0.02795000 0.00307933
v 0.06881206 0.03200000 0.02040569
v 0.07450000 0.03200000 0.02040569
v 0.07450000 0.03200000 0.02055000
v 0.05127481 0.03200000 0.02055000
v 0.05155136 0.03200000 0.01972851
v 0.05158616 0.03200000 0.01752558
v 0.06347698 0.03200000 0.01499667
v 0.06424497 0.03200000 0.01520992
v 0.05067075 0.03200000 0.01552157
v 0.06486869 0.03200000 0.01570616
v 0.01561528 0.03200000 0.02055000
v -0.00986364 0.03200000 0.02055000
v 0.01521609 0.03200000 0.01897659
v 0.01561166 0.03200000 0.01655832
v 0.03722870 0.03200000 0.00143801
v 0.03489301 0.03200000 0.00134008
v 0.04434124 0.03200000 -0.02203955
v 0.03276809 0.03200000 0.00231464
v 0.01710875 0.03200000 0.01461841
v 0.06287589 0.03200000 -0.02845000
v 0.06416885 0.03200000 -0.02845000
v 0.06025258 0.03200000 -0.02005152
v 0.03926458 0.03200000 0.00258703
v 0.04850690 0.03200000 -0.02478500
v 0.05306994 0.03200000 -0.02680213
v 0.05790417 0.03200000 -0.02803516
v 0.05908593 0.03200000 -0.01900395
v 0.05977619 0.03200000 -0.01940864
v -0.00898352 -0.01501820 0.02855000
v -0.00898352 -0.01501820 0.03555000
v -0.01237437 -0.01237437 0.03555000
v -0.00568669 0.01655027 0.02855000
v -0.00452933 0.01690370 0.02650000
v -0.00875000 0.01515544 0.02855000
v -0.00875000 0.01515544 0.02650000
v -0.01237437 0.01237437 0.02650000
v -0.01515544 0.00875000 0.02650000
v -0.01256441 0.01218136 0.02855000
v -0.01237437 0.01237437 0.02855000
v -0.00875000 -0.01515544 0.02855000
v -0.01237437 -0.01237437 0.02650000
v -0.00875000 -0.01515544 0.02650000
v -0.00452933 -0.01690370 0.02650000
v -0.00452933 -0.01690370 0.02855000
v -0.00129228 -0.01745222 0.02855000
v 0.00000000 -0.01750000 0.02650000
v -0.00129228 -0.01745222 0.03055000
v 0.00000000 -0.01750000 0.03055000
v 0.00452933 -0.01690370 0.02650000
v 0.00452933 -0.01690370 0.03055000
v 0.00875000 -0.01515544 0.02650000
v 0.00875000 -0.01515544 0.03055000
v 0.01237437 -0.01237437 0.02650000
v 0.01237437 -0.01237437 0.03055000
v 0.01515544 -0.00875000 0.02650000
v 0.01515544 -0.00875000 0.03055000
v 0.01690370 -0.00452933 0.02650000
v 0.01690370 -0.00452933 0.03055000
v 0.01750000 -0.00000000 0.02650000
v 0.01750000 -0.00000000 0.03055000
v 0.01690370 0.00452933 0.02650000
v 0.01690370 0.00452933 0.03055000
v 0.01644440 0.00598596 0.03055000
v 0.01515544 0.00875000 0.02650000
v 0.01644440 0.00598596 0.03555000
v 0.00452933 0.01690370 0.03055000
v 0.00801715 0.01555556 0.03055000
v 0.00875000 0.01515544 0.02650000
v 0.00452933 0.01690370 0.02650000
v -0.00000000 0.01750000 0.02650000
v -0.00000000 0.01750000 0.03055000
v -0.00452933 0.01690370 0.03055000
v -0.00568669 0.01655027 0.03055000
v -0.01474379 -0.00942712 0.03555000
v -0.01515544 -0.00875000 0.02650000
v -0.01515544 -0.00875000 0.03555000
v -0.01690370 -0.00452933 0.03555000
v -0.01690370 -0.00452933 0.02650000
v -0.01750000 -0.00000000 0.03555000
v -0.01750000 -0.00000000 0.02650000
v -0.01690370 0.00452933 0.03555000
v -0.01690370 0.00452933 0.02650000
v -0.01515544 0.00875000 0.03555000
v -0.01256441 0.01218136 0.03555000
v 0.01515544 0.00875000 0.03555000
v 0.01237437 0.01237437 0.02650000
v 0.01237437 0.01237437 0.03555000
v 0.00875000 0.01515544 0.03555000
v 0.00801715 0.01555556 0.03555000
v -0.01181206 0.02185569 0.03055000
v -0.01750000 0.02185569 0.03055000
v -0.01750000 0.02200000 0.03055000
v 0.00572519 0.02200000 0.03055000
v 0.00544864 0.02117851 0.03055000
v 0.00541383 0.01897559 0.03055000
v -0.00647698 0.01644667 0.03055000
v -0.00724497 0.01665991 0.03055000
v 0.00632925 0.01697157 0.03055000
v -0.00786869 0.01715616 0.03055000
v 0.04138472 0.02200000 0.03055000
v 0.06686363 0.02200000 0.03055000
v 0.04178391 0.02042659 0.03055000
v 0.04138834 0.01800832 0.03055000
v 0.01265875 -0.02058955 0.03055000
v 0.01977130 0.00288801 0.03055000
v 0.02210699 0.00279008 0.03055000
v 0.02423191 0.00376464 0.03055000
v 0.03989125 0.01606841 0.03055000
v 0.01773542 0.00403703 0.03055000
v -0.00277620 -0.01795864 0.03055000
v -0.00090417 -0.02658516 0.03055000
v -0.00325258 -0.01860152 0.03055000
v -0.00587589 -0.02700000 0.03055000
v -0.00716886 -0.02700000 0.03055000
v 0.00849310 -0.02333500 0.03055000
v 0.00393006 -0.02535213 0.03055000
v -0.00208593 -0.01755395 0.03055000
v -0.00342020 -0.00939693 0.02600000
v -0.00541266 -0.00858766 0.02600000
v -0.00642787 -0.00766044 0.02600000
v 0.00866025 -0.00500000 0.02600000
v 0.00848766 -0.00858766 0.02600000
v 0.00642788 -0.00766044 0.02600000
v 0.00642788 0.00766045 0.02600000
v 0.00848766 0.00858766 0.02600000
v 0.00866025 0.00500000 0.02600000
v 0.00700000 0.00952628 0.02600000
v 0.00754904 0.01007532 0.02600000
v 0.00848766 0.01045000 0.02600000
v 0.00317500 0.01045000 0.02600000
v 0.00495096 0.01007532 0.02600000
v 0.00342020 0.00939693 0.02600000
v 0.00550000 0.00952628 0.02600000
v 0.00625000 0.00932532 0.02600000
v 0.01121266 0.00307500 0.02600000
v 0.01121266 -0.00307500 0.02600000
v 0.00984808 0.00173648 0.02600000
v 0.00984808 -0.00173648 0.02600000
v 0.00848766 -0.01045000 0.02600000
v 0.00754904 -0.01007532 0.02600000
v 0.00700000 -0.00952628 0.02600000
v 0.00625000 -0.00932532 0.02600000
v 0.00550000 -0.00952628 0.02600000
v 0.00342020 -0.00939693 0.02600000
v 0.00317500 -0.01045000 0.02600000
v -0.00000000 -0.01000000 0.02600000
v -0.00541266 -0.01045000 0.02600000
v -0.01050000 -0.00858766 0.02600000
v -0.01050000 0.00307500 0.02600000
v -0.00642787 0.00766045 0.02600000
v -0.00866025 0.00500000 0.02600000
v -0.00984808 0.00173648 0.02600000
v -0.00984808 -0.00173648 0.02600000
v -0.01050000 -0.00307500 0.02600000
v -0.00541266 0.00858766 0.02600000
v -0.00342020 0.00939693 0.02600000
v -0.00541266 0.01045000 0.02600000
v -0.00000000 0.01000000 0.02600000
v -0.00850000 0.01472243 0.02600000
v -0.00439992 0.01642074 0.02600000
v 0.00439992 0.01642074 0.02600000
v -0.00000000 0.01700000 0.02600000
v -0.01472243 0.00850000 0.02600000
v -0.01050000 0.00858766 0.02600000
v -0.01334020 0.01053751 0.02600000
v -0.01050000 0.01045000 0.02600000
v -0.01202082 0.01202082 0.02600000
v -0.01642074 0.00439992 0.02600000
v -0.01175000 0.00129904 0.02600000
v -0.01250000 0.00150000 0.02600000
v -0.01325000 0.00129904 0.02600000
v -0.01379904 0.00075000 0.02600000
v -0.01700000 -0.00000000 0.02600000
v -0.01400000 -0.00000000 0.02600000
v -0.01642074 -0.00439992 0.02600000
v -0.01379904 -0.00075000 0.02600000
v -0.01325000 -0.00129904 0.02600000
v -0.01250000 -0.00150000 0.02600000
v -0.01175000 -0.00129904 0.02600000
v -0.01120096 -0.00075000 0.02600000
v -0.01100000 -0.00000000 0.02600000
v -0.01120096 0.00075000 0.02600000
v -0.00866025 -0.00500000 0.02600000
v -0.01472243 -0.00850000 0.02600000
v -0.01058690 -0.01330103 0.02600000
v -0.01202082 -0.01202082 0.02600000
v -0.01050000 -0.01045000 0.02600000
v 0.00317500 -0.01321266 0.02600000
v 0.00848766 -0.01321266 0.02600000
v 0.00439992 -0.01642074 0.02600000
v 0.00850000 -0.01472243 0.02600000
v 0.01472243 -0.00850000 0.02600000
v 0.01121266 -0.00858766 0.02600000
v 0.01334019 -0.01053751 0.02600000
v 0.01121266 -0.01045000 0.02600000
v 0.01202082 -0.01202082 0.02600000
v 0.01055489 -0.01332645 0.02600000
v 0.01642074 -0.00439992 0.02600000
v 0.01700000 -0.00000000 0.02600000
v 0.01642074 0.00439992 0.02600000
v 0.01472243 0.00850000 0.02600000
v 0.01121266 0.00858766 0.02600000
v 0.00775000 0.01082532 0.02600000
v 0.00850000 0.01472243 0.02600000
v 0.01121266 0.01045000 0.02600000
v 0.01202082 0.01202082 0.02600000
v 0.00625000 0.01232532 0.02600000
v 0.00700000 0.01212436 0.02600000
v 0.00754904 0.01157532 0.02600000
v 0.00550000 0.01212436 0.02600000
v 0.00495096 0.01157532 0.02600000
v 0.00475000 0.01082532 0.02600000
v -0.00541266 -0.01321266 0.02600000
v -0.00439992 -0.01642074 0.02600000
v 0.00000000 -0.01700000 0.02600000
v 0.00754904 -0.01157532 0.02600000
v 0.00775000 -0.01082532 0.02600000
v 0.00495096 -0.01007532 0.02600000
v 0.00475000 -0.01082532 0.02600000
v 0.00495096 -0.01157532 0.02600000
v 0.00550000 -0.01212436 0.02600000
v 0.00625000 -0.01232532 0.02600000
v 0.00700000 -0.01212436 0.02600000
v -0.00850000 -0.01472243 0.02600000
v 0.06782532 0.02745000 -0.00600000
v 0.06867532 0.02745000 -0.00622776
v 0.06826266 0.02745000 -0.00447500
v 0.06342787 0.02745000 -0.00911044
v 0.06543766 0.02745000 -0.01008766
v 0.06566025 0.02745000 -0.00645000
v 0.06400000 0.02745000 -0.01097628
v 0.06454904 0.02745000 -0.01152532
v 0.06543766 0.02745000 -0.01185000
v 0.06022500 0.02745000 -0.01185000
v 0.06195096 0.02745000 -0.01152532
v 0.06042020 0.02745000 -0.01084693
v 0.06250000 0.02745000 -0.01097628
v 0.06325000 0.02745000 -0.01077532
v 0.06697532 0.02745000 -0.00917224
v 0.06782532 0.02745000 -0.00940000
v 0.06826266 0.02745000 -0.01008766
v 0.06635307 0.02745000 -0.00855000
v 0.06612532 0.02745000 -0.00770000
v 0.06635307 0.02745000 -0.00685000
v 0.06684808 0.02745000 -0.00318648
v 0.06697532 0.02745000 -0.00622776
v 0.06826266 0.02745000 0.00157500
v 0.06684808 0.02745000 0.00028648
v 0.06929756 0.02745000 0.00395000
v 0.06867532 0.02745000 0.00332776
v 0.06782532 0.02745000 0.00310000
v 0.06697532 0.02745000 0.00332776
v 0.06566025 0.02745000 0.00355000
v 0.06635307 0.02745000 0.00395000
v 0.06612532 0.02745000 0.00480000
v 0.06635307 0.02745000 0.00565000
v 0.06543766 0.02745000 0.00718766
v 0.06697532 0.02745000 0.00627224
v 0.06543766 0.02745000 0.00895000
v 0.06454904 0.02745000 0.00862532
v 0.06400000 0.02745000 0.00807628
v 0.06342787 0.02745000 0.00621045
v 0.06325000 0.02745000 0.00787532
v 0.06250000 0.02745000 0.00807628
v 0.06042020 0.02745000 0.00794693
v 0.06022500 0.02745000 0.00895000
v 0.05700000 0.02745000 0.00855000
v 0.04532468 0.02745000 -0.00622776
v 0.04617468 0.02745000 -0.00600000
v 0.04650000 0.02745000 -0.00447500
v 0.04702468 0.02745000 -0.00622776
v 0.05158734 0.02745000 -0.01008766
v 0.04764692 0.02745000 -0.00855000
v 0.04702468 0.02745000 -0.00917224
v 0.04787468 0.02745000 -0.00770000
v 0.05057212 0.02745000 -0.00911044
v 0.04764692 0.02745000 -0.00685000
v 0.04833975 0.02745000 -0.00645000
v 0.04715192 0.02745000 -0.00318648
v 0.04715192 0.02745000 0.00028648
v 0.04650000 0.02745000 0.00157500
v 0.05357980 0.02745000 -0.01084693
v 0.05158734 0.02745000 -0.01185000
v 0.05700000 0.02745000 -0.01145000
v 0.04850000 0.02745000 -0.01617243
v 0.05260007 0.02745000 -0.01787074
v 0.05552775 0.02745000 -0.01480000
v 0.05530000 0.02745000 -0.01395000
v 0.05552775 0.02745000 -0.01310000
v 0.05615000 0.02745000 -0.01247776
v 0.05700000 0.02745000 -0.01225000
v 0.05785000 0.02745000 -0.01247776
v 0.05847224 0.02745000 -0.01310000
v 0.05870000 0.02745000 -0.01395000
v 0.06139992 0.02745000 -0.01787074
v 0.05847224 0.02745000 -0.01480000
v 0.05785000 0.02745000 -0.01542224
v 0.05700000 0.02745000 -0.01845000
v 0.05700000 0.02745000 -0.01565000
v 0.05615000 0.02745000 -0.01542224
v 0.04617468 0.02745000 -0.00940000
v 0.04227757 0.02745000 -0.00995000
v 0.04650000 0.02745000 -0.01008766
v 0.04362083 0.02745000 -0.01193798
v 0.04650000 0.02745000 -0.01185000
v 0.04497918 0.02745000 -0.01347082
v 0.04532468 0.02745000 -0.00917224
v 0.04470244 0.02745000 -0.00855000
v 0.04057926 0.02745000 -0.00584992
v 0.04447468 0.02745000 -0.00770000
v 0.04470244 0.02745000 -0.00685000
v 0.04057926 0.02745000 0.00294992
v 0.04375000 0.02745000 -0.00015096
v 0.04450000 0.02745000 0.00005000
v 0.04525000 0.02745000 -0.00015096
v 0.04579904 0.02745000 -0.00070000
v 0.04600000 0.02745000 -0.00145000
v 0.04579904 0.02745000 -0.00220000
v 0.04525000 0.02745000 -0.00274904
v 0.04450000 0.02745000 -0.00295000
v 0.04375000 0.02745000 -0.00274904
v 0.04320096 0.02745000 -0.00220000
v 0.04000000 0.02745000 -0.00145000
v 0.04300000 0.02745000 -0.00145000
v 0.04320096 0.02745000 -0.00070000
v 0.05158734 0.02745000 0.00718766
v 0.04764692 0.02745000 0.00565000
v 0.05057212 0.02745000 0.00621045
v 0.04787468 0.02745000 0.00480000
v 0.04833975 0.02745000 0.00355000
v 0.04764692 0.02745000 0.00395000
v 0.04702468 0.02745000 0.00332776
v 0.04617468 0.02745000 0.00310000
v 0.04532468 0.02745000 0.00332776
v 0.04470244 0.02745000 0.00395000
v 0.04447468 0.02745000 0.00480000
v 0.04227757 0.02745000 0.00705000
v 0.04470244 0.02745000 0.00565000
v 0.04532468 0.02745000 0.00627224
v 0.04650000 0.02745000 0.00718766
v 0.04617468 0.02745000 0.00650000
v 0.04702468 0.02745000 0.00627224
v 0.04497918 0.02745000 0.01057082
v 0.04650000 0.02745000 0.00895000
v 0.04641309 0.02745000 0.01185103
v 0.05158734 0.02745000 0.00895000
v 0.04850000 0.02745000 0.01327243
v 0.05158734 0.02745000 0.01181266
v 0.05260007 0.02745000 0.01497074
v 0.05552775 0.02745000 0.01190000
v 0.05615000 0.02745000 0.01252224
v 0.05700000 0.02745000 0.01555000
v 0.05700000 0.02745000 0.01275000
v 0.06139992 0.02745000 0.01497074
v 0.05785000 0.02745000 0.01252224
v 0.06022500 0.02745000 0.01181266
v 0.06826266 0.02745000 0.00895000
v 0.06902082 0.02745000 0.01057082
v 0.06749038 0.02745000 0.01192729
v 0.07037917 0.02745000 0.00903798
v 0.06826266 0.02745000 0.00718766
v 0.07172243 0.02745000 0.00705000
v 0.06952532 0.02745000 0.00480000
v 0.07342074 0.02745000 0.00294992
v 0.06929756 0.02745000 0.00565000
v 0.06867532 0.02745000 0.00627224
v 0.06782532 0.02745000 0.00650000
v 0.07400000 0.02745000 -0.00145000
v 0.07342074 0.02745000 -0.00584992
v 0.06929756 0.02745000 -0.00685000
v 0.06952532 0.02745000 -0.00770000
v 0.07172243 0.02745000 -0.00995000
v 0.06929756 0.02745000 -0.00855000
v 0.06867532 0.02745000 -0.00917224
v 0.06475000 0.02745000 -0.01227532
v 0.06550000 0.02745000 -0.01617243
v 0.06826266 0.02745000 -0.01185000
v 0.06902082 0.02745000 -0.01347082
v 0.06325000 0.02745000 -0.01377532
v 0.06400000 0.02745000 -0.01357436
v 0.06454904 0.02745000 -0.01302532
v 0.06250000 0.02745000 -0.01357436
v 0.06195096 0.02745000 -0.01302532
v 0.06175000 0.02745000 -0.01227532
v 0.05847224 0.02745000 0.01190000
v 0.05870000 0.02745000 0.01105000
v 0.05847224 0.02745000 0.01020000
v 0.05785000 0.02745000 0.00957776
v 0.05700000 0.02745000 0.00935000
v 0.05357980 0.02745000 0.00794693
v 0.05615000 0.02745000 0.00957776
v 0.05552775 0.02745000 0.01020000
v 0.05530000 0.02745000 0.01105000
v 0.06195096 0.02745000 0.00862532
v 0.06175000 0.02745000 0.00937532
v 0.06195096 0.02745000 0.01012532
v 0.06250000 0.02745000 0.01067436
v 0.06550000 0.02745000 0.01327243
v 0.06543766 0.02745000 0.01181266
v 0.06325000 0.02745000 0.01087532
v 0.06400000 0.02745000 0.01067436
v 0.06454904 0.02745000 0.01012532
v 0.06475000 0.02745000 0.00937532
v -0.01207855 0.01301971 0.03555000
v -0.01116266 0.00937500 0.03555000
v -0.00259808 -0.01100000 0.03555000
v -0.00150000 -0.00990192 0.03555000
v -0.00541266 -0.00937500 0.03555000
v -0.00000000 -0.00950000 0.03555000
v 0.00150000 -0.00990192 0.03555000
v 0.00541266 -0.00937500 0.03555000
v 0.00259808 -0.01100000 0.03555000
v 0.00300000 -0.01250000 0.03555000
v 0.00000000 -0.01550000 0.03555000
v -0.00150000 -0.01509808 0.03555000
v -0.00587589 -0.02700000 0.03555000
v -0.00259808 -0.01400000 0.03555000
v -0.00300000 -0.01250000 0.03555000
v 0.00259808 -0.01400000 0.03555000
v 0.00849310 -0.02333500 0.03555000
v 0.00150000 -0.01509808 0.03555000
v 0.00393006 -0.02535213 0.03555000
v -0.00090417 -0.02658516 0.03555000
v -0.01116266 -0.00937500 0.03555000
v -0.00829723 -0.01570224 0.03555000
v -0.00801302 -0.01662858 0.03555000
v -0.00819760 -0.01757980 0.03555000
v -0.00716886 -0.02700000 0.03555000
v -0.01162200 -0.02492346 0.03555000
v -0.01082532 -0.00925000 0.03555000
v -0.01232532 -0.00884808 0.03555000
v -0.01342339 -0.00775000 0.03555000
v -0.01382532 -0.00625000 0.03555000
v -0.01342339 0.00475000 0.03555000
v -0.01382532 0.00625000 0.03555000
v -0.01750000 0.02200000 0.03555000
v -0.01750000 0.02085569 0.03555000
v -0.01116266 0.02200000 0.03555000
v -0.01246826 0.01485909 0.03555000
v -0.01204378 0.01398805 0.03555000
v 0.00541266 0.00937500 0.03555000
v 0.01116266 0.00937500 0.03555000
v 0.00632925 0.01697157 0.03555000
v 0.00541383 0.01897559 0.03555000
v 0.00541266 0.02200000 0.03555000
v 0.00544864 0.02117851 0.03555000
v 0.00572519 0.02200000 0.03555000
v 0.01232532 0.00884808 0.03555000
v 0.01342339 0.00775000 0.03555000
v 0.01977130 0.00288801 0.03555000
v 0.01116266 -0.00000000 0.03555000
v 0.02210699 0.00279008 0.03555000
v 0.03886364 -0.00000000 0.03555000
v 0.02423191 0.00376464 0.03555000
v 0.04138834 0.01800832 0.03555000
v 0.03989125 0.01606841 0.03555000
v 0.05079545 0.00937500 0.03555000
v 0.05015909 0.00887500 0.03555000
v 0.04178391 0.02042659 0.03555000
v 0.06686363 0.02200000 0.03555000
v 0.04138472 0.02200000 0.03555000
v 0.01232532 -0.00365192 0.03555000
v 0.01342339 -0.00475000 0.03555000
v 0.02756818 -0.00887500 0.03555000
v 0.01382532 -0.00625000 0.03555000
v 0.01265875 -0.02058955 0.03555000
v 0.01116266 -0.00937500 0.03555000
v 0.02693182 -0.00937500 0.03555000
v 0.00541266 -0.00887500 0.03555000
v 0.00572641 -0.00628157 0.03555000
v 0.00307055 -0.00792602 0.03555000
v -0.00572641 -0.00628157 0.03555000
v -0.00541266 -0.00887500 0.03555000
v -0.00307055 -0.00792602 0.03555000
v -0.00000000 -0.00850000 0.03555000
v 0.00817552 0.00232614 0.03555000
v 0.00846374 -0.00078428 0.03555000
v 0.01382532 0.00625000 0.03555000
v 0.01773542 0.00403703 0.03555000
v 0.01342339 0.00475000 0.03555000
v 0.01232532 0.00365192 0.03555000
v 0.01082532 0.00325000 0.03555000
v 0.00932532 0.00365192 0.03555000
v 0.00678315 0.00512239 0.03555000
v 0.00822724 0.00475000 0.03555000
v 0.00447467 0.00722685 0.03555000
v 0.00782532 0.00625000 0.03555000
v 0.00541266 0.00887500 0.03555000
v 0.00156187 0.00835527 0.03555000
v -0.00156187 0.00835527 0.03555000
v -0.00846374 -0.00078428 0.03555000
v -0.00817552 0.00232614 0.03555000
v -0.01116266 -0.00000000 0.03555000
v -0.01082532 0.00325000 0.03555000
v -0.01232532 0.00365192 0.03555000
v -0.01342339 -0.00475000 0.03555000
v -0.01232532 -0.00365192 0.03555000
v -0.01082532 -0.00325000 0.03555000
v -0.00932532 -0.00365192 0.03555000
v -0.00760889 -0.00378877 0.03555000
v -0.00822724 -0.00475000 0.03555000
v -0.00782532 -0.00625000 0.03555000
v 0.01082532 0.00925000 0.03555000
v 0.00932532 0.00884808 0.03555000
v 0.00822724 0.00775000 0.03555000
v 0.01342339 -0.00775000 0.03555000
v 0.01232532 -0.00884808 0.03555000
v 0.01082532 -0.00925000 0.03555000
v 0.00932532 -0.00884808 0.03555000
v 0.00822724 -0.00775000 0.03555000
v 0.00782532 -0.00625000 0.03555000
v 0.00760889 -0.00378877 0.03555000
v 0.00822724 -0.00475000 0.03555000
v 0.00932532 -0.00365192 0.03555000
v 0.01082532 -0.00325000 0.03555000
v -0.00822724 -0.00775000 0.03555000
v -0.00932532 -0.00884808 0.03555000
v -0.01342339 0.00775000 0.03555000
v -0.01232532 0.00884808 0.03555000
v -0.01082532 0.00925000 0.03555000
v -0.00541266 0.00937500 0.03555000
v -0.00932532 0.00884808 0.03555000
v -0.00541266 0.00887500 0.03555000
v -0.00822724 0.00775000 0.03555000
v -0.00447467 0.00722685 0.03555000
v -0.00782532 0.00625000 0.03555000
v -0.00678315 0.00512239 0.03555000
v -0.00822724 0.00475000 0.03555000
v -0.00932532 0.00365192 0.03555000
v -0.00000000 0.00950000 0.03555000
v -0.00150000 0.00990192 0.03555000
v -0.00259808 0.01100000 0.03555000
v -0.00300000 0.01250000 0.03555000
v -0.00541266 0.02200000 0.03555000
v -0.00000000 0.01550000 0.03555000
v -0.00150000 0.01509808 0.03555000
v -0.00259808 0.01400000 0.03555000
v 0.00259808 0.01100000 0.03555000
v 0.00150000 0.00990192 0.03555000
v 0.00150000 0.01509808 0.03555000
v 0.00259808 0.01400000 0.03555000
v 0.00300000 0.01250000 0.03555000
v -0.01750000 0.03260660 0.03115660
v -0.01750000 0.03327927 0.03043828
v -0.01750000 0.02349060 0.03043828
v -0.01750000 0.02950000 0.03354038
v -0.01750000 0.02185569 0.02855000
v -0.01750000 0.02085569 0.02855000
v -0.01750000 0.02588229 0.03503889
v 0.07450000 0.03260660 0.03115660
v 0.07450000 0.03188828 0.03182927
v 0.07450000 0.03188828 0.02204060
v 0.07450000 0.03499038 0.02805000
v 0.07450000 0.03000000 0.02040569
v 0.07450000 0.03000000 0.01940569
v 0.07450000 0.03648889 0.02443229
v 0.05252533 0.02545000 -0.00867685
v 0.05543813 0.02545000 -0.00980527
v 0.05700000 0.02545000 -0.00995000
v 0.05856187 0.02545000 -0.00980527
v 0.06147467 0.02545000 -0.00867685
v 0.06378315 0.02545000 -0.00657240
v 0.06517552 0.02545000 -0.00377614
v 0.06546374 0.02545000 -0.00066572
v 0.06460889 0.02545000 0.00233878
v 0.06272642 0.02545000 0.00483158
v 0.06007055 0.02545000 0.00647601
v 0.05700000 0.02545000 0.00705000
v 0.05392945 0.02545000 0.00647601
v 0.05127359 0.02545000 0.00483158
v 0.04939111 0.02545000 0.00233878
v 0.04853626 0.02545000 -0.00066572
v 0.04882448 0.02545000 -0.00377614
v 0.05021686 0.02545000 -0.00657240
v -0.00447467 0.00722685 0.02400000
v -0.00156187 0.00835527 0.02400000
v -0.00000000 0.00850000 0.02400000
v 0.00156187 0.00835527 0.02400000
v 0.00447467 0.00722685 0.02400000
v 0.00678315 0.00512239 0.02400000
v 0.00817552 0.00232614 0.02400000
v 0.00846374 -0.00078428 0.02400000
v 0.00760889 -0.00378877 0.02400000
v 0.00572641 -0.00628157 0.02400000
v 0.00307055 -0.00792602 0.02400000
v -0.00000000 -0.00850000 0.02400000
v -0.00307055 -0.00792602 0.02400000
v -0.00572641 -0.00628157 0.02400000
v -0.00760889 -0.00378877 0.02400000
v -0.00846374 -0.00078428 0.02400000
v -0.00817552 0.00232614 0.02400000
v -0.00678315 0.00512239 0.02400000
v 0.06917000 0.02381214 0.03544013
v 0.06885462 0.02356434 0.03042688
v 0.07144258 0.02559774 0.03511215
v 0.07079658 0.02509017 0.03006056
v 0.07144258 0.02559774 0.02988040
v 0.06175000 0.02545000 0.00677724
v 0.05864966 0.02545000 0.00790567
v 0.05535034 0.02545000 0.00790567
v 0.05225000 0.02545000 0.00677724
v 0.04972258 0.02545000 0.00465648
v 0.04807292 0.02545000 0.00179919
v 0.04750000 0.02545000 -0.00145000
v 0.04807292 0.02545000 -0.00469919
v 0.04972258 0.02545000 -0.00755648
v 0.05225000 0.02545000 -0.00967724
v 0.05535034 0.02545000 -0.01080567
v 0.05700000 0.02545000 -0.01095000
v 0.05864966 0.02545000 -0.01080567
v 0.06175000 0.02545000 -0.00967724
v 0.06427742 0.02545000 -0.00755648
v 0.06592708 0.02545000 -0.00469919
v 0.06650000 0.02545000 -0.00145000
v 0.06592708 0.02545000 0.00179919
v 0.06427742 0.02545000 0.00465648
v 0.05873648 0.02595000 -0.01129808
v 0.05700000 0.02595000 -0.01145000
v 0.05357980 0.02595000 0.00794693
v 0.05526351 0.02595000 0.00839808
v 0.04833975 0.02595000 0.00355000
v 0.04933956 0.02595000 0.00497788
v 0.05057212 0.02595000 0.00621045
v 0.05200000 0.02595000 0.00721025
v 0.04760307 0.02595000 -0.00487020
v 0.04715192 0.02595000 -0.00318648
v 0.04700000 0.02595000 -0.00145000
v 0.04715192 0.02595000 0.00028648
v 0.04760307 0.02595000 0.00197020
v 0.04833975 0.02595000 -0.00645000
v 0.04933956 0.02595000 -0.00787787
v 0.05057212 0.02595000 -0.00911044
v 0.05526351 0.02595000 -0.01129808
v 0.05357980 0.02595000 -0.01084693
v 0.05200000 0.02595000 -0.01011025
v 0.06042020 0.02595000 -0.01084693
v 0.06200000 0.02595000 -0.01011025
v 0.06342787 0.02595000 -0.00911044
v 0.06566025 0.02595000 -0.00645000
v 0.06466045 0.02595000 -0.00787787
v 0.06700000 0.02595000 -0.00145000
v 0.06684808 0.02595000 -0.00318648
v 0.06639693 0.02595000 -0.00487020
v 0.06639693 0.02595000 0.00197020
v 0.06684808 0.02595000 0.00028648
v 0.06466045 0.02595000 0.00497788
v 0.06566025 0.02595000 0.00355000
v 0.06200000 0.02595000 0.00721025
v 0.06342787 0.02595000 0.00621045
v 0.05700000 0.02595000 0.00855000
v 0.05873648 0.02595000 0.00839808
v 0.06042020 0.02595000 0.00794693
v 0.00475000 -0.00822724 0.02400000
v 0.00164966 -0.00935567 0.02400000
v -0.00164966 -0.00935567 0.02400000
v -0.00475000 -0.00822724 0.02400000
v -0.00727742 -0.00610648 0.02400000
v -0.00892708 -0.00324919 0.02400000
v -0.00950000 -0.00000000 0.02400000
v -0.00892708 0.00324919 0.02400000
v -0.00727742 0.00610648 0.02400000
v -0.00475000 0.00822724 0.02400000
v -0.00164966 0.00935567 0.02400000
v -0.00000000 0.00950000 0.02400000
v 0.00164966 0.00935567 0.02400000
v 0.00475000 0.00822724 0.02400000
v 0.00727742 0.00610648 0.02400000
v 0.00892708 0.00324919 0.02400000
v 0.00950000 -0.00000000 0.02400000
v 0.00892708 -0.00324919 0.02400000
v 0.00727742 -0.00610648 0.02400000
v -0.00939693 -0.00342020 0.02450000
v -0.00866025 -0.00500000 0.02450000
v -0.00342020 -0.00939693 0.02450000
v -0.00173648 -0.00984808 0.02450000
v -0.00766044 -0.00642787 0.02450000
v -0.00642787 -0.00766044 0.02450000
v -0.00500000 -0.00866025 0.02450000
v -0.00984808 -0.00173648 0.02450000
v -0.01000000 -0.00000000 0.02450000
v -0.00984808 0.00173648 0.02450000
v -0.00866025 0.00500000 0.02450000
v -0.00939693 0.00342020 0.02450000
v -0.00342020 0.00939693 0.02450000
v -0.00500000 0.00866025 0.02450000
v -0.00642787 0.00766045 0.02450000
v -0.00766044 0.00642788 0.02450000
v 0.00342020 0.00939693 0.02450000
v 0.00173648 0.00984808 0.02450000
v -0.00000000 0.01000000 0.02450000
v -0.00173648 0.00984808 0.02450000
v 0.00866025 0.00500000 0.02450000
v 0.00766044 0.00642788 0.02450000
v 0.00642788 0.00766045 0.02450000
v 0.00500000 0.00866025 0.02450000
v 0.01000000 -0.00000000 0.02450000
v 0.00984808 0.00173648 0.02450000
v 0.00939693 0.00342020 0.02450000
v 0.00939693 -0.00342020 0.02450000
v 0.00984808 -0.00173648 0.02450000
v 0.00766044 -0.00642787 0.02450000
v 0.00866025 -0.00500000 0.02450000
v 0.00500000 -0.00866025 0.02450000
v 0.00642788 -0.00766044 0.02450000
v -0.00000000 -0.01000000 0.02450000
v 0.00173648 -0.00984808 0.02450000
v 0.00342020 -0.00939693 0.02450000
v 0.06862200 0.03000000 -0.02637347
v 0.06416885 0.03000000 -0.02845000
v 0.06946826 0.03000000 0.01340909
v 0.06519759 0.03000000 -0.01902980
v -0.01162200 -0.02492346 0.02855000
v -0.00716886 -0.02700000 0.02855000
v -0.01246826 0.01485909 0.02855000
v -0.00819760 -0.01757980 0.02855000
v -0.01217000 0.03689013 0.02236214
v -0.01185462 0.03187688 0.02211434
v -0.01444257 0.03656215 0.02414774
v -0.01379658 0.03151056 0.02364017
v -0.01444257 0.03133040 0.02414774
v -0.01670284 0.03556281 0.02695703
v -0.01713519 0.03499038 0.02805000
v -0.01741601 0.03419632 0.02928211
v -0.01478470 0.03648889 0.02443229
v -0.01608812 0.03601351 0.02589992
v 0.05057309 0.03695565 0.02170261
v 0.04884130 0.03678773 0.02306459
v 0.04779983 0.03672175 0.02342578
v 0.04978276 0.03687526 0.02248048
v 0.04669223 0.03669694 0.02355000
v 0.02019785 0.03669694 0.02355000
v 0.01897321 0.03672720 0.02339770
v 0.01782215 0.03680683 0.02294955
v 0.01601704 0.03698162 0.02129241
v 0.01681563 0.03690535 0.02223247
v 0.07370284 0.02840703 0.03411281
v 0.07413519 0.02950000 0.03354038
v 0.07441601 0.03073211 0.03274633
v 0.07178470 0.02588229 0.03503889
v 0.07308811 0.02734992 0.03456351
v 0.00642691 0.02315261 0.03550565
v 0.00815870 0.02451459 0.03533773
v 0.00920017 0.02487578 0.03527175
v 0.00721723 0.02393048 0.03542526
v 0.01030776 0.02500000 0.03524694
v 0.03680215 0.02500000 0.03524694
v 0.03802680 0.02484770 0.03527721
v 0.03917785 0.02439955 0.03535683
v 0.04098296 0.02274241 0.03553162
v 0.04018436 0.02368247 0.03545534
v 0.07449108 0.03151056 0.02364017
v 0.07443992 0.03090966 0.02509070
v 0.07429531 0.03009017 0.02642785
v -0.01534942 0.03096483 0.02498079
v -0.01642217 0.03009017 0.02642785
v 0.07384511 0.02871819 0.02795716
v -0.01684510 0.02940715 0.02726819
v 0.07342217 0.02787785 0.02864017
v -0.01729531 0.02787785 0.02864017
v 0.07234942 0.02643079 0.02951483
v -0.01743992 0.02654070 0.02945966
v -0.01749108 0.02509017 0.03006056
v 0.03917785 0.02439955 0.03025784
v 0.03802810 0.02484738 0.03013606
v 0.04098296 0.02274241 0.03052241
v 0.04018363 0.02368314 0.03040733
v 0.03680215 0.02500000 0.03008939
v 0.01030776 0.02500000 0.03008939
v 0.00919882 0.02487547 0.03012767
v 0.00815870 0.02451459 0.03022868
v 0.00642691 0.02315261 0.03048335
v 0.00721738 0.02393059 0.03036187
v 0.01782215 0.03170784 0.02294955
v 0.01897190 0.03158606 0.02339738
v 0.01601704 0.03197241 0.02129241
v 0.01681637 0.03185733 0.02223314
v 0.02019785 0.03153939 0.02355000
v 0.04669223 0.03153939 0.02355000
v 0.04780118 0.03157767 0.02342547
v 0.04884130 0.03167868 0.02306459
v 0.05057309 0.03193335 0.02170261
v 0.04978261 0.03181187 0.02248059
v -0.00325258 -0.01860152 0.02855000
v -0.00208593 -0.01755395 0.02855000
v -0.00277620 -0.01795864 0.02855000
v -0.00829723 -0.01570224 0.02855000
v -0.00801302 -0.01662858 0.02855000
v -0.01181206 0.02185569 0.02855000
v -0.00786869 0.01715616 0.02855000
v -0.01207855 0.01301971 0.02855000
v -0.01204378 0.01398805 0.02855000
v -0.00647698 0.01644667 0.02855000
v -0.00724497 0.01665991 0.02855000
v 0.06025258 0.03000000 -0.02005152
v 0.05908593 0.03000000 -0.01900395
v 0.05977619 0.03000000 -0.01940864
v 0.06529723 0.03000000 -0.01715224
v 0.06501302 0.03000000 -0.01807858
v 0.06881206 0.03000000 0.02040569
v 0.06486869 0.03000000 0.01570616
v 0.06907855 0.03000000 0.01156971
v 0.06904378 0.03000000 0.01253805
v 0.06347698 0.03000000 0.01499667
v 0.06424497 0.03000000 0.01520992
v 0.00150000 0.00990192 0.03055000
v 0.00259808 0.01100000 0.03055000
v 0.00300000 0.01250000 0.03055000
v 0.00259808 0.01400000 0.03055000
v 0.00150000 0.01509808 0.03055000
v -0.00000000 0.01550000 0.03055000
v -0.00150000 0.01509808 0.03055000
v -0.00259808 0.01400000 0.03055000
v -0.00300000 0.01250000 0.03055000
v -0.00259808 0.01100000 0.03055000
v -0.00150000 0.00990192 0.03055000
v -0.00000000 0.00950000 0.03055000
v -0.00932532 0.00365192 0.03055000
v -0.00822724 0.00475000 0.03055000
v -0.00782532 0.00625000 0.03055000
v -0.00822724 0.00775000 0.03055000
v -0.00932532 0.00884808 0.03055000
v -0.01082532 0.00925000 0.03055000
v -0.01232532 0.00884808 0.03055000
v -0.01342339 0.00775000 0.03055000
v -0.01382532 0.00625000 0.03055000
v -0.01342339 0.00475000 0.03055000
v -0.01232532 0.00365192 0.03055000
v -0.01082532 0.00325000 0.03055000
v -0.01232532 -0.00884808 0.03055000
v -0.01082532 -0.00925000 0.03055000
v -0.00932532 -0.00884808 0.03055000
v -0.00822724 -0.00775000 0.03055000
v -0.00782532 -0.00625000 0.03055000
v -0.00822724 -0.00475000 0.03055000
v -0.00932532 -0.00365192 0.03055000
v -0.01082532 -0.00325000 0.03055000
v -0.01232532 -0.00365192 0.03055000
v -0.01342339 -0.00475000 0.03055000
v -0.01382532 -0.00625000 0.03055000
v -0.01342339 -0.00775000 0.03055000
v 0.00259808 -0.01400000 0.03055000
v 0.00300000 -0.01250000 0.03055000
v 0.00259808 -0.01100000 0.03055000
v 0.00150000 -0.00990192 0.03055000
v -0.00000000 -0.00950000 0.03055000
v -0.00150000 -0.00990192 0.03055000
v -0.00259808 -0.01100000 0.03055000
v -0.00300000 -0.01250000 0.03055000
v -0.00259808 -0.01400000 0.03055000
v -0.00150000 -0.01509808 0.03055000
v 0.00000000 -0.01550000 0.03055000
v 0.00150000 -0.01509808 0.03055000
v 0.00932532 -0.00884808 0.03055000
v 0.01082532 -0.00925000 0.03055000
v 0.01232532 -0.00884808 0.03055000
v 0.01342339 -0.00775000 0.03055000
v 0.01382532 -0.00625000 0.03055000
v 0.01342339 -0.00475000 0.03055000
v 0.01232532 -0.00365192 0.03055000
v 0.01082532 -0.00325000 0.03055000
v 0.00932532 -0.00365192 0.03055000
v 0.00822724 -0.00475000 0.03055000
v 0.00782532 -0.00625000 0.03055000
v 0.00822724 -0.00775000 0.03055000
v 0.01082532 0.00925000 0.03055000
v 0.00932532 0.00884808 0.03055000
v 0.00822724 0.00775000 0.03055000
v 0.00782532 0.00625000 0.03055000
v 0.00822724 0.00475000 0.03055000
v 0.00932532 0.00365192 0.03055000
v 0.01082532 0.00325000 0.03055000
v 0.01232532 0.00365192 0.03055000
v 0.01342339 0.00475000 0.03055000
v 0.01382532 0.00625000 0.03055000
v 0.01342339 0.00775000 0.03055000
v 0.01232532 0.00884808 0.03055000
v 0.05870000 0.03200000 0.01105000
v 0.05847224 0.03200000 0.01020000
v 0.05785000 0.03200000 0.00957776
v 0.05700000 0.03200000 0.00935000
v 0.05615000 0.03200000 0.00957776
v 0.05552775 0.03200000 0.01020000
v 0.05530000 0.03200000 0.01105000
v 0.05552775 0.03200000 0.01190000
v 0.05615000 0.03200000 0.01252224
v 0.05700000 0.03200000 0.01275000
v 0.05785000 0.03200000 0.01252224
v 0.05847224 0.03200000 0.01190000
v 0.05440192 0.03200000 0.01255000
v 0.05550000 0.03200000 0.01364808
v 0.05700000 0.03200000 0.01405000
v 0.05850000 0.03200000 0.01364808
v 0.05959808 0.03200000 0.01255000
v 0.06000000 0.03200000 0.01105000
v 0.05959808 0.03200000 0.00955000
v 0.05850000 0.03200000 0.00845192
v 0.05700000 0.03200000 0.00805000
v 0.05550000 0.03200000 0.00845192
v 0.05440192 0.03200000 0.00955000
v 0.05400000 0.03200000 0.01105000
v 0.06952532 0.03200000 0.00480000
v 0.06929756 0.03200000 0.00395000
v 0.06867532 0.03200000 0.00332776
v 0.06782532 0.03200000 0.00310000
v 0.06697532 0.03200000 0.00332776
v 0.06635307 0.03200000 0.00395000
v 0.06612532 0.03200000 0.00480000
v 0.06635307 0.03200000 0.00565000
v 0.06697532 0.03200000 0.00627224
v 0.06782532 0.03200000 0.00650000
v 0.06867532 0.03200000 0.00627224
v 0.06929756 0.03200000 0.00565000
v 0.07082531 0.03200000 0.00480000
v 0.07042340 0.03200000 0.00330000
v 0.06932532 0.03200000 0.00220192
v 0.06782532 0.03200000 0.00180000
v 0.06632532 0.03200000 0.00220192
v 0.06522724 0.03200000 0.00330000
v 0.06482532 0.03200000 0.00480000
v 0.06522724 0.03200000 0.00630000
v 0.06632532 0.03200000 0.00739808
v 0.06782532 0.03200000 0.00780000
v 0.06932532 0.03200000 0.00739808
v 0.07042340 0.03200000 0.00630000
v 0.06952532 0.03200000 -0.00770000
v 0.06929756 0.03200000 -0.00855000
v 0.06867532 0.03200000 -0.00917224
v 0.06782532 0.03200000 -0.00940000
v 0.06697532 0.03200000 -0.00917224
v 0.06635307 0.03200000 -0.00855000
v 0.06612532 0.03200000 -0.00770000
v 0.06635307 0.03200000 -0.00685000
v 0.06697532 0.03200000 -0.00622776
v 0.06782532 0.03200000 -0.00600000
v 0.06867532 0.03200000 -0.00622776
v 0.06929756 0.03200000 -0.00685000
v 0.07082531 0.03200000 -0.00770000
v 0.07042340 0.03200000 -0.00920000
v 0.06932532 0.03200000 -0.01029808
v 0.06782532 0.03200000 -0.01070000
v 0.06632532 0.03200000 -0.01029808
v 0.06522724 0.03200000 -0.00920000
v 0.06482532 0.03200000 -0.00770000
v 0.06522724 0.03200000 -0.00620000
v 0.06632532 0.03200000 -0.00510192
v 0.06782532 0.03200000 -0.00470000
v 0.06932532 0.03200000 -0.00510192
v 0.07042340 0.03200000 -0.00620000
v 0.05870000 0.03200000 -0.01395000
v 0.05847224 0.03200000 -0.01480000
v 0.05785000 0.03200000 -0.01542224
v 0.05700000 0.03200000 -0.01565000
v 0.05615000 0.03200000 -0.01542224
v 0.05552775 0.03200000 -0.01480000
v 0.05530000 0.03200000 -0.01395000
v 0.05552775 0.03200000 -0.01310000
v 0.05615000 0.03200000 -0.01247776
v 0.05700000 0.03200000 -0.01225000
v 0.05785000 0.03200000 -0.01247776
v 0.05847224 0.03200000 -0.01310000
v 0.06000000 0.03200000 -0.01395000
v 0.05959808 0.03200000 -0.01545000
v 0.05850000 0.03200000 -0.01654808
v 0.05700000 0.03200000 -0.01695000
v 0.05550000 0.03200000 -0.01654808
v 0.05440192 0.03200000 -0.01545000
v 0.05400000 0.03200000 -0.01395000
v 0.05440192 0.03200000 -0.01245000
v 0.05550000 0.03200000 -0.01135192
v 0.05700000 0.03200000 -0.01095000
v 0.05850000 0.03200000 -0.01135192
v 0.05959808 0.03200000 -0.01245000
v 0.04787468 0.03200000 -0.00770000
v 0.04764692 0.03200000 -0.00855000
v 0.04702468 0.03200000 -0.00917224
v 0.04617468 0.03200000 -0.00940000
v 0.04532468 0.03200000 -0.00917224
v 0.04470244 0.03200000 -0.00855000
v 0.04447468 0.03200000 -0.00770000
v 0.04470244 0.03200000 -0.00685000
v 0.04532468 0.03200000 -0.00622776
v 0.04617468 0.03200000 -0.00600000
v 0.04702468 0.03200000 -0.00622776
v 0.04764692 0.03200000 -0.00685000
v 0.04917468 0.03200000 -0.00770000
v 0.04877276 0.03200000 -0.00920000
v 0.04767468 0.03200000 -0.01029808
v 0.04617468 0.03200000 -0.01070000
v 0.04467468 0.03200000 -0.01029808
v 0.04357661 0.03200000 -0.00920000
v 0.04317468 0.03200000 -0.00770000
v 0.04357661 0.03200000 -0.00620000
v 0.04467468 0.03200000 -0.00510192
v 0.04617468 0.03200000 -0.00470000
v 0.04767468 0.03200000 -0.00510192
v 0.04877276 0.03200000 -0.00620000
v 0.04787468 0.03200000 0.00480000
v 0.04764692 0.03200000 0.00395000
v 0.04702468 0.03200000 0.00332776
v 0.04617468 0.03200000 0.00310000
v 0.04532468 0.03200000 0.00332776
v 0.04470244 0.03200000 0.00395000
v 0.04447468 0.03200000 0.00480000
v 0.04470244 0.03200000 0.00565000
v 0.04532468 0.03200000 0.00627224
v 0.04617468 0.03200000 0.00650000
v 0.04702468 0.03200000 0.00627224
v 0.04764692 0.03200000 0.00565000
v 0.04917468 0.03200000 0.00480000
v 0.04877276 0.03200000 0.00330000
v 0.04767468 0.03200000 0.00220192
v 0.04617468 0.03200000 0.00180000
v 0.04467468 0.03200000 0.00220192
v 0.04357661 0.03200000 0.00330000
v 0.04317468 0.03200000 0.00480000
v 0.04357661 0.03200000 0.00630000
v 0.04467468 0.03200000 0.00739808
v 0.04617468 0.03200000 0.00780000
v 0.04767468 0.03200000 0.00739808
v 0.04877276 0.03200000 0.00630000
v 0.04450000 0.03145000 -0.00295000
v 0.04525000 0.03145000 -0.00274904
v 0.04579904 0.03145000 -0.00220000
v 0.04600000 0.03145000 -0.00145000
v 0.04579904 0.03145000 -0.00070000
v 0.04525000 0.03145000 -0.00015096
v 0.04450000 0.03145000 0.00005000
v 0.04375000 0.03145000 -0.00015096
v 0.04320096 0.03145000 -0.00070000
v 0.04300000 0.03145000 -0.00145000
v 0.04320096 0.03145000 -0.00220000
v 0.04375000 0.03145000 -0.00274904
v 0.04450000 0.03145000 -0.00145000
v 0.06175000 0.03145000 -0.01227532
v 0.06195096 0.03145000 -0.01302532
v 0.06250000 0.03145000 -0.01357436
v 0.06325000 0.03145000 -0.01377532
v 0.06400000 0.03145000 -0.01357436
v 0.06454904 0.03145000 -0.01302532
v 0.06475000 0.03145000 -0.01227532
v 0.06454904 0.03145000 -0.01152532
v 0.06400000 0.03145000 -0.01097628
v 0.06325000 0.03145000 -0.01077532
v 0.06250000 0.03145000 -0.01097628
v 0.06195096 0.03145000 -0.01152532
v 0.06325000 0.03145000 -0.01227532
v 0.06175000 0.03145000 0.00937532
v 0.06195096 0.03145000 0.00862532
v 0.06250000 0.03145000 0.00807628
v 0.06325000 0.03145000 0.00787532
v 0.06400000 0.03145000 0.00807628
v 0.06454904 0.03145000 0.00862532
v 0.06475000 0.03145000 0.00937532
v 0.06454904 0.03145000 0.01012532
v 0.06400000 0.03145000 0.01067436
v 0.06325000 0.03145000 0.01087532
v 0.06250000 0.03145000 0.01067436
v 0.06195096 0.03145000 0.01012532
v 0.06325000 0.03145000 0.00937532
v -0.01250000 0.00150000 0.03000000
v -0.01175000 0.00129904 0.03000000
v -0.01120096 0.00075000 0.03000000
v -0.01100000 -0.00000000 0.03000000
v -0.01120096 -0.00075000 0.03000000
v -0.01175000 -0.00129904 0.03000000
v -0.01250000 -0.00150000 0.03000000
v -0.01325000 -0.00129904 0.03000000
v -0.01379904 -0.00075000 0.03000000
v -0.01400000 -0.00000000 0.03000000
v -0.01379904 0.00075000 0.03000000
v -0.01325000 0.00129904 0.03000000
v -0.01250000 -0.00000000 0.03000000
v 0.00475000 0.01082532 0.03000000
v 0.00495096 0.01157532 0.03000000
v 0.00550000 0.01212436 0.03000000
v 0.00625000 0.01232532 0.03000000
v 0.00700000 0.01212436 0.03000000
v 0.00754904 0.01157532 0.03000000
v 0.00775000 0.01082532 0.03000000
v 0.00754904 0.01007532 0.03000000
v 0.00700000 0.00952628 0.03000000
v 0.00625000 0.00932532 0.03000000
v 0.00550000 0.00952628 0.03000000
v 0.00495096 0.01007532 0.03000000
v 0.00625000 0.01082532 0.03000000
v 0.00475000 -0.01082532 0.03000000
v 0.00495096 -0.01007532 0.03000000
v 0.00550000 -0.00952628 0.03000000
v 0.00625000 -0.00932532 0.03000000
v 0.00700000 -0.00952628 0.03000000
v 0.00754904 -0.01007532 0.03000000
v 0.00775000 -0.01082532 0.03000000
v 0.00754904 -0.01157532 0.03000000
v 0.00700000 -0.01212436 0.03000000
v 0.00625000 -0.01232532 0.03000000
v 0.00550000 -0.01212436 0.03000000
v 0.00495096 -0.01157532 0.03000000
v 0.00625000 -0.01082532 0.03000000
f 1 2 3
f 4 5 6
f 7 8 9
f 10 11 12
f 13 14 15
f 16 17 18
f 19 20 21
f 21 20 22
f 21 22 18
f 18 22 23
f 18 23 16
f 17 24 25
f 25 24 26
f 25 26 27
f 27 26 28
f 27 28 29
f 29 28 30
f 28 31 30
f 30 31 32
f 30 32 21
f 21 32 33
f 21 33 19
f 34 35 36
f 36 35 30
f 36 30 37
f 37 30 21
f 37 21 38
f 14 13 21
f 21 13 39
f 21 39 38
f 40 41 42
f 42 41 43
f 43 41 44
f 43 44 45
f 45 44 15
f 45 15 46
f 6 5 40
f 5 47 40
f 40 47 48
f 40 48 49
f 49 48 50
f 49 50 51
f 52 53 54
f 54 53 55
f 54 55 51
f 56 57 58
f 58 57 59
f 60 61 62
f 8 7 60
f 60 7 63
f 60 63 61
f 10 12 62
f 64 65 66
f 66 65 67
f 66 67 68
f 69 70 71
f 71 70 68
f 71 68 72
f 72 68 67
f 69 71 73
f 73 71 74
f 73 74 75
f 17 25 18
f 18 25 76
f 18 76 77
f 77 76 78
f 77 78 79
f 80 81 82
f 82 81 83
f 82 83 84
f 84 83 85
f 84 85 86
f 82 87 88
f 82 88 80
f 80 88 89
f 80 89 90
f 90 89 91
f 90 91 92
f 91 4 92
f 92 4 6
f 92 6 93
f 94 3 95
f 95 3 2
f 95 2 96
f 96 2 97
f 96 97 98
f 98 97 93
f 98 93 99
f 99 93 6
f 99 6 100
f 100 6 40
f 100 40 101
f 101 40 42
f 1 3 102
f 102 3 103
f 102 103 104
f 65 105 106
f 107 79 108
f 108 79 67
f 108 67 109
f 109 67 65
f 109 65 110
f 110 65 106
f 110 106 111
f 111 106 112
f 112 106 113
f 112 113 114
f 114 113 104
f 114 104 115
f 115 104 103
f 115 103 116
f 117 84 118
f 118 84 86
f 118 86 119
f 119 86 120
f 119 120 121
f 121 120 105
f 121 105 122
f 122 105 65
f 122 65 123
f 123 65 64
f 123 64 124
f 124 64 125
f 124 125 126
f 126 125 127
f 126 127 128
f 128 127 129
f 128 129 130
f 50 131 51
f 51 131 132
f 51 132 54
f 54 132 133
f 54 133 134
f 15 14 46
f 46 14 21
f 46 21 135
f 107 136 79
f 79 136 137
f 79 137 77
f 77 137 138
f 77 138 18
f 129 9 130
f 130 9 8
f 130 8 139
f 139 8 60
f 139 60 140
f 60 141 142
f 62 12 60
f 60 12 143
f 60 143 141
f 142 144 60
f 60 144 145
f 60 145 134
f 134 145 146
f 134 146 147
f 148 149 150
f 149 151 150
f 150 151 152
f 150 152 12
f 12 152 153
f 12 153 143
f 59 52 58
f 58 52 54
f 58 54 150
f 150 54 134
f 150 134 148
f 148 134 147
f 133 87 134
f 134 87 82
f 134 82 60
f 60 82 84
f 60 84 140
f 140 84 117
f 94 135 3
f 3 135 21
f 3 21 103
f 103 21 18
f 103 18 116
f 116 18 138
f 154 155 156
f 156 155 157
f 156 157 158
f 158 157 159
f 158 159 160
f 160 159 161
f 160 161 162
f 162 161 163
f 162 163 164
f 164 163 165
f 164 165 166
f 166 165 167
f 166 167 168
f 168 167 169
f 168 169 170
f 170 169 171
f 170 171 172
f 172 171 173
f 172 173 174
f 174 173 175
f 174 175 176
f 176 175 177
f 176 177 154
f 154 177 155
f 178 179 180
f 180 179 181
f 180 181 182
f 182 181 183
f 182 183 184
f 184 183 185
f 184 185 186
f 186 185 187
f 186 187 188
f 188 187 189
f 188 189 190
f 190 189 191
f 190 191 192
f 192 191 193
f 192 193 194
f 194 193 195
f 194 195 196
f 196 195 197
f 196 197 198
f 198 197 199
f 198 199 200
f 200 199 201
f 200 201 178
f 178 201 179
f 202 203 204
f 204 203 205
f 204 205 206
f 206 205 207
f 206 207 208
f 208 207 209
f 208 209 210
f 210 209 211
f 210 211 212
f 212 211 213
f 212 213 214
f 214 213 215
f 214 215 216
f 216 215 217
f 216 217 218
f 218 217 219
f 218 219 220
f 220 219 221
f 220 221 222
f 222 221 223
f 222 223 224
f 224 223 225
f 224 225 202
f 202 225 203
f 226 227 228
f 228 227 229
f 228 229 230
f 230 229 231
f 230 231 232
f 232 231 233
f 232 233 234
f 234 233 235
f 234 235 236
f 236 235 237
f 236 237 238
f 238 237 239
f 238 239 240
f 240 239 241
f 240 241 242
f 242 241 243
f 242 243 244
f 244 243 245
f 244 245 246
f 246 245 247
f 246 247 248
f 248 247 249
f 248 249 226
f 226 249 227
f 250 251 252
f 252 251 253
f 252 253 254
f 254 253 255
f 254 255 256
f 256 255 257
f 256 257 258
f 258 257 259
f 258 259 260
f 260 259 261
f 260 261 262
f 262 261 263
f 262 263 264
f 264 263 265
f 264 265 266
f 266 265 267
f 266 267 268
f 268 267 269
f 268 269 270
f 270 269 271
f 270 271 272
f 272 271 273
f 272 273 250
f 250 273 251
f 274 275 276
f 276 275 277
f 276 277 278
f 278 277 279
f 278 279 280
f 280 279 281
f 280 281 282
f 282 281 283
f 282 283 284
f 284 283 285
f 284 285 286
f 286 285 287
f 286 287 288
f 288 287 289
f 288 289 290
f 290 289 291
f 290 291 292
f 292 291 293
f 292 293 294
f 294 293 295
f 294 295 296
f 296 295 297
f 296 297 274
f 274 297 275
f 298 39 13
f 299 300 301
f 301 300 302
f 301 302 303
f 304 305 303
f 303 305 306
f 303 306 301
f 307 298 308
f 308 309 307
f 307 309 310
f 307 310 311
f 311 310 312
f 312 310 313
f 312 313 314
f 314 313 315
f 315 313 316
f 315 316 317
f 317 316 318
f 317 318 319
f 319 318 320
f 319 320 321
f 321 320 322
f 321 322 323
f 323 322 324
f 323 324 325
f 325 324 326
f 325 326 327
f 327 326 328
f 327 328 329
f 329 328 330
f 330 328 331
f 330 331 127
f 332 333 334
f 334 335 332
f 332 335 336
f 332 336 337
f 337 336 300
f 337 300 338
f 338 300 299
f 338 299 339
f 127 331 129
f 129 331 340
f 129 340 9
f 9 340 334
f 9 334 7
f 7 334 333
f 7 333 63
f 298 13 308
f 308 13 15
f 308 15 341
f 15 44 341
f 341 44 41
f 341 41 342
f 342 41 40
f 342 40 343
f 343 40 49
f 343 49 344
f 344 49 51
f 344 51 304
f 304 51 55
f 304 55 305
f 345 346 347
f 347 348 345
f 345 348 349
f 345 349 350
f 339 351 352
f 333 332 353
f 353 332 337
f 353 337 350
f 350 337 338
f 350 338 345
f 345 338 339
f 345 339 354
f 354 339 352
f 355 356 357
f 357 356 358
f 359 360 361
f 361 360 362
f 361 362 356
f 356 362 363
f 356 363 358
f 364 365 366
f 317 319 361
f 361 319 321
f 321 323 361
f 361 323 325
f 361 325 359
f 359 325 327
f 359 327 367
f 367 327 329
f 367 329 330
f 361 368 317
f 317 368 369
f 317 369 315
f 315 369 370
f 315 370 314
f 314 370 371
f 364 366 370
f 370 366 372
f 370 372 371
f 373 374 375
f 376 377 378
f 378 377 379
f 378 379 380
f 381 382 380
f 380 382 383
f 380 383 378
f 384 373 385
f 385 386 384
f 384 386 387
f 384 387 388
f 388 387 389
f 389 387 390
f 389 390 391
f 391 390 392
f 392 390 393
f 392 393 394
f 394 393 395
f 394 395 396
f 396 395 397
f 396 397 398
f 398 397 399
f 398 399 400
f 400 399 401
f 400 401 402
f 402 401 403
f 402 403 404
f 404 403 405
f 404 405 406
f 406 405 407
f 407 405 408
f 407 408 409
f 410 411 412
f 412 413 410
f 410 413 414
f 410 414 415
f 415 414 377
f 415 377 416
f 416 377 376
f 416 376 417
f 373 375 385
f 385 375 418
f 385 418 419
f 418 420 419
f 419 420 421
f 419 421 422
f 422 421 423
f 422 423 424
f 424 423 425
f 424 425 426
f 426 425 427
f 426 427 381
f 381 427 428
f 381 428 382
f 409 408 429
f 429 408 430
f 429 430 431
f 431 430 412
f 431 412 432
f 432 412 411
f 432 411 433
f 434 435 436
f 436 437 434
f 434 437 438
f 434 438 439
f 417 440 441
f 411 410 442
f 442 410 415
f 442 415 439
f 439 415 416
f 439 416 434
f 434 416 417
f 434 417 443
f 443 417 441
f 444 445 446
f 446 445 447
f 396 398 448
f 449 450 448
f 448 450 451
f 448 451 445
f 445 451 452
f 445 452 447
f 396 448 394
f 398 400 448
f 448 400 402
f 448 402 449
f 449 402 404
f 449 404 453
f 453 404 406
f 453 406 407
f 454 455 456
f 456 455 457
f 456 457 458
f 448 459 394
f 394 459 460
f 394 460 392
f 392 460 455
f 392 455 391
f 391 455 454
f 391 454 461
f 462 463 464
f 465 466 467
f 468 469 470
f 471 472 473
f 474 475 476
f 476 475 477
f 476 477 468
f 468 477 478
f 468 478 469
f 469 164 166
f 479 480 481
f 481 480 482
f 465 190 466
f 466 190 192
f 466 192 194
f 483 484 466
f 466 484 485
f 466 485 467
f 485 486 467
f 467 486 487
f 467 487 488
f 488 487 489
f 488 489 490
f 490 489 491
f 242 244 492
f 492 244 463
f 492 463 491
f 491 463 462
f 491 462 490
f 266 268 493
f 493 268 270
f 250 494 272
f 272 494 495
f 272 495 270
f 270 495 496
f 270 496 493
f 493 496 497
f 493 497 498
f 252 254 499
f 250 252 494
f 494 252 499
f 494 499 500
f 500 499 501
f 500 501 502
f 503 504 290
f 292 294 501
f 501 294 296
f 274 276 474
f 476 502 474
f 474 502 501
f 474 501 274
f 274 501 296
f 276 278 474
f 474 278 280
f 474 280 505
f 280 282 505
f 505 282 284
f 505 284 506
f 506 284 286
f 506 286 504
f 504 286 288
f 504 288 290
f 256 507 508
f 508 507 509
f 508 509 510
f 510 509 511
f 510 511 503
f 256 258 507
f 507 258 260
f 507 260 512
f 512 260 262
f 512 262 264
f 513 514 493
f 493 514 512
f 493 512 266
f 266 512 264
f 514 515 512
f 512 515 516
f 512 516 517
f 517 516 518
f 517 518 519
f 518 520 519
f 519 520 521
f 519 521 498
f 498 521 522
f 498 522 523
f 523 524 498
f 498 524 525
f 498 525 493
f 493 525 526
f 493 526 513
f 244 246 463
f 463 246 248
f 463 248 464
f 464 248 226
f 464 226 527
f 527 226 228
f 527 228 497
f 497 228 230
f 497 230 498
f 498 230 232
f 498 232 519
f 519 232 234
f 240 528 238
f 238 528 519
f 238 519 236
f 236 519 234
f 529 530 531
f 531 530 528
f 532 533 534
f 534 533 535
f 196 536 537
f 537 536 538
f 537 538 539
f 539 538 540
f 539 540 541
f 196 198 536
f 536 198 200
f 536 200 542
f 542 200 178
f 180 182 480
f 480 182 184
f 480 184 482
f 482 184 186
f 482 186 465
f 465 186 188
f 465 188 190
f 469 166 470
f 470 166 168
f 470 168 481
f 481 168 170
f 481 170 479
f 479 170 172
f 479 172 174
f 178 180 542
f 542 180 480
f 542 480 543
f 543 480 479
f 543 479 544
f 544 479 174
f 174 176 544
f 544 176 154
f 544 154 545
f 154 156 545
f 545 156 158
f 545 158 546
f 546 158 160
f 546 160 469
f 469 160 162
f 469 162 164
f 472 547 473
f 473 547 548
f 473 548 549
f 549 548 550
f 551 505 552
f 552 505 548
f 552 548 553
f 553 548 547
f 551 554 505
f 505 554 555
f 505 555 474
f 474 555 556
f 474 556 475
f 557 491 218
f 210 489 208
f 208 489 532
f 210 212 489
f 489 212 214
f 489 214 491
f 491 214 216
f 491 216 218
f 218 220 557
f 557 220 222
f 557 222 558
f 558 222 224
f 558 224 559
f 559 224 202
f 559 202 534
f 534 202 204
f 534 204 532
f 532 204 206
f 532 206 208
f 533 560 483
f 483 560 561
f 483 561 484
f 487 562 489
f 489 562 563
f 489 563 532
f 532 563 564
f 564 565 532
f 532 565 566
f 532 566 533
f 533 566 567
f 533 567 560
f 550 545 549
f 549 545 546
f 549 546 473
f 473 546 469
f 473 469 471
f 471 469 478
f 535 533 541
f 541 533 483
f 541 483 539
f 539 483 466
f 539 466 537
f 537 466 194
f 537 194 196
f 290 292 503
f 503 292 501
f 503 501 510
f 510 501 499
f 510 499 508
f 508 499 254
f 508 254 256
f 240 242 528
f 528 242 492
f 528 492 531
f 531 492 491
f 531 491 529
f 529 491 557
f 529 557 568
f 568 557 558
f 569 570 571
f 572 573 574
f 575 576 577
f 578 579 580
f 580 579 581
f 580 581 572
f 572 581 582
f 572 582 573
f 583 573 584
f 584 573 585
f 583 586 573
f 573 586 587
f 573 587 574
f 574 587 588
f 574 588 589
f 589 588 590
f 569 571 590
f 590 571 589
f 589 571 591
f 589 591 592
f 593 594 591
f 591 594 595
f 591 595 592
f 592 595 596
f 592 596 597
f 597 596 598
f 599 600 601
f 601 600 602
f 603 604 601
f 601 604 605
f 598 599 597
f 597 599 601
f 597 601 606
f 606 601 605
f 605 607 606
f 606 607 608
f 606 608 609
f 609 608 610
f 609 610 611
f 612 613 614
f 614 613 615
f 616 617 618
f 619 620 621
f 621 620 622
f 621 622 615
f 615 622 623
f 615 623 614
f 614 623 624
f 614 624 625
f 619 617 620
f 620 617 616
f 620 616 626
f 626 616 627
f 626 627 628
f 629 630 631
f 632 633 627
f 627 633 634
f 635 636 578
f 580 628 578
f 578 628 627
f 578 627 635
f 635 627 634
f 636 637 578
f 578 637 638
f 578 638 639
f 638 640 639
f 639 640 641
f 639 641 642
f 642 641 643
f 642 643 630
f 630 643 644
f 630 644 631
f 645 646 647
f 647 646 648
f 647 648 649
f 649 648 650
f 649 650 629
f 645 651 646
f 646 651 652
f 646 652 653
f 653 652 654
f 653 654 655
f 656 657 625
f 625 657 658
f 625 658 659
f 659 660 625
f 625 660 661
f 625 661 614
f 614 661 662
f 614 662 663
f 663 664 614
f 614 664 653
f 614 653 612
f 612 653 655
f 664 665 653
f 653 665 666
f 653 666 667
f 667 666 668
f 667 668 656
f 656 668 669
f 656 669 657
f 670 671 672
f 672 671 673
f 672 673 674
f 674 673 675
f 674 675 624
f 624 675 676
f 624 676 625
f 625 676 677
f 625 677 656
f 656 677 678
f 678 679 656
f 656 679 680
f 656 680 681
f 680 682 681
f 681 682 683
f 681 683 684
f 684 683 685
f 684 685 670
f 670 685 686
f 670 686 671
f 687 688 689
f 689 688 690
f 689 690 691
f 691 690 692
f 691 692 693
f 692 694 693
f 693 694 695
f 693 695 696
f 696 695 697
f 696 697 698
f 698 697 699
f 698 699 700
f 701 702 703
f 702 701 704
f 704 701 705
f 704 705 706
f 707 708 709
f 709 708 706
f 709 706 710
f 710 706 705
f 710 705 711
f 707 593 708
f 708 593 591
f 708 591 712
f 712 591 571
f 712 571 713
f 713 571 570
f 570 714 713
f 713 714 715
f 713 715 716
f 716 715 717
f 716 717 585
f 585 717 718
f 585 718 584
f 576 719 577
f 577 719 720
f 577 720 721
f 721 720 722
f 723 639 724
f 724 639 720
f 724 720 725
f 725 720 719
f 723 726 639
f 639 726 727
f 639 727 578
f 578 727 728
f 578 728 579
f 699 729 700
f 700 729 730
f 700 730 610
f 610 730 731
f 610 731 732
f 732 733 610
f 610 733 690
f 610 690 611
f 611 690 734
f 733 735 690
f 690 735 736
f 690 736 692
f 692 736 737
f 692 737 694
f 608 738 610
f 610 738 739
f 610 739 700
f 700 739 740
f 700 740 741
f 742 698 743
f 743 698 700
f 743 700 744
f 744 700 741
f 744 745 743
f 743 745 746
f 743 746 603
f 603 746 747
f 603 747 604
f 722 716 721
f 721 716 585
f 721 585 577
f 577 585 573
f 577 573 575
f 575 573 582
f 742 743 703
f 703 743 603
f 703 603 701
f 701 603 601
f 701 601 705
f 705 601 602
f 705 602 711
f 631 632 629
f 629 632 627
f 629 627 649
f 649 627 616
f 649 616 647
f 647 616 618
f 647 618 645
f 672 734 670
f 670 734 690
f 670 690 684
f 684 690 688
f 684 688 681
f 681 688 687
f 365 364 35
f 35 364 30
f 748 428 749
f 749 428 427
f 750 751 752
f 753 754 755
f 755 754 756
f 755 756 757
f 758 759 760
f 760 759 761
f 760 761 752
f 752 761 762
f 752 762 750
f 757 763 764
f 764 763 765
f 764 765 766
f 766 765 758
f 766 758 767
f 767 758 760
f 768 375 752
f 752 375 374
f 374 769 752
f 752 769 770
f 752 770 760
f 760 770 771
f 760 771 772
f 772 771 773
f 774 775 418
f 418 775 420
f 420 775 776
f 420 776 421
f 421 776 777
f 421 777 423
f 423 778 425
f 425 778 779
f 425 779 427
f 780 781 782
f 782 781 783
f 782 783 784
f 433 785 432
f 432 785 786
f 432 786 431
f 433 787 785
f 785 787 788
f 785 788 789
f 789 788 790
f 789 790 791
f 429 792 793
f 794 795 796
f 796 795 797
f 796 797 798
f 799 800 801
f 801 800 798
f 801 798 802
f 802 798 797
f 799 801 803
f 803 801 804
f 803 804 805
f 795 806 797
f 797 806 807
f 797 807 808
f 808 807 809
f 757 764 755
f 755 764 810
f 755 810 811
f 811 810 812
f 811 812 808
f 813 814 815
f 816 817 818
f 818 817 819
f 820 821 795
f 429 793 409
f 409 793 822
f 409 822 823
f 823 822 824
f 823 824 794
f 794 824 825
f 794 825 795
f 795 825 826
f 795 826 820
f 820 826 827
f 820 827 828
f 828 827 829
f 828 829 830
f 829 831 830
f 830 831 832
f 830 832 833
f 833 832 834
f 835 836 837
f 837 836 838
f 837 838 423
f 423 838 839
f 423 839 778
f 777 840 423
f 423 840 841
f 423 841 837
f 837 841 842
f 837 842 835
f 835 842 843
f 835 843 844
f 844 843 845
f 844 845 816
f 816 845 846
f 816 846 817
f 429 431 792
f 792 431 786
f 792 786 847
f 847 786 785
f 847 785 848
f 848 785 832
f 848 832 849
f 849 832 831
f 809 850 808
f 808 850 851
f 808 851 811
f 811 851 852
f 811 852 755
f 755 852 853
f 755 853 813
f 813 853 854
f 813 854 814
f 814 854 855
f 814 855 856
f 856 855 857
f 856 857 821
f 821 857 858
f 821 858 795
f 795 858 859
f 795 859 806
f 846 860 817
f 817 860 861
f 817 861 752
f 752 861 774
f 752 774 768
f 768 774 418
f 768 418 375
f 779 862 427
f 427 862 863
f 427 863 749
f 749 863 864
f 749 864 865
f 865 864 866
f 865 866 867
f 867 866 868
f 867 868 869
f 869 868 870
f 869 870 871
f 871 870 872
f 871 872 836
f 836 872 873
f 836 873 838
f 874 875 865
f 865 875 876
f 865 876 877
f 877 878 865
f 865 878 782
f 865 782 749
f 749 782 784
f 749 784 748
f 879 789 880
f 880 789 878
f 880 878 881
f 881 878 877
f 785 882 883
f 879 884 789
f 789 884 885
f 789 885 785
f 785 885 886
f 785 886 882
f 869 834 867
f 867 834 832
f 867 832 865
f 865 832 785
f 865 785 874
f 874 785 883
f 751 753 752
f 752 753 755
f 752 755 817
f 817 755 813
f 817 813 819
f 819 813 815
f 458 457 772
f 772 457 760
f 887 888 889
f 887 889 890
f 891 892 435
f 435 892 781
f 435 781 436
f 436 781 780
f 436 780 889
f 889 780 893
f 889 893 890
f 894 895 896
f 894 896 897
f 898 899 346
f 346 899 57
f 346 57 347
f 347 57 56
f 347 56 896
f 896 56 900
f 896 900 897
f 901 902 102
f 102 902 903
f 102 903 1
f 1 903 904
f 1 904 2
f 2 904 905
f 2 905 97
f 97 905 906
f 97 906 93
f 93 906 907
f 93 907 92
f 92 907 908
f 92 908 90
f 90 908 909
f 90 909 80
f 80 909 910
f 80 910 81
f 81 910 911
f 81 911 83
f 83 911 912
f 83 912 85
f 85 912 913
f 85 913 86
f 86 913 914
f 86 914 120
f 120 914 915
f 120 915 105
f 105 915 916
f 105 916 106
f 106 916 917
f 106 917 113
f 113 917 918
f 113 918 104
f 104 918 901
f 104 901 102
f 919 920 834
f 834 920 921
f 834 921 833
f 833 921 922
f 833 922 830
f 830 922 923
f 830 923 828
f 828 923 924
f 828 924 820
f 820 924 925
f 820 925 821
f 821 925 926
f 821 926 856
f 856 926 927
f 856 927 814
f 814 927 928
f 814 928 815
f 815 928 929
f 815 929 819
f 819 929 930
f 819 930 818
f 818 930 931
f 818 931 816
f 816 931 932
f 816 932 844
f 844 932 933
f 844 933 835
f 835 933 934
f 835 934 836
f 836 934 935
f 836 935 871
f 871 935 936
f 871 936 869
f 869 936 919
f 869 919 834
f 812 810 448
f 445 804 801
f 804 445 937
f 937 445 938
f 937 938 939
f 939 938 940
f 939 940 941
f 801 802 445
f 445 802 797
f 445 797 448
f 448 797 808
f 448 808 812
f 942 943 912
f 912 943 944
f 912 944 913
f 913 944 945
f 913 945 914
f 914 945 946
f 914 946 915
f 915 946 947
f 915 947 916
f 916 947 948
f 916 948 917
f 917 948 949
f 917 949 918
f 918 949 950
f 918 950 901
f 901 950 951
f 901 951 902
f 902 951 952
f 902 952 903
f 903 952 953
f 903 953 904
f 904 953 954
f 904 954 905
f 905 954 955
f 905 955 906
f 906 955 956
f 906 956 907
f 907 956 957
f 907 957 908
f 908 957 958
f 908 958 909
f 909 958 959
f 909 959 910
f 910 959 960
f 910 960 911
f 911 960 942
f 911 942 912
f 961 962 628
f 734 963 964
f 734 964 611
f 672 674 965
f 965 966 672
f 672 966 967
f 672 967 734
f 734 967 968
f 734 968 963
f 969 970 623
f 623 970 971
f 623 971 624
f 624 971 972
f 624 972 674
f 674 972 973
f 674 973 965
f 969 623 974
f 974 623 622
f 974 622 975
f 975 622 620
f 975 620 976
f 628 962 626
f 962 977 626
f 626 977 978
f 626 978 620
f 620 978 979
f 620 979 976
f 961 628 980
f 980 628 580
f 980 580 981
f 981 580 572
f 981 572 982
f 574 983 572
f 572 983 984
f 572 984 982
f 592 985 589
f 589 985 986
f 589 986 574
f 574 986 987
f 574 987 983
f 597 988 592
f 592 988 989
f 592 989 985
f 606 990 597
f 597 990 991
f 597 991 988
f 609 992 606
f 606 992 993
f 606 993 990
f 964 994 611
f 611 994 995
f 611 995 609
f 609 995 996
f 609 996 992
f 997 998 930
f 930 998 999
f 930 999 931
f 931 999 1000
f 931 1000 932
f 932 1000 1001
f 932 1001 933
f 933 1001 1002
f 933 1002 934
f 934 1002 1003
f 934 1003 935
f 935 1003 1004
f 935 1004 936
f 936 1004 1005
f 936 1005 919
f 919 1005 1006
f 919 1006 920
f 920 1006 1007
f 920 1007 921
f 921 1007 1008
f 921 1008 922
f 922 1008 1009
f 922 1009 923
f 923 1009 1010
f 923 1010 924
f 924 1010 1011
f 924 1011 925
f 925 1011 1012
f 925 1012 926
f 926 1012 1013
f 926 1013 927
f 927 1013 1014
f 927 1014 928
f 928 1014 1015
f 928 1015 929
f 929 1015 997
f 929 997 930
f 1016 1017 527
f 462 1018 1019
f 462 1019 490
f 527 1017 464
f 1017 1020 464
f 464 1020 1021
f 464 1021 462
f 462 1021 1022
f 462 1022 1018
f 1016 527 1023
f 1023 527 497
f 1023 497 1024
f 1024 497 496
f 1024 496 1025
f 495 1026 496
f 496 1026 1027
f 496 1027 1025
f 494 500 1028
f 1028 1029 494
f 494 1029 1030
f 494 1030 495
f 495 1030 1031
f 495 1031 1026
f 502 476 1032
f 1032 1033 502
f 502 1033 1034
f 502 1034 500
f 500 1034 1035
f 500 1035 1028
f 468 470 1036
f 1036 1037 468
f 468 1037 1038
f 468 1038 476
f 476 1038 1039
f 476 1039 1032
f 482 1040 481
f 481 1040 1041
f 481 1041 470
f 470 1041 1042
f 470 1042 1036
f 465 1043 482
f 482 1043 1044
f 482 1044 1040
f 467 1045 465
f 465 1045 1046
f 465 1046 1043
f 488 1047 467
f 467 1047 1048
f 467 1048 1045
f 1019 1049 490
f 490 1049 1050
f 490 1050 488
f 488 1050 1051
f 488 1051 1047
f 304 303 704
f 334 693 335
f 335 693 696
f 335 696 336
f 336 696 698
f 336 698 300
f 300 698 742
f 300 742 302
f 302 742 703
f 302 703 303
f 303 703 702
f 303 702 704
f 322 653 324
f 324 653 667
f 324 667 326
f 326 667 656
f 326 656 328
f 328 656 681
f 328 681 331
f 331 681 687
f 331 687 340
f 340 687 689
f 340 689 334
f 334 689 691
f 334 691 693
f 704 706 304
f 304 706 708
f 304 708 344
f 344 708 712
f 344 712 343
f 343 712 713
f 343 713 342
f 342 713 716
f 342 716 341
f 341 716 722
f 341 722 308
f 308 722 720
f 308 720 309
f 309 720 639
f 309 639 310
f 310 639 642
f 310 642 313
f 313 642 630
f 313 630 316
f 316 630 629
f 316 629 318
f 318 629 650
f 318 650 320
f 320 650 648
f 320 648 322
f 322 648 646
f 322 646 653
f 959 958 989
f 989 988 959
f 959 988 991
f 959 991 960
f 991 990 960
f 960 990 993
f 960 993 942
f 993 992 942
f 942 992 996
f 942 996 943
f 996 995 943
f 943 995 994
f 943 994 944
f 944 994 964
f 944 964 945
f 964 963 945
f 945 963 968
f 945 968 946
f 968 967 946
f 946 967 966
f 946 966 947
f 966 965 947
f 947 965 973
f 947 973 948
f 973 972 948
f 948 972 971
f 948 971 949
f 971 970 949
f 949 970 969
f 949 969 950
f 969 974 950
f 950 974 975
f 950 975 951
f 975 976 951
f 951 976 979
f 951 979 952
f 979 978 952
f 952 978 977
f 952 977 953
f 953 977 962
f 953 962 954
f 954 962 961
f 954 961 955
f 955 961 980
f 980 981 955
f 955 981 982
f 955 982 956
f 956 982 984
f 956 984 957
f 957 984 983
f 983 987 957
f 957 987 986
f 957 986 958
f 958 986 985
f 958 985 989
f 1013 1040 1044
f 1013 1044 1014
f 1044 1043 1014
f 1014 1043 1046
f 1014 1046 1015
f 1046 1045 1015
f 1015 1045 1048
f 1015 1048 997
f 1048 1047 997
f 997 1047 1051
f 997 1051 998
f 1051 1050 998
f 998 1050 1049
f 998 1049 999
f 999 1049 1019
f 999 1019 1000
f 1019 1018 1000
f 1000 1018 1022
f 1000 1022 1001
f 1022 1021 1001
f 1001 1021 1020
f 1001 1020 1002
f 1020 1017 1002
f 1002 1017 1016
f 1002 1016 1003
f 1003 1016 1023
f 1023 1024 1003
f 1003 1024 1025
f 1003 1025 1004
f 1004 1025 1027
f 1004 1027 1005
f 1027 1026 1005
f 1005 1026 1031
f 1005 1031 1006
f 1031 1030 1006
f 1006 1030 1029
f 1006 1029 1007
f 1029 1028 1007
f 1007 1028 1035
f 1007 1035 1008
f 1008 1035 1034
f 1008 1034 1009
f 1009 1034 1033
f 1009 1033 1010
f 1033 1032 1010
f 1010 1032 1039
f 1010 1039 1011
f 1039 1038 1011
f 1011 1038 1037
f 1011 1037 1012
f 1037 1036 1012
f 1012 1036 1042
f 1012 1042 1013
f 1013 1042 1041
f 1013 1041 1040
f 399 397 538
f 386 558 387
f 387 558 559
f 387 559 390
f 390 559 534
f 390 534 393
f 393 534 535
f 393 535 395
f 395 535 541
f 395 541 397
f 397 541 540
f 397 540 538
f 381 512 426
f 426 512 517
f 426 517 424
f 424 517 519
f 424 519 422
f 422 519 528
f 422 528 419
f 419 528 530
f 419 530 385
f 385 530 529
f 385 529 386
f 386 529 568
f 386 568 558
f 538 536 399
f 399 536 542
f 399 542 401
f 401 542 543
f 401 543 403
f 403 543 544
f 403 544 405
f 405 544 545
f 405 545 408
f 408 545 550
f 408 550 430
f 430 550 548
f 430 548 412
f 412 548 505
f 412 505 413
f 413 505 506
f 413 506 414
f 414 506 504
f 414 504 377
f 377 504 503
f 377 503 379
f 379 503 511
f 379 511 380
f 380 511 509
f 380 509 381
f 381 509 507
f 381 507 512
f 35 34 365
f 365 34 1052
f 365 1052 1053
f 899 1054 57
f 57 1054 59
f 34 36 1052
f 1052 36 1055
f 772 773 458
f 458 773 1056
f 458 1056 1057
f 892 1058 781
f 781 1058 783
f 773 771 1056
f 1056 771 1059
f 78 76 361
f 356 74 71
f 74 356 1060
f 1060 356 1061
f 1060 1061 1062
f 1062 1061 1063
f 1062 1063 1064
f 71 72 356
f 356 72 67
f 356 67 361
f 361 67 79
f 361 79 78
f 1065 1066 897
f 897 1066 1067
f 897 1067 894
f 894 1067 888
f 894 888 887
f 900 1068 897
f 897 1068 1069
f 897 1069 1065
f 12 11 1070
f 12 1070 150
f 56 58 900
f 900 58 150
f 1071 1072 900
f 150 1070 900
f 900 1070 1073
f 900 1073 1071
f 1072 1074 900
f 900 1074 1075
f 900 1075 1068
f 1068 1075 1076
f 1068 1076 1077
f 75 74 1078
f 1078 74 1060
f 1077 1079 1068
f 1068 1079 1078
f 1068 1078 1062
f 1062 1078 1060
f 1080 1081 890
f 890 1081 1082
f 890 1082 887
f 887 1082 895
f 887 895 894
f 893 1083 890
f 890 1083 1084
f 890 1084 1080
f 789 791 1085
f 780 782 893
f 893 782 878
f 789 1085 878
f 1086 1087 893
f 878 1085 893
f 893 1085 1088
f 893 1088 1086
f 1087 1089 893
f 893 1089 1090
f 893 1090 1083
f 1083 1090 1091
f 1083 1091 1092
f 805 804 1093
f 1093 804 937
f 1092 1094 1083
f 1083 1094 1093
f 1083 1093 939
f 939 1093 937
f 1063 1095 1096
f 1063 1096 1064
f 1064 1096 1097
f 1064 1097 1098
f 1098 1097 1099
f 1099 1097 1100
f 1099 1100 1101
f 1101 1100 1102
f 1101 1102 1103
f 1102 1104 1103
f 1103 1104 941
f 1103 941 1105
f 1105 941 940
f 1105 940 1106
f 1107 1108 940
f 445 444 938
f 938 444 1109
f 938 1109 940
f 940 1109 1110
f 940 1110 1107
f 1108 1111 940
f 940 1111 1112
f 940 1112 1106
f 1106 1112 1113
f 1106 1113 1114
f 1115 437 436
f 1114 1116 1106
f 1106 1116 1115
f 1106 1115 889
f 889 1115 436
f 1117 1118 1063
f 356 355 1061
f 1061 355 1119
f 1061 1119 1063
f 1063 1119 1120
f 1063 1120 1117
f 1118 1121 1063
f 1063 1121 1122
f 1063 1122 1095
f 1095 1122 1123
f 1095 1123 1124
f 1125 348 347
f 1124 1126 1095
f 1095 1126 1125
f 1095 1125 896
f 896 1125 347
f 451 798 452
f 452 798 800
f 407 409 453
f 453 409 823
f 453 823 449
f 449 823 794
f 449 794 450
f 450 794 796
f 450 796 451
f 451 796 798
f 1090 1111 1091
f 1091 1111 1108
f 1091 1108 1092
f 1092 1108 1107
f 1092 1107 1094
f 1094 1107 1110
f 1094 1110 1093
f 1093 1110 1109
f 1093 1109 805
f 805 1109 444
f 805 444 803
f 803 444 446
f 803 446 799
f 799 446 447
f 799 447 800
f 800 447 452
f 1112 1111 1089
f 1089 1111 1090
f 1112 1089 1113
f 1113 1089 1087
f 1113 1087 1114
f 1114 1087 1086
f 1114 1086 1116
f 1116 1086 1088
f 1116 1088 1115
f 1115 1088 1085
f 1115 1085 437
f 437 1085 791
f 437 791 438
f 438 791 790
f 438 790 439
f 439 790 788
f 439 788 442
f 442 788 787
f 442 787 411
f 411 787 433
f 362 68 363
f 363 68 70
f 330 127 367
f 367 127 125
f 367 125 359
f 359 125 64
f 359 64 360
f 360 64 66
f 360 66 362
f 362 66 68
f 1075 1121 1076
f 1076 1121 1118
f 1076 1118 1077
f 1077 1118 1117
f 1077 1117 1079
f 1079 1117 1120
f 1079 1120 1078
f 1078 1120 1119
f 1078 1119 75
f 75 1119 355
f 75 355 73
f 73 355 357
f 73 357 69
f 69 357 358
f 69 358 70
f 70 358 363
f 1122 1121 1074
f 1074 1121 1075
f 1122 1074 1123
f 1123 1074 1072
f 1123 1072 1124
f 1124 1072 1071
f 1124 1071 1126
f 1126 1071 1073
f 1126 1073 1125
f 1125 1073 1070
f 1125 1070 348
f 348 1070 11
f 348 11 349
f 349 11 10
f 349 10 350
f 350 10 62
f 350 62 353
f 353 62 61
f 353 61 333
f 333 61 63
f 1057 1127 458
f 458 1127 456
f 389 1128 388
f 388 1128 1129
f 388 1129 1127
f 1127 1057 1056
f 373 384 1130
f 1130 384 388
f 1130 388 1131
f 1131 388 1127
f 1131 1127 1059
f 1059 1127 1056
f 434 443 1132
f 1132 443 1133
f 1132 891 434
f 434 891 435
f 383 382 1134
f 383 1134 378
f 378 1134 1135
f 378 1135 1058
f 376 378 1136
f 1136 378 1137
f 1137 378 1133
f 1133 378 1058
f 1133 1058 1132
f 1132 1058 892
f 1132 892 891
f 1053 1138 365
f 365 1138 366
f 312 1139 311
f 311 1139 1140
f 311 1140 1138
f 1138 1053 1052
f 298 307 1141
f 1141 307 311
f 1141 311 1142
f 1142 311 1138
f 1142 1138 1055
f 1055 1138 1052
f 345 354 1143
f 1143 354 1144
f 1143 898 345
f 345 898 346
f 306 305 1145
f 306 1145 301
f 301 1145 1146
f 301 1146 1054
f 299 301 1147
f 1147 301 1148
f 1148 301 1144
f 1144 301 1054
f 1144 1054 1143
f 1143 1054 899
f 1143 899 898
f 1133 443 1137
f 1137 443 441
f 1137 441 1136
f 1136 441 440
f 1136 440 376
f 376 440 417
f 1144 354 1148
f 1148 354 352
f 1148 352 1147
f 1147 352 351
f 1147 351 299
f 299 351 339
f 389 391 1128
f 1128 391 461
f 1128 461 1129
f 1129 461 454
f 1129 454 1127
f 1127 454 456
f 312 314 1139
f 1139 314 371
f 1139 371 1140
f 1140 371 372
f 1140 372 1138
f 1138 372 366
f 382 428 1134
f 1134 428 748
f 1134 748 1135
f 1135 748 784
f 1135 784 1058
f 1058 784 783
f 1059 771 1131
f 1131 771 770
f 1131 770 1130
f 1130 770 769
f 1130 769 373
f 373 769 374
f 305 55 1145
f 1145 55 53
f 1145 53 1146
f 1146 53 52
f 1146 52 1054
f 1054 52 59
f 1055 36 1142
f 1142 36 37
f 1142 37 1141
f 1141 37 38
f 1141 38 298
f 298 38 39
f 277 1149 279
f 279 1149 1150
f 279 1150 281
f 281 1150 1151
f 281 1151 283
f 283 1151 1152
f 283 1152 285
f 285 1152 1153
f 285 1153 287
f 287 1153 1154
f 287 1154 289
f 289 1154 1155
f 289 1155 291
f 291 1155 1156
f 291 1156 293
f 293 1156 1157
f 293 1157 295
f 295 1157 1158
f 295 1158 297
f 297 1158 1159
f 297 1159 275
f 275 1159 1160
f 275 1160 277
f 277 1160 1149
f 1160 874 1149
f 1149 874 883
f 1149 883 1150
f 1150 883 882
f 1150 882 1151
f 1151 882 886
f 1151 886 1152
f 1152 886 885
f 1152 885 1153
f 1153 885 884
f 1153 884 1154
f 1154 884 879
f 1154 879 1155
f 1155 879 880
f 1155 880 1156
f 1156 880 881
f 1156 881 1157
f 1157 881 877
f 1157 877 1158
f 1158 877 876
f 1158 876 1159
f 1159 876 875
f 1159 875 1160
f 1160 875 874
f 271 1161 273
f 273 1161 1162
f 273 1162 251
f 251 1162 1163
f 251 1163 253
f 253 1163 1164
f 253 1164 255
f 255 1164 1165
f 255 1165 257
f 257 1165 1166
f 257 1166 259
f 259 1166 1167
f 259 1167 261
f 261 1167 1168
f 261 1168 263
f 263 1168 1169
f 263 1169 265
f 265 1169 1170
f 265 1170 267
f 267 1170 1171
f 267 1171 269
f 269 1171 1172
f 269 1172 271
f 271 1172 1161
f 1163 870 1164
f 1164 870 868
f 1164 868 1165
f 1165 868 866
f 1165 866 1166
f 1166 866 864
f 1166 864 1167
f 1167 864 863
f 1167 863 1168
f 1168 863 862
f 1168 862 1169
f 1169 862 779
f 1169 779 1170
f 1170 779 778
f 1170 778 1171
f 1171 778 839
f 1171 839 1172
f 1172 839 838
f 1172 838 1161
f 1161 838 873
f 1161 873 1162
f 1162 873 872
f 1162 872 1163
f 1163 872 870
f 243 1173 245
f 245 1173 1174
f 245 1174 247
f 247 1174 1175
f 247 1175 249
f 249 1175 1176
f 249 1176 227
f 227 1176 1177
f 227 1177 229
f 229 1177 1178
f 229 1178 231
f 231 1178 1179
f 231 1179 233
f 233 1179 1180
f 233 1180 235
f 235 1180 1181
f 235 1181 237
f 237 1181 1182
f 237 1182 239
f 239 1182 1183
f 239 1183 241
f 241 1183 1184
f 241 1184 243
f 243 1184 1173
f 1177 846 1178
f 1178 846 845
f 1178 845 1179
f 1179 845 843
f 1179 843 1180
f 1180 843 842
f 1180 842 1181
f 1181 842 841
f 1181 841 1182
f 1182 841 840
f 1182 840 1183
f 1183 840 777
f 1183 777 1184
f 1184 777 776
f 1184 776 1173
f 1173 776 775
f 1173 775 1174
f 1174 775 774
f 1174 774 1175
f 1175 774 861
f 1175 861 1176
f 1176 861 860
f 1176 860 1177
f 1177 860 846
f 207 1185 209
f 209 1185 1186
f 209 1186 211
f 211 1186 1187
f 211 1187 213
f 213 1187 1188
f 213 1188 215
f 215 1188 1189
f 215 1189 217
f 217 1189 1190
f 217 1190 219
f 219 1190 1191
f 219 1191 221
f 221 1191 1192
f 221 1192 223
f 223 1192 1193
f 223 1193 225
f 225 1193 1194
f 225 1194 203
f 203 1194 1195
f 203 1195 205
f 205 1195 1196
f 205 1196 207
f 207 1196 1185
f 1195 758 1196
f 1196 758 765
f 1196 765 1185
f 1185 765 763
f 1185 763 1186
f 1186 763 757
f 1186 757 1187
f 1187 757 756
f 1187 756 1188
f 1188 756 754
f 1188 754 1189
f 1189 754 753
f 1189 753 1190
f 1190 753 751
f 1190 751 1191
f 1191 751 750
f 1191 750 1192
f 1192 750 762
f 1192 762 1193
f 1193 762 761
f 1193 761 1194
f 1194 761 759
f 1194 759 1195
f 1195 759 758
f 195 1197 197
f 197 1197 1198
f 197 1198 199
f 199 1198 1199
f 199 1199 201
f 201 1199 1200
f 201 1200 179
f 179 1200 1201
f 179 1201 181
f 181 1201 1202
f 181 1202 183
f 183 1202 1203
f 183 1203 185
f 185 1203 1204
f 185 1204 187
f 187 1204 1205
f 187 1205 189
f 189 1205 1206
f 189 1206 191
f 191 1206 1207
f 191 1207 193
f 193 1207 1208
f 193 1208 195
f 195 1208 1197
f 1201 809 1202
f 1202 809 807
f 1202 807 1203
f 1203 807 806
f 1203 806 1204
f 1204 806 859
f 1204 859 1205
f 1205 859 858
f 1205 858 1206
f 1206 858 857
f 1206 857 1207
f 1207 857 855
f 1207 855 1208
f 1208 855 854
f 1208 854 1197
f 1197 854 853
f 1197 853 1198
f 1198 853 852
f 1198 852 1199
f 1199 852 851
f 1199 851 1200
f 1200 851 850
f 1200 850 1201
f 1201 850 809
f 161 1209 163
f 163 1209 1210
f 163 1210 165
f 165 1210 1211
f 165 1211 167
f 167 1211 1212
f 167 1212 169
f 169 1212 1213
f 169 1213 171
f 171 1213 1214
f 171 1214 173
f 173 1214 1215
f 173 1215 175
f 175 1215 1216
f 175 1216 177
f 177 1216 1217
f 177 1217 155
f 155 1217 1218
f 155 1218 157
f 157 1218 1219
f 157 1219 159
f 159 1219 1220
f 159 1220 161
f 161 1220 1209
f 1218 822 1219
f 1219 822 793
f 1219 793 1220
f 1220 793 792
f 1220 792 1209
f 1209 792 847
f 1209 847 1210
f 1210 847 848
f 1210 848 1211
f 1211 848 849
f 1211 849 1212
f 1212 849 831
f 1212 831 1213
f 1213 831 829
f 1213 829 1214
f 1214 829 827
f 1214 827 1215
f 1215 827 826
f 1215 826 1216
f 1216 826 825
f 1216 825 1217
f 1217 825 824
f 1217 824 1218
f 1218 824 822
f 730 1221 731
f 731 1221 1222
f 731 1222 732
f 732 1222 1223
f 732 1223 733
f 733 1223 1224
f 733 1224 735
f 735 1224 1225
f 735 1225 736
f 736 1225 1226
f 736 1226 737
f 737 1226 1227
f 737 1227 694
f 694 1227 1228
f 694 1228 695
f 695 1228 1229
f 695 1229 697
f 697 1229 1230
f 697 1230 699
f 699 1230 1231
f 699 1231 729
f 729 1231 1232
f 729 1232 730
f 730 1232 1221
f 1228 1233 1229
f 1229 1233 1234
f 1229 1234 1230
f 1230 1234 1235
f 1230 1235 1231
f 1231 1235 1236
f 1231 1236 1232
f 1232 1236 1237
f 1232 1237 1221
f 1221 1237 1238
f 1221 1238 1222
f 1222 1238 1239
f 1222 1239 1223
f 1223 1239 1240
f 1223 1240 1224
f 1224 1240 1241
f 1224 1241 1225
f 1225 1241 1242
f 1225 1242 1226
f 1226 1242 1243
f 1226 1243 1227
f 1227 1243 1244
f 1227 1244 1228
f 1228 1244 1233
f 1238 148 1239
f 1239 148 147
f 1239 147 1240
f 1240 147 146
f 1240 146 1241
f 1241 146 145
f 1241 145 1242
f 1242 145 144
f 1242 144 1243
f 1243 144 142
f 1243 142 1244
f 1244 142 141
f 1244 141 1233
f 1233 141 143
f 1233 143 1234
f 1234 143 153
f 1234 153 1235
f 1235 153 152
f 1235 152 1236
f 1236 152 151
f 1236 151 1237
f 1237 151 149
f 1237 149 1238
f 1238 149 148
f 707 1245 593
f 593 1245 1246
f 593 1246 594
f 594 1246 1247
f 594 1247 595
f 595 1247 1248
f 595 1248 596
f 596 1248 1249
f 596 1249 598
f 598 1249 1250
f 598 1250 599
f 599 1250 1251
f 599 1251 600
f 600 1251 1252
f 600 1252 602
f 602 1252 1253
f 602 1253 711
f 711 1253 1254
f 711 1254 710
f 710 1254 1255
f 710 1255 709
f 709 1255 1256
f 709 1256 707
f 707 1256 1245
f 1245 1257 1246
f 1246 1257 1258
f 1246 1258 1247
f 1247 1258 1259
f 1247 1259 1248
f 1248 1259 1260
f 1248 1260 1249
f 1249 1260 1261
f 1249 1261 1250
f 1250 1261 1262
f 1250 1262 1251
f 1251 1262 1263
f 1251 1263 1252
f 1252 1263 1264
f 1252 1264 1253
f 1253 1264 1265
f 1253 1265 1254
f 1254 1265 1266
f 1254 1266 1255
f 1255 1266 1267
f 1255 1267 1256
f 1256 1267 1268
f 1256 1268 1245
f 1245 1268 1257
f 1257 50 1258
f 1258 50 48
f 1258 48 1259
f 1259 48 47
f 1259 47 1260
f 1260 47 5
f 1260 5 1261
f 1261 5 4
f 1261 4 1262
f 1262 4 91
f 1262 91 1263
f 1263 91 89
f 1263 89 1264
f 1264 89 88
f 1264 88 1265
f 1265 88 87
f 1265 87 1266
f 1266 87 133
f 1266 133 1267
f 1267 133 132
f 1267 132 1268
f 1268 132 131
f 1268 131 1257
f 1257 131 50
f 715 1269 717
f 717 1269 1270
f 717 1270 718
f 718 1270 1271
f 718 1271 584
f 584 1271 1272
f 584 1272 583
f 583 1272 1273
f 583 1273 586
f 586 1273 1274
f 586 1274 587
f 587 1274 1275
f 587 1275 588
f 588 1275 1276
f 588 1276 590
f 590 1276 1277
f 590 1277 569
f 569 1277 1278
f 569 1278 570
f 570 1278 1279
f 570 1279 714
f 714 1279 1280
f 714 1280 715
f 715 1280 1269
f 1269 1281 1270
f 1270 1281 1282
f 1270 1282 1271
f 1271 1282 1283
f 1271 1283 1272
f 1272 1283 1284
f 1272 1284 1273
f 1273 1284 1285
f 1273 1285 1274
f 1274 1285 1286
f 1274 1286 1275
f 1275 1286 1287
f 1275 1287 1276
f 1276 1287 1288
f 1276 1288 1277
f 1277 1288 1289
f 1277 1289 1278
f 1278 1289 1290
f 1278 1290 1279
f 1279 1290 1291
f 1279 1291 1280
f 1280 1291 1292
f 1280 1292 1269
f 1269 1292 1281
f 1281 42 1282
f 1282 42 43
f 1282 43 1283
f 1283 43 45
f 1283 45 1284
f 1284 45 46
f 1284 46 1285
f 1285 46 135
f 1285 135 1286
f 1286 135 94
f 1286 94 1287
f 1287 94 95
f 1287 95 1288
f 1288 95 96
f 1288 96 1289
f 1289 96 98
f 1289 98 1290
f 1290 98 99
f 1290 99 1291
f 1291 99 100
f 1291 100 1292
f 1292 100 101
f 1292 101 1281
f 1281 101 42
f 638 1293 640
f 640 1293 1294
f 640 1294 641
f 641 1294 1295
f 641 1295 643
f 643 1295 1296
f 643 1296 644
f 644 1296 1297
f 644 1297 631
f 631 1297 1298
f 631 1298 632
f 632 1298 1299
f 632 1299 633
f 633 1299 1300
f 633 1300 634
f 634 1300 1301
f 634 1301 635
f 635 1301 1302
f 635 1302 636
f 636 1302 1303
f 636 1303 637
f 637 1303 1304
f 637 1304 638
f 638 1304 1293
f 1293 1305 1294
f 1294 1305 1306
f 1294 1306 1295
f 1295 1306 1307
f 1295 1307 1296
f 1296 1307 1308
f 1296 1308 1297
f 1297 1308 1309
f 1297 1309 1298
f 1298 1309 1310
f 1298 1310 1299
f 1299 1310 1311
f 1299 1311 1300
f 1300 1311 1312
f 1300 1312 1301
f 1301 1312 1313
f 1301 1313 1302
f 1302 1313 1314
f 1302 1314 1303
f 1303 1314 1315
f 1303 1315 1304
f 1304 1315 1316
f 1304 1316 1293
f 1293 1316 1305
f 1305 33 1306
f 1306 33 32
f 1306 32 1307
f 1307 32 31
f 1307 31 1308
f 1308 31 28
f 1308 28 1309
f 1309 28 26
f 1309 26 1310
f 1310 26 24
f 1310 24 1311
f 1311 24 17
f 1311 17 1312
f 1312 17 16
f 1312 16 1313
f 1313 16 23
f 1313 23 1314
f 1314 23 22
f 1314 22 1315
f 1315 22 20
f 1315 20 1316
f 1316 20 19
f 1316 19 1305
f 1305 19 33
f 619 1317 617
f 617 1317 1318
f 617 1318 618
f 618 1318 1319
f 618 1319 645
f 645 1319 1320
f 645 1320 651
f 651 1320 1321
f 651 1321 652
f 652 1321 1322
f 652 1322 654
f 654 1322 1323
f 654 1323 655
f 655 1323 1324
f 655 1324 612
f 612 1324 1325
f 612 1325 613
f 613 1325 1326
f 613 1326 615
f 615 1326 1327
f 615 1327 621
f 621 1327 1328
f 621 1328 619
f 619 1328 1317
f 1317 1329 1318
f 1318 1329 1330
f 1318 1330 1319
f 1319 1330 1331
f 1319 1331 1320
f 1320 1331 1332
f 1320 1332 1321
f 1321 1332 1333
f 1321 1333 1322
f 1322 1333 1334
f 1322 1334 1323
f 1323 1334 1335
f 1323 1335 1324
f 1324 1335 1336
f 1324 1336 1325
f 1325 1336 1337
f 1325 1337 1326
f 1326 1337 1338
f 1326 1338 1327
f 1327 1338 1339
f 1327 1339 1328
f 1328 1339 1340
f 1328 1340 1317
f 1317 1340 1329
f 1329 114 1330
f 1330 114 115
f 1330 115 1331
f 1331 115 116
f 1331 116 1332
f 1332 116 138
f 1332 138 1333
f 1333 138 137
f 1333 137 1334
f 1334 137 136
f 1334 136 1335
f 1335 136 107
f 1335 107 1336
f 1336 107 108
f 1336 108 1337
f 1337 108 109
f 1337 109 1338
f 1338 109 110
f 1338 110 1339
f 1339 110 111
f 1339 111 1340
f 1340 111 112
f 1340 112 1329
f 1329 112 114
f 673 1341 675
f 675 1341 1342
f 675 1342 676
f 676 1342 1343
f 676 1343 677
f 677 1343 1344
f 677 1344 678
f 678 1344 1345
f 678 1345 679
f 679 1345 1346
f 679 1346 680
f 680 1346 1347
f 680 1347 682
f 682 1347 1348
f 682 1348 683
f 683 1348 1349
f 683 1349 685
f 685 1349 1350
f 685 1350 686
f 686 1350 1351
f 686 1351 671
f 671 1351 1352
f 671 1352 673
f 673 1352 1341
f 1341 1353 1342
f 1342 1353 1354
f 1342 1354 1343
f 1343 1354 1355
f 1343 1355 1344
f 1344 1355 1356
f 1344 1356 1345
f 1345 1356 1357
f 1345 1357 1346
f 1346 1357 1358
f 1346 1358 1347
f 1347 1358 1359
f 1347 1359 1348
f 1348 1359 1360
f 1348 1360 1349
f 1349 1360 1361
f 1349 1361 1350
f 1350 1361 1362
f 1350 1362 1351
f 1351 1362 1363
f 1351 1363 1352
f 1352 1363 1364
f 1352 1364 1341
f 1341 1364 1353
f 1353 118 1354
f 1354 118 119
f 1354 119 1355
f 1355 119 121
f 1355 121 1356
f 1356 121 122
f 1356 122 1357
f 1357 122 123
f 1357 123 1358
f 1358 123 124
f 1358 124 1359
f 1359 124 126
f 1359 126 1360
f 1360 126 128
f 1360 128 1361
f 1361 128 130
f 1361 130 1362
f 1362 130 139
f 1362 139 1363
f 1363 139 140
f 1363 140 1364
f 1364 140 117
f 1364 117 1353
f 1353 117 118
f 1365 664 1366
f 1366 664 663
f 1366 663 1367
f 1367 663 662
f 1367 662 1368
f 1368 662 661
f 1368 661 1369
f 1369 661 660
f 1369 660 1370
f 1370 660 659
f 1370 659 1371
f 1371 659 658
f 1371 658 1372
f 1372 658 657
f 1372 657 1373
f 1373 657 669
f 1373 669 1374
f 1374 669 668
f 1374 668 1375
f 1375 668 666
f 1375 666 1376
f 1376 666 665
f 1376 665 1365
f 1365 665 664
f 1375 1376 1377
f 1377 1376 1365
f 1377 1365 1366
f 1372 1373 1377
f 1377 1373 1374
f 1377 1374 1375
f 1369 1370 1377
f 1377 1370 1371
f 1377 1371 1372
f 1366 1367 1377
f 1377 1367 1368
f 1377 1368 1369
f 1378 728 1379
f 1379 728 727
f 1379 727 1380
f 1380 727 726
f 1380 726 1381
f 1381 726 723
f 1381 723 1382
f 1382 723 724
f 1382 724 1383
f 1383 724 725
f 1383 725 1384
f 1384 725 719
f 1384 719 1385
f 1385 719 576
f 1385 576 1386
f 1386 576 575
f 1386 575 1387
f 1387 575 582
f 1387 582 1388
f 1388 582 581
f 1388 581 1389
f 1389 581 579
f 1389 579 1378
f 1378 579 728
f 1383 1384 1390
f 1390 1384 1385
f 1390 1385 1386
f 1380 1381 1390
f 1390 1381 1382
f 1390 1382 1383
f 1389 1378 1390
f 1390 1378 1379
f 1390 1379 1380
f 1386 1387 1390
f 1390 1387 1388
f 1390 1388 1389
f 1391 739 1392
f 1392 739 738
f 1392 738 1393
f 1393 738 608
f 1393 608 1394
f 1394 608 607
f 1394 607 1395
f 1395 607 605
f 1395 605 1396
f 1396 605 604
f 1396 604 1397
f 1397 604 747
f 1397 747 1398
f 1398 747 746
f 1398 746 1399
f 1399 746 745
f 1399 745 1400
f 1400 745 744
f 1400 744 1401
f 1401 744 741
f 1401 741 1402
f 1402 741 740
f 1402 740 1391
f 1391 740 739
f 1400 1401 1403
f 1403 1401 1402
f 1403 1402 1391
f 1397 1398 1403
f 1403 1398 1399
f 1403 1399 1400
f 1394 1395 1403
f 1403 1395 1396
f 1403 1396 1397
f 1391 1392 1403
f 1403 1392 1393
f 1403 1393 1394
f 1404 514 1405
f 1405 514 513
f 1405 513 1406
f 1406 513 526
f 1406 526 1407
f 1407 526 525
f 1407 525 1408
f 1408 525 524
f 1408 524 1409
f 1409 524 523
f 1409 523 1410
f 1410 523 522
f 1410 522 1411
f 1411 522 521
f 1411 521 1412
f 1412 521 520
f 1412 520 1413
f 1413 520 518
f 1413 518 1414
f 1414 518 516
f 1414 516 1415
f 1415 516 515
f 1415 515 1404
f 1404 515 514
f 1414 1415 1416
f 1416 1415 1404
f 1416 1404 1405
f 1411 1412 1416
f 1416 1412 1413
f 1416 1413 1414
f 1408 1409 1416
f 1416 1409 1410
f 1416 1410 1411
f 1405 1406 1416
f 1416 1406 1407
f 1416 1407 1408
f 1417 556 1418
f 1418 556 555
f 1418 555 1419
f 1419 555 554
f 1419 554 1420
f 1420 554 551
f 1420 551 1421
f 1421 551 552
f 1421 552 1422
f 1422 552 553
f 1422 553 1423
f 1423 553 547
f 1423 547 1424
f 1424 547 472
f 1424 472 1425
f 1425 472 471
f 1425 471 1426
f 1426 471 478
f 1426 478 1427
f 1427 478 477
f 1427 477 1428
f 1428 477 475
f 1428 475 1417
f 1417 475 556
f 1422 1423 1429
f 1429 1423 1424
f 1429 1424 1425
f 1419 1420 1429
f 1429 1420 1421
f 1429 1421 1422
f 1428 1417 1429
f 1429 1417 1418
f 1429 1418 1419
f 1425 1426 1429
f 1429 1426 1427
f 1429 1427 1428
f 1430 563 1431
f 1431 563 562
f 1431 562 1432
f 1432 562 487
f 1432 487 1433
f 1433 487 486
f 1433 486 1434
f 1434 486 485
f 1434 485 1435
f 1435 485 484
f 1435 484 1436
f 1436 484 561
f 1436 561 1437
f 1437 561 560
f 1437 560 1438
f 1438 560 567
f 1438 567 1439
f 1439 567 566
f 1439 566 1440
f 1440 566 565
f 1440 565 1441
f 1441 565 564
f 1441 564 1430
f 1430 564 563
f 1439 1440 1442
f 1442 1440 1441
f 1442 1441 1430
f 1436 1437 1442
f 1442 1437 1438
f 1442 1438 1439
f 1433 1434 1442
f 1442 1434 1435
f 1442 1435 1436
f 1430 1431 1442
f 1442 1431 1432
f 1442 1432 1433
f 1103 1105 888
f 888 1105 1106
f 888 1106 889
f 1062 1064 1068
f 1068 1064 1098
f 1068 1098 1069
f 1069 1098 1099
f 1069 1099 1065
f 1065 1099 1101
f 1065 1101 1066
f 1066 1101 1103
f 1066 1103 1067
f 1067 1103 888
f 1097 1096 895
f 895 1096 1095
f 895 1095 896
f 939 941 1083
f 1083 941 1104
f 1083 1104 1084
f 1084 1104 1102
f 1084 1102 1080
f 1080 1102 1100
f 1080 1100 1081
f 1081 1100 1097
f 1081 1097 1082
f 1082 1097 895
f 760 457 455
f 760 455 767
f 767 455 460
f 767 460 766
f 766 460 459
f 766 459 764
f 764 459 448
f 764 448 810
f 361 76 25
f 361 25 368
f 368 25 27
f 368 27 369
f 369 27 29
f 369 29 370
f 370 29 30
f 370 30 364

