# Exported by SolidWorks
g 
v -0.00817552 0.00232614 0.03555000
v -0.00932532 0.00365192 0.03555000
v -0.01082532 0.00325000 0.03555000
v -0.00819760 0.01757980 0.03555000
v -0.00716886 0.02700000 0.03555000
v -0.01162200 0.02492346 0.03555000
v 0.01116266 -0.00937500 0.03555000
v 0.01237437 -0.01237437 0.03555000
v 0.01515544 -0.00875000 0.03555000
v 0.01342339 -0.00475000 0.03555000
v 0.01382532 -0.00625000 0.03555000
v 0.01644440 -0.00598596 0.03555000
v 0.00932532 -0.00365192 0.03555000
v 0.01082532 -0.00325000 0.03555000
v 0.01116266 0.00000000 0.03555000
v 0.01232532 -0.00365192 0.03555000
v 0.01773542 -0.00403703 0.03555000
v 0.01977130 -0.00288801 0.03555000
v 0.02210699 -0.00279008 0.03555000
v 0.03886364 0.00000000 0.03555000
v 0.02423191 -0.00376464 0.03555000
v 0.05015909 -0.00887500 0.03555000
v 0.03989125 -0.01606841 0.03555000
v 0.05079545 -0.00937500 0.03555000
v 0.04138834 -0.01800832 0.03555000
v 0.06686363 -0.02200000 0.03555000
v 0.04178391 -0.02042659 0.03555000
v 0.04138472 -0.02200000 0.03555000
v 0.00541266 -0.02200000 0.03555000
v 0.00572519 -0.02200000 0.03555000
v 0.00544864 -0.02117851 0.03555000
v 0.00541383 -0.01897559 0.03555000
v 0.00632925 -0.01697157 0.03555000
v 0.00541266 -0.00937500 0.03555000
v 0.00801715 -0.01555556 0.03555000
v 0.00875000 -0.01515544 0.03555000
v -0.01116266 -0.00937500 0.03555000
v -0.01256441 -0.01218136 0.03555000
v -0.01207855 -0.01301971 0.03555000
v -0.01750000 -0.02085569 0.03555000
v -0.01750000 -0.02200000 0.03555000
v -0.01246826 -0.01485909 0.03555000
v -0.01116266 -0.02200000 0.03555000
v -0.01204378 -0.01398805 0.03555000
v -0.01515544 -0.00875000 0.03555000
v -0.01232532 -0.00884808 0.03555000
v -0.01342339 -0.00775000 0.03555000
v -0.01690370 -0.00452933 0.03555000
v -0.01382532 -0.00625000 0.03555000
v -0.01750000 0.00000000 0.03555000
v -0.01342339 0.00475000 0.03555000
v -0.01690370 0.00452933 0.03555000
v -0.01382532 0.00625000 0.03555000
v -0.01515544 0.00875000 0.03555000
v -0.01342339 0.00775000 0.03555000
v -0.01232532 0.00884808 0.03555000
v -0.01474379 0.00942712 0.03555000
v -0.00587589 0.02700000 0.03555000
v -0.00801302 0.01662858 0.03555000
v -0.00829723 0.01570224 0.03555000
v -0.00541266 0.00937500 0.03555000
v -0.00898352 0.01501820 0.03555000
v -0.01116266 0.00937500 0.03555000
v -0.01237437 0.01237437 0.03555000
v -0.00259808 0.01100000 0.03555000
v -0.00300000 0.01250000 0.03555000
v 0.00541266 0.00937500 0.03555000
v 0.00300000 0.01250000 0.03555000
v 0.00259808 0.01100000 0.03555000
v 0.00150000 0.00990192 0.03555000
v -0.00000000 0.00950000 0.03555000
v -0.00150000 0.00990192 0.03555000
v -0.00259808 0.01400000 0.03555000
v -0.00150000 0.01509808 0.03555000
v -0.00090417 0.02658516 0.03555000
v 0.00000000 0.01550000 0.03555000
v 0.00393006 0.02535213 0.03555000
v 0.00150000 0.01509808 0.03555000
v 0.00849310 0.02333500 0.03555000
v 0.00259808 0.01400000 0.03555000
v 0.02693182 0.00937500 0.03555000
v 0.01265875 0.02058955 0.03555000
v 0.01116266 0.00937500 0.03555000
v 0.01232532 0.00884808 0.03555000
v 0.01342339 0.00775000 0.03555000
v 0.02756818 0.00887500 0.03555000
v 0.01382532 0.00625000 0.03555000
v 0.01342339 0.00475000 0.03555000
v 0.00572641 -0.00628158 0.03555000
v 0.00307055 -0.00792601 0.03555000
v 0.00541266 -0.00887500 0.03555000
v -0.00000000 -0.00850000 0.03555000
v -0.00541266 -0.00887500 0.03555000
v -0.00307055 -0.00792601 0.03555000
v -0.00572641 -0.00628158 0.03555000
v 0.00932532 -0.00884808 0.03555000
v 0.00822724 -0.00775000 0.03555000
v 0.00782532 -0.00625000 0.03555000
v 0.00760889 -0.00378878 0.03555000
v 0.00822724 -0.00475000 0.03555000
v 0.00846374 -0.00078428 0.03555000
v 0.00817552 0.00232614 0.03555000
v 0.00782532 0.00625000 0.03555000
v 0.00822724 0.00775000 0.03555000
v 0.00541266 0.00887500 0.03555000
v 0.01232532 0.00365192 0.03555000
v 0.01082532 0.00325000 0.03555000
v 0.00932532 0.00365192 0.03555000
v 0.00678315 0.00512239 0.03555000
v 0.00822724 0.00475000 0.03555000
v 0.00447467 0.00722684 0.03555000
v -0.00447467 0.00722684 0.03555000
v -0.00156187 0.00835527 0.03555000
v -0.00541266 0.00887500 0.03555000
v 0.00156187 0.00835527 0.03555000
v -0.00846374 -0.00078428 0.03555000
v -0.01116266 0.00000000 0.03555000
v -0.01232532 0.00365192 0.03555000
v -0.00822724 0.00475000 0.03555000
v -0.00678315 0.00512239 0.03555000
v -0.00782532 0.00625000 0.03555000
v -0.00822724 0.00775000 0.03555000
v -0.00932532 0.00884808 0.03555000
v -0.01342339 -0.00475000 0.03555000
v -0.01232532 -0.00365192 0.03555000
v -0.01082532 -0.00325000 0.03555000
v -0.00932532 -0.00365192 0.03555000
v -0.00760889 -0.00378878 0.03555000
v -0.00822724 -0.00475000 0.03555000
v -0.00782532 -0.00625000 0.03555000
v -0.00822724 -0.00775000 0.03555000
v -0.01082532 -0.00925000 0.03555000
v -0.00541266 -0.00937500 0.03555000
v -0.00932532 -0.00884808 0.03555000
v -0.01082532 0.00925000 0.03555000
v 0.01082532 0.00925000 0.03555000
v 0.00932532 0.00884808 0.03555000
v 0.01342339 -0.00775000 0.03555000
v 0.01232532 -0.00884808 0.03555000
v 0.01082532 -0.00925000 0.03555000
v -0.00259808 -0.01400000 0.03555000
v -0.00300000 -0.01250000 0.03555000
v -0.00259808 -0.01100000 0.03555000
v 0.00259808 -0.01100000 0.03555000
v 0.00300000 -0.01250000 0.03555000
v -0.00150000 -0.00990192 0.03555000
v -0.00000000 -0.00950000 0.03555000
v 0.00150000 -0.00990192 0.03555000
v 0.00259808 -0.01400000 0.03555000
v 0.00150000 -0.01509808 0.03555000
v -0.00541266 -0.02200000 0.03555000
v -0.00000000 -0.01550000 0.03555000
v -0.00150000 -0.01509808 0.03555000
v 0.04457468 -0.02745000 0.00480000
v 0.04457468 -0.03200000 0.00480000
v 0.04478904 -0.02745000 0.00400000
v 0.04478904 -0.03200000 0.00400000
v 0.04537468 -0.02745000 0.00341436
v 0.04537468 -0.03200000 0.00341436
v 0.04617468 -0.02745000 0.00320000
v 0.04617468 -0.03200000 0.00320000
v 0.04697468 -0.02745000 0.00341436
v 0.04697468 -0.03200000 0.00341436
v 0.04756032 -0.02745000 0.00400000
v 0.04756032 -0.03200000 0.00400000
v 0.04777468 -0.02745000 0.00480000
v 0.04777468 -0.03200000 0.00480000
v 0.04756032 -0.02745000 0.00560000
v 0.04756032 -0.03200000 0.00560000
v 0.04697468 -0.02745000 0.00618564
v 0.04697468 -0.03200000 0.00618564
v 0.04617468 -0.02745000 0.00640000
v 0.04617468 -0.03200000 0.00640000
v 0.04537468 -0.02745000 0.00618564
v 0.04537468 -0.03200000 0.00618564
v 0.04478904 -0.02745000 0.00560000
v 0.04478904 -0.03200000 0.00560000
v 0.04457468 -0.02745000 -0.00770000
v 0.04457468 -0.03200000 -0.00770000
v 0.04478904 -0.02745000 -0.00850000
v 0.04478904 -0.03200000 -0.00850000
v 0.04537468 -0.02745000 -0.00908564
v 0.04537468 -0.03200000 -0.00908564
v 0.04617468 -0.02745000 -0.00930000
v 0.04617468 -0.03200000 -0.00930000
v 0.04697468 -0.02745000 -0.00908564
v 0.04697468 -0.03200000 -0.00908564
v 0.04756032 -0.02745000 -0.00850000
v 0.04756032 -0.03200000 -0.00850000
v 0.04777468 -0.02745000 -0.00770000
v 0.04777468 -0.03200000 -0.00770000
v 0.04756032 -0.02745000 -0.00690000
v 0.04756032 -0.03200000 -0.00690000
v 0.04697468 -0.02745000 -0.00631436
v 0.04697468 -0.03200000 -0.00631436
v 0.04617468 -0.02745000 -0.00610000
v 0.04617468 -0.03200000 -0.00610000
v 0.04537468 -0.02745000 -0.00631436
v 0.04537468 -0.03200000 -0.00631436
v 0.04478904 -0.02745000 -0.00690000
v 0.04478904 -0.03200000 -0.00690000
v 0.05700000 -0.02745000 -0.01555000
v 0.05700000 -0.03200000 -0.01555000
v 0.05780000 -0.02745000 -0.01533564
v 0.05780000 -0.03200000 -0.01533564
v 0.05838564 -0.02745000 -0.01475000
v 0.05838564 -0.03200000 -0.01475000
v 0.05860000 -0.02745000 -0.01395000
v 0.05860000 -0.03200000 -0.01395000
v 0.05838564 -0.02745000 -0.01315000
v 0.05838564 -0.03200000 -0.01315000
v 0.05780000 -0.02745000 -0.01256436
v 0.05780000 -0.03200000 -0.01256436
v 0.05700000 -0.02745000 -0.01235000
v 0.05700000 -0.03200000 -0.01235000
v 0.05620000 -0.02745000 -0.01256436
v 0.05620000 -0.03200000 -0.01256436
v 0.05561436 -0.02745000 -0.01315000
v 0.05561436 -0.03200000 -0.01315000
v 0.05540000 -0.02745000 -0.01395000
v 0.05540000 -0.03200000 -0.01395000
v 0.05561436 -0.02745000 -0.01475000
v 0.05561436 -0.03200000 -0.01475000
v 0.05620000 -0.02745000 -0.01533564
v 0.05620000 -0.03200000 -0.01533564
v 0.06622532 -0.02745000 -0.00770000
v 0.06622532 -0.03200000 -0.00770000
v 0.06643967 -0.02745000 -0.00850000
v 0.06643967 -0.03200000 -0.00850000
v 0.06702532 -0.02745000 -0.00908564
v 0.06702532 -0.03200000 -0.00908564
v 0.06782532 -0.02745000 -0.00930000
v 0.06782532 -0.03200000 -0.00930000
v 0.06862532 -0.02745000 -0.00908564
v 0.06862532 -0.03200000 -0.00908564
v 0.06921096 -0.02745000 -0.00850000
v 0.06921096 -0.03200000 -0.00850000
v 0.06942532 -0.02745000 -0.00770000
v 0.06942532 -0.03200000 -0.00770000
v 0.06921096 -0.02745000 -0.00690000
v 0.06921096 -0.03200000 -0.00690000
v 0.06862532 -0.02745000 -0.00631436
v 0.06862532 -0.03200000 -0.00631436
v 0.06782532 -0.02745000 -0.00610000
v 0.06782532 -0.03200000 -0.00610000
v 0.06702532 -0.02745000 -0.00631436
v 0.06702532 -0.03200000 -0.00631436
v 0.06643967 -0.02745000 -0.00690000
v 0.06643967 -0.03200000 -0.00690000
v 0.06622532 -0.02745000 0.00480000
v 0.06622532 -0.03200000 0.00480000
v 0.06643967 -0.02745000 0.00400000
v 0.06643967 -0.03200000 0.00400000
v 0.06702532 -0.02745000 0.00341436
v 0.06702532 -0.03200000 0.00341436
v 0.06782532 -0.02745000 0.00320000
v 0.06782532 -0.03200000 0.00320000
v 0.06862532 -0.02745000 0.00341436
v 0.06862532 -0.03200000 0.00341436
v 0.06921096 -0.02745000 0.00400000
v 0.06921096 -0.03200000 0.00400000
v 0.06942532 -0.02745000 0.00480000
v 0.06942532 -0.03200000 0.00480000
v 0.06921096 -0.02745000 0.00560000
v 0.06921096 -0.03200000 0.00560000
v 0.06862532 -0.02745000 0.00618564
v 0.06862532 -0.03200000 0.00618564
v 0.06782532 -0.02745000 0.00640000
v 0.06782532 -0.03200000 0.00640000
v 0.06702532 -0.02745000 0.00618564
v 0.06702532 -0.03200000 0.00618564
v 0.06643967 -0.02745000 0.00560000
v 0.06643967 -0.03200000 0.00560000
v 0.05700000 -0.02745000 0.00945000
v 0.05700000 -0.03200000 0.00945000
v 0.05780000 -0.02745000 0.00966436
v 0.05780000 -0.03200000 0.00966436
v 0.05838564 -0.02745000 0.01025000
v 0.05838564 -0.03200000 0.01025000
v 0.05860000 -0.02745000 0.01105000
v 0.05860000 -0.03200000 0.01105000
v 0.05838564 -0.02745000 0.01185000
v 0.05838564 -0.03200000 0.01185000
v 0.05780000 -0.02745000 0.01243564
v 0.05780000 -0.03200000 0.01243564
v 0.05700000 -0.02745000 0.01265000
v 0.05700000 -0.03200000 0.01265000
v 0.05620000 -0.02745000 0.01243564
v 0.05620000 -0.03200000 0.01243564
v 0.05561436 -0.02745000 0.01185000
v 0.05561436 -0.03200000 0.01185000
v 0.05540000 -0.02745000 0.01105000
v 0.05540000 -0.03200000 0.01105000
v 0.05561436 -0.02745000 0.01025000
v 0.05561436 -0.03200000 0.01025000
v 0.05620000 -0.02745000 0.00966436
v 0.05620000 -0.03200000 0.00966436
v 0.00801715 -0.01555556 0.03055000
v 0.01690370 -0.00452933 0.03055000
v 0.01644440 -0.00598596 0.03055000
v 0.01515544 -0.00875000 0.02650000
v 0.01690370 -0.00452933 0.02650000
v 0.01750000 0.00000000 0.02650000
v 0.01750000 0.00000000 0.03055000
v 0.01690370 0.00452933 0.02650000
v 0.01690370 0.00452933 0.03055000
v 0.01515544 0.00875000 0.02650000
v 0.01515544 0.00875000 0.03055000
v 0.01237437 0.01237437 0.02650000
v 0.01237437 0.01237437 0.03055000
v 0.00875000 0.01515544 0.02650000
v 0.00875000 0.01515544 0.03055000
v 0.00452933 0.01690370 0.02650000
v 0.00452933 0.01690370 0.03055000
v 0.00000000 0.01750000 0.02650000
v 0.00000000 0.01750000 0.03055000
v -0.00129228 0.01745222 0.03055000
v -0.00129228 0.01745222 0.02855000
v -0.00452933 0.01690370 0.02855000
v -0.00452933 0.01690370 0.02650000
v -0.00875000 0.01515544 0.02650000
v -0.01237437 0.01237437 0.02650000
v -0.00898352 0.01501820 0.02855000
v -0.00875000 0.01515544 0.02855000
v -0.01237437 -0.01237437 0.02855000
v -0.01256441 -0.01218136 0.02855000
v -0.01515544 -0.00875000 0.02650000
v -0.01237437 -0.01237437 0.02650000
v -0.00875000 -0.01515544 0.02650000
v -0.00875000 -0.01515544 0.02855000
v -0.00568669 -0.01655027 0.02855000
v -0.00452933 -0.01690370 0.02650000
v -0.00568669 -0.01655027 0.03055000
v -0.00452933 -0.01690370 0.03055000
v -0.00000000 -0.01750000 0.02650000
v -0.00000000 -0.01750000 0.03055000
v 0.00452933 -0.01690370 0.02650000
v 0.00452933 -0.01690370 0.03055000
v -0.01515544 0.00875000 0.02650000
v -0.01690370 0.00452933 0.02650000
v -0.01750000 0.00000000 0.02650000
v -0.01690370 -0.00452933 0.02650000
v 0.00875000 -0.01515544 0.02650000
v 0.01237437 -0.01237437 0.02650000
v 0.00544864 -0.02117851 0.03055000
v 0.00572519 -0.02200000 0.03055000
v -0.01181206 -0.02185569 0.03055000
v -0.01750000 -0.02200000 0.03055000
v -0.01750000 -0.02185569 0.03055000
v 0.00632925 -0.01697157 0.03055000
v 0.00541383 -0.01897559 0.03055000
v -0.00724497 -0.01665991 0.03055000
v -0.00647698 -0.01644667 0.03055000
v -0.00786869 -0.01715616 0.03055000
v 0.06686363 -0.02200000 0.03055000
v 0.04138472 -0.02200000 0.03055000
v 0.04178391 -0.02042659 0.03055000
v 0.01265875 0.02058955 0.03055000
v 0.02210699 -0.00279008 0.03055000
v 0.01977130 -0.00288801 0.03055000
v 0.04138834 -0.01800832 0.03055000
v 0.03989125 -0.01606841 0.03055000
v 0.02423191 -0.00376464 0.03055000
v 0.01773542 -0.00403703 0.03055000
v -0.00090417 0.02658516 0.03055000
v -0.00325258 0.01860152 0.03055000
v -0.00587589 0.02700000 0.03055000
v -0.00716886 0.02700000 0.03055000
v 0.00849310 0.02333500 0.03055000
v 0.00393006 0.02535213 0.03055000
v -0.00277620 0.01795864 0.03055000
v -0.00208593 0.01755395 0.03055000
v 0.04825000 -0.03700000 0.01370544
v 0.04898285 -0.03700000 0.01410556
v 0.04898285 -0.03200000 0.01410556
v 0.04009630 -0.03200000 0.00307933
v 0.04055560 -0.03200000 0.00453596
v 0.04184455 -0.02795000 0.00730000
v 0.04009630 -0.02795000 0.00307933
v 0.03950000 -0.02795000 -0.00145000
v 0.03950000 -0.03200000 -0.00145000
v 0.04009630 -0.02795000 -0.00597933
v 0.04009630 -0.03200000 -0.00597933
v 0.04184455 -0.02795000 -0.01020000
v 0.04184455 -0.03200000 -0.01020000
v 0.04462563 -0.02795000 -0.01382437
v 0.04462563 -0.03200000 -0.01382437
v 0.04825000 -0.02795000 -0.01660545
v 0.04825000 -0.03200000 -0.01660545
v 0.05247067 -0.02795000 -0.01835370
v 0.05247067 -0.03200000 -0.01835370
v 0.05700000 -0.02795000 -0.01895000
v 0.05700000 -0.03200000 -0.01895000
v 0.05829228 -0.03200000 -0.01890222
v 0.05829228 -0.03000000 -0.01890222
v 0.06152933 -0.03000000 -0.01835370
v 0.06152933 -0.02795000 -0.01835370
v 0.06575001 -0.02795000 -0.01660545
v 0.06937436 -0.03700000 -0.01382437
v 0.06598353 -0.03700000 -0.01646820
v 0.06937436 -0.02795000 -0.01382437
v 0.06598353 -0.03000000 -0.01646820
v 0.06575001 -0.03000000 -0.01660545
v 0.06937436 -0.03000000 0.01092437
v 0.06956441 -0.03000000 0.01073136
v 0.07215545 -0.02795000 0.00730000
v 0.06937436 -0.02795000 0.01092437
v 0.06575001 -0.02795000 0.01370544
v 0.06575001 -0.03000000 0.01370544
v 0.06268669 -0.03000000 0.01510027
v 0.06152933 -0.02795000 0.01545370
v 0.06268669 -0.03200000 0.01510027
v 0.06152933 -0.03200000 0.01545370
v 0.05700000 -0.02795000 0.01605000
v 0.05700000 -0.03200000 0.01605000
v 0.05247067 -0.02795000 0.01545370
v 0.05247067 -0.03200000 0.01545370
v 0.04825000 -0.02795000 0.01370544
v 0.04462563 -0.02795000 0.01092437
v 0.04462563 -0.03700000 0.01092437
v 0.04184455 -0.03700000 0.00730000
v 0.04055560 -0.03700000 0.00453596
v 0.07174379 -0.03700000 -0.01087712
v 0.07215545 -0.02795000 -0.01020000
v 0.07215545 -0.03700000 -0.01020000
v 0.07390370 -0.02795000 -0.00597933
v 0.07390370 -0.03700000 -0.00597933
v 0.07450000 -0.02795000 -0.00145000
v 0.07450000 -0.03700000 -0.00145000
v 0.07390370 -0.02795000 0.00307933
v 0.07390370 -0.03700000 0.00307933
v 0.07215545 -0.03700000 0.00730000
v 0.06956441 -0.03700000 0.01073136
v 0.05155136 -0.03200000 0.01972851
v 0.05127481 -0.03200000 0.02055000
v 0.06881206 -0.03200000 0.02040569
v 0.07450000 -0.03200000 0.02055000
v 0.07450000 -0.03200000 0.02040569
v 0.05158616 -0.03200000 0.01752558
v 0.05067075 -0.03200000 0.01552157
v 0.06424497 -0.03200000 0.01520992
v 0.06347698 -0.03200000 0.01499667
v 0.06486869 -0.03200000 0.01570616
v -0.00986364 -0.03200000 0.02055000
v 0.01561528 -0.03200000 0.02055000
v 0.01521609 -0.03200000 0.01897659
v 0.03489301 -0.03200000 0.00134008
v 0.03722870 -0.03200000 0.00143801
v 0.04434124 -0.03200000 -0.02203955
v 0.01561166 -0.03200000 0.01655832
v 0.01710875 -0.03200000 0.01461841
v 0.03276809 -0.03200000 0.00231464
v 0.03926458 -0.03200000 0.00258703
v 0.04850690 -0.03200000 -0.02478500
v 0.05306994 -0.03200000 -0.02680213
v 0.05790417 -0.03200000 -0.02803516
v 0.05908593 -0.03200000 -0.01900395
v 0.06416885 -0.03200000 -0.02845000
v 0.06287589 -0.03200000 -0.02845000
v 0.06025258 -0.03200000 -0.02005152
v 0.05977619 -0.03200000 -0.01940864
v 0.04578734 -0.02745000 -0.01003766
v 0.04851234 -0.02745000 -0.01003766
v 0.04851234 -0.02745000 -0.01190000
v 0.06139992 -0.02745000 -0.01787074
v 0.06241266 -0.02745000 -0.01466266
v 0.06550000 -0.02745000 -0.01617243
v 0.04833975 -0.02745000 0.00355000
v 0.04851234 -0.02745000 0.00713766
v 0.05057212 -0.02745000 0.00621045
v 0.05057212 -0.02745000 -0.00911044
v 0.04833975 -0.02745000 -0.00645000
v 0.05357980 -0.02745000 0.00794693
v 0.05382500 -0.02745000 0.00900000
v 0.05700000 -0.02745000 0.00855000
v 0.06241266 -0.02745000 0.00900000
v 0.06042020 -0.02745000 0.00794693
v 0.06750000 -0.02745000 -0.00452500
v 0.06241266 -0.02745000 -0.01003766
v 0.06342787 -0.02745000 -0.00911044
v 0.06566025 -0.02745000 -0.00645000
v 0.06684808 -0.02745000 -0.00318648
v 0.06684808 -0.02745000 0.00028648
v 0.06750000 -0.02745000 0.00162500
v 0.06042020 -0.02745000 -0.01084693
v 0.06241266 -0.02745000 -0.01190000
v 0.05700000 -0.02745000 -0.01145000
v 0.05382500 -0.02745000 -0.01190000
v 0.05204904 -0.02745000 -0.01152532
v 0.05357980 -0.02745000 -0.01084693
v 0.05150000 -0.02745000 -0.01097628
v 0.05075000 -0.02745000 -0.01077532
v 0.05000000 -0.02745000 -0.01097628
v 0.04578734 -0.02745000 -0.00452500
v 0.04578734 -0.02745000 0.00162500
v 0.04715192 -0.02745000 -0.00318648
v 0.04715192 -0.02745000 0.00028648
v 0.06139992 -0.02745000 0.01497074
v 0.06550000 -0.02745000 0.01327243
v 0.05700000 -0.02745000 0.01555000
v 0.05260007 -0.02745000 0.01497074
v 0.05225000 -0.02745000 0.00937532
v 0.05204904 -0.02745000 0.01012532
v 0.05150000 -0.02745000 0.01067436
v 0.05075000 -0.02745000 0.01087532
v 0.04850000 -0.02745000 0.01327243
v 0.05000000 -0.02745000 0.01067436
v 0.04945096 -0.02745000 0.01012532
v 0.04925000 -0.02745000 0.00937532
v 0.04851234 -0.02745000 0.00900000
v 0.04945096 -0.02745000 0.00862532
v 0.05000000 -0.02745000 0.00807628
v 0.05075000 -0.02745000 0.00787532
v 0.05150000 -0.02745000 0.00807628
v 0.05204904 -0.02745000 0.00862532
v 0.04578734 -0.02745000 0.00900000
v 0.04497918 -0.02745000 0.01057082
v 0.04578734 -0.02745000 0.00713766
v 0.04227757 -0.02745000 0.00705000
v 0.04057926 -0.02745000 0.00294992
v 0.04000000 -0.02745000 -0.00145000
v 0.04057926 -0.02745000 -0.00584992
v 0.04227757 -0.02745000 -0.00995000
v 0.04644511 -0.02745000 -0.01477645
v 0.04497918 -0.02745000 -0.01347082
v 0.04578734 -0.02745000 -0.01190000
v 0.04365981 -0.02745000 -0.01198751
v 0.05260007 -0.02745000 -0.01787074
v 0.05700000 -0.02745000 -0.01845000
v 0.06758691 -0.02745000 -0.01475103
v 0.06750000 -0.02745000 -0.01190000
v 0.06902082 -0.02745000 -0.01347082
v 0.06750000 -0.02745000 -0.01003766
v 0.07172243 -0.02745000 -0.00995000
v 0.07342074 -0.02745000 -0.00584992
v 0.07342074 -0.02745000 0.00294992
v 0.07025000 -0.02745000 -0.00015096
v 0.06950000 -0.02745000 0.00005000
v 0.06875000 -0.02745000 -0.00015096
v 0.06820096 -0.02745000 -0.00070000
v 0.06800000 -0.02745000 -0.00145000
v 0.06820096 -0.02745000 -0.00220000
v 0.06875000 -0.02745000 -0.00274904
v 0.06950000 -0.02745000 -0.00295000
v 0.07025000 -0.02745000 -0.00274904
v 0.07079904 -0.02745000 -0.00220000
v 0.07400000 -0.02745000 -0.00145000
v 0.07100000 -0.02745000 -0.00145000
v 0.07079904 -0.02745000 -0.00070000
v 0.06241266 -0.02745000 0.00713766
v 0.06342787 -0.02745000 0.00621045
v 0.06566025 -0.02745000 0.00355000
v 0.07172243 -0.02745000 0.00705000
v 0.06750000 -0.02745000 0.00713766
v 0.07034020 -0.02745000 0.00908751
v 0.06750000 -0.02745000 0.00900000
v 0.06902082 -0.02745000 0.01057082
v 0.05382500 -0.02745000 -0.01466266
v 0.04945096 -0.02745000 -0.01152532
v 0.04925000 -0.02745000 -0.01227532
v 0.04851234 -0.02745000 -0.01466266
v 0.04945096 -0.02745000 -0.01302532
v 0.05000000 -0.02745000 -0.01357436
v 0.05075000 -0.02745000 -0.01377532
v 0.05150000 -0.02745000 -0.01357436
v 0.05204904 -0.02745000 -0.01302532
v 0.05225000 -0.02745000 -0.01227532
v 0.04850000 -0.02745000 -0.01617243
v -0.01126266 -0.00863766 0.02600000
v -0.00843766 -0.00863766 0.02600000
v -0.00843766 -0.01040000 0.02600000
v -0.00170000 -0.01250000 0.02600000
v -0.00147224 -0.01335000 0.02600000
v -0.00322500 -0.01326266 0.02600000
v 0.00439992 -0.01642074 0.02600000
v 0.00541266 -0.01326266 0.02600000
v 0.00850000 -0.01472243 0.02600000
v -0.00866025 0.00500000 0.02600000
v -0.00843766 0.00863766 0.02600000
v -0.00642787 0.00766044 0.02600000
v -0.01082532 -0.00455000 0.02600000
v -0.01167532 -0.00477776 0.02600000
v -0.01126266 -0.00302500 0.02600000
v -0.00642787 -0.00766045 0.02600000
v -0.00866025 -0.00500000 0.02600000
v -0.00342020 0.00939693 0.02600000
v -0.00322500 0.01040000 0.02600000
v -0.00000000 0.01000000 0.02600000
v 0.00541266 0.01040000 0.02600000
v 0.00342020 0.00939693 0.02600000
v 0.01167532 -0.00477776 0.02600000
v 0.01082532 -0.00455000 0.02600000
v 0.01050000 -0.00302500 0.02600000
v 0.00997532 -0.00477776 0.02600000
v 0.00541266 -0.00863766 0.02600000
v 0.00935308 -0.00710000 0.02600000
v 0.00997532 -0.00772224 0.02600000
v 0.00912532 -0.00625000 0.02600000
v 0.00642788 -0.00766045 0.02600000
v 0.00935308 -0.00540000 0.02600000
v 0.00866025 -0.00500000 0.02600000
v 0.00984808 -0.00173648 0.02600000
v 0.00984808 0.00173648 0.02600000
v 0.01050000 0.00302500 0.02600000
v 0.00342020 -0.00939693 0.02600000
v 0.00541266 -0.01040000 0.02600000
v -0.00000000 -0.01000000 0.02600000
v -0.00322500 -0.01040000 0.02600000
v -0.00342020 -0.00939693 0.02600000
v -0.00997532 -0.00772224 0.02600000
v -0.01082532 -0.00795000 0.02600000
v -0.01167532 -0.00772224 0.02600000
v -0.01229756 -0.00710000 0.02600000
v -0.00935307 -0.00710000 0.02600000
v -0.00912532 -0.00625000 0.02600000
v -0.00935307 -0.00540000 0.02600000
v -0.00984808 -0.00173648 0.02600000
v -0.00997532 -0.00477776 0.02600000
v -0.01229756 0.00540000 0.02600000
v -0.01167532 0.00477776 0.02600000
v -0.01126266 0.00302500 0.02600000
v -0.01082532 0.00455000 0.02600000
v -0.00984808 0.00173648 0.02600000
v -0.00997532 0.00477776 0.02600000
v -0.00935307 0.00540000 0.02600000
v -0.00912532 0.00625000 0.02600000
v -0.00935307 0.00710000 0.02600000
v -0.00997532 0.00772224 0.02600000
v -0.00439992 0.01642074 0.02600000
v -0.00147224 0.01335000 0.02600000
v -0.00170000 0.01250000 0.02600000
v -0.00147224 0.01165000 0.02600000
v -0.00085000 0.01102776 0.02600000
v -0.00000000 0.01080000 0.02600000
v 0.00085000 0.01102776 0.02600000
v 0.00147224 0.01165000 0.02600000
v 0.00439992 0.01642074 0.02600000
v 0.00850000 0.01472243 0.02600000
v 0.00170000 0.01250000 0.02600000
v 0.00147224 0.01335000 0.02600000
v 0.00085000 0.01397224 0.02600000
v 0.00000000 0.01700000 0.02600000
v 0.00000000 0.01420000 0.02600000
v -0.00085000 0.01397224 0.02600000
v -0.00754904 0.01157532 0.02600000
v -0.00775000 0.01082532 0.02600000
v -0.00843766 0.01040000 0.02600000
v -0.00754904 0.01007532 0.02600000
v -0.00700000 0.00952628 0.02600000
v -0.00625000 0.00932532 0.02600000
v -0.00550000 0.00952628 0.02600000
v -0.00495096 0.01007532 0.02600000
v -0.00475000 0.01082532 0.02600000
v -0.00495096 0.01157532 0.02600000
v -0.00550000 0.01212436 0.02600000
v -0.00625000 0.01232532 0.02600000
v -0.00850000 0.01472243 0.02600000
v -0.00700000 0.01212436 0.02600000
v -0.01126266 0.01040000 0.02600000
v -0.01202082 0.01202082 0.02600000
v -0.01126266 0.00863766 0.02600000
v -0.01472243 0.00850000 0.02600000
v -0.01252532 0.00625000 0.02600000
v -0.01642074 0.00439992 0.02600000
v -0.01229756 0.00710000 0.02600000
v -0.01167532 0.00772224 0.02600000
v -0.01082532 0.00795000 0.02600000
v -0.01700000 0.00000000 0.02600000
v -0.01642074 -0.00439992 0.02600000
v -0.01229756 -0.00540000 0.02600000
v -0.01252532 -0.00625000 0.02600000
v -0.01472243 -0.00850000 0.02600000
v -0.01049037 -0.01337729 0.02600000
v -0.01202082 -0.01202082 0.02600000
v -0.01126266 -0.01040000 0.02600000
v -0.01337917 -0.01048798 0.02600000
v -0.00439992 -0.01642074 0.02600000
v -0.00085000 -0.01397224 0.02600000
v -0.00000000 -0.01700000 0.02600000
v -0.00000000 -0.01420000 0.02600000
v 0.00085000 -0.01397224 0.02600000
v 0.01058690 -0.01330103 0.02600000
v 0.01050000 -0.01040000 0.02600000
v 0.01202082 -0.01202082 0.02600000
v 0.01050000 -0.00863766 0.02600000
v 0.01472243 -0.00850000 0.02600000
v 0.01082532 -0.00795000 0.02600000
v 0.01167532 -0.00772224 0.02600000
v 0.01229756 -0.00710000 0.02600000
v 0.01642074 -0.00439992 0.02600000
v 0.01252532 -0.00625000 0.02600000
v 0.01229756 -0.00540000 0.02600000
v 0.01175000 0.00129904 0.02600000
v 0.01120096 0.00075000 0.02600000
v 0.01100000 0.00000000 0.02600000
v 0.01120096 -0.00075000 0.02600000
v 0.01175000 -0.00129904 0.02600000
v 0.01250000 -0.00150000 0.02600000
v 0.01325000 -0.00129904 0.02600000
v 0.01379904 -0.00075000 0.02600000
v 0.01700000 0.00000000 0.02600000
v 0.01400000 0.00000000 0.02600000
v 0.01642074 0.00439992 0.02600000
v 0.01379904 0.00075000 0.02600000
v 0.01325000 0.00129904 0.02600000
v 0.01250000 0.00150000 0.02600000
v 0.00541266 0.00863766 0.02600000
v 0.00935308 0.00710000 0.02600000
v 0.00642788 0.00766044 0.02600000
v 0.00912532 0.00625000 0.02600000
v 0.00866025 0.00500000 0.02600000
v 0.00935308 0.00540000 0.02600000
v 0.00997532 0.00477776 0.02600000
v 0.01082532 0.00455000 0.02600000
v 0.01167532 0.00477776 0.02600000
v 0.01229756 0.00540000 0.02600000
v 0.01252532 0.00625000 0.02600000
v 0.01472243 0.00850000 0.02600000
v 0.01229756 0.00710000 0.02600000
v 0.01167532 0.00772224 0.02600000
v 0.01050000 0.00863766 0.02600000
v 0.01082532 0.00795000 0.02600000
v 0.00997532 0.00772224 0.02600000
v 0.01337917 0.01048798 0.02600000
v 0.01050000 0.01040000 0.02600000
v 0.01202082 0.01202082 0.02600000
v 0.00147224 -0.01335000 0.02600000
v 0.00170000 -0.01250000 0.02600000
v 0.00147224 -0.01165000 0.02600000
v 0.00085000 -0.01102776 0.02600000
v -0.00000000 -0.01080000 0.02600000
v -0.00085000 -0.01102776 0.02600000
v -0.00147224 -0.01165000 0.02600000
v -0.00495096 -0.01157532 0.02600000
v -0.00475000 -0.01082532 0.02600000
v -0.00495096 -0.01007532 0.02600000
v -0.00550000 -0.00952628 0.02600000
v -0.00625000 -0.00932532 0.02600000
v -0.00700000 -0.00952628 0.02600000
v -0.00754904 -0.01007532 0.02600000
v -0.00775000 -0.01082532 0.02600000
v -0.00843766 -0.01326266 0.02600000
v -0.00754904 -0.01157532 0.02600000
v -0.00700000 -0.01212436 0.02600000
v -0.00625000 -0.01232532 0.02600000
v -0.00550000 -0.01212436 0.02600000
v -0.00850000 -0.01472243 0.02600000
v 0.06519759 -0.03700000 -0.01902980
v 0.06416885 -0.03700000 -0.02845000
v 0.06862200 -0.03700000 -0.02637347
v 0.04583734 -0.03700000 0.00792500
v 0.04317468 -0.03700000 0.00480000
v 0.03926458 -0.03700000 0.00258703
v 0.04357661 -0.03700000 0.00330000
v 0.03722870 -0.03700000 0.00143801
v 0.04583734 -0.03700000 -0.00145000
v 0.03489301 -0.03700000 0.00134008
v 0.01813636 -0.03700000 -0.00145000
v 0.03276809 -0.03700000 0.00231464
v 0.00684091 -0.03700000 0.00742500
v 0.01710875 -0.03700000 0.01461841
v 0.00620455 -0.03700000 0.00792500
v 0.01561166 -0.03700000 0.01655832
v -0.00986364 -0.03700000 0.02055000
v 0.01521609 -0.03700000 0.01897659
v 0.01561528 -0.03700000 0.02055000
v 0.05158734 -0.03700000 0.02055000
v 0.05127481 -0.03700000 0.02055000
v 0.05155136 -0.03700000 0.01972851
v 0.05158616 -0.03700000 0.01752558
v 0.05067075 -0.03700000 0.01552157
v 0.05158734 -0.03700000 0.00792500
v 0.06907855 -0.03700000 0.01156971
v 0.06816266 -0.03700000 0.00792500
v 0.06904378 -0.03700000 0.01253805
v 0.07450000 -0.03700000 0.01940569
v 0.07450000 -0.03700000 0.02055000
v 0.06946826 -0.03700000 0.01340909
v 0.06816266 -0.03700000 0.02055000
v 0.06932532 -0.03700000 0.00739808
v 0.07042340 -0.03700000 0.00630000
v 0.07082531 -0.03700000 0.00480000
v 0.07042340 -0.03700000 -0.00620000
v 0.07082531 -0.03700000 -0.00770000
v 0.07042340 -0.03700000 -0.00920000
v 0.06932532 -0.03700000 -0.01029808
v 0.06501302 -0.03700000 -0.01807858
v 0.06529723 -0.03700000 -0.01715224
v 0.06241266 -0.03700000 -0.01082500
v 0.06816266 -0.03700000 -0.01082500
v 0.06287589 -0.03700000 -0.02845000
v 0.05550000 -0.03700000 -0.01135192
v 0.05158734 -0.03700000 -0.01082500
v 0.05440192 -0.03700000 -0.01245000
v 0.05400000 -0.03700000 -0.01395000
v 0.05959808 -0.03700000 -0.01245000
v 0.05850000 -0.03700000 -0.01135192
v 0.05700000 -0.03700000 -0.01095000
v 0.06000000 -0.03700000 -0.01395000
v 0.05440192 -0.03700000 -0.01545000
v 0.04850690 -0.03700000 -0.02478500
v 0.05550000 -0.03700000 -0.01654808
v 0.05306994 -0.03700000 -0.02680213
v 0.05700000 -0.03700000 -0.01695000
v 0.05790417 -0.03700000 -0.02803516
v 0.05850000 -0.03700000 -0.01654808
v 0.05959808 -0.03700000 -0.01545000
v 0.03006818 -0.03700000 -0.01082500
v 0.04434124 -0.03700000 -0.02203955
v 0.04583734 -0.03700000 -0.01082500
v 0.04467468 -0.03700000 -0.01029808
v 0.04357661 -0.03700000 -0.00920000
v 0.02943182 -0.03700000 -0.01032500
v 0.04317468 -0.03700000 -0.00770000
v 0.04357661 -0.03700000 -0.00620000
v 0.06241266 -0.03700000 -0.01032500
v 0.06272642 -0.03700000 -0.00773158
v 0.06007055 -0.03700000 -0.00937601
v 0.05127359 -0.03700000 -0.00773158
v 0.05158734 -0.03700000 -0.01032500
v 0.05392945 -0.03700000 -0.00937601
v 0.05700000 -0.03700000 -0.00995000
v 0.06517552 -0.03700000 0.00087613
v 0.06546374 -0.03700000 -0.00223428
v 0.06816266 -0.03700000 -0.00145000
v 0.07042340 -0.03700000 0.00330000
v 0.06932532 -0.03700000 0.00220192
v 0.06782532 -0.03700000 0.00180000
v 0.06632532 -0.03700000 0.00220192
v 0.06378315 -0.03700000 0.00367239
v 0.06522724 -0.03700000 0.00330000
v 0.06147467 -0.03700000 0.00577685
v 0.06482532 -0.03700000 0.00480000
v 0.06241266 -0.03700000 0.00742500
v 0.05856187 -0.03700000 0.00690527
v 0.05543813 -0.03700000 0.00690527
v 0.04853626 -0.03700000 -0.00223428
v 0.04882448 -0.03700000 0.00087613
v 0.04617468 -0.03700000 0.00180000
v 0.04467468 -0.03700000 0.00220192
v 0.04467468 -0.03700000 -0.00510192
v 0.04617468 -0.03700000 -0.00470000
v 0.04767468 -0.03700000 -0.00510192
v 0.04939111 -0.03700000 -0.00523877
v 0.04877276 -0.03700000 -0.00620000
v 0.04917468 -0.03700000 -0.00770000
v 0.04357661 -0.03700000 0.00630000
v 0.04467468 -0.03700000 0.00739808
v 0.04617468 -0.03700000 0.00780000
v 0.04767468 -0.03700000 0.00739808
v 0.05158734 -0.03700000 0.00742500
v 0.04877276 -0.03700000 0.00630000
v 0.05252533 -0.03700000 0.00577685
v 0.04917468 -0.03700000 0.00480000
v 0.05021686 -0.03700000 0.00367239
v 0.04877276 -0.03700000 0.00330000
v 0.04767468 -0.03700000 0.00220192
v 0.04617468 -0.03700000 -0.01070000
v 0.04767468 -0.03700000 -0.01029808
v 0.04877276 -0.03700000 -0.00920000
v 0.06782532 -0.03700000 -0.01070000
v 0.06632532 -0.03700000 -0.01029808
v 0.06522724 -0.03700000 -0.00920000
v 0.06482532 -0.03700000 -0.00770000
v 0.06460889 -0.03700000 -0.00523877
v 0.06522724 -0.03700000 -0.00620000
v 0.06632532 -0.03700000 -0.00510192
v 0.06782532 -0.03700000 -0.00470000
v 0.06932532 -0.03700000 -0.00510192
v 0.06782532 -0.03700000 0.00780000
v 0.06241266 -0.03700000 0.00792500
v 0.06632532 -0.03700000 0.00739808
v 0.06522724 -0.03700000 0.00630000
v 0.05700000 -0.03700000 0.00805000
v 0.05550000 -0.03700000 0.00845192
v 0.05440192 -0.03700000 0.00955000
v 0.05400000 -0.03700000 0.01105000
v 0.05440192 -0.03700000 0.01255000
v 0.05550000 -0.03700000 0.01364808
v 0.06241266 -0.03700000 0.02055000
v 0.05700000 -0.03700000 0.01405000
v 0.05850000 -0.03700000 0.01364808
v 0.05959808 -0.03700000 0.01255000
v 0.06000000 -0.03700000 0.01105000
v 0.05959808 -0.03700000 0.00955000
v 0.05850000 -0.03700000 0.00845192
v 0.07450000 -0.03000000 0.01940569
v 0.07450000 -0.03000000 0.02040569
v 0.07450000 -0.03188828 0.03182927
v 0.07450000 -0.03260660 0.03115660
v 0.07450000 -0.03188828 0.02204060
v 0.07450000 -0.03499038 0.02805000
v 0.07450000 -0.03648889 0.02443229
v -0.01750000 -0.02085569 0.02855000
v -0.01750000 -0.02185569 0.02855000
v -0.01750000 -0.03327927 0.03043828
v -0.01750000 -0.03260660 0.03115660
v -0.01750000 -0.02349060 0.03043828
v -0.01750000 -0.02950000 0.03354038
v -0.01750000 -0.02588229 0.03503889
v -0.00447467 0.00722684 0.02400000
v -0.00156187 0.00835527 0.02400000
v -0.00000000 0.00850000 0.02400000
v 0.00156187 0.00835527 0.02400000
v 0.00447467 0.00722684 0.02400000
v 0.00678315 0.00512239 0.02400000
v 0.00817552 0.00232614 0.02400000
v 0.00846374 -0.00078428 0.02400000
v 0.00760889 -0.00378878 0.02400000
v 0.00572641 -0.00628158 0.02400000
v 0.00307055 -0.00792601 0.02400000
v -0.00000000 -0.00850000 0.02400000
v -0.00307055 -0.00792601 0.02400000
v -0.00572641 -0.00628158 0.02400000
v -0.00760889 -0.00378878 0.02400000
v -0.00846374 -0.00078428 0.02400000
v -0.00817552 0.00232614 0.03555000
v -0.00817552 0.00232614 0.02400000
v -0.00678315 0.00512239 0.02400000
v 0.05252533 -0.02545000 0.00577685
v 0.05543813 -0.02545000 0.00690527
v 0.05700000 -0.02545000 0.00705000
v 0.05856187 -0.02545000 0.00690527
v 0.06147467 -0.02545000 0.00577685
v 0.06378315 -0.02545000 0.00367239
v 0.06517552 -0.02545000 0.00087613
v 0.06546374 -0.02545000 -0.00223428
v 0.06460889 -0.02545000 -0.00523877
v 0.06272642 -0.02545000 -0.00773158
v 0.06007055 -0.02545000 -0.00937601
v 0.05700000 -0.02545000 -0.00995000
v 0.05392945 -0.02545000 -0.00937601
v 0.05127359 -0.02545000 -0.00773158
v 0.04939111 -0.02545000 -0.00523877
v 0.04853626 -0.02545000 -0.00223428
v 0.04882448 -0.02545000 0.00087613
v 0.05021686 -0.02545000 0.00367239
v -0.01185462 -0.03187688 0.02211434
v -0.01217000 -0.03689013 0.02236214
v -0.01379658 -0.03151056 0.02364017
v -0.01444257 -0.03656215 0.02414774
v -0.01444257 -0.03133040 0.02414774
v 0.00475000 -0.00822724 0.02400000
v 0.00164966 -0.00935567 0.02400000
v -0.00164966 -0.00935567 0.02400000
v -0.00475000 -0.00822724 0.02400000
v -0.00727742 -0.00610648 0.02400000
v -0.00892708 -0.00324919 0.02400000
v -0.00950000 0.00000000 0.02400000
v -0.00892708 0.00324919 0.02400000
v -0.00727742 0.00610648 0.02400000
v -0.00475000 0.00822724 0.02400000
v -0.00164966 0.00935567 0.02400000
v -0.00000000 0.00950000 0.02400000
v 0.00164966 0.00935567 0.02400000
v 0.00475000 0.00822724 0.02400000
v 0.00727742 0.00610648 0.02400000
v 0.00892708 0.00324919 0.02400000
v 0.00950000 0.00000000 0.02400000
v 0.00892708 -0.00324919 0.02400000
v 0.00727742 -0.00610648 0.02400000
v -0.01000000 0.00000000 0.02450000
v -0.00984808 -0.00173648 0.02450000
v -0.00642787 -0.00766045 0.02450000
v -0.00173648 -0.00984808 0.02450000
v -0.00342020 -0.00939693 0.02450000
v -0.00500000 -0.00866025 0.02450000
v -0.00939693 -0.00342020 0.02450000
v -0.00866025 -0.00500000 0.02450000
v -0.00766044 -0.00642788 0.02450000
v -0.00984808 0.00173648 0.02450000
v -0.00939693 0.00342020 0.02450000
v -0.00866025 0.00500000 0.02450000
v -0.00766044 0.00642787 0.02450000
v -0.00642787 0.00766044 0.02450000
v -0.00500000 0.00866025 0.02450000
v -0.00342020 0.00939693 0.02450000
v -0.00173648 0.00984808 0.02450000
v -0.00000000 0.01000000 0.02450000
v 0.00173648 0.00984808 0.02450000
v 0.00342020 0.00939693 0.02450000
v 0.00500000 0.00866025 0.02450000
v 0.00642788 0.00766044 0.02450000
v 0.00866025 0.00500000 0.02450000
v 0.00766044 0.00642787 0.02450000
v 0.01000000 0.00000000 0.02450000
v 0.00984808 0.00173648 0.02450000
v 0.00939693 0.00342020 0.02450000
v 0.00939693 -0.00342020 0.02450000
v 0.00984808 -0.00173648 0.02450000
v 0.00766044 -0.00642788 0.02450000
v 0.00866025 -0.00500000 0.02450000
v 0.00500000 -0.00866025 0.02450000
v 0.00642788 -0.00766045 0.02450000
v -0.00000000 -0.01000000 0.02450000
v 0.00173648 -0.00984808 0.02450000
v 0.00342020 -0.00939693 0.02450000
v 0.06175000 -0.02545000 -0.00967724
v 0.05864966 -0.02545000 -0.01080567
v 0.05535034 -0.02545000 -0.01080567
v 0.05225000 -0.02545000 -0.00967724
v 0.04972258 -0.02545000 -0.00755648
v 0.04807292 -0.02545000 -0.00469919
v 0.04750000 -0.02545000 -0.00145000
v 0.04807292 -0.02545000 0.00179919
v 0.04972258 -0.02545000 0.00465648
v 0.05225000 -0.02545000 0.00677724
v 0.05535034 -0.02545000 0.00790567
v 0.05700000 -0.02545000 0.00805000
v 0.05864966 -0.02545000 0.00790567
v 0.06175000 -0.02545000 0.00677724
v 0.06427742 -0.02545000 0.00465648
v 0.06592708 -0.02545000 0.00179919
v 0.06650000 -0.02545000 -0.00145000
v 0.06592708 -0.02545000 -0.00469919
v 0.06427742 -0.02545000 -0.00755648
v 0.06639693 -0.02595000 0.00197020
v 0.06566025 -0.02595000 0.00355000
v 0.04700000 -0.02595000 -0.00145000
v 0.04715192 -0.02595000 -0.00318648
v 0.05057212 -0.02595000 -0.00911044
v 0.05526351 -0.02595000 -0.01129808
v 0.05357980 -0.02595000 -0.01084693
v 0.05200000 -0.02595000 -0.01011025
v 0.04760307 -0.02595000 -0.00487020
v 0.04833975 -0.02595000 -0.00645000
v 0.04933956 -0.02595000 -0.00787787
v 0.04715192 -0.02595000 0.00028648
v 0.04760307 -0.02595000 0.00197020
v 0.04833975 -0.02595000 0.00355000
v 0.04933956 -0.02595000 0.00497788
v 0.05057212 -0.02595000 0.00621045
v 0.05200000 -0.02595000 0.00721025
v 0.05357980 -0.02595000 0.00794693
v 0.05526351 -0.02595000 0.00839808
v 0.05700000 -0.02595000 0.00855000
v 0.05873648 -0.02595000 0.00839808
v 0.06042020 -0.02595000 0.00794693
v 0.06200000 -0.02595000 0.00721025
v 0.06342787 -0.02595000 0.00621045
v 0.06466045 -0.02595000 0.00497788
v 0.06684808 -0.02595000 0.00028648
v 0.06700000 -0.02595000 -0.00145000
v 0.06684808 -0.02595000 -0.00318648
v 0.06639693 -0.02595000 -0.00487020
v 0.06566025 -0.02595000 -0.00645000
v 0.06466045 -0.02595000 -0.00787787
v 0.06342787 -0.02595000 -0.00911044
v 0.05700000 -0.02595000 -0.01145000
v 0.05873648 -0.02595000 -0.01129808
v 0.06042020 -0.02595000 -0.01084693
v 0.06200000 -0.02595000 -0.01011025
v 0.04462563 -0.02795000 -0.01382437
v 0.04462563 -0.02795000 0.01092437
v -0.00716886 0.02700000 0.02855000
v -0.01162200 0.02492346 0.02855000
v -0.01246826 -0.01485909 0.02855000
v -0.00819760 0.01757980 0.02855000
v 0.06416885 -0.03000000 -0.02845000
v 0.06862200 -0.03000000 -0.02637347
v 0.06946826 -0.03000000 0.01340909
v 0.06519759 -0.03000000 -0.01902980
v 0.06885462 -0.02356434 0.03042688
v 0.06917000 -0.02381214 0.03544013
v 0.07079658 -0.02509017 0.03006056
v 0.07144258 -0.02559774 0.03511215
v 0.07144258 -0.02559774 0.02988040
v 0.01601704 -0.03698162 0.02129241
v 0.01681563 -0.03690535 0.02223247
v -0.01478470 -0.03648889 0.02443229
v 0.01782215 -0.03680683 0.02294955
v 0.01897321 -0.03672720 0.02339770
v 0.04669223 -0.03669694 0.02355000
v 0.04779983 -0.03672175 0.02342578
v 0.02019785 -0.03669694 0.02355000
v 0.04884130 -0.03678773 0.02306459
v 0.04978276 -0.03687526 0.02248048
v 0.05057309 -0.03695565 0.02170261
v -0.01608812 -0.03601351 0.02589992
v -0.01670284 -0.03556281 0.02695703
v -0.01741601 -0.03419632 0.02928211
v -0.01713519 -0.03499038 0.02805000
v 0.04098296 -0.02274241 0.03553162
v 0.04018436 -0.02368247 0.03545534
v 0.07178470 -0.02588229 0.03503889
v 0.03917785 -0.02439955 0.03535683
v 0.03802680 -0.02484770 0.03527721
v 0.01030776 -0.02500000 0.03524694
v 0.00920017 -0.02487578 0.03527175
v 0.03680215 -0.02500000 0.03524694
v 0.00815870 -0.02451459 0.03533773
v 0.00721723 -0.02393048 0.03542526
v 0.00642691 -0.02315261 0.03550565
v 0.07308811 -0.02734992 0.03456351
v 0.07370284 -0.02840703 0.03411281
v 0.07441601 -0.03073211 0.03274633
v 0.07413519 -0.02950000 0.03354038
v 0.00815870 -0.02451459 0.03022868
v 0.00919882 -0.02487547 0.03012767
v -0.01749108 -0.02509017 0.03006056
v 0.00642691 -0.02315261 0.03048335
v 0.00721738 -0.02393059 0.03036187
v 0.01030776 -0.02500000 0.03008939
v 0.03680215 -0.02500000 0.03008939
v 0.03802810 -0.02484738 0.03013606
v 0.03917785 -0.02439955 0.03025784
v 0.04098296 -0.02274241 0.03052241
v 0.04018363 -0.02368314 0.03040733
v -0.01729531 -0.02787785 0.02864017
v -0.01743992 -0.02654070 0.02945966
v 0.07429531 -0.03009017 0.02642785
v 0.07443992 -0.03090966 0.02509070
v 0.07449108 -0.03151056 0.02364017
v 0.07234942 -0.02643079 0.02951483
v 0.07342217 -0.02787785 0.02864017
v -0.01684510 -0.02940715 0.02726819
v 0.07384511 -0.02871819 0.02795716
v -0.01642217 -0.03009017 0.02642785
v -0.01534942 -0.03096483 0.02498079
v 0.04884130 -0.03167868 0.02306459
v 0.04780118 -0.03157767 0.02342547
v 0.05057309 -0.03193335 0.02170261
v 0.04978261 -0.03181187 0.02248059
v 0.04669223 -0.03153939 0.02355000
v 0.02019785 -0.03153939 0.02355000
v 0.01897190 -0.03158606 0.02339738
v 0.01782215 -0.03170784 0.02294955
v 0.01601704 -0.03197241 0.02129241
v 0.01681637 -0.03185733 0.02223314
v 0.06025258 -0.03000000 -0.02005152
v 0.05908593 -0.03000000 -0.01900395
v 0.06529723 -0.03000000 -0.01715224
v 0.06501302 -0.03000000 -0.01807858
v 0.05977619 -0.03000000 -0.01940864
v 0.06486869 -0.03000000 0.01570616
v 0.06881206 -0.03000000 0.02040569
v 0.06347698 -0.03000000 0.01499667
v 0.06424497 -0.03000000 0.01520992
v 0.06907855 -0.03000000 0.01156971
v 0.06904378 -0.03000000 0.01253805
v -0.00325258 0.01860152 0.02855000
v -0.00208593 0.01755395 0.02855000
v -0.00829723 0.01570224 0.02855000
v -0.00801302 0.01662858 0.02855000
v -0.00277620 0.01795864 0.02855000
v -0.00786869 -0.01715616 0.02855000
v -0.01181206 -0.02185569 0.02855000
v -0.00647698 -0.01644667 0.02855000
v -0.00724497 -0.01665991 0.02855000
v -0.01207855 -0.01301971 0.02855000
v -0.01204378 -0.01398805 0.02855000
v 0.05850000 -0.03200000 0.00845192
v 0.05959808 -0.03200000 0.00955000
v 0.06000000 -0.03200000 0.01105000
v 0.05959808 -0.03200000 0.01255000
v 0.05850000 -0.03200000 0.01364808
v 0.05700000 -0.03200000 0.01405000
v 0.05550000 -0.03200000 0.01364808
v 0.05440192 -0.03200000 0.01255000
v 0.05400000 -0.03200000 0.01105000
v 0.05440192 -0.03200000 0.00955000
v 0.05550000 -0.03200000 0.00845192
v 0.05700000 -0.03200000 0.00805000
v 0.06632532 -0.03200000 0.00220192
v 0.06782532 -0.03200000 0.00180000
v 0.06932532 -0.03200000 0.00220192
v 0.07042340 -0.03200000 0.00330000
v 0.07082531 -0.03200000 0.00480000
v 0.07042340 -0.03200000 0.00630000
v 0.06932532 -0.03200000 0.00739808
v 0.06782532 -0.03200000 0.00780000
v 0.06632532 -0.03200000 0.00739808
v 0.06522724 -0.03200000 0.00630000
v 0.06482532 -0.03200000 0.00480000
v 0.06522724 -0.03200000 0.00330000
v 0.07082531 -0.03200000 -0.00770000
v 0.07042340 -0.03200000 -0.00620000
v 0.06932532 -0.03200000 -0.00510192
v 0.06782532 -0.03200000 -0.00470000
v 0.06632532 -0.03200000 -0.00510192
v 0.06522724 -0.03200000 -0.00620000
v 0.06482532 -0.03200000 -0.00770000
v 0.06522724 -0.03200000 -0.00920000
v 0.06632532 -0.03200000 -0.01029808
v 0.06782532 -0.03200000 -0.01070000
v 0.06932532 -0.03200000 -0.01029808
v 0.07042340 -0.03200000 -0.00920000
v 0.05959808 -0.03200000 -0.01545000
v 0.06000000 -0.03200000 -0.01395000
v 0.05959808 -0.03200000 -0.01245000
v 0.05850000 -0.03200000 -0.01135192
v 0.05700000 -0.03200000 -0.01095000
v 0.05550000 -0.03200000 -0.01135192
v 0.05440192 -0.03200000 -0.01245000
v 0.05400000 -0.03200000 -0.01395000
v 0.05440192 -0.03200000 -0.01545000
v 0.05550000 -0.03200000 -0.01654808
v 0.05700000 -0.03200000 -0.01695000
v 0.05850000 -0.03200000 -0.01654808
v 0.04467468 -0.03200000 -0.01029808
v 0.04617468 -0.03200000 -0.01070000
v 0.04767468 -0.03200000 -0.01029808
v 0.04877276 -0.03200000 -0.00920000
v 0.04917468 -0.03200000 -0.00770000
v 0.04877276 -0.03200000 -0.00620000
v 0.04767468 -0.03200000 -0.00510192
v 0.04617468 -0.03200000 -0.00470000
v 0.04467468 -0.03200000 -0.00510192
v 0.04357661 -0.03200000 -0.00620000
v 0.04317468 -0.03200000 -0.00770000
v 0.04357661 -0.03200000 -0.00920000
v 0.04357661 -0.03200000 0.00330000
v 0.04467468 -0.03200000 0.00220192
v 0.04617468 -0.03200000 0.00180000
v 0.04767468 -0.03200000 0.00220192
v 0.04877276 -0.03200000 0.00330000
v 0.04917468 -0.03200000 0.00480000
v 0.04877276 -0.03200000 0.00630000
v 0.04767468 -0.03200000 0.00739808
v 0.04617468 -0.03200000 0.00780000
v 0.04467468 -0.03200000 0.00739808
v 0.04357661 -0.03200000 0.00630000
v 0.04317468 -0.03200000 0.00480000
v -0.00170000 -0.01250000 0.03055000
v -0.00147224 -0.01335000 0.03055000
v -0.00085000 -0.01397224 0.03055000
v -0.00000000 -0.01420000 0.03055000
v 0.00085000 -0.01397224 0.03055000
v 0.00147224 -0.01335000 0.03055000
v 0.00170000 -0.01250000 0.03055000
v 0.00147224 -0.01165000 0.03055000
v 0.00085000 -0.01102776 0.03055000
v -0.00000000 -0.01080000 0.03055000
v -0.00085000 -0.01102776 0.03055000
v -0.00147224 -0.01165000 0.03055000
v -0.00259808 -0.01400000 0.03055000
v -0.00150000 -0.01509808 0.03055000
v -0.00000000 -0.01550000 0.03055000
v 0.00150000 -0.01509808 0.03055000
v 0.00259808 -0.01400000 0.03055000
v 0.00300000 -0.01250000 0.03055000
v 0.00259808 -0.01100000 0.03055000
v 0.00150000 -0.00990192 0.03055000
v -0.00000000 -0.00950000 0.03055000
v -0.00150000 -0.00990192 0.03055000
v -0.00259808 -0.01100000 0.03055000
v -0.00300000 -0.01250000 0.03055000
v -0.01252532 -0.00625000 0.03055000
v -0.01229756 -0.00710000 0.03055000
v -0.01167532 -0.00772224 0.03055000
v -0.01082532 -0.00795000 0.03055000
v -0.00997532 -0.00772224 0.03055000
v -0.00935307 -0.00710000 0.03055000
v -0.00912532 -0.00625000 0.03055000
v -0.00935307 -0.00540000 0.03055000
v -0.00997532 -0.00477776 0.03055000
v -0.01082532 -0.00455000 0.03055000
v -0.01167532 -0.00477776 0.03055000
v -0.01229756 -0.00540000 0.03055000
v -0.01342339 -0.00775000 0.03055000
v -0.01232532 -0.00884808 0.03055000
v -0.01082532 -0.00925000 0.03055000
v -0.00932532 -0.00884808 0.03055000
v -0.00822724 -0.00775000 0.03055000
v -0.00782532 -0.00625000 0.03055000
v -0.00822724 -0.00475000 0.03055000
v -0.00932532 -0.00365192 0.03055000
v -0.01082532 -0.00325000 0.03055000
v -0.01232532 -0.00365192 0.03055000
v -0.01342339 -0.00475000 0.03055000
v -0.01382532 -0.00625000 0.03055000
v -0.01252532 0.00625000 0.03055000
v -0.01229756 0.00540000 0.03055000
v -0.01167532 0.00477776 0.03055000
v -0.01082532 0.00455000 0.03055000
v -0.00997532 0.00477776 0.03055000
v -0.00935307 0.00540000 0.03055000
v -0.00912532 0.00625000 0.03055000
v -0.00935307 0.00710000 0.03055000
v -0.00997532 0.00772224 0.03055000
v -0.01082532 0.00795000 0.03055000
v -0.01167532 0.00772224 0.03055000
v -0.01229756 0.00710000 0.03055000
v -0.01342339 0.00475000 0.03055000
v -0.01232532 0.00365192 0.03055000
v -0.01082532 0.00325000 0.03055000
v -0.00932532 0.00365192 0.03055000
v -0.00822724 0.00475000 0.03055000
v -0.00782532 0.00625000 0.03055000
v -0.00822724 0.00775000 0.03055000
v -0.00932532 0.00884808 0.03055000
v -0.01082532 0.00925000 0.03055000
v -0.01232532 0.00884808 0.03055000
v -0.01342339 0.00775000 0.03055000
v -0.01382532 0.00625000 0.03055000
v -0.00170000 0.01250000 0.03055000
v -0.00147224 0.01165000 0.03055000
v -0.00085000 0.01102776 0.03055000
v -0.00000000 0.01080000 0.03055000
v 0.00085000 0.01102776 0.03055000
v 0.00147224 0.01165000 0.03055000
v 0.00170000 0.01250000 0.03055000
v 0.00147224 0.01335000 0.03055000
v 0.00085000 0.01397224 0.03055000
v 0.00000000 0.01420000 0.03055000
v -0.00085000 0.01397224 0.03055000
v -0.00147224 0.01335000 0.03055000
v -0.00259808 0.01100000 0.03055000
v -0.00150000 0.00990192 0.03055000
v -0.00000000 0.00950000 0.03055000
v 0.00150000 0.00990192 0.03055000
v 0.00259808 0.01100000 0.03055000
v 0.00300000 0.01250000 0.03055000
v 0.00259808 0.01400000 0.03055000
v 0.00150000 0.01509808 0.03055000
v 0.00000000 0.01550000 0.03055000
v -0.00150000 0.01509808 0.03055000
v -0.00259808 0.01400000 0.03055000
v -0.00300000 0.01250000 0.03055000
v 0.00912532 0.00625000 0.03055000
v 0.00935308 0.00540000 0.03055000
v 0.00997532 0.00477776 0.03055000
v 0.01082532 0.00455000 0.03055000
v 0.01167532 0.00477776 0.03055000
v 0.01229756 0.00540000 0.03055000
v 0.01252532 0.00625000 0.03055000
v 0.01229756 0.00710000 0.03055000
v 0.01167532 0.00772224 0.03055000
v 0.01082532 0.00795000 0.03055000
v 0.00997532 0.00772224 0.03055000
v 0.00935308 0.00710000 0.03055000
v 0.00822724 0.00475000 0.03055000
v 0.00932532 0.00365192 0.03055000
v 0.01082532 0.00325000 0.03055000
v 0.01232532 0.00365192 0.03055000
v 0.01342339 0.00475000 0.03055000
v 0.01382532 0.00625000 0.03055000
v 0.01342339 0.00775000 0.03055000
v 0.01232532 0.00884808 0.03055000
v 0.01082532 0.00925000 0.03055000
v 0.00932532 0.00884808 0.03055000
v 0.00822724 0.00775000 0.03055000
v 0.00782532 0.00625000 0.03055000
v 0.00912532 -0.00625000 0.03055000
v 0.00935308 -0.00710000 0.03055000
v 0.00997532 -0.00772224 0.03055000
v 0.01082532 -0.00795000 0.03055000
v 0.01167532 -0.00772224 0.03055000
v 0.01229756 -0.00710000 0.03055000
v 0.01252532 -0.00625000 0.03055000
v 0.01229756 -0.00540000 0.03055000
v 0.01167532 -0.00477776 0.03055000
v 0.01082532 -0.00455000 0.03055000
v 0.00997532 -0.00477776 0.03055000
v 0.00935308 -0.00540000 0.03055000
v 0.00822724 -0.00775000 0.03055000
v 0.00932532 -0.00884808 0.03055000
v 0.01082532 -0.00925000 0.03055000
v 0.01232532 -0.00884808 0.03055000
v 0.01342339 -0.00775000 0.03055000
v 0.01382532 -0.00625000 0.03055000
v 0.01342339 -0.00475000 0.03055000
v 0.01232532 -0.00365192 0.03055000
v 0.01082532 -0.00325000 0.03055000
v 0.00932532 -0.00365192 0.03055000
v 0.00822724 -0.00475000 0.03055000
v 0.00782532 -0.00625000 0.03055000
v 0.01250000 0.00150000 0.03000000
v 0.01325000 0.00129904 0.03000000
v 0.01379904 0.00075000 0.03000000
v 0.01400000 0.00000000 0.03000000
v 0.01379904 -0.00075000 0.03000000
v 0.01325000 -0.00129904 0.03000000
v 0.01250000 -0.00150000 0.03000000
v 0.01175000 -0.00129904 0.03000000
v 0.01120096 -0.00075000 0.03000000
v 0.01100000 0.00000000 0.03000000
v 0.01120096 0.00075000 0.03000000
v 0.01175000 0.00129904 0.03000000
v 0.01250000 0.00000000 0.03000000
v -0.00475000 0.01082532 0.03000000
v -0.00495096 0.01007532 0.03000000
v -0.00550000 0.00952628 0.03000000
v -0.00625000 0.00932532 0.03000000
v -0.00700000 0.00952628 0.03000000
v -0.00754904 0.01007532 0.03000000
v -0.00775000 0.01082532 0.03000000
v -0.00754904 0.01157532 0.03000000
v -0.00700000 0.01212436 0.03000000
v -0.00625000 0.01232532 0.03000000
v -0.00550000 0.01212436 0.03000000
v -0.00495096 0.01157532 0.03000000
v -0.00625000 0.01082532 0.03000000
v -0.00475000 -0.01082532 0.03000000
v -0.00495096 -0.01157532 0.03000000
v -0.00550000 -0.01212436 0.03000000
v -0.00625000 -0.01232532 0.03000000
v -0.00700000 -0.01212436 0.03000000
v -0.00754904 -0.01157532 0.03000000
v -0.00775000 -0.01082532 0.03000000
v -0.00754904 -0.01007532 0.03000000
v -0.00700000 -0.00952628 0.03000000
v -0.00625000 -0.00932532 0.03000000
v -0.00550000 -0.00952628 0.03000000
v -0.00495096 -0.01007532 0.03000000
v -0.00625000 -0.01082532 0.03000000
v 0.06950000 -0.03145000 0.00005000
v 0.07025000 -0.03145000 -0.00015096
v 0.07079904 -0.03145000 -0.00070000
v 0.07100000 -0.03145000 -0.00145000
v 0.07079904 -0.03145000 -0.00220000
v 0.07025000 -0.03145000 -0.00274904
v 0.06950000 -0.03145000 -0.00295000
v 0.06875000 -0.03145000 -0.00274904
v 0.06820096 -0.03145000 -0.00220000
v 0.06800000 -0.03145000 -0.00145000
v 0.06820096 -0.03145000 -0.00070000
v 0.06875000 -0.03145000 -0.00015096
v 0.06950000 -0.03145000 -0.00145000
v 0.05225000 -0.03145000 0.00937532
v 0.05204904 -0.03145000 0.00862532
v 0.05150000 -0.03145000 0.00807628
v 0.05075000 -0.03145000 0.00787532
v 0.05000000 -0.03145000 0.00807628
v 0.04945096 -0.03145000 0.00862532
v 0.04925000 -0.03145000 0.00937532
v 0.04945096 -0.03145000 0.01012532
v 0.05000000 -0.03145000 0.01067436
v 0.05075000 -0.03145000 0.01087532
v 0.05150000 -0.03145000 0.01067436
v 0.05204904 -0.03145000 0.01012532
v 0.05075000 -0.03145000 0.00937532
v 0.05225000 -0.03145000 -0.01227532
v 0.05204904 -0.03145000 -0.01302532
v 0.05150000 -0.03145000 -0.01357436
v 0.05075000 -0.03145000 -0.01377532
v 0.05000000 -0.03145000 -0.01357436
v 0.04945096 -0.03145000 -0.01302532
v 0.04925000 -0.03145000 -0.01227532
v 0.04945096 -0.03145000 -0.01152532
v 0.05000000 -0.03145000 -0.01097628
v 0.05075000 -0.03145000 -0.01077532
v 0.05150000 -0.03145000 -0.01097628
v 0.05204904 -0.03145000 -0.01152532
v 0.05075000 -0.03145000 -0.01227532
f 1 2 3
f 4 5 6
f 7 8 9
f 10 11 12
f 12 11 9
f 13 14 15
f 15 14 16
f 15 16 10
f 12 17 10
f 10 17 18
f 10 18 15
f 15 18 19
f 15 19 20
f 20 19 21
f 20 21 22
f 22 21 23
f 22 23 24
f 24 23 25
f 24 25 26
f 26 25 27
f 26 27 28
f 29 30 31
f 32 33 34
f 34 33 35
f 34 35 7
f 7 35 36
f 7 36 8
f 37 38 39
f 40 41 42
f 42 41 43
f 42 43 44
f 45 46 47
f 45 47 48
f 48 47 49
f 48 49 50
f 50 51 52
f 52 51 53
f 52 53 54
f 53 55 54
f 54 55 56
f 54 56 57
f 5 4 58
f 59 60 61
f 61 60 62
f 61 62 63
f 63 62 64
f 63 64 57
f 65 66 61
f 61 66 58
f 61 58 59
f 59 58 4
f 67 68 69
f 69 70 67
f 67 70 71
f 67 71 61
f 61 71 72
f 61 72 65
f 66 73 58
f 58 73 74
f 58 74 75
f 75 74 76
f 75 76 77
f 77 76 78
f 77 78 79
f 79 78 80
f 81 82 83
f 83 82 79
f 83 79 67
f 67 79 80
f 67 80 68
f 84 85 86
f 86 85 87
f 86 87 20
f 20 87 88
f 20 88 15
f 89 90 91
f 91 90 92
f 91 92 93
f 93 92 94
f 93 94 95
f 91 96 97
f 91 97 89
f 89 97 98
f 89 98 99
f 99 98 100
f 99 100 101
f 100 13 101
f 101 13 15
f 101 15 102
f 103 104 105
f 88 106 15
f 15 106 107
f 15 107 102
f 102 107 108
f 102 108 109
f 109 108 110
f 109 110 111
f 112 113 114
f 114 113 115
f 114 115 105
f 105 115 111
f 105 111 103
f 103 111 110
f 116 1 117
f 117 1 3
f 117 3 50
f 50 3 118
f 50 118 51
f 2 1 119
f 119 1 120
f 119 120 121
f 121 120 112
f 121 112 122
f 122 112 114
f 122 114 123
f 49 124 50
f 50 124 125
f 50 125 117
f 117 125 126
f 117 126 116
f 116 126 127
f 116 127 128
f 128 127 129
f 128 129 95
f 95 129 130
f 95 130 93
f 93 130 131
f 45 38 46
f 46 38 37
f 46 37 132
f 132 37 133
f 132 133 134
f 57 56 63
f 63 56 135
f 63 135 61
f 86 81 84
f 84 81 83
f 84 83 136
f 136 83 67
f 136 67 137
f 11 138 9
f 9 138 139
f 9 139 7
f 7 139 140
f 7 140 34
f 135 123 61
f 61 123 114
f 61 114 67
f 67 114 105
f 67 105 137
f 137 105 104
f 131 134 93
f 93 134 133
f 93 133 91
f 91 133 34
f 91 34 96
f 96 34 140
f 141 142 133
f 133 142 143
f 144 145 34
f 34 145 29
f 34 29 32
f 32 29 31
f 143 146 133
f 133 146 147
f 133 147 34
f 34 147 148
f 34 148 144
f 145 149 29
f 29 149 150
f 29 150 151
f 151 150 152
f 151 152 153
f 39 44 37
f 37 44 43
f 37 43 133
f 133 43 151
f 133 151 141
f 141 151 153
f 154 155 156
f 156 155 157
f 156 157 158
f 158 157 159
f 158 159 160
f 160 159 161
f 160 161 162
f 162 161 163
f 162 163 164
f 164 163 165
f 164 165 166
f 166 165 167
f 166 167 168
f 168 167 169
f 168 169 170
f 170 169 171
f 170 171 172
f 172 171 173
f 172 173 174
f 174 173 175
f 174 175 176
f 176 175 177
f 176 177 154
f 154 177 155
f 178 179 180
f 180 179 181
f 180 181 182
f 182 181 183
f 182 183 184
f 184 183 185
f 184 185 186
f 186 185 187
f 186 187 188
f 188 187 189
f 188 189 190
f 190 189 191
f 190 191 192
f 192 191 193
f 192 193 194
f 194 193 195
f 194 195 196
f 196 195 197
f 196 197 198
f 198 197 199
f 198 199 200
f 200 199 201
f 200 201 178
f 178 201 179
f 202 203 204
f 204 203 205
f 204 205 206
f 206 205 207
f 206 207 208
f 208 207 209
f 208 209 210
f 210 209 211
f 210 211 212
f 212 211 213
f 212 213 214
f 214 213 215
f 214 215 216
f 216 215 217
f 216 217 218
f 218 217 219
f 218 219 220
f 220 219 221
f 220 221 222
f 222 221 223
f 222 223 224
f 224 223 225
f 224 225 202
f 202 225 203
f 226 227 228
f 228 227 229
f 228 229 230
f 230 229 231
f 230 231 232
f 232 231 233
f 232 233 234
f 234 233 235
f 234 235 236
f 236 235 237
f 236 237 238
f 238 237 239
f 238 239 240
f 240 239 241
f 240 241 242
f 242 241 243
f 242 243 244
f 244 243 245
f 244 245 246
f 246 245 247
f 246 247 248
f 248 247 249
f 248 249 226
f 226 249 227
f 250 251 252
f 252 251 253
f 252 253 254
f 254 253 255
f 254 255 256
f 256 255 257
f 256 257 258
f 258 257 259
f 258 259 260
f 260 259 261
f 260 261 262
f 262 261 263
f 262 263 264
f 264 263 265
f 264 265 266
f 266 265 267
f 266 267 268
f 268 267 269
f 268 269 270
f 270 269 271
f 270 271 272
f 272 271 273
f 272 273 250
f 250 273 251
f 274 275 276
f 276 275 277
f 276 277 278
f 278 277 279
f 278 279 280
f 280 279 281
f 280 281 282
f 282 281 283
f 282 283 284
f 284 283 285
f 284 285 286
f 286 285 287
f 286 287 288
f 288 287 289
f 288 289 290
f 290 289 291
f 290 291 292
f 292 291 293
f 292 293 294
f 294 293 295
f 294 295 296
f 296 295 297
f 296 297 274
f 274 297 275
f 36 35 298
f 299 300 301
f 301 302 299
f 299 302 303
f 299 303 304
f 304 303 305
f 304 305 306
f 306 305 307
f 306 307 308
f 308 307 309
f 308 309 310
f 310 309 311
f 310 311 312
f 312 311 313
f 312 313 314
f 314 313 315
f 314 315 316
f 317 316 318
f 318 316 315
f 318 315 319
f 319 315 320
f 319 320 321
f 64 62 322
f 322 62 323
f 322 323 321
f 321 323 324
f 321 324 319
f 325 326 327
f 327 328 325
f 325 328 329
f 325 329 330
f 330 329 331
f 331 329 332
f 331 332 333
f 333 332 334
f 334 332 335
f 334 335 336
f 336 335 337
f 336 337 338
f 64 322 57
f 57 322 339
f 57 339 54
f 54 339 340
f 54 340 52
f 52 340 341
f 52 341 50
f 50 341 342
f 50 342 48
f 48 342 327
f 48 327 45
f 45 327 326
f 45 326 38
f 338 337 298
f 298 337 343
f 298 343 36
f 36 343 344
f 36 344 8
f 8 344 301
f 8 301 9
f 9 301 300
f 9 300 12
f 345 346 347
f 347 346 348
f 347 348 349
f 338 298 350
f 338 350 336
f 336 350 351
f 336 351 334
f 352 353 354
f 354 353 333
f 354 333 347
f 347 333 334
f 347 334 345
f 345 334 351
f 355 356 357
f 358 359 360
f 357 361 355
f 355 361 362
f 355 362 358
f 358 362 363
f 358 363 359
f 308 358 306
f 306 358 360
f 306 360 304
f 304 360 364
f 304 364 299
f 299 364 300
f 365 366 367
f 367 366 368
f 308 310 358
f 358 310 312
f 358 312 369
f 369 312 314
f 369 314 370
f 370 314 316
f 370 316 365
f 371 366 372
f 372 366 365
f 372 365 317
f 317 365 316
f 373 374 375
f 376 377 378
f 378 379 376
f 376 379 380
f 376 380 381
f 381 380 382
f 381 382 383
f 383 382 384
f 383 384 385
f 385 384 386
f 385 386 387
f 387 386 388
f 387 388 389
f 389 388 390
f 389 390 391
f 391 390 392
f 391 392 393
f 394 393 395
f 395 393 392
f 395 392 396
f 396 392 397
f 396 397 398
f 399 400 401
f 401 400 402
f 401 402 398
f 398 402 403
f 398 403 396
f 404 405 406
f 406 407 404
f 404 407 408
f 404 408 409
f 409 408 410
f 410 408 411
f 410 411 412
f 412 411 413
f 413 411 414
f 413 414 415
f 415 414 416
f 415 416 417
f 417 416 375
f 375 416 418
f 375 418 373
f 373 418 419
f 373 419 420
f 420 419 378
f 420 378 421
f 421 378 377
f 421 377 422
f 399 401 423
f 423 401 424
f 423 424 425
f 425 424 426
f 425 426 427
f 427 426 428
f 427 428 429
f 429 428 430
f 429 430 431
f 431 430 406
f 431 406 432
f 432 406 405
f 432 405 433
f 434 435 436
f 436 435 437
f 436 437 438
f 413 415 439
f 439 415 417
f 439 417 440
f 440 417 375
f 441 442 443
f 443 442 412
f 443 412 436
f 436 412 413
f 436 413 434
f 434 413 439
f 444 445 446
f 447 448 449
f 446 450 444
f 444 450 451
f 444 451 449
f 449 451 452
f 449 452 447
f 385 449 383
f 383 449 448
f 383 448 381
f 381 448 453
f 381 453 376
f 376 453 377
f 385 387 449
f 449 387 389
f 449 389 454
f 454 389 391
f 454 391 455
f 455 391 393
f 455 393 456
f 456 393 394
f 456 394 457
f 458 459 460
f 460 459 456
f 460 456 461
f 461 456 457
f 462 463 464
f 465 466 467
f 468 469 470
f 471 463 472
f 473 474 475
f 475 474 476
f 475 476 477
f 242 244 478
f 478 244 246
f 479 228 230
f 226 480 248
f 248 480 481
f 248 481 246
f 246 481 482
f 246 482 478
f 478 482 483
f 478 483 484
f 226 228 480
f 480 228 479
f 480 479 485
f 485 479 486
f 485 486 487
f 488 489 490
f 490 489 491
f 490 491 471
f 471 491 492
f 471 492 463
f 463 492 493
f 463 493 464
f 186 463 184
f 184 463 462
f 184 462 182
f 494 495 496
f 496 495 497
f 468 166 469
f 469 166 168
f 469 168 170
f 292 294 474
f 292 474 290
f 294 296 474
f 474 296 274
f 474 274 476
f 476 274 276
f 476 276 278
f 498 499 280
f 280 282 498
f 498 282 284
f 498 284 500
f 500 284 286
f 500 286 501
f 501 286 288
f 501 288 290
f 290 474 501
f 501 474 502
f 501 502 503
f 503 504 501
f 501 504 505
f 501 505 506
f 506 505 507
f 508 509 510
f 510 509 511
f 510 511 469
f 469 511 512
f 469 512 470
f 470 512 513
f 470 513 473
f 473 513 514
f 473 514 474
f 474 514 515
f 474 515 502
f 506 516 517
f 517 516 518
f 517 518 519
f 519 518 172
f 172 174 519
f 519 174 176
f 519 176 520
f 520 176 154
f 156 158 495
f 495 158 160
f 495 160 497
f 497 160 162
f 497 162 468
f 468 162 164
f 468 164 166
f 186 188 463
f 463 188 190
f 463 190 472
f 472 190 192
f 472 192 496
f 496 192 194
f 496 194 494
f 494 194 196
f 494 196 198
f 154 156 520
f 520 156 495
f 520 495 521
f 521 495 494
f 521 494 522
f 522 494 198
f 180 523 178
f 178 523 522
f 178 522 200
f 200 522 198
f 524 525 526
f 526 525 527
f 526 527 523
f 528 224 529
f 529 224 202
f 529 202 465
f 465 202 204
f 465 204 466
f 530 531 532
f 532 531 533
f 532 533 534
f 534 533 232
f 232 234 534
f 534 234 236
f 534 236 535
f 535 236 238
f 535 238 240
f 536 537 484
f 484 537 538
f 484 538 539
f 539 540 484
f 484 540 541
f 484 541 478
f 478 541 542
f 478 542 543
f 543 544 478
f 478 544 535
f 478 535 242
f 242 535 240
f 544 545 535
f 535 545 546
f 535 546 547
f 547 546 548
f 547 548 536
f 536 548 549
f 536 549 537
f 550 272 551
f 551 272 250
f 551 250 552
f 552 250 252
f 552 252 483
f 483 252 254
f 483 254 484
f 484 254 256
f 484 256 536
f 536 256 258
f 258 260 536
f 536 260 262
f 536 262 553
f 262 264 553
f 553 264 266
f 553 266 554
f 554 266 268
f 554 268 550
f 550 268 270
f 550 270 272
f 555 556 557
f 557 556 476
f 557 476 499
f 499 476 278
f 499 278 280
f 204 206 466
f 466 206 208
f 466 208 486
f 486 208 210
f 486 210 212
f 490 487 488
f 488 487 486
f 488 486 214
f 214 486 212
f 214 216 488
f 488 216 218
f 488 218 558
f 558 218 220
f 558 220 222
f 493 559 464
f 464 559 560
f 464 560 561
f 561 560 562
f 562 563 561
f 561 563 564
f 561 564 558
f 564 565 558
f 558 565 566
f 558 566 488
f 488 566 567
f 488 567 489
f 555 553 556
f 556 553 554
f 556 554 476
f 476 554 550
f 476 550 477
f 477 550 551
f 467 466 530
f 530 466 486
f 530 486 531
f 531 486 479
f 531 479 533
f 533 479 230
f 533 230 232
f 507 508 506
f 506 508 510
f 506 510 516
f 516 510 469
f 516 469 518
f 518 469 170
f 518 170 172
f 180 182 523
f 523 182 462
f 523 462 526
f 526 462 464
f 526 464 524
f 524 464 561
f 524 561 568
f 568 561 558
f 568 558 528
f 528 558 222
f 528 222 224
f 569 570 571
f 572 573 574
f 575 576 577
f 578 579 580
f 581 582 583
f 584 570 585
f 586 587 588
f 588 587 589
f 588 589 590
f 591 592 593
f 593 592 594
f 595 596 597
f 598 599 600
f 600 599 601
f 600 601 594
f 594 601 602
f 594 602 593
f 593 602 603
f 593 603 604
f 598 596 599
f 599 596 595
f 599 595 605
f 605 595 606
f 605 606 607
f 607 606 608
f 607 608 609
f 610 570 611
f 611 570 569
f 611 569 612
f 612 569 613
f 610 614 570
f 570 614 615
f 570 615 585
f 585 615 616
f 585 616 617
f 617 616 618
f 581 583 618
f 619 620 621
f 621 620 622
f 578 623 624
f 618 583 617
f 617 583 621
f 617 621 623
f 623 621 622
f 623 622 624
f 624 625 578
f 578 625 626
f 578 626 579
f 579 626 627
f 579 627 628
f 629 630 587
f 587 630 631
f 587 631 632
f 632 633 587
f 587 633 634
f 587 634 589
f 589 634 635
f 589 635 636
f 637 638 639
f 639 640 637
f 637 640 641
f 637 641 642
f 642 641 643
f 642 643 629
f 629 643 644
f 629 644 630
f 645 646 647
f 647 646 648
f 647 648 579
f 579 648 649
f 579 649 580
f 580 649 650
f 580 650 586
f 586 650 651
f 586 651 587
f 651 652 587
f 587 652 653
f 587 653 629
f 629 653 654
f 654 655 629
f 629 655 656
f 629 656 657
f 657 656 658
f 657 659 660
f 660 659 661
f 660 661 662
f 663 664 665
f 665 664 662
f 665 662 666
f 666 662 661
f 666 661 667
f 663 619 664
f 664 619 621
f 664 621 668
f 668 621 583
f 668 583 669
f 669 583 582
f 582 670 669
f 669 670 671
f 669 671 672
f 673 674 675
f 675 674 676
f 675 676 672
f 677 678 679
f 679 678 680
f 679 680 575
f 575 680 681
f 575 681 576
f 682 683 684
f 684 683 685
f 684 685 686
f 686 685 687
f 687 688 686
f 686 688 689
f 686 689 690
f 690 689 691
f 690 691 692
f 693 694 604
f 604 694 695
f 604 695 593
f 593 695 696
f 593 696 697
f 697 698 593
f 593 698 690
f 593 690 591
f 591 690 692
f 698 699 690
f 690 699 700
f 690 700 701
f 701 700 702
f 701 702 703
f 702 704 703
f 703 704 705
f 703 705 604
f 604 705 706
f 604 706 693
f 707 708 709
f 709 708 710
f 709 710 711
f 711 710 712
f 711 712 603
f 603 712 713
f 603 713 604
f 604 713 714
f 604 714 703
f 703 714 715
f 715 716 703
f 703 716 717
f 703 717 718
f 717 719 718
f 718 719 720
f 718 720 721
f 721 720 722
f 721 722 707
f 707 722 723
f 707 723 708
f 724 725 726
f 726 725 589
f 726 589 638
f 638 589 636
f 638 636 639
f 681 727 576
f 576 727 728
f 576 728 606
f 606 728 729
f 729 730 606
f 606 730 731
f 606 731 608
f 608 731 732
f 608 732 733
f 734 608 574
f 574 608 733
f 574 733 572
f 734 735 608
f 608 735 736
f 608 736 609
f 609 736 737
f 609 737 584
f 584 737 738
f 584 738 570
f 570 738 739
f 570 739 571
f 739 740 571
f 571 740 741
f 571 741 742
f 742 741 743
f 743 744 742
f 742 744 745
f 742 745 574
f 574 745 746
f 574 746 734
f 724 718 725
f 725 718 721
f 725 721 589
f 589 721 707
f 589 707 590
f 590 707 709
f 577 576 682
f 682 576 606
f 682 606 683
f 683 606 595
f 683 595 685
f 685 595 597
f 685 597 687
f 658 645 657
f 657 645 647
f 657 647 659
f 659 647 579
f 659 579 661
f 661 579 628
f 661 628 667
f 671 613 672
f 672 613 569
f 672 569 675
f 675 569 571
f 675 571 673
f 673 571 742
f 673 742 747
f 747 742 574
f 747 574 677
f 677 574 573
f 677 573 678
f 367 368 58
f 58 368 5
f 748 749 750
f 751 420 421
f 421 422 752
f 752 422 753
f 752 753 754
f 754 753 755
f 754 755 756
f 756 755 757
f 756 757 758
f 758 757 759
f 758 759 760
f 760 759 761
f 760 761 762
f 762 761 763
f 762 763 764
f 764 763 765
f 764 765 766
f 767 768 769
f 770 771 772
f 772 771 374
f 772 374 751
f 751 374 373
f 751 373 420
f 433 773 774
f 774 773 775
f 776 777 778
f 778 777 779
f 778 779 775
f 432 780 781
f 432 781 431
f 431 781 782
f 431 782 429
f 429 783 427
f 427 783 784
f 427 784 425
f 784 785 425
f 425 785 786
f 425 786 423
f 787 788 789
f 789 788 400
f 789 400 790
f 790 400 399
f 790 399 423
f 749 748 791
f 792 793 794
f 794 793 795
f 796 789 797
f 797 789 798
f 796 799 789
f 789 799 791
f 789 791 787
f 787 791 748
f 800 801 802
f 802 801 803
f 802 803 804
f 804 803 805
f 804 805 806
f 806 805 791
f 806 791 807
f 807 791 799
f 808 809 810
f 810 809 801
f 810 801 793
f 793 801 800
f 793 800 795
f 811 812 813
f 813 812 814
f 813 814 758
f 758 814 815
f 758 815 756
f 816 817 818
f 819 820 821
f 821 820 822
f 823 824 825
f 782 826 429
f 429 826 827
f 429 827 825
f 825 827 828
f 825 828 823
f 823 828 829
f 823 829 830
f 830 829 831
f 830 831 832
f 831 833 832
f 832 833 834
f 832 834 835
f 835 834 836
f 756 837 838
f 838 839 756
f 756 839 840
f 756 840 754
f 815 841 756
f 756 841 842
f 756 842 837
f 837 842 843
f 837 843 844
f 844 843 845
f 844 845 819
f 819 845 846
f 819 846 820
f 752 847 421
f 421 847 848
f 421 848 751
f 751 848 849
f 751 849 772
f 772 849 850
f 772 850 851
f 851 850 852
f 851 852 853
f 853 852 854
f 853 854 855
f 855 854 856
f 855 856 838
f 838 856 857
f 838 857 839
f 813 808 811
f 811 808 810
f 811 810 858
f 858 810 793
f 858 793 859
f 859 793 820
f 859 820 860
f 860 820 846
f 423 786 790
f 790 786 861
f 790 861 789
f 789 861 862
f 789 862 816
f 816 862 863
f 816 863 817
f 817 863 864
f 817 864 865
f 865 864 866
f 865 866 824
f 824 866 867
f 824 867 825
f 825 867 868
f 825 868 429
f 429 868 869
f 429 869 783
f 432 433 780
f 780 433 774
f 780 774 870
f 870 774 871
f 870 871 872
f 872 871 834
f 872 834 873
f 873 834 833
f 874 875 772
f 772 875 876
f 876 877 772
f 772 877 767
f 772 767 770
f 770 767 769
f 877 878 767
f 767 878 879
f 767 879 880
f 879 881 880
f 880 881 882
f 880 882 883
f 884 885 871
f 871 885 886
f 853 836 851
f 851 836 834
f 851 834 772
f 772 834 871
f 772 871 874
f 874 871 886
f 792 798 793
f 793 798 789
f 793 789 820
f 820 789 816
f 820 816 822
f 822 816 818
f 775 779 774
f 774 779 880
f 774 880 871
f 871 880 883
f 871 883 884
f 459 458 791
f 791 458 749
f 777 776 438
f 438 776 887
f 438 887 888
f 889 890 891
f 891 890 892
f 438 437 777
f 777 437 891
f 777 891 893
f 893 891 892
f 41 40 349
f 349 40 894
f 349 894 895
f 896 897 898
f 898 897 899
f 349 348 41
f 41 348 898
f 41 898 900
f 900 898 899
f 901 902 113
f 113 902 903
f 113 903 115
f 115 903 904
f 115 904 111
f 111 904 905
f 111 905 109
f 109 905 906
f 109 906 102
f 102 906 907
f 102 907 101
f 101 907 908
f 101 908 99
f 99 908 909
f 99 909 89
f 89 909 910
f 89 910 90
f 90 910 911
f 90 911 92
f 92 911 912
f 92 912 94
f 94 912 913
f 94 913 95
f 95 913 914
f 95 914 128
f 128 914 915
f 128 915 116
f 116 915 916
f 116 916 917
f 917 916 918
f 917 918 120
f 120 918 919
f 120 919 112
f 112 919 901
f 112 901 113
f 920 921 836
f 836 921 922
f 836 922 835
f 835 922 923
f 835 923 832
f 832 923 924
f 832 924 830
f 830 924 925
f 830 925 823
f 823 925 926
f 823 926 824
f 824 926 927
f 824 927 865
f 865 927 928
f 865 928 817
f 817 928 929
f 817 929 818
f 818 929 930
f 818 930 822
f 822 930 931
f 822 931 821
f 821 931 932
f 821 932 819
f 819 932 933
f 819 933 844
f 844 933 934
f 844 934 837
f 837 934 935
f 837 935 838
f 838 935 936
f 838 936 855
f 855 936 937
f 855 937 853
f 853 937 920
f 853 920 836
f 449 809 808
f 760 444 758
f 758 444 449
f 758 449 813
f 813 449 808
f 760 762 444
f 444 762 764
f 444 764 938
f 938 764 939
f 938 939 940
f 940 939 941
f 940 941 942
f 943 944 912
f 912 944 945
f 912 945 913
f 913 945 946
f 913 946 914
f 914 946 947
f 914 947 915
f 915 947 948
f 915 948 916
f 916 948 949
f 916 949 918
f 918 949 950
f 918 950 919
f 919 950 951
f 919 951 901
f 901 951 952
f 901 952 902
f 902 952 953
f 902 953 903
f 903 953 954
f 903 954 904
f 904 954 955
f 904 955 905
f 905 955 956
f 905 956 906
f 906 956 957
f 906 957 907
f 907 957 958
f 907 958 908
f 908 958 959
f 908 959 909
f 909 959 960
f 909 960 910
f 910 960 961
f 910 961 911
f 911 961 943
f 911 943 912
f 962 963 617
f 609 584 964
f 965 607 966
f 966 607 609
f 966 609 967
f 967 609 964
f 617 963 585
f 963 968 585
f 585 968 969
f 585 969 584
f 584 969 970
f 584 970 964
f 962 617 971
f 971 617 623
f 971 623 972
f 972 623 578
f 972 578 973
f 973 578 974
f 974 578 580
f 974 580 975
f 975 580 976
f 976 580 586
f 976 586 977
f 977 586 978
f 978 586 588
f 978 588 979
f 979 588 980
f 980 588 590
f 980 590 981
f 981 590 982
f 982 590 709
f 982 709 983
f 711 984 709
f 709 984 985
f 709 985 983
f 602 986 603
f 603 986 987
f 603 987 711
f 711 987 988
f 711 988 984
f 601 989 602
f 602 989 990
f 602 990 986
f 599 991 601
f 601 991 992
f 601 992 989
f 605 993 599
f 599 993 994
f 599 994 991
f 965 995 607
f 607 995 996
f 607 996 605
f 605 996 997
f 605 997 993
f 998 999 931
f 931 999 1000
f 931 1000 932
f 932 1000 1001
f 932 1001 933
f 933 1001 1002
f 933 1002 934
f 934 1002 1003
f 934 1003 935
f 935 1003 1004
f 935 1004 936
f 936 1004 1005
f 936 1005 937
f 937 1005 1006
f 937 1006 920
f 920 1006 1007
f 920 1007 921
f 921 1007 1008
f 921 1008 922
f 922 1008 1009
f 922 1009 923
f 923 1009 1010
f 923 1010 924
f 924 1010 1011
f 924 1011 925
f 925 1011 1012
f 925 1012 926
f 926 1012 1013
f 926 1013 927
f 927 1013 1014
f 927 1014 928
f 928 1014 1015
f 928 1015 929
f 929 1015 1016
f 929 1016 930
f 930 1016 998
f 930 998 931
f 1017 1018 552
f 1019 1020 496
f 490 471 1021
f 1022 487 1023
f 1023 487 490
f 1023 490 1024
f 1024 490 1021
f 496 1020 472
f 1020 1025 472
f 472 1025 1026
f 472 1026 471
f 471 1026 1027
f 471 1027 1021
f 1019 496 1028
f 1028 496 497
f 1028 497 1029
f 1029 497 468
f 1029 468 1030
f 1030 468 1031
f 1031 468 470
f 1031 470 1032
f 1032 470 1033
f 1033 470 473
f 1033 473 1034
f 1034 473 1035
f 1035 473 475
f 1035 475 1036
f 1036 475 1037
f 1037 475 477
f 1037 477 1038
f 1038 477 1039
f 1039 477 551
f 1039 551 1040
f 552 1018 551
f 551 1018 1041
f 551 1041 1040
f 1017 552 1042
f 1042 552 483
f 1042 483 1043
f 1043 483 482
f 1043 482 1044
f 1044 482 1045
f 1045 482 481
f 1045 481 1046
f 1046 481 1047
f 1047 481 480
f 1047 480 1048
f 1022 1049 487
f 487 1049 1050
f 487 1050 485
f 485 1050 1051
f 485 1051 480
f 480 1051 1052
f 480 1052 1048
f 344 686 301
f 301 686 690
f 301 690 302
f 302 690 701
f 302 701 303
f 303 701 703
f 303 703 305
f 305 703 718
f 305 718 307
f 307 718 724
f 307 724 309
f 329 677 332
f 332 677 679
f 332 679 335
f 335 679 575
f 335 575 337
f 337 575 577
f 337 577 343
f 343 577 682
f 343 682 344
f 344 682 684
f 344 684 686
f 328 673 329
f 329 673 747
f 329 747 677
f 724 726 309
f 309 726 638
f 309 638 311
f 311 638 637
f 311 637 313
f 313 637 642
f 313 642 315
f 315 642 629
f 315 629 320
f 320 629 657
f 320 657 321
f 321 657 660
f 321 660 322
f 322 660 662
f 322 662 339
f 339 662 664
f 339 664 340
f 340 664 668
f 340 668 341
f 341 668 669
f 341 669 342
f 342 669 672
f 342 672 327
f 327 672 676
f 327 676 328
f 328 676 674
f 328 674 673
f 950 949 962
f 962 971 950
f 950 971 972
f 950 972 951
f 951 972 973
f 973 974 951
f 951 974 975
f 951 975 952
f 975 976 952
f 952 976 977
f 952 977 953
f 953 977 978
f 953 978 954
f 954 978 979
f 954 979 955
f 979 980 955
f 955 980 981
f 955 981 956
f 981 982 956
f 956 982 983
f 956 983 957
f 957 983 985
f 957 985 958
f 958 985 984
f 984 988 958
f 958 988 987
f 958 987 959
f 987 986 959
f 959 986 990
f 959 990 960
f 990 989 960
f 960 989 992
f 960 992 961
f 992 991 961
f 961 991 994
f 961 994 943
f 994 993 943
f 943 993 997
f 943 997 944
f 997 996 944
f 944 996 995
f 944 995 945
f 945 995 965
f 945 965 946
f 965 966 946
f 946 966 967
f 946 967 947
f 967 964 947
f 947 964 970
f 947 970 948
f 970 969 948
f 948 969 968
f 948 968 949
f 949 968 963
f 949 963 962
f 1005 1004 1019
f 1019 1028 1005
f 1005 1028 1029
f 1005 1029 1006
f 1029 1030 1006
f 1006 1030 1031
f 1006 1031 1007
f 1031 1032 1007
f 1007 1032 1033
f 1007 1033 1008
f 1033 1034 1008
f 1008 1034 1035
f 1008 1035 1009
f 1009 1035 1036
f 1009 1036 1010
f 1036 1037 1010
f 1010 1037 1038
f 1010 1038 1011
f 1011 1038 1039
f 1011 1039 1012
f 1012 1039 1040
f 1040 1041 1012
f 1012 1041 1018
f 1012 1018 1013
f 1018 1017 1013
f 1013 1017 1042
f 1013 1042 1014
f 1042 1043 1014
f 1014 1043 1044
f 1014 1044 1015
f 1015 1044 1045
f 1015 1045 1016
f 1016 1045 1046
f 1046 1047 1016
f 1016 1047 1048
f 1016 1048 998
f 1048 1052 998
f 998 1052 1051
f 998 1051 999
f 1051 1050 999
f 999 1050 1049
f 999 1049 1000
f 1000 1049 1022
f 1000 1022 1001
f 1022 1023 1001
f 1001 1023 1024
f 1001 1024 1002
f 1024 1021 1002
f 1002 1021 1027
f 1002 1027 1003
f 1027 1026 1003
f 1003 1026 1025
f 1003 1025 1004
f 1004 1025 1020
f 1004 1020 1019
f 401 534 424
f 424 534 535
f 424 535 426
f 426 535 547
f 426 547 428
f 428 547 536
f 428 536 430
f 430 536 553
f 430 553 406
f 406 553 555
f 406 555 407
f 388 528 390
f 390 528 529
f 390 529 392
f 392 529 465
f 392 465 397
f 397 465 467
f 397 467 398
f 398 467 530
f 398 530 401
f 401 530 532
f 401 532 534
f 1053 524 388
f 388 524 568
f 388 568 528
f 555 557 407
f 407 557 499
f 407 499 408
f 408 499 498
f 408 498 411
f 411 498 500
f 411 500 414
f 414 500 501
f 414 501 416
f 416 501 506
f 416 506 418
f 418 506 517
f 418 517 1054
f 1054 517 519
f 1054 519 378
f 378 519 520
f 378 520 379
f 379 520 521
f 379 521 380
f 380 521 522
f 380 522 382
f 382 522 523
f 382 523 384
f 384 523 527
f 384 527 1053
f 1053 527 525
f 1053 525 524
f 1055 1056 368
f 368 1056 6
f 368 6 5
f 1057 894 42
f 42 894 40
f 4 6 1058
f 1058 6 1056
f 1059 1060 458
f 458 1060 750
f 458 750 749
f 1061 887 778
f 778 887 776
f 748 750 1062
f 1062 750 1060
f 358 82 81
f 22 355 20
f 20 355 358
f 20 358 86
f 86 358 81
f 22 24 355
f 355 24 26
f 355 26 1063
f 1063 26 1064
f 1063 1064 1065
f 1065 1064 1066
f 1065 1066 1067
f 1068 1069 1070
f 1070 1069 1071
f 1070 1071 1072
f 764 766 939
f 939 766 1068
f 939 1068 941
f 941 1068 1070
f 1073 1074 893
f 1073 893 1075
f 1074 1076 893
f 893 1076 1077
f 893 1077 1078
f 768 767 1078
f 1078 767 880
f 1078 880 893
f 893 880 779
f 893 779 777
f 1072 1075 1070
f 1070 1075 893
f 1070 893 1079
f 1079 893 892
f 1079 892 1080
f 897 896 890
f 890 896 1081
f 890 1081 892
f 892 1081 1082
f 892 1082 1080
f 1083 1084 1085
f 1085 1084 1086
f 1085 1086 1087
f 26 28 1064
f 1064 28 1083
f 1064 1083 1066
f 1066 1083 1085
f 1088 1089 900
f 1088 900 1090
f 1089 1091 900
f 900 1091 1092
f 900 1092 1093
f 30 29 1093
f 1093 29 151
f 1093 151 900
f 900 151 43
f 900 43 41
f 1087 1090 1085
f 1085 1090 900
f 1085 900 1094
f 1094 900 899
f 1094 899 1095
f 890 889 897
f 897 889 1096
f 897 1096 899
f 899 1096 1097
f 899 1097 1095
f 1098 1099 1100
f 348 346 898
f 898 346 1101
f 898 1101 1100
f 1100 1101 1102
f 1100 1102 1098
f 1099 1103 1100
f 1100 1103 1104
f 1100 1104 1065
f 1065 1104 1105
f 1065 1105 1106
f 1107 356 355
f 1106 1108 1065
f 1065 1108 1107
f 1065 1107 1063
f 1063 1107 355
f 1067 1109 1065
f 1065 1109 1110
f 1065 1110 1100
f 942 1111 940
f 940 1111 1112
f 940 1112 1113
f 1067 1114 1109
f 1109 1114 1115
f 1109 1115 1116
f 1116 1115 1117
f 1116 1117 1118
f 1118 1117 1111
f 1118 1111 1119
f 1119 1111 942
f 1120 1121 1113
f 437 435 891
f 891 435 1122
f 891 1122 1113
f 1113 1122 1123
f 1113 1123 1120
f 1121 1124 1113
f 1113 1124 1125
f 1113 1125 940
f 940 1125 1126
f 940 1126 1127
f 1128 445 444
f 1127 1129 940
f 940 1129 1128
f 940 1128 938
f 938 1128 444
f 759 452 761
f 761 452 451
f 452 759 447
f 447 759 757
f 447 757 448
f 448 757 755
f 448 755 453
f 453 755 753
f 453 753 377
f 377 753 422
f 1125 1075 1126
f 1126 1075 1072
f 1126 1072 1127
f 1127 1072 1071
f 1127 1071 1129
f 1129 1071 1069
f 1129 1069 1128
f 1128 1069 1068
f 1128 1068 445
f 445 1068 766
f 445 766 446
f 446 766 765
f 446 765 450
f 450 765 763
f 450 763 451
f 451 763 761
f 1125 1124 1075
f 1075 1124 1073
f 375 374 440
f 440 374 771
f 440 771 439
f 439 771 770
f 439 770 434
f 434 770 769
f 434 769 435
f 435 769 768
f 435 768 1122
f 1076 1123 1077
f 1077 1123 1122
f 1077 1122 1078
f 1078 1122 768
f 1073 1124 1074
f 1074 1124 1121
f 1074 1121 1076
f 1076 1121 1120
f 1076 1120 1123
f 21 363 23
f 23 363 362
f 363 21 359
f 359 21 19
f 359 19 360
f 360 19 18
f 360 18 364
f 364 18 17
f 364 17 300
f 300 17 12
f 1104 1090 1105
f 1105 1090 1087
f 1105 1087 1106
f 1106 1087 1086
f 1106 1086 1108
f 1108 1086 1084
f 1108 1084 1107
f 1107 1084 1083
f 1107 1083 356
f 356 1083 28
f 356 28 357
f 357 28 27
f 357 27 361
f 361 27 25
f 361 25 362
f 362 25 23
f 1104 1103 1090
f 1090 1103 1088
f 298 35 350
f 350 35 33
f 350 33 351
f 351 33 32
f 351 32 345
f 345 32 31
f 345 31 346
f 346 31 30
f 346 30 1101
f 1091 1102 1092
f 1092 1102 1101
f 1092 1101 1093
f 1093 1101 30
f 1088 1103 1089
f 1089 1103 1099
f 1089 1099 1091
f 1091 1099 1098
f 1091 1098 1102
f 1130 1059 460
f 460 1059 458
f 1131 395 396
f 403 402 1132
f 403 1132 396
f 396 1132 1133
f 396 1133 1062
f 1060 1059 1062
f 1062 1059 1130
f 1062 1130 396
f 396 1130 1134
f 396 1134 1131
f 443 436 1135
f 1135 436 1136
f 888 1136 438
f 438 1136 436
f 410 1137 409
f 409 1137 1138
f 409 1138 1135
f 1136 888 887
f 1136 887 1135
f 405 404 1139
f 1139 404 409
f 1139 409 1140
f 1140 409 1135
f 1140 1135 1061
f 1061 1135 887
f 1141 1055 366
f 366 1055 368
f 1142 318 319
f 324 323 1143
f 324 1143 319
f 319 1143 1144
f 319 1144 1058
f 1056 1055 1058
f 1058 1055 1141
f 1058 1141 319
f 319 1141 1145
f 319 1145 1142
f 354 347 1146
f 1146 347 1147
f 895 1147 349
f 349 1147 347
f 331 1148 330
f 330 1148 1149
f 330 1149 1146
f 1147 895 894
f 1147 894 1146
f 326 325 1150
f 1150 325 330
f 1150 330 1151
f 1151 330 1146
f 1151 1146 1057
f 1057 1146 894
f 410 412 1137
f 1137 412 442
f 1137 442 1138
f 1138 442 441
f 1138 441 1135
f 1135 441 443
f 331 333 1148
f 1148 333 353
f 1148 353 1149
f 1149 353 352
f 1149 352 1146
f 1146 352 354
f 1130 460 1134
f 1134 460 461
f 1134 461 1131
f 1131 461 457
f 1131 457 395
f 395 457 394
f 1141 366 1145
f 1145 366 371
f 1145 371 1142
f 1142 371 372
f 1142 372 318
f 318 372 317
f 1061 778 1140
f 1140 778 775
f 1140 775 1139
f 1139 775 773
f 1139 773 405
f 405 773 433
f 402 400 1132
f 1132 400 788
f 1132 788 1133
f 1133 788 787
f 1133 787 1062
f 1062 787 748
f 1057 42 1151
f 1151 42 44
f 1151 44 1150
f 1150 44 39
f 1150 39 326
f 326 39 38
f 323 62 1143
f 1143 62 60
f 1143 60 1144
f 1144 60 59
f 1144 59 1058
f 1058 59 4
f 277 1152 279
f 279 1152 1153
f 279 1153 281
f 281 1153 1154
f 281 1154 283
f 283 1154 1155
f 283 1155 285
f 285 1155 1156
f 285 1156 287
f 287 1156 1157
f 287 1157 289
f 289 1157 1158
f 289 1158 291
f 291 1158 1159
f 291 1159 293
f 293 1159 1160
f 293 1160 295
f 295 1160 1161
f 295 1161 297
f 297 1161 1162
f 297 1162 275
f 275 1162 1163
f 275 1163 277
f 277 1163 1152
f 1163 874 1152
f 1152 874 886
f 1152 886 1153
f 1153 886 885
f 1153 885 1154
f 1154 885 884
f 1154 884 1155
f 1155 884 883
f 1155 883 1156
f 1156 883 882
f 1156 882 1157
f 1157 882 881
f 1157 881 1158
f 1158 881 879
f 1158 879 1159
f 1159 879 878
f 1159 878 1160
f 1160 878 877
f 1160 877 1161
f 1161 877 876
f 1161 876 1162
f 1162 876 875
f 1162 875 1163
f 1163 875 874
f 255 1164 257
f 257 1164 1165
f 257 1165 259
f 259 1165 1166
f 259 1166 261
f 261 1166 1167
f 261 1167 263
f 263 1167 1168
f 263 1168 265
f 265 1168 1169
f 265 1169 267
f 267 1169 1170
f 267 1170 269
f 269 1170 1171
f 269 1171 271
f 271 1171 1172
f 271 1172 273
f 273 1172 1173
f 273 1173 251
f 251 1173 1174
f 251 1174 253
f 253 1174 1175
f 253 1175 255
f 255 1175 1164
f 1174 833 1175
f 1175 833 831
f 1175 831 1164
f 1164 831 829
f 1164 829 1165
f 1165 829 828
f 1165 828 1166
f 1166 828 827
f 1166 827 1167
f 1167 827 826
f 1167 826 1168
f 1168 826 782
f 1168 782 1169
f 1169 782 781
f 1169 781 1170
f 1170 781 780
f 1170 780 1171
f 1171 780 870
f 1171 870 1172
f 1172 870 872
f 1172 872 1173
f 1173 872 873
f 1173 873 1174
f 1174 873 833
f 239 1176 241
f 241 1176 1177
f 241 1177 243
f 243 1177 1178
f 243 1178 245
f 245 1178 1179
f 245 1179 247
f 247 1179 1180
f 247 1180 249
f 249 1180 1181
f 249 1181 227
f 227 1181 1182
f 227 1182 229
f 229 1182 1183
f 229 1183 231
f 231 1183 1184
f 231 1184 233
f 233 1184 1185
f 233 1185 235
f 235 1185 1186
f 235 1186 237
f 237 1186 1187
f 237 1187 239
f 239 1187 1176
f 1182 864 1183
f 1183 864 863
f 1183 863 1184
f 1184 863 862
f 1184 862 1185
f 1185 862 861
f 1185 861 1186
f 1186 861 786
f 1186 786 1187
f 1187 786 785
f 1187 785 1176
f 1176 785 784
f 1176 784 1177
f 1177 784 783
f 1177 783 1178
f 1178 783 869
f 1178 869 1179
f 1179 869 868
f 1179 868 1180
f 1180 868 867
f 1180 867 1181
f 1181 867 866
f 1181 866 1182
f 1182 866 864
f 207 1188 209
f 209 1188 1189
f 209 1189 211
f 211 1189 1190
f 211 1190 213
f 213 1190 1191
f 213 1191 215
f 215 1191 1192
f 215 1192 217
f 217 1192 1193
f 217 1193 219
f 219 1193 1194
f 219 1194 221
f 221 1194 1195
f 221 1195 223
f 223 1195 1196
f 223 1196 225
f 225 1196 1197
f 225 1197 203
f 203 1197 1198
f 203 1198 205
f 205 1198 1199
f 205 1199 207
f 207 1199 1188
f 1198 804 1199
f 1199 804 806
f 1199 806 1188
f 1188 806 807
f 1188 807 1189
f 1189 807 799
f 1189 799 1190
f 1190 799 796
f 1190 796 1191
f 1191 796 797
f 1191 797 1192
f 1192 797 798
f 1192 798 1193
f 1193 798 792
f 1193 792 1194
f 1194 792 794
f 1194 794 1195
f 1195 794 795
f 1195 795 1196
f 1196 795 800
f 1196 800 1197
f 1197 800 802
f 1197 802 1198
f 1198 802 804
f 183 1200 185
f 185 1200 1201
f 185 1201 187
f 187 1201 1202
f 187 1202 189
f 189 1202 1203
f 189 1203 191
f 191 1203 1204
f 191 1204 193
f 193 1204 1205
f 193 1205 195
f 195 1205 1206
f 195 1206 197
f 197 1206 1207
f 197 1207 199
f 199 1207 1208
f 199 1208 201
f 201 1208 1209
f 201 1209 179
f 179 1209 1210
f 179 1210 181
f 181 1210 1211
f 181 1211 183
f 183 1211 1200
f 1210 814 1211
f 1211 814 812
f 1211 812 1200
f 1200 812 811
f 1200 811 1201
f 1201 811 858
f 1201 858 1202
f 1202 858 859
f 1202 859 1203
f 1203 859 860
f 1203 860 1204
f 1204 860 846
f 1204 846 1205
f 1205 846 845
f 1205 845 1206
f 1206 845 843
f 1206 843 1207
f 1207 843 842
f 1207 842 1208
f 1208 842 841
f 1208 841 1209
f 1209 841 815
f 1209 815 1210
f 1210 815 814
f 157 1212 159
f 159 1212 1213
f 159 1213 161
f 161 1213 1214
f 161 1214 163
f 163 1214 1215
f 163 1215 165
f 165 1215 1216
f 165 1216 167
f 167 1216 1217
f 167 1217 169
f 169 1217 1218
f 169 1218 171
f 171 1218 1219
f 171 1219 173
f 173 1219 1220
f 173 1220 175
f 175 1220 1221
f 175 1221 177
f 177 1221 1222
f 177 1222 155
f 155 1222 1223
f 155 1223 157
f 157 1223 1212
f 1223 752 1212
f 1212 752 754
f 1212 754 1213
f 1213 754 840
f 1213 840 1214
f 1214 840 839
f 1214 839 1215
f 1215 839 857
f 1215 857 1216
f 1216 857 856
f 1216 856 1217
f 1217 856 854
f 1217 854 1218
f 1218 854 852
f 1218 852 1219
f 1219 852 850
f 1219 850 1220
f 1220 850 849
f 1220 849 1221
f 1221 849 848
f 1221 848 1222
f 1222 848 847
f 1222 847 1223
f 1223 847 752
f 572 1224 573
f 573 1224 1225
f 573 1225 678
f 678 1225 1226
f 678 1226 680
f 680 1226 1227
f 680 1227 681
f 681 1227 1228
f 681 1228 727
f 727 1228 1229
f 727 1229 728
f 728 1229 1230
f 728 1230 729
f 729 1230 1231
f 729 1231 730
f 730 1231 1232
f 730 1232 731
f 731 1232 1233
f 731 1233 732
f 732 1233 1234
f 732 1234 733
f 733 1234 1235
f 733 1235 572
f 572 1235 1224
f 1225 1236 1226
f 1226 1236 1237
f 1226 1237 1227
f 1227 1237 1238
f 1227 1238 1228
f 1228 1238 1239
f 1228 1239 1229
f 1229 1239 1240
f 1229 1240 1230
f 1230 1240 1241
f 1230 1241 1231
f 1231 1241 1242
f 1231 1242 1232
f 1232 1242 1243
f 1232 1243 1233
f 1233 1243 1244
f 1233 1244 1234
f 1234 1244 1245
f 1234 1245 1235
f 1235 1245 1246
f 1235 1246 1224
f 1224 1246 1247
f 1224 1247 1225
f 1225 1247 1236
f 1247 142 1236
f 1236 142 141
f 1236 141 1237
f 1237 141 153
f 1237 153 1238
f 1238 153 152
f 1238 152 1239
f 1239 152 150
f 1239 150 1240
f 1240 150 149
f 1240 149 1241
f 1241 149 145
f 1241 145 1242
f 1242 145 144
f 1242 144 1243
f 1243 144 148
f 1243 148 1244
f 1244 148 147
f 1244 147 1245
f 1245 147 146
f 1245 146 1246
f 1246 146 143
f 1246 143 1247
f 1247 143 142
f 671 1248 613
f 613 1248 1249
f 613 1249 612
f 612 1249 1250
f 612 1250 611
f 611 1250 1251
f 611 1251 610
f 610 1251 1252
f 610 1252 614
f 614 1252 1253
f 614 1253 615
f 615 1253 1254
f 615 1254 616
f 616 1254 1255
f 616 1255 618
f 618 1255 1256
f 618 1256 581
f 581 1256 1257
f 581 1257 582
f 582 1257 1258
f 582 1258 670
f 670 1258 1259
f 670 1259 671
f 671 1259 1248
f 1249 1260 1250
f 1250 1260 1261
f 1250 1261 1251
f 1251 1261 1262
f 1251 1262 1252
f 1252 1262 1263
f 1252 1263 1253
f 1253 1263 1264
f 1253 1264 1254
f 1254 1264 1265
f 1254 1265 1255
f 1255 1265 1266
f 1255 1266 1256
f 1256 1266 1267
f 1256 1267 1257
f 1257 1267 1268
f 1257 1268 1258
f 1258 1268 1269
f 1258 1269 1259
f 1259 1269 1270
f 1259 1270 1248
f 1248 1270 1271
f 1248 1271 1249
f 1249 1271 1260
f 1271 49 1260
f 1260 49 47
f 1260 47 1261
f 1261 47 46
f 1261 46 1262
f 1262 46 132
f 1262 132 1263
f 1263 132 134
f 1263 134 1264
f 1264 134 131
f 1264 131 1265
f 1265 131 130
f 1265 130 1266
f 1266 130 129
f 1266 129 1267
f 1267 129 127
f 1267 127 1268
f 1268 127 126
f 1268 126 1269
f 1269 126 125
f 1269 125 1270
f 1270 125 124
f 1270 124 1271
f 1271 124 49
f 663 1272 619
f 619 1272 1273
f 619 1273 620
f 620 1273 1274
f 620 1274 622
f 622 1274 1275
f 622 1275 624
f 624 1275 1276
f 624 1276 625
f 625 1276 1277
f 625 1277 626
f 626 1277 1278
f 626 1278 627
f 627 1278 1279
f 627 1279 628
f 628 1279 1280
f 628 1280 667
f 667 1280 1281
f 667 1281 666
f 666 1281 1282
f 666 1282 665
f 665 1282 1283
f 665 1283 663
f 663 1283 1272
f 1273 1284 1274
f 1274 1284 1285
f 1274 1285 1275
f 1275 1285 1286
f 1275 1286 1276
f 1276 1286 1287
f 1276 1287 1277
f 1277 1287 1288
f 1277 1288 1278
f 1278 1288 1289
f 1278 1289 1279
f 1279 1289 1290
f 1279 1290 1280
f 1280 1290 1291
f 1280 1291 1281
f 1281 1291 1292
f 1281 1292 1282
f 1282 1292 1293
f 1282 1293 1283
f 1283 1293 1294
f 1283 1294 1272
f 1272 1294 1295
f 1272 1295 1273
f 1273 1295 1284
f 1295 53 1284
f 1284 53 51
f 1284 51 1285
f 1285 51 118
f 1285 118 1286
f 1286 118 3
f 1286 3 1287
f 1287 3 2
f 1287 2 1288
f 1288 2 119
f 1288 119 1289
f 1289 119 121
f 1289 121 1290
f 1290 121 122
f 1290 122 1291
f 1291 122 123
f 1291 123 1292
f 1292 123 135
f 1292 135 1293
f 1293 135 56
f 1293 56 1294
f 1294 56 55
f 1294 55 1295
f 1295 55 53
f 631 1296 632
f 632 1296 1297
f 632 1297 633
f 633 1297 1298
f 633 1298 634
f 634 1298 1299
f 634 1299 635
f 635 1299 1300
f 635 1300 636
f 636 1300 1301
f 636 1301 639
f 639 1301 1302
f 639 1302 640
f 640 1302 1303
f 640 1303 641
f 641 1303 1304
f 641 1304 643
f 643 1304 1305
f 643 1305 644
f 644 1305 1306
f 644 1306 630
f 630 1306 1307
f 630 1307 631
f 631 1307 1296
f 1297 1308 1298
f 1298 1308 1309
f 1298 1309 1299
f 1299 1309 1310
f 1299 1310 1300
f 1300 1310 1311
f 1300 1311 1301
f 1301 1311 1312
f 1301 1312 1302
f 1302 1312 1313
f 1302 1313 1303
f 1303 1313 1314
f 1303 1314 1304
f 1304 1314 1315
f 1304 1315 1305
f 1305 1315 1316
f 1305 1316 1306
f 1306 1316 1317
f 1306 1317 1307
f 1307 1317 1318
f 1307 1318 1296
f 1296 1318 1319
f 1296 1319 1297
f 1297 1319 1308
f 1319 66 1308
f 1308 66 65
f 1308 65 1309
f 1309 65 72
f 1309 72 1310
f 1310 72 71
f 1310 71 1311
f 1311 71 70
f 1311 70 1312
f 1312 70 69
f 1312 69 1313
f 1313 69 68
f 1313 68 1314
f 1314 68 80
f 1314 80 1315
f 1315 80 78
f 1315 78 1316
f 1316 78 76
f 1316 76 1317
f 1317 76 74
f 1317 74 1318
f 1318 74 73
f 1318 73 1319
f 1319 73 66
f 710 1320 712
f 712 1320 1321
f 712 1321 713
f 713 1321 1322
f 713 1322 714
f 714 1322 1323
f 714 1323 715
f 715 1323 1324
f 715 1324 716
f 716 1324 1325
f 716 1325 717
f 717 1325 1326
f 717 1326 719
f 719 1326 1327
f 719 1327 720
f 720 1327 1328
f 720 1328 722
f 722 1328 1329
f 722 1329 723
f 723 1329 1330
f 723 1330 708
f 708 1330 1331
f 708 1331 710
f 710 1331 1320
f 1321 1332 1322
f 1322 1332 1333
f 1322 1333 1323
f 1323 1333 1334
f 1323 1334 1324
f 1324 1334 1335
f 1324 1335 1325
f 1325 1335 1336
f 1325 1336 1326
f 1326 1336 1337
f 1326 1337 1327
f 1327 1337 1338
f 1327 1338 1328
f 1328 1338 1339
f 1328 1339 1329
f 1329 1339 1340
f 1329 1340 1330
f 1330 1340 1341
f 1330 1341 1331
f 1331 1341 1342
f 1331 1342 1320
f 1320 1342 1343
f 1320 1343 1321
f 1321 1343 1332
f 1343 103 1332
f 1332 103 110
f 1332 110 1333
f 1333 110 108
f 1333 108 1334
f 1334 108 107
f 1334 107 1335
f 1335 107 106
f 1335 106 1336
f 1336 106 88
f 1336 88 1337
f 1337 88 87
f 1337 87 1338
f 1338 87 85
f 1338 85 1339
f 1339 85 84
f 1339 84 1340
f 1340 84 136
f 1340 136 1341
f 1341 136 137
f 1341 137 1342
f 1342 137 104
f 1342 104 1343
f 1343 104 103
f 598 1344 596
f 596 1344 1345
f 596 1345 597
f 597 1345 1346
f 597 1346 687
f 687 1346 1347
f 687 1347 688
f 688 1347 1348
f 688 1348 689
f 689 1348 1349
f 689 1349 691
f 691 1349 1350
f 691 1350 692
f 692 1350 1351
f 692 1351 591
f 591 1351 1352
f 591 1352 592
f 592 1352 1353
f 592 1353 594
f 594 1353 1354
f 594 1354 600
f 600 1354 1355
f 600 1355 598
f 598 1355 1344
f 1345 1356 1346
f 1346 1356 1357
f 1346 1357 1347
f 1347 1357 1358
f 1347 1358 1348
f 1348 1358 1359
f 1348 1359 1349
f 1349 1359 1360
f 1349 1360 1350
f 1350 1360 1361
f 1350 1361 1351
f 1351 1361 1362
f 1351 1362 1352
f 1352 1362 1363
f 1352 1363 1353
f 1353 1363 1364
f 1353 1364 1354
f 1354 1364 1365
f 1354 1365 1355
f 1355 1365 1366
f 1355 1366 1344
f 1344 1366 1367
f 1344 1367 1345
f 1345 1367 1356
f 1367 98 1356
f 1356 98 97
f 1356 97 1357
f 1357 97 96
f 1357 96 1358
f 1358 96 140
f 1358 140 1359
f 1359 140 139
f 1359 139 1360
f 1360 139 138
f 1360 138 1361
f 1361 138 11
f 1361 11 1362
f 1362 11 10
f 1362 10 1363
f 1363 10 16
f 1363 16 1364
f 1364 16 14
f 1364 14 1365
f 1365 14 13
f 1365 13 1366
f 1366 13 100
f 1366 100 1367
f 1367 100 98
f 1368 706 1369
f 1369 706 705
f 1369 705 1370
f 1370 705 704
f 1370 704 1371
f 1371 704 702
f 1371 702 1372
f 1372 702 700
f 1372 700 1373
f 1373 700 699
f 1373 699 1374
f 1374 699 698
f 1374 698 1375
f 1375 698 697
f 1375 697 1376
f 1376 697 696
f 1376 696 1377
f 1377 696 695
f 1377 695 1378
f 1378 695 694
f 1378 694 1379
f 1379 694 693
f 1379 693 1368
f 1368 693 706
f 1378 1379 1380
f 1380 1379 1368
f 1380 1368 1369
f 1375 1376 1380
f 1380 1376 1377
f 1380 1377 1378
f 1372 1373 1380
f 1380 1373 1374
f 1380 1374 1375
f 1369 1370 1380
f 1380 1370 1371
f 1380 1371 1372
f 1381 653 1382
f 1382 653 652
f 1382 652 1383
f 1383 652 651
f 1383 651 1384
f 1384 651 650
f 1384 650 1385
f 1385 650 649
f 1385 649 1386
f 1386 649 648
f 1386 648 1387
f 1387 648 646
f 1387 646 1388
f 1388 646 645
f 1388 645 1389
f 1389 645 658
f 1389 658 1390
f 1390 658 656
f 1390 656 1391
f 1391 656 655
f 1391 655 1392
f 1392 655 654
f 1392 654 1381
f 1381 654 653
f 1384 1385 1393
f 1393 1385 1386
f 1393 1386 1387
f 1381 1382 1393
f 1393 1382 1383
f 1393 1383 1384
f 1390 1391 1393
f 1393 1391 1392
f 1393 1392 1381
f 1387 1388 1393
f 1393 1388 1389
f 1393 1389 1390
f 1394 735 1395
f 1395 735 734
f 1395 734 1396
f 1396 734 746
f 1396 746 1397
f 1397 746 745
f 1397 745 1398
f 1398 745 744
f 1398 744 1399
f 1399 744 743
f 1399 743 1400
f 1400 743 741
f 1400 741 1401
f 1401 741 740
f 1401 740 1402
f 1402 740 739
f 1402 739 1403
f 1403 739 738
f 1403 738 1404
f 1404 738 737
f 1404 737 1405
f 1405 737 736
f 1405 736 1394
f 1394 736 735
f 1405 1394 1406
f 1406 1394 1395
f 1406 1395 1396
f 1402 1403 1406
f 1406 1403 1404
f 1406 1404 1405
f 1399 1400 1406
f 1406 1400 1401
f 1406 1401 1402
f 1396 1397 1406
f 1406 1397 1398
f 1406 1398 1399
f 1407 538 1408
f 1408 538 537
f 1408 537 1409
f 1409 537 549
f 1409 549 1410
f 1410 549 548
f 1410 548 1411
f 1411 548 546
f 1411 546 1412
f 1412 546 545
f 1412 545 1413
f 1413 545 544
f 1413 544 1414
f 1414 544 543
f 1414 543 1415
f 1415 543 542
f 1415 542 1416
f 1416 542 541
f 1416 541 1417
f 1417 541 540
f 1417 540 1418
f 1418 540 539
f 1418 539 1407
f 1407 539 538
f 1417 1418 1419
f 1419 1418 1407
f 1419 1407 1408
f 1414 1415 1419
f 1419 1415 1416
f 1419 1416 1417
f 1411 1412 1419
f 1419 1412 1413
f 1419 1413 1414
f 1408 1409 1419
f 1419 1409 1410
f 1419 1410 1411
f 1420 502 1421
f 1421 502 515
f 1421 515 1422
f 1422 515 514
f 1422 514 1423
f 1423 514 513
f 1423 513 1424
f 1424 513 512
f 1424 512 1425
f 1425 512 511
f 1425 511 1426
f 1426 511 509
f 1426 509 1427
f 1427 509 508
f 1427 508 1428
f 1428 508 507
f 1428 507 1429
f 1429 507 505
f 1429 505 1430
f 1430 505 504
f 1430 504 1431
f 1431 504 503
f 1431 503 1420
f 1420 503 502
f 1423 1424 1432
f 1432 1424 1425
f 1432 1425 1426
f 1420 1421 1432
f 1432 1421 1422
f 1432 1422 1423
f 1429 1430 1432
f 1432 1430 1431
f 1432 1431 1420
f 1426 1427 1432
f 1432 1427 1428
f 1432 1428 1429
f 1433 567 1434
f 1434 567 566
f 1434 566 1435
f 1435 566 565
f 1435 565 1436
f 1436 565 564
f 1436 564 1437
f 1437 564 563
f 1437 563 1438
f 1438 563 562
f 1438 562 1439
f 1439 562 560
f 1439 560 1440
f 1440 560 559
f 1440 559 1441
f 1441 559 493
f 1441 493 1442
f 1442 493 492
f 1442 492 1443
f 1443 492 491
f 1443 491 1444
f 1444 491 489
f 1444 489 1433
f 1433 489 567
f 1444 1433 1445
f 1445 1433 1434
f 1445 1434 1435
f 1441 1442 1445
f 1445 1442 1443
f 1445 1443 1444
f 1438 1439 1445
f 1445 1439 1440
f 1445 1440 1441
f 1435 1436 1445
f 1445 1436 1437
f 1445 1437 1438
f 891 1113 889
f 889 1113 1112
f 889 1112 1096
f 1096 1112 1111
f 1096 1111 1097
f 1097 1111 1117
f 1097 1117 1095
f 1095 1117 1115
f 1095 1115 1094
f 1094 1115 1114
f 1094 1114 1085
f 1085 1114 1067
f 1085 1067 1066
f 898 1100 896
f 896 1100 1110
f 896 1110 1081
f 1081 1110 1109
f 1081 1109 1082
f 1082 1109 1116
f 1082 1116 1080
f 1080 1116 1118
f 1080 1118 1079
f 1079 1118 1119
f 1079 1119 1070
f 1070 1119 942
f 1070 942 941
f 809 449 454
f 809 454 801
f 801 454 455
f 801 455 803
f 803 455 456
f 803 456 805
f 805 456 459
f 805 459 791
f 367 58 75
f 367 75 365
f 365 75 77
f 365 77 370
f 370 77 79
f 370 79 369
f 369 79 82
f 369 82 358

