####
#
# OBJ File Generated by Meshlab
#
####
# Object link1.obj
#
# Vertices: 514
# Faces: 1010
#
####
vn -2.246821 -5.386290 0.141751
v 0.032800 -0.036500 0.076978
vn 3.193953 -3.139440 0.082209
v 0.041500 -0.036500 0.076978
vn 3.111410 -2.945242 0.306449
v 0.041500 -0.036500 0.079500
vn -2.984032 -3.027823 0.936324
v 0.032800 -0.036500 0.081116
vn -2.764826 -2.932519 1.455294
v 0.032843 -0.036500 0.081222
vn -2.178760 -2.748897 2.178756
v 0.033818 -0.036500 0.082682
vn 2.178760 -2.748897 2.178756
v 0.040182 -0.036500 0.082682
vn 1.179137 -2.748890 2.846682
v 0.038722 -0.036500 0.083657
vn 2.846683 -2.748894 1.179138
v 0.041157 -0.036500 0.081222
vn -0.000000 -2.748896 3.081229
v 0.037000 -0.036500 0.084000
vn -1.179137 -2.748890 2.846682
v 0.035278 -0.036500 0.083657
vn 3.193952 -3.130835 0.246402
v -0.032500 -0.036774 0.071752
vn 3.193953 -3.139440 0.082209
v -0.032500 -0.036500 0.076978
vn -3.173133 -3.129910 0.613430
v -0.042382 -0.036774 0.071752
vn -3.173129 -3.139129 0.449302
v -0.041787 -0.036500 0.076978
vn 3.193953 3.139440 0.082209
v -0.032500 0.036500 0.076978
vn 3.193952 3.130835 0.246402
v -0.032500 0.036774 0.071752
vn -3.173129 3.139129 0.449302
v -0.041787 0.036500 0.076978
vn -3.173132 3.129910 0.613431
v -0.042382 0.036774 0.071752
vn 3.111410 2.945243 0.306449
v 0.041500 0.036500 0.079500
vn 3.193953 3.139440 0.082209
v 0.041500 0.036500 0.076978
vn -3.193953 3.139440 0.082209
v 0.032500 0.036500 0.076978
vn -2.178760 2.748897 2.178756
v 0.033818 0.036500 0.082682
vn -1.179137 2.748890 2.846682
v 0.035278 0.036500 0.083657
vn 0.000000 2.748896 3.081229
v 0.037000 0.036500 0.084000
vn -3.111410 2.945242 0.306449
v 0.032500 0.036500 0.079500
vn -2.846683 2.748894 1.179138
v 0.032843 0.036500 0.081222
vn 1.179137 2.748890 2.846682
v 0.038722 0.036500 0.083657
vn 2.178760 2.748897 2.178756
v 0.040182 0.036500 0.082682
vn 2.846683 2.748894 1.179138
v 0.041157 0.036500 0.081222
vn -3.101333 -3.058578 0.484090
v -0.041500 -0.036500 0.079500
vn 3.111410 -2.945242 0.306449
v -0.032500 -0.036500 0.079500
vn -0.000000 -2.748896 3.081229
v -0.037000 -0.036500 0.084000
vn -1.179137 -2.748890 2.846682
v -0.038722 -0.036500 0.083657
vn -2.178760 -2.748897 2.178756
v -0.040182 -0.036500 0.082682
vn 2.178760 -2.748897 2.178756
v -0.033818 -0.036500 0.082682
vn 1.179137 -2.748890 2.846682
v -0.035278 -0.036500 0.083657
vn 2.846683 -2.748894 1.179138
v -0.032843 -0.036500 0.081222
vn -2.846683 -2.748892 1.179135
v -0.041157 -0.036500 0.081222
vn 3.193953 -3.130839 0.246403
v 0.041500 -0.036774 0.071752
vn -2.228620 -5.389917 0.413929
v 0.032800 -0.036774 0.071752
vn -3.136646 -3.142519 0.475570
v -0.032500 -0.037484 0.065000
vn 1.129482 -3.270296 -2.594127
v 0.011610 -0.040674 0.034644
vn 0.687747 -3.270424 -2.728366
v 0.007066 -0.040818 0.033278
vn 2.932153 -3.124377 -0.000000
v 0.041500 -0.043652 0.006314
vn 0.230938 -3.270492 -2.796250
v 0.002372 -0.040890 0.032587
vn -2.932153 -3.124383 -0.000000
v -0.048500 -0.043652 0.006314
vn -0.230938 -3.270492 -2.796250
v -0.002372 -0.040890 0.032587
vn -0.687747 -3.270424 -2.728366
v -0.007066 -0.040818 0.033278
vn -1.129482 -3.270296 -2.594127
v -0.011610 -0.040674 0.034644
vn 2.270846 -3.269671 -1.830440
v 0.023397 -0.039854 0.042443
vn 1.929700 -3.269902 -2.140084
v 0.019863 -0.040187 0.039276
vn 1.546490 -3.270116 -2.396557
v 0.015906 -0.040462 0.036658
vn -1.546490 -3.270116 -2.396557
v -0.015906 -0.040462 0.036658
vn -1.929701 -3.269902 -2.140084
v -0.019863 -0.040187 0.039276
vn -3.132849 -3.012280 0.482479
v -0.048500 -0.042423 0.018000
vn 2.974684 -3.269075 -0.655976
v 0.030759 -0.038586 0.054506
vn 2.798874 -3.269238 -1.080130
v 0.028904 -0.039045 0.050140
vn 2.562622 -3.269445 -1.474500
v 0.026432 -0.039471 0.046090
vn -2.270845 -3.269672 -1.830441
v -0.023397 -0.039854 0.042443
vn -2.562623 -3.269444 -1.474501
v -0.026432 -0.039471 0.046090
vn -2.798872 -3.269239 -1.080129
v -0.028904 -0.039045 0.050140
vn 3.086523 -3.268961 -0.211278
v 0.031959 -0.038104 0.059097
vn 3.133190 -3.221061 0.151516
v 0.032478 -0.037608 0.063813
vn -1.762419 -5.692373 0.738957
v 0.032721 -0.037069 0.068948
vn -2.207159 -5.343819 0.595903
v 0.032800 -0.036789 0.071607
vn -2.974687 -3.269074 -0.655977
v -0.030759 -0.038586 0.054506
vn -3.086521 -3.268962 -0.211278
v -0.031959 -0.038104 0.059097
vn -3.133120 -3.214715 0.146868
v -0.032478 -0.037608 0.063813
vn -3.141460 -3.123813 0.332977
v 0.032500 -0.037347 0.066296
vn 3.136573 -3.148466 0.472223
v 0.032500 -0.037484 0.065000
vn -2.852396 -1.289365 -3.311409
v -0.021869 -0.009886 0.003000
vn -2.593463 -1.752876 -3.311408
v -0.019884 -0.013439 0.003000
vn -2.117099 -0.175081 -5.353670
v -0.047500 -0.040668 0.003000
vn 1.167143 2.904548 -3.311409
v 0.008949 0.022269 0.003000
vn 0.659484 3.060017 -3.311408
v 0.005056 0.023461 0.003000
vn 2.117099 0.175081 -5.353671
v 0.040500 0.040668 0.003000
vn 0.132853 3.127455 -3.311409
v 0.001019 0.023978 0.003000
vn -2.117098 0.175079 -5.353651
v -0.047500 0.040668 0.003000
vn -0.397600 3.104922 -3.311409
v -0.003048 0.023806 0.003000
vn -0.916616 2.993065 -3.311409
v -0.007028 0.022948 0.003000
vn -1.409262 2.795104 -3.311408
v -0.010805 0.021430 0.003000
vn -1.861366 2.516732 -3.311409
v -0.014271 0.019296 0.003000
vn -2.259922 2.165959 -3.311408
v -0.017327 0.016607 0.003000
vn -2.593463 1.752876 -3.311408
v -0.019884 0.013439 0.003000
vn -2.852396 1.289365 -3.311409
v -0.021869 0.009886 0.003000
vn -3.029271 -0.788761 -3.311408
v -0.023226 -0.006047 0.003000
vn -3.029270 0.788761 -3.311408
v -0.023226 0.006047 0.003000
vn -3.118586 0.294485 -3.280724
v -0.023914 0.002035 0.003000
vn -3.118586 -0.294485 -3.280724
v -0.023914 -0.002035 0.003000
vn 0.232861 -3.128516 -3.247727
v 0.001019 -0.023978 0.003000
vn 0.659484 -3.060017 -3.311408
v 0.005056 -0.023461 0.003000
vn 2.117098 -0.175079 -5.353653
v 0.040500 -0.040668 0.003000
vn 1.167143 -2.904548 -3.311409
v 0.008949 -0.022269 0.003000
vn 1.641226 -2.665520 -3.311408
v 0.012583 -0.020437 0.003000
vn 2.068093 -2.349811 -3.311409
v 0.015856 -0.018016 0.003000
vn 2.435466 -1.966501 -3.311409
v 0.018673 -0.015077 0.003000
vn 2.732775 -1.526620 -3.311408
v 0.020952 -0.011705 0.003000
vn 2.951466 -1.042819 -3.311409
v 0.022629 -0.007995 0.003000
vn -2.259922 -2.165959 -3.311408
v -0.017327 -0.016607 0.003000
vn -1.861366 -2.516732 -3.311409
v -0.014271 -0.019296 0.003000
vn -1.409262 -2.795104 -3.311408
v -0.010805 -0.021430 0.003000
vn 3.085249 0.529019 -3.311408
v 0.023655 0.004056 0.003000
vn 0.000000 0.000000 -3.311409
v 0.024000 -0.000000 0.003000
vn 3.085249 -0.529019 -3.311408
v 0.023655 -0.004056 0.003000
vn 2.951466 1.042819 -3.311409
v 0.022629 0.007995 0.003000
vn 2.732774 1.526619 -3.311408
v 0.020952 0.011705 0.003000
vn 2.435466 1.966501 -3.311409
v 0.018673 0.015077 0.003000
vn -0.916616 -2.993065 -3.311409
v -0.007028 -0.022948 0.003000
vn -0.430896 -3.103153 -3.290182
v -0.003048 -0.023806 0.003000
vn -0.072436 -3.137263 -3.259447
v 0.000000 -0.024000 0.003000
vn 2.068093 2.349811 -3.311409
v 0.015856 0.018016 0.003000
vn 1.641226 2.665521 -3.311408
v 0.012583 0.020437 0.003000
vn 3.139021 3.178652 0.311156
v 0.032500 0.037484 0.065000
vn -3.193952 3.130835 0.246402
v 0.032500 0.036774 0.071752
vn 3.193953 3.130834 0.246402
v 0.041500 0.036774 0.071752
vn -2.932153 3.124382 0.000000
v -0.048500 0.043652 0.006314
vn -0.460607 3.270466 -2.770733
v -0.004732 0.040863 0.032846
vn 2.932153 3.124382 -0.000000
v 0.041500 0.043652 0.006314
vn -0.000001 3.270500 -2.804773
v 0.000000 0.040899 0.032500
vn 0.460608 3.270466 -2.770731
v 0.004732 0.040863 0.032846
vn -1.742858 3.270013 -2.275356
v -0.017932 0.040332 0.037895
vn -1.341659 3.270211 -2.503014
v -0.013795 0.040576 0.035573
vn -0.911114 3.270367 -2.669388
v -0.009363 0.040755 0.033878
vn 0.911114 3.270367 -2.669387
v 0.009363 0.040755 0.033878
vn 1.341659 3.270211 -2.503014
v 0.013795 0.040576 0.035573
vn 1.742858 3.270013 -2.275355
v 0.017932 0.040332 0.037895
vn -2.894585 3.269150 -0.871209
v -0.029911 0.038820 0.052289
vn -2.688025 3.269338 -1.281593
v -0.027742 0.039263 0.048069
vn -3.132850 3.012286 0.482479
v -0.048500 0.042423 0.018000
vn -2.423319 3.269556 -1.657786
v -0.024981 0.039669 0.044211
vn -2.106013 3.269788 -1.991504
v -0.021688 0.040028 0.040795
vn 2.106012 3.269787 -1.991504
v 0.021688 0.040028 0.040795
vn 2.423319 3.269557 -1.657786
v 0.024981 0.039669 0.044211
vn 2.688025 3.269337 -1.281593
v 0.027742 0.039263 0.048069
vn -3.138959 3.180546 0.310037
v -0.032500 0.037484 0.065000
vn -3.116320 3.252987 -0.015129
v -0.032305 0.037857 0.061445
vn -3.038770 3.269010 -0.435601
v -0.031443 0.038348 0.056780
vn 2.894584 3.269151 -0.871209
v 0.029911 0.038820 0.052289
vn 3.038770 3.269010 -0.435601
v 0.031443 0.038348 0.056780
vn 3.116235 3.250863 -0.016682
v 0.032305 0.037857 0.061445
vn -3.101333 3.058579 0.484090
v -0.041500 0.036500 0.079500
vn -2.178760 2.748897 2.178756
v -0.040182 0.036500 0.082682
vn -1.179137 2.748890 2.846682
v -0.038722 0.036500 0.083657
vn 0.000000 2.748895 3.081229
v -0.037000 0.036500 0.084000
vn 2.178760 2.748897 2.178756
v -0.033818 0.036500 0.082682
vn 2.846683 2.748894 1.179138
v -0.032843 0.036500 0.081222
vn 3.111410 2.945242 0.306449
v -0.032500 0.036500 0.079500
vn -2.846683 2.748892 1.179135
v -0.041157 0.036500 0.081222
vn 1.179137 2.748890 2.846682
v -0.035278 0.036500 0.083657
vn -3.131516 -3.028259 0.177643
v -0.048500 0.030500 0.018000
vn -5.823102 -0.785399 1.110713
v -0.048500 0.030500 0.007000
vn -0.065637 -6.258762 0.372622
v -0.043500 0.030500 0.012000
vn 0.065637 -6.258768 0.372623
v 0.036500 0.030500 0.012000
vn 0.000262 -6.264923 0.028687
v -0.032500 0.030500 0.065000
vn -0.000262 -6.264921 0.028687
v 0.032500 0.030500 0.065000
vn 3.131906 -3.050263 0.200487
v 0.032478 0.030500 0.066187
vn 2.178760 -2.748897 2.178756
v 0.040182 0.030500 0.082682
vn 1.179137 -2.748890 2.846682
v 0.038722 0.030500 0.083657
vn -0.000000 -2.748896 3.081229
v 0.037000 0.030500 0.084000
vn -0.000000 -2.748895 3.081229
v -0.037000 0.030500 0.084000
vn -1.179137 -2.748890 2.846682
v -0.038722 0.030500 0.083657
vn -3.101333 -3.058578 0.484089
v -0.041500 0.030500 0.079500
vn -2.178760 -2.748897 2.178756
v -0.040182 0.030500 0.082682
vn -2.846683 -2.748892 1.179135
v -0.041157 0.030500 0.081222
vn 3.111410 -2.945242 0.306449
v -0.032500 0.030500 0.079500
vn 5.823102 -0.785398 1.110714
v 0.041500 0.030500 0.007000
vn 3.111410 -2.945242 0.306449
v 0.041500 0.030500 0.079500
vn -3.111410 -2.945243 0.306449
v 0.032500 0.030500 0.079500
vn 2.846683 -2.748894 1.179138
v 0.041157 0.030500 0.081222
vn -1.179137 -2.748890 2.846682
v 0.035278 0.030500 0.083657
vn -2.178760 -2.748897 2.178756
v 0.033818 0.030500 0.082682
vn 1.179137 -2.748890 2.846682
v -0.035278 0.030500 0.083657
vn 2.178760 -2.748897 2.178756
v -0.033818 0.030500 0.082682
vn 2.846683 -2.748894 1.179138
v -0.032843 0.030500 0.081222
vn -2.846683 -2.748894 1.179138
v 0.032843 0.030500 0.081222
vn -2.965397 -2.995473 1.011653
v -0.030759 0.030500 0.075494
vn -3.081092 -2.995472 0.569107
v -0.031959 0.030500 0.070903
vn -3.131907 -3.050266 0.200487
v -0.032478 0.030500 0.066187
vn 2.548210 -2.995472 1.823087
v 0.026432 0.030500 0.083910
vn -0.681255 -2.995473 3.058254
v -0.007066 0.030500 0.096722
vn 2.786498 -2.995472 1.432638
v 0.028904 0.030500 0.079860
vn 2.965397 -2.995472 1.011653
v 0.030759 0.030500 0.075494
vn -1.119279 -2.995470 2.926471
v -0.011610 0.030500 0.095356
vn 3.081094 -2.995472 0.569107
v 0.031959 0.030500 0.070903
vn 2.255609 -2.995471 2.174681
v 0.023397 0.030500 0.087557
vn 1.914936 -2.995473 2.479926
v 0.019863 0.030500 0.090724
vn 1.533451 -2.995472 2.732316
v 0.015906 0.030500 0.093342
vn -1.533450 -2.995472 2.732314
v -0.015906 0.030500 0.093342
vn -1.914935 -2.995473 2.479926
v -0.019863 0.030500 0.090724
vn -2.255610 -2.995471 2.174682
v -0.023397 0.030500 0.087557
vn -2.548210 -2.995473 1.823087
v -0.026432 0.030500 0.083910
vn -2.786498 -2.995471 1.432637
v -0.028904 0.030500 0.079860
vn 1.119279 -2.995470 2.926471
v 0.011610 0.030500 0.095356
vn 0.681255 -2.995476 3.058253
v 0.007066 0.030500 0.096722
vn -0.229912 -2.997316 3.124853
v -0.002372 0.030500 0.097413
vn 0.229912 -2.997316 3.124852
v 0.002372 0.030500 0.097413
vn 2.351602 0.188093 5.351078
v 0.038500 -0.028500 0.010000
vn 2.351602 -0.188093 5.351077
v 0.038500 0.028500 0.010000
vn -2.351602 0.188094 5.351081
v -0.045500 -0.028500 0.010000
vn -2.351602 -0.188094 5.351082
v -0.045500 0.028500 0.010000
vn 3.113106 3.013734 0.371343
v 0.032305 -0.030500 0.068555
vn -0.002358 6.228391 0.086028
v 0.032500 -0.030500 0.065000
vn 0.002357 6.228389 0.086028
v -0.032500 -0.030500 0.065000
vn -0.065637 6.258768 0.372623
v -0.043500 -0.030500 0.012000
vn -5.823103 0.785399 1.110713
v -0.048500 -0.030500 0.007000
vn -3.131516 3.028259 0.177643
v -0.048500 -0.030500 0.018000
vn 3.111410 2.945241 0.306449
v 0.041500 -0.030500 0.079500
vn 5.823102 0.785399 1.110713
v 0.041500 -0.030500 0.007000
vn 0.065637 6.258761 0.372622
v 0.036500 -0.030500 0.012000
vn -3.101333 3.058578 0.484089
v -0.041500 -0.030500 0.079500
vn 3.111410 2.945243 0.306449
v -0.032500 -0.030500 0.079500
vn -2.846683 2.748892 1.179135
v -0.041157 -0.030500 0.081222
vn -2.178760 2.748897 2.178756
v -0.040182 -0.030500 0.082682
vn 0.000000 2.748896 3.081229
v -0.037000 -0.030500 0.084000
vn 1.179137 2.748890 2.846682
v -0.035278 -0.030500 0.083657
vn 2.178760 2.748897 2.178756
v -0.033818 -0.030500 0.082682
vn -1.179137 2.748890 2.846682
v -0.038722 -0.030500 0.083657
vn 2.846683 2.748894 1.179138
v -0.032843 -0.030500 0.081222
vn 2.178760 2.748897 2.178756
v 0.040182 -0.030500 0.082682
vn 2.846683 2.748894 1.179138
v 0.041157 -0.030500 0.081222
vn -3.111410 2.945243 0.306449
v 0.032500 -0.030500 0.079500
vn -2.178760 2.748897 2.178756
v 0.033818 -0.030500 0.082682
vn -1.179137 2.748890 2.846682
v 0.035278 -0.030500 0.083657
vn -2.846526 2.753522 1.179808
v 0.032843 -0.030500 0.081222
vn 0.000000 2.748896 3.081229
v 0.037000 -0.030500 0.084000
vn 1.179137 2.748890 2.846682
v 0.038722 -0.030500 0.083657
vn -3.113104 3.013736 0.371343
v -0.032305 -0.030500 0.068555
vn -3.031330 2.995472 0.792494
v -0.031443 -0.030500 0.073220
vn -2.883639 2.995472 1.225413
v -0.029911 -0.030500 0.077711
vn -2.090850 2.995472 2.333529
v -0.021688 -0.030500 0.089205
vn -1.728805 2.995471 2.613092
v -0.017932 -0.030500 0.092105
vn -1.329913 2.995473 2.836960
v -0.013795 -0.030500 0.094427
vn -0.902676 2.995471 3.000366
v -0.009363 -0.030500 0.096122
vn -0.456198 2.995473 3.099823
v -0.004732 -0.030500 0.097154
vn 0.000000 2.995472 3.133213
v 0.000000 -0.030500 0.097500
vn 0.456198 2.995472 3.099823
v 0.004732 -0.030500 0.097154
vn -2.674487 2.995472 1.632216
v -0.027742 -0.030500 0.081931
vn -2.408333 2.995472 2.004231
v -0.024981 -0.030500 0.085789
vn 2.090850 2.995473 2.333529
v 0.021688 -0.030500 0.089205
vn 2.408333 2.995471 2.004231
v 0.024981 -0.030500 0.085789
vn 2.674488 2.995471 1.632215
v 0.027742 -0.030500 0.081931
vn 0.902675 2.995471 3.000364
v 0.009363 -0.030500 0.096122
vn 1.329914 2.995476 2.836962
v 0.013795 -0.030500 0.094427
vn 3.031330 2.995472 0.792494
v 0.031443 -0.030500 0.073220
vn 2.883638 2.995472 1.225413
v 0.029911 -0.030500 0.077711
vn 1.728804 2.995471 2.613091
v 0.017932 -0.030500 0.092105
vn 2.800824 -2.053790 -2.116586
v 0.041500 -0.042904 0.004000
vn 2.733751 2.018775 -2.151533
v 0.041500 0.042904 0.004000
vn 2.724333 2.923741 -0.947283
v 0.041500 0.043521 0.005073
vn 2.724369 -2.923839 -0.947339
v 0.041500 -0.043521 0.005073
vn -2.800826 2.053790 -2.116586
v -0.048500 0.042904 0.004000
vn -2.733749 -2.018775 -2.151533
v -0.048500 -0.042904 0.004000
vn -2.724369 2.923839 -0.947339
v -0.048500 0.043521 0.005073
vn -2.724333 -2.923741 -0.947283
v -0.048500 -0.043521 0.005073
vn -5.093179 -1.326161 -2.132726
v -0.023226 -0.006047 0.000500
vn -4.795794 -2.167835 -2.132728
v -0.021869 -0.009886 0.000500
vn -4.360449 -2.947150 -2.132724
v -0.019884 -0.013439 0.000500
vn -3.799659 -3.641678 -2.132722
v -0.017327 -0.016607 0.000500
vn -3.129556 -4.231439 -2.132724
v -0.014271 -0.019296 0.000500
vn -2.369423 -4.699470 -2.132726
v -0.010805 -0.021430 0.000500
vn -1.541127 -5.032307 -2.132725
v -0.007028 -0.022948 0.000500
vn -0.687254 -5.219423 -2.150514
v -0.003048 -0.023806 0.000500
vn 0.247989 -5.258951 -2.163436
v 0.001019 -0.023978 0.000500
vn 1.108806 -5.144876 -2.132724
v 0.005056 -0.023461 0.000500
vn 1.962345 -4.883482 -2.132725
v 0.008949 -0.022269 0.000500
vn 2.759431 -4.481600 -2.132724
v 0.012583 -0.020437 0.000500
vn 3.477132 -3.950791 -2.132724
v 0.015856 -0.018016 0.000500
vn 4.094802 -3.306321 -2.132727
v 0.018673 -0.015077 0.000500
vn 4.594675 -2.566739 -2.132726
v 0.020952 -0.011705 0.000500
vn 4.962364 -1.753315 -2.132726
v 0.022629 -0.007995 0.000500
vn 5.187300 -0.889452 -2.132725
v 0.023655 -0.004056 0.000500
vn 5.263003 0.000000 -2.132724
v 0.024000 0.000000 0.000500
vn 3.130275 0.000000 0.000000
v 0.024000 0.000000 0.003000
vn 5.187300 0.889452 -2.132725
v 0.023655 0.004056 0.000500
vn 4.962364 1.753315 -2.132726
v 0.022629 0.007995 0.000500
vn 4.594675 2.566739 -2.132726
v 0.020952 0.011705 0.000500
vn 4.094802 3.306320 -2.132727
v 0.018673 0.015077 0.000500
vn 3.477132 3.950791 -2.132724
v 0.015856 0.018016 0.000500
vn 2.759430 4.481600 -2.132724
v 0.012583 0.020437 0.000500
vn 1.962345 4.883482 -2.132724
v 0.008949 0.022269 0.000500
vn 1.108805 5.144876 -2.132724
v 0.005056 0.023461 0.000500
vn 0.223369 5.258261 -2.132724
v 0.001019 0.023978 0.000500
vn -0.668495 5.220375 -2.132725
v -0.003048 0.023806 0.000500
vn -1.541127 5.032307 -2.132725
v -0.007028 0.022948 0.000500
vn -2.369423 4.699470 -2.132725
v -0.010805 0.021430 0.000500
vn -3.129556 4.231439 -2.132724
v -0.014271 0.019296 0.000500
vn -3.799659 3.641677 -2.132721
v -0.017327 0.016607 0.000500
vn -4.360447 2.947149 -2.132725
v -0.019884 0.013439 0.000500
vn -4.795794 2.167836 -2.132728
v -0.021869 0.009886 0.000500
vn -5.093179 1.326160 -2.132726
v -0.023226 0.006047 0.000500
vn -5.261411 0.559260 -2.155371
v -0.023914 0.002035 0.000500
vn -3.137710 0.000000 0.047214
v -0.024000 0.000000 0.000500
vn -5.261411 -0.559260 -2.155370
v -0.023914 -0.002035 0.000500
vn 0.000000 0.000000 -3.056685
v -0.023500 0.000000 -0.000000
vn -2.270044 0.243297 -5.296734
v -0.023415 0.001993 -0.000000
vn 0.000000 0.000000 -6.283188
v 0.000000 0.000000 -0.000000
vn -2.270043 -0.243297 -5.296734
v -0.023415 -0.001993 -0.000000
vn -1.907340 -1.289137 -5.273908
v -0.019470 -0.013159 -0.000000
vn -2.097767 -0.948250 -5.273913
v -0.021414 -0.009680 -0.000000
vn -2.227849 -0.580087 -5.273910
v -0.022742 -0.005921 -0.000000
vn -1.036429 -2.055634 -5.273910
v -0.010580 -0.020984 -0.000000
vn -1.368926 -1.850910 -5.273908
v -0.013974 -0.018894 -0.000000
vn -1.662042 -1.592939 -5.273905
v -0.016966 -0.016261 -0.000000
vn 0.097706 -2.300061 -5.273907
v 0.000997 -0.023479 -0.000000
vn -0.292412 -2.283488 -5.273908
v -0.002985 -0.023310 -0.000000
vn -0.674118 -2.201224 -5.273910
v -0.006881 -0.022470 -0.000000
vn 1.207026 -1.960334 -5.273908
v 0.012321 -0.020011 -0.000000
vn 0.858366 -2.136125 -5.273909
v 0.008762 -0.021805 -0.000000
vn 0.485012 -2.250464 -5.273908
v 0.004951 -0.022973 -0.000000
vn 2.009794 -1.122739 -5.273910
v 0.020516 -0.011461 -0.000000
vn 1.791140 -1.446245 -5.273911
v 0.018284 -0.014763 -0.000000
vn 1.520962 -1.728149 -5.273908
v 0.015526 -0.017641 -0.000000
vn 2.302135 0.000000 -5.273907
v 0.023500 0.000000 -0.000000
vn 2.269020 -0.389062 -5.273909
v 0.023162 -0.003972 -0.000000
vn 2.170629 -0.766932 -5.273911
v 0.022158 -0.007829 -0.000000
vn 2.009795 1.122739 -5.273911
v 0.020516 0.011461 -0.000000
vn 2.170629 0.766932 -5.273911
v 0.022158 0.007829 -0.000000
vn 2.269020 0.389063 -5.273909
v 0.023162 0.003972 -0.000000
vn 1.207026 1.960335 -5.273908
v 0.012321 0.020011 -0.000000
vn 1.520962 1.728149 -5.273908
v 0.015526 0.017641 -0.000000
vn 1.791141 1.446244 -5.273911
v 0.018284 0.014763 -0.000000
vn 0.097705 2.300061 -5.273906
v 0.000997 0.023479 -0.000000
vn 0.485012 2.250464 -5.273908
v 0.004951 0.022973 -0.000000
vn 0.858366 2.136125 -5.273909
v 0.008762 0.021805 -0.000000
vn -1.036429 2.055634 -5.273910
v -0.010580 0.020984 -0.000000
vn -0.674117 2.201224 -5.273909
v -0.006881 0.022470 -0.000000
vn -0.292412 2.283488 -5.273909
v -0.002985 0.023310 -0.000000
vn -1.907341 1.289137 -5.273908
v -0.019470 0.013159 -0.000000
vn -1.662043 1.592938 -5.273905
v -0.016966 0.016261 -0.000000
vn -1.368925 1.850910 -5.273908
v -0.013974 0.018894 -0.000000
vn -2.227850 0.580087 -5.273910
v -0.022742 0.005921 -0.000000
vn -2.097766 0.948251 -5.273912
v -0.021414 0.009680 -0.000000
vn -5.351992 -2.087264 0.187274
v 0.032500 -0.036200 0.079500
vn -5.285272 -1.989655 0.611110
v 0.032576 -0.036276 0.080322
vn -5.391669 -2.180236 0.220294
v 0.032500 -0.036491 0.071574
vn -5.388465 -2.194532 0.056883
v 0.032500 -0.036200 0.076978
vn 2.144022 -2.306690 -4.351017
v 0.041493 -0.042898 0.003993
vn 2.021229 -0.731318 -5.258758
v 0.040566 -0.041292 0.003066
vn 2.041831 -1.410021 -5.012624
v 0.040759 -0.041888 0.003259
vn 2.065636 -1.999226 -4.630008
v 0.041073 -0.042432 0.003573
vn 2.021229 0.731317 -5.258745
v 0.040566 0.041292 0.003066
vn 2.041831 1.410017 -5.012617
v 0.040759 0.041888 0.003259
vn 2.064507 2.002444 -4.627143
v 0.041073 0.042432 0.003573
vn -2.144022 2.306690 -4.351017
v -0.048493 0.042898 0.003993
vn -2.041831 1.410021 -5.012624
v -0.047759 0.041888 0.003259
vn -2.021229 0.731318 -5.258757
v -0.047566 0.041292 0.003066
vn -2.021229 -0.731317 -5.258745
v -0.047566 -0.041292 0.003066
vn -2.041831 -1.410017 -5.012618
v -0.047759 -0.041888 0.003259
vn -2.064507 -2.002444 -4.627143
v -0.048073 -0.042432 0.003573
vn -2.065636 1.999226 -4.630008
v -0.048073 0.042432 0.003573
vn -2.396411 2.003267 4.624407
v -0.044914 -0.029914 0.010586
vn -2.430966 1.364327 5.032230
v -0.045232 -0.029500 0.010268
vn -2.465979 -0.683223 5.265576
v -0.045432 0.029018 0.010068
vn -2.430966 -1.364327 5.032230
v -0.045232 0.029500 0.010268
vn -2.396411 -2.003266 4.624405
v -0.044914 0.029914 0.010586
vn -2.465979 0.683223 5.265575
v -0.045432 -0.029018 0.010068
vn -2.371495 -2.540437 4.051713
v -0.044500 0.030232 0.011000
vn -2.357275 -2.923161 3.346894
v -0.044018 0.030432 0.011482
vn -2.357275 2.923159 3.346893
v -0.044018 -0.030432 0.011482
vn -2.371495 2.540435 4.051711
v -0.044500 -0.030232 0.011000
vn 2.396411 -2.003269 4.624409
v 0.037914 0.029914 0.010586
vn 2.430966 -1.364327 5.032231
v 0.038232 0.029500 0.010268
vn 2.465979 0.683222 5.265577
v 0.038432 -0.029018 0.010068
vn 2.430966 1.364326 5.032231
v 0.038232 -0.029500 0.010268
vn 2.396411 2.003267 4.624407
v 0.037914 -0.029914 0.010586
vn 2.357275 -2.923166 3.346897
v 0.037018 0.030432 0.011482
vn 2.371495 -2.540427 4.051708
v 0.037500 0.030232 0.011000
vn 2.465979 -0.683222 5.265576
v 0.038432 0.029018 0.010068
vn 2.371495 2.540430 4.051710
v 0.037500 -0.030232 0.011000
vn 2.357275 2.923168 3.346898
v 0.037018 -0.030432 0.011482
vn -2.262866 0.000000 -2.262871
v -0.023500 0.000000 -0.000000
vn -2.178010 0.000000 -2.178014
v -0.024000 0.000000 0.000500
vn 3.114410 -2.995544 0.342686
v 0.032305 -0.102750 0.068555
vn 3.131122 -2.995472 -0.114431
v 0.032478 -0.102750 0.063813
vn 3.081092 -2.995472 -0.569106
v 0.031959 -0.102750 0.059097
vn 2.965396 -2.995471 -1.011653
v 0.030759 -0.102750 0.054506
vn 2.786497 -2.995473 -1.432637
v 0.028904 -0.102750 0.050140
vn 2.548210 -2.995471 -1.823087
v 0.026432 -0.102750 0.046090
vn 2.255611 -2.995472 -2.174682
v 0.023397 -0.102750 0.042443
vn 1.914937 -2.995472 -2.479926
v 0.019863 -0.102750 0.039276
vn 1.533450 -2.995472 -2.732315
v 0.015906 -0.102750 0.036658
vn 1.119279 -2.995471 -2.926471
v 0.011610 -0.102750 0.034644
vn 0.681254 -2.995473 -3.058253
v 0.007066 -0.102750 0.033278
vn 0.228710 -2.995472 -3.124853
v 0.002372 -0.102750 0.032587
vn -0.228710 -2.995472 -3.124854
v -0.002372 -0.102750 0.032587
vn -0.681254 -2.995472 -3.058253
v -0.007066 -0.102750 0.033278
vn -1.119279 -2.995471 -2.926470
v -0.011610 -0.102750 0.034644
vn -1.533450 -2.995472 -2.732316
v -0.015906 -0.102750 0.036658
vn -1.914937 -2.995472 -2.479926
v -0.019863 -0.102750 0.039276
vn -2.255610 -2.995472 -2.174681
v -0.023397 -0.102750 0.042443
vn -2.548209 -2.995472 -1.823087
v -0.026432 -0.102750 0.046090
vn -2.786498 -2.995472 -1.432637
v -0.028904 -0.102750 0.050140
vn -2.965396 -2.995472 -1.011652
v -0.030759 -0.102750 0.054506
vn -3.081094 -2.995472 -0.569107
v -0.031959 -0.102750 0.059097
vn -3.131157 -2.997019 -0.115426
v -0.032478 -0.102750 0.063813
vn -3.114378 -2.996982 0.343678
v -0.032305 -0.102750 0.068555
vn -3.031330 -2.995472 0.792494
v -0.031443 -0.102750 0.073220
vn -2.883638 -2.995472 1.225413
v -0.029911 -0.102750 0.077711
vn -2.674487 -2.995472 1.632216
v -0.027742 -0.102750 0.081931
vn -2.408333 -2.995472 2.004231
v -0.024981 -0.102750 0.085789
vn -2.090850 -2.995472 2.333529
v -0.021688 -0.102750 0.089205
vn -1.728804 -2.995472 2.613091
v -0.017932 -0.102750 0.092105
vn -1.329914 -2.995473 2.836962
v -0.013795 -0.102750 0.094427
vn -0.902675 -2.995471 3.000364
v -0.009363 -0.102750 0.096122
vn -0.456198 -2.995472 3.099823
v -0.004732 -0.102750 0.097154
vn -0.000000 -2.995472 3.133213
v 0.000000 -0.102750 0.097500
vn 0.456198 -2.995472 3.099823
v 0.004732 -0.102750 0.097154
vn 0.902676 -2.995471 3.000366
v 0.009363 -0.102750 0.096122
vn 1.329913 -2.995473 2.836960
v 0.013795 -0.102750 0.094427
vn 1.728805 -2.995472 2.613092
v 0.017932 -0.102750 0.092105
vn 2.090850 -2.995473 2.333529
v 0.021688 -0.102750 0.089205
vn 2.408333 -2.995471 2.004231
v 0.024981 -0.102750 0.085789
vn 2.674487 -2.995472 1.632215
v 0.027742 -0.102750 0.081931
vn 2.883639 -2.995472 1.225413
v 0.029911 -0.102750 0.077711
vn 3.031330 -2.995472 0.792494
v 0.031443 -0.102750 0.073220
vn 0.000000 -6.283190 0.000000
v 0.000000 -0.102750 0.065000
vn -3.131122 2.995545 0.114433
v -0.032478 0.102750 0.066187
vn -3.114416 2.995472 -0.342683
v -0.032305 0.102750 0.061445
vn -3.031331 2.995472 -0.792494
v -0.031443 0.102750 0.056780
vn -2.883639 2.995472 -1.225414
v -0.029911 0.102750 0.052289
vn -2.674487 2.995472 -1.632215
v -0.027742 0.102750 0.048069
vn -2.408334 2.995472 -2.004231
v -0.024981 0.102750 0.044211
vn -2.090851 2.995472 -2.333528
v -0.021688 0.102750 0.040795
vn -1.728805 2.995472 -2.613092
v -0.017932 0.102750 0.037895
vn -1.329913 2.995472 -2.836962
v -0.013795 0.102750 0.035573
vn -0.902676 2.995472 -3.000365
v -0.009363 0.102750 0.033878
vn -0.456200 2.995472 -3.099823
v -0.004732 0.102750 0.032846
vn -0.000000 2.995472 -3.133212
v 0.000000 0.102750 0.032500
vn 0.456199 2.995472 -3.099822
v 0.004732 0.102750 0.032846
vn 0.902676 2.995472 -3.000366
v 0.009363 0.102750 0.033878
vn 1.329912 2.995472 -2.836962
v 0.013795 0.102750 0.035573
vn 1.728805 2.995472 -2.613092
v 0.017932 0.102750 0.037895
vn 2.090852 2.995472 -2.333530
v 0.021688 0.102750 0.040795
vn 2.408334 2.995471 -2.004231
v 0.024981 0.102750 0.044211
vn 2.674488 2.995472 -1.632215
v 0.027742 0.102750 0.048069
vn 2.883639 2.995472 -1.225413
v 0.029911 0.102750 0.052289
vn 3.031330 2.995472 -0.792494
v 0.031443 0.102750 0.056780
vn 3.114377 2.996982 -0.343678
v 0.032305 0.102750 0.061445
vn -0.681255 2.995475 3.058253
v -0.007066 0.102750 0.096722
vn -1.119279 2.995470 2.926471
v -0.011610 0.102750 0.095356
vn -1.533451 2.995473 2.732316
v -0.015906 0.102750 0.093342
vn -1.914936 2.995473 2.479926
v -0.019863 0.102750 0.090724
vn -2.255609 2.995471 2.174681
v -0.023397 0.102750 0.087557
vn -2.548210 2.995473 1.823087
v -0.026432 0.102750 0.083910
vn -2.786498 2.995471 1.432637
v -0.028904 0.102750 0.079860
vn -2.965397 2.995473 1.011653
v -0.030759 0.102750 0.075494
vn -3.081094 2.995472 0.569107
v -0.031959 0.102750 0.070903
vn 3.131158 2.997019 0.115427
v 0.032478 0.102750 0.066187
vn 3.081092 2.995472 0.569106
v 0.031959 0.102750 0.070903
vn 2.965397 2.995471 1.011653
v 0.030759 0.102750 0.075494
vn 2.786498 2.995473 1.432638
v 0.028904 0.102750 0.079860
vn 2.548210 2.995472 1.823087
v 0.026432 0.102750 0.083910
vn 2.255610 2.995471 2.174682
v 0.023397 0.102750 0.087557
vn 1.914936 2.995473 2.479926
v 0.019863 0.102750 0.090724
vn 1.533450 2.995473 2.732314
v 0.015906 0.102750 0.093342
vn 1.119279 2.995470 2.926471
v 0.011610 0.102750 0.095356
vn 0.681255 2.995475 3.058253
v 0.007066 0.102750 0.096722
vn 0.286077 3.031998 3.123806
v 0.002372 0.102750 0.097413
vn 0.000000 3.068459 3.139497
v 0.000000 0.102750 0.097500
vn -0.286077 3.031998 3.123805
v -0.002372 0.102750 0.097413
vn 0.000000 6.283189 0.000000
v 0.000000 0.102750 0.065000
vn -0.000000 -2.617994 3.034546
v 0.000000 -0.032300 0.027000
vn -0.000000 2.617994 3.034546
v 0.000000 -0.036500 0.027000
vn -1.517272 -2.617994 2.627994
v 0.001000 -0.032300 0.027268
vn -1.517272 2.617994 2.627993
v 0.001000 -0.036500 0.027268
vn -2.627994 -2.617993 1.517272
v 0.001732 -0.032300 0.028000
vn -2.627994 2.617993 1.517272
v 0.001732 -0.036500 0.028000
vn -3.034546 -2.617995 0.000000
v 0.002000 -0.032300 0.029000
vn -3.034546 2.617995 0.000000
v 0.002000 -0.036500 0.029000
vn -2.627992 -2.617992 -1.517274
v 0.001732 -0.032300 0.030000
vn -2.627992 2.617992 -1.517274
v 0.001732 -0.036500 0.030000
vn -1.517274 -2.617997 -2.627995
v 0.001000 -0.032300 0.030732
vn -1.517274 2.617997 -2.627995
v 0.001000 -0.036500 0.030732
vn -0.000000 -2.617991 -3.034544
v 0.000000 -0.032300 0.031000
vn -0.000000 2.617991 -3.034544
v 0.000000 -0.036500 0.031000
vn 1.517274 -2.617996 -2.627994
v -0.001000 -0.032300 0.030732
vn 1.517274 2.617996 -2.627994
v -0.001000 -0.036500 0.030732
vn 2.627993 -2.617993 -1.517274
v -0.001732 -0.032300 0.030000
vn 2.627993 2.617993 -1.517274
v -0.001732 -0.036500 0.030000
vn 3.034546 -2.617994 0.000000
v -0.002000 -0.032300 0.029000
vn 3.034546 2.617994 0.000000
v -0.002000 -0.036500 0.029000
vn 2.627994 -2.617994 1.517273
v -0.001732 -0.032300 0.028000
vn 2.627994 2.617994 1.517272
v -0.001732 -0.036500 0.028000
vn 1.517273 -2.617993 2.627993
v -0.001000 -0.032300 0.027268
vn 1.517273 2.617993 2.627994
v -0.001000 -0.036500 0.027268
vn 0.000000 -6.283184 0.000000
v 0.000000 -0.032300 0.029000
vn 0.000000 6.283184 0.000000
v 0.000000 -0.036500 0.029000
vn -0.000000 2.617991 -3.034544
v 0.000000 0.032300 0.031000
vn -0.000000 -2.617991 -3.034544
v 0.000000 0.036500 0.031000
vn -1.517274 2.617997 -2.627995
v 0.001000 0.032300 0.030732
vn -1.517274 -2.617997 -2.627994
v 0.001000 0.036500 0.030732
vn -2.627992 2.617992 -1.517274
v 0.001732 0.032300 0.030000
vn -2.627992 -2.617992 -1.517274
v 0.001732 0.036500 0.030000
vn -3.034546 2.617995 -0.000000
v 0.002000 0.032300 0.029000
vn -3.034546 -2.617995 0.000000
v 0.002000 0.036500 0.029000
vn -2.627994 2.617993 1.517272
v 0.001732 0.032300 0.028000
vn -2.627994 -2.617993 1.517272
v 0.001732 0.036500 0.028000
vn -1.517272 2.617994 2.627993
v 0.001000 0.032300 0.027268
vn -1.517272 -2.617994 2.627994
v 0.001000 0.036500 0.027268
vn -0.000000 2.617994 3.034546
v 0.000000 0.032300 0.027000
vn -0.000000 -2.617994 3.034546
v 0.000000 0.036500 0.027000
vn 1.517273 2.617993 2.627994
v -0.001000 0.032300 0.027268
vn 1.517273 -2.617993 2.627993
v -0.001000 0.036500 0.027268
vn 2.627994 2.617994 1.517272
v -0.001732 0.032300 0.028000
vn 2.627994 -2.617994 1.517273
v -0.001732 0.036500 0.028000
vn 3.034546 2.617994 0.000000
v -0.002000 0.032300 0.029000
vn 3.034546 -2.617994 0.000000
v -0.002000 0.036500 0.029000
vn 2.627993 2.617993 -1.517274
v -0.001732 0.032300 0.030000
vn 2.627993 -2.617993 -1.517274
v -0.001732 0.036500 0.030000
vn 1.517274 2.617996 -2.627994
v -0.001000 0.032300 0.030732
vn 1.517274 -2.617996 -2.627994
v -0.001000 0.036500 0.030732
vn 0.000000 6.283184 0.000000
v 0.000000 0.032300 0.029000
vn 0.000000 -6.283184 0.000000
v 0.000000 0.036500 0.029000
# 514 vertices, 0 vertices normals

f 1//1 2//2 3//3
f 4//4 1//1 5//5
f 5//5 1//1 3//3
f 5//5 3//3 6//6
f 7//7 8//8 9//9
f 9//9 8//8 10//10
f 9//9 10//10 3//3
f 3//3 10//10 11//11
f 3//3 11//11 6//6
f 12//12 13//13 14//14
f 14//14 13//13 15//15
f 16//16 17//17 18//18
f 18//18 17//17 19//19
f 20//20 21//21 22//22
f 23//23 24//24 25//25
f 22//22 26//26 20//20
f 20//20 26//26 27//27
f 20//20 27//27 23//23
f 25//25 28//28 29//29
f 23//23 25//25 20//20
f 20//20 25//25 29//29
f 20//20 29//29 30//30
f 15//15 13//13 31//31
f 31//31 13//13 32//32
f 33//33 34//34 35//35
f 36//36 37//37 38//38
f 38//38 37//37 33//33
f 38//38 33//33 32//32
f 32//32 33//33 35//35
f 32//32 35//35 31//31
f 31//31 35//35 39//39
f 2//2 1//1 40//40
f 40//40 1//1 41//41
f 42//42 12//12 14//14
f 43//43 44//44 45//45
f 45//45 44//44 46//46
f 45//45 46//46 47//47
f 46//46 48//48 47//47
f 47//47 48//48 49//49
f 47//47 49//49 50//50
f 51//51 52//52 45//45
f 45//45 52//52 53//53
f 45//45 53//53 43//43
f 50//50 54//54 47//47
f 47//47 54//54 55//55
f 47//47 55//55 56//56
f 57//57 58//58 45//45
f 45//45 58//58 59//59
f 45//45 59//59 51//51
f 55//55 60//60 56//56
f 56//56 60//60 61//61
f 56//56 61//61 62//62
f 57//57 45//45 63//63
f 63//63 45//45 40//40
f 63//63 40//40 64//64
f 65//65 40//40 66//66
f 66//66 40//40 41//41
f 62//62 67//67 56//56
f 56//56 67//67 68//68
f 56//56 68//68 14//14
f 14//14 68//68 69//69
f 14//14 69//69 42//42
f 65//65 70//70 40//40
f 40//40 70//70 71//71
f 40//40 71//71 64//64
f 72//72 73//73 74//74
f 75//75 76//76 77//77
f 77//77 76//76 78//78
f 77//77 78//78 79//79
f 79//79 78//78 80//80
f 80//80 81//81 79//79
f 79//79 81//81 82//82
f 79//79 82//82 83//83
f 83//83 84//84 79//79
f 79//79 84//84 85//85
f 79//79 85//85 86//86
f 72//72 74//74 87//87
f 86//86 88//88 79//79
f 79//79 88//88 89//89
f 79//79 89//89 74//74
f 74//74 89//89 90//90
f 74//74 90//90 87//87
f 91//91 92//92 93//93
f 92//92 94//94 93//93
f 93//93 94//94 95//95
f 93//93 95//95 96//96
f 96//96 97//97 93//93
f 93//93 97//97 98//98
f 93//93 98//98 99//99
f 73//73 100//100 74//74
f 74//74 100//100 101//101
f 74//74 101//101 102//102
f 103//103 77//77 104//104
f 104//104 77//77 93//93
f 104//104 93//93 105//105
f 105//105 93//93 99//99
f 103//103 106//106 77//77
f 77//77 106//106 107//107
f 77//77 107//107 108//108
f 102//102 109//109 74//74
f 74//74 109//109 110//110
f 74//74 110//110 93//93
f 93//93 110//110 111//111
f 93//93 111//111 91//91
f 108//108 112//112 77//77
f 77//77 112//112 113//113
f 77//77 113//113 75//75
f 114//114 115//115 116//116
f 117//117 118//118 119//119
f 119//119 118//118 120//120
f 119//119 120//120 121//121
f 122//122 123//123 117//117
f 117//117 123//123 124//124
f 117//117 124//124 118//118
f 121//121 125//125 119//119
f 119//119 125//125 126//126
f 119//119 126//126 127//127
f 128//128 129//129 130//130
f 130//130 129//129 131//131
f 130//130 131//131 117//117
f 117//117 131//131 132//132
f 117//117 132//132 122//122
f 127//127 133//133 119//119
f 119//119 133//133 134//134
f 119//119 134//134 135//135
f 17//17 136//136 19//19
f 19//19 136//136 137//137
f 19//19 137//137 130//130
f 130//130 137//137 138//138
f 130//130 138//138 128//128
f 135//135 139//139 119//119
f 119//119 139//139 140//140
f 119//119 140//140 116//116
f 116//116 140//140 141//141
f 116//116 141//141 114//114
f 116//116 115//115 21//21
f 21//21 115//115 22//22
f 16//16 18//18 142//142
f 143//143 144//144 145//145
f 146//146 147//147 142//142
f 142//142 147//147 148//148
f 142//142 148//148 16//16
f 143//143 145//145 149//149
f 149//149 145//145 142//142
f 142//142 145//145 150//150
f 142//142 150//150 146//146
f 151//151 152//152 153//153
f 153//153 154//154 155//155
f 155//155 154//154 156//156
f 155//155 156//156 157//157
f 158//158 159//159 160//160
f 161//161 162//162 163//163
f 163//163 162//162 164//164
f 163//163 164//164 165//165
f 151//151 153//153 163//163
f 163//163 153//153 155//155
f 163//163 155//155 166//166
f 154//154 167//167 156//156
f 156//156 167//167 168//168
f 156//156 168//168 169//169
f 169//169 168//168 170//170
f 160//160 171//171 172//172
f 173//173 161//161 174//174
f 174//174 161//161 163//163
f 174//174 163//163 175//175
f 175//175 163//163 166//166
f 170//170 158//158 169//169
f 169//169 158//158 160//160
f 169//169 160//160 176//176
f 176//176 160//160 172//172
f 177//177 178//178 157//157
f 157//157 178//178 179//179
f 157//157 179//179 155//155
f 180//180 181//181 182//182
f 182//182 181//181 183//183
f 184//184 157//157 181//181
f 181//181 157//157 185//185
f 181//181 185//185 183//183
f 180//180 186//186 181//181
f 181//181 186//186 187//187
f 181//181 187//187 188//188
f 184//184 189//189 157//157
f 157//157 189//189 190//190
f 157//157 190//190 191//191
f 191//191 192//192 157//157
f 157//157 192//192 193//193
f 157//157 193//193 177//177
f 188//188 194//194 181//181
f 181//181 194//194 195//195
f 181//181 195//195 196//196
f 196//196 195//195 197//197
f 198//198 199//199 200//200
f 200//200 199//199 201//201
f 202//202 203//203 204//204
f 205//205 206//206 207//207
f 208//208 209//209 210//210
f 204//204 203//203 205//205
f 205//205 207//207 204//204
f 204//204 207//207 211//211
f 204//204 211//211 212//212
f 212//212 211//211 213//213
f 212//212 213//213 214//214
f 215//215 216//216 217//217
f 214//214 218//218 212//212
f 212//212 218//218 215//215
f 212//212 215//215 219//219
f 219//219 215//215 217//217
f 220//220 221//221 222//222
f 222//222 221//221 208//208
f 222//222 208//208 203//203
f 203//203 208//208 210//210
f 203//203 210//210 205//205
f 223//223 224//224 225//225
f 225//225 224//224 226//226
f 225//225 226//226 222//222
f 222//222 226//226 227//227
f 222//222 227//227 220//220
f 204//204 228//228 202//202
f 202//202 228//228 229//229
f 202//202 229//229 230//230
f 231//231 232//232 202//202
f 202//202 232//232 233//233
f 202//202 233//233 234//234
f 234//234 235//235 202//202
f 202//202 235//235 236//236
f 202//202 236//236 237//237
f 230//230 238//238 202//202
f 202//202 238//238 239//239
f 202//202 239//239 231//231
f 240//240 241//241 242//242
f 237//237 243//243 202//202
f 202//202 243//243 244//244
f 202//202 244//244 245//245
f 245//245 244//244 246//246
f 246//246 244//244 242//242
f 242//242 244//244 247//247
f 242//242 247//247 240//240
f 21//21 20//20 168//168
f 248//248 249//249 209//209
f 209//209 249//249 167//167
f 249//249 250//250 167//167
f 167//167 250//250 119//119
f 167//167 119//119 168//168
f 168//168 119//119 116//116
f 168//168 116//116 21//21
f 251//251 248//248 45//45
f 45//45 248//248 209//209
f 45//45 209//209 40//40
f 40//40 209//209 208//208
f 40//40 208//208 2//2
f 2//2 208//208 3//3
f 152//152 252//252 206//206
f 206//206 252//252 253//253
f 254//254 252//252 117//117
f 117//117 252//252 152//152
f 117//117 152//152 130//130
f 130//130 152//152 151//151
f 56//56 207//207 47//47
f 47//47 207//207 206//206
f 47//47 206//206 255//255
f 255//255 206//206 253//253
f 90//90 256//256 87//87
f 87//87 256//256 257//257
f 87//87 257//257 72//72
f 72//72 257//257 258//258
f 72//72 258//258 73//73
f 73//73 258//258 259//259
f 73//73 259//259 100//100
f 100//100 259//259 260//260
f 100//100 260//260 101//101
f 101//101 260//260 261//261
f 101//101 261//261 102//102
f 102//102 261//261 262//262
f 102//102 262//262 109//109
f 109//109 262//262 263//263
f 109//109 263//263 110//110
f 110//110 263//263 111//111
f 111//111 263//263 264//264
f 111//111 264//264 91//91
f 91//91 264//264 265//265
f 91//91 265//265 92//92
f 92//92 265//265 266//266
f 92//92 266//266 94//94
f 94//94 266//266 267//267
f 94//94 267//267 95//95
f 95//95 267//267 268//268
f 95//95 268//268 96//96
f 96//96 268//268 269//269
f 96//96 269//269 97//97
f 97//97 269//269 270//270
f 97//97 270//270 98//98
f 98//98 270//270 271//271
f 98//98 271//271 99//99
f 99//99 271//271 272//272
f 99//99 272//272 105//105
f 105//105 272//272 273//273
f 105//105 273//273 274//274
f 274//274 273//273 275//275
f 274//274 275//275 103//103
f 103//103 275//275 276//276
f 103//103 276//276 106//106
f 106//106 276//276 277//277
f 106//106 277//277 107//107
f 107//107 277//277 278//278
f 107//107 278//278 108//108
f 108//108 278//278 279//279
f 108//108 279//279 112//112
f 112//112 279//279 280//280
f 112//112 280//280 113//113
f 113//113 280//280 281//281
f 113//113 281//281 75//75
f 75//75 281//281 282//282
f 75//75 282//282 76//76
f 76//76 282//282 283//283
f 76//76 283//283 78//78
f 78//78 283//283 284//284
f 78//78 284//284 80//80
f 80//80 284//284 285//285
f 80//80 285//285 81//81
f 81//81 285//285 286//286
f 81//81 286//286 82//82
f 82//82 286//286 287//287
f 82//82 287//287 83//83
f 83//83 287//287 288//288
f 83//83 288//288 84//84
f 84//84 288//288 289//289
f 84//84 289//289 85//85
f 85//85 289//289 290//290
f 85//85 290//290 86//86
f 86//86 290//290 291//291
f 86//86 291//291 88//88
f 88//88 291//291 292//292
f 88//88 292//292 89//89
f 89//89 292//292 293//293
f 89//89 293//293 90//90
f 90//90 293//293 294//294
f 90//90 294//294 256//256
f 295//295 296//296 297//297
f 295//295 297//297 298//298
f 299//299 300//300 297//297
f 297//297 300//300 301//301
f 297//297 301//301 298//298
f 302//302 303//303 297//297
f 297//297 303//303 304//304
f 297//297 304//304 299//299
f 305//305 306//306 297//297
f 297//297 306//306 307//307
f 297//297 307//307 302//302
f 308//308 309//309 297//297
f 297//297 309//309 310//310
f 297//297 310//310 305//305
f 311//311 312//312 297//297
f 297//297 312//312 313//313
f 297//297 313//313 308//308
f 314//314 315//315 297//297
f 297//297 315//315 316//316
f 297//297 316//316 311//311
f 317//317 318//318 297//297
f 297//297 318//318 319//319
f 297//297 319//319 314//314
f 320//320 321//321 297//297
f 297//297 321//321 322//322
f 297//297 322//322 317//317
f 323//323 324//324 297//297
f 297//297 324//324 325//325
f 297//297 325//325 320//320
f 326//326 327//327 297//297
f 297//297 327//327 328//328
f 297//297 328//328 323//323
f 329//329 330//330 297//297
f 297//297 330//330 331//331
f 297//297 331//331 326//326
f 296//296 332//332 297//297
f 297//297 332//332 333//333
f 297//297 333//333 329//329
f 211//211 207//207 56//56
f 56//56 14//14 211//211
f 211//211 14//14 15//15
f 211//211 15//15 31//31
f 222//222 334//334 225//225
f 225//225 334//334 335//335
f 225//225 335//335 4//4
f 4//4 5//5 225//225
f 225//225 5//5 6//6
f 225//225 6//6 223//223
f 223//223 6//6 11//11
f 223//223 11//11 224//224
f 224//224 11//11 10//10
f 224//224 10//10 226//226
f 226//226 10//10 8//8
f 226//226 8//8 227//227
f 227//227 8//8 7//7
f 227//227 7//7 220//220
f 220//220 7//7 9//9
f 220//220 9//9 221//221
f 221//221 9//9 3//3
f 221//221 3//3 208//208
f 71//71 70//70 203//203
f 203//203 70//70 336//336
f 203//203 336//336 222//222
f 222//222 336//336 337//337
f 222//222 337//337 334//334
f 12//12 42//42 204//204
f 12//12 204//204 13//13
f 13//13 204//204 212//212
f 13//13 212//212 32//32
f 32//32 212//212 219//219
f 32//32 219//219 38//38
f 38//38 219//219 217//217
f 38//38 217//217 36//36
f 36//36 217//217 216//216
f 36//36 216//216 37//37
f 37//37 216//216 215//215
f 37//37 215//215 33//33
f 33//33 215//215 218//218
f 33//33 218//218 34//34
f 34//34 218//218 214//214
f 34//34 214//214 35//35
f 35//35 214//214 213//213
f 35//35 213//213 39//39
f 39//39 213//213 211//211
f 39//39 211//211 31//31
f 166//166 148//148 147//147
f 166//166 147//147 175//175
f 175//175 147//147 146//146
f 175//175 146//146 174//174
f 174//174 146//146 150//150
f 174//174 150//150 173//173
f 173//173 150//150 145//145
f 173//173 145//145 161//161
f 161//161 145//145 144//144
f 161//161 144//144 162//162
f 162//162 144//144 143//143
f 162//162 143//143 164//164
f 164//164 143//143 149//149
f 164//164 149//149 165//165
f 165//165 149//149 142//142
f 165//165 142//142 163//163
f 155//155 136//136 17//17
f 155//155 17//17 166//166
f 166//166 17//17 16//16
f 166//166 16//16 148//148
f 115//115 114//114 156//156
f 115//115 156//156 22//22
f 22//22 156//156 169//169
f 22//22 169//169 26//26
f 168//168 20//20 30//30
f 168//168 30//30 170//170
f 170//170 30//30 29//29
f 170//170 29//29 158//158
f 158//158 29//29 28//28
f 158//158 28//28 159//159
f 159//159 28//28 25//25
f 159//159 25//25 160//160
f 160//160 25//25 24//24
f 160//160 24//24 171//171
f 171//171 24//24 23//23
f 171//171 23//23 172//172
f 172//172 23//23 27//27
f 172//172 27//27 176//176
f 176//176 27//27 26//26
f 176//176 26//26 169//169
f 130//130 151//151 19//19
f 19//19 151//151 163//163
f 19//19 163//163 18//18
f 18//18 163//163 142//142
f 249//249 248//248 338//338
f 339//339 93//93 340//340
f 340//340 93//93 341//341
f 77//77 249//249 93//93
f 93//93 249//249 338//338
f 93//93 338//338 341//341
f 342//342 343//343 77//77
f 77//77 343//343 344//344
f 77//77 344//344 249//249
f 253//253 252//252 345//345
f 79//79 74//74 253//253
f 346//346 347//347 79//79
f 348//348 349//349 74//74
f 74//74 349//349 350//350
f 74//74 350//350 253//253
f 253//253 345//345 79//79
f 79//79 345//345 351//351
f 79//79 351//351 346//346
f 352//352 353//353 206//206
f 354//354 355//355 152//152
f 152//152 355//355 356//356
f 353//353 357//357 206//206
f 206//206 357//357 200//200
f 206//206 200//200 152//152
f 152//152 200//200 201//201
f 152//152 201//201 354//354
f 356//356 358//358 152//152
f 152//152 358//358 359//359
f 152//152 359//359 153//153
f 205//205 360//360 206//206
f 206//206 360//360 361//361
f 206//206 361//361 352//352
f 362//362 363//363 167//167
f 364//364 365//365 209//209
f 209//209 365//365 366//366
f 154//154 367//367 167//167
f 167//167 367//367 368//368
f 167//167 368//368 362//362
f 363//363 369//369 167//167
f 167//167 369//369 199//199
f 167//167 199//199 209//209
f 209//209 199//199 198//198
f 209//209 198//198 364//364
f 366//366 370//370 209//209
f 209//209 370//370 371//371
f 209//209 371//371 210//210
f 205//205 210//210 360//360
f 360//360 210//210 371//371
f 360//360 371//371 361//361
f 361//361 371//371 370//370
f 361//361 370//370 352//352
f 352//352 370//370 366//366
f 352//352 366//366 353//353
f 353//353 366//366 365//365
f 353//353 365//365 357//357
f 357//357 365//365 364//364
f 357//357 364//364 200//200
f 200//200 364//364 198//198
f 358//358 356//356 362//362
f 362//362 356//356 355//355
f 362//362 355//355 363//363
f 363//363 355//355 354//354
f 363//363 354//354 369//369
f 369//369 354//354 201//201
f 369//369 201//201 199//199
f 367//367 154//154 153//153
f 362//362 368//368 358//358
f 358//358 368//368 367//367
f 358//358 367//367 359//359
f 359//359 367//367 153//153
f 4//4 335//335 1//1
f 1//1 335//335 334//334
f 1//1 334//334 337//337
f 1//1 337//337 41//41
f 41//41 337//337 336//336
f 70//70 65//65 336//336
f 336//336 65//65 66//66
f 336//336 66//66 41//41
f 248//248 255//255 338//338
f 338//338 255//255 253//253
f 338//338 253//253 350//350
f 74//74 93//93 348//348
f 348//348 93//93 339//339
f 348//348 339//339 349//349
f 349//349 339//339 340//340
f 349//349 340//340 350//350
f 350//350 340//340 341//341
f 350//350 341//341 338//338
f 248//248 251//251 255//255
f 255//255 251//251 45//45
f 255//255 45//45 47//47
f 345//345 252//252 250//250
f 250//250 249//249 345//345
f 345//345 249//249 344//344
f 345//345 344//344 351//351
f 351//351 344//344 346//346
f 342//342 77//77 79//79
f 344//344 343//343 346//346
f 346//346 343//343 342//342
f 346//346 342//342 347//347
f 347//347 342//342 79//79
f 252//252 254//254 250//250
f 250//250 254//254 117//117
f 250//250 117//117 119//119
f 296//296 372//372 373//373
f 373//373 372//372 294//294
f 372//372 298//298 294//294
f 294//294 298//298 301//301
f 294//294 301//301 256//256
f 256//256 301//301 300//300
f 256//256 300//300 257//257
f 257//257 300//300 299//299
f 257//257 299//299 258//258
f 258//258 299//299 304//304
f 258//258 304//304 259//259
f 259//259 304//304 303//303
f 259//259 303//303 260//260
f 260//260 303//303 302//302
f 260//260 302//302 261//261
f 261//261 302//302 307//307
f 261//261 307//307 262//262
f 262//262 307//307 306//306
f 262//262 306//306 263//263
f 263//263 306//306 305//305
f 263//263 305//305 264//264
f 264//264 305//305 310//310
f 264//264 310//310 265//265
f 265//265 310//310 309//309
f 265//265 309//309 266//266
f 266//266 309//309 308//308
f 266//266 308//308 267//267
f 267//267 308//308 313//313
f 267//267 313//313 268//268
f 268//268 313//313 312//312
f 268//268 312//312 269//269
f 269//269 312//312 311//311
f 269//269 311//311 270//270
f 270//270 311//311 316//316
f 270//270 316//316 271//271
f 271//271 316//316 315//315
f 271//271 315//315 272//272
f 272//272 315//315 314//314
f 272//272 314//314 273//273
f 273//273 314//314 319//319
f 273//273 319//319 275//275
f 275//275 319//319 318//318
f 275//275 318//318 276//276
f 276//276 318//318 317//317
f 276//276 317//317 277//277
f 277//277 317//317 322//322
f 277//277 322//322 278//278
f 278//278 322//322 321//321
f 278//278 321//321 279//279
f 279//279 321//321 320//320
f 279//279 320//320 280//280
f 280//280 320//320 325//325
f 280//280 325//325 281//281
f 281//281 325//325 324//324
f 281//281 324//324 282//282
f 282//282 324//324 323//323
f 282//282 323//323 283//283
f 283//283 323//323 328//328
f 283//283 328//328 284//284
f 284//284 328//328 327//327
f 284//284 327//327 285//285
f 285//285 327//327 326//326
f 285//285 326//326 286//286
f 286//286 326//326 331//331
f 286//286 331//331 287//287
f 287//287 331//331 330//330
f 287//287 330//330 288//288
f 288//288 330//330 329//329
f 288//288 329//329 289//289
f 289//289 329//329 333//333
f 289//289 333//333 290//290
f 290//290 333//333 332//332
f 290//290 332//332 291//291
f 291//291 332//332 296//296
f 291//291 296//296 292//292
f 292//292 296//296 373//373
f 228//228 204//204 42//42
f 64//64 71//71 374//374
f 374//374 375//375 64//64
f 64//64 375//375 376//376
f 64//64 376//376 63//63
f 63//63 376//376 377//377
f 63//63 377//377 57//57
f 57//57 377//377 378//378
f 57//57 378//378 58//58
f 58//58 378//378 379//379
f 58//58 379//379 59//59
f 59//59 379//379 380//380
f 59//59 380//380 51//51
f 51//51 380//380 381//381
f 51//51 381//381 52//52
f 52//52 381//381 382//382
f 52//52 382//382 53//53
f 53//53 382//382 383//383
f 53//53 383//383 43//43
f 43//43 383//383 384//384
f 43//43 384//384 44//44
f 44//44 384//384 385//385
f 44//44 385//385 46//46
f 46//46 385//385 386//386
f 46//46 386//386 48//48
f 48//48 386//386 387//387
f 48//48 387//387 49//49
f 49//49 387//387 388//388
f 49//49 388//388 50//50
f 50//50 388//388 389//389
f 50//50 389//389 54//54
f 54//54 389//389 390//390
f 54//54 390//390 55//55
f 55//55 390//390 391//391
f 55//55 391//391 60//60
f 60//60 391//391 392//392
f 60//60 392//392 61//61
f 61//61 392//392 393//393
f 61//61 393//393 62//62
f 62//62 393//393 394//394
f 62//62 394//394 67//67
f 67//67 394//394 395//395
f 67//67 395//395 68//68
f 68//68 395//395 396//396
f 68//68 396//396 69//69
f 69//69 396//396 42//42
f 42//42 396//396 397//397
f 42//42 397//397 228//228
f 228//228 397//397 398//398
f 228//228 398//398 229//229
f 229//229 398//398 399//399
f 229//229 399//399 230//230
f 230//230 399//399 400//400
f 230//230 400//400 238//238
f 238//238 400//400 401//401
f 238//238 401//401 239//239
f 239//239 401//401 402//402
f 239//239 402//402 231//231
f 231//231 402//402 403//403
f 231//231 403//403 232//232
f 232//232 403//403 404//404
f 232//232 404//404 233//233
f 233//233 404//404 405//405
f 233//233 405//405 234//234
f 234//234 405//405 406//406
f 234//234 406//406 235//235
f 235//235 406//406 407//407
f 235//235 407//407 236//236
f 236//236 407//407 408//408
f 236//236 408//408 237//237
f 237//237 408//408 409//409
f 237//237 409//409 243//243
f 243//243 409//409 410//410
f 243//243 410//410 244//244
f 244//244 410//410 411//411
f 244//244 411//411 247//247
f 247//247 411//411 412//412
f 247//247 412//412 240//240
f 240//240 412//412 413//413
f 240//240 413//413 241//241
f 241//241 413//413 414//414
f 241//241 414//414 242//242
f 242//242 414//414 415//415
f 242//242 415//415 246//246
f 246//246 415//415 416//416
f 246//246 416//416 245//245
f 245//245 416//416 374//374
f 245//245 374//374 202//202
f 202//202 374//374 71//71
f 202//202 71//71 203//203
f 407//407 406//406 417//417
f 410//410 409//409 417//417
f 417//417 409//409 408//408
f 417//417 408//408 407//407
f 413//413 412//412 417//417
f 417//417 412//412 411//411
f 417//417 411//411 410//410
f 416//416 415//415 417//417
f 417//417 415//415 414//414
f 417//417 414//414 413//413
f 376//376 375//375 417//417
f 417//417 375//375 374//374
f 417//417 374//374 416//416
f 379//379 378//378 417//417
f 417//417 378//378 377//377
f 417//417 377//377 376//376
f 382//382 381//381 417//417
f 417//417 381//381 380//380
f 417//417 380//380 379//379
f 385//385 384//384 417//417
f 417//417 384//384 383//383
f 417//417 383//383 382//382
f 388//388 387//387 417//417
f 417//417 387//387 386//386
f 417//417 386//386 385//385
f 391//391 390//390 417//417
f 417//417 390//390 389//389
f 417//417 389//389 388//388
f 394//394 393//393 417//417
f 417//417 393//393 392//392
f 417//417 392//392 391//391
f 397//397 396//396 417//417
f 417//417 396//396 395//395
f 417//417 395//395 394//394
f 400//400 399//399 417//417
f 417//417 399//399 398//398
f 417//417 398//398 397//397
f 403//403 402//402 417//417
f 417//417 402//402 401//401
f 417//417 401//401 400//400
f 406//406 405//405 417//417
f 417//417 405//405 404//404
f 417//417 404//404 403//403
f 137//137 136//136 418//418
f 418//418 419//419 137//137
f 137//137 419//419 420//420
f 137//137 420//420 138//138
f 138//138 420//420 421//421
f 138//138 421//421 128//128
f 128//128 421//421 422//422
f 128//128 422//422 129//129
f 129//129 422//422 423//423
f 129//129 423//423 131//131
f 131//131 423//423 424//424
f 131//131 424//424 132//132
f 132//132 424//424 425//425
f 132//132 425//425 122//122
f 122//122 425//425 426//426
f 122//122 426//426 123//123
f 123//123 426//426 427//427
f 123//123 427//427 124//124
f 124//124 427//427 428//428
f 124//124 428//428 118//118
f 118//118 428//428 429//429
f 118//118 429//429 120//120
f 120//120 429//429 430//430
f 120//120 430//430 121//121
f 121//121 430//430 431//431
f 121//121 431//431 125//125
f 125//125 431//431 432//432
f 125//125 432//432 126//126
f 126//126 432//432 433//433
f 126//126 433//433 127//127
f 127//127 433//433 434//434
f 127//127 434//434 133//133
f 133//133 434//434 435//435
f 133//133 435//435 134//134
f 134//134 435//435 436//436
f 134//134 436//436 135//135
f 135//135 436//436 437//437
f 135//135 437//437 139//139
f 139//139 437//437 438//438
f 139//139 438//438 140//140
f 140//140 438//438 439//439
f 140//140 439//439 141//141
f 157//157 156//156 114//114
f 196//196 440//440 181//181
f 181//181 440//440 441//441
f 181//181 441//441 184//184
f 184//184 441//441 442//442
f 184//184 442//442 189//189
f 189//189 442//442 443//443
f 189//189 443//443 190//190
f 190//190 443//443 444//444
f 190//190 444//444 191//191
f 191//191 444//444 445//445
f 191//191 445//445 192//192
f 192//192 445//445 446//446
f 192//192 446//446 193//193
f 193//193 446//446 447//447
f 193//193 447//447 177//177
f 177//177 447//447 448//448
f 177//177 448//448 178//178
f 178//178 448//448 418//418
f 178//178 418//418 179//179
f 179//179 418//418 136//136
f 179//179 136//136 155//155
f 141//141 439//439 114//114
f 114//114 439//439 449//449
f 114//114 449//449 157//157
f 157//157 449//449 450//450
f 157//157 450//450 185//185
f 185//185 450//450 451//451
f 185//185 451//451 183//183
f 183//183 451//451 452//452
f 183//183 452//452 182//182
f 182//182 452//452 453//453
f 182//182 453//453 180//180
f 180//180 453//453 454//454
f 180//180 454//454 186//186
f 186//186 454//454 455//455
f 186//186 455//455 187//187
f 187//187 455//455 456//456
f 187//187 456//456 188//188
f 188//188 456//456 457//457
f 188//188 457//457 194//194
f 194//194 457//457 458//458
f 194//194 458//458 195//195
f 195//195 458//458 459//459
f 195//195 459//459 197//197
f 197//197 459//459 460//460
f 197//197 460//460 196//196
f 196//196 460//460 461//461
f 196//196 461//461 440//440
f 460//460 459//459 462//462
f 460//460 462//462 461//461
f 442//442 441//441 462//462
f 462//462 441//441 440//440
f 462//462 440//440 461//461
f 445//445 444//444 462//462
f 462//462 444//444 443//443
f 462//462 443//443 442//442
f 448//448 447//447 462//462
f 462//462 447//447 446//446
f 462//462 446//446 445//445
f 420//420 419//419 462//462
f 462//462 419//419 418//418
f 462//462 418//418 448//448
f 423//423 422//422 462//462
f 462//462 422//422 421//421
f 462//462 421//421 420//420
f 426//426 425//425 462//462
f 462//462 425//425 424//424
f 462//462 424//424 423//423
f 429//429 428//428 462//462
f 462//462 428//428 427//427
f 462//462 427//427 426//426
f 432//432 431//431 462//462
f 462//462 431//431 430//430
f 462//462 430//430 429//429
f 435//435 434//434 462//462
f 462//462 434//434 433//433
f 462//462 433//433 432//432
f 438//438 437//437 462//462
f 462//462 437//437 436//436
f 462//462 436//436 435//435
f 450//450 449//449 462//462
f 462//462 449//449 439//439
f 462//462 439//439 438//438
f 453//453 452//452 462//462
f 462//462 452//452 451//451
f 462//462 451//451 450//450
f 456//456 455//455 462//462
f 462//462 455//455 454//454
f 462//462 454//454 453//453
f 459//459 458//458 462//462
f 462//462 458//458 457//457
f 462//462 457//457 456//456
f 463//463 464//464 465//465
f 465//465 464//464 466//466
f 465//465 466//466 467//467
f 467//467 466//466 468//468
f 467//467 468//468 469//469
f 469//469 468//468 470//470
f 469//469 470//470 471//471
f 471//471 470//470 472//472
f 471//471 472//472 473//473
f 473//473 472//472 474//474
f 473//473 474//474 475//475
f 475//475 474//474 476//476
f 475//475 476//476 477//477
f 477//477 476//476 478//478
f 477//477 478//478 479//479
f 479//479 478//478 480//480
f 479//479 480//480 481//481
f 481//481 480//480 482//482
f 481//481 482//482 483//483
f 483//483 482//482 484//484
f 483//483 484//484 485//485
f 485//485 484//484 486//486
f 485//485 486//486 463//463
f 463//463 486//486 464//464
f 483//483 485//485 487//487
f 487//487 485//485 463//463
f 487//487 463//463 465//465
f 477//477 479//479 487//487
f 487//487 479//479 481//481
f 487//487 481//481 483//483
f 471//471 473//473 487//487
f 487//487 473//473 475//475
f 487//487 475//475 477//477
f 465//465 467//467 487//487
f 487//487 467//467 469//469
f 487//487 469//469 471//471
f 468//468 466//466 488//488
f 488//488 466//466 464//464
f 488//488 464//464 486//486
f 474//474 472//472 488//488
f 488//488 472//472 470//470
f 488//488 470//470 468//468
f 480//480 478//478 488//488
f 488//488 478//478 476//476
f 488//488 476//476 474//474
f 486//486 484//484 488//488
f 488//488 484//484 482//482
f 488//488 482//482 480//480
f 489//489 490//490 491//491
f 491//491 490//490 492//492
f 491//491 492//492 493//493
f 493//493 492//492 494//494
f 493//493 494//494 495//495
f 495//495 494//494 496//496
f 495//495 496//496 497//497
f 497//497 496//496 498//498
f 497//497 498//498 499//499
f 499//499 498//498 500//500
f 499//499 500//500 501//501
f 501//501 500//500 502//502
f 501//501 502//502 503//503
f 503//503 502//502 504//504
f 503//503 504//504 505//505
f 505//505 504//504 506//506
f 505//505 506//506 507//507
f 507//507 506//506 508//508
f 507//507 508//508 509//509
f 509//509 508//508 510//510
f 509//509 510//510 511//511
f 511//511 510//510 512//512
f 511//511 512//512 489//489
f 489//489 512//512 490//490
f 497//497 499//499 513//513
f 513//513 499//499 501//501
f 513//513 501//501 503//503
f 491//491 493//493 513//513
f 513//513 493//493 495//495
f 513//513 495//495 497//497
f 509//509 511//511 513//513
f 513//513 511//511 489//489
f 513//513 489//489 491//491
f 503//503 505//505 513//513
f 513//513 505//505 507//507
f 513//513 507//507 509//509
f 506//506 504//504 514//514
f 514//514 504//504 502//502
f 514//514 502//502 500//500
f 512//512 510//510 514//514
f 514//514 510//510 508//508
f 514//514 508//508 506//506
f 494//494 492//492 514//514
f 514//514 492//492 490//490
f 514//514 490//490 512//512
f 500//500 498//498 514//514
f 514//514 498//498 496//496
f 514//514 496//496 494//494
# 1010 faces, 0 coords texture

# End of File
