<?xml version="1.0" encoding="UTF-8"?>
<COLLADA xmlns="http://www.collada.org/2005/11/COLLADASchema" version="1.4.1">
    <asset>
        <contributor>
            <author>VCGLab</author>
            <authoring_tool>VCGLib | MeshLab</authoring_tool>
        </contributor>
        <created>周一 7月 4 08:45:24 2022 GMT</created>
        <modified>周一 7月 4 08:45:24 2022 GMT</modified>
        <up_axis>Y_UP</up_axis>
    </asset>
    <library_geometries>
        <geometry id="shape0-lib" name="shape0">
            <mesh>
                <source id="shape0-lib-positions" name="position">
                    <float_array id="shape0-lib-positions-array" count="1485">0.04 -0.00602813 0.0153594 0.04 -0.005 0.0157242 0.04 -0.005 0.002 0.04 -0.005 -0.002 0.04 -0.005 -0.0157242 0.04 -0.00602813 -0.0153594 0.04 -0.0102876 0.0129002 0.04 -0.0102876 -0.0129002 0.04 -0.0136329 -0.00929478 0.04 -0.0158438 -0.002 0.04 -0.015767 -0.00486346 0.04 -0.0165 -3.67394e-19 0.04 -0.0158438 0.002 0.04 -0.015767 0.00486346 0.04 -0.0136329 0.00929478 0.0163242 -0.005 0.002 8.9407e-10 -0.005 0.017 -0.00478945 -0.005 0.0163114 0.0378868 -0.005 0.017 -0.0154637 -0.005 -0.00706206 -0.0128477 -0.005 -0.0111326 -0.00919089 -0.005 0.0143013 -0.0128477 -0.005 0.0111326 -0.0154637 -0.005 0.00706206 -0.00919089 -0.005 -0.0143013 -0.00478945 -0.005 -0.0163114 0.0163242 -0.005 -0.002 8.9407e-10 -0.005 -0.017 0.0378868 -0.005 -0.017 -0.016827 -0.005 0.00241935 -0.016827 -0.005 -0.00241935 0.04 0.004 -0.0160078 0.04 0.004 0.0160078 0.04 0.00825 -0.0142894 0.04 0.00825 0.0142894 0.04 0.0120954 0.0112229 0.04 0.014866 0.00715908 0.04 0.0163157 0.0024592 0.04 0.0163157 -0.0024592 0.04 0.014866 -0.00715908 0.04 0.0120954 -0.0112229 0.036 3.031e-18 -0.0165 0.0370343 0.00013603 -0.0164994 0.04 3.031e-18 -0.0165 0.038 0.000535898 -0.0164913 0.0388298 0.00117296 -0.0164583 0.0394641 0.002 -0.0163783 0.0398183 0.00280818 -0.0162593 0.045 0.0036716 -0.0160863 0.04 -0.00123305 -0.0164539 0.045 -0.00123305 -0.0164539 0.04 -0.00254497 -0.0163025 0.045 -0.00602813 -0.0153594 0.045 -0.00602813 0.0153594 0.045 -0.0102876 0.0129002 0.045 -0.0136329 0.00929478 0.045 -0.015767 0.00486346 0.045 -0.0165 -3.67394e-19 0.045 -0.015767 -0.00486346 0.045 -0.0136329 -0.00929478 0.045 -0.0102876 -0.0129002 0.04 -0.00123305 0.0164539 0.04 -0.00254497 0.0163025 0.045 -0.00123305 0.0164539 0.0394641 0.002 0.0163783 0.0388291 0.00117223 0.0164583 0.04 -1.01033e-18 0.0165 0.0398195 0.00281204 0.0162586 0.038 0.000535898 0.0164913 0.0370386 0.000137178 0.0164994 0.036 -1.01033e-18 0.0165 0.045 0.0036716 0.0160863 0.0399865 0.0036716 0.0160863 0.045 0.00825 0.0142894 0.045 0.0120954 0.0112229 0.045 0.014866 0.00715908 0.045 0.0163157 0.0024592 0.045 0.0165 5.69461e-18 0.045 0.0163157 -0.0024592 0.045 0.014866 -0.00715908 0.045 0.0120954 -0.0112229 0.045 0.00825 -0.0142894 0.0399861 0.0036663 -0.0160875 8.9407e-10 0 0.017 -0.00478945 0 0.0163114 -0.00919089 0 0.0143013 -0.0128477 0 0.0111326 -0.0154637 0 0.00706206 -0.016827 0 0.00241935 -0.016827 0 -0.00241935 -0.0154637 0 -0.00706206 -0.0128477 0 -0.0111326 -0.00919089 0 -0.0143013 -0.00478945 0 -0.0163114 8.9407e-10 0 -0.017 0.0387773 -0.00265385 -0.017 0.039134 0 -0.017 0.039134 0 0.017 0.0387773 -0.00265385 0.017 0.036 0 -0.0165 0.04 0 -0.0165 0.036 0 0.0165 0.04 0 0.0165 0.0373141 -0.0120658 0.002 0.0176383 -0.00522201 0.002 0.0373141 -0.0120658 -0.002 0.0176383 -0.00522201 -0.002 0.0396653 -0.0142419 0.002 0.0387171 -0.0129082 0.002 0.0396653 -0.0142419 -0.002 0.0387171 -0.0129082 -0.002 0.04 -1.73472e-18 0.0165 0.039134 -1.04095e-18 0.017 0.039134 3.12285e-18 -0.017 0.045 -0.038 -3.67394e-19 0.045 -0.0372221 -0.00764934 0.097 -0.0376132 -0.00540796 0.045 -0.0349204 -0.0149855 0.097 -0.0364607 -0.0107058 0.097 -0.0372221 -0.00764934 0.097 -0.031189 -0.0217082 0.097 -0.0319676 -0.0205444 0.045 -0.031189 -0.0217082 0.097 -0.034566 -0.0157858 0.097 -0.0349204 -0.0149855 0.097 -0.0287185 -0.0248847 0.045 -0.0261807 -0.0275421 0.097 -0.0261807 -0.0275421 0.097 -0.0248847 -0.0287185 0.045 -0.0201006 -0.0322485 0.097 -0.0205444 -0.0319676 0.045 -0.0131976 -0.0356346 0.097 -0.0157858 -0.034566 0.097 -0.0201006 -0.0322485 0.045 -0.00575426 -0.0375618 0.097 -0.0107058 -0.0364607 0.097 -0.0131976 -0.0356346 0.097 0.00192467 -0.0379512 0.097 -6.05211e-17 -0.038 0.045 0.00192467 -0.0379512 0.097 -0.00540796 -0.0376132 0.097 -0.00575426 -0.0375618 0.097 0.00540796 -0.0376132 0.045 0.0095248 -0.0367869 0.097 0.0095248 -0.0367869 0.097 0.0107058 -0.0364607 0.045 0.016735 -0.0341166 0.097 0.0157858 -0.034566 0.045 0.02326 -0.0300495 0.097 0.0205444 -0.0319676 0.097 0.016735 -0.0341166 0.097 0.0287185 -0.0248847 0.097 0.0248847 -0.0287185 0.097 0.02326 -0.0300495 0.097 0.0288328 -0.0247522 0.045 0.0288328 -0.0247522 0.097 0.0319676 -0.0205444 0.045 0.0332252 -0.0184415 0.097 0.0332252 -0.0184415 0.097 0.034566 -0.0157858 0.045 0.0362573 -0.0113758 0.097 0.0362573 -0.0113758 0.097 0.0364607 -0.0107058 0.045 0.037805 -0.0038444 0.097 0.0376132 -0.00540796 0.097 0.0362573 0.0113758 0.097 0.0364607 0.0107058 0.045 0.0362573 0.0113758 0.097 0.0376132 0.00540796 0.045 0.037805 0.0038444 0.097 0.037805 0.0038444 0.045 0.038 4.28626e-18 0.097 0.038 4.28626e-18 0.097 0.037805 -0.0038444 0.097 0.034566 0.0157858 0.045 0.0332252 0.0184415 0.097 0.0332252 0.0184415 0.097 0.0319676 0.0205444 0.045 0.0288328 0.0247522 0.097 0.0288328 0.0247522 0.097 0.0287185 0.0248847 0.045 0.02326 0.0300495 0.097 0.0248847 0.0287185 0.045 0.016735 0.0341166 0.097 0.0205444 0.0319676 0.097 0.02326 0.0300495 0.097 0.0095248 0.0367869 0.097 0.0107058 0.0364607 0.045 0.0095248 0.0367869 0.097 0.0157858 0.034566 0.097 0.016735 0.0341166 0.097 0.00540796 0.0376132 0.045 0.00192467 0.0379512 0.097 0.00192467 0.0379512 0.097 1.45486e-17 0.038 0.045 -0.00575426 0.0375618 0.097 -0.00540796 0.0376132 0.045 -0.0131976 0.0356346 0.097 -0.0107058 0.0364607 0.097 -0.00575426 0.0375618 0.045 -0.0201006 0.0322485 0.097 -0.0157858 0.034566 0.097 -0.0131976 0.0356346 0.097 -0.0261807 0.0275421 0.097 -0.0248847 0.0287185 0.045 -0.0261807 0.0275421 0.097 -0.0205444 0.0319676 0.097 -0.0201006 0.0322485 0.097 -0.0287185 0.0248847 0.045 -0.031189 0.0217082 0.097 -0.031189 0.0217082 0.097 -0.0319676 0.0205444 0.045 -0.0349204 0.0149855 0.097 -0.034566 0.0157858 0.045 -0.0372221 0.00764934 0.097 -0.0364607 0.0107058 0.097 -0.0349204 0.0149855 0.097 -0.038 -3.67394e-19 0.097 -0.0376132 0.00540796 0.097 -0.0372221 0.00764934 0.107 0.028 -7.22542e-18 0.107 0.027715 0.00398482 0.107 0 -3.67394e-19 0.107 0.027715 -0.00398482 0.107 0.0235551 -0.0151379 0.107 0.0254697 -0.0116316 0.107 0.0268658 -0.00788851 0.107 0.0151379 -0.0235551 0.107 0.0183361 -0.021161 0.107 0.021161 -0.0183361 0.107 0.00398482 -0.027715 0.107 0.00788851 -0.0268658 0.107 0.0116316 -0.0254697 0.107 -0.00788851 -0.0268658 0.107 -0.00398482 -0.027715 0.107 -5.48815e-17 -0.028 0.107 -0.0183361 -0.021161 0.107 -0.0151379 -0.0235551 0.107 -0.0116316 -0.0254697 0.107 -0.0254697 -0.0116316 0.107 -0.0235551 -0.0151379 0.107 -0.021161 -0.0183361 0.107 -0.028 2.79306e-17 0.107 -0.027715 -0.00398482 0.107 -0.0268658 -0.00788851 0.107 -0.0254697 0.0116316 0.107 -0.0268658 0.00788851 0.107 -0.027715 0.00398482 0.107 -0.0183361 0.021161 0.107 -0.021161 0.0183361 0.107 -0.0235551 0.0151379 0.107 -0.00788851 0.0268658 0.107 -0.0116316 0.0254697 0.107 -0.0151379 0.0235551 0.107 0.00398482 0.027715 0.107 7.93175e-18 0.028 0.107 -0.00398482 0.027715 0.107 0.0151379 0.0235551 0.107 0.0116316 0.0254697 0.107 0.00788851 0.0268658 0.107 0.0235551 0.0151379 0.107 0.021161 0.0183361 0.107 0.0183361 0.021161 0.107 0.0268658 0.00788851 0.107 0.0254697 0.0116316 0.045 0.0165 1.65327e-18 0.045 0.038 1.35936e-17 0.0995882 0.0372759 0.00535947 0.0995882 0.0342561 0.0156442 0.0995882 0.028461 0.0246616 0.0995882 0.0203601 0.031681 0.0995882 0.0156442 0.0342561 0.0995882 0.00535947 0.0372759 0.0995882 -0.0106098 0.0361338 0.0995882 -0.0156442 0.0342561 0.0995882 -0.0203601 0.031681 0.0995882 -0.028461 0.0246616 0.0995882 -0.031681 0.0203601 0.0995882 -0.0361338 0.0106098 0.0995882 -0.0361338 -0.0106098 0.0995882 -0.0342561 -0.0156442 0.0995882 -0.028461 -0.0246616 0.0995882 -0.0156442 -0.0342561 0.0995882 -0.00535947 -0.0372759 0.0995882 0.00535947 -0.0372759 0.0995882 0.0106098 -0.0361338 0.0995882 0.0203601 -0.031681 0.0995882 0.031681 -0.0203601 0.0995882 0.0342561 -0.0156442 0.106659 0.027824 -0.0127068 0.106659 0.0293492 -0.00861769 0.10566 0.0316633 -0.00929717 0.106659 0.0302768 -0.00435315 0.10566 0.0326641 -0.00469639 0.104071 0.0347141 -0.00499113 0.107 0.028 -3.67394e-19 0.106659 0.0305882 -3.67394e-19 0.10566 0.033 -3.67394e-19 0.104071 0.0350711 -3.67394e-19 0.102 0.0366603 -3.67394e-19 0.106659 0.0302768 0.00435315 0.10566 0.0326641 0.00469639 0.104071 0.0347141 0.00499113 0.102 0.0362871 0.0052173 0.102 0.0362871 -0.0052173 0.0995882 0.0372759 -0.00535947 0.0995882 0.0376593 -3.67394e-19 0.0995882 0.0361338 -0.0106098 0.102 0.0351753 -0.0103284 0.104071 0.0336504 -0.00988066 0.106659 0.020031 -0.023117 0.106659 0.0165372 -0.0257324 0.10566 0.0216104 -0.0249397 0.10566 0.0178411 -0.0277614 0.104071 0.0229667 -0.0265049 0.104071 0.0189609 -0.0295037 0.102 0.0240074 -0.027706 0.102 0.01982 -0.0308406 0.0995882 0.0246616 -0.028461 0.106659 -0.00861769 -0.0293492 0.106659 -0.0127068 -0.027824 0.10566 -0.00929717 -0.0316633 0.10566 -0.0137087 -0.0300179 0.104071 -0.00988066 -0.0336504 0.104071 -0.014569 -0.0319018 0.102 -0.0103284 -0.0351753 0.102 -0.0152292 -0.0333473 0.0995882 -0.0106098 -0.0361338 0.106659 -0.020031 -0.023117 0.106659 -0.023117 -0.020031 0.10566 -0.0216104 -0.0249397 0.10566 -0.0249397 -0.0216104 0.104071 -0.0229667 -0.0265049 0.104071 -0.0265049 -0.0229667 0.102 -0.0240074 -0.027706 0.102 -0.027706 -0.0240074 0.0995882 -0.0246616 -0.028461 0.106659 -0.0302768 0.00435315 0.106659 -0.0293492 0.00861769 0.10566 -0.0326641 0.00469639 0.10566 -0.0316633 0.00929717 0.104071 -0.0347141 0.00499113 0.104071 -0.0336504 0.00988066 0.102 -0.0362871 0.0052173 0.102 -0.0351753 0.0103284 0.0995882 -0.0372759 0.00535947 0.107 -2.33147e-18 0.028 0.106659 -2.54698e-18 0.0305882 0.106659 0.00435315 0.0302768 0.10566 -2.7478e-18 0.033 0.10566 0.00469639 0.0326641 0.104071 -2.92025e-18 0.0350711 0.104071 0.00499113 0.0347141 0.102 -3.05258e-18 0.0366603 0.102 0.0052173 0.0362871 0.0995882 -3.13576e-18 0.0376593 0.106659 0.0257324 0.0165372 0.106659 0.027824 0.0127068 0.10566 0.0277614 0.0178411 0.10566 0.0300179 0.0137087 0.104071 0.0295037 0.0189609 0.104071 0.0319018 0.014569 0.102 0.0308406 0.01982 0.102 0.0333473 0.0152292 0.0995882 0.031681 0.0203601 0.097 0.038 -3.67394e-19 0.102 0.0333473 -0.0152292 0.104071 0.0319018 -0.014569 0.10566 0.0300179 -0.0137087 0.102 0.0308406 -0.01982 0.104071 0.0295037 -0.0189609 0.10566 0.0277614 -0.0178411 0.106659 0.0257324 -0.0165372 0.0995882 0.028461 -0.0246616 0.102 0.027706 -0.0240074 0.104071 0.0265049 -0.0229667 0.10566 0.0249397 -0.0216104 0.106659 0.023117 -0.020031 0.0995882 0.0156442 -0.0342561 0.102 0.0152292 -0.0333473 0.104071 0.014569 -0.0319018 0.10566 0.0137087 -0.0300179 0.106659 0.0127068 -0.027824 0.106659 0.00861769 -0.0293492 0.10566 0.00929717 -0.0316633 0.104071 0.00988066 -0.0336504 0.102 0.0103284 -0.0351753 0.102 0.0052173 -0.0362871 0.104071 0.00499113 -0.0347141 0.10566 0.00469639 -0.0326641 0.106659 0.00435315 -0.0302768 0.097 8.43769e-18 -0.038 0.0995882 8.36203e-18 -0.0376593 0.102 8.14021e-18 -0.0366603 0.104071 7.78734e-18 -0.0350711 0.10566 7.32747e-18 -0.033 0.106659 6.79194e-18 -0.0305882 0.107 6.21725e-18 -0.028 0.106659 -0.00435315 -0.0302768 0.10566 -0.00469639 -0.0326641 0.104071 -0.00499113 -0.0347141 0.102 -0.0052173 -0.0362871 0.0995882 -0.0203601 -0.031681 0.102 -0.01982 -0.0308406 0.104071 -0.0189609 -0.0295037 0.10566 -0.0178411 -0.0277614 0.106659 -0.0165372 -0.0257324 0.0995882 -0.031681 -0.0203601 0.102 -0.0308406 -0.01982 0.104071 -0.0295037 -0.0189609 0.10566 -0.0277614 -0.0178411 0.106659 -0.0257324 -0.0165372 0.106659 -0.027824 -0.0127068 0.10566 -0.0300179 -0.0137087 0.104071 -0.0319018 -0.014569 0.102 -0.0333473 -0.0152292 0.102 -0.0351753 -0.0103284 0.104071 -0.0336504 -0.00988066 0.10566 -0.0316633 -0.00929717 0.106659 -0.0293492 -0.00861769 0.0995882 -0.0372759 -0.00535947 0.102 -0.0362871 -0.0052173 0.104071 -0.0347141 -0.00499113 0.10566 -0.0326641 -0.00469639 0.106659 -0.0302768 -0.00435315 0.107 -0.028 -2.69886e-18 0.106659 -0.0305882 -2.91437e-18 0.10566 -0.033 -3.1152e-18 0.104071 -0.0350711 -3.28765e-18 0.102 -0.0366603 -3.41997e-18 0.0995882 -0.0376593 -3.50316e-18 0.097 -0.038 -3.53153e-18 0.0995882 -0.0342561 0.0156442 0.102 -0.0333473 0.0152292 0.104071 -0.0319018 0.014569 0.10566 -0.0300179 0.0137087 0.106659 -0.027824 0.0127068 0.106659 -0.0257324 0.0165372 0.10566 -0.0277614 0.0178411 0.104071 -0.0295037 0.0189609 0.102 -0.0308406 0.01982 0.102 -0.027706 0.0240074 0.104071 -0.0265049 0.0229667 0.10566 -0.0249397 0.0216104 0.106659 -0.023117 0.020031 0.0995882 -0.0246616 0.028461 0.102 -0.0240074 0.027706 0.104071 -0.0229667 0.0265049 0.10566 -0.0216104 0.0249397 0.106659 -0.020031 0.023117 0.106659 -0.0165372 0.0257324 0.10566 -0.0178411 0.0277614 0.104071 -0.0189609 0.0295037 0.102 -0.01982 0.0308406 0.102 -0.0152292 0.0333473 0.104071 -0.014569 0.0319018 0.10566 -0.0137087 0.0300179 0.106659 -0.0127068 0.027824 0.102 -0.0103284 0.0351753 0.104071 -0.00988066 0.0336504 0.10566 -0.00929717 0.0316633 0.106659 -0.00861769 0.0293492 0.0995882 -0.00535947 0.0372759 0.102 -0.0052173 0.0362871 0.104071 -0.00499113 0.0347141 0.10566 -0.00469639 0.0326641 0.106659 -0.00435315 0.0302768 0.097 -3.16414e-18 0.038 0.0995882 0.0106098 0.0361338 0.102 0.0103284 0.0351753 0.104071 0.00988066 0.0336504 0.10566 0.00929717 0.0316633 0.106659 0.00861769 0.0293492 0.106659 0.0127068 0.027824 0.10566 0.0137087 0.0300179 0.104071 0.014569 0.0319018 0.102 0.0152292 0.0333473 0.102 0.01982 0.0308406 0.104071 0.0189609 0.0295037 0.10566 0.0178411 0.0277614 0.106659 0.0165372 0.0257324 0.0995882 0.0246616 0.028461 0.102 0.0240074 0.027706 0.104071 0.0229667 0.0265049 0.10566 0.0216104 0.0249397 0.106659 0.020031 0.023117 0.106659 0.023117 0.020031 0.10566 0.0249397 0.0216104 0.104071 0.0265049 0.0229667 0.102 0.027706 0.0240074 0.0995882 0.0361338 0.0106098 0.102 0.0351753 0.0103284 0.104071 0.0336504 0.00988066 0.10566 0.0316633 0.00929717 0.106659 0.0293492 0.00861769</float_array>
                    <technique_common>
                        <accessor count="495" source="#shape0-lib-positions-array" stride="3">
                            <param name="X" type="float"/>
                            <param name="Y" type="float"/>
                            <param name="Z" type="float"/>
                        </accessor>
                    </technique_common>
                </source>
                <source id="shape0-lib-normals" name="normal">
                    <float_array id="shape0-lib-normals-array" count="2856">-1 0 0 -1 0 0 -1 0 0 -1 0 0 -1 0 0 -1 0 0 -1 0 0 -1 0 0 -1 0 0 -1 0 0 -1 0 0 -1 0 0 -1 0 0 0 -1 0 0 -1 0 0 -1 0 0 -1 0 0 -1 0 0 -1 0 0 -1 0 0 -1 0 0 -1 0 0 -1 0 0 -1 0 0 -1 0 0 -1 0 0 -1 0 0 -1 0 0 -1 0 0 -1 0 0 -1 0 -1 0 0 -1 0 0 -1 0 0 -1 0 0 -1 0 0 -1 0 0 -1 0 0 -1 0 0 0 0.00412152 -0.999992 0.000670646 0.0187422 -0.999824 0.00706853 0.0426071 -0.999067 0.00943261 0.141692 -0.989866 0.0344872 0.0698861 -0.996959 0.031718 0.0691528 -0.997102 0.109475 -0.0371668 -0.993294 0 0.0747301 -0.997204 0 -0.114578 -0.993414 0.0288702 -0.222428 -0.974522 0 -0.5 0.866025 0 -0.733052 0.680173 0 -0.733052 0.680173 0 -0.900969 0.433884 0 -0.900969 0.433884 0 -0.988831 0.149042 0 -0.988831 0.149042 0 -0.988831 -0.149042 0 -0.988831 -0.149042 0 -0.900969 -0.433884 0 -0.900969 -0.433884 0 -0.733052 -0.680173 0 -0.733052 -0.680173 0 -0.5 -0.866025 0 -0.5 -0.866025 0 -0.334369 -0.942442 0.0238521 -0.229241 -0.973078 0 -0.114578 0.993414 0.0306956 -0.229198 0.972896 0.0253606 -0.222449 0.974614 0 -0.334369 0.942442 0 -0.5 0.866025 0.0344572 0.0698781 0.99696 0.121303 0.0926206 0.988285 0.00706413 0.0425907 0.999068 0.000676795 0.0187651 0.999824 0 0.00415493 0.999991 0 -0.0373915 0.999301 0.0276203 0.0747016 0.996823 0.0187424 0.0867054 0.996058 0.0100646 0.374828 0.92704 0 0.232483 0.972601 0 0.196544 0.980495 0 0.365341 0.930874 0 0.62349 0.781832 0 0.62349 0.781832 0 0.826239 0.56332 0 0.826239 0.56332 0 0.955573 0.294755 0 0.955573 0.294755 0 0.997204 0.0747304 -0.0368334 0.999321 0 0 0.997204 -0.0747304 0 0.955573 -0.294755 0 0.955573 -0.294755 0 0.826239 -0.56332 0 0.826239 -0.56332 0 0.62349 -0.781832 2.91376e-05 0.19626 -0.980552 -1.08598e-05 0.232326 -0.972638 0.00938095 0.365325 -0.930833 0 0.374847 -0.927087 0 0.62349 -0.781832 -0.142315 0 0.989821 -0.142315 0 0.989821 -0.415415 0 0.909632 -0.415415 0 0.909632 -0.654861 0 0.75575 -0.654861 0 0.75575 -0.841254 0 0.540641 -0.841254 0 0.540641 -0.959493 0 0.281733 -0.959493 0 0.281733 -1 0 0 -1 0 0 -0.959493 0 -0.281733 -0.959493 0 -0.281733 -0.841254 0 -0.540641 -0.841254 0 -0.540641 -0.654861 0 -0.75575 -0.654861 0 -0.75575 -0.415415 0 -0.909632 -0.415415 0 -0.909632 -0.142315 0 -0.989821 -0.142315 0 -0.989821 0 0 -1 0 0 -1 0 0 -1 0 0 1 0 0 1 0 0 1 0 1 0 0 1 0 0 1 0 0 1 0 0 1 0 0 1 0 0 1 0 0 1 0 0 1 0 0 1 0 0 1 0 0 1 0 0 1 0 0 1 0 0 1 0 0 1 0 -0.328521 -0.944497 0 -0.328521 -0.944497 0 0 0 1 0 0 1 0 0 1 0 0 1 0 0 1 0 0 -1 0 0 -1 0 0 -1 0 0 -1 0 0 -1 -0.130398 0.991462 0 -0.130948 0.991389 -1.75048e-05 -0.382565 0.923929 1.74506e-05 -0.383076 0.923717 0 -0.608852 0.793284 0 -0.608955 0.793205 4.09376e-06 -0.793425 0.608668 -4.05585e-06 -0.793503 0.608567 0 -0.999156 0.0410858 0 -0.999128 0.0417473 6.77999e-06 -0.916094 0.400964 0 -0.98141 0.191831 0.0059147 -0.91555 0.40216 -0.00597483 -0.981426 0.191841 -1.81645e-05 -0.978855 -0.204555 0 -0.978855 -0.204555 0 -0.815022 -0.57943 0 -0.815022 -0.57943 0 -0.514776 -0.857325 0 -0.514776 -0.857325 0 -0.166588 -0.986027 0 -0.166588 -0.986027 0 0.507182 -0.192511 0.840063 0.499738 -0.0323876 0.865571 0.466921 -0.062745 0.88207 0.4997 -0.0992468 0.860494 0.498903 -0.19873 0.843565 0.498876 -0.0670391 -0.864077 0.506649 -0.197697 -0.83918 0.499194 -0.189479 -0.84552 0.4997 -0.0992468 -0.860494 0.439887 -0.0335796 -0.897425 -0.00312136 -0.994865 -0.101167 -0.00362521 -0.954133 -0.299361 0 -0.970345 -0.241724 0 -0.985118 -0.171882 0 -0.831151 -0.556047 -0.00241555 -0.877676 -0.479248 -0.00150978 -0.874346 -0.485301 0 -0.914355 -0.404914 0 -0.940912 -0.338651 0 -0.789364 -0.613926 -0.00374158 -0.758753 -0.651368 0 -0.723204 -0.690635 0 -0.672093 -0.740467 -0.00263318 -0.612104 -0.790773 -0.000789959 -0.599277 -0.800541 -0.0034702 -0.440391 -0.897799 0 -0.473173 -0.88097 0 -0.534819 -0.844967 -0.00336941 -0.250651 -0.968072 0 -0.314706 -0.949189 0 -0.381619 -0.92432 0 0.0253321 -0.999679 -0.00357597 -0.0713388 -0.997446 -0.000650213 -0.0506491 -0.998716 0 -0.146867 -0.989156 0 -0.217065 -0.976157 0 0.0965849 -0.995325 -0.00371828 0.151427 -0.988461 0 0.196784 -0.980447 0 0.266227 -0.96391 -0.00200555 0.347304 -0.93775 -0.00171904 0.349464 -0.936948 -0.00367948 0.528961 -0.848638 0 0.491332 -0.870972 0 0.427944 -0.903805 -0.00399359 0.707101 -0.707101 0 0.633725 -0.773558 0 0.576925 -0.816797 -0.0146191 0.757178 -0.653045 0 0.688967 -0.724793 0 0.80192 -0.597432 -0.00325314 0.820759 -0.571265 0 0.858246 -0.513239 0 0.892674 -0.450704 -0.00355548 0.918952 -0.394354 0 0.93369 -0.358082 0 0.956858 -0.290556 -0.00123868 0.979529 -0.201298 -0.00278694 0.977143 -0.212564 0 0.956858 0.290556 -0.0010842 0.977146 0.212565 -0.00243937 0.979527 0.201298 0 0.992558 0.12177 0 0.998717 0.0506485 0 0.998717 0.0506485 0 0.998717 -0.0506485 0 0.998717 -0.0506485 0 0.992558 -0.12177 0 0.93369 0.358082 -0.00355548 0.918952 0.394354 0 0.892674 0.450704 0 0.858246 0.513239 -0.00325314 0.820759 0.571265 0 0.80192 0.597432 0 0.757259 0.653115 -0.000332856 0.688967 0.724793 -0.00399359 0.707101 0.707101 -0.00367949 0.528961 0.848638 0 0.576925 0.816797 0 0.633725 0.773558 0 0.266227 0.96391 -0.00205962 0.349463 0.936948 -0.00176538 0.347304 0.937751 0 0.427944 0.903805 0 0.491332 0.870972 0 0.196784 0.980447 -0.00371828 0.151427 0.988461 0 0.0965849 0.995325 0 0.0253321 0.999679 -0.00281137 -0.0506489 0.998713 -0.000511178 -0.0713393 0.997452 -0.00336941 -0.250651 0.968072 0 -0.217065 0.976157 0 -0.146867 0.989156 -0.0034702 -0.440391 0.897799 0 -0.381619 0.92432 0 -0.314706 0.949189 0 -0.672093 0.740467 -0.00317384 -0.599274 0.800538 -0.000952175 -0.612106 0.790775 0 -0.534819 0.844967 0 -0.473173 0.88097 0 -0.723204 0.690635 -0.00374158 -0.758753 0.651368 0 -0.789364 0.613926 0 -0.831151 0.556047 -0.00223018 -0.874344 0.485301 -0.00139391 -0.877678 0.479249 -0.00362521 -0.954133 0.299361 0 -0.940912 0.338651 0 -0.914355 0.404914 0 -0.997452 -0.0713393 0 -0.997452 0.0713393 -0.00312136 -0.994865 0.101167 0 -0.985118 0.171882 0 -0.970345 0.241724 1 0 0 1 0 0 1 0 0 1 0 0 1 0 0 1 0 0 1 0 0 1 0 0 1 0 0 1 0 0 1 0 0 1 0 0 1 0 0 1 0 0 1 0 0 1 0 0 1 0 0 1 0 0 1 0 0 1 0 0 1 0 0 1 0 0 1 0 0 1 0 0 1 0 0 1 0 0 1 0 0 1 0 0 1 0 0 1 0 0 1 0 0 1 0 0 1 0 0 1 0 0 1 0 0 1 0 0 1 0 0 1 0 0 1 0 0 1 0 0 1 0 0 1 0 0 1 0 0 1 0 0 -1 0 0 -1 0 0 -1 0 0 -1 0 0 -1 0 0 -1 0 0 -1 0 0 -1 0 0 -1 0 0 -1 0 0 -1 0 0 -1 0 0 -1 0 0 -1 0 0 -1 0 0 -1 0 0 -1 0 0 -1 0 0 -1 0 0 -1 0 0 -1 0 0 -1 0 0 -1 0 0 -1 0 0 -1 0 0 -1 0 0 -1 0 0 -1 0 0 -1 0 0 -1 0 0 -1 0 0 -1 0 0 -1 0 0 -1 0 0 -1 0 0 -1 0 0 -1 0 0 -1 0 0 -1 0 0 -1 0 0 -1 0 0 -1 0 0 -1 0 0 -1 0 0 -1 0 0 -1 0 0 -1 0 0 -1 0 0 -1 0 0 -1 0 0 -1 0 0 -1 0 0 -1 0 0 -1 0 0 0.130498 0.984071 0.120728 0.130278 0.925733 0.35503 0.130526 0.75078 0.647528 0.130403 0.571999 0.809822 0.130513 0.424283 0.896075 0.13033 0.195106 0.972084 0.13024 -0.215216 0.967843 0.130439 -0.378359 0.916422 0.130523 -0.530244 0.837738 0.130377 -0.717031 0.68474 0.130504 -0.824042 0.551292 0.130296 -0.932891 0.335764 0.130416 -0.962058 -0.23966 0.130517 -0.906533 -0.401451 0.130347 -0.782629 -0.608688 0.130259 -0.469142 -0.873464 0.130525 -0.145611 -0.980694 0.13039 0.0957604 -0.986827 0.130509 0.26395 -0.955666 0.130313 0.487143 -0.863545 0.13022 0.795091 -0.592345 0.130427 0.885048 -0.446854 0.991401 0.114849 -0.0627122 0.991402 0.122605 -0.0457291 0.991402 0.122605 -0.0457292 0.923534 0.359336 -0.134026 0.991402 0.127865 -0.0278153 0.991402 0.127865 -0.0278152 0.923534 0.374752 -0.0815223 0.923534 0.374752 -0.0815225 0.792602 0.595805 -0.129609 0.991402 0.130522 -0.0093351 0.991402 0.130522 -0.00933514 0.923534 0.38254 -0.0273599 0.923534 0.38254 -0.0273596 0.792602 0.608185 -0.0434981 0.792602 0.608186 -0.0434982 0.607784 0.792079 -0.0566505 0.991402 0.130522 0.0093351 0.991402 0.130522 0.00933513 0.923534 0.38254 0.0273599 0.923534 0.38254 0.0273597 0.792602 0.608186 0.0434981 0.792602 0.608185 0.0434982 0.607784 0.792079 0.0566505 0.607784 0.792079 0.0566505 0.381851 0.921869 0.0659332 0.381851 0.921869 -0.0659335 0.381851 0.903103 -0.196458 0.381851 0.903103 -0.196458 0.607784 0.775955 -0.168799 0.991402 0.0784185 -0.104755 0.991402 0.0784185 -0.104755 0.923534 0.229833 -0.307021 0.923534 0.229833 -0.307021 0.792602 0.365403 -0.488121 0.792602 0.365403 -0.488121 0.607784 0.475888 -0.635712 0.607784 0.475888 -0.635712 0.381851 0.553867 -0.739879 0.381851 0.553867 -0.739879 0.991402 -0.0457291 -0.122605 0.991402 -0.0457292 -0.122605 0.923534 -0.134026 -0.359336 0.923534 -0.134025 -0.359336 0.792602 -0.213082 -0.571295 0.792602 -0.213082 -0.571295 0.607784 -0.27751 -0.744034 0.607783 -0.277511 -0.744034 0.381851 -0.322983 -0.865951 0.381852 -0.322983 -0.865951 0.991402 -0.0925285 -0.0925285 0.991401 -0.0925285 -0.0925285 0.923534 -0.271188 -0.271188 0.923534 -0.271188 -0.271188 0.792602 -0.43115 -0.43115 0.792602 -0.431151 -0.431151 0.607784 -0.561515 -0.561515 0.607784 -0.561515 -0.561515 0.381851 -0.653525 -0.653525 0.381851 -0.653525 -0.653525 0.991402 -0.127865 0.0278153 0.991402 -0.127865 0.0278152 0.923534 -0.374752 0.0815223 0.923534 -0.374752 0.0815225 0.792602 -0.595805 0.129609 0.792602 -0.595805 0.129609 0.607784 -0.775955 0.168799 0.607784 -0.775955 0.168799 0.381851 -0.903103 0.196458 0.381851 -0.903103 0.196458 0.991402 0.0093351 0.130522 0.991402 0.00933514 0.130522 0.923534 0.0273599 0.38254 0.923534 0.0273596 0.38254 0.792602 0.0434981 0.608185 0.792602 0.0434982 0.608186 0.607784 0.0566505 0.792079 0.607784 0.0566505 0.792079 0.381851 0.0659332 0.921869 0.381851 0.0659335 0.921869 0.991402 0.114849 0.0627122 0.991402 0.114849 0.0627121 0.923534 0.336605 0.1838 0.923534 0.336605 0.1838 0.792602 0.535155 0.292217 0.792602 0.535155 0.292217 0.607784 0.696967 0.380573 0.607783 0.696967 0.380573 0.381851 0.811172 0.442933 0.381852 0.811171 0.442933 0.130521 0.948673 -0.28807 0.130199 0.968829 -0.210756 0.130199 0.968829 -0.210756 0.130498 0.984071 -0.120728 0.160055 0.984593 -0.0704196 0.130361 0.990194 -0.0502163 0.130278 0.925733 -0.35503 0.146531 0.926836 -0.345692 0.381852 0.865951 -0.322983 0.381851 0.865951 -0.322983 0.607783 0.744034 -0.277511 0.607784 0.744034 -0.27751 0.792602 0.571295 -0.213082 0.130459 0.850911 -0.508852 0.166038 0.865496 -0.472597 0.381851 0.811172 -0.442934 0.381852 0.811172 -0.442933 0.607784 0.696967 -0.380573 0.607783 0.696967 -0.380573 0.792602 0.535155 -0.292217 0.792602 0.535155 -0.292217 0.923534 0.336605 -0.1838 0.130526 0.75078 -0.647528 0.134746 0.79324 -0.593812 0.381851 0.739879 -0.553867 0.381851 0.739879 -0.553867 0.607784 0.635712 -0.475888 0.607784 0.635712 -0.475888 0.792602 0.488121 -0.365403 0.792602 0.488121 -0.365403 0.923534 0.307021 -0.229833 0.923534 0.307021 -0.229833 0.991402 0.104755 -0.0784186 0.991402 0.104755 -0.0784185 0.991402 0.0925285 -0.0925285 0.991401 0.0925285 -0.0925285 0.923534 0.271188 -0.271188 0.923534 0.271188 -0.271188 0.792602 0.43115 -0.43115 0.792602 0.431151 -0.431151 0.607784 0.561515 -0.561515 0.607784 0.561515 -0.561515 0.381851 0.653525 -0.653525 0.381851 0.653525 -0.653525 0.1302 0.701088 -0.701088 0.1302 0.701088 -0.701088 0.130199 0.594177 -0.793727 0.185616 0.5669 -0.802603 0.130478 0.628308 -0.766945 0.130513 0.424283 -0.896075 0.152852 0.473618 -0.867365 0.381852 0.442933 -0.811171 0.381851 0.442933 -0.811172 0.607783 0.380573 -0.696967 0.607784 0.380573 -0.696967 0.792602 0.292217 -0.535155 0.792602 0.292217 -0.535155 0.923534 0.1838 -0.336605 0.923534 0.1838 -0.336605 0.991402 0.0627121 -0.114849 0.991402 0.0627121 -0.114849 0.991401 0.0457292 -0.122605 0.991402 0.0457292 -0.122605 0.923534 0.134026 -0.359336 0.923534 0.134025 -0.359336 0.792602 0.213082 -0.571295 0.792602 0.213082 -0.571295 0.607783 0.27751 -0.744034 0.607784 0.277511 -0.744034 0.381852 0.322983 -0.865951 0.381851 0.322983 -0.865952 0.130199 0.346489 -0.928975 0.130199 0.346489 -0.928974 0.13033 0.195106 -0.972084 0.155555 0.209978 -0.965252 0.381851 0.196458 -0.903103 0.381851 0.196458 -0.903103 0.607784 0.168799 -0.775955 0.607784 0.168799 -0.775955 0.792602 0.129609 -0.595805 0.792602 0.129609 -0.595805 0.923534 0.0815224 -0.374752 0.923534 0.0815224 -0.374753 0.991402 0.0278152 -0.127865 0.991402 0.0278153 -0.127865 0.130485 0.0251155 -0.991132 0.163348 0.0703811 -0.984055 0.381851 0.0659335 -0.921869 0.381851 0.0659332 -0.921869 0.607784 0.0566505 -0.792079 0.607784 0.0566505 -0.792079 0.792602 0.0434982 -0.608185 0.792602 0.0434981 -0.608186 0.923534 0.0273597 -0.38254 0.923534 0.0273599 -0.38254 0.991402 0.00933513 -0.130522 0.991402 0.0093351 -0.130522 0.991402 -0.0093351 -0.130522 0.991402 -0.00933514 -0.130522 0.923534 -0.0273599 -0.38254 0.923534 -0.0273596 -0.38254 0.792602 -0.0434981 -0.608185 0.792602 -0.0434982 -0.608186 0.607784 -0.0566505 -0.792079 0.607784 -0.0566505 -0.792079 0.381851 -0.0659332 -0.921869 0.381851 -0.0659335 -0.921869 0.130199 -0.070732 -0.988962 0.130199 -0.070732 -0.988962 0.13024 -0.215216 -0.967843 0.138984 -0.210502 -0.967663 0.381851 -0.196458 -0.903103 0.381851 -0.196458 -0.903103 0.607784 -0.168799 -0.775955 0.607784 -0.168799 -0.775955 0.792602 -0.129609 -0.595805 0.792602 -0.129609 -0.595805 0.923534 -0.0815225 -0.374752 0.923534 -0.0815223 -0.374752 0.991402 -0.0278152 -0.127865 0.991402 -0.0278153 -0.127865 0.130199 -0.346489 -0.928975 0.199199 -0.373971 -0.905795 0.13045 -0.312017 -0.941078 0.130523 -0.530244 -0.837738 0.142911 -0.47433 -0.86867 0.381851 -0.442934 -0.811172 0.381852 -0.442933 -0.811172 0.607784 -0.380573 -0.696967 0.607783 -0.380573 -0.696967 0.792602 -0.292217 -0.535155 0.792602 -0.292217 -0.535155 0.923534 -0.1838 -0.336605 0.923534 -0.1838 -0.336605 0.991402 -0.0627121 -0.114849 0.991401 -0.0627122 -0.114849 0.991402 -0.0784185 -0.104755 0.991402 -0.0784186 -0.104755 0.923534 -0.229833 -0.307021 0.923534 -0.229833 -0.307021 0.792602 -0.365403 -0.488121 0.792602 -0.365403 -0.488121 0.607784 -0.475888 -0.635712 0.607784 -0.475888 -0.635712 0.381851 -0.553867 -0.739879 0.381851 -0.553867 -0.739879 0.130199 -0.594177 -0.793727 0.1302 -0.594176 -0.793727 0.1302 -0.701088 -0.701088 0.176495 -0.711851 -0.679793 0.130493 -0.666346 -0.734136 0.130504 -0.824042 -0.551292 0.157956 -0.790491 -0.591754 0.381851 -0.739879 -0.553867 0.381851 -0.739879 -0.553867 0.607784 -0.635712 -0.475888 0.607784 -0.635712 -0.475888 0.792602 -0.488121 -0.365403 0.792602 -0.488121 -0.365403 0.923534 -0.307021 -0.229833 0.923534 -0.307021 -0.229833 0.991402 -0.104755 -0.0784185 0.991402 -0.104755 -0.0784185 0.991402 -0.114849 -0.0627122 0.991402 -0.114849 -0.0627121 0.923534 -0.336605 -0.1838 0.923534 -0.336605 -0.1838 0.792602 -0.535155 -0.292217 0.792602 -0.535155 -0.292217 0.607784 -0.696967 -0.380573 0.607783 -0.696967 -0.380573 0.381851 -0.811172 -0.442933 0.381852 -0.811171 -0.442933 0.130199 -0.870208 -0.47517 0.130199 -0.870208 -0.47517 0.130296 -0.932891 -0.335764 0.149844 -0.926371 -0.345518 0.381851 -0.865952 -0.322983 0.381852 -0.865951 -0.322983 0.607784 -0.744034 -0.277511 0.607783 -0.744034 -0.27751 0.792602 -0.571295 -0.213082 0.792602 -0.571295 -0.213082 0.923534 -0.359336 -0.134025 0.923534 -0.359336 -0.134026 0.991402 -0.122605 -0.0457292 0.991401 -0.122605 -0.0457292 0.130468 -0.976697 -0.170413 0.165441 -0.963681 -0.209636 0.381851 -0.903103 -0.196458 0.381851 -0.903103 -0.196458 0.607784 -0.775955 -0.168799 0.607784 -0.775955 -0.168799 0.792602 -0.595805 -0.129609 0.792602 -0.595805 -0.129609 0.923534 -0.374752 -0.0815224 0.923534 -0.374753 -0.0815224 0.991402 -0.127865 -0.0278152 0.991402 -0.127865 -0.0278153 0.991402 -0.130522 -0.0093351 0.991402 -0.130522 -0.00933513 0.923534 -0.38254 -0.0273599 0.923534 -0.38254 -0.0273597 0.792602 -0.608186 -0.0434981 0.792602 -0.608185 -0.0434982 0.607784 -0.792079 -0.0566505 0.607784 -0.792079 -0.0566505 0.381851 -0.921869 -0.0659332 0.381851 -0.921869 -0.0659335 0.130199 -0.988962 -0.070732 0.130199 -0.988962 -0.070732 0.991402 -0.130522 0.0093351 0.991402 -0.130522 0.00933514 0.923534 -0.38254 0.0273599 0.923534 -0.38254 0.0273596 0.792602 -0.608185 0.0434981 0.792602 -0.608186 0.0434982 0.607784 -0.792079 0.0566505 0.607784 -0.792079 0.0566505 0.381851 -0.921869 0.0659332 0.381851 -0.921869 0.0659335 0.130199 -0.988962 0.070732 0.130199 -0.988962 0.070732 0.130199 -0.968829 0.210756 0.190158 -0.95264 0.237314 0.130468 -0.976697 0.170413 0.130517 -0.906533 0.401451 0.149844 -0.926371 0.345518 0.381852 -0.865951 0.322983 0.381851 -0.865951 0.322983 0.607783 -0.744034 0.277511 0.607784 -0.744034 0.27751 0.792602 -0.571295 0.213082 0.792602 -0.571295 0.213082 0.923534 -0.359336 0.134025 0.923534 -0.359336 0.134026 0.991402 -0.122605 0.0457292 0.991402 -0.122605 0.0457291 0.991401 -0.114849 0.0627122 0.991402 -0.114849 0.0627121 0.923534 -0.336605 0.1838 0.923534 -0.336605 0.1838 0.792602 -0.535155 0.292217 0.792602 -0.535155 0.292217 0.607783 -0.696967 0.380573 0.607784 -0.696967 0.380573 0.381852 -0.811172 0.442933 0.381851 -0.811172 0.442934 0.130199 -0.870208 0.47517 0.130199 -0.870208 0.47517 0.130347 -0.782629 0.608688 0.157956 -0.790491 0.591754 0.381851 -0.739879 0.553867 0.381851 -0.739879 0.553867 0.607784 -0.635712 0.475888 0.607784 -0.635712 0.475888 0.792602 -0.488121 0.365403 0.792602 -0.488121 0.365403 0.923534 -0.307021 0.229833 0.923534 -0.307021 0.229833 0.991402 -0.104755 0.0784186 0.991402 -0.104755 0.0784185 0.130493 -0.666346 0.734135 0.161851 -0.697784 0.697784 0.381851 -0.653525 0.653525 0.381851 -0.653525 0.653525 0.607784 -0.561515 0.561515 0.607784 -0.561515 0.561515 0.792602 -0.431151 0.431151 0.792602 -0.43115 0.43115 0.923534 -0.271188 0.271188 0.923534 -0.271188 0.271188 0.991401 -0.0925285 0.0925285 0.991402 -0.0925285 0.0925285 0.991402 -0.0784185 0.104755 0.991402 -0.0784185 0.104755 0.923534 -0.229833 0.307021 0.923534 -0.229833 0.307021 0.792602 -0.365403 0.488121 0.792602 -0.365403 0.488121 0.607784 -0.475888 0.635712 0.607784 -0.475888 0.635712 0.381851 -0.553867 0.739879 0.381851 -0.553867 0.739879 0.1302 -0.594176 0.793727 0.130199 -0.594176 0.793727 0.130259 -0.469142 0.873464 0.142911 -0.47433 0.86867 0.381852 -0.442933 0.811171 0.381851 -0.442933 0.811172 0.607783 -0.380573 0.696967 0.607784 -0.380573 0.696967 0.792602 -0.292217 0.535155 0.792602 -0.292217 0.535155 0.923534 -0.1838 0.336605 0.923534 -0.1838 0.336605 0.991402 -0.0627121 0.114849 0.991402 -0.0627121 0.114849 0.13045 -0.312017 0.941078 0.166337 -0.344595 0.923897 0.381851 -0.322983 0.865952 0.381852 -0.322983 0.865951 0.607784 -0.277511 0.744034 0.607783 -0.27751 0.744034 0.792602 -0.213082 0.571295 0.792602 -0.213082 0.571295 0.923534 -0.134025 0.359336 0.923534 -0.134026 0.359336 0.991402 -0.0457292 0.122605 0.991401 -0.0457292 0.122605 0.130525 -0.145611 0.980694 0.138984 -0.210502 0.967663 0.381851 -0.196458 0.903103 0.381851 -0.196458 0.903103 0.607784 -0.168799 0.775955 0.607784 -0.168799 0.775955 0.792602 -0.129609 0.595805 0.792602 -0.129609 0.595805 0.923534 -0.0815224 0.374752 0.923534 -0.0815224 0.374753 0.991402 -0.0278152 0.127865 0.991402 -0.0278153 0.127865 0.991402 -0.0093351 0.130522 0.991402 -0.00933513 0.130522 0.923534 -0.0273599 0.38254 0.923534 -0.0273597 0.38254 0.792602 -0.0434981 0.608186 0.792602 -0.0434982 0.608185 0.607784 -0.0566505 0.792079 0.607784 -0.0566505 0.792079 0.381851 -0.0659332 0.921869 0.381851 -0.0659335 0.921869 0.130199 -0.070732 0.988962 0.130199 -0.070732 0.988962 0.130199 0.070732 0.988962 0.181062 0.0949886 0.978874 0.130485 0.0251155 0.991132 0.130509 0.26395 0.955666 0.155555 0.209978 0.965252 0.381851 0.196458 0.903103 0.381851 0.196458 0.903103 0.607784 0.168799 0.775955 0.607784 0.168799 0.775955 0.792602 0.129609 0.595805 0.792602 0.129609 0.595805 0.923534 0.0815225 0.374752 0.923534 0.0815223 0.374752 0.991402 0.0278152 0.127865 0.991402 0.0278153 0.127865 0.991402 0.0457291 0.122605 0.991402 0.0457292 0.122605 0.923534 0.134026 0.359336 0.923534 0.134025 0.359336 0.792602 0.213082 0.571295 0.792602 0.213082 0.571295 0.607784 0.27751 0.744034 0.607783 0.277511 0.744034 0.381851 0.322983 0.865951 0.381852 0.322983 0.865951 0.130199 0.346489 0.928974 0.130199 0.346489 0.928974 0.130313 0.487143 0.863545 0.152852 0.473618 0.867365 0.381851 0.442934 0.811172 0.381852 0.442933 0.811172 0.607784 0.380573 0.696967 0.607783 0.380573 0.696967 0.792602 0.292217 0.535155 0.792602 0.292217 0.535155 0.923534 0.1838 0.336605 0.923534 0.1838 0.336605 0.991402 0.0627121 0.114849 0.991401 0.0627122 0.114849 0.130478 0.628308 0.766945 0.164544 0.591109 0.78963 0.381851 0.553867 0.739879 0.381851 0.553867 0.739879 0.607784 0.475888 0.635712 0.607784 0.475888 0.635712 0.792602 0.365403 0.488121 0.792602 0.365403 0.488121 0.923534 0.229833 0.307021 0.923534 0.229833 0.307021 0.991402 0.0784186 0.104755 0.991402 0.0784185 0.104755 0.991402 0.0925285 0.0925285 0.991401 0.0925285 0.0925285 0.923534 0.271188 0.271188 0.923534 0.271188 0.271188 0.792602 0.43115 0.43115 0.792602 0.431151 0.431151 0.607784 0.561515 0.561515 0.607784 0.561515 0.561515 0.381851 0.653525 0.653525 0.381851 0.653525 0.653525 0.1302 0.701088 0.701088 0.1302 0.701088 0.701088 0.13022 0.795091 0.592345 0.134746 0.79324 0.593812 0.381851 0.739879 0.553867 0.381851 0.739879 0.553867 0.607784 0.635712 0.475888 0.607784 0.635712 0.475888 0.792602 0.488121 0.365403 0.792602 0.488121 0.365403 0.923534 0.307021 0.229833 0.923534 0.307021 0.229833 0.991402 0.104755 0.0784185 0.991402 0.104755 0.0784185 0.130199 0.870208 0.47517 0.194684 0.875593 0.44208 0.130459 0.850911 0.508852 0.130521 0.948673 0.28807 0.146531 0.926836 0.345692 0.381851 0.865952 0.322983 0.381852 0.865951 0.322983 0.607784 0.744034 0.277511 0.607783 0.744034 0.27751 0.792602 0.571295 0.213082 0.792602 0.571295 0.213082 0.923534 0.359336 0.134025 0.923534 0.359336 0.134026 0.991402 0.122605 0.0457292 0.991401 0.122605 0.0457292 0.991402 0.127865 0.0278153 0.991402 0.127865 0.0278152 0.923534 0.374753 0.0815224 0.923534 0.374752 0.0815224 0.792602 0.595805 0.129609 0.792602 0.595805 0.129609 0.607784 0.775955 0.168799 0.607784 0.775955 0.168799 0.381851 0.903103 0.196458 0.381851 0.903103 0.196458 0.130199 0.968829 0.210756 0.130199 0.968829 0.210756 0.991402 0.114849 -0.0627121 0.923534 0.336605 -0.1838 0.923534 0.359336 -0.134025 0.792602 0.571295 -0.213082 0.792602 0.595805 -0.129609 0.607784 0.775955 -0.168799 0.607784 0.792079 -0.0566505 0.381851 0.921869 -0.0659332 0.381851 0.921869 0.0659335 0.130199 0.988962 0.070732 0.171918 0.983847 0.0498944</float_array>
                    <technique_common>
                        <accessor count="952" source="#shape0-lib-normals-array" stride="3">
                            <param name="X" type="float"/>
                            <param name="Y" type="float"/>
                            <param name="Z" type="float"/>
                        </accessor>
                    </technique_common>
                </source>
                <vertices id="shape0-lib-vertices">
                    <input semantic="POSITION" source="#shape0-lib-positions"/>
                </vertices>
                <triangles count="952">
                    <input offset="0" semantic="VERTEX" source="#shape0-lib-vertices"/>
                    <input offset="1" semantic="NORMAL" source="#shape0-lib-normals"/>
                    <p>0 0 1 0 2 0 3 1 4 1 5 1 0 2 2 2 6 2 5 3 7 3 3 3 3 4 7 4 8 4 3 5 8 5 9 5 8 6 10 6 9 6 9 7 10 7 11 7 9 8 11 8 12 8 12 9 11 9 13 9 12 10 13 10 2 10 2 11 13 11 14 11 2 12 14 12 6 12 15 13 16 13 17 13 16 14 15 14 18 14 18 15 15 15 2 15 18 16 2 16 1 16 19 17 20 17 15 17 17 18 21 18 15 18 15 19 21 19 22 19 15 20 22 20 23 20 20 21 24 21 15 21 15 22 24 22 25 22 15 23 25 23 26 23 26 24 25 24 27 24 26 25 27 25 3 25 3 26 27 26 28 26 3 27 28 27 4 27 23 28 29 28 15 28 15 29 29 29 30 29 15 30 30 30 19 30 31 31 32 31 33 31 33 32 32 32 34 32 34 33 35 33 33 33 33 34 35 34 36 34 33 35 36 35 37 35 37 36 38 36 33 36 33 37 38 37 39 37 33 38 39 38 40 38 41 39 42 39 43 39 43 40 42 40 44 40 43 41 44 41 45 41 46 42 47 42 48 42 45 43 46 43 43 43 43 44 46 44 48 44 43 45 48 45 49 45 49 46 48 46 50 46 49 47 50 47 51 47 51 48 50 48 52 48 53 49 6 49 54 49 54 50 6 50 14 50 54 51 14 51 55 51 55 52 14 52 13 52 55 53 13 53 56 53 56 54 13 54 11 54 56 55 11 55 57 55 57 56 11 56 10 56 57 57 10 57 58 57 58 58 10 58 8 58 58 59 8 59 59 59 59 60 8 60 7 60 59 61 7 61 60 61 60 62 7 62 5 62 60 63 5 63 52 63 52 64 5 64 4 64 52 65 4 65 51 65 61 66 62 66 63 66 63 67 62 67 1 67 63 68 1 68 53 68 53 69 1 69 0 69 53 70 0 70 6 70 64 71 65 71 66 71 64 72 66 72 67 72 65 73 68 73 66 73 66 74 68 74 69 74 66 75 69 75 70 75 61 76 63 76 66 76 66 77 63 77 71 77 66 78 71 78 67 78 34 79 32 79 71 79 71 80 32 80 72 80 71 81 72 81 67 81 71 82 73 82 34 82 34 83 73 83 74 83 34 84 74 84 35 84 35 85 74 85 75 85 35 86 75 86 36 86 36 87 75 87 76 87 36 88 76 88 37 88 37 89 76 89 77 89 37 90 77 90 38 90 77 91 78 91 38 91 38 92 78 92 79 92 38 93 79 93 39 93 39 94 79 94 80 94 39 95 80 95 40 95 40 96 80 96 81 96 47 97 82 97 48 97 48 98 82 98 31 98 48 99 31 99 81 99 81 100 31 100 33 100 81 101 33 101 40 101 16 102 83 102 84 102 16 103 84 103 17 103 17 104 84 104 85 104 17 105 85 105 21 105 21 106 85 106 86 106 21 107 86 107 22 107 22 108 86 108 87 108 22 109 87 109 23 109 23 110 87 110 88 110 23 111 88 111 29 111 29 112 88 112 89 112 29 113 89 113 30 113 30 114 89 114 90 114 30 115 90 115 19 115 19 116 90 116 91 116 19 117 91 117 20 117 20 118 91 118 92 118 20 119 92 119 24 119 24 120 92 120 93 120 24 121 93 121 25 121 25 122 93 122 94 122 25 123 94 123 27 123 28 124 27 124 95 124 95 125 27 125 94 125 95 126 94 126 96 126 97 127 83 127 98 127 98 128 83 128 16 128 98 129 16 129 18 129 99 130 100 130 96 130 96 131 94 131 99 131 99 132 94 132 83 132 99 133 83 133 101 133 101 134 83 134 97 134 101 135 97 135 102 135 94 136 93 136 83 136 83 137 93 137 92 137 83 138 92 138 91 138 85 139 84 139 86 139 86 140 84 140 87 140 91 141 90 141 83 141 83 142 90 142 89 142 83 143 89 143 84 143 84 144 89 144 88 144 84 145 88 145 87 145 103 146 104 146 105 146 105 147 104 147 106 147 12 148 2 148 107 148 107 149 2 149 108 149 15 150 104 150 2 150 2 151 104 151 103 151 2 152 103 152 108 152 9 153 109 153 3 153 3 154 109 154 110 154 110 155 105 155 3 155 3 156 105 156 106 156 3 157 106 157 26 157 99 158 101 158 42 158 42 159 101 159 69 159 42 160 69 160 44 160 69 161 68 161 44 161 44 162 68 162 65 162 44 163 65 163 45 163 45 164 65 164 64 164 45 165 64 165 46 165 32 166 31 166 72 166 72 167 31 167 82 167 64 168 67 168 46 168 46 169 67 169 72 169 46 170 72 170 47 170 47 171 72 171 82 171 9 172 12 172 109 172 109 173 12 173 107 173 109 174 107 174 110 174 110 175 107 175 108 175 110 176 108 176 105 176 105 177 108 177 103 177 106 178 104 178 26 178 26 179 104 179 15 179 98 180 18 180 1 180 111 181 112 181 61 181 61 182 112 182 98 182 61 183 98 183 62 183 62 184 98 184 1 184 95 185 113 185 43 185 4 186 28 186 51 186 51 187 28 187 95 187 51 188 95 188 49 188 49 189 95 189 43 189 114 190 115 190 116 190 117 191 118 191 115 191 115 192 118 192 119 192 115 193 119 193 116 193 120 194 121 194 122 194 122 195 121 195 123 195 122 196 123 196 117 196 117 197 123 197 124 197 117 198 124 198 118 198 120 199 122 199 125 199 125 200 122 200 126 200 125 201 126 201 127 201 127 202 126 202 128 202 128 203 126 203 129 203 128 204 129 204 130 204 131 205 132 205 129 205 129 206 132 206 133 206 129 207 133 207 130 207 134 208 135 208 131 208 131 209 135 209 136 209 131 210 136 210 132 210 137 211 138 211 139 211 139 212 138 212 140 212 139 213 140 213 134 213 134 214 140 214 141 214 134 215 141 215 135 215 137 216 139 216 142 216 142 217 139 217 143 217 142 218 143 218 144 218 144 219 143 219 145 219 145 220 143 220 146 220 145 221 146 221 147 221 148 222 149 222 146 222 146 223 149 223 150 223 146 224 150 224 147 224 151 225 152 225 148 225 148 226 152 226 153 226 148 227 153 227 149 227 151 228 148 228 154 228 154 229 148 229 155 229 154 230 155 230 156 230 156 231 155 231 157 231 156 232 157 232 158 232 158 233 157 233 159 233 159 234 157 234 160 234 159 235 160 235 161 235 161 236 160 236 162 236 162 237 160 237 163 237 162 238 163 238 164 238 165 239 166 239 167 239 167 240 166 240 168 240 167 241 168 241 169 241 169 242 168 242 170 242 169 243 170 243 171 243 171 244 170 244 172 244 171 245 172 245 163 245 163 246 172 246 173 246 163 247 173 247 164 247 165 248 167 248 174 248 174 249 167 249 175 249 174 250 175 250 176 250 176 251 175 251 177 251 177 252 175 252 178 252 177 253 178 253 179 253 179 254 178 254 180 254 180 255 178 255 181 255 180 256 181 256 182 256 183 257 184 257 181 257 181 258 184 258 185 258 181 259 185 259 182 259 186 260 187 260 188 260 188 261 187 261 189 261 188 262 189 262 183 262 183 263 189 263 190 263 183 264 190 264 184 264 186 265 188 265 191 265 191 266 188 266 192 266 191 267 192 267 193 267 193 268 192 268 194 268 194 269 192 269 195 269 194 270 195 270 196 270 197 271 198 271 195 271 195 272 198 272 199 272 195 273 199 273 196 273 200 274 201 274 197 274 197 275 201 275 202 275 197 276 202 276 198 276 203 277 204 277 205 277 205 278 204 278 206 278 205 279 206 279 200 279 200 280 206 280 207 280 200 281 207 281 201 281 203 282 205 282 208 282 208 283 205 283 209 283 208 284 209 284 210 284 210 285 209 285 211 285 211 286 209 286 212 286 211 287 212 287 213 287 214 288 215 288 212 288 212 289 215 289 216 289 212 290 216 290 213 290 116 291 217 291 114 291 114 292 217 292 218 292 114 293 218 293 214 293 214 294 218 294 219 294 214 295 219 295 215 295 220 296 221 296 222 296 220 297 222 297 223 297 224 298 225 298 222 298 222 299 225 299 226 299 222 300 226 300 223 300 227 301 228 301 222 301 222 302 228 302 229 302 222 303 229 303 224 303 230 304 231 304 222 304 222 305 231 305 232 305 222 306 232 306 227 306 233 307 234 307 222 307 222 308 234 308 235 308 222 309 235 309 230 309 236 310 237 310 222 310 222 311 237 311 238 311 222 312 238 312 233 312 239 313 240 313 222 313 222 314 240 314 241 314 222 315 241 315 236 315 242 316 243 316 222 316 222 317 243 317 244 317 222 318 244 318 239 318 245 319 246 319 222 319 222 320 246 320 247 320 222 321 247 321 242 321 248 322 249 322 222 322 222 323 249 323 250 323 222 324 250 324 245 324 251 325 252 325 222 325 222 326 252 326 253 326 222 327 253 327 248 327 254 328 255 328 222 328 222 329 255 329 256 329 222 330 256 330 251 330 257 331 258 331 222 331 222 332 258 332 259 332 222 333 259 333 254 333 260 334 261 334 222 334 222 335 261 335 262 335 222 336 262 336 257 336 221 337 263 337 222 337 222 338 263 338 264 338 222 339 264 339 260 339 59 340 117 340 58 340 58 341 117 341 115 341 58 342 115 342 57 342 57 343 115 343 114 343 57 344 114 344 56 344 114 345 214 345 56 345 56 346 214 346 212 346 56 347 212 347 55 347 55 348 212 348 209 348 55 349 209 349 54 349 52 350 129 350 60 350 60 351 129 351 126 351 60 352 126 352 59 352 59 353 126 353 122 353 59 354 122 354 117 354 48 355 139 355 50 355 50 356 139 356 134 356 50 357 134 357 52 357 52 358 134 358 131 358 52 359 131 359 129 359 80 360 148 360 81 360 81 361 148 361 146 361 81 362 146 362 48 362 48 363 146 363 143 363 48 364 143 364 139 364 78 365 160 365 79 365 79 366 160 366 157 366 79 367 157 367 80 367 80 368 157 368 155 368 80 369 155 369 148 369 63 370 192 370 71 370 71 371 192 371 188 371 71 372 188 372 73 372 188 373 183 373 73 373 73 374 183 374 181 374 73 375 181 375 74 375 74 376 181 376 178 376 74 377 178 377 75 377 209 378 205 378 54 378 54 379 205 379 200 379 54 380 200 380 53 380 53 381 200 381 197 381 53 382 197 382 63 382 63 383 197 383 195 383 63 384 195 384 192 384 178 385 175 385 75 385 75 386 175 386 167 386 75 387 167 387 76 387 76 388 167 388 169 388 76 389 169 389 265 389 265 390 169 390 266 390 265 391 266 391 78 391 78 392 266 392 163 392 78 393 163 393 160 393 170 394 168 394 267 394 165 395 174 395 268 395 179 396 180 396 269 396 185 397 184 397 270 397 190 398 189 398 271 398 186 399 191 399 272 399 199 400 198 400 273 400 202 401 201 401 274 401 207 402 206 402 275 402 203 403 208 403 276 403 210 404 211 404 277 404 216 405 215 405 278 405 119 406 118 406 279 406 124 407 123 407 280 407 120 408 125 408 281 408 133 409 132 409 282 409 141 410 140 410 283 410 137 411 142 411 284 411 144 412 145 412 285 412 150 413 149 413 286 413 154 414 156 414 287 414 158 415 159 415 288 415 289 416 225 416 224 416 226 417 225 417 290 417 290 418 225 418 289 418 290 419 289 419 291 419 223 420 226 420 292 420 292 421 226 421 290 421 292 422 290 422 293 422 293 423 290 423 291 423 293 424 291 424 294 424 295 425 223 425 296 425 296 426 223 426 292 426 296 427 292 427 297 427 297 428 292 428 293 428 297 429 293 429 298 429 298 430 293 430 294 430 298 431 294 431 299 431 221 432 295 432 300 432 300 433 295 433 296 433 300 434 296 434 301 434 301 435 296 435 297 435 301 436 297 436 302 436 302 437 297 437 298 437 302 438 298 438 303 438 303 439 298 439 299 439 303 440 299 440 267 440 304 441 305 441 306 441 307 442 305 442 308 442 308 443 305 443 304 443 308 444 304 444 309 444 228 445 227 445 310 445 310 446 227 446 311 446 310 447 311 447 312 447 312 448 311 448 313 448 312 449 313 449 314 449 314 450 313 450 315 450 314 451 315 451 316 451 316 452 315 452 317 452 316 453 317 453 318 453 318 454 317 454 286 454 233 455 238 455 319 455 319 456 238 456 320 456 319 457 320 457 321 457 321 458 320 458 322 458 321 459 322 459 323 459 323 460 322 460 324 460 323 461 324 461 325 461 325 462 324 462 326 462 325 463 326 463 327 463 327 464 326 464 282 464 236 465 241 465 328 465 328 466 241 466 329 466 328 467 329 467 330 467 330 468 329 468 331 468 330 469 331 469 332 469 332 470 331 470 333 470 332 471 333 471 334 471 334 472 333 472 335 472 334 473 335 473 336 473 336 474 335 474 281 474 247 475 246 475 337 475 337 476 246 476 338 476 337 477 338 477 339 477 339 478 338 478 340 478 339 479 340 479 341 479 341 480 340 480 342 480 341 481 342 481 343 481 343 482 342 482 344 482 343 483 344 483 345 483 345 484 344 484 278 484 346 485 254 485 347 485 347 486 254 486 348 486 347 487 348 487 349 487 349 488 348 488 350 488 349 489 350 489 351 489 351 490 350 490 352 490 351 491 352 491 353 491 353 492 352 492 354 492 353 493 354 493 355 493 355 494 354 494 272 494 260 495 264 495 356 495 356 496 264 496 357 496 356 497 357 497 358 497 358 498 357 498 359 498 358 499 359 499 360 499 360 500 359 500 361 500 360 501 361 501 362 501 362 502 361 502 363 502 362 503 363 503 364 503 364 504 363 504 268 504 161 505 162 505 307 505 307 506 162 506 164 506 307 507 164 507 305 507 305 508 164 508 173 508 305 509 173 509 306 509 306 510 173 510 365 510 159 511 161 511 288 511 288 512 161 512 307 512 288 513 307 513 366 513 366 514 307 514 308 514 366 515 308 515 367 515 367 516 308 516 309 516 367 517 309 517 368 517 156 518 158 518 287 518 287 519 158 519 288 519 287 520 288 520 369 520 369 521 288 521 366 521 369 522 366 522 370 522 370 523 366 523 367 523 370 524 367 524 371 524 371 525 367 525 368 525 371 526 368 526 372 526 151 527 154 527 373 527 373 528 154 528 287 528 373 529 287 529 374 529 374 530 287 530 369 530 374 531 369 531 375 531 375 532 369 532 370 532 375 533 370 533 376 533 376 534 370 534 371 534 376 535 371 535 377 535 377 536 371 536 372 536 377 537 372 537 229 537 229 538 372 538 224 538 229 539 228 539 377 539 377 540 228 540 310 540 377 541 310 541 376 541 376 542 310 542 312 542 376 543 312 543 375 543 375 544 312 544 314 544 375 545 314 545 374 545 374 546 314 546 316 546 374 547 316 547 373 547 373 548 316 548 318 548 373 549 318 549 151 549 151 550 318 550 152 550 286 551 149 551 318 551 318 552 149 552 153 552 318 553 153 553 152 553 147 554 150 554 378 554 378 555 150 555 286 555 378 556 286 556 379 556 379 557 286 557 317 557 379 558 317 558 380 558 380 559 317 559 315 559 380 560 315 560 381 560 381 561 315 561 313 561 381 562 313 562 382 562 382 563 313 563 311 563 382 564 311 564 232 564 232 565 311 565 227 565 232 566 231 566 382 566 382 567 231 567 383 567 382 568 383 568 381 568 381 569 383 569 384 569 381 570 384 570 380 570 380 571 384 571 385 571 380 572 385 572 379 572 379 573 385 573 386 573 379 574 386 574 378 574 378 575 386 575 285 575 378 576 285 576 147 576 147 577 285 577 145 577 142 578 144 578 284 578 284 579 144 579 285 579 284 580 285 580 387 580 387 581 285 581 386 581 387 582 386 582 388 582 388 583 386 583 385 583 388 584 385 584 389 584 389 585 385 585 384 585 389 586 384 586 390 586 390 587 384 587 383 587 390 588 383 588 230 588 230 589 383 589 231 589 391 590 137 590 392 590 392 591 137 591 284 591 392 592 284 592 393 592 393 593 284 593 387 593 393 594 387 594 394 594 394 595 387 595 388 595 394 596 388 596 395 596 395 597 388 597 389 597 395 598 389 598 396 598 396 599 389 599 390 599 396 600 390 600 397 600 397 601 390 601 230 601 397 602 234 602 396 602 396 603 234 603 398 603 396 604 398 604 395 604 395 605 398 605 399 605 395 606 399 606 394 606 394 607 399 607 400 607 394 608 400 608 393 608 393 609 400 609 401 609 393 610 401 610 392 610 392 611 401 611 283 611 392 612 283 612 391 612 391 613 283 613 140 613 135 614 141 614 327 614 327 615 141 615 283 615 327 616 283 616 325 616 325 617 283 617 401 617 325 618 401 618 323 618 323 619 401 619 400 619 323 620 400 620 321 620 321 621 400 621 399 621 321 622 399 622 319 622 319 623 399 623 398 623 319 624 398 624 233 624 233 625 398 625 234 625 282 626 132 626 327 626 327 627 132 627 136 627 327 628 136 628 135 628 130 629 133 629 402 629 402 630 133 630 282 630 402 631 282 631 403 631 403 632 282 632 326 632 403 633 326 633 404 633 404 634 326 634 324 634 404 635 324 635 405 635 405 636 324 636 322 636 405 637 322 637 406 637 406 638 322 638 320 638 406 639 320 639 237 639 237 640 320 640 238 640 237 641 236 641 406 641 406 642 236 642 328 642 406 643 328 643 405 643 405 644 328 644 330 644 405 645 330 645 404 645 404 646 330 646 332 646 404 647 332 647 403 647 403 648 332 648 334 648 403 649 334 649 402 649 402 650 334 650 336 650 402 651 336 651 130 651 130 652 336 652 128 652 281 653 125 653 336 653 336 654 125 654 127 654 336 655 127 655 128 655 121 656 120 656 407 656 407 657 120 657 281 657 407 658 281 658 408 658 408 659 281 659 335 659 408 660 335 660 409 660 409 661 335 661 333 661 409 662 333 662 410 662 410 663 333 663 331 663 410 664 331 664 411 664 411 665 331 665 329 665 411 666 329 666 240 666 240 667 329 667 241 667 240 668 239 668 411 668 411 669 239 669 412 669 411 670 412 670 410 670 410 671 412 671 413 671 410 672 413 672 409 672 409 673 413 673 414 673 409 674 414 674 408 674 408 675 414 675 415 675 408 676 415 676 407 676 407 677 415 677 280 677 407 678 280 678 121 678 121 679 280 679 123 679 118 680 124 680 279 680 279 681 124 681 280 681 279 682 280 682 416 682 416 683 280 683 415 683 416 684 415 684 417 684 417 685 415 685 414 685 417 686 414 686 418 686 418 687 414 687 413 687 418 688 413 688 419 688 419 689 413 689 412 689 419 690 412 690 244 690 244 691 412 691 239 691 116 692 119 692 420 692 420 693 119 693 279 693 420 694 279 694 421 694 421 695 279 695 416 695 421 696 416 696 422 696 422 697 416 697 417 697 422 698 417 698 423 698 423 699 417 699 418 699 423 700 418 700 424 700 424 701 418 701 419 701 424 702 419 702 243 702 243 703 419 703 244 703 243 704 425 704 424 704 424 705 425 705 426 705 424 706 426 706 423 706 423 707 426 707 427 707 423 708 427 708 422 708 422 709 427 709 428 709 422 710 428 710 421 710 421 711 428 711 429 711 421 712 429 712 420 712 420 713 429 713 430 713 420 714 430 714 116 714 116 715 430 715 431 715 425 716 247 716 426 716 426 717 247 717 337 717 426 718 337 718 427 718 427 719 337 719 339 719 427 720 339 720 428 720 428 721 339 721 341 721 428 722 341 722 429 722 429 723 341 723 343 723 429 724 343 724 430 724 430 725 343 725 345 725 430 726 345 726 431 726 431 727 345 727 218 727 278 728 215 728 345 728 345 729 215 729 219 729 345 730 219 730 218 730 213 731 216 731 432 731 432 732 216 732 278 732 432 733 278 733 433 733 433 734 278 734 344 734 433 735 344 735 434 735 434 736 344 736 342 736 434 737 342 737 435 737 435 738 342 738 340 738 435 739 340 739 436 739 436 740 340 740 338 740 436 741 338 741 245 741 245 742 338 742 246 742 245 743 250 743 436 743 436 744 250 744 437 744 436 745 437 745 435 745 435 746 437 746 438 746 435 747 438 747 434 747 434 748 438 748 439 748 434 749 439 749 433 749 433 750 439 750 440 750 433 751 440 751 432 751 432 752 440 752 277 752 432 753 277 753 213 753 213 754 277 754 211 754 208 755 210 755 276 755 276 756 210 756 277 756 276 757 277 757 441 757 441 758 277 758 440 758 441 759 440 759 442 759 442 760 440 760 439 760 442 761 439 761 443 761 443 762 439 762 438 762 443 763 438 763 444 763 444 764 438 764 437 764 444 765 437 765 249 765 249 766 437 766 250 766 204 767 203 767 445 767 445 768 203 768 276 768 445 769 276 769 446 769 446 770 276 770 441 770 446 771 441 771 447 771 447 772 441 772 442 772 447 773 442 773 448 773 448 774 442 774 443 774 448 775 443 775 449 775 449 776 443 776 444 776 449 777 444 777 248 777 248 778 444 778 249 778 248 779 253 779 449 779 449 780 253 780 450 780 449 781 450 781 448 781 448 782 450 782 451 782 448 783 451 783 447 783 447 784 451 784 452 784 447 785 452 785 446 785 446 786 452 786 453 786 446 787 453 787 445 787 445 788 453 788 275 788 445 789 275 789 204 789 204 790 275 790 206 790 201 791 207 791 274 791 274 792 207 792 275 792 274 793 275 793 454 793 454 794 275 794 453 794 454 795 453 795 455 795 455 796 453 796 452 796 455 797 452 797 456 797 456 798 452 798 451 798 456 799 451 799 457 799 457 800 451 800 450 800 457 801 450 801 252 801 252 802 450 802 253 802 198 803 202 803 273 803 273 804 202 804 274 804 273 805 274 805 458 805 458 806 274 806 454 806 458 807 454 807 459 807 459 808 454 808 455 808 459 809 455 809 460 809 460 810 455 810 456 810 460 811 456 811 461 811 461 812 456 812 457 812 461 813 457 813 251 813 251 814 457 814 252 814 196 815 199 815 462 815 462 816 199 816 273 816 462 817 273 817 463 817 463 818 273 818 458 818 463 819 458 819 464 819 464 820 458 820 459 820 464 821 459 821 465 821 465 822 459 822 460 822 465 823 460 823 466 823 466 824 460 824 461 824 466 825 461 825 256 825 256 826 461 826 251 826 256 827 346 827 466 827 466 828 346 828 347 828 466 829 347 829 465 829 465 830 347 830 349 830 465 831 349 831 464 831 464 832 349 832 351 832 464 833 351 833 463 833 463 834 351 834 353 834 463 835 353 835 462 835 462 836 353 836 355 836 462 837 355 837 196 837 196 838 355 838 467 838 272 839 191 839 355 839 355 840 191 840 193 840 355 841 193 841 467 841 187 842 186 842 468 842 468 843 186 843 272 843 468 844 272 844 469 844 469 845 272 845 354 845 469 846 354 846 470 846 470 847 354 847 352 847 470 848 352 848 471 848 471 849 352 849 350 849 471 850 350 850 472 850 472 851 350 851 348 851 472 852 348 852 259 852 259 853 348 853 254 853 259 854 258 854 472 854 472 855 258 855 473 855 472 856 473 856 471 856 471 857 473 857 474 857 471 858 474 858 470 858 470 859 474 859 475 859 470 860 475 860 469 860 469 861 475 861 476 861 469 862 476 862 468 862 468 863 476 863 271 863 468 864 271 864 187 864 187 865 271 865 189 865 184 866 190 866 270 866 270 867 190 867 271 867 270 868 271 868 477 868 477 869 271 869 476 869 477 870 476 870 478 870 478 871 476 871 475 871 478 872 475 872 479 872 479 873 475 873 474 873 479 874 474 874 480 874 480 875 474 875 473 875 480 876 473 876 257 876 257 877 473 877 258 877 182 878 185 878 481 878 481 879 185 879 270 879 481 880 270 880 482 880 482 881 270 881 477 881 482 882 477 882 483 882 483 883 477 883 478 883 483 884 478 884 484 884 484 885 478 885 479 885 484 886 479 886 485 886 485 887 479 887 480 887 485 888 480 888 262 888 262 889 480 889 257 889 262 890 261 890 485 890 485 891 261 891 486 891 485 892 486 892 484 892 484 893 486 893 487 893 484 894 487 894 483 894 483 895 487 895 488 895 483 896 488 896 482 896 482 897 488 897 489 897 482 898 489 898 481 898 481 899 489 899 269 899 481 900 269 900 182 900 182 901 269 901 180 901 177 902 179 902 364 902 364 903 179 903 269 903 364 904 269 904 362 904 362 905 269 905 489 905 362 906 489 906 360 906 360 907 489 907 488 907 360 908 488 908 358 908 358 909 488 909 487 909 358 910 487 910 356 910 356 911 487 911 486 911 356 912 486 912 260 912 260 913 486 913 261 913 268 914 174 914 364 914 364 915 174 915 176 915 364 916 176 916 177 916 166 917 165 917 490 917 490 918 165 918 268 918 490 919 268 919 491 919 491 920 268 920 363 920 491 921 363 921 492 921 492 922 363 922 361 922 492 923 361 923 493 923 493 924 361 924 359 924 493 925 359 925 494 925 494 926 359 926 357 926 494 927 357 927 263 927 263 928 357 928 264 928 263 929 221 929 494 929 494 930 221 930 300 930 494 931 300 931 493 931 493 932 300 932 301 932 493 933 301 933 492 933 492 934 301 934 302 934 492 935 302 935 491 935 491 936 302 936 303 936 491 937 303 937 490 937 490 938 303 938 267 938 490 939 267 939 166 939 166 940 267 940 168 940 224 941 372 941 289 941 289 942 372 942 368 942 289 943 368 943 291 943 291 944 368 944 309 944 291 945 309 945 294 945 294 946 309 946 304 946 294 947 304 947 299 947 299 948 304 948 306 948 299 949 306 949 267 949 267 950 306 950 365 950 267 951 365 951 170 951</p>
                </triangles>
            </mesh>
        </geometry>
    </library_geometries>
    <library_visual_scenes>
        <visual_scene id="VisualSceneNode" name="VisualScene">
            <node id="node" name="node">
                <instance_geometry url="#shape0-lib"/>
            </node>
        </visual_scene>
    </library_visual_scenes>
    <scene>
        <instance_visual_scene url="#VisualSceneNode"/>
    </scene>
</COLLADA>
